<?xml version="1.0" encoding="UTF-8" standalone="no"?>
<!DOCTYPE svg PUBLIC "-//W3C//DTD SVG 1.1//EN"
 "http://www.w3.org/Graphics/SVG/1.1/DTD/svg11.dtd">
<!-- Generated by graphviz version 2.43.0 (0)
 -->
<!-- Title: main/ceo/managers/bus/include/BusManager.hpp Pages: 1 -->
<svg width="1584pt" height="368pt"
 viewBox="0.00 0.00 1584.00 368.00" xmlns="http://www.w3.org/2000/svg" xmlns:xlink="http://www.w3.org/1999/xlink">
<g id="graph0" class="graph" transform="scale(1 1) rotate(0) translate(4 364)">
<title>main/ceo/managers/bus/include/BusManager.hpp</title>
<!-- Node1 -->
<g id="Node000001" class="node">
<title>Node1</title>
<g id="a_Node000001"><a xlink:title="The peripheral nervous system managing all communication pathways.">
<polygon fill="#999999" stroke="#666666" points="759.5,-360 620.5,-360 620.5,-330 759.5,-330 759.5,-360"/>
<text text-anchor="start" x="628.5" y="-348" font-family="Helvetica,sans-Serif" font-size="10.00">main/ceo/managers/bus</text>
<text text-anchor="middle" x="690" y="-337" font-family="Helvetica,sans-Serif" font-size="10.00">/include/BusManager.hpp</text>
</a>
</g>
</g>
<!-- Node2 -->
<g id="Node000002" class="node">
<title>Node2</title>
<g id="a_Node000002"><a xlink:href="IActuator_8hpp.html" target="_top" xlink:title="The abstract behavioral contract for all executive organs (limbs).">
<polygon fill="white" stroke="#666666" points="153.5,-162 28.5,-162 28.5,-132 153.5,-132 153.5,-162"/>
<text text-anchor="start" x="36.5" y="-150" font-family="Helvetica,sans-Serif" font-size="10.00">components/contracts</text>
<text text-anchor="middle" x="91" y="-139" font-family="Helvetica,sans-Serif" font-size="10.00">/include/IActuator.hpp</text>
</a>
</g>
</g>
<!-- Node1&#45;&gt;Node2 -->
<g id="edge1_Node000001_Node000002" class="edge">
<title>Node1&#45;&gt;Node2</title>
<g id="a_edge1_Node000001_Node000002"><a xlink:title=" ">
<path fill="none" stroke="#63b8ff" d="M610.43,-340.52C473.36,-333.92 203.87,-318.05 168,-294 120.87,-262.41 100.58,-192.35 93.81,-162.22"/>
<polygon fill="#63b8ff" stroke="#63b8ff" points="610.31,-344.02 620.46,-341 610.64,-337.02 610.31,-344.02"/>
</a>
</g>
</g>
<!-- Node3 -->
<g id="Node000003" class="node">
<title>Node3</title>
<g id="a_Node000003"><a xlink:href="ActuatorManager_8cpp.html" target="_top" xlink:title=" ">
<polygon fill="white" stroke="#666666" points="187.5,-30 30.5,-30 30.5,0 187.5,0 187.5,-30"/>
<text text-anchor="start" x="38.5" y="-18" font-family="Helvetica,sans-Serif" font-size="10.00">main/ceo/managers/actuator</text>
<text text-anchor="middle" x="109" y="-7" font-family="Helvetica,sans-Serif" font-size="10.00">/ActuatorManager.cpp</text>
</a>
</g>
</g>
<!-- Node1&#45;&gt;Node3 -->
<g id="edge28_Node000001_Node000003" class="edge">
<title>Node1&#45;&gt;Node3</title>
<g id="a_edge28_Node000001_Node000003"><a xlink:title=" ">
<path fill="none" stroke="#63b8ff" d="M610.32,-341.15C478.55,-335.72 221.25,-321.86 135,-294 68.63,-272.56 0,-283.74 0,-214 0,-214 0,-214 0,-146 0,-93.43 52.99,-50.96 85.08,-30.07"/>
<polygon fill="#63b8ff" stroke="#63b8ff" points="610.22,-344.65 620.35,-341.56 610.5,-337.66 610.22,-344.65"/>
</a>
</g>
</g>
<!-- Node4 -->
<g id="Node000004" class="node">
<title>Node4</title>
<g id="a_Node000004"><a xlink:href="ActuatorManager_8hpp.html" target="_top" xlink:title="Interface for all executive organs (limbs) of the organism.">
<polygon fill="white" stroke="#666666" points="245,-96 83,-96 83,-66 245,-66 245,-96"/>
<text text-anchor="start" x="91" y="-84" font-family="Helvetica,sans-Serif" font-size="10.00">main/ceo/managers/actuator</text>
<text text-anchor="middle" x="164" y="-73" font-family="Helvetica,sans-Serif" font-size="10.00">/include/ActuatorManager.hpp</text>
</a>
</g>
</g>
<!-- Node1&#45;&gt;Node4 -->
<g id="edge29_Node000001_Node000004" class="edge">
<title>Node1&#45;&gt;Node4</title>
<g id="a_edge29_Node000001_Node000004"><a xlink:title=" ">
<path fill="none" stroke="#63b8ff" d="M609.93,-343.58C535.12,-340.73 421.54,-330.04 330,-294 282.5,-275.3 269.21,-266.77 236,-228 200.33,-186.36 177.37,-123.99 168.35,-96.22"/>
<polygon fill="#63b8ff" stroke="#63b8ff" points="610.11,-347.08 620.22,-343.93 610.35,-340.09 610.11,-347.08"/>
</a>
</g>
</g>
<!-- Node5 -->
<g id="Node000005" class="node">
<title>Node5</title>
<g id="a_Node000005"><a xlink:href="CEO_8cpp.html" target="_top" xlink:title=" ">
<polygon fill="white" stroke="#666666" points="638.5,-24.5 533.5,-24.5 533.5,-5.5 638.5,-5.5 638.5,-24.5"/>
<text text-anchor="middle" x="586" y="-12.5" font-family="Helvetica,sans-Serif" font-size="10.00">main/ceo/CEO.cpp</text>
</a>
</g>
</g>
<!-- Node1&#45;&gt;Node5 -->
<g id="edge27_Node000001_Node000005" class="edge">
<title>Node1&#45;&gt;Node5</title>
<g id="a_edge27_Node000001_Node000005"><a xlink:title=" ">
<path fill="none" stroke="#63b8ff" d="M769.86,-337.96C958.13,-322.64 1414,-278.85 1414,-214 1414,-214 1414,-214 1414,-146 1414,-67.2 821.12,-28.67 638.74,-18.69"/>
<polygon fill="#63b8ff" stroke="#63b8ff" points="769.43,-334.48 759.75,-338.77 770,-341.46 769.43,-334.48"/>
</a>
</g>
</g>
<!-- Node6 -->
<g id="Node000006" class="node">
<title>Node6</title>
<g id="a_Node000006"><a xlink:href="ISensor_8hpp.html" target="_top" xlink:title="The abstract behavioral contract for all sensory organs (receptors).">
<polygon fill="white" stroke="#666666" points="489.5,-294 364.5,-294 364.5,-264 489.5,-264 489.5,-294"/>
<text text-anchor="start" x="372.5" y="-282" font-family="Helvetica,sans-Serif" font-size="10.00">components/contracts</text>
<text text-anchor="middle" x="427" y="-271" font-family="Helvetica,sans-Serif" font-size="10.00">/include/ISensor.hpp</text>
</a>
</g>
</g>
<!-- Node1&#45;&gt;Node6 -->
<g id="edge6_Node000001_Node000006" class="edge">
<title>Node1&#45;&gt;Node6</title>
<g id="a_edge6_Node000001_Node000006"><a xlink:title=" ">
<path fill="none" stroke="#63b8ff" d="M622.54,-327.58C579.84,-317.19 525.23,-303.9 484.58,-294.01"/>
<polygon fill="#63b8ff" stroke="#63b8ff" points="621.74,-330.99 632.28,-329.95 623.39,-324.19 621.74,-330.99"/>
</a>
</g>
</g>
<!-- Node7 -->
<g id="Node000007" class="node">
<title>Node7</title>
<g id="a_Node000007"><a xlink:href="SensorManager_8cpp.html" target="_top" xlink:title=" ">
<polygon fill="white" stroke="#666666" points="396.5,-162 247.5,-162 247.5,-132 396.5,-132 396.5,-162"/>
<text text-anchor="start" x="255.5" y="-150" font-family="Helvetica,sans-Serif" font-size="10.00">main/ceo/managers/sensor</text>
<text text-anchor="middle" x="322" y="-139" font-family="Helvetica,sans-Serif" font-size="10.00">/SensorManager.cpp</text>
</a>
</g>
</g>
<!-- Node1&#45;&gt;Node7 -->
<g id="edge32_Node000001_Node000007" class="edge">
<title>Node1&#45;&gt;Node7</title>
<g id="a_edge32_Node000001_Node000007"><a xlink:title=" ">
<path fill="none" stroke="#63b8ff" d="M657.17,-324.76C607.93,-296.13 511.76,-241.03 428,-198 403.2,-185.26 374.59,-171.84 353.35,-162.11"/>
<polygon fill="#63b8ff" stroke="#63b8ff" points="655.69,-327.95 666.09,-329.96 659.22,-321.9 655.69,-327.95"/>
</a>
</g>
</g>
<!-- Node8 -->
<g id="Node000008" class="node">
<title>Node8</title>
<g id="a_Node000008"><a xlink:href="SensorManager_8hpp.html" target="_top" xlink:title="The sensory cortex (afferent system) of the organism.">
<polygon fill="white" stroke="#666666" points="399,-228 245,-228 245,-198 399,-198 399,-228"/>
<text text-anchor="start" x="253" y="-216" font-family="Helvetica,sans-Serif" font-size="10.00">main/ceo/managers/sensor</text>
<text text-anchor="middle" x="322" y="-205" font-family="Helvetica,sans-Serif" font-size="10.00">/include/SensorManager.hpp</text>
</a>
</g>
</g>
<!-- Node1&#45;&gt;Node8 -->
<g id="edge33_Node000001_Node000008" class="edge">
<title>Node1&#45;&gt;Node8</title>
<g id="a_edge33_Node000001_Node000008"><a xlink:title=" ">
<path fill="none" stroke="#63b8ff" d="M610.46,-340.91C524.51,-336.06 394.63,-323.91 356,-294 335.12,-277.83 326.9,-246.39 323.79,-228.1"/>
<polygon fill="#63b8ff" stroke="#63b8ff" points="610.28,-344.4 620.46,-341.45 610.66,-337.41 610.28,-344.4"/>
</a>
</g>
</g>
<!-- Node9 -->
<g id="Node000009" class="node">
<title>Node9</title>
<g id="a_Node000009"><a xlink:href="ITimeSource_8hpp.html" target="_top" xlink:title="The abstract behavioral contract for all temporal reference organs.">
<polygon fill="white" stroke="#666666" points="922,-294 782,-294 782,-264 922,-264 922,-294"/>
<text text-anchor="start" x="790" y="-282" font-family="Helvetica,sans-Serif" font-size="10.00">components/contracts</text>
<text text-anchor="middle" x="852" y="-271" font-family="Helvetica,sans-Serif" font-size="10.00">/include/ITimeSource.hpp</text>
</a>
</g>
</g>
<!-- Node1&#45;&gt;Node9 -->
<g id="edge11_Node000001_Node000009" class="edge">
<title>Node1&#45;&gt;Node9</title>
<g id="a_edge11_Node000001_Node000009"><a xlink:title=" ">
<path fill="none" stroke="#63b8ff" d="M735.09,-326.19C760.81,-316.02 792.6,-303.47 816.53,-294.01"/>
<polygon fill="#63b8ff" stroke="#63b8ff" points="733.57,-323.03 725.55,-329.95 736.14,-329.54 733.57,-323.03"/>
</a>
</g>
</g>
<!-- Node12 -->
<g id="Node000012" class="node">
<title>Node12</title>
<g id="a_Node000012"><a xlink:href="CommunicationManager_8hpp.html" target="_top" xlink:title="The external interface and vocal apparatus of the organism.">
<polygon fill="white" stroke="#666666" points="613,-162 415,-162 415,-132 613,-132 613,-162"/>
<text text-anchor="start" x="423" y="-150" font-family="Helvetica,sans-Serif" font-size="10.00">main/ceo/managers/communication</text>
<text text-anchor="middle" x="514" y="-139" font-family="Helvetica,sans-Serif" font-size="10.00">/include/CommunicationManager.hpp</text>
</a>
</g>
</g>
<!-- Node1&#45;&gt;Node12 -->
<g id="edge31_Node000001_Node000012" class="edge">
<title>Node1&#45;&gt;Node12</title>
<g id="a_edge31_Node000001_Node000012"><a xlink:title=" ">
<path fill="none" stroke="#63b8ff" d="M673.41,-321.71C651.12,-292.29 609.71,-239.36 570,-198 557.72,-185.21 542.69,-171.9 531.29,-162.23"/>
<polygon fill="#63b8ff" stroke="#63b8ff" points="670.62,-323.83 679.43,-329.71 676.21,-319.62 670.62,-323.83"/>
</a>
</g>
</g>
<!-- Node14 -->
<g id="Node000014" class="node">
<title>Node14</title>
<g id="a_Node000014"><a xlink:href="StorageManager_8cpp.html" target="_top" xlink:title="Implementation of hybrid storage management according to AGX Rule.">
<polygon fill="white" stroke="#666666" points="998.5,-96 845.5,-96 845.5,-66 998.5,-66 998.5,-96"/>
<text text-anchor="start" x="853.5" y="-84" font-family="Helvetica,sans-Serif" font-size="10.00">main/ceo/managers/storage</text>
<text text-anchor="middle" x="922" y="-73" font-family="Helvetica,sans-Serif" font-size="10.00">/StorageManager.cpp</text>
</a>
</g>
</g>
<!-- Node1&#45;&gt;Node14 -->
<g id="edge34_Node000001_Node000014" class="edge">
<title>Node1&#45;&gt;Node14</title>
<g id="a_edge34_Node000001_Node000014"><a xlink:title=" ">
<path fill="none" stroke="#63b8ff" d="M770.12,-334.91C932.44,-314.6 1290.42,-259.47 1357,-162 1364.52,-150.99 1365.87,-141.95 1357,-132 1333.63,-105.79 1117.44,-91.37 998.9,-85.37"/>
<polygon fill="#63b8ff" stroke="#63b8ff" points="769.21,-331.5 759.71,-336.2 770.07,-338.45 769.21,-331.5"/>
</a>
</g>
</g>
<!-- Node15 -->
<g id="Node000015" class="node">
<title>Node15</title>
<g id="a_Node000015"><a xlink:href="StorageManager_8hpp.html" target="_top" xlink:title="The long&#45;term memory and archivist (hippocampus) of the organism.">
<polygon fill="white" stroke="#666666" points="789,-162 631,-162 631,-132 789,-132 789,-162"/>
<text text-anchor="start" x="639" y="-150" font-family="Helvetica,sans-Serif" font-size="10.00">main/ceo/managers/storage</text>
<text text-anchor="middle" x="710" y="-139" font-family="Helvetica,sans-Serif" font-size="10.00">/include/StorageManager.hpp</text>
</a>
</g>
</g>
<!-- Node1&#45;&gt;Node15 -->
<g id="edge35_Node000001_Node000015" class="edge">
<title>Node1&#45;&gt;Node15</title>
<g id="a_edge35_Node000001_Node000015"><a xlink:title=" ">
<path fill="none" stroke="#63b8ff" d="M692.46,-319.89C696.68,-278.58 705.15,-195.48 708.55,-162.23"/>
<polygon fill="#63b8ff" stroke="#63b8ff" points="688.97,-319.6 691.44,-329.9 695.94,-320.31 688.97,-319.6"/>
</a>
</g>
</g>
<!-- Node16 -->
<g id="Node000016" class="node">
<title>Node16</title>
<g id="a_Node000016"><a xlink:href="ToolBox_8cpp.html" target="_top" xlink:title=" ">
<polygon fill="white" stroke="#666666" points="1165.5,-156.5 1040.5,-156.5 1040.5,-137.5 1165.5,-137.5 1165.5,-156.5"/>
<text text-anchor="middle" x="1103" y="-144.5" font-family="Helvetica,sans-Serif" font-size="10.00">main/tool/ToolBox.cpp</text>
</a>
</g>
</g>
<!-- Node1&#45;&gt;Node16 -->
<g id="edge36_Node000001_Node000016" class="edge">
<title>Node1&#45;&gt;Node16</title>
<g id="a_edge36_Node000001_Node000016"><a xlink:title=" ">
<path fill="none" stroke="#63b8ff" d="M769.84,-337.5C818.39,-331.15 880.54,-318.64 931,-294 1005.27,-257.74 1073.96,-182.07 1095.81,-156.59"/>
<polygon fill="#63b8ff" stroke="#63b8ff" points="769.18,-334.06 759.69,-338.77 770.05,-341 769.18,-334.06"/>
</a>
</g>
</g>
<!-- Node17 -->
<g id="Node000017" class="node">
<title>Node17</title>
<g id="a_Node000017"><a xlink:href="ToolBox_8hpp.html" target="_top" xlink:title="The metabolic support and universal toolkit of the organism.">
<polygon fill="white" stroke="#666666" points="1348,-156.5 1184,-156.5 1184,-137.5 1348,-137.5 1348,-156.5"/>
<text text-anchor="middle" x="1266" y="-144.5" font-family="Helvetica,sans-Serif" font-size="10.00">main/tool/include/ToolBox.hpp</text>
</a>
</g>
</g>
<!-- Node1&#45;&gt;Node17 -->
<g id="edge37_Node000001_Node000017" class="edge">
<title>Node1&#45;&gt;Node17</title>
<g id="a_edge37_Node000001_Node000017"><a xlink:title=" ">
<path fill="none" stroke="#63b8ff" d="M769.51,-335.75C826.14,-328.44 903.5,-315.5 969,-294 1083.91,-256.29 1210.66,-181.88 1252.08,-156.62"/>
<polygon fill="#63b8ff" stroke="#63b8ff" points="769.03,-332.28 759.54,-337.01 769.9,-339.23 769.03,-332.28"/>
</a>
</g>
</g>
<!-- Node18 -->
<g id="Node000018" class="node">
<title>Node18</title>
<g id="a_Node000018"><a xlink:href="BusManager_8cpp.html" target="_top" xlink:title=" ">
<polygon fill="white" stroke="#666666" points="1576,-294 1442,-294 1442,-264 1576,-264 1576,-294"/>
<text text-anchor="start" x="1450" y="-282" font-family="Helvetica,sans-Serif" font-size="10.00">main/ceo/managers/bus</text>
<text text-anchor="middle" x="1509" y="-271" font-family="Helvetica,sans-Serif" font-size="10.00">/BusManager.cpp</text>
</a>
</g>
</g>
<!-- Node1&#45;&gt;Node18 -->
<g id="edge30_Node000001_Node000018" class="edge">
<title>Node1&#45;&gt;Node18</title>
<g id="a_edge30_Node000001_Node000018"><a xlink:title=" ">
<path fill="none" stroke="#63b8ff" d="M769.97,-341.3C905.67,-336.1 1189.56,-322.6 1428,-294 1432.53,-293.46 1437.2,-292.83 1441.89,-292.15"/>
<polygon fill="#63b8ff" stroke="#63b8ff" points="769.53,-337.81 759.67,-341.68 769.79,-344.8 769.53,-337.81"/>
</a>
</g>
</g>
<!-- Node2&#45;&gt;Node3 -->
<g id="edge2_Node000002_Node000003" class="edge">
<title>Node2&#45;&gt;Node3</title>
<g id="a_edge2_Node000002_Node000003"><a xlink:title=" ">
<path fill="none" stroke="#63b8ff" d="M79.78,-122.69C73.53,-106.57 68.1,-84.73 74,-66 78.27,-52.46 87.66,-39.39 95.64,-30.02"/>
<polygon fill="#63b8ff" stroke="#63b8ff" points="76.56,-124.07 83.68,-131.92 83.01,-121.34 76.56,-124.07"/>
</a>
</g>
</g>
<!-- Node2&#45;&gt;Node4 -->
<g id="edge3_Node000002_Node000004" class="edge">
<title>Node2&#45;&gt;Node4</title>
<g id="a_edge3_Node000002_Node000004"><a xlink:title=" ">
<path fill="none" stroke="#63b8ff" d="M114.72,-125.2C125.56,-115.7 138.12,-104.69 147.84,-96.16"/>
<polygon fill="#63b8ff" stroke="#63b8ff" points="112.41,-122.57 107.2,-131.8 117.03,-127.84 112.41,-122.57"/>
</a>
</g>
</g>
<!-- Node4&#45;&gt;Node3 -->
<g id="edge5_Node000004_Node000003" class="edge">
<title>Node4&#45;&gt;Node3</title>
<g id="a_edge5_Node000004_Node000003"><a xlink:title=" ">
<path fill="none" stroke="#63b8ff" d="M145.17,-58.09C137.23,-48.85 128.22,-38.36 121.17,-30.16"/>
<polygon fill="#63b8ff" stroke="#63b8ff" points="142.62,-60.49 151.79,-65.8 147.93,-55.93 142.62,-60.49"/>
</a>
</g>
</g>
<!-- Node4&#45;&gt;Node5 -->
<g id="edge4_Node000004_Node000005" class="edge">
<title>Node4&#45;&gt;Node5</title>
<g id="a_edge4_Node000004_Node000005"><a xlink:title=" ">
<path fill="none" stroke="#63b8ff" d="M255.26,-66.16C340.14,-53.29 463.66,-34.55 533.23,-24"/>
<polygon fill="#63b8ff" stroke="#63b8ff" points="254.73,-62.7 245.37,-67.66 255.78,-69.62 254.73,-62.7"/>
</a>
</g>
</g>
<!-- Node6&#45;&gt;Node7 -->
<g id="edge7_Node000006_Node000007" class="edge">
<title>Node6&#45;&gt;Node7</title>
<g id="a_edge7_Node000006_Node000007"><a xlink:title=" ">
<path fill="none" stroke="#63b8ff" d="M426.18,-253.59C424.5,-236.56 419.94,-214.08 408,-198 396.06,-181.92 377.28,-170.14 360.31,-162.07"/>
<polygon fill="#63b8ff" stroke="#63b8ff" points="422.71,-254.16 426.92,-263.88 429.69,-253.65 422.71,-254.16"/>
</a>
</g>
</g>
<!-- Node6&#45;&gt;Node8 -->
<g id="edge8_Node000006_Node000008" class="edge">
<title>Node6&#45;&gt;Node8</title>
<g id="a_edge8_Node000006_Node000008"><a xlink:title=" ">
<path fill="none" stroke="#63b8ff" d="M395.33,-258.69C379.12,-248.82 359.75,-237.01 344.99,-228.01"/>
<polygon fill="#63b8ff" stroke="#63b8ff" points="393.6,-261.74 403.96,-263.95 397.24,-255.76 393.6,-261.74"/>
</a>
</g>
</g>
<!-- Node8&#45;&gt;Node5 -->
<g id="edge9_Node000008_Node000005" class="edge">
<title>Node8&#45;&gt;Node5</title>
<g id="a_edge9_Node000008_Node000005"><a xlink:title=" ">
<path fill="none" stroke="#63b8ff" d="M272.39,-193.07C259.2,-185.5 246.53,-175.33 239,-162 232.44,-150.39 231.21,-142.82 239,-132 306.74,-37.93 454.25,-19.03 533.37,-15.93"/>
<polygon fill="#63b8ff" stroke="#63b8ff" points="271.08,-196.34 281.56,-197.91 274.35,-190.15 271.08,-196.34"/>
</a>
</g>
</g>
<!-- Node8&#45;&gt;Node7 -->
<g id="edge10_Node000008_Node000007" class="edge">
<title>Node8&#45;&gt;Node7</title>
<g id="a_edge10_Node000008_Node000007"><a xlink:title=" ">
<path fill="none" stroke="#63b8ff" d="M322,-187.54C322,-178.96 322,-169.61 322,-162.16"/>
<polygon fill="#63b8ff" stroke="#63b8ff" points="318.5,-187.8 322,-197.8 325.5,-187.8 318.5,-187.8"/>
</a>
</g>
</g>
<!-- Node10 -->
<g id="Node000010" class="node">
<title>Node10</title>
<g id="a_Node000010"><a xlink:href="TimeManager_8cpp.html" target="_top" xlink:title=" ">
<polygon fill="white" stroke="#666666" points="1022.5,-162 883.5,-162 883.5,-132 1022.5,-132 1022.5,-162"/>
<text text-anchor="start" x="891.5" y="-150" font-family="Helvetica,sans-Serif" font-size="10.00">main/ceo/managers/time</text>
<text text-anchor="middle" x="953" y="-139" font-family="Helvetica,sans-Serif" font-size="10.00">/TimeManager.cpp</text>
</a>
</g>
</g>
<!-- Node9&#45;&gt;Node10 -->
<g id="edge12_Node000009_Node000010" class="edge">
<title>Node9&#45;&gt;Node10</title>
<g id="a_edge12_Node000009_Node000010"><a xlink:title=" ">
<path fill="none" stroke="#63b8ff" d="M896.69,-259.19C910.48,-251.39 924.51,-241.06 934,-228 948.35,-208.25 952,-179.19 952.85,-162.07"/>
<polygon fill="#63b8ff" stroke="#63b8ff" points="894.91,-256.17 887.71,-263.95 898.19,-262.36 894.91,-256.17"/>
</a>
</g>
</g>
<!-- Node11 -->
<g id="Node000011" class="node">
<title>Node11</title>
<g id="a_Node000011"><a xlink:href="TimeManager_8hpp.html" target="_top" xlink:title="The biological clock and circadian rhythm (pacemaker) of the organism.">
<polygon fill="white" stroke="#666666" points="925,-228 779,-228 779,-198 925,-198 925,-228"/>
<text text-anchor="start" x="787" y="-216" font-family="Helvetica,sans-Serif" font-size="10.00">main/ceo/managers/time</text>
<text text-anchor="middle" x="852" y="-205" font-family="Helvetica,sans-Serif" font-size="10.00">/include/TimeManager.hpp</text>
</a>
</g>
</g>
<!-- Node9&#45;&gt;Node11 -->
<g id="edge13_Node000009_Node000011" class="edge">
<title>Node9&#45;&gt;Node11</title>
<g id="a_edge13_Node000009_Node000011"><a xlink:title=" ">
<path fill="none" stroke="#63b8ff" d="M852,-253.54C852,-244.96 852,-235.61 852,-228.16"/>
<polygon fill="#63b8ff" stroke="#63b8ff" points="848.5,-253.8 852,-263.8 855.5,-253.8 848.5,-253.8"/>
</a>
</g>
</g>
<!-- Node11&#45;&gt;Node5 -->
<g id="edge14_Node000011_Node000005" class="edge">
<title>Node11&#45;&gt;Node5</title>
<g id="a_edge14_Node000011_Node000005"><a xlink:title=" ">
<path fill="none" stroke="#63b8ff" d="M839.24,-189.06C829.26,-172.24 814.37,-149.4 798,-132 764.98,-96.91 753.9,-89.78 712,-66 680.07,-47.88 640.27,-33.28 614.04,-24.63"/>
<polygon fill="#63b8ff" stroke="#63b8ff" points="836.21,-190.81 844.25,-197.71 842.27,-187.3 836.21,-190.81"/>
</a>
</g>
</g>
<!-- Node11&#45;&gt;Node10 -->
<g id="edge24_Node000011_Node000010" class="edge">
<title>Node11&#45;&gt;Node10</title>
<g id="a_edge24_Node000011_Node000010"><a xlink:title=" ">
<path fill="none" stroke="#63b8ff" d="M883.09,-192.3C898.46,-182.56 916.67,-171.02 930.65,-162.16"/>
<polygon fill="#63b8ff" stroke="#63b8ff" points="880.99,-189.49 874.42,-197.8 884.74,-195.4 880.99,-189.49"/>
</a>
</g>
</g>
<!-- Node11&#45;&gt;Node12 -->
<g id="edge15_Node000011_Node000012" class="edge">
<title>Node11&#45;&gt;Node12</title>
<g id="a_edge15_Node000011_Node000012"><a xlink:title=" ">
<path fill="none" stroke="#63b8ff" d="M768.53,-196.2C713.23,-185.72 641.34,-172.11 588.07,-162.03"/>
<polygon fill="#63b8ff" stroke="#63b8ff" points="768.18,-199.69 778.66,-198.11 769.48,-192.81 768.18,-199.69"/>
</a>
</g>
</g>
<!-- Node11&#45;&gt;Node14 -->
<g id="edge20_Node000011_Node000014" class="edge">
<title>Node11&#45;&gt;Node14</title>
<g id="a_edge20_Node000011_Node000014"><a xlink:title=" ">
<path fill="none" stroke="#63b8ff" d="M855.82,-187.95C859.17,-171.43 865.09,-149.41 875,-132 882.78,-118.33 895.03,-105.46 905.07,-96.21"/>
<polygon fill="#63b8ff" stroke="#63b8ff" points="852.36,-187.45 853.98,-197.92 859.24,-188.72 852.36,-187.45"/>
</a>
</g>
</g>
<!-- Node11&#45;&gt;Node15 -->
<g id="edge21_Node000011_Node000015" class="edge">
<title>Node11&#45;&gt;Node15</title>
<g id="a_edge21_Node000011_Node000015"><a xlink:title=" ">
<path fill="none" stroke="#63b8ff" d="M811.58,-193.78C789.2,-183.69 761.79,-171.34 741.09,-162.01"/>
<polygon fill="#63b8ff" stroke="#63b8ff" points="810.28,-197.04 820.84,-197.95 813.16,-190.65 810.28,-197.04"/>
</a>
</g>
</g>
<!-- Node11&#45;&gt;Node16 -->
<g id="edge25_Node000011_Node000016" class="edge">
<title>Node11&#45;&gt;Node16</title>
<g id="a_edge25_Node000011_Node000016"><a xlink:title=" ">
<path fill="none" stroke="#63b8ff" d="M916.94,-195.44C965.8,-182.98 1030.78,-166.42 1069.6,-156.52"/>
<polygon fill="#63b8ff" stroke="#63b8ff" points="915.91,-192.09 907.08,-197.95 917.64,-198.88 915.91,-192.09"/>
</a>
</g>
</g>
<!-- Node11&#45;&gt;Node17 -->
<g id="edge26_Node000011_Node000017" class="edge">
<title>Node11&#45;&gt;Node17</title>
<g id="a_edge26_Node000011_Node000017"><a xlink:title=" ">
<path fill="none" stroke="#63b8ff" d="M935.1,-199.15C1017.13,-186.47 1140.22,-167.44 1210.86,-156.52"/>
<polygon fill="#63b8ff" stroke="#63b8ff" points="934.41,-195.72 925.06,-200.71 935.48,-202.64 934.41,-195.72"/>
</a>
</g>
</g>
<!-- Node12&#45;&gt;Node3 -->
<g id="edge17_Node000012_Node000003" class="edge">
<title>Node12&#45;&gt;Node3</title>
<g id="a_edge17_Node000012_Node000003"><a xlink:title=" ">
<path fill="none" stroke="#63b8ff" d="M460.29,-128.76C379.32,-102.77 227.57,-54.06 152.85,-30.08"/>
<polygon fill="#63b8ff" stroke="#63b8ff" points="459.68,-132.24 470.27,-131.96 461.82,-125.58 459.68,-132.24"/>
</a>
</g>
</g>
<!-- Node12&#45;&gt;Node4 -->
<g id="edge18_Node000012_Node000004" class="edge">
<title>Node12&#45;&gt;Node4</title>
<g id="a_edge18_Node000012_Node000004"><a xlink:title=" ">
<path fill="none" stroke="#63b8ff" d="M427.08,-130.11C369.85,-119.64 295.64,-106.07 240.63,-96.01"/>
<polygon fill="#63b8ff" stroke="#63b8ff" points="426.72,-133.6 437.19,-131.95 427.98,-126.71 426.72,-133.6"/>
</a>
</g>
</g>
<!-- Node12&#45;&gt;Node5 -->
<g id="edge16_Node000012_Node000005" class="edge">
<title>Node12&#45;&gt;Node5</title>
<g id="a_edge16_Node000012_Node000005"><a xlink:title=" ">
<path fill="none" stroke="#63b8ff" d="M493.7,-123.64C481.18,-107.02 469.52,-84.17 481,-66 494.85,-44.06 521.25,-31.55 544.12,-24.53"/>
<polygon fill="#63b8ff" stroke="#63b8ff" points="491.2,-126.12 500.21,-131.71 496.65,-121.72 491.2,-126.12"/>
</a>
</g>
</g>
<!-- Node13 -->
<g id="Node000013" class="node">
<title>Node13</title>
<g id="a_Node000013"><a xlink:href="CommunicationManager_8cpp.html" target="_top" xlink:title=" ">
<polygon fill="white" stroke="#666666" points="682,-96 490,-96 490,-66 682,-66 682,-96"/>
<text text-anchor="start" x="498" y="-84" font-family="Helvetica,sans-Serif" font-size="10.00">main/ceo/managers/communication</text>
<text text-anchor="middle" x="586" y="-73" font-family="Helvetica,sans-Serif" font-size="10.00">/CommunicationManager.cpp</text>
</a>
</g>
</g>
<!-- Node12&#45;&gt;Node13 -->
<g id="edge19_Node000012_Node000013" class="edge">
<title>Node12&#45;&gt;Node13</title>
<g id="a_edge19_Node000012_Node000013"><a xlink:title=" ">
<path fill="none" stroke="#63b8ff" d="M537.71,-124.92C548.33,-115.49 560.57,-104.61 570.07,-96.16"/>
<polygon fill="#63b8ff" stroke="#63b8ff" points="535.13,-122.54 529.98,-131.8 539.78,-127.77 535.13,-122.54"/>
</a>
</g>
</g>
<!-- Node15&#45;&gt;Node5 -->
<g id="edge22_Node000015_Node000005" class="edge">
<title>Node15&#45;&gt;Node5</title>
<g id="a_edge22_Node000015_Node000005"><a xlink:title=" ">
<path fill="none" stroke="#63b8ff" d="M709.61,-121.58C708.14,-104.36 703.66,-81.66 691,-66 673.68,-44.57 644.97,-31.77 621.95,-24.5"/>
<polygon fill="#63b8ff" stroke="#63b8ff" points="706.13,-122.19 710.19,-131.98 713.12,-121.8 706.13,-122.19"/>
</a>
</g>
</g>
<!-- Node15&#45;&gt;Node14 -->
<g id="edge23_Node000015_Node000014" class="edge">
<title>Node15&#45;&gt;Node14</title>
<g id="a_edge23_Node000015_Node000014"><a xlink:title=" ">
<path fill="none" stroke="#63b8ff" d="M766.35,-128.99C800.46,-118.69 843.44,-105.72 875.58,-96.01"/>
<polygon fill="#63b8ff" stroke="#63b8ff" points="765.09,-125.71 756.52,-131.95 767.11,-132.42 765.09,-125.71"/>
</a>
</g>
</g>
</g>
</svg>
