<?xml version="1.0" encoding="UTF-8" standalone="no"?>
<!DOCTYPE svg PUBLIC "-//W3C//DTD SVG 1.1//EN"
 "http://www.w3.org/Graphics/SVG/1.1/DTD/svg11.dtd">
<!-- Generated by graphviz version 2.43.0 (0)
 -->
<!-- Title: main/ceo/managers/bus/include/BusManager.hpp Pages: 1 -->
<svg width="1050pt" height="203pt"
 viewBox="0.00 0.00 1049.50 203.00" xmlns="http://www.w3.org/2000/svg" xmlns:xlink="http://www.w3.org/1999/xlink">
<g id="graph0" class="graph" transform="scale(1 1) rotate(0) translate(4 199)">
<title>main/ceo/managers/bus/include/BusManager.hpp</title>
<!-- Node1 -->
<g id="Node000001" class="node">
<title>Node1</title>
<g id="a_Node000001"><a xlink:title="The peripheral nervous system managing all communication pathways.">
<polygon fill="#999999" stroke="#666666" points="499,-195 360,-195 360,-165 499,-165 499,-195"/>
<text text-anchor="start" x="368" y="-183" font-family="Helvetica,sans-Serif" font-size="10.00">main/ceo/managers/bus</text>
<text text-anchor="middle" x="429.5" y="-172" font-family="Helvetica,sans-Serif" font-size="10.00">/include/BusManager.hpp</text>
</a>
</g>
</g>
<!-- Node2 -->
<g id="Node000002" class="node">
<title>Node2</title>
<g id="a_Node000002"><a xlink:title=" ">
<polygon fill="#e0e0e0" stroke="#999999" points="799,-74 738,-74 738,-55 799,-55 799,-74"/>
<text text-anchor="middle" x="768.5" y="-62" font-family="Helvetica,sans-Serif" font-size="10.00">esp_err.h</text>
</a>
</g>
</g>
<!-- Node1&#45;&gt;Node2 -->
<g id="edge1_Node000001_Node000002" class="edge">
<title>Node1&#45;&gt;Node2</title>
<g id="a_edge1_Node000001_Node000002"><a xlink:title=" ">
<path fill="none" stroke="#63b8ff" d="M475.25,-164.93C506.87,-155.11 549.84,-141.56 587.5,-129 639.33,-111.71 699.07,-90.5 735.3,-77.5"/>
<polygon fill="#63b8ff" stroke="#63b8ff" points="736.64,-80.73 744.86,-74.06 734.27,-74.15 736.64,-80.73"/>
</a>
</g>
</g>
<!-- Node3 -->
<g id="Node000003" class="node">
<title>Node3</title>
<g id="a_Node000003"><a xlink:title=" ">
<polygon fill="#e0e0e0" stroke="#999999" points="294,-129 223,-129 223,-110 294,-110 294,-129"/>
<text text-anchor="middle" x="258.5" y="-117" font-family="Helvetica,sans-Serif" font-size="10.00">driver/i2c.h</text>
</a>
</g>
</g>
<!-- Node1&#45;&gt;Node3 -->
<g id="edge2_Node000001_Node000003" class="edge">
<title>Node1&#45;&gt;Node3</title>
<g id="a_edge2_Node000001_Node000003"><a xlink:title=" ">
<path fill="none" stroke="#63b8ff" d="M388.54,-164.99C359.5,-155.05 320.95,-141.86 293.38,-132.43"/>
<polygon fill="#63b8ff" stroke="#63b8ff" points="294.35,-129.06 283.75,-129.14 292.08,-135.69 294.35,-129.06"/>
</a>
</g>
</g>
<!-- Node4 -->
<g id="Node000004" class="node">
<title>Node4</title>
<g id="a_Node000004"><a xlink:title=" ">
<polygon fill="#e0e0e0" stroke="#999999" points="1041.5,-74 931.5,-74 931.5,-55 1041.5,-55 1041.5,-74"/>
<text text-anchor="middle" x="986.5" y="-62" font-family="Helvetica,sans-Serif" font-size="10.00">driver/spi_master.h</text>
</a>
</g>
</g>
<!-- Node1&#45;&gt;Node4 -->
<g id="edge3_Node000001_Node000004" class="edge">
<title>Node1&#45;&gt;Node4</title>
<g id="a_edge3_Node000001_Node000004"><a xlink:title=" ">
<path fill="none" stroke="#63b8ff" d="M499.18,-179.53C587.97,-178.32 745.18,-169.83 872.5,-129 907.8,-117.68 944.55,-94.89 966.47,-79.92"/>
<polygon fill="#63b8ff" stroke="#63b8ff" points="968.71,-82.62 974.91,-74.03 964.71,-76.88 968.71,-82.62"/>
</a>
</g>
</g>
<!-- Node5 -->
<g id="Node000005" class="node">
<title>Node5</title>
<g id="a_Node000005"><a xlink:title=" ">
<polygon fill="#e0e0e0" stroke="#999999" points="242,-74 165,-74 165,-55 242,-55 242,-74"/>
<text text-anchor="middle" x="203.5" y="-62" font-family="Helvetica,sans-Serif" font-size="10.00">driver/uart.h</text>
</a>
</g>
</g>
<!-- Node1&#45;&gt;Node5 -->
<g id="edge4_Node000001_Node000005" class="edge">
<title>Node1&#45;&gt;Node5</title>
<g id="a_edge4_Node000001_Node000005"><a xlink:title=" ">
<path fill="none" stroke="#63b8ff" d="M404.97,-164.96C379.6,-150.6 338.7,-127.94 302.5,-110 279.53,-98.62 253.02,-86.77 233.22,-78.16"/>
<polygon fill="#63b8ff" stroke="#63b8ff" points="234.37,-74.85 223.81,-74.1 231.6,-81.27 234.37,-74.85"/>
</a>
</g>
</g>
<!-- Node6 -->
<g id="Node000006" class="node">
<title>Node6</title>
<g id="a_Node000006"><a xlink:href="IManager_8hpp.html" target="_top" xlink:title="The abstract behavioral contract for all managers.">
<polygon fill="white" stroke="#666666" points="83,-19 0,-19 0,0 83,0 83,-19"/>
<text text-anchor="middle" x="41.5" y="-7" font-family="Helvetica,sans-Serif" font-size="10.00">IManager.hpp</text>
</a>
</g>
</g>
<!-- Node1&#45;&gt;Node6 -->
<g id="edge5_Node000001_Node000006" class="edge">
<title>Node1&#45;&gt;Node6</title>
<g id="a_edge5_Node000001_Node000006"><a xlink:title=" ">
<path fill="none" stroke="#63b8ff" d="M359.77,-169.69C316.39,-162.25 260.16,-149.58 213.5,-129 151.59,-101.7 88.56,-51.25 58.93,-25.89"/>
<polygon fill="#63b8ff" stroke="#63b8ff" points="61.01,-23.07 51.16,-19.16 56.43,-28.36 61.01,-23.07"/>
</a>
</g>
</g>
<!-- Node7 -->
<g id="Node000007" class="node">
<title>Node7</title>
<g id="a_Node000007"><a xlink:href="DataManager_8hpp.html" target="_top" xlink:title="The collective consciousness and unified system state mirror.">
<polygon fill="white" stroke="#666666" points="363,-74 260,-74 260,-55 363,-55 363,-74"/>
<text text-anchor="middle" x="311.5" y="-62" font-family="Helvetica,sans-Serif" font-size="10.00">DataManager.hpp</text>
</a>
</g>
</g>
<!-- Node1&#45;&gt;Node7 -->
<g id="edge6_Node000001_Node000007" class="edge">
<title>Node1&#45;&gt;Node7</title>
<g id="a_edge6_Node000001_Node000007"><a xlink:title=" ">
<path fill="none" stroke="#63b8ff" d="M414.56,-164.63C392.37,-143.28 350.86,-103.36 327.87,-81.25"/>
<polygon fill="#63b8ff" stroke="#63b8ff" points="330.21,-78.64 320.58,-74.23 325.36,-83.68 330.21,-78.64"/>
</a>
</g>
</g>
<!-- Node15 -->
<g id="Node000015" class="node">
<title>Node15</title>
<g id="a_Node000015"><a xlink:href="I2CBus_8hpp.html" target="_top" xlink:title="Industrial I2C Master bus driver with health monitoring.">
<polygon fill="white" stroke="#666666" points="579,-129 508,-129 508,-110 579,-110 579,-129"/>
<text text-anchor="middle" x="543.5" y="-117" font-family="Helvetica,sans-Serif" font-size="10.00">I2CBus.hpp</text>
</a>
</g>
</g>
<!-- Node1&#45;&gt;Node15 -->
<g id="edge15_Node000001_Node000015" class="edge">
<title>Node1&#45;&gt;Node15</title>
<g id="a_edge15_Node000001_Node000015"><a xlink:title=" ">
<path fill="none" stroke="#63b8ff" d="M456.81,-164.99C475.15,-155.58 499.18,-143.24 517.29,-133.95"/>
<polygon fill="#63b8ff" stroke="#63b8ff" points="519.37,-136.82 526.66,-129.14 516.17,-130.59 519.37,-136.82"/>
</a>
</g>
</g>
<!-- Node17 -->
<g id="Node000017" class="node">
<title>Node17</title>
<g id="a_Node000017"><a xlink:href="SPIBus_8hpp.html" target="_top" xlink:title="Industrial SPI Master bus driver with health monitoring.">
<polygon fill="white" stroke="#666666" points="863,-129 792,-129 792,-110 863,-110 863,-129"/>
<text text-anchor="middle" x="827.5" y="-117" font-family="Helvetica,sans-Serif" font-size="10.00">SPIBus.hpp</text>
</a>
</g>
</g>
<!-- Node1&#45;&gt;Node17 -->
<g id="edge22_Node000001_Node000017" class="edge">
<title>Node1&#45;&gt;Node17</title>
<g id="a_edge22_Node000001_Node000017"><a xlink:title=" ">
<path fill="none" stroke="#63b8ff" d="M499.28,-168.74C580.5,-156.81 712.3,-137.43 781.59,-127.25"/>
<polygon fill="#63b8ff" stroke="#63b8ff" points="782.37,-130.67 791.75,-125.75 781.35,-123.75 782.37,-130.67"/>
</a>
</g>
</g>
<!-- Node18 -->
<g id="Node000018" class="node">
<title>Node18</title>
<g id="a_Node000018"><a xlink:href="UARTBus_8hpp.html" target="_top" xlink:title="Industrial UART bus driver with health monitoring.">
<polygon fill="white" stroke="#666666" points="470.5,-129 388.5,-129 388.5,-110 470.5,-110 470.5,-129"/>
<text text-anchor="middle" x="429.5" y="-117" font-family="Helvetica,sans-Serif" font-size="10.00">UARTBus.hpp</text>
</a>
</g>
</g>
<!-- Node1&#45;&gt;Node18 -->
<g id="edge29_Node000001_Node000018" class="edge">
<title>Node1&#45;&gt;Node18</title>
<g id="a_edge29_Node000001_Node000018"><a xlink:title=" ">
<path fill="none" stroke="#63b8ff" d="M429.5,-164.84C429.5,-157.21 429.5,-147.7 429.5,-139.45"/>
<polygon fill="#63b8ff" stroke="#63b8ff" points="433,-139.27 429.5,-129.27 426,-139.27 433,-139.27"/>
</a>
</g>
</g>
<!-- Node7&#45;&gt;Node6 -->
<g id="edge14_Node000007_Node000006" class="edge">
<title>Node7&#45;&gt;Node6</title>
<g id="a_edge14_Node000007_Node000006"><a xlink:title=" ">
<path fill="none" stroke="#63b8ff" d="M268.12,-54.98C220.56,-45.65 144.29,-30.68 93.55,-20.72"/>
<polygon fill="#63b8ff" stroke="#63b8ff" points="93.93,-17.22 83.44,-18.73 92.58,-24.09 93.93,-17.22"/>
</a>
</g>
</g>
<!-- Node8 -->
<g id="Node000008" class="node">
<title>Node8</title>
<g id="a_Node000008"><a xlink:title=" ">
<polygon fill="#e0e0e0" stroke="#999999" points="512,-19 459,-19 459,0 512,0 512,-19"/>
<text text-anchor="middle" x="485.5" y="-7" font-family="Helvetica,sans-Serif" font-size="10.00">stdint.h</text>
</a>
</g>
</g>
<!-- Node7&#45;&gt;Node8 -->
<g id="edge7_Node000007_Node000008" class="edge">
<title>Node7&#45;&gt;Node8</title>
<g id="a_edge7_Node000007_Node000008"><a xlink:title=" ">
<path fill="none" stroke="#63b8ff" d="M339.46,-54.98C369.23,-45.92 416.47,-31.53 449.13,-21.58"/>
<polygon fill="#63b8ff" stroke="#63b8ff" points="450.21,-24.91 458.76,-18.65 448.17,-18.21 450.21,-24.91"/>
</a>
</g>
</g>
<!-- Node9 -->
<g id="Node000009" class="node">
<title>Node9</title>
<g id="a_Node000009"><a xlink:title=" ">
<polygon fill="#e0e0e0" stroke="#999999" points="154,-19 101,-19 101,0 154,0 154,-19"/>
<text text-anchor="middle" x="127.5" y="-7" font-family="Helvetica,sans-Serif" font-size="10.00">string.h</text>
</a>
</g>
</g>
<!-- Node7&#45;&gt;Node9 -->
<g id="edge8_Node000007_Node000009" class="edge">
<title>Node7&#45;&gt;Node9</title>
<g id="a_edge8_Node000007_Node000009"><a xlink:title=" ">
<path fill="none" stroke="#63b8ff" d="M281.94,-54.98C249.76,-45.72 198.29,-30.89 163.71,-20.93"/>
<polygon fill="#63b8ff" stroke="#63b8ff" points="164.58,-17.54 154,-18.13 162.64,-24.27 164.58,-17.54"/>
</a>
</g>
</g>
<!-- Node10 -->
<g id="Node000010" class="node">
<title>Node10</title>
<g id="a_Node000010"><a xlink:title=" ">
<polygon fill="#e0e0e0" stroke="#999999" points="241,-19 172,-19 172,0 241,0 241,-19"/>
<text text-anchor="middle" x="206.5" y="-7" font-family="Helvetica,sans-Serif" font-size="10.00">type_traits</text>
</a>
</g>
</g>
<!-- Node7&#45;&gt;Node10 -->
<g id="edge9_Node000007_Node000010" class="edge">
<title>Node7&#45;&gt;Node10</title>
<g id="a_edge9_Node000007_Node000010"><a xlink:title=" ">
<path fill="none" stroke="#63b8ff" d="M294.63,-54.98C277.89,-46.54 252,-33.47 232.61,-23.68"/>
<polygon fill="#63b8ff" stroke="#63b8ff" points="234.18,-20.55 223.68,-19.17 231.03,-26.8 234.18,-20.55"/>
</a>
</g>
</g>
<!-- Node11 -->
<g id="Node000011" class="node">
<title>Node11</title>
<g id="a_Node000011"><a xlink:title=" ">
<polygon fill="#e0e0e0" stroke="#999999" points="643,-19 530,-19 530,0 643,0 643,-19"/>
<text text-anchor="middle" x="586.5" y="-7" font-family="Helvetica,sans-Serif" font-size="10.00">freertos/FreeRTOS.h</text>
</a>
</g>
</g>
<!-- Node7&#45;&gt;Node11 -->
<g id="edge10_Node000007_Node000011" class="edge">
<title>Node7&#45;&gt;Node11</title>
<g id="a_edge10_Node000007_Node000011"><a xlink:title=" ">
<path fill="none" stroke="#63b8ff" d="M355.68,-54.98C403.65,-45.74 480.31,-30.97 531.98,-21.01"/>
<polygon fill="#63b8ff" stroke="#63b8ff" points="532.81,-24.41 541.97,-19.08 531.49,-17.54 532.81,-24.41"/>
</a>
</g>
</g>
<!-- Node12 -->
<g id="Node000012" class="node">
<title>Node12</title>
<g id="a_Node000012"><a xlink:title=" ">
<polygon fill="#e0e0e0" stroke="#999999" points="764,-19 661,-19 661,0 764,0 764,-19"/>
<text text-anchor="middle" x="712.5" y="-7" font-family="Helvetica,sans-Serif" font-size="10.00">freertos/semphr.h</text>
</a>
</g>
</g>
<!-- Node7&#45;&gt;Node12 -->
<g id="edge11_Node000007_Node000012" class="edge">
<title>Node7&#45;&gt;Node12</title>
<g id="a_edge11_Node000007_Node000012"><a xlink:title=" ">
<path fill="none" stroke="#63b8ff" d="M363.07,-56.89C427.69,-48.57 542.1,-33.74 650.76,-19.09"/>
<polygon fill="#63b8ff" stroke="#63b8ff" points="651.48,-22.52 660.92,-17.72 650.54,-15.59 651.48,-22.52"/>
</a>
</g>
</g>
<!-- Node13 -->
<g id="Node000013" class="node">
<title>Node13</title>
<g id="a_Node000013"><a xlink:title=" ">
<polygon fill="#e0e0e0" stroke="#999999" points="359.5,-19 259.5,-19 259.5,0 359.5,0 359.5,-19"/>
<text text-anchor="middle" x="309.5" y="-7" font-family="Helvetica,sans-Serif" font-size="10.00">esp_heap_caps.h</text>
</a>
</g>
</g>
<!-- Node7&#45;&gt;Node13 -->
<g id="edge12_Node000007_Node000013" class="edge">
<title>Node7&#45;&gt;Node13</title>
<g id="a_edge12_Node000007_Node000013"><a xlink:title=" ">
<path fill="none" stroke="#63b8ff" d="M311.17,-54.75C310.91,-47.8 310.53,-37.85 310.2,-29.13"/>
<polygon fill="#63b8ff" stroke="#63b8ff" points="313.7,-28.95 309.82,-19.09 306.7,-29.21 313.7,-28.95"/>
</a>
</g>
</g>
<!-- Node14 -->
<g id="Node000014" class="node">
<title>Node14</title>
<g id="a_Node000014"><a xlink:title=" ">
<polygon fill="#e0e0e0" stroke="#999999" points="441,-19 378,-19 378,0 441,0 441,-19"/>
<text text-anchor="middle" x="409.5" y="-7" font-family="Helvetica,sans-Serif" font-size="10.00">esp_log.h</text>
</a>
</g>
</g>
<!-- Node7&#45;&gt;Node14 -->
<g id="edge13_Node000007_Node000014" class="edge">
<title>Node7&#45;&gt;Node14</title>
<g id="a_edge13_Node000007_Node000014"><a xlink:title=" ">
<path fill="none" stroke="#63b8ff" d="M327.25,-54.98C342.73,-46.61 366.59,-33.7 384.64,-23.95"/>
<polygon fill="#63b8ff" stroke="#63b8ff" points="386.34,-27.01 393.47,-19.17 383.01,-20.85 386.34,-27.01"/>
</a>
</g>
</g>
<!-- Node15&#45;&gt;Node2 -->
<g id="edge20_Node000015_Node000002" class="edge">
<title>Node15&#45;&gt;Node2</title>
<g id="a_edge20_Node000015_Node000002"><a xlink:title=" ">
<path fill="none" stroke="#63b8ff" d="M579.15,-110.1C619.56,-100.58 685.31,-85.1 727.73,-75.1"/>
<polygon fill="#63b8ff" stroke="#63b8ff" points="728.78,-78.45 737.71,-72.75 727.18,-71.64 728.78,-78.45"/>
</a>
</g>
</g>
<!-- Node15&#45;&gt;Node7 -->
<g id="edge21_Node000015_Node000007" class="edge">
<title>Node15&#45;&gt;Node7</title>
<g id="a_edge21_Node000015_Node000007"><a xlink:title=" ">
<path fill="none" stroke="#63b8ff" d="M507.76,-110.33C467.78,-101.2 402.87,-86.37 358.73,-76.29"/>
<polygon fill="#63b8ff" stroke="#63b8ff" points="359.35,-72.84 348.82,-74.03 357.79,-79.66 359.35,-72.84"/>
</a>
</g>
</g>
<!-- Node15&#45;&gt;Node8 -->
<g id="edge16_Node000015_Node000008" class="edge">
<title>Node15&#45;&gt;Node8</title>
<g id="a_edge16_Node000015_Node000008"><a xlink:title=" ">
<path fill="none" stroke="#63b8ff" d="M538.75,-109.66C529.19,-91.85 507.45,-51.37 494.9,-28.01"/>
<polygon fill="#63b8ff" stroke="#63b8ff" points="497.96,-26.31 490.15,-19.16 491.8,-29.62 497.96,-26.31"/>
</a>
</g>
</g>
<!-- Node15&#45;&gt;Node11 -->
<g id="edge18_Node000015_Node000011" class="edge">
<title>Node15&#45;&gt;Node11</title>
<g id="a_edge18_Node000015_Node000011"><a xlink:title=" ">
<path fill="none" stroke="#63b8ff" d="M545.53,-109.68C548.54,-97.23 554.66,-73.92 562.5,-55 566.32,-45.78 571.48,-35.96 576.04,-27.91"/>
<polygon fill="#63b8ff" stroke="#63b8ff" points="579.16,-29.51 581.17,-19.11 573.11,-25.98 579.16,-29.51"/>
</a>
</g>
</g>
<!-- Node15&#45;&gt;Node12 -->
<g id="edge19_Node000015_Node000012" class="edge">
<title>Node15&#45;&gt;Node12</title>
<g id="a_edge19_Node000015_Node000012"><a xlink:title=" ">
<path fill="none" stroke="#63b8ff" d="M579.22,-116.66C612.18,-113.11 660.41,-102.92 690.5,-74 702.71,-62.26 708.15,-43.41 710.57,-29.3"/>
<polygon fill="#63b8ff" stroke="#63b8ff" points="714.06,-29.59 711.93,-19.21 707.12,-28.65 714.06,-29.59"/>
</a>
</g>
</g>
<!-- Node16 -->
<g id="Node000016" class="node">
<title>Node16</title>
<g id="a_Node000016"><a xlink:title=" ">
<polygon fill="#e0e0e0" stroke="#999999" points="681.5,-74 571.5,-74 571.5,-55 681.5,-55 681.5,-74"/>
<text text-anchor="middle" x="626.5" y="-62" font-family="Helvetica,sans-Serif" font-size="10.00">driver/i2c_master.h</text>
</a>
</g>
</g>
<!-- Node15&#45;&gt;Node16 -->
<g id="edge17_Node000015_Node000016" class="edge">
<title>Node15&#45;&gt;Node16</title>
<g id="a_edge17_Node000015_Node000016"><a xlink:title=" ">
<path fill="none" stroke="#63b8ff" d="M556.84,-109.98C569.59,-101.84 589.05,-89.41 604.17,-79.76"/>
<polygon fill="#63b8ff" stroke="#63b8ff" points="606.38,-82.5 612.92,-74.17 602.61,-76.6 606.38,-82.5"/>
</a>
</g>
</g>
<!-- Node17&#45;&gt;Node2 -->
<g id="edge27_Node000017_Node000002" class="edge">
<title>Node17&#45;&gt;Node2</title>
<g id="a_edge27_Node000017_Node000002"><a xlink:title=" ">
<path fill="none" stroke="#63b8ff" d="M818.02,-109.98C809.3,-102.15 796.16,-90.34 785.6,-80.86"/>
<polygon fill="#63b8ff" stroke="#63b8ff" points="787.93,-78.25 778.15,-74.17 783.25,-83.46 787.93,-78.25"/>
</a>
</g>
</g>
<!-- Node17&#45;&gt;Node4 -->
<g id="edge24_Node000017_Node000004" class="edge">
<title>Node17&#45;&gt;Node4</title>
<g id="a_edge24_Node000017_Node000004"><a xlink:title=" ">
<path fill="none" stroke="#63b8ff" d="M853.05,-109.98C879.62,-101.13 921.44,-87.19 951.17,-77.28"/>
<polygon fill="#63b8ff" stroke="#63b8ff" points="952.37,-80.56 960.75,-74.08 950.16,-73.92 952.37,-80.56"/>
</a>
</g>
</g>
<!-- Node17&#45;&gt;Node7 -->
<g id="edge28_Node000017_Node000007" class="edge">
<title>Node17&#45;&gt;Node7</title>
<g id="a_edge28_Node000017_Node000007"><a xlink:title=" ">
<path fill="none" stroke="#63b8ff" d="M791.63,-114.82C704.72,-105.89 482.1,-83.02 373.26,-71.84"/>
<polygon fill="#63b8ff" stroke="#63b8ff" points="373.4,-68.34 363.1,-70.8 372.69,-75.3 373.4,-68.34"/>
</a>
</g>
</g>
<!-- Node17&#45;&gt;Node8 -->
<g id="edge23_Node000017_Node000008" class="edge">
<title>Node17&#45;&gt;Node8</title>
<g id="a_edge23_Node000017_Node000008"><a xlink:title=" ">
<path fill="none" stroke="#63b8ff" d="M827.53,-109.94C827.09,-96.05 824.01,-68.77 807.5,-55 760.36,-15.68 599.14,-29.21 522.43,-18.93"/>
<polygon fill="#63b8ff" stroke="#63b8ff" points="522.61,-15.41 512.19,-17.31 521.52,-22.33 522.61,-15.41"/>
</a>
</g>
</g>
<!-- Node17&#45;&gt;Node11 -->
<g id="edge25_Node000017_Node000011" class="edge">
<title>Node17&#45;&gt;Node11</title>
<g id="a_edge25_Node000017_Node000011"><a xlink:title=" ">
<path fill="none" stroke="#63b8ff" d="M833.65,-109.59C842.07,-96.19 854.72,-70.73 841.5,-55 835.41,-47.75 726.77,-30.75 653.28,-19.99"/>
<polygon fill="#63b8ff" stroke="#63b8ff" points="653.56,-16.49 643.16,-18.51 652.55,-23.42 653.56,-16.49"/>
</a>
</g>
</g>
<!-- Node17&#45;&gt;Node12 -->
<g id="edge26_Node000017_Node000012" class="edge">
<title>Node17&#45;&gt;Node12</title>
<g id="a_edge26_Node000017_Node000012"><a xlink:title=" ">
<path fill="none" stroke="#63b8ff" d="M843.69,-109.8C864.13,-97.7 894.87,-75 879.5,-55 866.47,-38.04 816.16,-26.17 774.13,-18.98"/>
<polygon fill="#63b8ff" stroke="#63b8ff" points="774.64,-15.52 764.2,-17.34 773.5,-22.42 774.64,-15.52"/>
</a>
</g>
</g>
<!-- Node18&#45;&gt;Node2 -->
<g id="edge34_Node000018_Node000002" class="edge">
<title>Node18&#45;&gt;Node2</title>
<g id="a_edge34_Node000018_Node000002"><a xlink:title=" ">
<path fill="none" stroke="#63b8ff" d="M470.73,-112.05C536.05,-101.84 662.58,-82.06 727.66,-71.88"/>
<polygon fill="#63b8ff" stroke="#63b8ff" points="728.22,-75.34 737.56,-70.34 727.14,-68.42 728.22,-75.34"/>
</a>
</g>
</g>
<!-- Node18&#45;&gt;Node5 -->
<g id="edge31_Node000018_Node000005" class="edge">
<title>Node18&#45;&gt;Node5</title>
<g id="a_edge31_Node000018_Node000005"><a xlink:title=" ">
<path fill="none" stroke="#63b8ff" d="M393.19,-109.98C354.26,-100.86 292.34,-86.33 249.9,-76.38"/>
<polygon fill="#63b8ff" stroke="#63b8ff" points="250.63,-72.96 240.1,-74.08 249.03,-79.77 250.63,-72.96"/>
</a>
</g>
</g>
<!-- Node18&#45;&gt;Node7 -->
<g id="edge35_Node000018_Node000007" class="edge">
<title>Node18&#45;&gt;Node7</title>
<g id="a_edge35_Node000018_Node000007"><a xlink:title=" ">
<path fill="none" stroke="#63b8ff" d="M410.54,-109.98C391.47,-101.42 361.84,-88.11 339.95,-78.28"/>
<polygon fill="#63b8ff" stroke="#63b8ff" points="341.36,-75.07 330.8,-74.17 338.49,-81.46 341.36,-75.07"/>
</a>
</g>
</g>
<!-- Node18&#45;&gt;Node8 -->
<g id="edge30_Node000018_Node000008" class="edge">
<title>Node18&#45;&gt;Node8</title>
<g id="a_edge30_Node000018_Node000008"><a xlink:title=" ">
<path fill="none" stroke="#63b8ff" d="M423.94,-109.74C416.61,-96.97 405.72,-72.81 415.5,-55 423.27,-40.85 437.67,-30.56 451.39,-23.46"/>
<polygon fill="#63b8ff" stroke="#63b8ff" points="453.16,-26.49 460.69,-19.05 450.16,-20.17 453.16,-26.49"/>
</a>
</g>
</g>
<!-- Node18&#45;&gt;Node11 -->
<g id="edge32_Node000018_Node000011" class="edge">
<title>Node18&#45;&gt;Node11</title>
<g id="a_edge32_Node000018_Node000011"><a xlink:title=" ">
<path fill="none" stroke="#63b8ff" d="M430.42,-109.82C432.31,-96.26 437.87,-70.04 453.5,-55 471.54,-37.64 496.54,-27.05 520,-20.59"/>
<polygon fill="#63b8ff" stroke="#63b8ff" points="521.11,-23.92 529.94,-18.06 519.38,-17.13 521.11,-23.92"/>
</a>
</g>
</g>
<!-- Node18&#45;&gt;Node12 -->
<g id="edge33_Node000018_Node000012" class="edge">
<title>Node18&#45;&gt;Node12</title>
<g id="a_edge33_Node000018_Node000012"><a xlink:title=" ">
<path fill="none" stroke="#63b8ff" d="M445.52,-109.84C470.15,-96.75 519.03,-71.71 562.5,-55 597.35,-41.6 638.03,-29.76 668.22,-21.67"/>
<polygon fill="#63b8ff" stroke="#63b8ff" points="669.26,-25.02 678.03,-19.07 667.47,-18.25 669.26,-25.02"/>
</a>
</g>
</g>
</g>
</svg>
