<?xml version="1.0" encoding="UTF-8" standalone="no"?>
<!DOCTYPE svg PUBLIC "-//W3C//DTD SVG 1.1//EN"
 "http://www.w3.org/Graphics/SVG/1.1/DTD/svg11.dtd">
<!-- Generated by graphviz version 2.43.0 (0)
 -->
<!-- Title: main/ceo/managers/bus/BusManager.cpp Pages: 1 -->
<!--zoomable 258 -->

<svg id="main" version="1.1" xmlns="http://www.w3.org/2000/svg" xmlns:xlink="http://www.w3.org/1999/xlink" xml:space="preserve" onload="init(evt)">
<style type="text/css"><![CDATA[
.node, .edge {opacity: 0.7;}
.node.selected, .edge.selected {opacity: 1;}
.edge:hover path { stroke: red; }
.edge:hover polygon { stroke: red; fill: red; }
]]></style>

<defs>
  <circle id="rim" cx="0" cy="0" r="7"/>
  <circle id="rim2" cx="0" cy="0" r="3.5"/>
  <g id="zoomPlus">
    <use xlink:href="#rim" fill="#404040"><set attributeName="fill" to="#808080" begin="zoomplus.mouseover" end="zoomplus.mouseout"/></use>
    <path d="M-4,0h8M0,-4v8" fill="none" stroke="white" stroke-width="1.5" pointer-events="none"/>
  </g>
  <g id="zoomMin">
    <use xlink:href="#rim" fill="#404040"><set attributeName="fill" to="#808080" begin="zoomminus.mouseover" end="zoomminus.mouseout"/></use>
    <path d="M-4,0h8" fill="none" stroke="white" stroke-width="1.5" pointer-events="none"/>
  </g>
  <g id="arrowUp" transform="translate(30 24)">
    <use xlink:href="#rim"/>
    <path pointer-events="none" fill="none" stroke="white" stroke-width="1.5" d="M0,-3.0v7 M-2.5,-0.5L0,-3.0L2.5,-0.5"/>
  </g>
  <g id="arrowRight" transform="rotate(90) translate(36 -43)">
    <use xlink:href="#rim"/>
    <path pointer-events="none" fill="none" stroke="white" stroke-width="1.5" d="M0,-3.0v7 M-2.5,-0.5L0,-3.0L2.5,-0.5"/>
  </g>
  <g id="arrowDown" transform="rotate(180) translate(-30 -48)">
    <use xlink:href="#rim"/>
    <path pointer-events="none" fill="none" stroke="white" stroke-width="1.5" d="M0,-3.0v7 M-2.5,-0.5L0,-3.0L2.5,-0.5"/>
  </g>
  <g id="arrowLeft" transform="rotate(270) translate(-36 17)">
    <use xlink:href="#rim"/>
    <path pointer-events="none" fill="none" stroke="white" stroke-width="1.5" d="M0,-3.0v7 M-2.5,-0.5L0,-3.0L2.5,-0.5"/>
  </g>
  <g id="resetDef">
    <use xlink:href="#rim2" fill="#404040"><set attributeName="fill" to="#808080" begin="reset.mouseover" end="reset.mouseout"/></use>
  </g>
</defs>
<script type="application/ecmascript">
var viewWidth = 1172;
var viewHeight = 258;
var sectionId = 'dynsection-0';
</script>
<script type="application/ecmascript" xlink:href="svg.min.js"/>
<svg id="graph" class="graph">
<g id="viewport">
<title>main/ceo/managers/bus/BusManager.cpp</title>
<!-- Node1 -->
<g id="Node000001" class="node">
<title>Node1</title>
<g id="a_Node000001"><a xlink:title=" ">
<polygon fill="#999999" stroke="#666666" points="406.5,-250 272.5,-250 272.5,-220 406.5,-220 406.5,-250"/>
<text text-anchor="start" x="280.5" y="-238" font-family="Helvetica,sans-Serif" font-size="10.00">main/ceo/managers/bus</text>
<text text-anchor="middle" x="339.5" y="-227" font-family="Helvetica,sans-Serif" font-size="10.00">/BusManager.cpp</text>
</a>
</g>
</g>
<!-- Node2 -->
<g id="Node000002" class="node">
<title>Node2</title>
<g id="a_Node000002"><a xlink:title=" ">
<polygon fill="#e0e0e0" stroke="#999999" points="161,-19 108,-19 108,0 161,0 161,-19"/>
<text text-anchor="middle" x="134.5" y="-7" font-family="Helvetica,sans-Serif" font-size="10.00">string.h</text>
</a>
</g>
</g>
<!-- Node1&#45;&gt;Node2 -->
<g id="edge1_Node000001_Node000002" class="edge">
<title>Node1&#45;&gt;Node2</title>
<g id="a_edge1_Node000001_Node000002"><a xlink:title=" ">
<path fill="none" stroke="#63b8ff" d="M272.37,-230.53C231.61,-225.33 180.64,-212.95 144.5,-184 95.72,-144.92 64.1,-112.54 88.5,-55 93.48,-43.25 103.25,-33.09 112.51,-25.45"/>
<polygon fill="#63b8ff" stroke="#63b8ff" points="114.9,-28.03 120.72,-19.18 110.65,-22.47 114.9,-28.03"/>
</a>
</g>
</g>
<!-- Node3 -->
<g id="Node000003" class="node">
<title>Node3</title>
<g id="a_Node000003"><a xlink:title=" ">
<polygon fill="#e0e0e0" stroke="#999999" points="63,-19 0,-19 0,0 63,0 63,-19"/>
<text text-anchor="middle" x="31.5" y="-7" font-family="Helvetica,sans-Serif" font-size="10.00">esp_log.h</text>
</a>
</g>
</g>
<!-- Node1&#45;&gt;Node3 -->
<g id="edge2_Node000001_Node000003" class="edge">
<title>Node1&#45;&gt;Node3</title>
<g id="a_edge2_Node000001_Node000003"><a xlink:title=" ">
<path fill="none" stroke="#63b8ff" d="M272.21,-232.41C225.44,-228.24 163.8,-216.32 119.5,-184 66.57,-145.38 43.32,-65.65 35.17,-29.3"/>
<polygon fill="#63b8ff" stroke="#63b8ff" points="38.51,-28.2 33.03,-19.13 31.66,-29.64 38.51,-28.2"/>
</a>
</g>
</g>
<!-- Node4 -->
<g id="Node000004" class="node">
<title>Node4</title>
<g id="a_Node000004"><a xlink:title=" ">
<polygon fill="#e0e0e0" stroke="#999999" points="928,-74 867,-74 867,-55 928,-55 928,-74"/>
<text text-anchor="middle" x="897.5" y="-62" font-family="Helvetica,sans-Serif" font-size="10.00">esp_err.h</text>
</a>
</g>
</g>
<!-- Node1&#45;&gt;Node4 -->
<g id="edge3_Node000001_Node000004" class="edge">
<title>Node1&#45;&gt;Node4</title>
<g id="a_edge3_Node000001_Node000004"><a xlink:title=" ">
<path fill="none" stroke="#63b8ff" d="M406.66,-228.76C500.56,-219.3 674.48,-193.91 807.5,-129 834.43,-115.86 862.11,-95.02 879.53,-80.82"/>
<polygon fill="#63b8ff" stroke="#63b8ff" points="882.19,-83.16 887.65,-74.08 877.72,-77.78 882.19,-83.16"/>
</a>
</g>
</g>
<!-- Node5 -->
<g id="Node000005" class="node">
<title>Node5</title>
<g id="a_Node000005"><a xlink:title=" ">
<polygon fill="#e0e0e0" stroke="#999999" points="817,-19 704,-19 704,0 817,0 817,-19"/>
<text text-anchor="middle" x="760.5" y="-7" font-family="Helvetica,sans-Serif" font-size="10.00">freertos/FreeRTOS.h</text>
</a>
</g>
</g>
<!-- Node1&#45;&gt;Node5 -->
<g id="edge4_Node000001_Node000005" class="edge">
<title>Node1&#45;&gt;Node5</title>
<g id="a_edge4_Node000001_Node000005"><a xlink:title=" ">
<path fill="none" stroke="#63b8ff" d="M406.61,-232.18C586.57,-225.66 1072.21,-196.81 1159.5,-74 1198.83,-18.67 950.59,-10.71 827.15,-10.12"/>
<polygon fill="#63b8ff" stroke="#63b8ff" points="827.06,-6.61 817.05,-10.08 827.04,-13.61 827.06,-6.61"/>
</a>
</g>
</g>
<!-- Node6 -->
<g id="Node000006" class="node">
<title>Node6</title>
<g id="a_Node000006"><a xlink:title=" ">
<polygon fill="#e0e0e0" stroke="#999999" points="419.5,-184 331.5,-184 331.5,-165 419.5,-165 419.5,-184"/>
<text text-anchor="middle" x="375.5" y="-172" font-family="Helvetica,sans-Serif" font-size="10.00">freertos/task.h</text>
</a>
</g>
</g>
<!-- Node1&#45;&gt;Node6 -->
<g id="edge5_Node000001_Node000006" class="edge">
<title>Node1&#45;&gt;Node6</title>
<g id="a_edge5_Node000001_Node000006"><a xlink:title=" ">
<path fill="none" stroke="#63b8ff" d="M348.21,-219.84C353.17,-211.78 359.43,-201.62 364.7,-193.06"/>
<polygon fill="#63b8ff" stroke="#63b8ff" points="367.85,-194.62 370.11,-184.27 361.88,-190.95 367.85,-194.62"/>
</a>
</g>
</g>
<!-- Node7 -->
<g id="Node000007" class="node">
<title>Node7</title>
<g id="a_Node000007"><a xlink:href="PinMap_8hpp.html" target="_top" xlink:title="The anatomical map and spatial registry of the organism.">
<polygon fill="white" stroke="#666666" points="227.5,-184 153.5,-184 153.5,-165 227.5,-165 227.5,-184"/>
<text text-anchor="middle" x="190.5" y="-172" font-family="Helvetica,sans-Serif" font-size="10.00">PinMap.hpp</text>
</a>
</g>
</g>
<!-- Node1&#45;&gt;Node7 -->
<g id="edge6_Node000001_Node000007" class="edge">
<title>Node1&#45;&gt;Node7</title>
<g id="a_edge6_Node000001_Node000007"><a xlink:title=" ">
<path fill="none" stroke="#63b8ff" d="M303.81,-219.99C278.84,-210.18 245.8,-197.21 221.84,-187.81"/>
<polygon fill="#63b8ff" stroke="#63b8ff" points="223.09,-184.54 212.5,-184.14 220.53,-191.05 223.09,-184.54"/>
</a>
</g>
</g>
<!-- Node10 -->
<g id="Node000010" class="node">
<title>Node10</title>
<g id="a_Node000010"><a xlink:href="PinRoles_8hpp.html" target="_top" xlink:title="The functional assignment matrix and behavioral constraints.">
<polygon fill="white" stroke="#666666" points="343.5,-129 263.5,-129 263.5,-110 343.5,-110 343.5,-129"/>
<text text-anchor="middle" x="303.5" y="-117" font-family="Helvetica,sans-Serif" font-size="10.00">PinRoles.hpp</text>
</a>
</g>
</g>
<!-- Node1&#45;&gt;Node10 -->
<g id="edge13_Node000001_Node000010" class="edge">
<title>Node1&#45;&gt;Node10</title>
<g id="a_edge13_Node000001_Node000010"><a xlink:title=" ">
<path fill="none" stroke="#63b8ff" d="M334.45,-219.61C330.99,-209.64 326.35,-196.05 322.5,-184 317.68,-168.91 312.55,-151.68 308.84,-138.99"/>
<polygon fill="#63b8ff" stroke="#63b8ff" points="312.13,-137.79 305.98,-129.16 305.41,-139.74 312.13,-137.79"/>
</a>
</g>
</g>
<!-- Node12 -->
<g id="Node000012" class="node">
<title>Node12</title>
<g id="a_Node000012"><a xlink:href="BusManager_8hpp.html" target="_top" xlink:title="The peripheral nervous system managing all communication pathways.">
<polygon fill="white" stroke="#666666" points="616.5,-184 518.5,-184 518.5,-165 616.5,-165 616.5,-184"/>
<text text-anchor="middle" x="567.5" y="-172" font-family="Helvetica,sans-Serif" font-size="10.00">BusManager.hpp</text>
</a>
</g>
</g>
<!-- Node1&#45;&gt;Node12 -->
<g id="edge14_Node000001_Node000012" class="edge">
<title>Node1&#45;&gt;Node12</title>
<g id="a_edge14_Node000001_Node000012"><a xlink:title=" ">
<path fill="none" stroke="#63b8ff" d="M394.11,-219.99C433.97,-209.76 487.27,-196.09 524.2,-186.61"/>
<polygon fill="#63b8ff" stroke="#63b8ff" points="525.35,-189.93 534.16,-184.05 523.61,-183.15 525.35,-189.93"/>
</a>
</g>
</g>
<!-- Node7&#45;&gt;Node3 -->
<g id="edge8_Node000007_Node000003" class="edge">
<title>Node7&#45;&gt;Node3</title>
<g id="a_edge8_Node000007_Node000003"><a xlink:title=" ">
<path fill="none" stroke="#63b8ff" d="M172.63,-164.94C157.22,-157 134.91,-144.15 118.5,-129 85.04,-98.11 55.96,-52.72 41.41,-28.04"/>
<polygon fill="#63b8ff" stroke="#63b8ff" points="44.28,-26.02 36.25,-19.12 38.22,-29.52 44.28,-26.02"/>
</a>
</g>
</g>
<!-- Node8 -->
<g id="Node000008" class="node">
<title>Node8</title>
<g id="a_Node000008"><a xlink:title=" ">
<polygon fill="#e0e0e0" stroke="#999999" points="169.5,-74 97.5,-74 97.5,-55 169.5,-55 169.5,-74"/>
<text text-anchor="middle" x="133.5" y="-62" font-family="Helvetica,sans-Serif" font-size="10.00">sdkconfig.h</text>
</a>
</g>
</g>
<!-- Node7&#45;&gt;Node8 -->
<g id="edge7_Node000007_Node000008" class="edge">
<title>Node7&#45;&gt;Node8</title>
<g id="a_edge7_Node000007_Node000008"><a xlink:title=" ">
<path fill="none" stroke="#63b8ff" d="M168.71,-164.87C153.86,-157.69 135.34,-145.91 126.5,-129 119.2,-115.04 122.16,-97.02 126.23,-83.75"/>
<polygon fill="#63b8ff" stroke="#63b8ff" points="129.55,-84.88 129.57,-74.29 122.94,-82.56 129.55,-84.88"/>
</a>
</g>
</g>
<!-- Node9 -->
<g id="Node000009" class="node">
<title>Node9</title>
<g id="a_Node000009"><a xlink:href="PinCapabilities_8hpp.html" target="_top" xlink:title="The genetic blueprint and hardware validation logic of the organism.">
<polygon fill="white" stroke="#666666" points="245.5,-129 135.5,-129 135.5,-110 245.5,-110 245.5,-129"/>
<text text-anchor="middle" x="190.5" y="-117" font-family="Helvetica,sans-Serif" font-size="10.00">PinCapabilities.hpp</text>
</a>
</g>
</g>
<!-- Node7&#45;&gt;Node9 -->
<g id="edge9_Node000007_Node000009" class="edge">
<title>Node7&#45;&gt;Node9</title>
<g id="a_edge9_Node000007_Node000009"><a xlink:title=" ">
<path fill="none" stroke="#63b8ff" d="M190.5,-164.75C190.5,-157.8 190.5,-147.85 190.5,-139.13"/>
<polygon fill="#63b8ff" stroke="#63b8ff" points="194,-139.09 190.5,-129.09 187,-139.09 194,-139.09"/>
</a>
</g>
</g>
<!-- Node7&#45;&gt;Node10 -->
<g id="edge11_Node000007_Node000010" class="edge">
<title>Node7&#45;&gt;Node10</title>
<g id="a_edge11_Node000007_Node000010"><a xlink:title=" ">
<path fill="none" stroke="#63b8ff" d="M208.66,-164.98C226.75,-156.5 254.78,-143.35 275.69,-133.54"/>
<polygon fill="#63b8ff" stroke="#63b8ff" points="277.45,-136.59 285.01,-129.17 274.47,-130.25 277.45,-136.59"/>
</a>
</g>
</g>
<!-- Node9&#45;&gt;Node8 -->
<g id="edge10_Node000009_Node000008" class="edge">
<title>Node9&#45;&gt;Node8</title>
<g id="a_edge10_Node000009_Node000008"><a xlink:title=" ">
<path fill="none" stroke="#63b8ff" d="M181.34,-109.98C173,-102.23 160.47,-90.58 150.32,-81.14"/>
<polygon fill="#63b8ff" stroke="#63b8ff" points="152.53,-78.42 142.82,-74.17 147.76,-83.54 152.53,-78.42"/>
</a>
</g>
</g>
<!-- Node11 -->
<g id="Node000011" class="node">
<title>Node11</title>
<g id="a_Node000011"><a xlink:title=" ">
<polygon fill="#e0e0e0" stroke="#999999" points="237.5,-74 187.5,-74 187.5,-55 237.5,-55 237.5,-74"/>
<text text-anchor="middle" x="212.5" y="-62" font-family="Helvetica,sans-Serif" font-size="10.00">cstdint</text>
</a>
</g>
</g>
<!-- Node10&#45;&gt;Node11 -->
<g id="edge12_Node000010_Node000011" class="edge">
<title>Node10&#45;&gt;Node11</title>
<g id="a_edge12_Node000010_Node000011"><a xlink:title=" ">
<path fill="none" stroke="#63b8ff" d="M288.88,-109.98C274.64,-101.69 252.75,-88.94 236.05,-79.22"/>
<polygon fill="#63b8ff" stroke="#63b8ff" points="237.79,-76.18 227.39,-74.17 234.27,-82.23 237.79,-76.18"/>
</a>
</g>
</g>
<!-- Node12&#45;&gt;Node4 -->
<g id="edge15_Node000012_Node000004" class="edge">
<title>Node12&#45;&gt;Node4</title>
<g id="a_edge15_Node000012_Node000004"><a xlink:title=" ">
<path fill="none" stroke="#63b8ff" d="M616.52,-166.49C658.68,-159.61 720.69,-147.44 772.5,-129 809.75,-115.74 850.06,-93.74 874.54,-79.43"/>
<polygon fill="#63b8ff" stroke="#63b8ff" points="876.59,-82.29 883.41,-74.18 873.02,-76.26 876.59,-82.29"/>
</a>
</g>
</g>
<!-- Node13 -->
<g id="Node000013" class="node">
<title>Node13</title>
<g id="a_Node000013"><a xlink:title=" ">
<polygon fill="#e0e0e0" stroke="#999999" points="651,-129 580,-129 580,-110 651,-110 651,-129"/>
<text text-anchor="middle" x="615.5" y="-117" font-family="Helvetica,sans-Serif" font-size="10.00">driver/i2c.h</text>
</a>
</g>
</g>
<!-- Node12&#45;&gt;Node13 -->
<g id="edge16_Node000012_Node000013" class="edge">
<title>Node12&#45;&gt;Node13</title>
<g id="a_edge16_Node000012_Node000013"><a xlink:title=" ">
<path fill="none" stroke="#63b8ff" d="M575.43,-164.75C582.35,-157.11 592.57,-145.82 600.95,-136.56"/>
<polygon fill="#63b8ff" stroke="#63b8ff" points="603.6,-138.85 607.72,-129.09 598.41,-134.15 603.6,-138.85"/>
</a>
</g>
</g>
<!-- Node14 -->
<g id="Node000014" class="node">
<title>Node14</title>
<g id="a_Node000014"><a xlink:title=" ">
<polygon fill="#e0e0e0" stroke="#999999" points="848.5,-74 738.5,-74 738.5,-55 848.5,-55 848.5,-74"/>
<text text-anchor="middle" x="793.5" y="-62" font-family="Helvetica,sans-Serif" font-size="10.00">driver/spi_master.h</text>
</a>
</g>
</g>
<!-- Node12&#45;&gt;Node14 -->
<g id="edge17_Node000012_Node000014" class="edge">
<title>Node12&#45;&gt;Node14</title>
<g id="a_edge17_Node000012_Node000014"><a xlink:title=" ">
<path fill="none" stroke="#63b8ff" d="M616.56,-170.94C655.57,-166.81 709.96,-156.18 749.5,-129 765.86,-117.75 778.02,-98.27 785.36,-83.85"/>
<polygon fill="#63b8ff" stroke="#63b8ff" points="788.7,-84.96 789.84,-74.43 782.38,-81.95 788.7,-84.96"/>
</a>
</g>
</g>
<!-- Node15 -->
<g id="Node000015" class="node">
<title>Node15</title>
<g id="a_Node000015"><a xlink:title=" ">
<polygon fill="#e0e0e0" stroke="#999999" points="371,-74 294,-74 294,-55 371,-55 371,-74"/>
<text text-anchor="middle" x="332.5" y="-62" font-family="Helvetica,sans-Serif" font-size="10.00">driver/uart.h</text>
</a>
</g>
</g>
<!-- Node12&#45;&gt;Node15 -->
<g id="edge18_Node000012_Node000015" class="edge">
<title>Node12&#45;&gt;Node15</title>
<g id="a_edge18_Node000012_Node000015"><a xlink:title=" ">
<path fill="none" stroke="#63b8ff" d="M542.93,-164.94C519.4,-156.53 483.08,-142.95 452.5,-129 418.23,-113.37 379.99,-92.51 356.09,-79.04"/>
<polygon fill="#63b8ff" stroke="#63b8ff" points="357.79,-75.99 347.37,-74.1 354.34,-82.08 357.79,-75.99"/>
</a>
</g>
</g>
<!-- Node16 -->
<g id="Node000016" class="node">
<title>Node16</title>
<g id="a_Node000016"><a xlink:href="IManager_8hpp.html" target="_top" xlink:title="The abstract behavioral contract for all managers.">
<polygon fill="white" stroke="#666666" points="288,-19 205,-19 205,0 288,0 288,-19"/>
<text text-anchor="middle" x="246.5" y="-7" font-family="Helvetica,sans-Serif" font-size="10.00">IManager.hpp</text>
</a>
</g>
</g>
<!-- Node12&#45;&gt;Node16 -->
<g id="edge19_Node000012_Node000016" class="edge">
<title>Node12&#45;&gt;Node16</title>
<g id="a_edge19_Node000012_Node000016"><a xlink:title=" ">
<path fill="none" stroke="#63b8ff" d="M533.86,-164.97C467.69,-147.66 323.74,-107.26 285.5,-74 271.19,-61.55 260.48,-42.53 253.94,-28.55"/>
<polygon fill="#63b8ff" stroke="#63b8ff" points="256.98,-26.79 249.76,-19.04 250.57,-29.6 256.98,-26.79"/>
</a>
</g>
</g>
<!-- Node17 -->
<g id="Node000017" class="node">
<title>Node17</title>
<g id="a_Node000017"><a xlink:href="DataManager_8hpp.html" target="_top" xlink:title="The collective consciousness and unified system state mirror.">
<polygon fill="white" stroke="#666666" points="492,-74 389,-74 389,-55 492,-55 492,-74"/>
<text text-anchor="middle" x="440.5" y="-62" font-family="Helvetica,sans-Serif" font-size="10.00">DataManager.hpp</text>
</a>
</g>
</g>
<!-- Node12&#45;&gt;Node17 -->
<g id="edge20_Node000012_Node000017" class="edge">
<title>Node12&#45;&gt;Node17</title>
<g id="a_edge20_Node000012_Node000017"><a xlink:title=" ">
<path fill="none" stroke="#63b8ff" d="M534.89,-164.86C514.29,-158 488.29,-146.59 470.5,-129 457.91,-116.55 449.95,-97.8 445.42,-83.9"/>
<polygon fill="#63b8ff" stroke="#63b8ff" points="448.69,-82.6 442.5,-74 441.97,-84.58 448.69,-82.6"/>
</a>
</g>
</g>
<!-- Node22 -->
<g id="Node000022" class="node">
<title>Node22</title>
<g id="a_Node000022"><a xlink:href="I2CBus_8hpp.html" target="_top" xlink:title="Industrial I2C Master bus driver with health monitoring.">
<polygon fill="white" stroke="#666666" points="992,-129 921,-129 921,-110 992,-110 992,-129"/>
<text text-anchor="middle" x="956.5" y="-117" font-family="Helvetica,sans-Serif" font-size="10.00">I2CBus.hpp</text>
</a>
</g>
</g>
<!-- Node12&#45;&gt;Node22 -->
<g id="edge29_Node000012_Node000022" class="edge">
<title>Node12&#45;&gt;Node22</title>
<g id="a_edge29_Node000012_Node000022"><a xlink:title=" ">
<path fill="none" stroke="#63b8ff" d="M616.77,-166.79C692.57,-156.46 836.74,-136.82 910.51,-126.77"/>
<polygon fill="#63b8ff" stroke="#63b8ff" points="911.43,-130.17 920.87,-125.35 910.49,-123.24 911.43,-130.17"/>
</a>
</g>
</g>
<!-- Node24 -->
<g id="Node000024" class="node">
<title>Node24</title>
<g id="a_Node000024"><a xlink:href="SPIBus_8hpp.html" target="_top" xlink:title="Industrial SPI Master bus driver with health monitoring.">
<polygon fill="white" stroke="#666666" points="740,-129 669,-129 669,-110 740,-110 740,-129"/>
<text text-anchor="middle" x="704.5" y="-117" font-family="Helvetica,sans-Serif" font-size="10.00">SPIBus.hpp</text>
</a>
</g>
</g>
<!-- Node12&#45;&gt;Node24 -->
<g id="edge36_Node000012_Node000024" class="edge">
<title>Node12&#45;&gt;Node24</title>
<g id="a_edge36_Node000012_Node000024"><a xlink:title=" ">
<path fill="none" stroke="#63b8ff" d="M589.51,-164.98C611.95,-156.3 646.98,-142.75 672.49,-132.88"/>
<polygon fill="#63b8ff" stroke="#63b8ff" points="674.02,-136.04 682.09,-129.17 671.5,-129.51 674.02,-136.04"/>
</a>
</g>
</g>
<!-- Node25 -->
<g id="Node000025" class="node">
<title>Node25</title>
<g id="a_Node000025"><a xlink:href="UARTBus_8hpp.html" target="_top" xlink:title="Industrial UART bus driver with health monitoring.">
<polygon fill="white" stroke="#666666" points="561.5,-129 479.5,-129 479.5,-110 561.5,-110 561.5,-129"/>
<text text-anchor="middle" x="520.5" y="-117" font-family="Helvetica,sans-Serif" font-size="10.00">UARTBus.hpp</text>
</a>
</g>
</g>
<!-- Node12&#45;&gt;Node25 -->
<g id="edge43_Node000012_Node000025" class="edge">
<title>Node12&#45;&gt;Node25</title>
<g id="a_edge43_Node000012_Node000025"><a xlink:title=" ">
<path fill="none" stroke="#63b8ff" d="M559.74,-164.75C553.03,-157.18 543.16,-146.05 534.99,-136.84"/>
<polygon fill="#63b8ff" stroke="#63b8ff" points="537.37,-134.25 528.12,-129.09 532.13,-138.89 537.37,-134.25"/>
</a>
</g>
</g>
<!-- Node17&#45;&gt;Node2 -->
<g id="edge22_Node000017_Node000002" class="edge">
<title>Node17&#45;&gt;Node2</title>
<g id="a_edge22_Node000017_Node000002"><a xlink:title=" ">
<path fill="none" stroke="#63b8ff" d="M391.34,-54.98C329.91,-44.35 226.22,-26.39 171.25,-16.87"/>
<polygon fill="#63b8ff" stroke="#63b8ff" points="171.71,-13.39 161.26,-15.13 170.52,-20.29 171.71,-13.39"/>
</a>
</g>
</g>
<!-- Node17&#45;&gt;Node3 -->
<g id="edge27_Node000017_Node000003" class="edge">
<title>Node17&#45;&gt;Node3</title>
<g id="a_edge27_Node000017_Node000003"><a xlink:title=" ">
<path fill="none" stroke="#63b8ff" d="M388.8,-56.13C385.99,-55.74 383.21,-55.36 380.5,-55 365.43,-52.97 162.67,-27.18 73.3,-15.81"/>
<polygon fill="#63b8ff" stroke="#63b8ff" points="73.6,-12.32 63.24,-14.54 72.72,-19.27 73.6,-12.32"/>
</a>
</g>
</g>
<!-- Node17&#45;&gt;Node5 -->
<g id="edge24_Node000017_Node000005" class="edge">
<title>Node17&#45;&gt;Node5</title>
<g id="a_edge24_Node000017_Node000005"><a xlink:title=" ">
<path fill="none" stroke="#63b8ff" d="M491.91,-54.98C548.28,-45.65 638.69,-30.67 698.83,-20.71"/>
<polygon fill="#63b8ff" stroke="#63b8ff" points="699.66,-24.13 708.95,-19.04 698.51,-17.22 699.66,-24.13"/>
</a>
</g>
</g>
<!-- Node17&#45;&gt;Node16 -->
<g id="edge28_Node000017_Node000016" class="edge">
<title>Node17&#45;&gt;Node16</title>
<g id="a_edge28_Node000017_Node000016"><a xlink:title=" ">
<path fill="none" stroke="#63b8ff" d="M409.33,-54.98C376.34,-45.97 324.1,-31.7 287.73,-21.76"/>
<polygon fill="#63b8ff" stroke="#63b8ff" points="288.48,-18.34 277.91,-19.08 286.64,-25.09 288.48,-18.34"/>
</a>
</g>
</g>
<!-- Node18 -->
<g id="Node000018" class="node">
<title>Node18</title>
<g id="a_Node000018"><a xlink:title=" ">
<polygon fill="#e0e0e0" stroke="#999999" points="565,-19 512,-19 512,0 565,0 565,-19"/>
<text text-anchor="middle" x="538.5" y="-7" font-family="Helvetica,sans-Serif" font-size="10.00">stdint.h</text>
</a>
</g>
</g>
<!-- Node17&#45;&gt;Node18 -->
<g id="edge21_Node000017_Node000018" class="edge">
<title>Node17&#45;&gt;Node18</title>
<g id="a_edge21_Node000017_Node000018"><a xlink:title=" ">
<path fill="none" stroke="#63b8ff" d="M456.25,-54.98C471.73,-46.61 495.59,-33.7 513.64,-23.95"/>
<polygon fill="#63b8ff" stroke="#63b8ff" points="515.34,-27.01 522.47,-19.17 512.01,-20.85 515.34,-27.01"/>
</a>
</g>
</g>
<!-- Node19 -->
<g id="Node000019" class="node">
<title>Node19</title>
<g id="a_Node000019"><a xlink:title=" ">
<polygon fill="#e0e0e0" stroke="#999999" points="494,-19 425,-19 425,0 494,0 494,-19"/>
<text text-anchor="middle" x="459.5" y="-7" font-family="Helvetica,sans-Serif" font-size="10.00">type_traits</text>
</a>
</g>
</g>
<!-- Node17&#45;&gt;Node19 -->
<g id="edge23_Node000017_Node000019" class="edge">
<title>Node17&#45;&gt;Node19</title>
<g id="a_edge23_Node000017_Node000019"><a xlink:title=" ">
<path fill="none" stroke="#63b8ff" d="M443.64,-54.75C446.18,-47.65 449.86,-37.4 453.03,-28.56"/>
<polygon fill="#63b8ff" stroke="#63b8ff" points="456.34,-29.68 456.42,-19.09 449.75,-27.32 456.34,-29.68"/>
</a>
</g>
</g>
<!-- Node20 -->
<g id="Node000020" class="node">
<title>Node20</title>
<g id="a_Node000020"><a xlink:title=" ">
<polygon fill="#e0e0e0" stroke="#999999" points="686,-19 583,-19 583,0 686,0 686,-19"/>
<text text-anchor="middle" x="634.5" y="-7" font-family="Helvetica,sans-Serif" font-size="10.00">freertos/semphr.h</text>
</a>
</g>
</g>
<!-- Node17&#45;&gt;Node20 -->
<g id="edge25_Node000017_Node000020" class="edge">
<title>Node17&#45;&gt;Node20</title>
<g id="a_edge25_Node000017_Node000020"><a xlink:title=" ">
<path fill="none" stroke="#63b8ff" d="M471.67,-54.98C504.66,-45.97 556.9,-31.7 593.27,-21.76"/>
<polygon fill="#63b8ff" stroke="#63b8ff" points="594.36,-25.09 603.09,-19.08 592.52,-18.34 594.36,-25.09"/>
</a>
</g>
</g>
<!-- Node21 -->
<g id="Node000021" class="node">
<title>Node21</title>
<g id="a_Node000021"><a xlink:title=" ">
<polygon fill="#e0e0e0" stroke="#999999" points="406.5,-19 306.5,-19 306.5,0 406.5,0 406.5,-19"/>
<text text-anchor="middle" x="356.5" y="-7" font-family="Helvetica,sans-Serif" font-size="10.00">esp_heap_caps.h</text>
</a>
</g>
</g>
<!-- Node17&#45;&gt;Node21 -->
<g id="edge26_Node000017_Node000021" class="edge">
<title>Node17&#45;&gt;Node21</title>
<g id="a_edge26_Node000017_Node000021"><a xlink:title=" ">
<path fill="none" stroke="#63b8ff" d="M427,-54.98C414.1,-46.84 394.4,-34.41 379.1,-24.76"/>
<polygon fill="#63b8ff" stroke="#63b8ff" points="380.57,-21.55 370.24,-19.17 376.83,-27.47 380.57,-21.55"/>
</a>
</g>
</g>
<!-- Node22&#45;&gt;Node4 -->
<g id="edge34_Node000022_Node000004" class="edge">
<title>Node22&#45;&gt;Node4</title>
<g id="a_edge34_Node000022_Node000004"><a xlink:title=" ">
<path fill="none" stroke="#63b8ff" d="M947.02,-109.98C938.3,-102.15 925.16,-90.34 914.6,-80.86"/>
<polygon fill="#63b8ff" stroke="#63b8ff" points="916.93,-78.25 907.15,-74.17 912.25,-83.46 916.93,-78.25"/>
</a>
</g>
</g>
<!-- Node22&#45;&gt;Node5 -->
<g id="edge32_Node000022_Node000005" class="edge">
<title>Node22&#45;&gt;Node5</title>
<g id="a_edge32_Node000022_Node000005"><a xlink:title=" ">
<path fill="none" stroke="#63b8ff" d="M992.01,-117.77C1057.14,-115.25 1185.18,-104.08 1141.5,-55 1121.01,-31.98 930.99,-18.99 827.29,-13.55"/>
<polygon fill="#63b8ff" stroke="#63b8ff" points="827.4,-10.05 817.23,-13.04 827.04,-17.04 827.4,-10.05"/>
</a>
</g>
</g>
<!-- Node22&#45;&gt;Node17 -->
<g id="edge35_Node000022_Node000017" class="edge">
<title>Node22&#45;&gt;Node17</title>
<g id="a_edge35_Node000022_Node000017"><a xlink:title=" ">
<path fill="none" stroke="#63b8ff" d="M920.63,-114.82C833.72,-105.89 611.1,-83.02 502.26,-71.84"/>
<polygon fill="#63b8ff" stroke="#63b8ff" points="502.4,-68.34 492.1,-70.8 501.69,-75.3 502.4,-68.34"/>
</a>
</g>
</g>
<!-- Node22&#45;&gt;Node18 -->
<g id="edge30_Node000022_Node000018" class="edge">
<title>Node22&#45;&gt;Node18</title>
<g id="a_edge30_Node000022_Node000018"><a xlink:title=" ">
<path fill="none" stroke="#63b8ff" d="M956.72,-109.91C956.56,-95.97 954.01,-68.62 937.5,-55 877.21,-5.3 670.18,-30.36 575.34,-18.68"/>
<polygon fill="#63b8ff" stroke="#63b8ff" points="575.55,-15.18 565.16,-17.21 574.55,-22.11 575.55,-15.18"/>
</a>
</g>
</g>
<!-- Node22&#45;&gt;Node20 -->
<g id="edge33_Node000022_Node000020" class="edge">
<title>Node22&#45;&gt;Node20</title>
<g id="a_edge33_Node000022_Node000020"><a xlink:title=" ">
<path fill="none" stroke="#63b8ff" d="M962.45,-109.96C970.97,-96.59 984.2,-70.61 970.5,-55 931.67,-10.76 771.88,-25.72 696.18,-18.84"/>
<polygon fill="#63b8ff" stroke="#63b8ff" points="696.41,-15.34 686.08,-17.72 695.63,-22.3 696.41,-15.34"/>
</a>
</g>
</g>
<!-- Node23 -->
<g id="Node000023" class="node">
<title>Node23</title>
<g id="a_Node000023"><a xlink:title=" ">
<polygon fill="#e0e0e0" stroke="#999999" points="1132.5,-74 1022.5,-74 1022.5,-55 1132.5,-55 1132.5,-74"/>
<text text-anchor="middle" x="1077.5" y="-62" font-family="Helvetica,sans-Serif" font-size="10.00">driver/i2c_master.h</text>
</a>
</g>
</g>
<!-- Node22&#45;&gt;Node23 -->
<g id="edge31_Node000022_Node000023" class="edge">
<title>Node22&#45;&gt;Node23</title>
<g id="a_edge31_Node000022_Node000023"><a xlink:title=" ">
<path fill="none" stroke="#63b8ff" d="M975.94,-109.98C995.49,-101.42 1025.88,-88.11 1048.32,-78.28"/>
<polygon fill="#63b8ff" stroke="#63b8ff" points="1049.95,-81.39 1057.71,-74.17 1047.14,-74.98 1049.95,-81.39"/>
</a>
</g>
</g>
<!-- Node24&#45;&gt;Node4 -->
<g id="edge41_Node000024_Node000004" class="edge">
<title>Node24&#45;&gt;Node4</title>
<g id="a_edge41_Node000024_Node000004"><a xlink:title=" ">
<path fill="none" stroke="#63b8ff" d="M735.51,-109.98C768.53,-100.92 820.91,-86.53 857.13,-76.59"/>
<polygon fill="#63b8ff" stroke="#63b8ff" points="858.17,-79.93 866.89,-73.91 856.32,-73.18 858.17,-79.93"/>
</a>
</g>
</g>
<!-- Node24&#45;&gt;Node5 -->
<g id="edge39_Node000024_Node000005" class="edge">
<title>Node24&#45;&gt;Node5</title>
<g id="a_edge39_Node000024_Node000005"><a xlink:title=" ">
<path fill="none" stroke="#63b8ff" d="M707.27,-109.58C711.35,-97.03 719.54,-73.59 729.5,-55 734.6,-45.47 741.36,-35.54 747.27,-27.48"/>
<polygon fill="#63b8ff" stroke="#63b8ff" points="750.21,-29.4 753.44,-19.31 744.62,-25.18 750.21,-29.4"/>
</a>
</g>
</g>
<!-- Node24&#45;&gt;Node14 -->
<g id="edge38_Node000024_Node000014" class="edge">
<title>Node24&#45;&gt;Node14</title>
<g id="a_edge38_Node000024_Node000014"><a xlink:title=" ">
<path fill="none" stroke="#63b8ff" d="M718.8,-109.98C732.6,-101.77 753.74,-89.18 770.01,-79.49"/>
<polygon fill="#63b8ff" stroke="#63b8ff" points="772.14,-82.29 778.94,-74.17 768.56,-76.28 772.14,-82.29"/>
</a>
</g>
</g>
<!-- Node24&#45;&gt;Node17 -->
<g id="edge42_Node000024_Node000017" class="edge">
<title>Node24&#45;&gt;Node17</title>
<g id="a_edge42_Node000024_Node000017"><a xlink:title=" ">
<path fill="none" stroke="#63b8ff" d="M668.9,-111.35C623.64,-102.27 545.14,-86.51 493,-76.04"/>
<polygon fill="#63b8ff" stroke="#63b8ff" points="493.44,-72.56 482.95,-74.02 492.06,-79.42 493.44,-72.56"/>
</a>
</g>
</g>
<!-- Node24&#45;&gt;Node18 -->
<g id="edge37_Node000024_Node000018" class="edge">
<title>Node24&#45;&gt;Node18</title>
<g id="a_edge37_Node000024_Node000018"><a xlink:title=" ">
<path fill="none" stroke="#63b8ff" d="M691.2,-109.84C662.66,-91.28 595.35,-47.49 560.41,-24.75"/>
<polygon fill="#63b8ff" stroke="#63b8ff" points="562.16,-21.72 551.87,-19.2 558.34,-27.58 562.16,-21.72"/>
</a>
</g>
</g>
<!-- Node24&#45;&gt;Node20 -->
<g id="edge40_Node000024_Node000020" class="edge">
<title>Node24&#45;&gt;Node20</title>
<g id="a_edge40_Node000024_Node000020"><a xlink:title=" ">
<path fill="none" stroke="#63b8ff" d="M698.77,-109.66C687.18,-91.77 660.75,-51 645.64,-27.69"/>
<polygon fill="#63b8ff" stroke="#63b8ff" points="648.49,-25.65 640.11,-19.16 642.61,-29.45 648.49,-25.65"/>
</a>
</g>
</g>
<!-- Node25&#45;&gt;Node4 -->
<g id="edge48_Node000025_Node000004" class="edge">
<title>Node25&#45;&gt;Node4</title>
<g id="a_edge48_Node000025_Node000004"><a xlink:title=" ">
<path fill="none" stroke="#63b8ff" d="M561.67,-111.49C565,-110.97 568.3,-110.47 571.5,-110 695.05,-91.94 729.44,-95.15 856.83,-73.97"/>
<polygon fill="#63b8ff" stroke="#63b8ff" points="857.69,-77.37 866.98,-72.26 856.53,-70.47 857.69,-77.37"/>
</a>
</g>
</g>
<!-- Node25&#45;&gt;Node5 -->
<g id="edge46_Node000025_Node000005" class="edge">
<title>Node25&#45;&gt;Node5</title>
<g id="a_edge46_Node000025_Node000005"><a xlink:title=" ">
<path fill="none" stroke="#63b8ff" d="M539.73,-109.84C581.97,-90.84 682.97,-45.39 732.35,-23.17"/>
<polygon fill="#63b8ff" stroke="#63b8ff" points="733.82,-26.34 741.51,-19.05 730.95,-19.96 733.82,-26.34"/>
</a>
</g>
</g>
<!-- Node25&#45;&gt;Node15 -->
<g id="edge45_Node000025_Node000015" class="edge">
<title>Node25&#45;&gt;Node15</title>
<g id="a_edge45_Node000025_Node000015"><a xlink:title=" ">
<path fill="none" stroke="#63b8ff" d="M490.29,-109.98C458.46,-101.01 408.14,-86.82 372.9,-76.89"/>
<polygon fill="#63b8ff" stroke="#63b8ff" points="373.52,-73.43 362.94,-74.08 371.62,-80.16 373.52,-73.43"/>
</a>
</g>
</g>
<!-- Node25&#45;&gt;Node17 -->
<g id="edge49_Node000025_Node000017" class="edge">
<title>Node25&#45;&gt;Node17</title>
<g id="a_edge49_Node000025_Node000017"><a xlink:title=" ">
<path fill="none" stroke="#63b8ff" d="M507.65,-109.98C495.36,-101.84 476.59,-89.41 462.02,-79.76"/>
<polygon fill="#63b8ff" stroke="#63b8ff" points="463.86,-76.78 453.59,-74.17 459.99,-82.61 463.86,-76.78"/>
</a>
</g>
</g>
<!-- Node25&#45;&gt;Node18 -->
<g id="edge44_Node000025_Node000018" class="edge">
<title>Node25&#45;&gt;Node18</title>
<g id="a_edge44_Node000025_Node000018"><a xlink:title=" ">
<path fill="none" stroke="#63b8ff" d="M521.97,-109.66C524.89,-92.17 531.45,-52.8 535.37,-29.27"/>
<polygon fill="#63b8ff" stroke="#63b8ff" points="538.87,-29.6 537.06,-19.16 531.96,-28.45 538.87,-29.6"/>
</a>
</g>
</g>
<!-- Node25&#45;&gt;Node20 -->
<g id="edge47_Node000025_Node000020" class="edge">
<title>Node25&#45;&gt;Node20</title>
<g id="a_edge47_Node000025_Node000020"><a xlink:title=" ">
<path fill="none" stroke="#63b8ff" d="M529.83,-109.66C549.13,-91.38 593.67,-49.18 617.96,-26.17"/>
<polygon fill="#63b8ff" stroke="#63b8ff" points="620.51,-28.58 625.36,-19.16 615.69,-23.5 620.51,-28.58"/>
</a>
</g>
</g>
</g>
</svg>

<g id="navigator" transform="translate(0 0)" fill="#404254">
  <rect fill="#f2f5e9" fill-opacity="0.5" stroke="#606060" stroke-width=".5" x="0" y="0" width="60" height="60"/>
  <use id="zoomplus" xlink:href="#zoomPlus" x="17" y="9" onmousedown="handleZoom(evt,'in')"/>
  <use id="zoomminus" xlink:href="#zoomMin" x="42" y="9" onmousedown="handleZoom(evt,'out')"/>
  <use id="reset" xlink:href="#resetDef" x="30" y="36" onmousedown="handleReset()"/>
   <use id="arrowup" xlink:href="#arrowUp" x="0" y="0" onmousedown="handlePan(0,-1)"/>
  <use id="arrowright" xlink:href="#arrowRight" x="0" y="0" onmousedown="handlePan(1,0)"/>
  <use id="arrowdown" xlink:href="#arrowDown" x="0" y="0" onmousedown="handlePan(0,1)"/>
  <use id="arrowleft" xlink:href="#arrowLeft" x="0" y="0" onmousedown="handlePan(-1,0)"/>
</g>
<svg viewBox="0 0 15 15" width="100%" height="30px" preserveAspectRatio="xMaxYMin meet">
 <g id="arrow_out" transform="scale(0.3 0.3)">
  <a xlink:href="BusManager_8cpp__incl_org.svg" target="_base">
   <rect id="button" ry="5" rx="5" y="6" x="6" height="38" width="38"
        fill="#f2f5e9" fill-opacity="0.5" stroke="#606060" stroke-width="1.0"/>
   <path id="arrow"
     d="M 11.500037,31.436501 C 11.940474,20.09759 22.043105,11.32322 32.158766,21.979434 L 37.068811,17.246167 C 37.068811,17.246167 37.088388,32 37.088388,32 L 22.160133,31.978069 C 22.160133,31.978069 26.997745,27.140456 26.997745,27.140456 C 18.528582,18.264221 13.291696,25.230495 11.500037,31.436501 z"
     style="fill:#404040;"/>
  </a>
 </g>
</svg>

<style type='text/css'>
<![CDATA[
[data-mouse-over-selected='false'] { opacity: 0.7; }
[data-mouse-over-selected='true']  { opacity: 1.0; }
]]>
</style>
<script type="application/ecmascript"><![CDATA[
document.addEventListener('DOMContentLoaded', (event) => {
  highlightEdges();
  highlightAdjacentNodes();
});
]]></script>
</svg>
