<?xml version="1.0" encoding="UTF-8" standalone="no"?>
<!DOCTYPE svg PUBLIC "-//W3C//DTD SVG 1.1//EN"
 "http://www.w3.org/Graphics/SVG/1.1/DTD/svg11.dtd">
<!-- Generated by graphviz version 2.43.0 (0)
 -->
<!-- Title: main/ceo/include/CEO.hpp Pages: 1 -->
<svg width="220pt" height="82pt"
 viewBox="0.00 0.00 220.00 82.00" xmlns="http://www.w3.org/2000/svg" xmlns:xlink="http://www.w3.org/1999/xlink">
<g id="graph0" class="graph" transform="scale(1 1) rotate(0) translate(4 78)">
<title>main/ceo/include/CEO.hpp</title>
<!-- Node1 -->
<g id="Node000001" class="node">
<title>Node1</title>
<g id="a_Node000001"><a xlink:title="The central neural processor and coordinator of the organism.">
<polygon fill="#999999" stroke="#666666" points="181.5,-74 37.5,-74 37.5,-55 181.5,-55 181.5,-74"/>
<text text-anchor="middle" x="109.5" y="-62" font-family="Helvetica,sans-Serif" font-size="10.00">main/ceo/include/CEO.hpp</text>
</a>
</g>
</g>
<!-- Node2 -->
<g id="Node000002" class="node">
<title>Node2</title>
<g id="a_Node000002"><a xlink:href="CEO_8cpp.html" target="_top" xlink:title=" ">
<polygon fill="white" stroke="#666666" points="105,-19 0,-19 0,0 105,0 105,-19"/>
<text text-anchor="middle" x="52.5" y="-7" font-family="Helvetica,sans-Serif" font-size="10.00">main/ceo/CEO.cpp</text>
</a>
</g>
</g>
<!-- Node1&#45;&gt;Node2 -->
<g id="edge1_Node000001_Node000002" class="edge">
<title>Node1&#45;&gt;Node2</title>
<g id="a_edge1_Node000001_Node000002"><a xlink:title=" ">
<path fill="none" stroke="#63b8ff" d="M92.88,-48.04C82.77,-38.64 70.22,-26.98 61.82,-19.17"/>
<polygon fill="#63b8ff" stroke="#63b8ff" points="90.64,-50.74 100.34,-54.98 95.4,-45.61 90.64,-50.74"/>
</a>
</g>
</g>
<!-- Node3 -->
<g id="Node000003" class="node">
<title>Node3</title>
<g id="a_Node000003"><a xlink:href="main_8cpp.html" target="_top" xlink:title="The spark of life (Genesis) and entry point of the organism.">
<polygon fill="white" stroke="#666666" points="212,-19 123,-19 123,0 212,0 212,-19"/>
<text text-anchor="middle" x="167.5" y="-7" font-family="Helvetica,sans-Serif" font-size="10.00">main/main.cpp</text>
</a>
</g>
</g>
<!-- Node1&#45;&gt;Node3 -->
<g id="edge2_Node000001_Node000003" class="edge">
<title>Node1&#45;&gt;Node3</title>
<g id="a_edge2_Node000001_Node000003"><a xlink:title=" ">
<path fill="none" stroke="#63b8ff" d="M126.41,-48.04C136.7,-38.64 149.47,-26.98 158.01,-19.17"/>
<polygon fill="#63b8ff" stroke="#63b8ff" points="123.84,-45.66 118.82,-54.98 128.56,-50.82 123.84,-45.66"/>
</a>
</g>
</g>
</g>
</svg>
