<?xml version="1.0" encoding="UTF-8" standalone="no"?>
<!DOCTYPE svg PUBLIC "-//W3C//DTD SVG 1.1//EN"
 "http://www.w3.org/Graphics/SVG/1.1/DTD/svg11.dtd">
<!-- Generated by graphviz version 2.43.0 (0)
 -->
<!-- Title: Core::IManager Pages: 1 -->
<svg width="578pt" height="322pt"
 viewBox="0.00 0.00 578.00 322.00" xmlns="http://www.w3.org/2000/svg" xmlns:xlink="http://www.w3.org/1999/xlink">
<g id="graph0" class="graph" transform="scale(1 1) rotate(0) translate(4 318)">
<title>Core::IManager</title>
<!-- Node1 -->
<g id="Node000001" class="node">
<title>Node1</title>
<g id="a_Node000001"><a xlink:title=" ">
<polygon fill="#999999" stroke="transparent" points="350,-314 265,-314 265,-265 350,-265 350,-314"/>
<text text-anchor="start" x="270.5" y="-301.5" font-family="Helvetica,sans-Serif" font-size="10.00">Core::IManager</text>
<text text-anchor="start" x="306" y="-286.5" font-family="Helvetica,sans-Serif" font-size="10.00"> </text>
<text text-anchor="start" x="306" y="-271.5" font-family="Helvetica,sans-Serif" font-size="10.00"> </text>
<polygon fill="#666666" stroke="#666666" points="265.5,-296.5 265.5,-296.5 350.5,-296.5 350.5,-296.5 265.5,-296.5"/>
<polygon fill="#666666" stroke="#666666" points="265.5,-281.5 265.5,-281.5 350.5,-281.5 350.5,-281.5 265.5,-281.5"/>
<polygon fill="none" stroke="#666666" points="265,-265 265,-314 350,-314 350,-265 265,-265"/>
</a>
</g>
</g>
<!-- Node2 -->
<g id="Node000002" class="node">
<title>Node2</title>
<g id="a_Node000002"><a xlink:href="classCore_1_1CommunicationManager.html" target="_top" xlink:title="The central network orchestrator for Core 0.">
<polygon fill="white" stroke="transparent" points="159,-191.5 0,-191.5 0,-37.5 159,-37.5 159,-191.5"/>
<text text-anchor="start" x="5.5" y="-179.5" font-family="Helvetica,sans-Serif" font-size="10.00">Core::CommunicationManager</text>
<text text-anchor="start" x="78" y="-164.5" font-family="Helvetica,sans-Serif" font-size="10.00"> </text>
<text text-anchor="start" x="5" y="-149.5" font-family="Helvetica,sans-Serif" font-size="10.00">+</text>
<text text-anchor="start" x="18.5" y="-149.5" font-family="Helvetica,sans-Serif" font-size="10.00">CommunicationManager()</text>
<text text-anchor="start" x="5" y="-134.5" font-family="Helvetica,sans-Serif" font-size="10.00">+</text>
<text text-anchor="start" x="18.5" y="-134.5" font-family="Helvetica,sans-Serif" font-size="10.00">~CommunicationManager()</text>
<text text-anchor="start" x="5" y="-119.5" font-family="Helvetica,sans-Serif" font-size="10.00">+</text>
<text text-anchor="start" x="18.5" y="-119.5" font-family="Helvetica,sans-Serif" font-size="10.00">CommunicationManager()</text>
<text text-anchor="start" x="5" y="-104.5" font-family="Helvetica,sans-Serif" font-size="10.00">+</text>
<text text-anchor="start" x="18.5" y="-104.5" font-family="Helvetica,sans-Serif" font-size="10.00">operator=()</text>
<text text-anchor="start" x="5" y="-89.5" font-family="Helvetica,sans-Serif" font-size="10.00">+</text>
<text text-anchor="start" x="18.5" y="-89.5" font-family="Helvetica,sans-Serif" font-size="10.00">begin()</text>
<text text-anchor="start" x="5" y="-74.5" font-family="Helvetica,sans-Serif" font-size="10.00">+</text>
<text text-anchor="start" x="18.5" y="-74.5" font-family="Helvetica,sans-Serif" font-size="10.00">taskLoop()</text>
<text text-anchor="start" x="5" y="-59.5" font-family="Helvetica,sans-Serif" font-size="10.00">+</text>
<text text-anchor="start" x="18.5" y="-59.5" font-family="Helvetica,sans-Serif" font-size="10.00">getState()</text>
<text text-anchor="start" x="5" y="-44.5" font-family="Helvetica,sans-Serif" font-size="10.00">+</text>
<text text-anchor="start" x="18.5" y="-44.5" font-family="Helvetica,sans-Serif" font-size="10.00">wifiEventHandler()</text>
<polygon fill="#666666" stroke="#666666" points="0.5,-174.5 0.5,-174.5 159.5,-174.5 159.5,-174.5 0.5,-174.5"/>
<polygon fill="#666666" stroke="#666666" points="0.5,-159.5 0.5,-159.5 159.5,-159.5 159.5,-159.5 0.5,-159.5"/>
<polygon fill="none" stroke="#666666" points="0,-37.5 0,-191.5 159,-191.5 159,-37.5 0,-37.5"/>
</a>
</g>
</g>
<!-- Node1&#45;&gt;Node2 -->
<g id="edge1_Node000001_Node000002" class="edge">
<title>Node1&#45;&gt;Node2</title>
<g id="a_edge1_Node000001_Node000002"><a xlink:title=" ">
<path fill="none" stroke="#63b8ff" d="M255.14,-273.38C227.28,-263.65 193.51,-249.04 167.5,-229 153.77,-218.42 141.01,-205.22 129.71,-191.6"/>
<polygon fill="none" stroke="#63b8ff" points="254.13,-276.73 264.72,-276.62 256.37,-270.1 254.13,-276.73"/>
</a>
</g>
</g>
<!-- Node3 -->
<g id="Node000003" class="node">
<title>Node3</title>
<g id="a_Node000003"><a xlink:href="classCore_1_1DataManager.html" target="_top" xlink:title="Manages the global system state in thread&#45;safe PSRAM memory.">
<polygon fill="white" stroke="transparent" points="296,-191.5 177,-191.5 177,-37.5 296,-37.5 296,-191.5"/>
<text text-anchor="start" x="189.5" y="-179.5" font-family="Helvetica,sans-Serif" font-size="10.00">Core::DataManager</text>
<text text-anchor="start" x="181.5" y="-164.5" font-family="Helvetica,sans-Serif" font-size="10.00">+</text>
<text text-anchor="start" x="194.5" y="-164.5" font-family="Helvetica,sans-Serif" font-size="10.00">LOCK_TIMEOUT</text>
<text text-anchor="start" x="181.5" y="-149.5" font-family="Helvetica,sans-Serif" font-size="10.00">+</text>
<text text-anchor="start" x="194.5" y="-149.5" font-family="Helvetica,sans-Serif" font-size="10.00">DataManager()</text>
<text text-anchor="start" x="181.5" y="-134.5" font-family="Helvetica,sans-Serif" font-size="10.00">+</text>
<text text-anchor="start" x="194.5" y="-134.5" font-family="Helvetica,sans-Serif" font-size="10.00">~DataManager()</text>
<text text-anchor="start" x="181.5" y="-119.5" font-family="Helvetica,sans-Serif" font-size="10.00">+</text>
<text text-anchor="start" x="194.5" y="-119.5" font-family="Helvetica,sans-Serif" font-size="10.00">DataManager()</text>
<text text-anchor="start" x="181.5" y="-104.5" font-family="Helvetica,sans-Serif" font-size="10.00">+</text>
<text text-anchor="start" x="194.5" y="-104.5" font-family="Helvetica,sans-Serif" font-size="10.00">operator=()</text>
<text text-anchor="start" x="181.5" y="-89.5" font-family="Helvetica,sans-Serif" font-size="10.00">+</text>
<text text-anchor="start" x="194.5" y="-89.5" font-family="Helvetica,sans-Serif" font-size="10.00">setOperatingMode()</text>
<text text-anchor="start" x="181.5" y="-74.5" font-family="Helvetica,sans-Serif" font-size="10.00">+</text>
<text text-anchor="start" x="194.5" y="-74.5" font-family="Helvetica,sans-Serif" font-size="10.00">setDeviceName()</text>
<text text-anchor="start" x="181.5" y="-59.5" font-family="Helvetica,sans-Serif" font-size="10.00">+</text>
<text text-anchor="start" x="194.5" y="-59.5" font-family="Helvetica,sans-Serif" font-size="10.00">sensors()</text>
<text text-anchor="start" x="181.5" y="-44.5" font-family="Helvetica,sans-Serif" font-size="10.00">+</text>
<text text-anchor="start" x="194.5" y="-44.5" font-family="Helvetica,sans-Serif" font-size="10.00">getState()</text>
<polygon fill="#666666" stroke="#666666" points="177.5,-174.5 177.5,-174.5 296.5,-174.5 296.5,-174.5 177.5,-174.5"/>
<polygon fill="#666666" stroke="#666666" points="177.5,-159.5 177.5,-159.5 192.5,-159.5 192.5,-159.5 177.5,-159.5"/>
<polygon fill="#666666" stroke="#666666" points="192.5,-159.5 192.5,-159.5 296.5,-159.5 296.5,-159.5 192.5,-159.5"/>
<polygon fill="none" stroke="#666666" points="177,-37.5 177,-191.5 296,-191.5 296,-37.5 177,-37.5"/>
</a>
</g>
</g>
<!-- Node1&#45;&gt;Node3 -->
<g id="edge2_Node000001_Node000003" class="edge">
<title>Node1&#45;&gt;Node3</title>
<g id="a_edge2_Node000001_Node000003"><a xlink:title=" ">
<path fill="none" stroke="#63b8ff" d="M293.88,-255.31C286.45,-237.21 276.92,-213.99 267.78,-191.71"/>
<polygon fill="none" stroke="#63b8ff" points="290.74,-256.89 297.78,-264.81 297.22,-254.23 290.74,-256.89"/>
</a>
</g>
</g>
<!-- Node4 -->
<g id="Node000004" class="node">
<title>Node4</title>
<g id="a_Node000004"><a xlink:href="classCore_1_1StorageManager.html" target="_top" xlink:title="Manages persistent data via NVS (fast parameters) and LittleFS (JSON).">
<polygon fill="white" stroke="transparent" points="444.5,-229 314.5,-229 314.5,0 444.5,0 444.5,-229"/>
<text text-anchor="start" x="325" y="-216.5" font-family="Helvetica,sans-Serif" font-size="10.00">Core::StorageManager</text>
<text text-anchor="start" x="377.5" y="-201.5" font-family="Helvetica,sans-Serif" font-size="10.00"> </text>
<text text-anchor="start" x="318.5" y="-186.5" font-family="Helvetica,sans-Serif" font-size="10.00">+</text>
<text text-anchor="start" x="331.5" y="-186.5" font-family="Helvetica,sans-Serif" font-size="10.00">StorageManager()</text>
<text text-anchor="start" x="318.5" y="-171.5" font-family="Helvetica,sans-Serif" font-size="10.00">+</text>
<text text-anchor="start" x="331.5" y="-171.5" font-family="Helvetica,sans-Serif" font-size="10.00">~StorageManager()</text>
<text text-anchor="start" x="318.5" y="-156.5" font-family="Helvetica,sans-Serif" font-size="10.00">+</text>
<text text-anchor="start" x="331.5" y="-156.5" font-family="Helvetica,sans-Serif" font-size="10.00">StorageManager()</text>
<text text-anchor="start" x="318.5" y="-141.5" font-family="Helvetica,sans-Serif" font-size="10.00">+</text>
<text text-anchor="start" x="331.5" y="-141.5" font-family="Helvetica,sans-Serif" font-size="10.00">operator=()</text>
<text text-anchor="start" x="318.5" y="-126.5" font-family="Helvetica,sans-Serif" font-size="10.00">+</text>
<text text-anchor="start" x="331.5" y="-126.5" font-family="Helvetica,sans-Serif" font-size="10.00">begin()</text>
<text text-anchor="start" x="318.5" y="-111.5" font-family="Helvetica,sans-Serif" font-size="10.00">+</text>
<text text-anchor="start" x="331.5" y="-111.5" font-family="Helvetica,sans-Serif" font-size="10.00">loadConfig()</text>
<text text-anchor="start" x="318.5" y="-96.5" font-family="Helvetica,sans-Serif" font-size="10.00">+</text>
<text text-anchor="start" x="331.5" y="-96.5" font-family="Helvetica,sans-Serif" font-size="10.00">saveConfig()</text>
<text text-anchor="start" x="318.5" y="-81.5" font-family="Helvetica,sans-Serif" font-size="10.00">+</text>
<text text-anchor="start" x="331.5" y="-81.5" font-family="Helvetica,sans-Serif" font-size="10.00">loadAndInjectAlarms()</text>
<text text-anchor="start" x="318.5" y="-66.5" font-family="Helvetica,sans-Serif" font-size="10.00">+</text>
<text text-anchor="start" x="331.5" y="-66.5" font-family="Helvetica,sans-Serif" font-size="10.00">saveAlarms()</text>
<text text-anchor="start" x="318.5" y="-51.5" font-family="Helvetica,sans-Serif" font-size="10.00">+</text>
<text text-anchor="start" x="331.5" y="-51.5" font-family="Helvetica,sans-Serif" font-size="10.00">syncToNVS()</text>
<text text-anchor="start" x="318.5" y="-36.5" font-family="Helvetica,sans-Serif" font-size="10.00">+</text>
<text text-anchor="start" x="331.5" y="-36.5" font-family="Helvetica,sans-Serif" font-size="10.00">loadFromNVS()</text>
<text text-anchor="start" x="318.5" y="-21.5" font-family="Helvetica,sans-Serif" font-size="10.00">+</text>
<text text-anchor="start" x="331.5" y="-21.5" font-family="Helvetica,sans-Serif" font-size="10.00">formatFileSystem()</text>
<text text-anchor="start" x="318.5" y="-6.5" font-family="Helvetica,sans-Serif" font-size="10.00">+</text>
<text text-anchor="start" x="331.5" y="-6.5" font-family="Helvetica,sans-Serif" font-size="10.00">getState()</text>
<polygon fill="#666666" stroke="#666666" points="314.5,-211.5 314.5,-211.5 444.5,-211.5 444.5,-211.5 314.5,-211.5"/>
<polygon fill="#666666" stroke="#666666" points="314.5,-196.5 314.5,-196.5 444.5,-196.5 444.5,-196.5 314.5,-196.5"/>
<polygon fill="none" stroke="#666666" points="314.5,0 314.5,-229 444.5,-229 444.5,0 314.5,0"/>
</a>
</g>
</g>
<!-- Node1&#45;&gt;Node4 -->
<g id="edge3_Node000001_Node000004" class="edge">
<title>Node1&#45;&gt;Node4</title>
<g id="a_edge3_Node000001_Node000004"><a xlink:title=" ">
<path fill="none" stroke="#63b8ff" d="M321.21,-255.57C324.54,-247.55 328.3,-238.52 332.26,-229.01"/>
<polygon fill="none" stroke="#63b8ff" points="317.97,-254.23 317.36,-264.81 324.43,-256.92 317.97,-254.23"/>
</a>
</g>
</g>
<!-- Node5 -->
<g id="Node000005" class="node">
<title>Node5</title>
<g id="a_Node000005"><a xlink:href="classCore_1_1TimeManager.html" target="_top" xlink:title="Orchestrates temporal integrity and astronomical scheduling.">
<polygon fill="white" stroke="transparent" points="570,-214 463,-214 463,-15 570,-15 570,-214"/>
<text text-anchor="start" x="468.5" y="-201.5" font-family="Helvetica,sans-Serif" font-size="10.00">Core::TimeManager</text>
<text text-anchor="start" x="468" y="-186.5" font-family="Helvetica,sans-Serif" font-size="10.00">+</text>
<text text-anchor="start" x="481.5" y="-186.5" font-family="Helvetica,sans-Serif" font-size="10.00">MAX_ALARMS</text>
<text text-anchor="start" x="468" y="-171.5" font-family="Helvetica,sans-Serif" font-size="10.00">+</text>
<text text-anchor="start" x="481.5" y="-171.5" font-family="Helvetica,sans-Serif" font-size="10.00">TimeManager()</text>
<text text-anchor="start" x="468" y="-156.5" font-family="Helvetica,sans-Serif" font-size="10.00">+</text>
<text text-anchor="start" x="481.5" y="-156.5" font-family="Helvetica,sans-Serif" font-size="10.00">~TimeManager()</text>
<text text-anchor="start" x="468" y="-141.5" font-family="Helvetica,sans-Serif" font-size="10.00">+</text>
<text text-anchor="start" x="481.5" y="-141.5" font-family="Helvetica,sans-Serif" font-size="10.00">TimeManager()</text>
<text text-anchor="start" x="468" y="-126.5" font-family="Helvetica,sans-Serif" font-size="10.00">+</text>
<text text-anchor="start" x="481.5" y="-126.5" font-family="Helvetica,sans-Serif" font-size="10.00">operator=()</text>
<text text-anchor="start" x="468" y="-111.5" font-family="Helvetica,sans-Serif" font-size="10.00">+</text>
<text text-anchor="start" x="481.5" y="-111.5" font-family="Helvetica,sans-Serif" font-size="10.00">begin()</text>
<text text-anchor="start" x="468" y="-96.5" font-family="Helvetica,sans-Serif" font-size="10.00">+</text>
<text text-anchor="start" x="481.5" y="-96.5" font-family="Helvetica,sans-Serif" font-size="10.00">update()</text>
<text text-anchor="start" x="468" y="-81.5" font-family="Helvetica,sans-Serif" font-size="10.00">+</text>
<text text-anchor="start" x="481.5" y="-81.5" font-family="Helvetica,sans-Serif" font-size="10.00">initNTP()</text>
<text text-anchor="start" x="468" y="-66.5" font-family="Helvetica,sans-Serif" font-size="10.00">+</text>
<text text-anchor="start" x="481.5" y="-66.5" font-family="Helvetica,sans-Serif" font-size="10.00">addAlarm()</text>
<text text-anchor="start" x="468" y="-51.5" font-family="Helvetica,sans-Serif" font-size="10.00">+</text>
<text text-anchor="start" x="481.5" y="-51.5" font-family="Helvetica,sans-Serif" font-size="10.00">removeAlarm()</text>
<text text-anchor="start" x="468" y="-36.5" font-family="Helvetica,sans-Serif" font-size="10.00">+</text>
<text text-anchor="start" x="481.5" y="-36.5" font-family="Helvetica,sans-Serif" font-size="10.00">getAlarms()</text>
<text text-anchor="start" x="481.5" y="-21.5" font-family="Helvetica,sans-Serif" font-size="10.00">and 34 more...</text>
<polygon fill="#666666" stroke="#666666" points="463.5,-196.5 463.5,-196.5 570.5,-196.5 570.5,-196.5 463.5,-196.5"/>
<polygon fill="#666666" stroke="#666666" points="463.5,-181.5 463.5,-181.5 479.5,-181.5 479.5,-181.5 463.5,-181.5"/>
<polygon fill="#666666" stroke="#666666" points="479.5,-181.5 479.5,-181.5 570.5,-181.5 570.5,-181.5 479.5,-181.5"/>
<polygon fill="none" stroke="#666666" points="463,-15 463,-214 570,-214 570,-15 463,-15"/>
</a>
</g>
</g>
<!-- Node1&#45;&gt;Node5 -->
<g id="edge4_Node000001_Node000005" class="edge">
<title>Node1&#45;&gt;Node5</title>
<g id="a_edge4_Node000001_Node000005"><a xlink:title=" ">
<path fill="none" stroke="#63b8ff" d="M360.19,-276.38C390.26,-267.34 427.1,-252.42 453.5,-229 458.56,-224.51 463.3,-219.52 467.72,-214.2"/>
<polygon fill="none" stroke="#63b8ff" points="358.93,-273.1 350.28,-279.23 360.86,-279.83 358.93,-273.1"/>
</a>
</g>
</g>
</g>
</svg>
