<?xml version="1.0" encoding="UTF-8" standalone="no"?>
<!DOCTYPE svg PUBLIC "-//W3C//DTD SVG 1.1//EN"
 "http://www.w3.org/Graphics/SVG/1.1/DTD/svg11.dtd">
<!-- Generated by graphviz version 2.43.0 (0)
 -->
<!-- Title: Hardware::ISensor Pages: 1 -->
<svg width="330pt" height="322pt"
 viewBox="0.00 0.00 329.50 322.00" xmlns="http://www.w3.org/2000/svg" xmlns:xlink="http://www.w3.org/1999/xlink">

<svg id="main" version="1.1" xmlns="http://www.w3.org/2000/svg" xmlns:xlink="http://www.w3.org/1999/xlink" xml:space="preserve" onload="init(evt)">
<style type="text/css"><![CDATA[
.node, .edge {opacity: 0.7;}
.node.selected, .edge.selected {opacity: 1;}
.edge:hover path { stroke: red; }
.edge:hover polygon { stroke: red; fill: red; }
]]></style>
<script type="application/ecmascript" xlink:href="svg.min.js"/>
<svg id="graph" class="graph">
<g id="graph0" class="graph" transform="scale(1 1) rotate(0) translate(4 318)">
<title>Hardware::ISensor</title>
<!-- Node1 -->
<g id="Node000001" class="node">
<title>Node1</title>
<g id="a_Node000001"><a xlink:title="Abstract interface for all physical sensors (Temp, Humidity, Pressure).">
<polygon fill="#999999" stroke="transparent" points="203.5,-314 103.5,-314 103.5,-160 203.5,-160 203.5,-314"/>
<text text-anchor="start" x="108.5" y="-302" font-family="Helvetica,sans-Serif" font-size="10.00">Hardware::ISensor</text>
<text text-anchor="start" x="151.5" y="-287" font-family="Helvetica,sans-Serif" font-size="10.00"> </text>
<text text-anchor="start" x="114" y="-272" font-family="Helvetica,sans-Serif" font-size="10.00">+</text>
<text text-anchor="start" x="133.5" y="-272" font-family="Helvetica,sans-Serif" font-size="10.00">~ISensor()</text>
<text text-anchor="start" x="114" y="-257" font-family="Helvetica,sans-Serif" font-size="10.00">+</text>
<text text-anchor="start" x="133.5" y="-257" font-family="Helvetica,sans-Serif" font-size="10.00">begin()</text>
<text text-anchor="start" x="114" y="-242" font-family="Helvetica,sans-Serif" font-size="10.00">+</text>
<text text-anchor="start" x="133.5" y="-242" font-family="Helvetica,sans-Serif" font-size="10.00">update()</text>
<text text-anchor="start" x="114" y="-227" font-family="Helvetica,sans-Serif" font-size="10.00">+</text>
<text text-anchor="start" x="133.5" y="-227" font-family="Helvetica,sans-Serif" font-size="10.00">publish()</text>
<text text-anchor="start" x="114" y="-212" font-family="Helvetica,sans-Serif" font-size="10.00">+</text>
<text text-anchor="start" x="133.5" y="-212" font-family="Helvetica,sans-Serif" font-size="10.00">toJson()</text>
<text text-anchor="start" x="114" y="-197" font-family="Helvetica,sans-Serif" font-size="10.00">+</text>
<text text-anchor="start" x="133.5" y="-197" font-family="Helvetica,sans-Serif" font-size="10.00">configure()</text>
<text text-anchor="start" x="114" y="-182" font-family="Helvetica,sans-Serif" font-size="10.00">+</text>
<text text-anchor="start" x="133.5" y="-182" font-family="Helvetica,sans-Serif" font-size="10.00">getState()</text>
<text text-anchor="start" x="114" y="-167" font-family="Helvetica,sans-Serif" font-size="10.00">+</text>
<text text-anchor="start" x="133.5" y="-167" font-family="Helvetica,sans-Serif" font-size="10.00">getName()</text>
<polygon fill="#666666" stroke="#666666" points="103.5,-297 103.5,-297 203.5,-297 203.5,-297 103.5,-297"/>
<polygon fill="#666666" stroke="#666666" points="103.5,-282 103.5,-282 203.5,-282 203.5,-282 103.5,-282"/>
<polygon fill="none" stroke="#666666" points="103.5,-160 103.5,-314 203.5,-314 203.5,-160 103.5,-160"/>
</a>
</g>
</g>
<!-- Node2 -->
<g id="Node000002" class="node">
<title>Node2</title>
<g id="a_Node000002"><a xlink:href="classHardware_1_1Bme280Sensor.html" target="_top" xlink:title="Driver voor BME280 (Temperatuur, Luchtvochtigheid, Luchtdruk).">
<polygon fill="white" stroke="transparent" points="137,-124 0,-124 0,0 137,0 137,-124"/>
<text text-anchor="start" x="5.5" y="-112" font-family="Helvetica,sans-Serif" font-size="10.00">Hardware::Bme280Sensor</text>
<text text-anchor="start" x="67" y="-97" font-family="Helvetica,sans-Serif" font-size="10.00"> </text>
<text text-anchor="start" x="13" y="-82" font-family="Helvetica,sans-Serif" font-size="10.00">+</text>
<text text-anchor="start" x="34.5" y="-82" font-family="Helvetica,sans-Serif" font-size="10.00">Bme280Sensor()</text>
<text text-anchor="start" x="13" y="-67" font-family="Helvetica,sans-Serif" font-size="10.00">+</text>
<text text-anchor="start" x="34.5" y="-67" font-family="Helvetica,sans-Serif" font-size="10.00">begin()</text>
<text text-anchor="start" x="13" y="-52" font-family="Helvetica,sans-Serif" font-size="10.00">+</text>
<text text-anchor="start" x="34.5" y="-52" font-family="Helvetica,sans-Serif" font-size="10.00">update()</text>
<text text-anchor="start" x="13" y="-37" font-family="Helvetica,sans-Serif" font-size="10.00">+</text>
<text text-anchor="start" x="34.5" y="-37" font-family="Helvetica,sans-Serif" font-size="10.00">toJson()</text>
<text text-anchor="start" x="13" y="-22" font-family="Helvetica,sans-Serif" font-size="10.00">+</text>
<text text-anchor="start" x="34.5" y="-22" font-family="Helvetica,sans-Serif" font-size="10.00">configure()</text>
<text text-anchor="start" x="13" y="-7" font-family="Helvetica,sans-Serif" font-size="10.00">+</text>
<text text-anchor="start" x="34.5" y="-7" font-family="Helvetica,sans-Serif" font-size="10.00">getName()</text>
<polygon fill="#666666" stroke="#666666" points="0.5,-107 0.5,-107 137.5,-107 137.5,-107 0.5,-107"/>
<polygon fill="#666666" stroke="#666666" points="0.5,-92 0.5,-92 137.5,-92 137.5,-92 0.5,-92"/>
<polygon fill="none" stroke="#666666" points="0,0 0,-124 137,-124 137,0 0,0"/>
</a>
</g>
</g>
<!-- Node1&#45;&gt;Node2 -->
<g id="edge1_Node000001_Node000002" class="edge">
<title>Node1&#45;&gt;Node2</title>
<g id="a_edge1_Node000001_Node000002"><a xlink:title=" ">
<path fill="none" stroke="#63b8ff" d="M111.67,-150.86C107.23,-141.83 102.78,-132.77 98.52,-124.1"/>
<polygon fill="none" stroke="#63b8ff" points="108.54,-152.44 116.09,-159.87 114.83,-149.35 108.54,-152.44"/>
</a>
</g>
</g>
<!-- Node3 -->
<g id="Node000003" class="node">
<title>Node3</title>
<g id="a_Node000003"><a xlink:href="classHardware_1_1ExampleTempSensor.html" target="_top" xlink:title=" ">
<polygon fill="white" stroke="transparent" points="321.5,-116.5 155.5,-116.5 155.5,-7.5 321.5,-7.5 321.5,-116.5"/>
<text text-anchor="start" x="160.5" y="-104" font-family="Helvetica,sans-Serif" font-size="10.00">Hardware::ExampleTempSensor</text>
<text text-anchor="start" x="236.5" y="-89" font-family="Helvetica,sans-Serif" font-size="10.00"> </text>
<text text-anchor="start" x="168" y="-74" font-family="Helvetica,sans-Serif" font-size="10.00">+</text>
<text text-anchor="start" x="189.5" y="-74" font-family="Helvetica,sans-Serif" font-size="10.00">ExampleTempSensor()</text>
<text text-anchor="start" x="168" y="-59" font-family="Helvetica,sans-Serif" font-size="10.00">+</text>
<text text-anchor="start" x="189.5" y="-59" font-family="Helvetica,sans-Serif" font-size="10.00">begin()</text>
<text text-anchor="start" x="168" y="-44" font-family="Helvetica,sans-Serif" font-size="10.00">+</text>
<text text-anchor="start" x="189.5" y="-44" font-family="Helvetica,sans-Serif" font-size="10.00">update()</text>
<text text-anchor="start" x="168" y="-29" font-family="Helvetica,sans-Serif" font-size="10.00">+</text>
<text text-anchor="start" x="189.5" y="-29" font-family="Helvetica,sans-Serif" font-size="10.00">toJson()</text>
<text text-anchor="start" x="168" y="-14" font-family="Helvetica,sans-Serif" font-size="10.00">+</text>
<text text-anchor="start" x="189.5" y="-14" font-family="Helvetica,sans-Serif" font-size="10.00">getName()</text>
<polygon fill="#bfbfbf" stroke="#bfbfbf" points="155.5,-99 155.5,-99 321.5,-99 321.5,-99 155.5,-99"/>
<polygon fill="#bfbfbf" stroke="#bfbfbf" points="155.5,-84 155.5,-84 321.5,-84 321.5,-84 155.5,-84"/>
<polygon fill="none" stroke="#bfbfbf" points="155.5,-7.5 155.5,-116.5 321.5,-116.5 321.5,-7.5 155.5,-7.5"/>
</a>
</g>
</g>
<!-- Node1&#45;&gt;Node3 -->
<g id="edge2_Node000001_Node000003" class="edge">
<title>Node1&#45;&gt;Node3</title>
<g id="a_edge2_Node000001_Node000003"><a xlink:title=" ">
<path fill="none" stroke="#63b8ff" d="M195.46,-150.59C201.16,-139 206.86,-127.39 212.18,-116.58"/>
<polygon fill="none" stroke="#63b8ff" points="192.17,-149.35 190.91,-159.87 198.46,-152.44 192.17,-149.35"/>
</a>
</g>
</g>
</g>
</svg>
</svg>

<style type='text/css'>
<![CDATA[
[data-mouse-over-selected='false'] { opacity: 0.7; }
[data-mouse-over-selected='true']  { opacity: 1.0; }
]]>
</style>
<script type="application/ecmascript"><![CDATA[
document.addEventListener('DOMContentLoaded', (event) => {
  highlightEdges();
  highlightAdjacentNodes();
});
]]></script>
</svg>
