<?xml version="1.0" encoding="UTF-8" standalone="no"?>
<!DOCTYPE svg PUBLIC "-//W3C//DTD SVG 1.1//EN"
 "http://www.w3.org/Graphics/SVG/1.1/DTD/svg11.dtd">
<!-- Generated by graphviz version 2.43.0 (0)
 -->
<!-- Title: Hardware::IActuator Pages: 1 -->
<svg width="326pt" height="337pt"
 viewBox="0.00 0.00 326.00 337.00" xmlns="http://www.w3.org/2000/svg" xmlns:xlink="http://www.w3.org/1999/xlink">

<svg id="main" version="1.1" xmlns="http://www.w3.org/2000/svg" xmlns:xlink="http://www.w3.org/1999/xlink" xml:space="preserve" onload="init(evt)">
<style type="text/css"><![CDATA[
.node, .edge {opacity: 0.7;}
.node.selected, .edge.selected {opacity: 1;}
.edge:hover path { stroke: red; }
.edge:hover polygon { stroke: red; fill: red; }
]]></style>
<script type="application/ecmascript" xlink:href="svg.min.js"/>
<svg id="graph" class="graph">
<g id="graph0" class="graph" transform="scale(1 1) rotate(0) translate(4 333)">
<title>Hardware::IActuator</title>
<!-- Node1 -->
<g id="Node000001" class="node">
<title>Node1</title>
<g id="a_Node000001"><a xlink:title="Abstract interface for all hardware outputs (Relays, PWM, Valves). Designed for deterministic synchro...">
<polygon fill="#999999" stroke="transparent" points="221.5,-329 113.5,-329 113.5,-160 221.5,-160 221.5,-329"/>
<text text-anchor="start" x="118.5" y="-316.5" font-family="Helvetica,sans-Serif" font-size="10.00">Hardware::IActuator</text>
<text text-anchor="start" x="165.5" y="-301.5" font-family="Helvetica,sans-Serif" font-size="10.00"> </text>
<text text-anchor="start" x="118" y="-286.5" font-family="Helvetica,sans-Serif" font-size="10.00">+</text>
<text text-anchor="start" x="131.5" y="-286.5" font-family="Helvetica,sans-Serif" font-size="10.00">~IActuator()</text>
<text text-anchor="start" x="118" y="-271.5" font-family="Helvetica,sans-Serif" font-size="10.00">+</text>
<text text-anchor="start" x="131.5" y="-271.5" font-family="Helvetica,sans-Serif" font-size="10.00">begin()</text>
<text text-anchor="start" x="118" y="-256.5" font-family="Helvetica,sans-Serif" font-size="10.00">+</text>
<text text-anchor="start" x="131.5" y="-256.5" font-family="Helvetica,sans-Serif" font-size="10.00">sync()</text>
<text text-anchor="start" x="118" y="-241.5" font-family="Helvetica,sans-Serif" font-size="10.00">+</text>
<text text-anchor="start" x="131.5" y="-241.5" font-family="Helvetica,sans-Serif" font-size="10.00">update()</text>
<text text-anchor="start" x="118" y="-226.5" font-family="Helvetica,sans-Serif" font-size="10.00">+</text>
<text text-anchor="start" x="131.5" y="-226.5" font-family="Helvetica,sans-Serif" font-size="10.00">getState()</text>
<text text-anchor="start" x="118" y="-211.5" font-family="Helvetica,sans-Serif" font-size="10.00">+</text>
<text text-anchor="start" x="131.5" y="-211.5" font-family="Helvetica,sans-Serif" font-size="10.00">emergencyStop()</text>
<text text-anchor="start" x="118" y="-196.5" font-family="Helvetica,sans-Serif" font-size="10.00">+</text>
<text text-anchor="start" x="131.5" y="-196.5" font-family="Helvetica,sans-Serif" font-size="10.00">getMirrorValue()</text>
<text text-anchor="start" x="118" y="-181.5" font-family="Helvetica,sans-Serif" font-size="10.00">+</text>
<text text-anchor="start" x="131.5" y="-181.5" font-family="Helvetica,sans-Serif" font-size="10.00">verifyAction()</text>
<text text-anchor="start" x="118" y="-166.5" font-family="Helvetica,sans-Serif" font-size="10.00">+</text>
<text text-anchor="start" x="131.5" y="-166.5" font-family="Helvetica,sans-Serif" font-size="10.00">getName()</text>
<polygon fill="#666666" stroke="#666666" points="113.5,-311.5 113.5,-311.5 221.5,-311.5 221.5,-311.5 113.5,-311.5"/>
<polygon fill="#666666" stroke="#666666" points="113.5,-296.5 113.5,-296.5 221.5,-296.5 221.5,-296.5 113.5,-296.5"/>
<polygon fill="none" stroke="#666666" points="113.5,-160 113.5,-329 221.5,-329 221.5,-160 113.5,-160"/>
</a>
</g>
</g>
<!-- Node2 -->
<g id="Node000002" class="node">
<title>Node2</title>
<g id="a_Node000002"><a xlink:href="classHardware_1_1I2CExpanderActuator.html" target="_top" xlink:title=" ">
<polygon fill="white" stroke="transparent" points="167,-124 0,-124 0,0 167,0 167,-124"/>
<text text-anchor="start" x="5.5" y="-112" font-family="Helvetica,sans-Serif" font-size="10.00">Hardware::I2CExpanderActuator</text>
<text text-anchor="start" x="82" y="-97" font-family="Helvetica,sans-Serif" font-size="10.00"> </text>
<text text-anchor="start" x="13" y="-82" font-family="Helvetica,sans-Serif" font-size="10.00">+</text>
<text text-anchor="start" x="34.5" y="-82" font-family="Helvetica,sans-Serif" font-size="10.00">I2CExpanderActuator()</text>
<text text-anchor="start" x="13" y="-67" font-family="Helvetica,sans-Serif" font-size="10.00">+</text>
<text text-anchor="start" x="34.5" y="-67" font-family="Helvetica,sans-Serif" font-size="10.00">begin()</text>
<text text-anchor="start" x="13" y="-52" font-family="Helvetica,sans-Serif" font-size="10.00">+</text>
<text text-anchor="start" x="34.5" y="-52" font-family="Helvetica,sans-Serif" font-size="10.00">update()</text>
<text text-anchor="start" x="13" y="-37" font-family="Helvetica,sans-Serif" font-size="10.00">+</text>
<text text-anchor="start" x="34.5" y="-37" font-family="Helvetica,sans-Serif" font-size="10.00">getState()</text>
<text text-anchor="start" x="13" y="-22" font-family="Helvetica,sans-Serif" font-size="10.00">+</text>
<text text-anchor="start" x="34.5" y="-22" font-family="Helvetica,sans-Serif" font-size="10.00">getName()</text>
<text text-anchor="start" x="13" y="-7" font-family="Helvetica,sans-Serif" font-size="10.00">+</text>
<text text-anchor="start" x="34.5" y="-7" font-family="Helvetica,sans-Serif" font-size="10.00">emergencyStop()</text>
<polygon fill="#bfbfbf" stroke="#bfbfbf" points="0.5,-107 0.5,-107 167.5,-107 167.5,-107 0.5,-107"/>
<polygon fill="#bfbfbf" stroke="#bfbfbf" points="0.5,-92 0.5,-92 167.5,-92 167.5,-92 0.5,-92"/>
<polygon fill="none" stroke="#bfbfbf" points="0,0 0,-124 167,-124 167,0 0,0"/>
</a>
</g>
</g>
<!-- Node1&#45;&gt;Node2 -->
<g id="edge1_Node000001_Node000002" class="edge">
<title>Node1&#45;&gt;Node2</title>
<g id="a_edge1_Node000001_Node000002"><a xlink:title=" ">
<path fill="none" stroke="#63b8ff" d="M124.35,-150.78C120.12,-141.7 115.91,-132.65 111.89,-124.01"/>
<polygon fill="none" stroke="#63b8ff" points="121.18,-152.27 128.57,-159.85 127.53,-149.31 121.18,-152.27"/>
</a>
</g>
</g>
<!-- Node3 -->
<g id="Node000003" class="node">
<title>Node3</title>
<g id="a_Node000003"><a xlink:href="classHardware_1_1RelayActuator.html" target="_top" xlink:title=" ">
<polygon fill="white" stroke="transparent" points="318,-124 185,-124 185,0 318,0 318,-124"/>
<text text-anchor="start" x="190.5" y="-112" font-family="Helvetica,sans-Serif" font-size="10.00">Hardware::RelayActuator</text>
<text text-anchor="start" x="250" y="-97" font-family="Helvetica,sans-Serif" font-size="10.00"> </text>
<text text-anchor="start" x="196" y="-82" font-family="Helvetica,sans-Serif" font-size="10.00">+</text>
<text text-anchor="start" x="215.5" y="-82" font-family="Helvetica,sans-Serif" font-size="10.00">RelayActuator()</text>
<text text-anchor="start" x="196" y="-67" font-family="Helvetica,sans-Serif" font-size="10.00">+</text>
<text text-anchor="start" x="215.5" y="-67" font-family="Helvetica,sans-Serif" font-size="10.00">begin()</text>
<text text-anchor="start" x="196" y="-52" font-family="Helvetica,sans-Serif" font-size="10.00">+</text>
<text text-anchor="start" x="215.5" y="-52" font-family="Helvetica,sans-Serif" font-size="10.00">update()</text>
<text text-anchor="start" x="196" y="-37" font-family="Helvetica,sans-Serif" font-size="10.00">+</text>
<text text-anchor="start" x="215.5" y="-37" font-family="Helvetica,sans-Serif" font-size="10.00">getState()</text>
<text text-anchor="start" x="196" y="-22" font-family="Helvetica,sans-Serif" font-size="10.00">+</text>
<text text-anchor="start" x="215.5" y="-22" font-family="Helvetica,sans-Serif" font-size="10.00">getName()</text>
<text text-anchor="start" x="196" y="-7" font-family="Helvetica,sans-Serif" font-size="10.00">+</text>
<text text-anchor="start" x="215.5" y="-7" font-family="Helvetica,sans-Serif" font-size="10.00">emergencyStop()</text>
<polygon fill="#bfbfbf" stroke="#bfbfbf" points="185.5,-107 185.5,-107 318.5,-107 318.5,-107 185.5,-107"/>
<polygon fill="#bfbfbf" stroke="#bfbfbf" points="185.5,-92 185.5,-92 318.5,-92 318.5,-92 185.5,-92"/>
<polygon fill="none" stroke="#bfbfbf" points="185,0 185,-124 318,-124 318,0 185,0"/>
</a>
</g>
</g>
<!-- Node1&#45;&gt;Node3 -->
<g id="edge2_Node000001_Node000003" class="edge">
<title>Node1&#45;&gt;Node3</title>
<g id="a_edge2_Node000001_Node000003"><a xlink:title=" ">
<path fill="none" stroke="#63b8ff" d="M210.65,-150.78C214.88,-141.7 219.09,-132.65 223.11,-124.01"/>
<polygon fill="none" stroke="#63b8ff" points="207.47,-149.31 206.43,-159.85 213.82,-152.27 207.47,-149.31"/>
</a>
</g>
</g>
</g>
</svg>
</svg>

<style type='text/css'>
<![CDATA[
[data-mouse-over-selected='false'] { opacity: 0.7; }
[data-mouse-over-selected='true']  { opacity: 1.0; }
]]>
</style>
<script type="application/ecmascript"><![CDATA[
document.addEventListener('DOMContentLoaded', (event) => {
  highlightEdges();
  highlightAdjacentNodes();
});
]]></script>
</svg>
