<?xml version="1.0" encoding="UTF-8" standalone="no"?>
<!DOCTYPE svg PUBLIC "-//W3C//DTD SVG 1.1//EN"
 "http://www.w3.org/Graphics/SVG/1.1/DTD/svg11.dtd">
<!-- Generated by graphviz version 2.43.0 (0)
 -->
<!-- Title: Hardware::Bme280Sensor Pages: 1 -->
<svg width="145pt" height="322pt"
 viewBox="0.00 0.00 145.00 322.00" xmlns="http://www.w3.org/2000/svg" xmlns:xlink="http://www.w3.org/1999/xlink">
<g id="graph0" class="graph" transform="scale(1 1) rotate(0) translate(4 318)">
<title>Hardware::Bme280Sensor</title>
<!-- Node1 -->
<g id="Node000001" class="node">
<title>Node1</title>
<g id="a_Node000001"><a xlink:title="Driver voor BME280 (Temperatuur, Luchtvochtigheid, Luchtdruk).">
<polygon fill="#999999" stroke="transparent" points="137,-124 0,-124 0,0 137,0 137,-124"/>
<text text-anchor="start" x="5.5" y="-112" font-family="Helvetica,sans-Serif" font-size="10.00">Hardware::Bme280Sensor</text>
<text text-anchor="start" x="67" y="-97" font-family="Helvetica,sans-Serif" font-size="10.00"> </text>
<text text-anchor="start" x="13" y="-82" font-family="Helvetica,sans-Serif" font-size="10.00">+</text>
<text text-anchor="start" x="34.5" y="-82" font-family="Helvetica,sans-Serif" font-size="10.00">Bme280Sensor()</text>
<text text-anchor="start" x="13" y="-67" font-family="Helvetica,sans-Serif" font-size="10.00">+</text>
<text text-anchor="start" x="34.5" y="-67" font-family="Helvetica,sans-Serif" font-size="10.00">begin()</text>
<text text-anchor="start" x="13" y="-52" font-family="Helvetica,sans-Serif" font-size="10.00">+</text>
<text text-anchor="start" x="34.5" y="-52" font-family="Helvetica,sans-Serif" font-size="10.00">update()</text>
<text text-anchor="start" x="13" y="-37" font-family="Helvetica,sans-Serif" font-size="10.00">+</text>
<text text-anchor="start" x="34.5" y="-37" font-family="Helvetica,sans-Serif" font-size="10.00">toJson()</text>
<text text-anchor="start" x="13" y="-22" font-family="Helvetica,sans-Serif" font-size="10.00">+</text>
<text text-anchor="start" x="34.5" y="-22" font-family="Helvetica,sans-Serif" font-size="10.00">configure()</text>
<text text-anchor="start" x="13" y="-7" font-family="Helvetica,sans-Serif" font-size="10.00">+</text>
<text text-anchor="start" x="34.5" y="-7" font-family="Helvetica,sans-Serif" font-size="10.00">getName()</text>
<polygon fill="#666666" stroke="#666666" points="0.5,-107 0.5,-107 137.5,-107 137.5,-107 0.5,-107"/>
<polygon fill="#666666" stroke="#666666" points="0.5,-92 0.5,-92 137.5,-92 137.5,-92 0.5,-92"/>
<polygon fill="none" stroke="#666666" points="0,0 0,-124 137,-124 137,0 0,0"/>
</a>
</g>
</g>
<!-- Node2 -->
<g id="Node000002" class="node">
<title>Node2</title>
<g id="a_Node000002"><a xlink:href="classHardware_1_1ISensor.html" target="_top" xlink:title="Abstract interface for all physical sensors (Temp, Humidity, Pressure).">
<polygon fill="white" stroke="transparent" points="118.5,-314 18.5,-314 18.5,-160 118.5,-160 118.5,-314"/>
<text text-anchor="start" x="23.5" y="-302" font-family="Helvetica,sans-Serif" font-size="10.00">Hardware::ISensor</text>
<text text-anchor="start" x="66.5" y="-287" font-family="Helvetica,sans-Serif" font-size="10.00"> </text>
<text text-anchor="start" x="29" y="-272" font-family="Helvetica,sans-Serif" font-size="10.00">+</text>
<text text-anchor="start" x="48.5" y="-272" font-family="Helvetica,sans-Serif" font-size="10.00">~ISensor()</text>
<text text-anchor="start" x="29" y="-257" font-family="Helvetica,sans-Serif" font-size="10.00">+</text>
<text text-anchor="start" x="48.5" y="-257" font-family="Helvetica,sans-Serif" font-size="10.00">begin()</text>
<text text-anchor="start" x="29" y="-242" font-family="Helvetica,sans-Serif" font-size="10.00">+</text>
<text text-anchor="start" x="48.5" y="-242" font-family="Helvetica,sans-Serif" font-size="10.00">update()</text>
<text text-anchor="start" x="29" y="-227" font-family="Helvetica,sans-Serif" font-size="10.00">+</text>
<text text-anchor="start" x="48.5" y="-227" font-family="Helvetica,sans-Serif" font-size="10.00">publish()</text>
<text text-anchor="start" x="29" y="-212" font-family="Helvetica,sans-Serif" font-size="10.00">+</text>
<text text-anchor="start" x="48.5" y="-212" font-family="Helvetica,sans-Serif" font-size="10.00">toJson()</text>
<text text-anchor="start" x="29" y="-197" font-family="Helvetica,sans-Serif" font-size="10.00">+</text>
<text text-anchor="start" x="48.5" y="-197" font-family="Helvetica,sans-Serif" font-size="10.00">configure()</text>
<text text-anchor="start" x="29" y="-182" font-family="Helvetica,sans-Serif" font-size="10.00">+</text>
<text text-anchor="start" x="48.5" y="-182" font-family="Helvetica,sans-Serif" font-size="10.00">getState()</text>
<text text-anchor="start" x="29" y="-167" font-family="Helvetica,sans-Serif" font-size="10.00">+</text>
<text text-anchor="start" x="48.5" y="-167" font-family="Helvetica,sans-Serif" font-size="10.00">getName()</text>
<polygon fill="#666666" stroke="#666666" points="18.5,-297 18.5,-297 118.5,-297 118.5,-297 18.5,-297"/>
<polygon fill="#666666" stroke="#666666" points="18.5,-282 18.5,-282 118.5,-282 118.5,-282 18.5,-282"/>
<polygon fill="none" stroke="#666666" points="18.5,-160 18.5,-314 118.5,-314 118.5,-160 18.5,-160"/>
</a>
</g>
</g>
<!-- Node2&#45;&gt;Node1 -->
<g id="edge1_Node000001_Node000002" class="edge">
<title>Node2&#45;&gt;Node1</title>
<g id="a_edge1_Node000001_Node000002"><a xlink:title=" ">
<path fill="none" stroke="#63b8ff" d="M68.5,-149.73C68.5,-141.07 68.5,-132.41 68.5,-124.1"/>
<polygon fill="none" stroke="#63b8ff" points="65,-149.87 68.5,-159.87 72,-149.87 65,-149.87"/>
</a>
</g>
</g>
</g>
</svg>
