<?xml version="1.0" encoding="UTF-8" standalone="no"?>
<!DOCTYPE svg PUBLIC "-//W3C//DTD SVG 1.1//EN"
 "http://www.w3.org/Graphics/SVG/1.1/DTD/svg11.dtd">
<!-- Generated by graphviz version 2.43.0 (0)
 -->
<!-- Title: Hardware::ITimeSource Pages: 1 -->
<svg width="133pt" height="262pt"
 viewBox="0.00 0.00 133.00 262.00" xmlns="http://www.w3.org/2000/svg" xmlns:xlink="http://www.w3.org/1999/xlink">

<svg id="main" version="1.1" xmlns="http://www.w3.org/2000/svg" xmlns:xlink="http://www.w3.org/1999/xlink" xml:space="preserve" onload="init(evt)">
<style type="text/css"><![CDATA[
.node, .edge {opacity: 0.7;}
.node.selected, .edge.selected {opacity: 1;}
.edge:hover path { stroke: red; }
.edge:hover polygon { stroke: red; fill: red; }
]]></style>
<script type="application/ecmascript" xlink:href="svg.min.js"/>
<svg id="graph" class="graph">
<g id="graph0" class="graph" transform="scale(1 1) rotate(0) translate(4 258)">
<title>Hardware::ITimeSource</title>
<!-- Node1 -->
<g id="Node000001" class="node">
<title>Node1</title>
<g id="a_Node000001"><a xlink:title="Interface for hardware clock sources.">
<polygon fill="#999999" stroke="transparent" points="125,-254 0,-254 0,-130 125,-130 125,-254"/>
<text text-anchor="start" x="5.5" y="-242" font-family="Helvetica,sans-Serif" font-size="10.00">Hardware::ITimeSource</text>
<text text-anchor="start" x="61" y="-227" font-family="Helvetica,sans-Serif" font-size="10.00"> </text>
<text text-anchor="start" x="11" y="-212" font-family="Helvetica,sans-Serif" font-size="10.00">+</text>
<text text-anchor="start" x="30.5" y="-212" font-family="Helvetica,sans-Serif" font-size="10.00">~ITimeSource()</text>
<text text-anchor="start" x="11" y="-197" font-family="Helvetica,sans-Serif" font-size="10.00">+</text>
<text text-anchor="start" x="30.5" y="-197" font-family="Helvetica,sans-Serif" font-size="10.00">begin()</text>
<text text-anchor="start" x="11" y="-182" font-family="Helvetica,sans-Serif" font-size="10.00">+</text>
<text text-anchor="start" x="30.5" y="-182" font-family="Helvetica,sans-Serif" font-size="10.00">getUnixTime()</text>
<text text-anchor="start" x="11" y="-167" font-family="Helvetica,sans-Serif" font-size="10.00">+</text>
<text text-anchor="start" x="30.5" y="-167" font-family="Helvetica,sans-Serif" font-size="10.00">setUnixTime()</text>
<text text-anchor="start" x="11" y="-152" font-family="Helvetica,sans-Serif" font-size="10.00">+</text>
<text text-anchor="start" x="30.5" y="-152" font-family="Helvetica,sans-Serif" font-size="10.00">getState()</text>
<text text-anchor="start" x="11" y="-137" font-family="Helvetica,sans-Serif" font-size="10.00">+</text>
<text text-anchor="start" x="30.5" y="-137" font-family="Helvetica,sans-Serif" font-size="10.00">getName()</text>
<polygon fill="#666666" stroke="#666666" points="0.5,-237 0.5,-237 125.5,-237 125.5,-237 0.5,-237"/>
<polygon fill="#666666" stroke="#666666" points="0.5,-222 0.5,-222 125.5,-222 125.5,-222 0.5,-222"/>
<polygon fill="none" stroke="#666666" points="0,-130 0,-254 125,-254 125,-130 0,-130"/>
</a>
</g>
</g>
<!-- Node2 -->
<g id="Node000002" class="node">
<title>Node2</title>
<g id="a_Node000002"><a xlink:href="classHardware_1_1DS3231.html" target="_top" xlink:title="Ultra&#45;precisiekklok driver via de thread&#45;safe I2CBus.">
<polygon fill="white" stroke="transparent" points="115.5,-94 9.5,-94 9.5,0 115.5,0 115.5,-94"/>
<text text-anchor="start" x="17" y="-82" font-family="Helvetica,sans-Serif" font-size="10.00">Hardware::DS3231</text>
<text text-anchor="start" x="60.5" y="-67" font-family="Helvetica,sans-Serif" font-size="10.00"> </text>
<text text-anchor="start" x="13.5" y="-52" font-family="Helvetica,sans-Serif" font-size="10.00">+</text>
<text text-anchor="start" x="26.5" y="-52" font-family="Helvetica,sans-Serif" font-size="10.00">DS3231()</text>
<text text-anchor="start" x="13.5" y="-37" font-family="Helvetica,sans-Serif" font-size="10.00">+</text>
<text text-anchor="start" x="26.5" y="-37" font-family="Helvetica,sans-Serif" font-size="10.00">get()</text>
<text text-anchor="start" x="13.5" y="-22" font-family="Helvetica,sans-Serif" font-size="10.00">+</text>
<text text-anchor="start" x="26.5" y="-22" font-family="Helvetica,sans-Serif" font-size="10.00">set()</text>
<text text-anchor="start" x="13.5" y="-7" font-family="Helvetica,sans-Serif" font-size="10.00">+</text>
<text text-anchor="start" x="26.5" y="-7" font-family="Helvetica,sans-Serif" font-size="10.00">getTemperature()</text>
<polygon fill="#666666" stroke="#666666" points="9.5,-77 9.5,-77 115.5,-77 115.5,-77 9.5,-77"/>
<polygon fill="#666666" stroke="#666666" points="9.5,-62 9.5,-62 115.5,-62 115.5,-62 9.5,-62"/>
<polygon fill="none" stroke="#666666" points="9.5,0 9.5,-94 115.5,-94 115.5,0 9.5,0"/>
</a>
</g>
</g>
<!-- Node1&#45;&gt;Node2 -->
<g id="edge1_Node000001_Node000002" class="edge">
<title>Node1&#45;&gt;Node2</title>
<g id="a_edge1_Node000001_Node000002"><a xlink:title=" ">
<path fill="none" stroke="#63b8ff" d="M62.5,-119.76C62.5,-111.05 62.5,-102.34 62.5,-94.15"/>
<polygon fill="none" stroke="#63b8ff" points="59,-119.94 62.5,-129.94 66,-119.94 59,-119.94"/>
</a>
</g>
</g>
</g>
</svg>
</svg>

<style type='text/css'>
<![CDATA[
[data-mouse-over-selected='false'] { opacity: 0.7; }
[data-mouse-over-selected='true']  { opacity: 1.0; }
]]>
</style>
<script type="application/ecmascript"><![CDATA[
document.addEventListener('DOMContentLoaded', (event) => {
  highlightEdges();
  highlightAdjacentNodes();
});
]]></script>
</svg>
