<?xml version="1.0" encoding="UTF-8" standalone="no"?>
<!DOCTYPE svg PUBLIC "-//W3C//DTD SVG 1.1//EN"
 "http://www.w3.org/Graphics/SVG/1.1/DTD/svg11.dtd">
<!-- Generated by graphviz version 2.43.0 (0)
 -->
<!-- Title: main/ceo/managers/communication/include/CommunicationManager.hpp Pages: 1 -->
<svg width="482pt" height="170pt"
 viewBox="0.00 0.00 481.50 170.00" xmlns="http://www.w3.org/2000/svg" xmlns:xlink="http://www.w3.org/1999/xlink">
<g id="graph0" class="graph" transform="scale(1 1) rotate(0) translate(4 166)">
<title>main/ceo/managers/communication/include/CommunicationManager.hpp</title>
<!-- Node1 -->
<g id="Node000001" class="node">
<title>Node1</title>
<g id="a_Node000001"><a xlink:title="The external interface and vocal apparatus of the organism.">
<polygon fill="#999999" stroke="#666666" points="297.5,-162 99.5,-162 99.5,-132 297.5,-132 297.5,-162"/>
<text text-anchor="start" x="107.5" y="-150" font-family="Helvetica,sans-Serif" font-size="10.00">main/ceo/managers/communication</text>
<text text-anchor="middle" x="198.5" y="-139" font-family="Helvetica,sans-Serif" font-size="10.00">/include/CommunicationManager.hpp</text>
</a>
</g>
</g>
<!-- Node2 -->
<g id="Node000002" class="node">
<title>Node2</title>
<g id="a_Node000002"><a xlink:href="CEO_8cpp.html" target="_top" xlink:title=" ">
<polygon fill="white" stroke="#666666" points="105,-24.5 0,-24.5 0,-5.5 105,-5.5 105,-24.5"/>
<text text-anchor="middle" x="52.5" y="-12.5" font-family="Helvetica,sans-Serif" font-size="10.00">main/ceo/CEO.cpp</text>
</a>
</g>
</g>
<!-- Node1&#45;&gt;Node2 -->
<g id="edge1_Node000001_Node000002" class="edge">
<title>Node1&#45;&gt;Node2</title>
<g id="a_edge1_Node000001_Node000002"><a xlink:title=" ">
<path fill="none" stroke="#63b8ff" d="M96.7,-128.2C80.21,-120.85 65.1,-110.52 54.5,-96 38.85,-74.57 45.44,-40.59 49.79,-24.71"/>
<polygon fill="#63b8ff" stroke="#63b8ff" points="95.4,-131.45 105.98,-131.98 98.04,-124.96 95.4,-131.45"/>
</a>
</g>
</g>
<!-- Node3 -->
<g id="Node000003" class="node">
<title>Node3</title>
<g id="a_Node000003"><a xlink:href="ActuatorManager_8cpp.html" target="_top" xlink:title=" ">
<polygon fill="white" stroke="#666666" points="314,-30 157,-30 157,0 314,0 314,-30"/>
<text text-anchor="start" x="165" y="-18" font-family="Helvetica,sans-Serif" font-size="10.00">main/ceo/managers/actuator</text>
<text text-anchor="middle" x="235.5" y="-7" font-family="Helvetica,sans-Serif" font-size="10.00">/ActuatorManager.cpp</text>
</a>
</g>
</g>
<!-- Node1&#45;&gt;Node3 -->
<g id="edge2_Node000001_Node000003" class="edge">
<title>Node1&#45;&gt;Node3</title>
<g id="a_edge2_Node000001_Node000003"><a xlink:title=" ">
<path fill="none" stroke="#63b8ff" d="M218.97,-123.74C225.18,-115.61 231.22,-105.95 234.5,-96 241.8,-73.84 239.95,-46.31 237.82,-30"/>
<polygon fill="#63b8ff" stroke="#63b8ff" points="216.16,-121.65 212.55,-131.61 221.58,-126.08 216.16,-121.65"/>
</a>
</g>
</g>
<!-- Node4 -->
<g id="Node000004" class="node">
<title>Node4</title>
<g id="a_Node000004"><a xlink:href="ActuatorManager_8hpp.html" target="_top" xlink:title="Interface for all executive organs (limbs) of the organism.">
<polygon fill="white" stroke="#666666" points="225.5,-96 63.5,-96 63.5,-66 225.5,-66 225.5,-96"/>
<text text-anchor="start" x="71.5" y="-84" font-family="Helvetica,sans-Serif" font-size="10.00">main/ceo/managers/actuator</text>
<text text-anchor="middle" x="144.5" y="-73" font-family="Helvetica,sans-Serif" font-size="10.00">/include/ActuatorManager.hpp</text>
</a>
</g>
</g>
<!-- Node1&#45;&gt;Node4 -->
<g id="edge3_Node000001_Node000004" class="edge">
<title>Node1&#45;&gt;Node4</title>
<g id="a_edge3_Node000001_Node000004"><a xlink:title=" ">
<path fill="none" stroke="#63b8ff" d="M180.01,-124.09C172.22,-114.85 163.37,-104.36 156.45,-96.16"/>
<polygon fill="#63b8ff" stroke="#63b8ff" points="177.39,-126.41 186.52,-131.8 182.74,-121.9 177.39,-126.41"/>
</a>
</g>
</g>
<!-- Node5 -->
<g id="Node000005" class="node">
<title>Node5</title>
<g id="a_Node000005"><a xlink:href="CommunicationManager_8cpp.html" target="_top" xlink:title=" ">
<polygon fill="white" stroke="#666666" points="473.5,-96 281.5,-96 281.5,-66 473.5,-66 473.5,-96"/>
<text text-anchor="start" x="289.5" y="-84" font-family="Helvetica,sans-Serif" font-size="10.00">main/ceo/managers/communication</text>
<text text-anchor="middle" x="377.5" y="-73" font-family="Helvetica,sans-Serif" font-size="10.00">/CommunicationManager.cpp</text>
</a>
</g>
</g>
<!-- Node1&#45;&gt;Node5 -->
<g id="edge6_Node000001_Node000005" class="edge">
<title>Node1&#45;&gt;Node5</title>
<g id="a_edge6_Node000001_Node000005"><a xlink:title=" ">
<path fill="none" stroke="#63b8ff" d="M247.57,-128.46C276.12,-118.25 311.63,-105.55 338.31,-96.01"/>
<polygon fill="#63b8ff" stroke="#63b8ff" points="246.02,-125.29 237.78,-131.95 248.38,-131.88 246.02,-125.29"/>
</a>
</g>
</g>
<!-- Node4&#45;&gt;Node2 -->
<g id="edge4_Node000004_Node000002" class="edge">
<title>Node4&#45;&gt;Node2</title>
<g id="a_edge4_Node000004_Node000002"><a xlink:title=" ">
<path fill="none" stroke="#63b8ff" d="M115.57,-59.87C98.54,-48.03 77.87,-33.65 64.95,-24.66"/>
<polygon fill="#63b8ff" stroke="#63b8ff" points="113.87,-62.96 124.08,-65.8 117.87,-57.21 113.87,-62.96"/>
</a>
</g>
</g>
<!-- Node4&#45;&gt;Node3 -->
<g id="edge5_Node000004_Node000003" class="edge">
<title>Node4&#45;&gt;Node3</title>
<g id="a_edge5_Node000004_Node000003"><a xlink:title=" ">
<path fill="none" stroke="#63b8ff" d="M172.9,-60.03C186.67,-50.34 202.88,-38.94 215.36,-30.16"/>
<polygon fill="#63b8ff" stroke="#63b8ff" points="170.86,-57.18 164.7,-65.8 174.89,-62.91 170.86,-57.18"/>
</a>
</g>
</g>
</g>
</svg>
