<?xml version="1.0" encoding="UTF-8" standalone="no"?>
<!DOCTYPE svg PUBLIC "-//W3C//DTD SVG 1.1//EN"
 "http://www.w3.org/Graphics/SVG/1.1/DTD/svg11.dtd">
<!-- Generated by graphviz version 2.43.0 (0)
 -->
<!-- Title: main/ceo/managers/communication/include/CommunicationManager.hpp Pages: 1 -->
<!--zoomable 368 -->

<svg id="main" version="1.1" xmlns="http://www.w3.org/2000/svg" xmlns:xlink="http://www.w3.org/1999/xlink" xml:space="preserve" onload="init(evt)">
<style type="text/css"><![CDATA[
.node, .edge {opacity: 0.7;}
.node.selected, .edge.selected {opacity: 1;}
.edge:hover path { stroke: red; }
.edge:hover polygon { stroke: red; fill: red; }
]]></style>

<defs>
  <circle id="rim" cx="0" cy="0" r="7"/>
  <circle id="rim2" cx="0" cy="0" r="3.5"/>
  <g id="zoomPlus">
    <use xlink:href="#rim" fill="#404040"><set attributeName="fill" to="#808080" begin="zoomplus.mouseover" end="zoomplus.mouseout"/></use>
    <path d="M-4,0h8M0,-4v8" fill="none" stroke="white" stroke-width="1.5" pointer-events="none"/>
  </g>
  <g id="zoomMin">
    <use xlink:href="#rim" fill="#404040"><set attributeName="fill" to="#808080" begin="zoomminus.mouseover" end="zoomminus.mouseout"/></use>
    <path d="M-4,0h8" fill="none" stroke="white" stroke-width="1.5" pointer-events="none"/>
  </g>
  <g id="arrowUp" transform="translate(30 24)">
    <use xlink:href="#rim"/>
    <path pointer-events="none" fill="none" stroke="white" stroke-width="1.5" d="M0,-3.0v7 M-2.5,-0.5L0,-3.0L2.5,-0.5"/>
  </g>
  <g id="arrowRight" transform="rotate(90) translate(36 -43)">
    <use xlink:href="#rim"/>
    <path pointer-events="none" fill="none" stroke="white" stroke-width="1.5" d="M0,-3.0v7 M-2.5,-0.5L0,-3.0L2.5,-0.5"/>
  </g>
  <g id="arrowDown" transform="rotate(180) translate(-30 -48)">
    <use xlink:href="#rim"/>
    <path pointer-events="none" fill="none" stroke="white" stroke-width="1.5" d="M0,-3.0v7 M-2.5,-0.5L0,-3.0L2.5,-0.5"/>
  </g>
  <g id="arrowLeft" transform="rotate(270) translate(-36 17)">
    <use xlink:href="#rim"/>
    <path pointer-events="none" fill="none" stroke="white" stroke-width="1.5" d="M0,-3.0v7 M-2.5,-0.5L0,-3.0L2.5,-0.5"/>
  </g>
  <g id="resetDef">
    <use xlink:href="#rim2" fill="#404040"><set attributeName="fill" to="#808080" begin="reset.mouseover" end="reset.mouseout"/></use>
  </g>
</defs>
<script type="application/ecmascript">
var viewWidth = 1401;
var viewHeight = 368;
var sectionId = 'dynsection-0';
</script>
<script type="application/ecmascript" xlink:href="svg.min.js"/>
<svg id="graph" class="graph">
<g id="viewport">
<title>main/ceo/managers/communication/include/CommunicationManager.hpp</title>
<!-- Node1 -->
<g id="Node000001" class="node">
<title>Node1</title>
<g id="a_Node000001"><a xlink:title="The external interface and vocal apparatus of the organism.">
<polygon fill="#999999" stroke="#666666" points="727,-360 529,-360 529,-330 727,-330 727,-360"/>
<text text-anchor="start" x="537" y="-348" font-family="Helvetica,sans-Serif" font-size="10.00">main/ceo/managers/communication</text>
<text text-anchor="middle" x="628" y="-337" font-family="Helvetica,sans-Serif" font-size="10.00">/include/CommunicationManager.hpp</text>
</a>
</g>
</g>
<!-- Node2 -->
<g id="Node000002" class="node">
<title>Node2</title>
<g id="a_Node000002"><a xlink:title=" ">
<polygon fill="#e0e0e0" stroke="#999999" points="492.5,-19 439.5,-19 439.5,0 492.5,0 492.5,-19"/>
<text text-anchor="middle" x="466" y="-7" font-family="Helvetica,sans-Serif" font-size="10.00">stdint.h</text>
</a>
</g>
</g>
<!-- Node1&#45;&gt;Node2 -->
<g id="edge1_Node000001_Node000002" class="edge">
<title>Node1&#45;&gt;Node2</title>
<g id="a_edge1_Node000001_Node000002"><a xlink:title=" ">
<path fill="none" stroke="#63b8ff" d="M528.96,-344.91C385.75,-344.65 129.19,-337.8 49,-294 17.71,-276.91 0,-266.15 0,-230.5 0,-230.5 0,-230.5 0,-118.5 0,-30.59 318.68,-14.22 428.97,-11.19"/>
<polygon fill="#63b8ff" stroke="#63b8ff" points="429.36,-14.68 439.27,-10.92 429.19,-7.68 429.36,-14.68"/>
</a>
</g>
</g>
<!-- Node3 -->
<g id="Node000003" class="node">
<title>Node3</title>
<g id="a_Node000003"><a xlink:title=" ">
<polygon fill="#e0e0e0" stroke="#999999" points="403,-239 341,-239 341,-220 403,-220 403,-239"/>
<text text-anchor="middle" x="372" y="-227" font-family="Helvetica,sans-Serif" font-size="10.00">stdbool.h</text>
</a>
</g>
</g>
<!-- Node1&#45;&gt;Node3 -->
<g id="edge2_Node000001_Node000003" class="edge">
<title>Node1&#45;&gt;Node3</title>
<g id="a_edge2_Node000001_Node000003"><a xlink:title=" ">
<path fill="none" stroke="#63b8ff" d="M528.72,-342.45C373.59,-338.98 88.16,-328 57,-294 51.3,-287.77 51.46,-281.38 57,-275 91.94,-234.78 253.12,-229.91 330.42,-229.95"/>
<polygon fill="#63b8ff" stroke="#63b8ff" points="330.74,-233.45 340.75,-229.98 330.76,-226.45 330.74,-233.45"/>
</a>
</g>
</g>
<!-- Node4 -->
<g id="Node000004" class="node">
<title>Node4</title>
<g id="a_Node000004"><a xlink:title=" ">
<polygon fill="#e0e0e0" stroke="#999999" points="124,-294 66,-294 66,-275 124,-275 124,-294"/>
<text text-anchor="middle" x="95" y="-282" font-family="Helvetica,sans-Serif" font-size="10.00">memory</text>
</a>
</g>
</g>
<!-- Node1&#45;&gt;Node4 -->
<g id="edge3_Node000001_Node000004" class="edge">
<title>Node1&#45;&gt;Node4</title>
<g id="a_edge3_Node000001_Node000004"><a xlink:title=" ">
<path fill="none" stroke="#63b8ff" d="M528.93,-337.49C431.03,-330.26 276.86,-316.72 134.61,-294.08"/>
<polygon fill="#63b8ff" stroke="#63b8ff" points="134.82,-290.57 124.39,-292.44 133.71,-297.48 134.82,-290.57"/>
</a>
</g>
</g>
<!-- Node5 -->
<g id="Node000005" class="node">
<title>Node5</title>
<g id="a_Node000005"><a xlink:title=" ">
<polygon fill="#e0e0e0" stroke="#999999" points="186,-294 142,-294 142,-275 186,-275 186,-294"/>
<text text-anchor="middle" x="164" y="-282" font-family="Helvetica,sans-Serif" font-size="10.00">string</text>
</a>
</g>
</g>
<!-- Node1&#45;&gt;Node5 -->
<g id="edge4_Node000001_Node000005" class="edge">
<title>Node1&#45;&gt;Node5</title>
<g id="a_edge4_Node000001_Node000005"><a xlink:title=" ">
<path fill="none" stroke="#63b8ff" d="M528.93,-335.7C441.88,-327.63 311.99,-313.7 200,-294 198.72,-293.77 197.42,-293.53 196.1,-293.28"/>
<polygon fill="#63b8ff" stroke="#63b8ff" points="196.51,-289.78 186,-291.12 195.05,-296.63 196.51,-289.78"/>
</a>
</g>
</g>
<!-- Node6 -->
<g id="Node000006" class="node">
<title>Node6</title>
<g id="a_Node000006"><a xlink:title=" ">
<polygon fill="#e0e0e0" stroke="#999999" points="364.5,-74 303.5,-74 303.5,-55 364.5,-55 364.5,-74"/>
<text text-anchor="middle" x="334" y="-62" font-family="Helvetica,sans-Serif" font-size="10.00">esp_err.h</text>
</a>
</g>
</g>
<!-- Node1&#45;&gt;Node6 -->
<g id="edge5_Node000001_Node000006" class="edge">
<title>Node1&#45;&gt;Node6</title>
<g id="a_edge5_Node000001_Node000006"><a xlink:title=" ">
<path fill="none" stroke="#63b8ff" d="M670.79,-329.92C702.88,-317.17 738.09,-297.05 718,-275 659.98,-211.32 390.02,-302.68 332,-239 292.66,-195.81 314.07,-118.49 326.77,-83.53"/>
<polygon fill="#63b8ff" stroke="#63b8ff" points="330.06,-84.72 330.35,-74.13 323.52,-82.23 330.06,-84.72"/>
</a>
</g>
</g>
<!-- Node7 -->
<g id="Node000007" class="node">
<title>Node7</title>
<g id="a_Node000007"><a xlink:title=" ">
<polygon fill="#e0e0e0" stroke="#999999" points="307.5,-294 242.5,-294 242.5,-275 307.5,-275 307.5,-294"/>
<text text-anchor="middle" x="275" y="-282" font-family="Helvetica,sans-Serif" font-size="10.00">esp_wifi.h</text>
</a>
</g>
</g>
<!-- Node1&#45;&gt;Node7 -->
<g id="edge6_Node000001_Node000007" class="edge">
<title>Node1&#45;&gt;Node7</title>
<g id="a_edge6_Node000001_Node000007"><a xlink:title=" ">
<path fill="none" stroke="#63b8ff" d="M534.61,-329.99C475.3,-320.86 396.67,-308.31 317.67,-294.06"/>
<polygon fill="#63b8ff" stroke="#63b8ff" points="318,-290.56 307.53,-292.22 316.75,-297.45 318,-290.56"/>
</a>
</g>
</g>
<!-- Node8 -->
<g id="Node000008" class="node">
<title>Node8</title>
<g id="a_Node000008"><a xlink:title=" ">
<polygon fill="#e0e0e0" stroke="#999999" points="402,-294 326,-294 326,-275 402,-275 402,-294"/>
<text text-anchor="middle" x="364" y="-282" font-family="Helvetica,sans-Serif" font-size="10.00">esp_event.h</text>
</a>
</g>
</g>
<!-- Node1&#45;&gt;Node8 -->
<g id="edge7_Node000001_Node000008" class="edge">
<title>Node1&#45;&gt;Node8</title>
<g id="a_edge7_Node000001_Node000008"><a xlink:title=" ">
<path fill="none" stroke="#63b8ff" d="M564.77,-329.99C517.88,-319.6 454.94,-305.65 412.11,-296.16"/>
<polygon fill="#63b8ff" stroke="#63b8ff" points="412.74,-292.71 402.22,-293.97 411.22,-299.55 412.74,-292.71"/>
</a>
</g>
</g>
<!-- Node9 -->
<g id="Node000009" class="node">
<title>Node9</title>
<g id="a_Node000009"><a xlink:title=" ">
<polygon fill="#e0e0e0" stroke="#999999" points="523.5,-294 420.5,-294 420.5,-275 523.5,-275 523.5,-294"/>
<text text-anchor="middle" x="472" y="-282" font-family="Helvetica,sans-Serif" font-size="10.00">esp_http_server.h</text>
</a>
</g>
</g>
<!-- Node1&#45;&gt;Node9 -->
<g id="edge8_Node000001_Node000009" class="edge">
<title>Node1&#45;&gt;Node9</title>
<g id="a_edge8_Node000001_Node000009"><a xlink:title=" ">
<path fill="none" stroke="#63b8ff" d="M590.63,-329.99C564.37,-320.14 529.59,-307.1 504.48,-297.68"/>
<polygon fill="#63b8ff" stroke="#63b8ff" points="505.63,-294.37 495.04,-294.14 503.17,-300.93 505.63,-294.37"/>
</a>
</g>
</g>
<!-- Node10 -->
<g id="Node000010" class="node">
<title>Node10</title>
<g id="a_Node000010"><a xlink:title=" ">
<polygon fill="#e0e0e0" stroke="#999999" points="622.5,-294 541.5,-294 541.5,-275 622.5,-275 622.5,-294"/>
<text text-anchor="middle" x="582" y="-282" font-family="Helvetica,sans-Serif" font-size="10.00">mqtt_client.h</text>
</a>
</g>
</g>
<!-- Node1&#45;&gt;Node10 -->
<g id="edge9_Node000001_Node000010" class="edge">
<title>Node1&#45;&gt;Node10</title>
<g id="a_edge9_Node000001_Node000010"><a xlink:title=" ">
<path fill="none" stroke="#63b8ff" d="M616.86,-329.84C610.32,-321.52 602.02,-310.96 595.16,-302.23"/>
<polygon fill="#63b8ff" stroke="#63b8ff" points="597.83,-299.96 588.89,-294.27 592.32,-304.29 597.83,-299.96"/>
</a>
</g>
</g>
<!-- Node11 -->
<g id="Node000011" class="node">
<title>Node11</title>
<g id="a_Node000011"><a xlink:title=" ">
<polygon fill="#e0e0e0" stroke="#999999" points="709,-294 641,-294 641,-275 709,-275 709,-294"/>
<text text-anchor="middle" x="675" y="-282" font-family="Helvetica,sans-Serif" font-size="10.00">esp_now.h</text>
</a>
</g>
</g>
<!-- Node1&#45;&gt;Node11 -->
<g id="edge10_Node000001_Node000011" class="edge">
<title>Node1&#45;&gt;Node11</title>
<g id="a_edge10_Node000001_Node000011"><a xlink:title=" ">
<path fill="none" stroke="#63b8ff" d="M639.38,-329.84C646.06,-321.52 654.55,-310.96 661.56,-302.23"/>
<polygon fill="#63b8ff" stroke="#63b8ff" points="664.42,-304.25 667.96,-294.27 658.97,-299.87 664.42,-304.25"/>
</a>
</g>
</g>
<!-- Node12 -->
<g id="Node000012" class="node">
<title>Node12</title>
<g id="a_Node000012"><a xlink:title=" ">
<polygon fill="#e0e0e0" stroke="#999999" points="660.5,-19 547.5,-19 547.5,0 660.5,0 660.5,-19"/>
<text text-anchor="middle" x="604" y="-7" font-family="Helvetica,sans-Serif" font-size="10.00">freertos/FreeRTOS.h</text>
</a>
</g>
</g>
<!-- Node1&#45;&gt;Node12 -->
<g id="edge11_Node000001_Node000012" class="edge">
<title>Node1&#45;&gt;Node12</title>
<g id="a_edge11_Node000001_Node000012"><a xlink:title=" ">
<path fill="none" stroke="#63b8ff" d="M528.84,-338.19C418.27,-330.68 252.31,-315.91 233,-294 219.96,-279.2 150,-178.79 287,-55 305.25,-38.51 449.79,-23.55 537.27,-15.89"/>
<polygon fill="#63b8ff" stroke="#63b8ff" points="537.72,-19.36 547.38,-15.01 537.12,-12.39 537.72,-19.36"/>
</a>
</g>
</g>
<!-- Node13 -->
<g id="Node000013" class="node">
<title>Node13</title>
<g id="a_Node000013"><a xlink:title=" ">
<polygon fill="#e0e0e0" stroke="#999999" points="853,-294 765,-294 765,-275 853,-275 853,-294"/>
<text text-anchor="middle" x="809" y="-282" font-family="Helvetica,sans-Serif" font-size="10.00">freertos/task.h</text>
</a>
</g>
</g>
<!-- Node1&#45;&gt;Node13 -->
<g id="edge12_Node000001_Node000013" class="edge">
<title>Node1&#45;&gt;Node13</title>
<g id="a_edge12_Node000001_Node000013"><a xlink:title=" ">
<path fill="none" stroke="#63b8ff" d="M671.35,-329.99C702.32,-319.98 743.5,-306.67 772.73,-297.22"/>
<polygon fill="#63b8ff" stroke="#63b8ff" points="774.1,-300.46 782.53,-294.05 771.94,-293.8 774.1,-300.46"/>
</a>
</g>
</g>
<!-- Node14 -->
<g id="Node000014" class="node">
<title>Node14</title>
<g id="a_Node000014"><a xlink:title=" ">
<polygon fill="#e0e0e0" stroke="#999999" points="933.5,-19 830.5,-19 830.5,0 933.5,0 933.5,-19"/>
<text text-anchor="middle" x="882" y="-7" font-family="Helvetica,sans-Serif" font-size="10.00">freertos/semphr.h</text>
</a>
</g>
</g>
<!-- Node1&#45;&gt;Node14 -->
<g id="edge13_Node000001_Node000014" class="edge">
<title>Node1&#45;&gt;Node14</title>
<g id="a_edge13_Node000001_Node000014"><a xlink:title=" ">
<path fill="none" stroke="#63b8ff" d="M727.29,-343.93C837.52,-341.77 1019.95,-331.99 1172,-294 1242.63,-276.35 1323,-303.3 1323,-230.5 1323,-230.5 1323,-230.5 1323,-118.5 1323,-13.21 1072.09,-33.87 943.85,-19.13"/>
<polygon fill="#63b8ff" stroke="#63b8ff" points="944.07,-15.63 933.71,-17.85 943.19,-22.57 944.07,-15.63"/>
</a>
</g>
</g>
<!-- Node15 -->
<g id="Node000015" class="node">
<title>Node15</title>
<g id="a_Node000015"><a xlink:title=" ">
<polygon fill="#e0e0e0" stroke="#999999" points="964.5,-294 909.5,-294 909.5,-275 964.5,-275 964.5,-294"/>
<text text-anchor="middle" x="937" y="-282" font-family="Helvetica,sans-Serif" font-size="10.00">cJSON.h</text>
</a>
</g>
</g>
<!-- Node1&#45;&gt;Node15 -->
<g id="edge14_Node000001_Node000015" class="edge">
<title>Node1&#45;&gt;Node15</title>
<g id="a_edge14_Node000001_Node000015"><a xlink:title=" ">
<path fill="none" stroke="#63b8ff" d="M704.59,-329.96C758,-320.1 830.89,-306.49 895,-294 896.46,-293.72 897.95,-293.42 899.45,-293.13"/>
<polygon fill="#63b8ff" stroke="#63b8ff" points="900.33,-296.52 909.45,-291.14 898.96,-289.66 900.33,-296.52"/>
</a>
</g>
</g>
<!-- Node16 -->
<g id="Node000016" class="node">
<title>Node16</title>
<g id="a_Node000016"><a xlink:href="IManager_8hpp.html" target="_top" xlink:title="The abstract behavioral contract for all managers.">
<polygon fill="white" stroke="#666666" points="1392.5,-19 1309.5,-19 1309.5,0 1392.5,0 1392.5,-19"/>
<text text-anchor="middle" x="1351" y="-7" font-family="Helvetica,sans-Serif" font-size="10.00">IManager.hpp</text>
</a>
</g>
</g>
<!-- Node1&#45;&gt;Node16 -->
<g id="edge15_Node000001_Node000016" class="edge">
<title>Node1&#45;&gt;Node16</title>
<g id="a_edge15_Node000001_Node000016"><a xlink:title=" ">
<path fill="none" stroke="#63b8ff" d="M727.3,-341.22C877.34,-336.14 1154.33,-323.08 1249,-294 1303.7,-277.2 1361,-287.72 1361,-230.5 1361,-230.5 1361,-230.5 1361,-118.5 1361,-87.06 1356.75,-50.68 1353.79,-29.19"/>
<polygon fill="#63b8ff" stroke="#63b8ff" points="1357.23,-28.56 1352.35,-19.15 1350.3,-29.55 1357.23,-28.56"/>
</a>
</g>
</g>
<!-- Node17 -->
<g id="Node000017" class="node">
<title>Node17</title>
<g id="a_Node000017"><a xlink:href="DataManager_8hpp.html" target="_top" xlink:title="The collective consciousness and unified system state mirror.">
<polygon fill="white" stroke="#666666" points="1180.5,-74 1077.5,-74 1077.5,-55 1180.5,-55 1180.5,-74"/>
<text text-anchor="middle" x="1129" y="-62" font-family="Helvetica,sans-Serif" font-size="10.00">DataManager.hpp</text>
</a>
</g>
</g>
<!-- Node1&#45;&gt;Node17 -->
<g id="edge16_Node000001_Node000017" class="edge">
<title>Node1&#45;&gt;Node17</title>
<g id="a_edge16_Node000001_Node000017"><a xlink:title=" ">
<path fill="none" stroke="#63b8ff" d="M727.07,-343.06C883,-339.08 1173.59,-320.61 1228,-239 1265.74,-182.4 1187.51,-110.67 1148.88,-80.23"/>
<polygon fill="#63b8ff" stroke="#63b8ff" points="1150.92,-77.38 1140.86,-74.05 1146.65,-82.93 1150.92,-77.38"/>
</a>
</g>
</g>
<!-- Node22 -->
<g id="Node000022" class="node">
<title>Node22</title>
<g id="a_Node000022"><a xlink:href="TimeManager_8hpp.html" target="_top" xlink:title="The biological clock and circadian rhythm (pacemaker) of the organism.">
<polygon fill="white" stroke="#666666" points="1087,-294 983,-294 983,-275 1087,-275 1087,-294"/>
<text text-anchor="middle" x="1035" y="-282" font-family="Helvetica,sans-Serif" font-size="10.00">TimeManager.hpp</text>
</a>
</g>
</g>
<!-- Node1&#45;&gt;Node22 -->
<g id="edge25_Node000001_Node000022" class="edge">
<title>Node1&#45;&gt;Node22</title>
<g id="a_edge25_Node000001_Node000022"><a xlink:title=" ">
<path fill="none" stroke="#63b8ff" d="M725.49,-329.99C802.17,-318.97 906.71,-303.94 972.52,-294.48"/>
<polygon fill="#63b8ff" stroke="#63b8ff" points="973.34,-297.9 982.74,-293.01 972.35,-290.97 973.34,-297.9"/>
</a>
</g>
</g>
<!-- Node27 -->
<g id="Node000027" class="node">
<title>Node27</title>
<g id="a_Node000027"><a xlink:href="BusManager_8hpp.html" target="_top" xlink:title="The peripheral nervous system managing all communication pathways.">
<polygon fill="white" stroke="#666666" points="792,-184 694,-184 694,-165 792,-165 792,-184"/>
<text text-anchor="middle" x="743" y="-172" font-family="Helvetica,sans-Serif" font-size="10.00">BusManager.hpp</text>
</a>
</g>
</g>
<!-- Node1&#45;&gt;Node27 -->
<g id="edge69_Node000001_Node000027" class="edge">
<title>Node1&#45;&gt;Node27</title>
<g id="a_edge69_Node000001_Node000027"><a xlink:title=" ">
<path fill="none" stroke="#63b8ff" d="M727.06,-335.22C782.85,-327.99 844.72,-315.36 862,-294 867.31,-287.43 865.7,-282.59 862,-275 850.63,-251.66 836.02,-255.52 816,-239 796.72,-223.09 775.19,-204.22 760.54,-191.21"/>
<polygon fill="#63b8ff" stroke="#63b8ff" points="762.57,-188.33 752.78,-184.29 757.92,-193.56 762.57,-188.33"/>
</a>
</g>
</g>
<!-- Node17&#45;&gt;Node2 -->
<g id="edge17_Node000017_Node000002" class="edge">
<title>Node17&#45;&gt;Node2</title>
<g id="a_edge17_Node000017_Node000002"><a xlink:title=" ">
<path fill="none" stroke="#63b8ff" d="M1077.37,-58.94C1062.12,-57.63 1045.39,-56.22 1030,-55 811.44,-37.62 756.26,-39.86 538,-19 526.49,-17.9 513.97,-16.49 502.64,-15.14"/>
<polygon fill="#63b8ff" stroke="#63b8ff" points="502.99,-11.66 492.64,-13.93 502.15,-18.61 502.99,-11.66"/>
</a>
</g>
</g>
<!-- Node17&#45;&gt;Node12 -->
<g id="edge20_Node000017_Node000012" class="edge">
<title>Node17&#45;&gt;Node12</title>
<g id="a_edge20_Node000017_Node000012"><a xlink:title=" ">
<path fill="none" stroke="#63b8ff" d="M1077.22,-58.27C981.46,-48.61 776.81,-27.95 670.77,-17.24"/>
<polygon fill="#63b8ff" stroke="#63b8ff" points="670.82,-13.73 660.52,-16.21 670.11,-20.69 670.82,-13.73"/>
</a>
</g>
</g>
<!-- Node17&#45;&gt;Node14 -->
<g id="edge21_Node000017_Node000014" class="edge">
<title>Node17&#45;&gt;Node14</title>
<g id="a_edge21_Node000017_Node000014"><a xlink:title=" ">
<path fill="none" stroke="#63b8ff" d="M1089.32,-54.98C1046.5,-45.8 978.24,-31.15 931.84,-21.19"/>
<polygon fill="#63b8ff" stroke="#63b8ff" points="932.51,-17.76 922,-19.08 931.04,-24.6 932.51,-17.76"/>
</a>
</g>
</g>
<!-- Node17&#45;&gt;Node16 -->
<g id="edge24_Node000017_Node000016" class="edge">
<title>Node17&#45;&gt;Node16</title>
<g id="a_edge24_Node000017_Node000016"><a xlink:title=" ">
<path fill="none" stroke="#63b8ff" d="M1164.67,-54.98C1202.83,-45.87 1263.47,-31.4 1305.15,-21.45"/>
<polygon fill="#63b8ff" stroke="#63b8ff" points="1306.14,-24.81 1315.05,-19.08 1304.51,-18 1306.14,-24.81"/>
</a>
</g>
</g>
<!-- Node18 -->
<g id="Node000018" class="node">
<title>Node18</title>
<g id="a_Node000018"><a xlink:title=" ">
<polygon fill="#e0e0e0" stroke="#999999" points="1085.5,-19 1032.5,-19 1032.5,0 1085.5,0 1085.5,-19"/>
<text text-anchor="middle" x="1059" y="-7" font-family="Helvetica,sans-Serif" font-size="10.00">string.h</text>
</a>
</g>
</g>
<!-- Node17&#45;&gt;Node18 -->
<g id="edge18_Node000017_Node000018" class="edge">
<title>Node17&#45;&gt;Node18</title>
<g id="a_edge18_Node000017_Node000018"><a xlink:title=" ">
<path fill="none" stroke="#63b8ff" d="M1117.75,-54.98C1107.2,-47 1091.2,-34.88 1078.56,-25.31"/>
<polygon fill="#63b8ff" stroke="#63b8ff" points="1080.54,-22.42 1070.45,-19.17 1076.31,-28 1080.54,-22.42"/>
</a>
</g>
</g>
<!-- Node19 -->
<g id="Node000019" class="node">
<title>Node19</title>
<g id="a_Node000019"><a xlink:title=" ">
<polygon fill="#e0e0e0" stroke="#999999" points="1172.5,-19 1103.5,-19 1103.5,0 1172.5,0 1172.5,-19"/>
<text text-anchor="middle" x="1138" y="-7" font-family="Helvetica,sans-Serif" font-size="10.00">type_traits</text>
</a>
</g>
</g>
<!-- Node17&#45;&gt;Node19 -->
<g id="edge19_Node000017_Node000019" class="edge">
<title>Node17&#45;&gt;Node19</title>
<g id="a_edge19_Node000017_Node000019"><a xlink:title=" ">
<path fill="none" stroke="#63b8ff" d="M1130.49,-54.75C1131.67,-47.8 1133.36,-37.85 1134.84,-29.13"/>
<polygon fill="#63b8ff" stroke="#63b8ff" points="1138.32,-29.53 1136.54,-19.09 1131.42,-28.36 1138.32,-29.53"/>
</a>
</g>
</g>
<!-- Node20 -->
<g id="Node000020" class="node">
<title>Node20</title>
<g id="a_Node000020"><a xlink:title=" ">
<polygon fill="#e0e0e0" stroke="#999999" points="1291,-19 1191,-19 1191,0 1291,0 1291,-19"/>
<text text-anchor="middle" x="1241" y="-7" font-family="Helvetica,sans-Serif" font-size="10.00">esp_heap_caps.h</text>
</a>
</g>
</g>
<!-- Node17&#45;&gt;Node20 -->
<g id="edge22_Node000017_Node000020" class="edge">
<title>Node17&#45;&gt;Node20</title>
<g id="a_edge22_Node000017_Node000020"><a xlink:title=" ">
<path fill="none" stroke="#63b8ff" d="M1146.99,-54.98C1164.93,-46.5 1192.72,-33.35 1213.43,-23.54"/>
<polygon fill="#63b8ff" stroke="#63b8ff" points="1215.14,-26.61 1222.68,-19.17 1212.14,-20.28 1215.14,-26.61"/>
</a>
</g>
</g>
<!-- Node21 -->
<g id="Node000021" class="node">
<title>Node21</title>
<g id="a_Node000021"><a xlink:title=" ">
<polygon fill="#e0e0e0" stroke="#999999" points="1014.5,-19 951.5,-19 951.5,0 1014.5,0 1014.5,-19"/>
<text text-anchor="middle" x="983" y="-7" font-family="Helvetica,sans-Serif" font-size="10.00">esp_log.h</text>
</a>
</g>
</g>
<!-- Node17&#45;&gt;Node21 -->
<g id="edge23_Node000017_Node000021" class="edge">
<title>Node17&#45;&gt;Node21</title>
<g id="a_edge23_Node000017_Node000021"><a xlink:title=" ">
<path fill="none" stroke="#63b8ff" d="M1105.54,-54.98C1081.42,-46.23 1043.63,-32.51 1016.4,-22.62"/>
<polygon fill="#63b8ff" stroke="#63b8ff" points="1017.48,-19.29 1006.88,-19.17 1015.09,-25.87 1017.48,-19.29"/>
</a>
</g>
</g>
<!-- Node22&#45;&gt;Node2 -->
<g id="edge27_Node000022_Node000002" class="edge">
<title>Node22&#45;&gt;Node2</title>
<g id="a_edge27_Node000022_Node000002"><a xlink:title=" ">
<path fill="none" stroke="#63b8ff" d="M982.93,-276.18C979.57,-275.76 976.24,-275.36 973,-275 701.92,-244.48 599.08,-325.74 366,-184 308.56,-149.07 245.59,-107.96 287,-55 304.33,-32.84 382.2,-20.13 429.34,-14.35"/>
<polygon fill="#63b8ff" stroke="#63b8ff" points="429.94,-17.8 439.47,-13.15 429.12,-10.85 429.94,-17.8"/>
</a>
</g>
</g>
<!-- Node22&#45;&gt;Node3 -->
<g id="edge28_Node000022_Node000003" class="edge">
<title>Node22&#45;&gt;Node3</title>
<g id="a_edge28_Node000022_Node000003"><a xlink:title=" ">
<path fill="none" stroke="#63b8ff" d="M982.94,-276.1C979.58,-275.71 976.24,-275.33 973,-275 743.44,-251.31 684.93,-258.76 455,-239 441.45,-237.84 426.67,-236.38 413.39,-235.01"/>
<polygon fill="#63b8ff" stroke="#63b8ff" points="413.42,-231.49 403.11,-233.93 412.69,-238.45 413.42,-231.49"/>
</a>
</g>
</g>
<!-- Node22&#45;&gt;Node6 -->
<g id="edge31_Node000022_Node000006" class="edge">
<title>Node22&#45;&gt;Node6</title>
<g id="a_edge31_Node000022_Node000006"><a xlink:title=" ">
<path fill="none" stroke="#63b8ff" d="M988.03,-274.94C861.53,-251.39 516.39,-183.75 415,-129 390.59,-115.82 366,-95.27 350.42,-81.14"/>
<polygon fill="#63b8ff" stroke="#63b8ff" points="352.47,-78.26 342.75,-74.04 347.71,-83.4 352.47,-78.26"/>
</a>
</g>
</g>
<!-- Node22&#45;&gt;Node12 -->
<g id="edge32_Node000022_Node000012" class="edge">
<title>Node22&#45;&gt;Node12</title>
<g id="a_edge32_Node000022_Node000012"><a xlink:title=" ">
<path fill="none" stroke="#63b8ff" d="M982.99,-276.28C897.08,-264.34 733.69,-241.53 721,-239 521.47,-199.23 392.63,-251.95 294,-74 289.91,-66.61 288.47,-61.38 294,-55 301.92,-45.86 448.53,-27.94 537.25,-17.85"/>
<polygon fill="#63b8ff" stroke="#63b8ff" points="537.7,-21.32 547.24,-16.72 536.91,-14.36 537.7,-21.32"/>
</a>
</g>
</g>
<!-- Node22&#45;&gt;Node14 -->
<g id="edge33_Node000022_Node000014" class="edge">
<title>Node22&#45;&gt;Node14</title>
<g id="a_edge33_Node000022_Node000014"><a xlink:title=" ">
<path fill="none" stroke="#63b8ff" d="M1049.09,-274.9C1098.64,-243.65 1258.25,-133.82 1190,-55 1189.5,-54.42 1033.65,-32.12 943.87,-19.31"/>
<polygon fill="#63b8ff" stroke="#63b8ff" points="944.19,-15.82 933.79,-17.88 943.2,-22.75 944.19,-15.82"/>
</a>
</g>
</g>
<!-- Node22&#45;&gt;Node16 -->
<g id="edge34_Node000022_Node000016" class="edge">
<title>Node22&#45;&gt;Node16</title>
<g id="a_edge34_Node000022_Node000016"><a xlink:title=" ">
<path fill="none" stroke="#63b8ff" d="M1087.04,-282.94C1128.96,-279.99 1187.4,-269.98 1228,-239 1300.49,-183.69 1335.24,-73.02 1346.61,-29.09"/>
<polygon fill="#63b8ff" stroke="#63b8ff" points="1350.05,-29.77 1349.06,-19.22 1343.26,-28.08 1350.05,-29.77"/>
</a>
</g>
</g>
<!-- Node22&#45;&gt;Node17 -->
<g id="edge35_Node000022_Node000017" class="edge">
<title>Node22&#45;&gt;Node17</title>
<g id="a_edge35_Node000022_Node000017"><a xlink:title=" ">
<path fill="none" stroke="#63b8ff" d="M1044.6,-274.82C1053.37,-266.43 1066.13,-252.96 1074,-239 1103.29,-187.04 1119.29,-117.39 1125.67,-84.37"/>
<polygon fill="#63b8ff" stroke="#63b8ff" points="1129.15,-84.78 1127.53,-74.31 1122.27,-83.51 1129.15,-84.78"/>
</a>
</g>
</g>
<!-- Node23 -->
<g id="Node000023" class="node">
<title>Node23</title>
<g id="a_Node000023"><a xlink:title=" ">
<polygon fill="#e0e0e0" stroke="#999999" points="1045,-184 997,-184 997,-165 1045,-165 1045,-184"/>
<text text-anchor="middle" x="1021" y="-172" font-family="Helvetica,sans-Serif" font-size="10.00">time.h</text>
</a>
</g>
</g>
<!-- Node22&#45;&gt;Node23 -->
<g id="edge26_Node000022_Node000023" class="edge">
<title>Node22&#45;&gt;Node23</title>
<g id="a_edge26_Node000022_Node000023"><a xlink:title=" ">
<path fill="none" stroke="#63b8ff" d="M1033.85,-274.66C1031.59,-257.17 1026.48,-217.8 1023.43,-194.27"/>
<polygon fill="#63b8ff" stroke="#63b8ff" points="1026.88,-193.63 1022.12,-184.16 1019.94,-194.53 1026.88,-193.63"/>
</a>
</g>
</g>
<!-- Node24 -->
<g id="Node000024" class="node">
<title>Node24</title>
<g id="a_Node000024"><a xlink:title=" ">
<polygon fill="#e0e0e0" stroke="#999999" points="1219,-239 1177,-239 1177,-220 1219,-220 1219,-239"/>
<text text-anchor="middle" x="1198" y="-227" font-family="Helvetica,sans-Serif" font-size="10.00">array</text>
</a>
</g>
</g>
<!-- Node22&#45;&gt;Node24 -->
<g id="edge29_Node000022_Node000024" class="edge">
<title>Node22&#45;&gt;Node24</title>
<g id="a_edge29_Node000022_Node000024"><a xlink:title=" ">
<path fill="none" stroke="#63b8ff" d="M1061.19,-274.98C1089.97,-265.63 1136.18,-250.6 1166.82,-240.64"/>
<polygon fill="#63b8ff" stroke="#63b8ff" points="1168.13,-243.89 1176.56,-237.47 1165.97,-237.24 1168.13,-243.89"/>
</a>
</g>
</g>
<!-- Node25 -->
<g id="Node000025" class="node">
<title>Node25</title>
<g id="a_Node000025"><a xlink:title=" ">
<polygon fill="#e0e0e0" stroke="#999999" points="890.5,-239 825.5,-239 825.5,-220 890.5,-220 890.5,-239"/>
<text text-anchor="middle" x="858" y="-227" font-family="Helvetica,sans-Serif" font-size="10.00">functional</text>
</a>
</g>
</g>
<!-- Node22&#45;&gt;Node25 -->
<g id="edge30_Node000022_Node000025" class="edge">
<title>Node22&#45;&gt;Node25</title>
<g id="a_edge30_Node000022_Node000025"><a xlink:title=" ">
<path fill="none" stroke="#63b8ff" d="M1006.56,-274.98C976.72,-266.05 929.62,-251.94 896.47,-242.02"/>
<polygon fill="#63b8ff" stroke="#63b8ff" points="897.24,-238.6 886.66,-239.08 895.24,-245.3 897.24,-238.6"/>
</a>
</g>
</g>
<!-- Node26 -->
<g id="Node000026" class="node">
<title>Node26</title>
<g id="a_Node000026"><a xlink:href="ITimeSource_8hpp.html" target="_top" xlink:title="The abstract behavioral contract for all temporal reference organs.">
<polygon fill="white" stroke="#666666" points="1007,-239 909,-239 909,-220 1007,-220 1007,-239"/>
<text text-anchor="middle" x="958" y="-227" font-family="Helvetica,sans-Serif" font-size="10.00">ITimeSource.hpp</text>
</a>
</g>
</g>
<!-- Node22&#45;&gt;Node26 -->
<g id="edge36_Node000022_Node000026" class="edge">
<title>Node22&#45;&gt;Node26</title>
<g id="a_edge36_Node000022_Node000026"><a xlink:title=" ">
<path fill="none" stroke="#63b8ff" d="M1022.63,-274.98C1010.91,-266.92 993.08,-254.65 979.11,-245.03"/>
<polygon fill="#63b8ff" stroke="#63b8ff" points="980.82,-241.96 970.6,-239.17 976.85,-247.72 980.82,-241.96"/>
</a>
</g>
</g>
<!-- Node31 -->
<g id="Node000031" class="node">
<title>Node31</title>
<g id="a_Node000031"><a xlink:href="I2CBus_8hpp.html" target="_top" xlink:title="Industrial I2C Master bus driver with health monitoring.">
<polygon fill="white" stroke="#666666" points="931.5,-129 860.5,-129 860.5,-110 931.5,-110 931.5,-129"/>
<text text-anchor="middle" x="896" y="-117" font-family="Helvetica,sans-Serif" font-size="10.00">I2CBus.hpp</text>
</a>
</g>
</g>
<!-- Node22&#45;&gt;Node31 -->
<g id="edge68_Node000022_Node000031" class="edge">
<title>Node22&#45;&gt;Node31</title>
<g id="a_edge68_Node000022_Node000031"><a xlink:title=" ">
<path fill="none" stroke="#63b8ff" d="M1040.39,-274.7C1052.63,-253.47 1079.53,-198.72 1054,-165 1040.41,-147.06 983.43,-134.31 941.78,-127.18"/>
<polygon fill="#63b8ff" stroke="#63b8ff" points="942.26,-123.72 931.82,-125.54 941.12,-130.62 942.26,-123.72"/>
</a>
</g>
</g>
<!-- Node26&#45;&gt;Node6 -->
<g id="edge38_Node000026_Node000006" class="edge">
<title>Node26&#45;&gt;Node6</title>
<g id="a_edge38_Node000026_Node000006"><a xlink:title=" ">
<path fill="none" stroke="#63b8ff" d="M908.8,-220.91C842.2,-210.56 726.85,-192.36 685,-184 581.08,-163.24 552.12,-166.48 453,-129 443.33,-125.34 390.39,-96.52 358.47,-78.99"/>
<polygon fill="#63b8ff" stroke="#63b8ff" points="360.14,-75.92 349.69,-74.16 356.77,-82.05 360.14,-75.92"/>
</a>
</g>
</g>
<!-- Node26&#45;&gt;Node17 -->
<g id="edge39_Node000026_Node000017" class="edge">
<title>Node26&#45;&gt;Node17</title>
<g id="a_edge39_Node000026_Node000017"><a xlink:title=" ">
<path fill="none" stroke="#63b8ff" d="M960.49,-219.91C964.58,-206.92 973.72,-181.99 988,-165 1020.49,-126.34 1071.32,-95.45 1102.26,-78.86"/>
<polygon fill="#63b8ff" stroke="#63b8ff" points="1103.95,-81.93 1111.18,-74.18 1100.7,-75.73 1103.95,-81.93"/>
</a>
</g>
</g>
<!-- Node26&#45;&gt;Node23 -->
<g id="edge37_Node000026_Node000023" class="edge">
<title>Node26&#45;&gt;Node23</title>
<g id="a_edge37_Node000026_Node000023"><a xlink:title=" ">
<path fill="none" stroke="#63b8ff" d="M968.12,-219.98C977.44,-212.15 991.47,-200.34 1002.74,-190.86"/>
<polygon fill="#63b8ff" stroke="#63b8ff" points="1005.29,-193.29 1010.69,-184.17 1000.79,-187.93 1005.29,-193.29"/>
</a>
</g>
</g>
<!-- Node26&#45;&gt;Node27 -->
<g id="edge40_Node000026_Node000027" class="edge">
<title>Node26&#45;&gt;Node27</title>
<g id="a_edge40_Node000026_Node000027"><a xlink:title=" ">
<path fill="none" stroke="#63b8ff" d="M923.46,-219.98C886.58,-210.89 828.01,-196.46 787.66,-186.51"/>
<polygon fill="#63b8ff" stroke="#63b8ff" points="788.36,-183.08 777.81,-184.08 786.69,-189.87 788.36,-183.08"/>
</a>
</g>
</g>
<!-- Node27&#45;&gt;Node6 -->
<g id="edge41_Node000027_Node000006" class="edge">
<title>Node27&#45;&gt;Node6</title>
<g id="a_edge41_Node000027_Node000006"><a xlink:title=" ">
<path fill="none" stroke="#63b8ff" d="M693.91,-168.15C643.48,-161.85 563.08,-149.54 496,-129 476.02,-122.88 472.35,-117.88 453,-110 424.58,-98.42 391.91,-86.28 367.99,-77.62"/>
<polygon fill="#63b8ff" stroke="#63b8ff" points="368.91,-74.23 358.32,-74.12 366.54,-80.81 368.91,-74.23"/>
</a>
</g>
</g>
<!-- Node27&#45;&gt;Node16 -->
<g id="edge45_Node000027_Node000016" class="edge">
<title>Node27&#45;&gt;Node16</title>
<g id="a_edge45_Node000027_Node000016"><a xlink:title=" ">
<path fill="none" stroke="#63b8ff" d="M792.09,-165.71C875.25,-151.82 1048.58,-119.87 1190,-74 1237.14,-58.71 1290.37,-36.76 1322.27,-23.08"/>
<polygon fill="#63b8ff" stroke="#63b8ff" points="1323.66,-26.3 1331.46,-19.12 1320.89,-19.87 1323.66,-26.3"/>
</a>
</g>
</g>
<!-- Node27&#45;&gt;Node17 -->
<g id="edge46_Node000027_Node000017" class="edge">
<title>Node27&#45;&gt;Node17</title>
<g id="a_edge46_Node000027_Node000017"><a xlink:title=" ">
<path fill="none" stroke="#63b8ff" d="M792.26,-165C832.52,-157.43 890.66,-145.07 940,-129 960.25,-122.4 964.01,-117.36 984,-110 1018.48,-97.31 1058.46,-85.23 1087.69,-76.87"/>
<polygon fill="#63b8ff" stroke="#63b8ff" points="1088.89,-80.17 1097.56,-74.07 1086.98,-73.43 1088.89,-80.17"/>
</a>
</g>
</g>
<!-- Node28 -->
<g id="Node000028" class="node">
<title>Node28</title>
<g id="a_Node000028"><a xlink:title=" ">
<polygon fill="#e0e0e0" stroke="#999999" points="842.5,-129 771.5,-129 771.5,-110 842.5,-110 842.5,-129"/>
<text text-anchor="middle" x="807" y="-117" font-family="Helvetica,sans-Serif" font-size="10.00">driver/i2c.h</text>
</a>
</g>
</g>
<!-- Node27&#45;&gt;Node28 -->
<g id="edge42_Node000027_Node000028" class="edge">
<title>Node27&#45;&gt;Node28</title>
<g id="a_edge42_Node000027_Node000028"><a xlink:title=" ">
<path fill="none" stroke="#63b8ff" d="M753.28,-164.98C762.84,-157.07 777.28,-145.11 788.78,-135.58"/>
<polygon fill="#63b8ff" stroke="#63b8ff" points="791.06,-138.24 796.53,-129.17 786.6,-132.85 791.06,-138.24"/>
</a>
</g>
</g>
<!-- Node29 -->
<g id="Node000029" class="node">
<title>Node29</title>
<g id="a_Node000029"><a xlink:title=" ">
<polygon fill="#e0e0e0" stroke="#999999" points="817,-74 707,-74 707,-55 817,-55 817,-74"/>
<text text-anchor="middle" x="762" y="-62" font-family="Helvetica,sans-Serif" font-size="10.00">driver/spi_master.h</text>
</a>
</g>
</g>
<!-- Node27&#45;&gt;Node29 -->
<g id="edge43_Node000027_Node000029" class="edge">
<title>Node27&#45;&gt;Node29</title>
<g id="a_edge43_Node000027_Node000029"><a xlink:title=" ">
<path fill="none" stroke="#63b8ff" d="M744.55,-164.66C747.63,-147.17 754.56,-107.8 758.7,-84.27"/>
<polygon fill="#63b8ff" stroke="#63b8ff" points="762.19,-84.61 760.48,-74.16 755.3,-83.4 762.19,-84.61"/>
</a>
</g>
</g>
<!-- Node30 -->
<g id="Node000030" class="node">
<title>Node30</title>
<g id="a_Node000030"><a xlink:title=" ">
<polygon fill="#e0e0e0" stroke="#999999" points="574.5,-74 497.5,-74 497.5,-55 574.5,-55 574.5,-74"/>
<text text-anchor="middle" x="536" y="-62" font-family="Helvetica,sans-Serif" font-size="10.00">driver/uart.h</text>
</a>
</g>
</g>
<!-- Node27&#45;&gt;Node30 -->
<g id="edge44_Node000027_Node000030" class="edge">
<title>Node27&#45;&gt;Node30</title>
<g id="a_edge44_Node000027_Node000030"><a xlink:title=" ">
<path fill="none" stroke="#63b8ff" d="M718.17,-164.88C695.68,-156.71 661.9,-143.57 634,-129 605.77,-114.26 575.27,-93.69 555.93,-80"/>
<polygon fill="#63b8ff" stroke="#63b8ff" points="557.8,-77.04 547.63,-74.07 553.73,-82.73 557.8,-77.04"/>
</a>
</g>
</g>
<!-- Node27&#45;&gt;Node31 -->
<g id="edge47_Node000027_Node000031" class="edge">
<title>Node27&#45;&gt;Node31</title>
<g id="a_edge47_Node000027_Node000031"><a xlink:title=" ">
<path fill="none" stroke="#63b8ff" d="M767.58,-164.98C793.05,-156.16 833.04,-142.31 861.63,-132.41"/>
<polygon fill="#63b8ff" stroke="#63b8ff" points="862.92,-135.66 871.23,-129.08 860.63,-129.05 862.92,-135.66"/>
</a>
</g>
</g>
<!-- Node33 -->
<g id="Node000033" class="node">
<title>Node33</title>
<g id="a_Node000033"><a xlink:href="SPIBus_8hpp.html" target="_top" xlink:title="Industrial SPI Master bus driver with health monitoring.">
<polygon fill="white" stroke="#666666" points="714.5,-129 643.5,-129 643.5,-110 714.5,-110 714.5,-129"/>
<text text-anchor="middle" x="679" y="-117" font-family="Helvetica,sans-Serif" font-size="10.00">SPIBus.hpp</text>
</a>
</g>
</g>
<!-- Node27&#45;&gt;Node33 -->
<g id="edge54_Node000027_Node000033" class="edge">
<title>Node27&#45;&gt;Node33</title>
<g id="a_edge54_Node000027_Node000033"><a xlink:title=" ">
<path fill="none" stroke="#63b8ff" d="M732.72,-164.98C723.16,-157.07 708.72,-145.11 697.22,-135.58"/>
<polygon fill="#63b8ff" stroke="#63b8ff" points="699.4,-132.85 689.47,-129.17 694.94,-138.24 699.4,-132.85"/>
</a>
</g>
</g>
<!-- Node34 -->
<g id="Node000034" class="node">
<title>Node34</title>
<g id="a_Node000034"><a xlink:href="UARTBus_8hpp.html" target="_top" xlink:title="Industrial UART bus driver with health monitoring.">
<polygon fill="white" stroke="#666666" points="587,-129 505,-129 505,-110 587,-110 587,-129"/>
<text text-anchor="middle" x="546" y="-117" font-family="Helvetica,sans-Serif" font-size="10.00">UARTBus.hpp</text>
</a>
</g>
</g>
<!-- Node27&#45;&gt;Node34 -->
<g id="edge61_Node000027_Node000034" class="edge">
<title>Node27&#45;&gt;Node34</title>
<g id="a_edge61_Node000027_Node000034"><a xlink:title=" ">
<path fill="none" stroke="#63b8ff" d="M711.35,-164.98C677.84,-155.97 624.8,-141.7 587.86,-131.76"/>
<polygon fill="#63b8ff" stroke="#63b8ff" points="588.47,-128.3 577.9,-129.08 586.65,-135.06 588.47,-128.3"/>
</a>
</g>
</g>
<!-- Node31&#45;&gt;Node2 -->
<g id="edge48_Node000031_Node000002" class="edge">
<title>Node31&#45;&gt;Node2</title>
<g id="a_edge48_Node000031_Node000002"><a xlink:title=" ">
<path fill="none" stroke="#63b8ff" d="M889.38,-109.71C878.12,-95.48 853.74,-67.72 826,-55 822.33,-53.32 593.94,-25.82 502.88,-14.91"/>
<polygon fill="#63b8ff" stroke="#63b8ff" points="503.08,-11.41 492.74,-13.7 502.25,-18.36 503.08,-11.41"/>
</a>
</g>
</g>
<!-- Node31&#45;&gt;Node6 -->
<g id="edge52_Node000031_Node000006" class="edge">
<title>Node31&#45;&gt;Node6</title>
<g id="a_edge52_Node000031_Node000006"><a xlink:title=" ">
<path fill="none" stroke="#63b8ff" d="M860.19,-111.4C857.09,-110.89 853.99,-110.41 851,-110 674.53,-85.8 462.27,-72.44 374.76,-67.61"/>
<polygon fill="#63b8ff" stroke="#63b8ff" points="374.89,-64.11 364.71,-67.06 374.51,-71.1 374.89,-64.11"/>
</a>
</g>
</g>
<!-- Node31&#45;&gt;Node12 -->
<g id="edge50_Node000031_Node000012" class="edge">
<title>Node31&#45;&gt;Node12</title>
<g id="a_edge50_Node000031_Node000012"><a xlink:title=" ">
<path fill="none" stroke="#63b8ff" d="M893.58,-109.89C889.18,-95.93 878.48,-68.56 859,-55 829.28,-34.32 735.95,-22.04 670.86,-15.78"/>
<polygon fill="#63b8ff" stroke="#63b8ff" points="670.95,-12.28 660.67,-14.83 670.3,-19.25 670.95,-12.28"/>
</a>
</g>
</g>
<!-- Node31&#45;&gt;Node14 -->
<g id="edge51_Node000031_Node000014" class="edge">
<title>Node31&#45;&gt;Node14</title>
<g id="a_edge51_Node000031_Node000014"><a xlink:title=" ">
<path fill="none" stroke="#63b8ff" d="M931.58,-111.56C967.18,-103.81 1018.31,-90.2 1030,-74 1034.94,-67.15 1035.04,-61.78 1030,-55 1019.17,-40.44 978.46,-28.84 942.47,-21.14"/>
<polygon fill="#63b8ff" stroke="#63b8ff" points="942.97,-17.67 932.47,-19.07 941.56,-24.52 942.97,-17.67"/>
</a>
</g>
</g>
<!-- Node31&#45;&gt;Node17 -->
<g id="edge53_Node000031_Node000017" class="edge">
<title>Node31&#45;&gt;Node17</title>
<g id="a_edge53_Node000031_Node000017"><a xlink:title=" ">
<path fill="none" stroke="#63b8ff" d="M931.64,-110.39C971.73,-101.27 1037.04,-86.42 1081.45,-76.32"/>
<polygon fill="#63b8ff" stroke="#63b8ff" points="1082.46,-79.68 1091.43,-74.05 1080.9,-72.85 1082.46,-79.68"/>
</a>
</g>
</g>
<!-- Node32 -->
<g id="Node000032" class="node">
<title>Node32</title>
<g id="a_Node000032"><a xlink:title=" ">
<polygon fill="#e0e0e0" stroke="#999999" points="1021,-74 911,-74 911,-55 1021,-55 1021,-74"/>
<text text-anchor="middle" x="966" y="-62" font-family="Helvetica,sans-Serif" font-size="10.00">driver/i2c_master.h</text>
</a>
</g>
</g>
<!-- Node31&#45;&gt;Node32 -->
<g id="edge49_Node000031_Node000032" class="edge">
<title>Node31&#45;&gt;Node32</title>
<g id="a_edge49_Node000031_Node000032"><a xlink:title=" ">
<path fill="none" stroke="#63b8ff" d="M907.25,-109.98C917.8,-102 933.8,-89.88 946.44,-80.31"/>
<polygon fill="#63b8ff" stroke="#63b8ff" points="948.69,-83 954.55,-74.17 944.46,-77.42 948.69,-83"/>
</a>
</g>
</g>
<!-- Node33&#45;&gt;Node2 -->
<g id="edge55_Node000033_Node000002" class="edge">
<title>Node33&#45;&gt;Node2</title>
<g id="a_edge55_Node000033_Node000002"><a xlink:title=" ">
<path fill="none" stroke="#63b8ff" d="M667.68,-109.81C650.23,-96.69 615.36,-71.6 583,-55 556.94,-41.64 525.9,-30.01 502.34,-22"/>
<polygon fill="#63b8ff" stroke="#63b8ff" points="503.33,-18.64 492.74,-18.79 501.11,-25.28 503.33,-18.64"/>
</a>
</g>
</g>
<!-- Node33&#45;&gt;Node6 -->
<g id="edge59_Node000033_Node000006" class="edge">
<title>Node33&#45;&gt;Node6</title>
<g id="a_edge59_Node000033_Node000006"><a xlink:title=" ">
<path fill="none" stroke="#63b8ff" d="M643.38,-113.03C578.86,-103.12 443.04,-82.25 374.86,-71.78"/>
<polygon fill="#63b8ff" stroke="#63b8ff" points="375.33,-68.31 364.92,-70.25 374.27,-75.23 375.33,-68.31"/>
</a>
</g>
</g>
<!-- Node33&#45;&gt;Node12 -->
<g id="edge57_Node000033_Node000012" class="edge">
<title>Node33&#45;&gt;Node12</title>
<g id="a_edge57_Node000033_Node000012"><a xlink:title=" ">
<path fill="none" stroke="#63b8ff" d="M672.86,-109.66C660.38,-91.69 631.88,-50.64 615.72,-27.38"/>
<polygon fill="#63b8ff" stroke="#63b8ff" points="618.59,-25.38 610.01,-19.16 612.84,-29.37 618.59,-25.38"/>
</a>
</g>
</g>
<!-- Node33&#45;&gt;Node14 -->
<g id="edge58_Node000033_Node000014" class="edge">
<title>Node33&#45;&gt;Node14</title>
<g id="a_edge58_Node000033_Node000014"><a xlink:title=" ">
<path fill="none" stroke="#63b8ff" d="M679.02,-109.71C679.54,-96 682.63,-69.57 698,-55 715.61,-38.31 774.12,-26.07 820.5,-18.69"/>
<polygon fill="#63b8ff" stroke="#63b8ff" points="821.14,-22.14 830.49,-17.15 820.07,-15.22 821.14,-22.14"/>
</a>
</g>
</g>
<!-- Node33&#45;&gt;Node17 -->
<g id="edge60_Node000033_Node000017" class="edge">
<title>Node33&#45;&gt;Node17</title>
<g id="a_edge60_Node000033_Node000017"><a xlink:title=" ">
<path fill="none" stroke="#63b8ff" d="M714.69,-114.3C791.21,-105.28 971.84,-84.01 1067.34,-72.76"/>
<polygon fill="#63b8ff" stroke="#63b8ff" points="1067.91,-76.22 1077.43,-71.57 1067.09,-69.27 1067.91,-76.22"/>
</a>
</g>
</g>
<!-- Node33&#45;&gt;Node29 -->
<g id="edge56_Node000033_Node000029" class="edge">
<title>Node33&#45;&gt;Node29</title>
<g id="a_edge56_Node000033_Node000029"><a xlink:title=" ">
<path fill="none" stroke="#63b8ff" d="M692.34,-109.98C705.09,-101.84 724.55,-89.41 739.67,-79.76"/>
<polygon fill="#63b8ff" stroke="#63b8ff" points="741.88,-82.5 748.42,-74.17 738.11,-76.6 741.88,-82.5"/>
</a>
</g>
</g>
<!-- Node34&#45;&gt;Node2 -->
<g id="edge62_Node000034_Node000002" class="edge">
<title>Node34&#45;&gt;Node2</title>
<g id="a_edge62_Node000034_Node000002"><a xlink:title=" ">
<path fill="none" stroke="#63b8ff" d="M504.81,-111C483.7,-104.85 459.79,-93.78 447,-74 437.86,-59.87 445.36,-41.16 453.48,-27.71"/>
<polygon fill="#63b8ff" stroke="#63b8ff" points="456.4,-29.64 459,-19.37 450.56,-25.78 456.4,-29.64"/>
</a>
</g>
</g>
<!-- Node34&#45;&gt;Node6 -->
<g id="edge66_Node000034_Node000006" class="edge">
<title>Node34&#45;&gt;Node6</title>
<g id="a_edge66_Node000034_Node000006"><a xlink:title=" ">
<path fill="none" stroke="#63b8ff" d="M511.94,-109.98C474.47,-100.62 414.29,-85.57 374.45,-75.61"/>
<polygon fill="#63b8ff" stroke="#63b8ff" points="375.09,-72.16 364.54,-73.13 373.39,-78.96 375.09,-72.16"/>
</a>
</g>
</g>
<!-- Node34&#45;&gt;Node12 -->
<g id="edge64_Node000034_Node000012" class="edge">
<title>Node34&#45;&gt;Node12</title>
<g id="a_edge64_Node000034_Node000012"><a xlink:title=" ">
<path fill="none" stroke="#63b8ff" d="M513.08,-109.98C479.83,-99.73 435.89,-80.65 455,-55 473.98,-29.52 507,-18.06 537.14,-13.12"/>
<polygon fill="#63b8ff" stroke="#63b8ff" points="537.82,-16.56 547.23,-11.68 536.84,-9.63 537.82,-16.56"/>
</a>
</g>
</g>
<!-- Node34&#45;&gt;Node14 -->
<g id="edge65_Node000034_Node000014" class="edge">
<title>Node34&#45;&gt;Node14</title>
<g id="a_edge65_Node000034_Node000014"><a xlink:title=" ">
<path fill="none" stroke="#63b8ff" d="M528.2,-109.93C505.25,-97.78 470.29,-74.82 488,-55 509.69,-30.72 714.53,-18.02 819.95,-13.05"/>
<polygon fill="#63b8ff" stroke="#63b8ff" points="820.31,-16.54 830.14,-12.58 819.99,-9.54 820.31,-16.54"/>
</a>
</g>
</g>
<!-- Node34&#45;&gt;Node17 -->
<g id="edge67_Node000034_Node000017" class="edge">
<title>Node34&#45;&gt;Node17</title>
<g id="a_edge67_Node000034_Node000017"><a xlink:title=" ">
<path fill="none" stroke="#63b8ff" d="M587.18,-114.47C601.95,-113.03 618.72,-111.43 634,-110 789.88,-95.46 973.47,-79.18 1067.17,-70.93"/>
<polygon fill="#63b8ff" stroke="#63b8ff" points="1067.67,-74.4 1077.32,-70.03 1067.06,-67.42 1067.67,-74.4"/>
</a>
</g>
</g>
<!-- Node34&#45;&gt;Node30 -->
<g id="edge63_Node000034_Node000030" class="edge">
<title>Node34&#45;&gt;Node30</title>
<g id="a_edge63_Node000034_Node000030"><a xlink:title=" ">
<path fill="none" stroke="#63b8ff" d="M544.35,-109.75C543.04,-102.8 541.16,-92.85 539.52,-84.13"/>
<polygon fill="#63b8ff" stroke="#63b8ff" points="542.91,-83.27 537.62,-74.09 536.04,-84.56 542.91,-83.27"/>
</a>
</g>
</g>
</g>
</svg>

<g id="navigator" transform="translate(0 0)" fill="#404254">
  <rect fill="#f2f5e9" fill-opacity="0.5" stroke="#606060" stroke-width=".5" x="0" y="0" width="60" height="60"/>
  <use id="zoomplus" xlink:href="#zoomPlus" x="17" y="9" onmousedown="handleZoom(evt,'in')"/>
  <use id="zoomminus" xlink:href="#zoomMin" x="42" y="9" onmousedown="handleZoom(evt,'out')"/>
  <use id="reset" xlink:href="#resetDef" x="30" y="36" onmousedown="handleReset()"/>
   <use id="arrowup" xlink:href="#arrowUp" x="0" y="0" onmousedown="handlePan(0,-1)"/>
  <use id="arrowright" xlink:href="#arrowRight" x="0" y="0" onmousedown="handlePan(1,0)"/>
  <use id="arrowdown" xlink:href="#arrowDown" x="0" y="0" onmousedown="handlePan(0,1)"/>
  <use id="arrowleft" xlink:href="#arrowLeft" x="0" y="0" onmousedown="handlePan(-1,0)"/>
</g>
<svg viewBox="0 0 15 15" width="100%" height="30px" preserveAspectRatio="xMaxYMin meet">
 <g id="arrow_out" transform="scale(0.3 0.3)">
  <a xlink:href="CommunicationManager_8hpp__incl_org.svg" target="_base">
   <rect id="button" ry="5" rx="5" y="6" x="6" height="38" width="38"
        fill="#f2f5e9" fill-opacity="0.5" stroke="#606060" stroke-width="1.0"/>
   <path id="arrow"
     d="M 11.500037,31.436501 C 11.940474,20.09759 22.043105,11.32322 32.158766,21.979434 L 37.068811,17.246167 C 37.068811,17.246167 37.088388,32 37.088388,32 L 22.160133,31.978069 C 22.160133,31.978069 26.997745,27.140456 26.997745,27.140456 C 18.528582,18.264221 13.291696,25.230495 11.500037,31.436501 z"
     style="fill:#404040;"/>
  </a>
 </g>
</svg>

<style type='text/css'>
<![CDATA[
[data-mouse-over-selected='false'] { opacity: 0.7; }
[data-mouse-over-selected='true']  { opacity: 1.0; }
]]>
</style>
<script type="application/ecmascript"><![CDATA[
document.addEventListener('DOMContentLoaded', (event) => {
  highlightEdges();
  highlightAdjacentNodes();
});
]]></script>
</svg>
