<?xml version="1.0" encoding="UTF-8" standalone="no"?>
<!DOCTYPE svg PUBLIC "-//W3C//DTD SVG 1.1//EN"
 "http://www.w3.org/Graphics/SVG/1.1/DTD/svg11.dtd">
<!-- Generated by graphviz version 2.43.0 (0)
 -->
<!-- Title: main/ceo/managers/data/include/DataManager.hpp Pages: 1 -->
<svg width="2057pt" height="500pt"
 viewBox="0.00 0.00 2057.00 500.00" xmlns="http://www.w3.org/2000/svg" xmlns:xlink="http://www.w3.org/1999/xlink">
<g id="graph0" class="graph" transform="scale(1 1) rotate(0) translate(4 496)">
<title>main/ceo/managers/data/include/DataManager.hpp</title>
<!-- Node1 -->
<g id="Node000001" class="node">
<title>Node1</title>
<g id="a_Node000001"><a xlink:title="The collective consciousness and unified system state mirror.">
<polygon fill="#999999" stroke="#666666" points="1132,-492 988,-492 988,-462 1132,-462 1132,-492"/>
<text text-anchor="start" x="996" y="-480" font-family="Helvetica,sans-Serif" font-size="10.00">main/ceo/managers/data</text>
<text text-anchor="middle" x="1060" y="-469" font-family="Helvetica,sans-Serif" font-size="10.00">/include/DataManager.hpp</text>
</a>
</g>
</g>
<!-- Node2 -->
<g id="Node000002" class="node">
<title>Node2</title>
<g id="a_Node000002"><a xlink:href="IActuator_8hpp.html" target="_top" xlink:title="The abstract behavioral contract for all executive organs (limbs).">
<polygon fill="white" stroke="#666666" points="153.5,-228 28.5,-228 28.5,-198 153.5,-198 153.5,-228"/>
<text text-anchor="start" x="36.5" y="-216" font-family="Helvetica,sans-Serif" font-size="10.00">components/contracts</text>
<text text-anchor="middle" x="91" y="-205" font-family="Helvetica,sans-Serif" font-size="10.00">/include/IActuator.hpp</text>
</a>
</g>
</g>
<!-- Node1&#45;&gt;Node2 -->
<g id="edge1_Node000001_Node000002" class="edge">
<title>Node1&#45;&gt;Node2</title>
<g id="a_edge1_Node000001_Node000002"><a xlink:title=" ">
<path fill="none" stroke="#63b8ff" d="M977.49,-476.48C768.82,-476.98 232,-473.57 168,-426 102.47,-377.29 92.61,-267.3 91.2,-228.16"/>
<polygon fill="#63b8ff" stroke="#63b8ff" points="977.79,-479.98 987.78,-476.45 977.77,-472.98 977.79,-479.98"/>
</a>
</g>
</g>
<!-- Node3 -->
<g id="Node000003" class="node">
<title>Node3</title>
<g id="a_Node000003"><a xlink:href="ActuatorManager_8cpp.html" target="_top" xlink:title=" ">
<polygon fill="white" stroke="#666666" points="505.5,-30 348.5,-30 348.5,0 505.5,0 505.5,-30"/>
<text text-anchor="start" x="356.5" y="-18" font-family="Helvetica,sans-Serif" font-size="10.00">main/ceo/managers/actuator</text>
<text text-anchor="middle" x="427" y="-7" font-family="Helvetica,sans-Serif" font-size="10.00">/ActuatorManager.cpp</text>
</a>
</g>
</g>
<!-- Node1&#45;&gt;Node3 -->
<g id="edge28_Node000001_Node000003" class="edge">
<title>Node1&#45;&gt;Node3</title>
<g id="a_edge28_Node000001_Node000003"><a xlink:title=" ">
<path fill="none" stroke="#63b8ff" d="M977.64,-476.51C781.62,-476.93 292.11,-473.08 136,-426 68.86,-405.75 0,-416.13 0,-346 0,-346 0,-346 0,-146 0,-74.03 224.8,-38.06 348.18,-23.74"/>
<polygon fill="#63b8ff" stroke="#63b8ff" points="977.88,-480.01 987.88,-476.49 977.87,-473.01 977.88,-480.01"/>
</a>
</g>
</g>
<!-- Node4 -->
<g id="Node000004" class="node">
<title>Node4</title>
<g id="a_Node000004"><a xlink:href="ActuatorManager_8hpp.html" target="_top" xlink:title="Interface for all executive organs (limbs) of the organism.">
<polygon fill="white" stroke="#666666" points="617,-96 455,-96 455,-66 617,-66 617,-96"/>
<text text-anchor="start" x="463" y="-84" font-family="Helvetica,sans-Serif" font-size="10.00">main/ceo/managers/actuator</text>
<text text-anchor="middle" x="536" y="-73" font-family="Helvetica,sans-Serif" font-size="10.00">/include/ActuatorManager.hpp</text>
</a>
</g>
</g>
<!-- Node1&#45;&gt;Node4 -->
<g id="edge29_Node000001_Node000004" class="edge">
<title>Node1&#45;&gt;Node4</title>
<g id="a_edge29_Node000001_Node000004"><a xlink:title=" ">
<path fill="none" stroke="#63b8ff" d="M977.86,-475.72C779.12,-474.38 284.02,-466.93 222,-426 188.82,-404.1 182,-385.75 182,-346 182,-346 182,-346 182,-212 182,-171.21 193.55,-155.35 227,-132 262.87,-106.96 375.84,-93.64 454.74,-87.2"/>
<polygon fill="#63b8ff" stroke="#63b8ff" points="977.94,-479.22 987.96,-475.78 977.98,-472.22 977.94,-479.22"/>
</a>
</g>
</g>
<!-- Node5 -->
<g id="Node000005" class="node">
<title>Node5</title>
<g id="a_Node000005"><a xlink:href="CEO_8cpp.html" target="_top" xlink:title=" ">
<polygon fill="white" stroke="#666666" points="1298.5,-24.5 1193.5,-24.5 1193.5,-5.5 1298.5,-5.5 1298.5,-24.5"/>
<text text-anchor="middle" x="1246" y="-12.5" font-family="Helvetica,sans-Serif" font-size="10.00">main/ceo/CEO.cpp</text>
</a>
</g>
</g>
<!-- Node1&#45;&gt;Node5 -->
<g id="edge27_Node000001_Node000005" class="edge">
<title>Node1&#45;&gt;Node5</title>
<g id="a_edge27_Node000001_Node000005"><a xlink:title=" ">
<path fill="none" stroke="#63b8ff" d="M1142.25,-471.17C1186.33,-465.34 1239.87,-452.79 1281,-426 1345.41,-384.05 1375.42,-203.1 1430,-132 1445.6,-111.68 1463.9,-119.08 1475,-96 1480.78,-83.98 1483.36,-76.39 1475,-66 1453.27,-39.02 1359.16,-25.81 1298.56,-19.99"/>
<polygon fill="#63b8ff" stroke="#63b8ff" points="1141.63,-467.72 1132.13,-472.42 1142.48,-474.67 1141.63,-467.72"/>
</a>
</g>
</g>
<!-- Node6 -->
<g id="Node000006" class="node">
<title>Node6</title>
<g id="a_Node000006"><a xlink:href="ISensor_8hpp.html" target="_top" xlink:title="The abstract behavioral contract for all sensory organs (receptors).">
<polygon fill="white" stroke="#666666" points="1614.5,-294 1489.5,-294 1489.5,-264 1614.5,-264 1614.5,-294"/>
<text text-anchor="start" x="1497.5" y="-282" font-family="Helvetica,sans-Serif" font-size="10.00">components/contracts</text>
<text text-anchor="middle" x="1552" y="-271" font-family="Helvetica,sans-Serif" font-size="10.00">/include/ISensor.hpp</text>
</a>
</g>
</g>
<!-- Node1&#45;&gt;Node6 -->
<g id="edge6_Node000001_Node000006" class="edge">
<title>Node1&#45;&gt;Node6</title>
<g id="a_edge6_Node000001_Node000006"><a xlink:title=" ">
<path fill="none" stroke="#63b8ff" d="M1142.45,-475.14C1247.88,-472.52 1423.03,-462.59 1475,-426 1514,-398.53 1500.36,-371.99 1523,-330 1529.57,-317.81 1537.49,-304.23 1543.39,-294.31"/>
<polygon fill="#63b8ff" stroke="#63b8ff" points="1142.08,-471.65 1132.16,-475.38 1142.24,-478.64 1142.08,-471.65"/>
</a>
</g>
</g>
<!-- Node7 -->
<g id="Node000007" class="node">
<title>Node7</title>
<g id="a_Node000007"><a xlink:href="SensorManager_8cpp.html" target="_top" xlink:title=" ">
<polygon fill="white" stroke="#666666" points="1587.5,-162 1438.5,-162 1438.5,-132 1587.5,-132 1587.5,-162"/>
<text text-anchor="start" x="1446.5" y="-150" font-family="Helvetica,sans-Serif" font-size="10.00">main/ceo/managers/sensor</text>
<text text-anchor="middle" x="1513" y="-139" font-family="Helvetica,sans-Serif" font-size="10.00">/SensorManager.cpp</text>
</a>
</g>
</g>
<!-- Node1&#45;&gt;Node7 -->
<g id="edge62_Node000001_Node000007" class="edge">
<title>Node1&#45;&gt;Node7</title>
<g id="a_edge62_Node000001_Node000007"><a xlink:title=" ">
<path fill="none" stroke="#63b8ff" d="M1142.29,-475.43C1239.79,-473.04 1394.4,-463.26 1437,-426 1493.15,-376.88 1461.3,-335.96 1481,-264 1491.04,-227.33 1502.98,-184.17 1509.04,-162.28"/>
<polygon fill="#63b8ff" stroke="#63b8ff" points="1142.08,-471.94 1132.17,-475.66 1142.24,-478.94 1142.08,-471.94"/>
</a>
</g>
</g>
<!-- Node8 -->
<g id="Node000008" class="node">
<title>Node8</title>
<g id="a_Node000008"><a xlink:href="SensorManager_8hpp.html" target="_top" xlink:title="The sensory cortex (afferent system) of the organism.">
<polygon fill="white" stroke="#666666" points="1695,-228 1541,-228 1541,-198 1695,-198 1695,-228"/>
<text text-anchor="start" x="1549" y="-216" font-family="Helvetica,sans-Serif" font-size="10.00">main/ceo/managers/sensor</text>
<text text-anchor="middle" x="1618" y="-205" font-family="Helvetica,sans-Serif" font-size="10.00">/include/SensorManager.hpp</text>
</a>
</g>
</g>
<!-- Node1&#45;&gt;Node8 -->
<g id="edge63_Node000001_Node000008" class="edge">
<title>Node1&#45;&gt;Node8</title>
<g id="a_edge63_Node000001_Node000008"><a xlink:title=" ">
<path fill="none" stroke="#63b8ff" d="M1142.43,-475.32C1253.43,-472.97 1443.65,-463.39 1501,-426 1542.38,-399.02 1521.47,-364.31 1557,-330 1581.32,-306.52 1606.65,-323.01 1624,-294 1636.15,-273.68 1629.52,-245.07 1623.69,-228.14"/>
<polygon fill="#63b8ff" stroke="#63b8ff" points="1142.2,-471.83 1132.27,-475.52 1142.34,-478.83 1142.2,-471.83"/>
</a>
</g>
</g>
<!-- Node9 -->
<g id="Node000009" class="node">
<title>Node9</title>
<g id="a_Node000009"><a xlink:href="ITimeSource_8hpp.html" target="_top" xlink:title="The abstract behavioral contract for all temporal reference organs.">
<polygon fill="white" stroke="#666666" points="578,-294 438,-294 438,-264 578,-264 578,-294"/>
<text text-anchor="start" x="446" y="-282" font-family="Helvetica,sans-Serif" font-size="10.00">components/contracts</text>
<text text-anchor="middle" x="508" y="-271" font-family="Helvetica,sans-Serif" font-size="10.00">/include/ITimeSource.hpp</text>
</a>
</g>
</g>
<!-- Node1&#45;&gt;Node9 -->
<g id="edge11_Node000001_Node000009" class="edge">
<title>Node1&#45;&gt;Node9</title>
<g id="a_edge11_Node000001_Node000009"><a xlink:title=" ">
<path fill="none" stroke="#63b8ff" d="M977.72,-472.47C844.73,-466.06 594.11,-450.84 562,-426 519.67,-393.26 510.52,-323.83 508.54,-294.05"/>
<polygon fill="#63b8ff" stroke="#63b8ff" points="977.71,-475.97 987.87,-472.95 978.04,-468.98 977.71,-475.97"/>
</a>
</g>
</g>
<!-- Node10 -->
<g id="Node000010" class="node">
<title>Node10</title>
<g id="a_Node000010"><a xlink:href="TimeManager_8cpp.html" target="_top" xlink:title=" ">
<polygon fill="white" stroke="#666666" points="398.5,-162 259.5,-162 259.5,-132 398.5,-132 398.5,-162"/>
<text text-anchor="start" x="267.5" y="-150" font-family="Helvetica,sans-Serif" font-size="10.00">main/ceo/managers/time</text>
<text text-anchor="middle" x="329" y="-139" font-family="Helvetica,sans-Serif" font-size="10.00">/TimeManager.cpp</text>
</a>
</g>
</g>
<!-- Node1&#45;&gt;Node10 -->
<g id="edge66_Node000001_Node000010" class="edge">
<title>Node1&#45;&gt;Node10</title>
<g id="a_edge66_Node000001_Node000010"><a xlink:title=" ">
<path fill="none" stroke="#63b8ff" d="M977.44,-473.96C775.05,-468.55 268.87,-452.44 244,-426 170.35,-347.7 278.1,-207.24 316.38,-162.27"/>
<polygon fill="#63b8ff" stroke="#63b8ff" points="977.62,-477.46 987.71,-474.23 977.81,-470.47 977.62,-477.46"/>
</a>
</g>
</g>
<!-- Node11 -->
<g id="Node000011" class="node">
<title>Node11</title>
<g id="a_Node000011"><a xlink:href="TimeManager_8hpp.html" target="_top" xlink:title="The biological clock and circadian rhythm (pacemaker) of the organism.">
<polygon fill="white" stroke="#666666" points="831,-228 685,-228 685,-198 831,-198 831,-228"/>
<text text-anchor="start" x="693" y="-216" font-family="Helvetica,sans-Serif" font-size="10.00">main/ceo/managers/time</text>
<text text-anchor="middle" x="758" y="-205" font-family="Helvetica,sans-Serif" font-size="10.00">/include/TimeManager.hpp</text>
</a>
</g>
</g>
<!-- Node1&#45;&gt;Node11 -->
<g id="edge67_Node000001_Node000011" class="edge">
<title>Node1&#45;&gt;Node11</title>
<g id="a_edge67_Node000001_Node000011"><a xlink:title=" ">
<path fill="none" stroke="#63b8ff" d="M977.65,-473.48C901.1,-465.97 792.91,-440.73 752,-360 729.87,-316.33 744.52,-255.52 753.07,-228.24"/>
<polygon fill="#63b8ff" stroke="#63b8ff" points="977.49,-476.98 987.77,-474.38 978.12,-470 977.49,-476.98"/>
</a>
</g>
</g>
<!-- Node12 -->
<g id="Node000012" class="node">
<title>Node12</title>
<g id="a_Node000012"><a xlink:href="CommunicationManager_8hpp.html" target="_top" xlink:title="The external interface and vocal apparatus of the organism.">
<polygon fill="white" stroke="#666666" points="1307,-162 1109,-162 1109,-132 1307,-132 1307,-162"/>
<text text-anchor="start" x="1117" y="-150" font-family="Helvetica,sans-Serif" font-size="10.00">main/ceo/managers/communication</text>
<text text-anchor="middle" x="1208" y="-139" font-family="Helvetica,sans-Serif" font-size="10.00">/include/CommunicationManager.hpp</text>
</a>
</g>
</g>
<!-- Node1&#45;&gt;Node12 -->
<g id="edge57_Node000001_Node000012" class="edge">
<title>Node1&#45;&gt;Node12</title>
<g id="a_edge57_Node000001_Node000012"><a xlink:title=" ">
<path fill="none" stroke="#63b8ff" d="M1141.82,-459.87C1201.14,-442.86 1271,-409.38 1271,-346 1271,-346 1271,-346 1271,-278 1271,-231.85 1238.45,-184.88 1220.15,-162.11"/>
<polygon fill="#63b8ff" stroke="#63b8ff" points="1140.74,-456.54 1132.02,-462.56 1142.59,-463.29 1140.74,-456.54"/>
</a>
</g>
</g>
<!-- Node13 -->
<g id="Node000013" class="node">
<title>Node13</title>
<g id="a_Node000013"><a xlink:href="CommunicationManager_8cpp.html" target="_top" xlink:title=" ">
<polygon fill="white" stroke="#666666" points="1466,-96 1274,-96 1274,-66 1466,-66 1466,-96"/>
<text text-anchor="start" x="1282" y="-84" font-family="Helvetica,sans-Serif" font-size="10.00">main/ceo/managers/communication</text>
<text text-anchor="middle" x="1370" y="-73" font-family="Helvetica,sans-Serif" font-size="10.00">/CommunicationManager.cpp</text>
</a>
</g>
</g>
<!-- Node1&#45;&gt;Node13 -->
<g id="edge56_Node000001_Node000013" class="edge">
<title>Node1&#45;&gt;Node13</title>
<g id="a_edge56_Node000001_Node000013"><a xlink:title=" ">
<path fill="none" stroke="#63b8ff" d="M1142.66,-470.44C1179.85,-464.23 1222.2,-451.56 1253,-426 1359.08,-337.99 1369.31,-149.62 1370.03,-96.32"/>
<polygon fill="#63b8ff" stroke="#63b8ff" points="1141.68,-467.05 1132.33,-472.02 1142.74,-473.97 1141.68,-467.05"/>
</a>
</g>
</g>
<!-- Node14 -->
<g id="Node000014" class="node">
<title>Node14</title>
<g id="a_Node000014"><a xlink:href="StorageManager_8cpp.html" target="_top" xlink:title="Implementation of hybrid storage management according to AGX Rule.">
<polygon fill="white" stroke="#666666" points="905.5,-96 752.5,-96 752.5,-66 905.5,-66 905.5,-96"/>
<text text-anchor="start" x="760.5" y="-84" font-family="Helvetica,sans-Serif" font-size="10.00">main/ceo/managers/storage</text>
<text text-anchor="middle" x="829" y="-73" font-family="Helvetica,sans-Serif" font-size="10.00">/StorageManager.cpp</text>
</a>
</g>
</g>
<!-- Node1&#45;&gt;Node14 -->
<g id="edge64_Node000001_Node000014" class="edge">
<title>Node1&#45;&gt;Node14</title>
<g id="a_edge64_Node000001_Node000014"><a xlink:title=" ">
<path fill="none" stroke="#63b8ff" d="M977.61,-475.41C795.16,-473.4 369.05,-464.59 317,-426 291.8,-407.32 300.76,-390.12 292,-360 263.24,-261.14 181.41,-207.88 251,-132 259.38,-122.86 597.14,-98.18 752.38,-87.29"/>
<polygon fill="#63b8ff" stroke="#63b8ff" points="977.65,-478.91 987.69,-475.52 977.73,-471.91 977.65,-478.91"/>
</a>
</g>
</g>
<!-- Node15 -->
<g id="Node000015" class="node">
<title>Node15</title>
<g id="a_Node000015"><a xlink:href="StorageManager_8hpp.html" target="_top" xlink:title="The long&#45;term memory and archivist (hippocampus) of the organism.">
<polygon fill="white" stroke="#666666" points="1091,-162 933,-162 933,-132 1091,-132 1091,-162"/>
<text text-anchor="start" x="941" y="-150" font-family="Helvetica,sans-Serif" font-size="10.00">main/ceo/managers/storage</text>
<text text-anchor="middle" x="1012" y="-139" font-family="Helvetica,sans-Serif" font-size="10.00">/include/StorageManager.hpp</text>
</a>
</g>
</g>
<!-- Node1&#45;&gt;Node15 -->
<g id="edge65_Node000001_Node000015" class="edge">
<title>Node1&#45;&gt;Node15</title>
<g id="a_edge65_Node000001_Node000015"><a xlink:title=" ">
<path fill="none" stroke="#63b8ff" d="M1129.61,-458.48C1149,-450.97 1168.87,-440.49 1184,-426 1216.29,-395.08 1227.93,-372.48 1214,-330 1191.32,-260.82 1173.12,-244.38 1117,-198 1098.17,-182.44 1073.68,-170.41 1053.09,-162.06"/>
<polygon fill="#63b8ff" stroke="#63b8ff" points="1128.35,-455.21 1120.16,-461.93 1130.75,-461.79 1128.35,-455.21"/>
</a>
</g>
</g>
<!-- Node16 -->
<g id="Node000016" class="node">
<title>Node16</title>
<g id="a_Node000016"><a xlink:href="ToolBox_8cpp.html" target="_top" xlink:title=" ">
<polygon fill="white" stroke="#666666" points="618.5,-156.5 493.5,-156.5 493.5,-137.5 618.5,-137.5 618.5,-156.5"/>
<text text-anchor="middle" x="556" y="-144.5" font-family="Helvetica,sans-Serif" font-size="10.00">main/tool/ToolBox.cpp</text>
</a>
</g>
</g>
<!-- Node1&#45;&gt;Node16 -->
<g id="edge72_Node000001_Node000016" class="edge">
<title>Node1&#45;&gt;Node16</title>
<g id="a_edge72_Node000001_Node000016"><a xlink:title=" ">
<path fill="none" stroke="#63b8ff" d="M977.62,-473.68C832.73,-468.89 538.29,-455.74 440,-426 369.92,-404.8 296,-419.21 296,-346 296,-346 296,-346 296,-278 296,-190.06 416.46,-161.61 493.39,-152.4"/>
<polygon fill="#63b8ff" stroke="#63b8ff" points="977.68,-477.19 987.79,-474.01 977.91,-470.19 977.68,-477.19"/>
</a>
</g>
</g>
<!-- Node17 -->
<g id="Node000017" class="node">
<title>Node17</title>
<g id="a_Node000017"><a xlink:href="ToolBox_8hpp.html" target="_top" xlink:title="The metabolic support and universal toolkit of the organism.">
<polygon fill="white" stroke="#666666" points="877,-156.5 713,-156.5 713,-137.5 877,-137.5 877,-156.5"/>
<text text-anchor="middle" x="795" y="-144.5" font-family="Helvetica,sans-Serif" font-size="10.00">main/tool/include/ToolBox.hpp</text>
</a>
</g>
</g>
<!-- Node1&#45;&gt;Node17 -->
<g id="edge73_Node000001_Node000017" class="edge">
<title>Node1&#45;&gt;Node17</title>
<g id="a_edge73_Node000001_Node000017"><a xlink:title=" ">
<path fill="none" stroke="#63b8ff" d="M977.77,-476.57C802.91,-475.55 410,-460.53 410,-346 410,-346 410,-346 410,-278 410,-211.6 618.19,-172.56 728.38,-156.54"/>
<polygon fill="#63b8ff" stroke="#63b8ff" points="977.94,-480.07 987.96,-476.61 977.97,-473.07 977.94,-480.07"/>
</a>
</g>
</g>
<!-- Node18 -->
<g id="Node000018" class="node">
<title>Node18</title>
<g id="a_Node000018"><a xlink:href="BusManager_8hpp.html" target="_top" xlink:title="The peripheral nervous system managing all communication pathways.">
<polygon fill="white" stroke="#666666" points="1052.5,-360 913.5,-360 913.5,-330 1052.5,-330 1052.5,-360"/>
<text text-anchor="start" x="921.5" y="-348" font-family="Helvetica,sans-Serif" font-size="10.00">main/ceo/managers/bus</text>
<text text-anchor="middle" x="983" y="-337" font-family="Helvetica,sans-Serif" font-size="10.00">/include/BusManager.hpp</text>
</a>
</g>
</g>
<!-- Node1&#45;&gt;Node18 -->
<g id="edge30_Node000001_Node000018" class="edge">
<title>Node1&#45;&gt;Node18</title>
<g id="a_edge30_Node000001_Node000018"><a xlink:title=" ">
<path fill="none" stroke="#63b8ff" d="M1046.44,-453.1C1030.52,-426.23 1004.62,-382.5 991.38,-360.14"/>
<polygon fill="#63b8ff" stroke="#63b8ff" points="1043.51,-455.02 1051.61,-461.84 1049.53,-451.45 1043.51,-455.02"/>
</a>
</g>
</g>
<!-- Node20 -->
<g id="Node000020" class="node">
<title>Node20</title>
<g id="a_Node000020"><a xlink:href="I2CBus_8hpp.html" target="_top" xlink:title="Industrial I2C Master bus driver with health monitoring.">
<polygon fill="white" stroke="#666666" points="705,-426 571,-426 571,-396 705,-396 705,-426"/>
<text text-anchor="start" x="579" y="-414" font-family="Helvetica,sans-Serif" font-size="10.00">main/ceo/managers/bus</text>
<text text-anchor="middle" x="638" y="-403" font-family="Helvetica,sans-Serif" font-size="10.00">/include/I2CBus.hpp</text>
</a>
</g>
</g>
<!-- Node1&#45;&gt;Node20 -->
<g id="edge45_Node000001_Node000020" class="edge">
<title>Node1&#45;&gt;Node20</title>
<g id="a_edge45_Node000001_Node000020"><a xlink:title=" ">
<path fill="none" stroke="#63b8ff" d="M977.78,-464.55C908.66,-454.77 807.28,-440.1 719,-426 714.49,-425.28 709.84,-424.52 705.16,-423.74"/>
<polygon fill="#63b8ff" stroke="#63b8ff" points="977.35,-468.02 987.74,-465.95 978.33,-461.09 977.35,-468.02"/>
</a>
</g>
</g>
<!-- Node22 -->
<g id="Node000022" class="node">
<title>Node22</title>
<g id="a_Node000022"><a xlink:href="SPIBus_8hpp.html" target="_top" xlink:title="Industrial SPI Master bus driver with health monitoring.">
<polygon fill="white" stroke="#666666" points="985,-426 851,-426 851,-396 985,-396 985,-426"/>
<text text-anchor="start" x="859" y="-414" font-family="Helvetica,sans-Serif" font-size="10.00">main/ceo/managers/bus</text>
<text text-anchor="middle" x="918" y="-403" font-family="Helvetica,sans-Serif" font-size="10.00">/include/SPIBus.hpp</text>
</a>
</g>
</g>
<!-- Node1&#45;&gt;Node22 -->
<g id="edge50_Node000001_Node000022" class="edge">
<title>Node1&#45;&gt;Node22</title>
<g id="a_edge50_Node000001_Node000022"><a xlink:title=" ">
<path fill="none" stroke="#63b8ff" d="M1019.58,-457.78C997.2,-447.69 969.79,-435.34 949.09,-426.01"/>
<polygon fill="#63b8ff" stroke="#63b8ff" points="1018.28,-461.04 1028.84,-461.95 1021.16,-454.65 1018.28,-461.04"/>
</a>
</g>
</g>
<!-- Node24 -->
<g id="Node000024" class="node">
<title>Node24</title>
<g id="a_Node000024"><a xlink:href="UARTBus_8hpp.html" target="_top" xlink:title="Industrial UART bus driver with health monitoring.">
<polygon fill="white" stroke="#666666" points="1175,-426 1041,-426 1041,-396 1175,-396 1175,-426"/>
<text text-anchor="start" x="1049" y="-414" font-family="Helvetica,sans-Serif" font-size="10.00">main/ceo/managers/bus</text>
<text text-anchor="middle" x="1108" y="-403" font-family="Helvetica,sans-Serif" font-size="10.00">/include/UARTBus.hpp</text>
</a>
</g>
</g>
<!-- Node1&#45;&gt;Node24 -->
<g id="edge53_Node000001_Node000024" class="edge">
<title>Node1&#45;&gt;Node24</title>
<g id="a_edge53_Node000001_Node000024"><a xlink:title=" ">
<path fill="none" stroke="#63b8ff" d="M1076.86,-453.53C1083.68,-444.43 1091.35,-434.19 1097.38,-426.16"/>
<polygon fill="#63b8ff" stroke="#63b8ff" points="1073.85,-451.7 1070.65,-461.8 1079.45,-455.9 1073.85,-451.7"/>
</a>
</g>
</g>
<!-- Node26 -->
<g id="Node000026" class="node">
<title>Node26</title>
<g id="a_Node000026"><a xlink:href="DataManager_8cpp.html" target="_top" xlink:title=" ">
<polygon fill="white" stroke="#666666" points="2049,-426 1911,-426 1911,-396 2049,-396 2049,-426"/>
<text text-anchor="start" x="1919" y="-414" font-family="Helvetica,sans-Serif" font-size="10.00">main/ceo/managers/data</text>
<text text-anchor="middle" x="1980" y="-403" font-family="Helvetica,sans-Serif" font-size="10.00">/DataManager.cpp</text>
</a>
</g>
</g>
<!-- Node1&#45;&gt;Node26 -->
<g id="edge58_Node000001_Node000026" class="edge">
<title>Node1&#45;&gt;Node26</title>
<g id="a_edge58_Node000001_Node000026"><a xlink:title=" ">
<path fill="none" stroke="#63b8ff" d="M1142.18,-474.34C1293.15,-470.59 1624.64,-459.01 1902,-426 1904.87,-425.66 1907.79,-425.28 1910.74,-424.87"/>
<polygon fill="#63b8ff" stroke="#63b8ff" points="1141.97,-470.85 1132.06,-474.59 1142.14,-477.85 1141.97,-470.85"/>
</a>
</g>
</g>
<!-- Node27 -->
<g id="Node000027" class="node">
<title>Node27</title>
<g id="a_Node000027"><a xlink:href="PinManager_8hpp.html" target="_top" xlink:title="The physical nerve endings (motor neurons) of the organism.">
<polygon fill="white" stroke="#666666" points="1701,-426 1565,-426 1565,-396 1701,-396 1701,-426"/>
<text text-anchor="start" x="1573" y="-414" font-family="Helvetica,sans-Serif" font-size="10.00">main/ceo/managers/pin</text>
<text text-anchor="middle" x="1633" y="-403" font-family="Helvetica,sans-Serif" font-size="10.00">/include/PinManager.hpp</text>
</a>
</g>
</g>
<!-- Node1&#45;&gt;Node27 -->
<g id="edge59_Node000001_Node000027" class="edge">
<title>Node1&#45;&gt;Node27</title>
<g id="a_edge59_Node000001_Node000027"><a xlink:title=" ">
<path fill="none" stroke="#63b8ff" d="M1142.25,-469.34C1239.94,-461.02 1407.71,-445.51 1551,-426 1555.44,-425.4 1560,-424.73 1564.6,-424.03"/>
<polygon fill="#63b8ff" stroke="#63b8ff" points="1141.82,-465.86 1132.15,-470.19 1142.41,-472.83 1141.82,-465.86"/>
</a>
</g>
</g>
<!-- Node29 -->
<g id="Node000029" class="node">
<title>Node29</title>
<g id="a_Node000029"><a xlink:href="TaskMonitor_8cpp.html" target="_top" xlink:title=" ">
<polygon fill="white" stroke="#666666" points="1919.5,-354.5 1752.5,-354.5 1752.5,-335.5 1919.5,-335.5 1919.5,-354.5"/>
<text text-anchor="middle" x="1836" y="-342.5" font-family="Helvetica,sans-Serif" font-size="10.00">main/ceo/task/TaskMonitor.cpp</text>
</a>
</g>
</g>
<!-- Node1&#45;&gt;Node29 -->
<g id="edge68_Node000001_Node000029" class="edge">
<title>Node1&#45;&gt;Node29</title>
<g id="a_edge68_Node000001_Node000029"><a xlink:title=" ">
<path fill="none" stroke="#63b8ff" d="M1142.32,-474.62C1292.94,-471.27 1606.92,-460.3 1710,-426 1716.24,-423.92 1791.81,-374.84 1822.84,-354.6"/>
<polygon fill="#63b8ff" stroke="#63b8ff" points="1142.12,-471.12 1132.2,-474.84 1142.27,-478.12 1142.12,-471.12"/>
</a>
</g>
</g>
<!-- Node30 -->
<g id="Node000030" class="node">
<title>Node30</title>
<g id="a_Node000030"><a xlink:href="TaskMonitor_8hpp.html" target="_top" xlink:title="The immune system and homeostatic supervisor of the organism.">
<polygon fill="white" stroke="#666666" points="1893,-426 1769,-426 1769,-396 1893,-396 1893,-426"/>
<text text-anchor="start" x="1777" y="-414" font-family="Helvetica,sans-Serif" font-size="10.00">main/ceo/task/include</text>
<text text-anchor="middle" x="1831" y="-403" font-family="Helvetica,sans-Serif" font-size="10.00">/TaskMonitor.hpp</text>
</a>
</g>
</g>
<!-- Node1&#45;&gt;Node30 -->
<g id="edge69_Node000001_Node000030" class="edge">
<title>Node1&#45;&gt;Node30</title>
<g id="a_edge69_Node000001_Node000030"><a xlink:title=" ">
<path fill="none" stroke="#63b8ff" d="M1142.36,-472.73C1272.15,-466.98 1532.06,-453.01 1751,-426 1756.74,-425.29 1762.69,-424.45 1768.64,-423.54"/>
<polygon fill="#63b8ff" stroke="#63b8ff" points="1141.94,-469.25 1132.11,-473.18 1142.25,-476.24 1141.94,-469.25"/>
</a>
</g>
</g>
<!-- Node2&#45;&gt;Node3 -->
<g id="edge2_Node000002_Node000003" class="edge">
<title>Node2&#45;&gt;Node3</title>
<g id="a_edge2_Node000002_Node000003"><a xlink:title=" ">
<path fill="none" stroke="#63b8ff" d="M96.25,-187.86C101.21,-170.28 110.3,-147.01 126,-132 187.42,-73.26 281.79,-43.4 348.46,-28.82"/>
<polygon fill="#63b8ff" stroke="#63b8ff" points="92.76,-187.39 93.67,-197.94 99.54,-189.12 92.76,-187.39"/>
</a>
</g>
</g>
<!-- Node2&#45;&gt;Node4 -->
<g id="edge3_Node000002_Node000004" class="edge">
<title>Node2&#45;&gt;Node4</title>
<g id="a_edge3_Node000002_Node000004"><a xlink:title=" ">
<path fill="none" stroke="#63b8ff" d="M105.88,-189.66C119.64,-170.96 141.88,-145.26 168,-132 216.65,-107.3 361.82,-93.41 454.63,-86.82"/>
<polygon fill="#63b8ff" stroke="#63b8ff" points="102.93,-187.77 100,-197.94 108.64,-191.82 102.93,-187.77"/>
</a>
</g>
</g>
<!-- Node4&#45;&gt;Node3 -->
<g id="edge5_Node000004_Node000003" class="edge">
<title>Node4&#45;&gt;Node3</title>
<g id="a_edge5_Node000004_Node000003"><a xlink:title=" ">
<path fill="none" stroke="#63b8ff" d="M503.12,-60.69C486.29,-50.82 466.19,-39.01 450.86,-30.01"/>
<polygon fill="#63b8ff" stroke="#63b8ff" points="501.68,-63.91 512.08,-65.95 505.23,-57.87 501.68,-63.91"/>
</a>
</g>
</g>
<!-- Node4&#45;&gt;Node5 -->
<g id="edge4_Node000004_Node000005" class="edge">
<title>Node4&#45;&gt;Node5</title>
<g id="a_edge4_Node000004_Node000005"><a xlink:title=" ">
<path fill="none" stroke="#63b8ff" d="M627.14,-66.68C629.11,-66.44 631.07,-66.22 633,-66 839.9,-42.65 1087.27,-25.86 1193.41,-19.19"/>
<polygon fill="#63b8ff" stroke="#63b8ff" points="626.69,-63.21 617.19,-67.9 627.55,-70.16 626.69,-63.21"/>
</a>
</g>
</g>
<!-- Node6&#45;&gt;Node7 -->
<g id="edge7_Node000006_Node000007" class="edge">
<title>Node6&#45;&gt;Node7</title>
<g id="a_edge7_Node000006_Node000007"><a xlink:title=" ">
<path fill="none" stroke="#63b8ff" d="M1541.72,-254.38C1538.35,-246.13 1534.77,-236.74 1532,-228 1524.8,-205.27 1518.91,-178.15 1515.68,-162.04"/>
<polygon fill="#63b8ff" stroke="#63b8ff" points="1538.56,-255.89 1545.65,-263.76 1545.02,-253.19 1538.56,-255.89"/>
</a>
</g>
</g>
<!-- Node6&#45;&gt;Node8 -->
<g id="edge8_Node000006_Node000008" class="edge">
<title>Node6&#45;&gt;Node8</title>
<g id="a_edge8_Node000006_Node000008"><a xlink:title=" ">
<path fill="none" stroke="#63b8ff" d="M1574.02,-256.65C1583.69,-247.27 1594.77,-236.53 1603.39,-228.16"/>
<polygon fill="#63b8ff" stroke="#63b8ff" points="1571.39,-254.32 1566.65,-263.8 1576.26,-259.35 1571.39,-254.32"/>
</a>
</g>
</g>
<!-- Node8&#45;&gt;Node5 -->
<g id="edge9_Node000008_Node000005" class="edge">
<title>Node8&#45;&gt;Node5</title>
<g id="a_edge9_Node000008_Node000005"><a xlink:title=" ">
<path fill="none" stroke="#63b8ff" d="M1615.88,-187.67C1613.45,-170.84 1608.22,-148.59 1597,-132 1569.41,-91.21 1553.1,-85.78 1508,-66 1439.51,-35.96 1353.16,-23.92 1298.75,-19.13"/>
<polygon fill="#63b8ff" stroke="#63b8ff" points="1612.43,-188.32 1617.11,-197.83 1619.38,-187.48 1612.43,-188.32"/>
</a>
</g>
</g>
<!-- Node8&#45;&gt;Node7 -->
<g id="edge10_Node000008_Node000007" class="edge">
<title>Node8&#45;&gt;Node7</title>
<g id="a_edge10_Node000008_Node000007"><a xlink:title=" ">
<path fill="none" stroke="#63b8ff" d="M1586.33,-192.69C1570.12,-182.82 1550.75,-171.01 1535.99,-162.01"/>
<polygon fill="#63b8ff" stroke="#63b8ff" points="1584.6,-195.74 1594.96,-197.95 1588.24,-189.76 1584.6,-195.74"/>
</a>
</g>
</g>
<!-- Node9&#45;&gt;Node10 -->
<g id="edge12_Node000009_Node000010" class="edge">
<title>Node9&#45;&gt;Node10</title>
<g id="a_edge12_Node000009_Node000010"><a xlink:title=" ">
<path fill="none" stroke="#63b8ff" d="M480.26,-257.85C443.71,-231.31 380.33,-185.28 348.47,-162.14"/>
<polygon fill="#63b8ff" stroke="#63b8ff" points="478.36,-260.8 488.5,-263.84 482.47,-255.13 478.36,-260.8"/>
</a>
</g>
</g>
<!-- Node9&#45;&gt;Node11 -->
<g id="edge13_Node000009_Node000011" class="edge">
<title>Node9&#45;&gt;Node11</title>
<g id="a_edge13_Node000009_Node000011"><a xlink:title=" ">
<path fill="none" stroke="#63b8ff" d="M572.64,-261.45C613.15,-251.08 664.79,-237.86 703.26,-228.01"/>
<polygon fill="#63b8ff" stroke="#63b8ff" points="571.68,-258.08 562.86,-263.95 573.42,-264.87 571.68,-258.08"/>
</a>
</g>
</g>
<!-- Node11&#45;&gt;Node5 -->
<g id="edge14_Node000011_Node000005" class="edge">
<title>Node11&#45;&gt;Node5</title>
<g id="a_edge14_Node000011_Node000005"><a xlink:title=" ">
<path fill="none" stroke="#63b8ff" d="M721.85,-192.03C711.2,-184.18 700.85,-174.1 695,-162 674.17,-118.87 702.33,-89.62 744,-66 819.72,-23.08 1080.44,-16.66 1193.27,-15.94"/>
<polygon fill="#63b8ff" stroke="#63b8ff" points="720.15,-195.1 730.38,-197.85 724.09,-189.32 720.15,-195.1"/>
</a>
</g>
</g>
<!-- Node11&#45;&gt;Node10 -->
<g id="edge24_Node000011_Node000010" class="edge">
<title>Node11&#45;&gt;Node10</title>
<g id="a_edge24_Node000011_Node000010"><a xlink:title=" ">
<path fill="none" stroke="#63b8ff" d="M674.66,-199.57C594.33,-187.58 474.17,-169.66 398.76,-158.41"/>
<polygon fill="#63b8ff" stroke="#63b8ff" points="674.33,-203.06 684.74,-201.07 675.37,-196.13 674.33,-203.06"/>
</a>
</g>
</g>
<!-- Node11&#45;&gt;Node12 -->
<g id="edge15_Node000011_Node000012" class="edge">
<title>Node11&#45;&gt;Node12</title>
<g id="a_edge15_Node000011_Node000012"><a xlink:title=" ">
<path fill="none" stroke="#63b8ff" d="M841.04,-200.19C916.85,-189.41 1029.03,-173.45 1109.38,-162.03"/>
<polygon fill="#63b8ff" stroke="#63b8ff" points="840.46,-196.74 831.05,-201.61 841.44,-203.67 840.46,-196.74"/>
</a>
</g>
</g>
<!-- Node11&#45;&gt;Node14 -->
<g id="edge20_Node000011_Node000014" class="edge">
<title>Node11&#45;&gt;Node14</title>
<g id="a_edge20_Node000011_Node000014"><a xlink:title=" ">
<path fill="none" stroke="#63b8ff" d="M729.02,-191.57C709.75,-175.4 690.29,-152.24 704,-132 715.66,-114.77 734.32,-103.48 753.71,-96.08"/>
<polygon fill="#63b8ff" stroke="#63b8ff" points="726.88,-194.34 736.89,-197.83 731.24,-188.86 726.88,-194.34"/>
</a>
</g>
</g>
<!-- Node11&#45;&gt;Node15 -->
<g id="edge21_Node000011_Node000015" class="edge">
<title>Node11&#45;&gt;Node15</title>
<g id="a_edge21_Node000011_Node000015"><a xlink:title=" ">
<path fill="none" stroke="#63b8ff" d="M823.68,-195.45C864.83,-185.08 917.29,-171.86 956.39,-162.01"/>
<polygon fill="#63b8ff" stroke="#63b8ff" points="822.58,-192.12 813.74,-197.95 824.29,-198.91 822.58,-192.12"/>
</a>
</g>
</g>
<!-- Node11&#45;&gt;Node16 -->
<g id="edge25_Node000011_Node000016" class="edge">
<title>Node11&#45;&gt;Node16</title>
<g id="a_edge25_Node000011_Node000016"><a xlink:title=" ">
<path fill="none" stroke="#63b8ff" d="M704.01,-194.89C664.89,-182.5 613.67,-166.27 582.88,-156.52"/>
<polygon fill="#63b8ff" stroke="#63b8ff" points="703.08,-198.27 713.67,-197.95 705.19,-191.6 703.08,-198.27"/>
</a>
</g>
</g>
<!-- Node11&#45;&gt;Node17 -->
<g id="edge26_Node000011_Node000017" class="edge">
<title>Node11&#45;&gt;Node17</title>
<g id="a_edge26_Node000011_Node000017"><a xlink:title=" ">
<path fill="none" stroke="#63b8ff" d="M771.33,-188.95C777.76,-177.81 785.11,-165.11 789.89,-156.84"/>
<polygon fill="#63b8ff" stroke="#63b8ff" points="768.19,-187.39 766.21,-197.8 774.25,-190.89 768.19,-187.39"/>
</a>
</g>
</g>
<!-- Node12&#45;&gt;Node3 -->
<g id="edge17_Node000012_Node000003" class="edge">
<title>Node12&#45;&gt;Node3</title>
<g id="a_edge17_Node000012_Node000003"><a xlink:title=" ">
<path fill="none" stroke="#63b8ff" d="M1155.63,-128.89C1097.47,-110.56 1000.51,-81.94 915,-66 772.04,-39.35 602.69,-26 505.75,-20.07"/>
<polygon fill="#63b8ff" stroke="#63b8ff" points="1154.73,-132.28 1165.32,-131.97 1156.85,-125.61 1154.73,-132.28"/>
</a>
</g>
</g>
<!-- Node12&#45;&gt;Node4 -->
<g id="edge18_Node000012_Node000004" class="edge">
<title>Node12&#45;&gt;Node4</title>
<g id="a_edge18_Node000012_Node000004"><a xlink:title=" ">
<path fill="none" stroke="#63b8ff" d="M1098.79,-131.9C921.06,-112.68 725.04,-96.58 617.36,-88.17"/>
<polygon fill="#63b8ff" stroke="#63b8ff" points="1098.53,-135.39 1108.85,-132.99 1099.29,-128.43 1098.53,-135.39"/>
</a>
</g>
</g>
<!-- Node12&#45;&gt;Node5 -->
<g id="edge16_Node000012_Node000005" class="edge">
<title>Node12&#45;&gt;Node5</title>
<g id="a_edge16_Node000012_Node000005"><a xlink:title=" ">
<path fill="none" stroke="#63b8ff" d="M1215.03,-121.96C1223.61,-92.59 1237.7,-44.39 1243.44,-24.75"/>
<polygon fill="#63b8ff" stroke="#63b8ff" points="1211.59,-121.26 1212.14,-131.84 1218.3,-123.22 1211.59,-121.26"/>
</a>
</g>
</g>
<!-- Node12&#45;&gt;Node13 -->
<g id="edge19_Node000012_Node000013" class="edge">
<title>Node12&#45;&gt;Node13</title>
<g id="a_edge19_Node000012_Node000013"><a xlink:title=" ">
<path fill="none" stroke="#63b8ff" d="M1253.09,-128.19C1278.81,-118.02 1310.6,-105.47 1334.53,-96.01"/>
<polygon fill="#63b8ff" stroke="#63b8ff" points="1251.57,-125.03 1243.55,-131.95 1254.14,-131.54 1251.57,-125.03"/>
</a>
</g>
</g>
<!-- Node15&#45;&gt;Node5 -->
<g id="edge22_Node000015_Node000005" class="edge">
<title>Node15&#45;&gt;Node5</title>
<g id="a_edge22_Node000015_Node000005"><a xlink:title=" ">
<path fill="none" stroke="#63b8ff" d="M1046.28,-126.96C1097.84,-98.31 1193.29,-45.28 1230.54,-24.59"/>
<polygon fill="#63b8ff" stroke="#63b8ff" points="1044.53,-123.92 1037.49,-131.84 1047.93,-130.04 1044.53,-123.92"/>
</a>
</g>
</g>
<!-- Node15&#45;&gt;Node14 -->
<g id="edge23_Node000015_Node000014" class="edge">
<title>Node15&#45;&gt;Node14</title>
<g id="a_edge23_Node000015_Node000014"><a xlink:title=" ">
<path fill="none" stroke="#63b8ff" d="M962.22,-128.59C932.96,-118.36 896.46,-105.59 869.07,-96.01"/>
<polygon fill="#63b8ff" stroke="#63b8ff" points="961.25,-131.96 971.84,-131.95 963.56,-125.35 961.25,-131.96"/>
</a>
</g>
</g>
<!-- Node18&#45;&gt;Node2 -->
<g id="edge31_Node000018_Node000002" class="edge">
<title>Node18&#45;&gt;Node2</title>
<g id="a_edge31_Node000018_Node000002"><a xlink:title=" ">
<path fill="none" stroke="#63b8ff" d="M903.11,-329.99C692.17,-304.2 634.94,-325.97 429,-294 324.57,-277.79 204.72,-246.28 139.5,-228.02"/>
<polygon fill="#63b8ff" stroke="#63b8ff" points="902.91,-333.49 913.27,-331.25 903.78,-326.55 902.91,-333.49"/>
</a>
</g>
</g>
<!-- Node18&#45;&gt;Node3 -->
<g id="edge35_Node000018_Node000003" class="edge">
<title>Node18&#45;&gt;Node3</title>
<g id="a_edge35_Node000018_Node000003"><a xlink:title=" ">
<path fill="none" stroke="#63b8ff" d="M903.08,-329.91C803.94,-314.18 773.7,-326.4 683,-294 580.25,-257.29 545.46,-246.15 476,-162 442.81,-121.79 431.75,-58.13 428.37,-30.07"/>
<polygon fill="#63b8ff" stroke="#63b8ff" points="902.79,-333.41 913.22,-331.58 903.92,-326.5 902.79,-333.41"/>
</a>
</g>
</g>
<!-- Node18&#45;&gt;Node4 -->
<g id="edge36_Node000018_Node000004" class="edge">
<title>Node18&#45;&gt;Node4</title>
<g id="a_edge36_Node000018_Node000004"><a xlink:title=" ">
<path fill="none" stroke="#63b8ff" d="M903.22,-328.93C848.24,-318.12 780.35,-303.78 753,-294 692.36,-272.31 680.94,-258.09 624,-228 599.38,-214.99 594.05,-210.16 569,-198 532.46,-180.26 507.36,-195.91 485,-162 469.95,-139.17 495.86,-112.31 515.94,-96.25"/>
<polygon fill="#63b8ff" stroke="#63b8ff" points="902.84,-332.42 913.32,-330.91 904.18,-325.55 902.84,-332.42"/>
</a>
</g>
</g>
<!-- Node18&#45;&gt;Node5 -->
<g id="edge34_Node000018_Node000005" class="edge">
<title>Node18&#45;&gt;Node5</title>
<g id="a_edge34_Node000018_Node000005"><a xlink:title=" ">
<path fill="none" stroke="#63b8ff" d="M1062.42,-327.93C1144.77,-306.34 1268.06,-258.89 1316,-162 1321.91,-150.05 1322.13,-143.84 1316,-132 1303.24,-107.37 1280.54,-118.98 1265,-96 1249.81,-73.53 1246.7,-40.35 1246.11,-24.73"/>
<polygon fill="#63b8ff" stroke="#63b8ff" points="1061.42,-324.58 1052.59,-330.44 1063.14,-331.36 1061.42,-324.58"/>
</a>
</g>
</g>
<!-- Node18&#45;&gt;Node6 -->
<g id="edge32_Node000018_Node000006" class="edge">
<title>Node18&#45;&gt;Node6</title>
<g id="a_edge32_Node000018_Node000006"><a xlink:title=" ">
<path fill="none" stroke="#63b8ff" d="M1062.78,-329.98C1159.25,-317.15 1380.41,-296.01 1489.36,-285.81"/>
<polygon fill="#63b8ff" stroke="#63b8ff" points="1062.18,-326.53 1052.74,-331.35 1063.12,-333.47 1062.18,-326.53"/>
</a>
</g>
</g>
<!-- Node18&#45;&gt;Node7 -->
<g id="edge39_Node000018_Node000007" class="edge">
<title>Node18&#45;&gt;Node7</title>
<g id="a_edge39_Node000018_Node000007"><a xlink:title=" ">
<path fill="none" stroke="#63b8ff" d="M1062.39,-328.45C1116.19,-317.52 1182.18,-303.27 1209,-294 1317.46,-256.52 1438.04,-190.85 1488.6,-162.12"/>
<polygon fill="#63b8ff" stroke="#63b8ff" points="1061.61,-325.03 1052.5,-330.45 1063,-331.89 1061.61,-325.03"/>
</a>
</g>
</g>
<!-- Node18&#45;&gt;Node8 -->
<g id="edge40_Node000018_Node000008" class="edge">
<title>Node18&#45;&gt;Node8</title>
<g id="a_edge40_Node000018_Node000008"><a xlink:title=" ">
<path fill="none" stroke="#63b8ff" d="M1062.94,-329.93C1196.19,-310.86 1233.31,-321.32 1361,-294 1440.51,-276.99 1530.66,-246.14 1580.26,-228.13"/>
<polygon fill="#63b8ff" stroke="#63b8ff" points="1062.14,-326.51 1052.75,-331.42 1063.15,-333.44 1062.14,-326.51"/>
</a>
</g>
</g>
<!-- Node18&#45;&gt;Node9 -->
<g id="edge33_Node000018_Node000009" class="edge">
<title>Node18&#45;&gt;Node9</title>
<g id="a_edge33_Node000018_Node000009"><a xlink:title=" ">
<path fill="none" stroke="#63b8ff" d="M903.07,-329.93C764.15,-309.97 726.98,-313.02 592,-294 587.46,-293.36 582.79,-292.67 578.09,-291.95"/>
<polygon fill="#63b8ff" stroke="#63b8ff" points="902.85,-333.43 913.25,-331.4 903.86,-326.5 902.85,-333.43"/>
</a>
</g>
</g>
<!-- Node18&#45;&gt;Node12 -->
<g id="edge38_Node000018_Node000012" class="edge">
<title>Node18&#45;&gt;Node12</title>
<g id="a_edge38_Node000018_Node000012"><a xlink:title=" ">
<path fill="none" stroke="#63b8ff" d="M972.42,-320.14C966.66,-303.26 962.6,-280.74 973,-264 1008.49,-206.91 1081.29,-177.08 1136.52,-162.06"/>
<polygon fill="#63b8ff" stroke="#63b8ff" points="969.28,-321.73 976.12,-329.82 975.82,-319.23 969.28,-321.73"/>
</a>
</g>
</g>
<!-- Node18&#45;&gt;Node14 -->
<g id="edge41_Node000018_Node000014" class="edge">
<title>Node18&#45;&gt;Node14</title>
<g id="a_edge41_Node000018_Node000014"><a xlink:title=" ">
<path fill="none" stroke="#63b8ff" d="M972.89,-320.46C950.57,-268.68 898.09,-148.25 886,-132 875.62,-118.06 860.79,-105.2 848.86,-96.02"/>
<polygon fill="#63b8ff" stroke="#63b8ff" points="969.77,-322.04 976.93,-329.84 976.19,-319.27 969.77,-322.04"/>
</a>
</g>
</g>
<!-- Node18&#45;&gt;Node15 -->
<g id="edge42_Node000018_Node000015" class="edge">
<title>Node18&#45;&gt;Node15</title>
<g id="a_edge42_Node000018_Node000015"><a xlink:title=" ">
<path fill="none" stroke="#63b8ff" d="M1054.02,-327.2C1084.88,-318.32 1116.04,-306.66 1125,-294 1160.19,-244.3 1080.9,-187.95 1037.68,-162.2"/>
<polygon fill="#63b8ff" stroke="#63b8ff" points="1052.74,-323.92 1044.04,-329.98 1054.61,-330.66 1052.74,-323.92"/>
</a>
</g>
</g>
<!-- Node18&#45;&gt;Node16 -->
<g id="edge43_Node000018_Node000016" class="edge">
<title>Node18&#45;&gt;Node16</title>
<g id="a_edge43_Node000018_Node000016"><a xlink:title=" ">
<path fill="none" stroke="#63b8ff" d="M926.36,-326.88C863.49,-306.91 759.82,-271.07 676,-228 633.46,-206.14 587.6,-172.37 567.05,-156.63"/>
<polygon fill="#63b8ff" stroke="#63b8ff" points="925.5,-330.28 936.09,-329.95 927.61,-323.6 925.5,-330.28"/>
</a>
</g>
</g>
<!-- Node18&#45;&gt;Node17 -->
<g id="edge44_Node000018_Node000017" class="edge">
<title>Node18&#45;&gt;Node17</title>
<g id="a_edge44_Node000018_Node000017"><a xlink:title=" ">
<path fill="none" stroke="#63b8ff" d="M936.94,-325.59C921.02,-317.61 903.94,-307.06 891,-294 857,-259.68 867.7,-237.58 840,-198 829.02,-182.31 813.64,-166.2 804,-156.65"/>
<polygon fill="#63b8ff" stroke="#63b8ff" points="935.61,-328.83 946.14,-329.99 938.63,-322.52 935.61,-328.83"/>
</a>
</g>
</g>
<!-- Node19 -->
<g id="Node000019" class="node">
<title>Node19</title>
<g id="a_Node000019"><a xlink:href="BusManager_8cpp.html" target="_top" xlink:title=" ">
<polygon fill="white" stroke="#666666" points="1116,-294 982,-294 982,-264 1116,-264 1116,-294"/>
<text text-anchor="start" x="990" y="-282" font-family="Helvetica,sans-Serif" font-size="10.00">main/ceo/managers/bus</text>
<text text-anchor="middle" x="1049" y="-271" font-family="Helvetica,sans-Serif" font-size="10.00">/BusManager.cpp</text>
</a>
</g>
</g>
<!-- Node18&#45;&gt;Node19 -->
<g id="edge37_Node000018_Node000019" class="edge">
<title>Node18&#45;&gt;Node19</title>
<g id="a_edge37_Node000018_Node000019"><a xlink:title=" ">
<path fill="none" stroke="#63b8ff" d="M1005.02,-322.65C1014.69,-313.27 1025.77,-302.53 1034.39,-294.16"/>
<polygon fill="#63b8ff" stroke="#63b8ff" points="1002.39,-320.32 997.65,-329.8 1007.26,-325.35 1002.39,-320.32"/>
</a>
</g>
</g>
<!-- Node20&#45;&gt;Node10 -->
<g id="edge48_Node000020_Node000010" class="edge">
<title>Node20&#45;&gt;Node10</title>
<g id="a_edge48_Node000020_Node000010"><a xlink:title=" ">
<path fill="none" stroke="#63b8ff" d="M592.28,-392.02C547.16,-372.68 477.99,-338.6 429,-294 384.7,-253.67 349.87,-190.07 335.78,-162.05"/>
<polygon fill="#63b8ff" stroke="#63b8ff" points="590.96,-395.26 601.53,-395.93 593.68,-388.81 590.96,-395.26"/>
</a>
</g>
</g>
<!-- Node20&#45;&gt;Node11 -->
<g id="edge49_Node000020_Node000011" class="edge">
<title>Node20&#45;&gt;Node11</title>
<g id="a_edge49_Node000020_Node000011"><a xlink:title=" ">
<path fill="none" stroke="#63b8ff" d="M593.42,-390.81C580.99,-383.14 569,-372.98 562,-360 555.67,-348.26 555.4,-341.58 562,-330 592.94,-275.73 660.35,-244.26 707.43,-228.12"/>
<polygon fill="#63b8ff" stroke="#63b8ff" points="592.05,-394.06 602.47,-395.96 595.51,-387.98 592.05,-394.06"/>
</a>
</g>
</g>
<!-- Node20&#45;&gt;Node18 -->
<g id="edge47_Node000020_Node000018" class="edge">
<title>Node20&#45;&gt;Node18</title>
<g id="a_edge47_Node000020_Node000018"><a xlink:title=" ">
<path fill="none" stroke="#63b8ff" d="M715.42,-395.64C774.83,-384.62 856.12,-369.54 913.47,-358.9"/>
<polygon fill="#63b8ff" stroke="#63b8ff" points="714.53,-392.24 705.34,-397.51 715.81,-399.13 714.53,-392.24"/>
</a>
</g>
</g>
<!-- Node21 -->
<g id="Node000021" class="node">
<title>Node21</title>
<g id="a_Node000021"><a xlink:href="I2CBus_8cpp.html" target="_top" xlink:title=" ">
<polygon fill="white" stroke="#666666" points="705,-360 571,-360 571,-330 705,-330 705,-360"/>
<text text-anchor="start" x="579" y="-348" font-family="Helvetica,sans-Serif" font-size="10.00">main/ceo/managers/bus</text>
<text text-anchor="middle" x="638" y="-337" font-family="Helvetica,sans-Serif" font-size="10.00">/I2CBus.cpp</text>
</a>
</g>
</g>
<!-- Node20&#45;&gt;Node21 -->
<g id="edge46_Node000020_Node000021" class="edge">
<title>Node20&#45;&gt;Node21</title>
<g id="a_edge46_Node000020_Node000021"><a xlink:title=" ">
<path fill="none" stroke="#63b8ff" d="M638,-385.54C638,-376.96 638,-367.61 638,-360.16"/>
<polygon fill="#63b8ff" stroke="#63b8ff" points="634.5,-385.8 638,-395.8 641.5,-385.8 634.5,-385.8"/>
</a>
</g>
</g>
<!-- Node22&#45;&gt;Node18 -->
<g id="edge52_Node000022_Node000018" class="edge">
<title>Node22&#45;&gt;Node18</title>
<g id="a_edge52_Node000022_Node000018"><a xlink:title=" ">
<path fill="none" stroke="#63b8ff" d="M939.69,-388.65C949.21,-379.27 960.12,-368.53 968.61,-360.16"/>
<polygon fill="#63b8ff" stroke="#63b8ff" points="937.1,-386.29 932.43,-395.8 942.01,-391.27 937.1,-386.29"/>
</a>
</g>
</g>
<!-- Node23 -->
<g id="Node000023" class="node">
<title>Node23</title>
<g id="a_Node000023"><a xlink:href="SPIBus_8cpp.html" target="_top" xlink:title=" ">
<polygon fill="white" stroke="#666666" points="895,-360 761,-360 761,-330 895,-330 895,-360"/>
<text text-anchor="start" x="769" y="-348" font-family="Helvetica,sans-Serif" font-size="10.00">main/ceo/managers/bus</text>
<text text-anchor="middle" x="828" y="-337" font-family="Helvetica,sans-Serif" font-size="10.00">/SPIBus.cpp</text>
</a>
</g>
</g>
<!-- Node22&#45;&gt;Node23 -->
<g id="edge51_Node000022_Node000023" class="edge">
<title>Node22&#45;&gt;Node23</title>
<g id="a_edge51_Node000022_Node000023"><a xlink:title=" ">
<path fill="none" stroke="#63b8ff" d="M889.53,-389.75C875.99,-380.13 860.14,-368.86 847.92,-360.16"/>
<polygon fill="#63b8ff" stroke="#63b8ff" points="887.85,-392.85 898.03,-395.8 891.9,-387.15 887.85,-392.85"/>
</a>
</g>
</g>
<!-- Node24&#45;&gt;Node18 -->
<g id="edge55_Node000024_Node000018" class="edge">
<title>Node24&#45;&gt;Node18</title>
<g id="a_edge55_Node000024_Node000018"><a xlink:title=" ">
<path fill="none" stroke="#63b8ff" d="M1071.63,-391.38C1052.07,-381.36 1028.35,-369.22 1010.37,-360.01"/>
<polygon fill="#63b8ff" stroke="#63b8ff" points="1070.07,-394.51 1080.57,-395.95 1073.26,-388.28 1070.07,-394.51"/>
</a>
</g>
</g>
<!-- Node25 -->
<g id="Node000025" class="node">
<title>Node25</title>
<g id="a_Node000025"><a xlink:href="UARTBus_8cpp.html" target="_top" xlink:title=" ">
<polygon fill="white" stroke="#666666" points="1205,-360 1071,-360 1071,-330 1205,-330 1205,-360"/>
<text text-anchor="start" x="1079" y="-348" font-family="Helvetica,sans-Serif" font-size="10.00">main/ceo/managers/bus</text>
<text text-anchor="middle" x="1138" y="-337" font-family="Helvetica,sans-Serif" font-size="10.00">/UARTBus.cpp</text>
</a>
</g>
</g>
<!-- Node24&#45;&gt;Node25 -->
<g id="edge54_Node000024_Node000025" class="edge">
<title>Node24&#45;&gt;Node25</title>
<g id="a_edge54_Node000024_Node000025"><a xlink:title=" ">
<path fill="none" stroke="#63b8ff" d="M1118.93,-386.68C1123.1,-377.79 1127.71,-367.95 1131.36,-360.16"/>
<polygon fill="#63b8ff" stroke="#63b8ff" points="1115.73,-385.26 1114.66,-395.8 1122.07,-388.23 1115.73,-385.26"/>
</a>
</g>
</g>
<!-- Node27&#45;&gt;Node5 -->
<g id="edge60_Node000027_Node000005" class="edge">
<title>Node27&#45;&gt;Node5</title>
<g id="a_edge60_Node000027_Node000005"><a xlink:title=" ">
<path fill="none" stroke="#63b8ff" d="M1672.29,-390.6C1684.74,-382.68 1697.46,-372.43 1706,-360 1726.69,-329.87 1725,-316.54 1725,-280 1725,-280 1725,-280 1725,-146 1725,-58.43 1423.06,-27.97 1298.63,-19.13"/>
<polygon fill="#63b8ff" stroke="#63b8ff" points="1670.13,-387.81 1663.34,-395.94 1673.72,-393.82 1670.13,-387.81"/>
</a>
</g>
</g>
<!-- Node28 -->
<g id="Node000028" class="node">
<title>Node28</title>
<g id="a_Node000028"><a xlink:href="PinManager_8cpp.html" target="_top" xlink:title=" ">
<polygon fill="white" stroke="#666666" points="1696.5,-360 1565.5,-360 1565.5,-330 1696.5,-330 1696.5,-360"/>
<text text-anchor="start" x="1573.5" y="-348" font-family="Helvetica,sans-Serif" font-size="10.00">main/ceo/managers/pin</text>
<text text-anchor="middle" x="1631" y="-337" font-family="Helvetica,sans-Serif" font-size="10.00">/PinManager.cpp</text>
</a>
</g>
</g>
<!-- Node27&#45;&gt;Node28 -->
<g id="edge61_Node000027_Node000028" class="edge">
<title>Node27&#45;&gt;Node28</title>
<g id="a_edge61_Node000027_Node000028"><a xlink:title=" ">
<path fill="none" stroke="#63b8ff" d="M1632.24,-385.54C1631.97,-376.96 1631.68,-367.61 1631.44,-360.16"/>
<polygon fill="#63b8ff" stroke="#63b8ff" points="1628.75,-385.91 1632.56,-395.8 1635.74,-385.69 1628.75,-385.91"/>
</a>
</g>
</g>
<!-- Node30&#45;&gt;Node5 -->
<g id="edge70_Node000030_Node000005" class="edge">
<title>Node30&#45;&gt;Node5</title>
<g id="a_edge70_Node000030_Node000005"><a xlink:title=" ">
<path fill="none" stroke="#63b8ff" d="M1886.88,-391.81C1902.55,-384.23 1918.23,-373.87 1929,-360 1951.35,-331.21 1947,-316.44 1947,-280 1947,-280 1947,-280 1947,-146 1947,-80.09 1461.71,-33.86 1298.69,-20.19"/>
<polygon fill="#63b8ff" stroke="#63b8ff" points="1885.37,-388.65 1877.7,-395.96 1888.25,-395.03 1885.37,-388.65"/>
</a>
</g>
</g>
<!-- Node30&#45;&gt;Node29 -->
<g id="edge71_Node000030_Node000029" class="edge">
<title>Node30&#45;&gt;Node29</title>
<g id="a_edge71_Node000030_Node000029"><a xlink:title=" ">
<path fill="none" stroke="#63b8ff" d="M1832.91,-385.6C1833.75,-374.8 1834.69,-362.78 1835.31,-354.84"/>
<polygon fill="#63b8ff" stroke="#63b8ff" points="1829.4,-385.55 1832.11,-395.8 1836.38,-386.1 1829.4,-385.55"/>
</a>
</g>
</g>
</g>
</svg>
