<?xml version="1.0" encoding="UTF-8" standalone="no"?>
<!DOCTYPE svg PUBLIC "-//W3C//DTD SVG 1.1//EN"
 "http://www.w3.org/Graphics/SVG/1.1/DTD/svg11.dtd">
<!-- Generated by graphviz version 2.43.0 (0)
 -->
<!-- Title: main/ceo/managers/data/DataManager.cpp Pages: 1 -->
<svg width="772pt" height="148pt"
 viewBox="0.00 0.00 772.00 148.00" xmlns="http://www.w3.org/2000/svg" xmlns:xlink="http://www.w3.org/1999/xlink">
<g id="graph0" class="graph" transform="scale(1 1) rotate(0) translate(4 144)">
<title>main/ceo/managers/data/DataManager.cpp</title>
<!-- Node1 -->
<g id="Node000001" class="node">
<title>Node1</title>
<g id="a_Node000001"><a xlink:title=" ">
<polygon fill="#999999" stroke="#666666" points="520.5,-140 382.5,-140 382.5,-110 520.5,-110 520.5,-140"/>
<text text-anchor="start" x="390.5" y="-128" font-family="Helvetica,sans-Serif" font-size="10.00">main/ceo/managers/data</text>
<text text-anchor="middle" x="451.5" y="-117" font-family="Helvetica,sans-Serif" font-size="10.00">/DataManager.cpp</text>
</a>
</g>
</g>
<!-- Node2 -->
<g id="Node000002" class="node">
<title>Node2</title>
<g id="a_Node000002"><a xlink:href="DataManager_8hpp.html" target="_top" xlink:title="The collective consciousness and unified system state mirror.">
<polygon fill="white" stroke="#666666" points="463,-74 360,-74 360,-55 463,-55 463,-74"/>
<text text-anchor="middle" x="411.5" y="-62" font-family="Helvetica,sans-Serif" font-size="10.00">DataManager.hpp</text>
</a>
</g>
</g>
<!-- Node1&#45;&gt;Node2 -->
<g id="edge1_Node000001_Node000002" class="edge">
<title>Node1&#45;&gt;Node2</title>
<g id="a_edge1_Node000001_Node000002"><a xlink:title=" ">
<path fill="none" stroke="#63b8ff" d="M441.82,-109.84C436.25,-101.69 429.21,-91.4 423.32,-82.78"/>
<polygon fill="#63b8ff" stroke="#63b8ff" points="426.03,-80.55 417.49,-74.27 420.25,-84.5 426.03,-80.55"/>
</a>
</g>
</g>
<!-- Node9 -->
<g id="Node000009" class="node">
<title>Node9</title>
<g id="a_Node000009"><a xlink:title=" ">
<polygon fill="#e0e0e0" stroke="#999999" points="764,-19 701,-19 701,0 764,0 764,-19"/>
<text text-anchor="middle" x="732.5" y="-7" font-family="Helvetica,sans-Serif" font-size="10.00">esp_log.h</text>
</a>
</g>
</g>
<!-- Node1&#45;&gt;Node9 -->
<g id="edge10_Node000001_Node000009" class="edge">
<title>Node1&#45;&gt;Node9</title>
<g id="a_edge10_Node000001_Node000009"><a xlink:title=" ">
<path fill="none" stroke="#63b8ff" d="M486.24,-109.97C541.56,-87.63 648.79,-44.31 701.59,-22.98"/>
<polygon fill="#63b8ff" stroke="#63b8ff" points="703.14,-26.14 711.1,-19.14 700.51,-19.64 703.14,-26.14"/>
</a>
</g>
</g>
<!-- Node3 -->
<g id="Node000003" class="node">
<title>Node3</title>
<g id="a_Node000003"><a xlink:title=" ">
<polygon fill="#e0e0e0" stroke="#999999" points="53,-19 0,-19 0,0 53,0 53,-19"/>
<text text-anchor="middle" x="26.5" y="-7" font-family="Helvetica,sans-Serif" font-size="10.00">stdint.h</text>
</a>
</g>
</g>
<!-- Node2&#45;&gt;Node3 -->
<g id="edge2_Node000002_Node000003" class="edge">
<title>Node2&#45;&gt;Node3</title>
<g id="a_edge2_Node000002_Node000003"><a xlink:title=" ">
<path fill="none" stroke="#63b8ff" d="M359.92,-58.76C293.41,-52.25 174.02,-39.2 63.2,-19.14"/>
<polygon fill="#63b8ff" stroke="#63b8ff" points="63.65,-15.67 53.19,-17.31 62.39,-22.55 63.65,-15.67"/>
</a>
</g>
</g>
<!-- Node4 -->
<g id="Node000004" class="node">
<title>Node4</title>
<g id="a_Node000004"><a xlink:title=" ">
<polygon fill="#e0e0e0" stroke="#999999" points="124,-19 71,-19 71,0 124,0 124,-19"/>
<text text-anchor="middle" x="97.5" y="-7" font-family="Helvetica,sans-Serif" font-size="10.00">string.h</text>
</a>
</g>
</g>
<!-- Node2&#45;&gt;Node4 -->
<g id="edge3_Node000002_Node000004" class="edge">
<title>Node2&#45;&gt;Node4</title>
<g id="a_edge3_Node000002_Node000004"><a xlink:title=" ">
<path fill="none" stroke="#63b8ff" d="M359.86,-56.53C305.83,-48.95 218.35,-35.88 134.18,-19.22"/>
<polygon fill="#63b8ff" stroke="#63b8ff" points="134.7,-15.75 124.2,-17.22 133.32,-22.61 134.7,-15.75"/>
</a>
</g>
</g>
<!-- Node5 -->
<g id="Node000005" class="node">
<title>Node5</title>
<g id="a_Node000005"><a xlink:title=" ">
<polygon fill="#e0e0e0" stroke="#999999" points="211,-19 142,-19 142,0 211,0 211,-19"/>
<text text-anchor="middle" x="176.5" y="-7" font-family="Helvetica,sans-Serif" font-size="10.00">type_traits</text>
</a>
</g>
</g>
<!-- Node2&#45;&gt;Node5 -->
<g id="edge4_Node000002_Node000005" class="edge">
<title>Node2&#45;&gt;Node5</title>
<g id="a_edge4_Node000002_Node000005"><a xlink:title=" ">
<path fill="none" stroke="#63b8ff" d="M373.74,-54.98C332.1,-45.59 265.14,-30.49 220.98,-20.53"/>
<polygon fill="#63b8ff" stroke="#63b8ff" points="221.63,-17.09 211.1,-18.3 220.09,-23.92 221.63,-17.09"/>
</a>
</g>
</g>
<!-- Node6 -->
<g id="Node000006" class="node">
<title>Node6</title>
<g id="a_Node000006"><a xlink:title=" ">
<polygon fill="#e0e0e0" stroke="#999999" points="342,-19 229,-19 229,0 342,0 342,-19"/>
<text text-anchor="middle" x="285.5" y="-7" font-family="Helvetica,sans-Serif" font-size="10.00">freertos/FreeRTOS.h</text>
</a>
</g>
</g>
<!-- Node2&#45;&gt;Node6 -->
<g id="edge5_Node000002_Node000006" class="edge">
<title>Node2&#45;&gt;Node6</title>
<g id="a_edge5_Node000002_Node000006"><a xlink:title=" ">
<path fill="none" stroke="#63b8ff" d="M391.26,-54.98C370.8,-46.38 338.97,-32.99 315.57,-23.15"/>
<polygon fill="#63b8ff" stroke="#63b8ff" points="316.69,-19.82 306.11,-19.17 313.97,-26.27 316.69,-19.82"/>
</a>
</g>
</g>
<!-- Node7 -->
<g id="Node000007" class="node">
<title>Node7</title>
<g id="a_Node000007"><a xlink:title=" ">
<polygon fill="#e0e0e0" stroke="#999999" points="463,-19 360,-19 360,0 463,0 463,-19"/>
<text text-anchor="middle" x="411.5" y="-7" font-family="Helvetica,sans-Serif" font-size="10.00">freertos/semphr.h</text>
</a>
</g>
</g>
<!-- Node2&#45;&gt;Node7 -->
<g id="edge6_Node000002_Node000007" class="edge">
<title>Node2&#45;&gt;Node7</title>
<g id="a_edge6_Node000002_Node000007"><a xlink:title=" ">
<path fill="none" stroke="#63b8ff" d="M411.5,-54.75C411.5,-47.8 411.5,-37.85 411.5,-29.13"/>
<polygon fill="#63b8ff" stroke="#63b8ff" points="415,-29.09 411.5,-19.09 408,-29.09 415,-29.09"/>
</a>
</g>
</g>
<!-- Node8 -->
<g id="Node000008" class="node">
<title>Node8</title>
<g id="a_Node000008"><a xlink:title=" ">
<polygon fill="#e0e0e0" stroke="#999999" points="581.5,-19 481.5,-19 481.5,0 581.5,0 581.5,-19"/>
<text text-anchor="middle" x="531.5" y="-7" font-family="Helvetica,sans-Serif" font-size="10.00">esp_heap_caps.h</text>
</a>
</g>
</g>
<!-- Node2&#45;&gt;Node8 -->
<g id="edge7_Node000002_Node000008" class="edge">
<title>Node2&#45;&gt;Node8</title>
<g id="a_edge7_Node000002_Node000008"><a xlink:title=" ">
<path fill="none" stroke="#63b8ff" d="M430.78,-54.98C450.17,-46.42 480.31,-33.11 502.57,-23.28"/>
<polygon fill="#63b8ff" stroke="#63b8ff" points="504.14,-26.41 511.87,-19.17 501.31,-20.01 504.14,-26.41"/>
</a>
</g>
</g>
<!-- Node2&#45;&gt;Node9 -->
<g id="edge8_Node000002_Node000009" class="edge">
<title>Node2&#45;&gt;Node9</title>
<g id="a_edge8_Node000002_Node000009"><a xlink:title=" ">
<path fill="none" stroke="#63b8ff" d="M463.17,-56.15C517.5,-48.23 605.69,-34.85 690.59,-19.28"/>
<polygon fill="#63b8ff" stroke="#63b8ff" points="691.46,-22.68 700.65,-17.42 690.18,-15.8 691.46,-22.68"/>
</a>
</g>
</g>
<!-- Node10 -->
<g id="Node000010" class="node">
<title>Node10</title>
<g id="a_Node000010"><a xlink:href="IManager_8hpp.html" target="_top" xlink:title="The abstract behavioral contract for all managers.">
<polygon fill="white" stroke="#666666" points="683,-19 600,-19 600,0 683,0 683,-19"/>
<text text-anchor="middle" x="641.5" y="-7" font-family="Helvetica,sans-Serif" font-size="10.00">IManager.hpp</text>
</a>
</g>
</g>
<!-- Node2&#45;&gt;Node10 -->
<g id="edge9_Node000002_Node000010" class="edge">
<title>Node2&#45;&gt;Node10</title>
<g id="a_edge9_Node000002_Node000010"><a xlink:title=" ">
<path fill="none" stroke="#63b8ff" d="M448.45,-54.98C488.07,-45.86 551.09,-31.33 594.27,-21.38"/>
<polygon fill="#63b8ff" stroke="#63b8ff" points="595.3,-24.74 604.26,-19.08 593.73,-17.92 595.3,-24.74"/>
</a>
</g>
</g>
</g>
</svg>
