<?xml version="1.0" encoding="UTF-8" standalone="no"?>
<!DOCTYPE svg PUBLIC "-//W3C//DTD SVG 1.1//EN"
 "http://www.w3.org/Graphics/SVG/1.1/DTD/svg11.dtd">
<!-- Generated by graphviz version 2.43.0 (0)
 -->
<!-- Title: main/ceo/managers/data/include/DataManager.hpp Pages: 1 -->
<svg width="772pt" height="93pt"
 viewBox="0.00 0.00 772.00 93.00" xmlns="http://www.w3.org/2000/svg" xmlns:xlink="http://www.w3.org/1999/xlink">
<g id="graph0" class="graph" transform="scale(1 1) rotate(0) translate(4 89)">
<title>main/ceo/managers/data/include/DataManager.hpp</title>
<!-- Node1 -->
<g id="Node000001" class="node">
<title>Node1</title>
<g id="a_Node000001"><a xlink:title="The collective consciousness and unified system state mirror.">
<polygon fill="#999999" stroke="#666666" points="420.5,-85 276.5,-85 276.5,-55 420.5,-55 420.5,-85"/>
<text text-anchor="start" x="284.5" y="-73" font-family="Helvetica,sans-Serif" font-size="10.00">main/ceo/managers/data</text>
<text text-anchor="middle" x="348.5" y="-62" font-family="Helvetica,sans-Serif" font-size="10.00">/include/DataManager.hpp</text>
</a>
</g>
</g>
<!-- Node2 -->
<g id="Node000002" class="node">
<title>Node2</title>
<g id="a_Node000002"><a xlink:title=" ">
<polygon fill="#e0e0e0" stroke="#999999" points="53,-19 0,-19 0,0 53,0 53,-19"/>
<text text-anchor="middle" x="26.5" y="-7" font-family="Helvetica,sans-Serif" font-size="10.00">stdint.h</text>
</a>
</g>
</g>
<!-- Node1&#45;&gt;Node2 -->
<g id="edge1_Node000001_Node000002" class="edge">
<title>Node1&#45;&gt;Node2</title>
<g id="a_edge1_Node000001_Node000002"><a xlink:title=" ">
<path fill="none" stroke="#63b8ff" d="M276.3,-57.77C220.5,-48.78 141.12,-35.32 63.2,-19.25"/>
<polygon fill="#63b8ff" stroke="#63b8ff" points="63.72,-15.79 53.21,-17.18 62.29,-22.64 63.72,-15.79"/>
</a>
</g>
</g>
<!-- Node3 -->
<g id="Node000003" class="node">
<title>Node3</title>
<g id="a_Node000003"><a xlink:title=" ">
<polygon fill="#e0e0e0" stroke="#999999" points="124,-19 71,-19 71,0 124,0 124,-19"/>
<text text-anchor="middle" x="97.5" y="-7" font-family="Helvetica,sans-Serif" font-size="10.00">string.h</text>
</a>
</g>
</g>
<!-- Node1&#45;&gt;Node3 -->
<g id="edge2_Node000001_Node000003" class="edge">
<title>Node1&#45;&gt;Node3</title>
<g id="a_edge2_Node000001_Node000003"><a xlink:title=" ">
<path fill="none" stroke="#63b8ff" d="M287.01,-54.95C246.13,-45.57 190.99,-32.83 134.13,-19.37"/>
<polygon fill="#63b8ff" stroke="#63b8ff" points="134.78,-15.93 124.25,-17.03 133.17,-22.74 134.78,-15.93"/>
</a>
</g>
</g>
<!-- Node4 -->
<g id="Node000004" class="node">
<title>Node4</title>
<g id="a_Node000004"><a xlink:title=" ">
<polygon fill="#e0e0e0" stroke="#999999" points="211,-19 142,-19 142,0 211,0 211,-19"/>
<text text-anchor="middle" x="176.5" y="-7" font-family="Helvetica,sans-Serif" font-size="10.00">type_traits</text>
</a>
</g>
</g>
<!-- Node1&#45;&gt;Node4 -->
<g id="edge3_Node000001_Node000004" class="edge">
<title>Node1&#45;&gt;Node4</title>
<g id="a_edge3_Node000001_Node000004"><a xlink:title=" ">
<path fill="none" stroke="#63b8ff" d="M307.3,-54.99C278,-45.02 239.08,-31.78 211.33,-22.35"/>
<polygon fill="#63b8ff" stroke="#63b8ff" points="212.24,-18.96 201.65,-19.05 209.99,-25.59 212.24,-18.96"/>
</a>
</g>
</g>
<!-- Node5 -->
<g id="Node000005" class="node">
<title>Node5</title>
<g id="a_Node000005"><a xlink:title=" ">
<polygon fill="#e0e0e0" stroke="#999999" points="342,-19 229,-19 229,0 342,0 342,-19"/>
<text text-anchor="middle" x="285.5" y="-7" font-family="Helvetica,sans-Serif" font-size="10.00">freertos/FreeRTOS.h</text>
</a>
</g>
</g>
<!-- Node1&#45;&gt;Node5 -->
<g id="edge4_Node000001_Node000005" class="edge">
<title>Node1&#45;&gt;Node5</title>
<g id="a_edge4_Node000001_Node000005"><a xlink:title=" ">
<path fill="none" stroke="#63b8ff" d="M333.25,-54.84C323.92,-46.17 311.97,-35.08 302.35,-26.15"/>
<polygon fill="#63b8ff" stroke="#63b8ff" points="304.65,-23.51 294.94,-19.27 299.89,-28.64 304.65,-23.51"/>
</a>
</g>
</g>
<!-- Node6 -->
<g id="Node000006" class="node">
<title>Node6</title>
<g id="a_Node000006"><a xlink:title=" ">
<polygon fill="#e0e0e0" stroke="#999999" points="463,-19 360,-19 360,0 463,0 463,-19"/>
<text text-anchor="middle" x="411.5" y="-7" font-family="Helvetica,sans-Serif" font-size="10.00">freertos/semphr.h</text>
</a>
</g>
</g>
<!-- Node1&#45;&gt;Node6 -->
<g id="edge5_Node000001_Node000006" class="edge">
<title>Node1&#45;&gt;Node6</title>
<g id="a_edge5_Node000001_Node000006"><a xlink:title=" ">
<path fill="none" stroke="#63b8ff" d="M363.75,-54.84C373.08,-46.17 385.03,-35.08 394.65,-26.15"/>
<polygon fill="#63b8ff" stroke="#63b8ff" points="397.11,-28.64 402.06,-19.27 392.35,-23.51 397.11,-28.64"/>
</a>
</g>
</g>
<!-- Node7 -->
<g id="Node000007" class="node">
<title>Node7</title>
<g id="a_Node000007"><a xlink:title=" ">
<polygon fill="#e0e0e0" stroke="#999999" points="581.5,-19 481.5,-19 481.5,0 581.5,0 581.5,-19"/>
<text text-anchor="middle" x="531.5" y="-7" font-family="Helvetica,sans-Serif" font-size="10.00">esp_heap_caps.h</text>
</a>
</g>
</g>
<!-- Node1&#45;&gt;Node7 -->
<g id="edge6_Node000001_Node000007" class="edge">
<title>Node1&#45;&gt;Node7</title>
<g id="a_edge6_Node000001_Node000007"><a xlink:title=" ">
<path fill="none" stroke="#63b8ff" d="M392.33,-54.99C423.64,-44.98 465.28,-31.67 494.83,-22.22"/>
<polygon fill="#63b8ff" stroke="#63b8ff" points="496.28,-25.43 504.74,-19.05 494.15,-18.76 496.28,-25.43"/>
</a>
</g>
</g>
<!-- Node8 -->
<g id="Node000008" class="node">
<title>Node8</title>
<g id="a_Node000008"><a xlink:title=" ">
<polygon fill="#e0e0e0" stroke="#999999" points="663,-19 600,-19 600,0 663,0 663,-19"/>
<text text-anchor="middle" x="631.5" y="-7" font-family="Helvetica,sans-Serif" font-size="10.00">esp_log.h</text>
</a>
</g>
</g>
<!-- Node1&#45;&gt;Node8 -->
<g id="edge7_Node000001_Node000008" class="edge">
<title>Node1&#45;&gt;Node8</title>
<g id="a_edge7_Node000001_Node000008"><a xlink:title=" ">
<path fill="none" stroke="#63b8ff" d="M416.57,-54.95C462.69,-45.42 525.32,-32.49 589.78,-19.15"/>
<polygon fill="#63b8ff" stroke="#63b8ff" points="590.63,-22.55 599.72,-17.09 589.21,-15.69 590.63,-22.55"/>
</a>
</g>
</g>
<!-- Node9 -->
<g id="Node000009" class="node">
<title>Node9</title>
<g id="a_Node000009"><a xlink:href="IManager_8hpp.html" target="_top" xlink:title="The abstract behavioral contract for all managers.">
<polygon fill="white" stroke="#666666" points="764,-19 681,-19 681,0 764,0 764,-19"/>
<text text-anchor="middle" x="722.5" y="-7" font-family="Helvetica,sans-Serif" font-size="10.00">IManager.hpp</text>
</a>
</g>
</g>
<!-- Node1&#45;&gt;Node9 -->
<g id="edge8_Node000001_Node000009" class="edge">
<title>Node1&#45;&gt;Node9</title>
<g id="a_edge8_Node000001_Node000009"><a xlink:title=" ">
<path fill="none" stroke="#63b8ff" d="M420.61,-58.19C484,-48.62 579.01,-34.09 670.75,-19.27"/>
<polygon fill="#63b8ff" stroke="#63b8ff" points="671.45,-22.7 680.77,-17.64 670.34,-15.79 671.45,-22.7"/>
</a>
</g>
</g>
</g>
</svg>
