<?xml version="1.0" encoding="UTF-8" standalone="no"?>
<!DOCTYPE svg PUBLIC "-//W3C//DTD SVG 1.1//EN"
 "http://www.w3.org/Graphics/SVG/1.1/DTD/svg11.dtd">
<!-- Generated by graphviz version 2.43.0 (0)
 -->
<!-- Title: main/ceo/managers/time Pages: 1 -->
<svg width="242pt" height="196pt"
 viewBox="0.00 0.00 241.50 196.00" xmlns="http://www.w3.org/2000/svg" xmlns:xlink="http://www.w3.org/1999/xlink">
<g id="graph0" class="graph" transform="scale(1 1) rotate(0) translate(4 192)">
<title>main/ceo/managers/time</title>
<g id="clust1" class="cluster">
<title>clusterdir_850aa22a015276891fa6057cf395aea5</title>
<g id="a_clust1"><a xlink:href="dir_850aa22a015276891fa6057cf395aea5.html" target="_top" xlink:title="managers">
<polygon fill="#edf0f7" stroke="#7f7f7f" stroke-dasharray="5,2" points="8,-8 8,-180 148,-180 148,-8 8,-8"/>
<text text-anchor="middle" x="78" y="-168" font-family="Helvetica,sans-Serif" font-size="10.00">managers</text>
</a>
</g>
</g>
<g id="clust2" class="cluster">
<title>clusterdir_e4b9c6f7e7339e84c015f7e12cbe2261</title>
<g id="a_clust2"><a xlink:href="dir_e4b9c6f7e7339e84c015f7e12cbe2261.html" target="_top">
<polygon fill="#edf0f7" stroke="#404040" stroke-width="2" points="16,-63 16,-153 140,-153 140,-63 16,-63"/>
</a>
</g>
</g>
<!-- dir_1076dd02d5eb8cf6d0e12dcc1217a0a2 -->
<g id="node1" class="node">
<title>dir_1076dd02d5eb8cf6d0e12dcc1217a0a2</title>
<g id="a_node1"><a xlink:href="dir_1076dd02d5eb8cf6d0e12dcc1217a0a2.html" target="_top" xlink:title="bus">
<polygon fill="#a2b4d6" stroke="red" points="70,-35 36,-35 36,-16 70,-16 70,-35"/>
<text text-anchor="middle" x="53" y="-23" font-family="Helvetica,sans-Serif" font-size="10.00">bus</text>
</a>
</g>
</g>
<!-- dir_f0def43da6858815fcb024e72019effa -->
<g id="node2" class="node">
<title>dir_f0def43da6858815fcb024e72019effa</title>
<g id="a_node2"><a xlink:href="dir_f0def43da6858815fcb024e72019effa.html" target="_top" xlink:title="data">
<polygon fill="#a2b4d6" stroke="red" points="134,-35 96,-35 96,-16 134,-16 134,-35"/>
<text text-anchor="middle" x="115" y="-23" font-family="Helvetica,sans-Serif" font-size="10.00">data</text>
</a>
</g>
</g>
<!-- dir_e4b9c6f7e7339e84c015f7e12cbe2261 -->
<g id="node3" class="node">
<title>dir_e4b9c6f7e7339e84c015f7e12cbe2261</title>
<text text-anchor="middle" x="112" y="-133" font-family="Helvetica,sans-Serif" font-size="10.00">time</text>
</g>
<!-- dir_e4b9c6f7e7339e84c015f7e12cbe2261&#45;&gt;dir_1076dd02d5eb8cf6d0e12dcc1217a0a2 -->
<g id="edge1" class="edge">
<title>dir_e4b9c6f7e7339e84c015f7e12cbe2261&#45;&gt;dir_1076dd02d5eb8cf6d0e12dcc1217a0a2</title>
<g id="a_edge1"><a xlink:href="dir_000046_000002.html" target="_top">
<path fill="none" stroke="#63b8ff" d="M96.07,-125.83C83.69,-118.16 67.26,-105.75 59,-90 51.84,-76.35 50.69,-58.77 51.13,-45.56"/>
<polygon fill="#63b8ff" stroke="#63b8ff" points="54.65,-45.51 51.82,-35.3 47.66,-45.04 54.65,-45.51"/>
</a>
</g>
<g id="a_edge1&#45;headlabel"><a xlink:href="dir_000046_000002.html" target="_top" xlink:title="2">
<text text-anchor="middle" x="57.24" y="-46.79" font-family="Helvetica,sans-Serif" font-size="10.00" fill="#63b8ff">2</text>
</a>
</g>
</g>
<!-- dir_e4b9c6f7e7339e84c015f7e12cbe2261&#45;&gt;dir_f0def43da6858815fcb024e72019effa -->
<g id="edge4" class="edge">
<title>dir_e4b9c6f7e7339e84c015f7e12cbe2261&#45;&gt;dir_f0def43da6858815fcb024e72019effa</title>
<g id="a_edge4"><a xlink:href="dir_000046_000007.html" target="_top">
<path fill="none" stroke="#63b8ff" d="M116.37,-125.91C120.56,-117.14 126.6,-103.01 129,-90 131.18,-78.2 131.19,-74.8 129,-63 127.86,-56.83 125.71,-50.35 123.44,-44.59"/>
<polygon fill="#63b8ff" stroke="#63b8ff" points="126.57,-43.03 119.4,-35.23 120.15,-45.8 126.57,-43.03"/>
</a>
</g>
<g id="a_edge4&#45;headlabel"><a xlink:href="dir_000046_000007.html" target="_top" xlink:title="2">
<text text-anchor="middle" x="130.61" y="-42.7" font-family="Helvetica,sans-Serif" font-size="10.00" fill="#63b8ff">2</text>
</a>
</g>
</g>
<!-- dir_47fec53f995d68844c45b1af6e9e2222 -->
<g id="node5" class="node">
<title>dir_47fec53f995d68844c45b1af6e9e2222</title>
<g id="a_node5"><a xlink:href="dir_47fec53f995d68844c45b1af6e9e2222.html" target="_top" xlink:title="include">
<polygon fill="#a2b4d6" stroke="#404040" points="120,-90 68,-90 68,-71 120,-71 120,-90"/>
<text text-anchor="middle" x="94" y="-78" font-family="Helvetica,sans-Serif" font-size="10.00">include</text>
</a>
</g>
</g>
<!-- dir_e4b9c6f7e7339e84c015f7e12cbe2261&#45;&gt;dir_47fec53f995d68844c45b1af6e9e2222 -->
<g id="edge3" class="edge">
<title>dir_e4b9c6f7e7339e84c015f7e12cbe2261&#45;&gt;dir_47fec53f995d68844c45b1af6e9e2222</title>
<g id="a_edge3"><a xlink:href="dir_000046_000032.html" target="_top">
<path fill="none" stroke="#63b8ff" d="M109.03,-125.75C106.64,-118.72 103.21,-108.62 100.23,-99.84"/>
<polygon fill="#63b8ff" stroke="#63b8ff" points="103.45,-98.43 96.92,-90.09 96.82,-100.68 103.45,-98.43"/>
</a>
</g>
<g id="a_edge3&#45;headlabel"><a xlink:href="dir_000046_000032.html" target="_top" xlink:title="1">
<text text-anchor="middle" x="107.29" y="-98.42" font-family="Helvetica,sans-Serif" font-size="10.00" fill="#63b8ff">1</text>
</a>
</g>
</g>
<!-- dir_409f97388efe006bc3438b95e9edef48 -->
<g id="node6" class="node">
<title>dir_409f97388efe006bc3438b95e9edef48</title>
<g id="a_node6"><a xlink:href="dir_409f97388efe006bc3438b95e9edef48.html" target="_top" xlink:title="components">
<polygon fill="#edf0f7" stroke="red" points="233.5,-35 156.5,-35 156.5,-16 233.5,-16 233.5,-35"/>
<text text-anchor="middle" x="195" y="-23" font-family="Helvetica,sans-Serif" font-size="10.00">components</text>
</a>
</g>
</g>
<!-- dir_e4b9c6f7e7339e84c015f7e12cbe2261&#45;&gt;dir_409f97388efe006bc3438b95e9edef48 -->
<g id="edge2" class="edge">
<title>dir_e4b9c6f7e7339e84c015f7e12cbe2261&#45;&gt;dir_409f97388efe006bc3438b95e9edef48</title>
<g id="a_edge2"><a xlink:href="dir_000046_000005.html" target="_top">
<path fill="none" stroke="#63b8ff" d="M120.34,-125.94C128.7,-117.2 141.76,-103.09 152,-90 163.75,-74.98 175.81,-56.89 184.16,-43.86"/>
<polygon fill="#63b8ff" stroke="#63b8ff" points="187.13,-45.71 189.52,-35.39 181.22,-41.97 187.13,-45.71"/>
</a>
</g>
<g id="a_edge2&#45;headlabel"><a xlink:href="dir_000046_000005.html" target="_top" xlink:title="3">
<text text-anchor="middle" x="187.61" y="-47.77" font-family="Helvetica,sans-Serif" font-size="10.00" fill="#63b8ff">3</text>
</a>
</g>
</g>
<!-- dir_8f5741576c31360a7be58b37419b8cb1 -->
<g id="node4" class="node">
<title>dir_8f5741576c31360a7be58b37419b8cb1</title>
<g id="a_node4"><a xlink:href="dir_8f5741576c31360a7be58b37419b8cb1.html" target="_top" xlink:title="drivers">
<polygon fill="#a2b4d6" stroke="#404040" points="74,-145 24,-145 24,-126 74,-126 74,-145"/>
<text text-anchor="middle" x="49" y="-133" font-family="Helvetica,sans-Serif" font-size="10.00">drivers</text>
</a>
</g>
</g>
<!-- dir_47fec53f995d68844c45b1af6e9e2222&#45;&gt;dir_1076dd02d5eb8cf6d0e12dcc1217a0a2 -->
<g id="edge5" class="edge">
<title>dir_47fec53f995d68844c45b1af6e9e2222&#45;&gt;dir_1076dd02d5eb8cf6d0e12dcc1217a0a2</title>
<g id="a_edge5"><a xlink:href="dir_000032_000002.html" target="_top">
<path fill="none" stroke="#63b8ff" d="M87.23,-70.75C81.44,-63.26 72.94,-52.28 65.86,-43.13"/>
<polygon fill="#63b8ff" stroke="#63b8ff" points="68.53,-40.86 59.64,-35.09 62.99,-45.14 68.53,-40.86"/>
</a>
</g>
<g id="a_edge5&#45;headlabel"><a xlink:href="dir_000032_000002.html" target="_top" xlink:title="1">
<text text-anchor="middle" x="72.98" y="-39.46" font-family="Helvetica,sans-Serif" font-size="10.00" fill="#63b8ff">1</text>
</a>
</g>
</g>
<!-- dir_47fec53f995d68844c45b1af6e9e2222&#45;&gt;dir_f0def43da6858815fcb024e72019effa -->
<g id="edge7" class="edge">
<title>dir_47fec53f995d68844c45b1af6e9e2222&#45;&gt;dir_f0def43da6858815fcb024e72019effa</title>
<g id="a_edge7"><a xlink:href="dir_000032_000007.html" target="_top">
<path fill="none" stroke="#63b8ff" d="M97.47,-70.75C100.28,-63.65 104.34,-53.4 107.85,-44.56"/>
<polygon fill="#63b8ff" stroke="#63b8ff" points="111.17,-45.68 111.6,-35.09 104.66,-43.1 111.17,-45.68"/>
</a>
</g>
<g id="a_edge7&#45;headlabel"><a xlink:href="dir_000032_000007.html" target="_top" xlink:title="1">
<text text-anchor="middle" x="112.48" y="-47.56" font-family="Helvetica,sans-Serif" font-size="10.00" fill="#63b8ff">1</text>
</a>
</g>
</g>
<!-- dir_47fec53f995d68844c45b1af6e9e2222&#45;&gt;dir_409f97388efe006bc3438b95e9edef48 -->
<g id="edge6" class="edge">
<title>dir_47fec53f995d68844c45b1af6e9e2222&#45;&gt;dir_409f97388efe006bc3438b95e9edef48</title>
<g id="a_edge6"><a xlink:href="dir_000032_000005.html" target="_top">
<path fill="none" stroke="#63b8ff" d="M110.23,-70.98C126.18,-62.61 150.78,-49.7 169.38,-39.95"/>
<polygon fill="#63b8ff" stroke="#63b8ff" points="171.25,-42.92 178.48,-35.17 168,-36.72 171.25,-42.92"/>
</a>
</g>
<g id="a_edge6&#45;headlabel"><a xlink:href="dir_000032_000005.html" target="_top" xlink:title="2">
<text text-anchor="middle" x="169.39" y="-44.6" font-family="Helvetica,sans-Serif" font-size="10.00" fill="#63b8ff">2</text>
</a>
</g>
</g>
</g>
</svg>
