<?xml version="1.0" encoding="UTF-8" standalone="no"?>
<!DOCTYPE svg PUBLIC "-//W3C//DTD SVG 1.1//EN"
 "http://www.w3.org/Graphics/SVG/1.1/DTD/svg11.dtd">
<!-- Generated by graphviz version 2.43.0 (0)
 -->
<!-- Title: main/ceo/task Pages: 1 -->
<svg width="120pt" height="196pt"
 viewBox="0.00 0.00 120.00 196.00" xmlns="http://www.w3.org/2000/svg" xmlns:xlink="http://www.w3.org/1999/xlink">
<g id="graph0" class="graph" transform="scale(1 1) rotate(0) translate(4 192)">
<title>main/ceo/task</title>
<g id="clust1" class="cluster">
<title>clusterdir_bfe35d01fe7db5f53745d9394f1957cd</title>
<g id="a_clust1"><a xlink:href="dir_bfe35d01fe7db5f53745d9394f1957cd.html" target="_top" xlink:title="ceo">
<polygon fill="#edf0f7" stroke="#7f7f7f" stroke-dasharray="5,2" points="8,-8 8,-180 104,-180 104,-8 8,-8"/>
<text text-anchor="middle" x="56" y="-168" font-family="Helvetica,sans-Serif" font-size="10.00">ceo</text>
</a>
</g>
</g>
<g id="clust2" class="cluster">
<title>clusterdir_e2d82281a081214137cac29df746705d</title>
<g id="a_clust2"><a xlink:href="dir_e2d82281a081214137cac29df746705d.html" target="_top">
<polygon fill="#edf0f7" stroke="#404040" stroke-width="2" points="16,-63 16,-153 84,-153 84,-63 16,-63"/>
</a>
</g>
</g>
<!-- dir_850aa22a015276891fa6057cf395aea5 -->
<g id="node1" class="node">
<title>dir_850aa22a015276891fa6057cf395aea5</title>
<g id="a_node1"><a xlink:href="dir_850aa22a015276891fa6057cf395aea5.html" target="_top" xlink:title="managers">
<polygon fill="#a2b4d6" stroke="red" points="88.5,-35 23.5,-35 23.5,-16 88.5,-16 88.5,-35"/>
<text text-anchor="middle" x="56" y="-23" font-family="Helvetica,sans-Serif" font-size="10.00">managers</text>
</a>
</g>
</g>
<!-- dir_e2d82281a081214137cac29df746705d -->
<g id="node2" class="node">
<title>dir_e2d82281a081214137cac29df746705d</title>
<text text-anchor="middle" x="53" y="-133" font-family="Helvetica,sans-Serif" font-size="10.00">task</text>
</g>
<!-- dir_e2d82281a081214137cac29df746705d&#45;&gt;dir_850aa22a015276891fa6057cf395aea5 -->
<g id="edge2" class="edge">
<title>dir_e2d82281a081214137cac29df746705d&#45;&gt;dir_850aa22a015276891fa6057cf395aea5</title>
<g id="a_edge2"><a xlink:href="dir_000044_000037.html" target="_top">
<path fill="none" stroke="#63b8ff" d="M61.75,-125.9C69.56,-117.56 80.45,-104.13 85,-90 88.68,-78.58 88.95,-74.33 85,-63 82.42,-55.61 77.65,-48.59 72.71,-42.72"/>
<polygon fill="#63b8ff" stroke="#63b8ff" points="74.95,-39.99 65.59,-35.03 69.82,-44.74 74.95,-39.99"/>
</a>
</g>
<g id="a_edge2&#45;headlabel"><a xlink:href="dir_000044_000037.html" target="_top" xlink:title="2">
<text text-anchor="middle" x="79.48" y="-38.2" font-family="Helvetica,sans-Serif" font-size="10.00" fill="#63b8ff">2</text>
</a>
</g>
</g>
<!-- dir_0a6fb37f0ece173f3658618c45e21747 -->
<g id="node3" class="node">
<title>dir_0a6fb37f0ece173f3658618c45e21747</title>
<g id="a_node3"><a xlink:href="dir_0a6fb37f0ece173f3658618c45e21747.html" target="_top" xlink:title="include">
<polygon fill="#a2b4d6" stroke="#404040" points="76,-90 24,-90 24,-71 76,-71 76,-90"/>
<text text-anchor="middle" x="50" y="-78" font-family="Helvetica,sans-Serif" font-size="10.00">include</text>
</a>
</g>
</g>
<!-- dir_e2d82281a081214137cac29df746705d&#45;&gt;dir_0a6fb37f0ece173f3658618c45e21747 -->
<g id="edge1" class="edge">
<title>dir_e2d82281a081214137cac29df746705d&#45;&gt;dir_0a6fb37f0ece173f3658618c45e21747</title>
<g id="a_edge1"><a xlink:href="dir_000044_000033.html" target="_top">
<path fill="none" stroke="#63b8ff" d="M52.5,-125.75C52.11,-118.8 51.55,-108.85 51.05,-100.13"/>
<polygon fill="#63b8ff" stroke="#63b8ff" points="54.55,-99.88 50.49,-90.09 47.56,-100.27 54.55,-99.88"/>
</a>
</g>
<g id="a_edge1&#45;headlabel"><a xlink:href="dir_000044_000033.html" target="_top" xlink:title="1">
<text text-anchor="middle" x="57.58" y="-100.8" font-family="Helvetica,sans-Serif" font-size="10.00" fill="#63b8ff">1</text>
</a>
</g>
</g>
<!-- dir_0a6fb37f0ece173f3658618c45e21747&#45;&gt;dir_850aa22a015276891fa6057cf395aea5 -->
<g id="edge3" class="edge">
<title>dir_0a6fb37f0ece173f3658618c45e21747&#45;&gt;dir_850aa22a015276891fa6057cf395aea5</title>
<g id="a_edge3"><a xlink:href="dir_000033_000037.html" target="_top">
<path fill="none" stroke="#63b8ff" d="M50.99,-70.75C51.78,-63.8 52.9,-53.85 53.89,-45.13"/>
<polygon fill="#63b8ff" stroke="#63b8ff" points="57.38,-45.42 55.03,-35.09 50.42,-44.63 57.38,-45.42"/>
</a>
</g>
<g id="a_edge3&#45;headlabel"><a xlink:href="dir_000033_000037.html" target="_top" xlink:title="1">
<text text-anchor="middle" x="59.8" y="-46.81" font-family="Helvetica,sans-Serif" font-size="10.00" fill="#63b8ff">1</text>
</a>
</g>
</g>
</g>
</svg>
