<?xml version="1.0" encoding="UTF-8" standalone="no"?>
<!DOCTYPE svg PUBLIC "-//W3C//DTD SVG 1.1//EN"
 "http://www.w3.org/Graphics/SVG/1.1/DTD/svg11.dtd">
<!-- Generated by graphviz version 2.43.0 (0)
 -->
<!-- Title: main/ceo/managers/actuator Pages: 1 -->
<svg width="320pt" height="196pt"
 viewBox="0.00 0.00 319.50 196.00" xmlns="http://www.w3.org/2000/svg" xmlns:xlink="http://www.w3.org/1999/xlink">
<g id="graph0" class="graph" transform="scale(1 1) rotate(0) translate(4 192)">
<title>main/ceo/managers/actuator</title>
<g id="clust1" class="cluster">
<title>clusterdir_850aa22a015276891fa6057cf395aea5</title>
<g id="a_clust1"><a xlink:href="dir_850aa22a015276891fa6057cf395aea5.html" target="_top" xlink:title="managers">
<polygon fill="#edf0f7" stroke="#7f7f7f" stroke-dasharray="5,2" points="8,-8 8,-180 224,-180 224,-8 8,-8"/>
<text text-anchor="middle" x="116" y="-168" font-family="Helvetica,sans-Serif" font-size="10.00">managers</text>
</a>
</g>
</g>
<g id="clust2" class="cluster">
<title>clusterdir_cd0398b0339be16bd34bbad786eef627</title>
<g id="a_clust2"><a xlink:href="dir_cd0398b0339be16bd34bbad786eef627.html" target="_top">
<polygon fill="#edf0f7" stroke="#404040" stroke-width="2" points="74,-63 74,-153 216,-153 216,-63 74,-63"/>
</a>
</g>
</g>
<!-- dir_1076dd02d5eb8cf6d0e12dcc1217a0a2 -->
<g id="node1" class="node">
<title>dir_1076dd02d5eb8cf6d0e12dcc1217a0a2</title>
<g id="a_node1"><a xlink:href="dir_1076dd02d5eb8cf6d0e12dcc1217a0a2.html" target="_top" xlink:title="bus">
<polygon fill="#a2b4d6" stroke="red" points="160,-35 126,-35 126,-16 160,-16 160,-35"/>
<text text-anchor="middle" x="143" y="-23" font-family="Helvetica,sans-Serif" font-size="10.00">bus</text>
</a>
</g>
</g>
<!-- dir_8141fbae6ae65c08d03cc2c01d550ae3 -->
<g id="node2" class="node">
<title>dir_8141fbae6ae65c08d03cc2c01d550ae3</title>
<g id="a_node2"><a xlink:href="dir_8141fbae6ae65c08d03cc2c01d550ae3.html" target="_top" xlink:title="communication">
<polygon fill="#a2b4d6" stroke="red" points="108,-35 16,-35 16,-16 108,-16 108,-35"/>
<text text-anchor="middle" x="62" y="-23" font-family="Helvetica,sans-Serif" font-size="10.00">communication</text>
</a>
</g>
</g>
<!-- dir_f0def43da6858815fcb024e72019effa -->
<g id="node3" class="node">
<title>dir_f0def43da6858815fcb024e72019effa</title>
<g id="a_node3"><a xlink:href="dir_f0def43da6858815fcb024e72019effa.html" target="_top" xlink:title="data">
<polygon fill="#a2b4d6" stroke="red" points="216,-35 178,-35 178,-16 216,-16 216,-35"/>
<text text-anchor="middle" x="197" y="-23" font-family="Helvetica,sans-Serif" font-size="10.00">data</text>
</a>
</g>
</g>
<!-- dir_cd0398b0339be16bd34bbad786eef627 -->
<g id="node4" class="node">
<title>dir_cd0398b0339be16bd34bbad786eef627</title>
<text text-anchor="middle" x="111" y="-133" font-family="Helvetica,sans-Serif" font-size="10.00">actuator</text>
</g>
<!-- dir_cd0398b0339be16bd34bbad786eef627&#45;&gt;dir_1076dd02d5eb8cf6d0e12dcc1217a0a2 -->
<g id="edge1" class="edge">
<title>dir_cd0398b0339be16bd34bbad786eef627&#45;&gt;dir_1076dd02d5eb8cf6d0e12dcc1217a0a2</title>
<g id="a_edge1"><a xlink:href="dir_000000_000002.html" target="_top">
<path fill="none" stroke="#63b8ff" d="M109.09,-125.79C106.48,-111.96 102.96,-84.38 111,-63 113.9,-55.3 119.24,-48.16 124.74,-42.28"/>
<polygon fill="#63b8ff" stroke="#63b8ff" points="127.39,-44.59 132.12,-35.1 122.51,-39.57 127.39,-44.59"/>
</a>
</g>
<g id="a_edge1&#45;headlabel"><a xlink:href="dir_000000_000002.html" target="_top" xlink:title="4">
<text text-anchor="middle" x="126.79" y="-46.63" font-family="Helvetica,sans-Serif" font-size="10.00" fill="#63b8ff">4</text>
</a>
</g>
</g>
<!-- dir_cd0398b0339be16bd34bbad786eef627&#45;&gt;dir_8141fbae6ae65c08d03cc2c01d550ae3 -->
<g id="edge4" class="edge">
<title>dir_cd0398b0339be16bd34bbad786eef627&#45;&gt;dir_8141fbae6ae65c08d03cc2c01d550ae3</title>
<g id="a_edge4"><a xlink:href="dir_000000_000004.html" target="_top">
<path fill="none" stroke="#63b8ff" d="M106.99,-125.66C98.95,-107.93 80.7,-67.73 70.08,-44.32"/>
<polygon fill="#63b8ff" stroke="#63b8ff" points="73.25,-42.82 65.93,-35.16 66.87,-45.71 73.25,-42.82"/>
</a>
</g>
<g id="a_edge4&#45;headlabel"><a xlink:href="dir_000000_000004.html" target="_top" xlink:title="2">
<text text-anchor="middle" x="77.32" y="-42.42" font-family="Helvetica,sans-Serif" font-size="10.00" fill="#63b8ff">2</text>
</a>
</g>
</g>
<!-- dir_cd0398b0339be16bd34bbad786eef627&#45;&gt;dir_f0def43da6858815fcb024e72019effa -->
<g id="edge5" class="edge">
<title>dir_cd0398b0339be16bd34bbad786eef627&#45;&gt;dir_f0def43da6858815fcb024e72019effa</title>
<g id="a_edge5"><a xlink:href="dir_000000_000007.html" target="_top">
<path fill="none" stroke="#63b8ff" d="M139.59,-127.73C159.15,-121.47 183.68,-110 196,-90 204.22,-76.65 203.62,-58.54 201.46,-45.08"/>
<polygon fill="#63b8ff" stroke="#63b8ff" points="204.85,-44.18 199.44,-35.07 197.99,-45.56 204.85,-44.18"/>
</a>
</g>
<g id="a_edge5&#45;headlabel"><a xlink:href="dir_000000_000007.html" target="_top" xlink:title="2">
<text text-anchor="middle" x="208.34" y="-44.64" font-family="Helvetica,sans-Serif" font-size="10.00" fill="#63b8ff">2</text>
</a>
</g>
</g>
<!-- dir_3bed3cf9fe26a13c054389bd7e52d239 -->
<g id="node6" class="node">
<title>dir_3bed3cf9fe26a13c054389bd7e52d239</title>
<g id="a_node6"><a xlink:href="dir_3bed3cf9fe26a13c054389bd7e52d239.html" target="_top" xlink:title="include">
<polygon fill="#a2b4d6" stroke="#404040" points="187,-90 135,-90 135,-71 187,-71 187,-90"/>
<text text-anchor="middle" x="161" y="-78" font-family="Helvetica,sans-Serif" font-size="10.00">include</text>
</a>
</g>
</g>
<!-- dir_cd0398b0339be16bd34bbad786eef627&#45;&gt;dir_3bed3cf9fe26a13c054389bd7e52d239 -->
<g id="edge2" class="edge">
<title>dir_cd0398b0339be16bd34bbad786eef627&#45;&gt;dir_3bed3cf9fe26a13c054389bd7e52d239</title>
<g id="a_edge2"><a xlink:href="dir_000000_000022.html" target="_top">
<path fill="none" stroke="#63b8ff" d="M119.26,-125.75C126.46,-118.11 137.11,-106.82 145.85,-97.56"/>
<polygon fill="#63b8ff" stroke="#63b8ff" points="148.58,-99.76 152.9,-90.09 143.49,-94.96 148.58,-99.76"/>
</a>
</g>
<g id="a_edge2&#45;headlabel"><a xlink:href="dir_000000_000022.html" target="_top" xlink:title="1">
<text text-anchor="middle" x="148.18" y="-101.83" font-family="Helvetica,sans-Serif" font-size="10.00" fill="#63b8ff">1</text>
</a>
</g>
</g>
<!-- dir_409f97388efe006bc3438b95e9edef48 -->
<g id="node7" class="node">
<title>dir_409f97388efe006bc3438b95e9edef48</title>
<g id="a_node7"><a xlink:href="dir_409f97388efe006bc3438b95e9edef48.html" target="_top" xlink:title="components">
<polygon fill="#edf0f7" stroke="red" points="311.5,-35 234.5,-35 234.5,-16 311.5,-16 311.5,-35"/>
<text text-anchor="middle" x="273" y="-23" font-family="Helvetica,sans-Serif" font-size="10.00">components</text>
</a>
</g>
</g>
<!-- dir_cd0398b0339be16bd34bbad786eef627&#45;&gt;dir_409f97388efe006bc3438b95e9edef48 -->
<g id="edge3" class="edge">
<title>dir_cd0398b0339be16bd34bbad786eef627&#45;&gt;dir_409f97388efe006bc3438b95e9edef48</title>
<g id="a_edge3"><a xlink:href="dir_000000_000005.html" target="_top">
<path fill="none" stroke="#63b8ff" d="M139.63,-127.21C163.07,-120.29 196.28,-108.2 221,-90 238.16,-77.37 253.01,-57.84 262.4,-43.77"/>
<polygon fill="#63b8ff" stroke="#63b8ff" points="265.53,-45.36 267.98,-35.06 259.64,-41.58 265.53,-45.36"/>
</a>
</g>
<g id="a_edge3&#45;headlabel"><a xlink:href="dir_000000_000005.html" target="_top" xlink:title="5">
<text text-anchor="middle" x="265.98" y="-47.42" font-family="Helvetica,sans-Serif" font-size="10.00" fill="#63b8ff">5</text>
</a>
</g>
</g>
<!-- dir_1312673e197ce83722bb6b2e50751b61 -->
<g id="node5" class="node">
<title>dir_1312673e197ce83722bb6b2e50751b61</title>
<g id="a_node5"><a xlink:href="dir_1312673e197ce83722bb6b2e50751b61.html" target="_top" xlink:title="drivers">
<polygon fill="#a2b4d6" stroke="#404040" points="208,-145 158,-145 158,-126 208,-126 208,-145"/>
<text text-anchor="middle" x="183" y="-133" font-family="Helvetica,sans-Serif" font-size="10.00">drivers</text>
</a>
</g>
</g>
<!-- dir_1312673e197ce83722bb6b2e50751b61&#45;&gt;dir_1076dd02d5eb8cf6d0e12dcc1217a0a2 -->
<g id="edge7" class="edge">
<title>dir_1312673e197ce83722bb6b2e50751b61&#45;&gt;dir_1076dd02d5eb8cf6d0e12dcc1217a0a2</title>
<g id="a_edge7"><a xlink:href="dir_000009_000002.html" target="_top">
<path fill="none" stroke="#63b8ff" d="M164.65,-125.88C151.21,-118.46 133.98,-106.36 126,-90 118.82,-75.29 125.02,-57.13 131.87,-44"/>
<polygon fill="#63b8ff" stroke="#63b8ff" points="135.05,-45.5 137.01,-35.09 128.98,-42 135.05,-45.5"/>
</a>
</g>
<g id="a_edge7&#45;headlabel"><a xlink:href="dir_000009_000002.html" target="_top" xlink:title="2">
<text text-anchor="middle" x="135.71" y="-47.53" font-family="Helvetica,sans-Serif" font-size="10.00" fill="#63b8ff">2</text>
</a>
</g>
</g>
<!-- dir_1312673e197ce83722bb6b2e50751b61&#45;&gt;dir_409f97388efe006bc3438b95e9edef48 -->
<g id="edge6" class="edge">
<title>dir_1312673e197ce83722bb6b2e50751b61&#45;&gt;dir_409f97388efe006bc3438b95e9edef48</title>
<g id="a_edge6"><a xlink:href="dir_000009_000005.html" target="_top">
<path fill="none" stroke="#63b8ff" d="M201.55,-125.99C216.23,-118.41 236.31,-106.04 249,-90 259.4,-76.86 265.65,-58.73 269.15,-45.2"/>
<polygon fill="#63b8ff" stroke="#63b8ff" points="272.64,-45.67 271.48,-35.13 265.82,-44.09 272.64,-45.67"/>
</a>
</g>
<g id="a_edge6&#45;headlabel"><a xlink:href="dir_000009_000005.html" target="_top" xlink:title="2">
<text text-anchor="middle" x="274.6" y="-47.31" font-family="Helvetica,sans-Serif" font-size="10.00" fill="#63b8ff">2</text>
</a>
</g>
</g>
<!-- dir_3bed3cf9fe26a13c054389bd7e52d239&#45;&gt;dir_1076dd02d5eb8cf6d0e12dcc1217a0a2 -->
<g id="edge8" class="edge">
<title>dir_3bed3cf9fe26a13c054389bd7e52d239&#45;&gt;dir_1076dd02d5eb8cf6d0e12dcc1217a0a2</title>
<g id="a_edge8"><a xlink:href="dir_000022_000002.html" target="_top">
<path fill="none" stroke="#63b8ff" d="M158.03,-70.75C155.64,-63.72 152.21,-53.62 149.23,-44.84"/>
<polygon fill="#63b8ff" stroke="#63b8ff" points="152.45,-43.43 145.92,-35.09 145.82,-45.68 152.45,-43.43"/>
</a>
</g>
<g id="a_edge8&#45;headlabel"><a xlink:href="dir_000022_000002.html" target="_top" xlink:title="1">
<text text-anchor="middle" x="156.29" y="-43.42" font-family="Helvetica,sans-Serif" font-size="10.00" fill="#63b8ff">1</text>
</a>
</g>
</g>
<!-- dir_3bed3cf9fe26a13c054389bd7e52d239&#45;&gt;dir_8141fbae6ae65c08d03cc2c01d550ae3 -->
<g id="edge10" class="edge">
<title>dir_3bed3cf9fe26a13c054389bd7e52d239&#45;&gt;dir_8141fbae6ae65c08d03cc2c01d550ae3</title>
<g id="a_edge10"><a xlink:href="dir_000022_000004.html" target="_top">
<path fill="none" stroke="#63b8ff" d="M145.46,-70.89C140.81,-68.33 135.71,-65.54 131,-63 116.6,-55.23 100.44,-46.68 87.38,-39.8"/>
<polygon fill="#63b8ff" stroke="#63b8ff" points="88.97,-36.68 78.49,-35.13 85.71,-42.88 88.97,-36.68"/>
</a>
</g>
<g id="a_edge10&#45;headlabel"><a xlink:href="dir_000022_000004.html" target="_top" xlink:title="1">
<text text-anchor="middle" x="93.47" y="-33.34" font-family="Helvetica,sans-Serif" font-size="10.00" fill="#63b8ff">1</text>
</a>
</g>
</g>
<!-- dir_3bed3cf9fe26a13c054389bd7e52d239&#45;&gt;dir_f0def43da6858815fcb024e72019effa -->
<g id="edge11" class="edge">
<title>dir_3bed3cf9fe26a13c054389bd7e52d239&#45;&gt;dir_f0def43da6858815fcb024e72019effa</title>
<g id="a_edge11"><a xlink:href="dir_000022_000007.html" target="_top">
<path fill="none" stroke="#63b8ff" d="M166.94,-70.75C171.98,-63.34 179.34,-52.5 185.51,-43.41"/>
<polygon fill="#63b8ff" stroke="#63b8ff" points="188.44,-45.33 191.17,-35.09 182.65,-41.39 188.44,-45.33"/>
</a>
</g>
<g id="a_edge11&#45;headlabel"><a xlink:href="dir_000022_000007.html" target="_top" xlink:title="1">
<text text-anchor="middle" x="188.77" y="-47.4" font-family="Helvetica,sans-Serif" font-size="10.00" fill="#63b8ff">1</text>
</a>
</g>
</g>
<!-- dir_3bed3cf9fe26a13c054389bd7e52d239&#45;&gt;dir_409f97388efe006bc3438b95e9edef48 -->
<g id="edge9" class="edge">
<title>dir_3bed3cf9fe26a13c054389bd7e52d239&#45;&gt;dir_409f97388efe006bc3438b95e9edef48</title>
<g id="a_edge9"><a xlink:href="dir_000022_000005.html" target="_top">
<path fill="none" stroke="#63b8ff" d="M178.99,-70.98C196.93,-62.5 224.72,-49.35 245.43,-39.54"/>
<polygon fill="#63b8ff" stroke="#63b8ff" points="247.14,-42.61 254.68,-35.17 244.14,-36.28 247.14,-42.61"/>
</a>
</g>
<g id="a_edge9&#45;headlabel"><a xlink:href="dir_000022_000005.html" target="_top" xlink:title="2">
<text text-anchor="middle" x="245.1" y="-44.22" font-family="Helvetica,sans-Serif" font-size="10.00" fill="#63b8ff">2</text>
</a>
</g>
</g>
</g>
</svg>
