<?xml version="1.0" encoding="UTF-8" standalone="no"?>
<!DOCTYPE svg PUBLIC "-//W3C//DTD SVG 1.1//EN"
 "http://www.w3.org/Graphics/SVG/1.1/DTD/svg11.dtd">
<!-- Generated by graphviz version 2.43.0 (0)
 -->
<!-- Title: main/ceo/managers Pages: 1 -->
<svg width="406pt" height="345pt"
 viewBox="0.00 0.00 406.00 345.00" xmlns="http://www.w3.org/2000/svg" xmlns:xlink="http://www.w3.org/1999/xlink">

<svg id="main" version="1.1" xmlns="http://www.w3.org/2000/svg" xmlns:xlink="http://www.w3.org/1999/xlink" xml:space="preserve" onload="init(evt)">
<style type="text/css"><![CDATA[
.node, .edge {opacity: 0.7;}
.node.selected, .edge.selected {opacity: 1;}
.edge:hover path { stroke: red; }
.edge:hover polygon { stroke: red; fill: red; }
]]></style>
<script type="application/ecmascript" xlink:href="svg.min.js"/>
<svg id="graph" class="graph">
<g id="graph0" class="graph" transform="scale(1 1) rotate(0) translate(4 341)">
<title>main/ceo/managers</title>
<g id="clust1" class="cluster">
<title>clusterdir_bfe35d01fe7db5f53745d9394f1957cd</title>
<g id="a_clust1"><a xlink:href="dir_bfe35d01fe7db5f53745d9394f1957cd.html" target="_top" xlink:title="ceo">
<polygon fill="#edf0f7" stroke="#7f7f7f" stroke-dasharray="5,2" points="8,-39 8,-329 268,-329 268,-39 8,-39"/>
<text text-anchor="middle" x="138" y="-317" font-family="Helvetica,sans-Serif" font-size="10.00">ceo</text>
</a>
</g>
</g>
<g id="clust2" class="cluster">
<title>clusterdir_850aa22a015276891fa6057cf395aea5</title>
<g id="a_clust2"><a xlink:href="dir_850aa22a015276891fa6057cf395aea5.html" target="_top">
<polygon fill="#edf0f7" stroke="#404040" stroke-width="2" points="16,-47 16,-302 260,-302 260,-47 16,-47"/>
</a>
</g>
</g>
<!-- dir_850aa22a015276891fa6057cf395aea5 -->
<g id="node1" class="node">
<title>dir_850aa22a015276891fa6057cf395aea5</title>
<text text-anchor="middle" x="200" y="-282" font-family="Helvetica,sans-Serif" font-size="10.00">managers</text>
</g>
<!-- dir_cd0398b0339be16bd34bbad786eef627 -->
<g id="node2" class="node">
<title>dir_cd0398b0339be16bd34bbad786eef627</title>
<g id="a_node2"><a xlink:href="dir_cd0398b0339be16bd34bbad786eef627.html" target="_top" xlink:title="actuator">
<polygon fill="#a2b4d6" stroke="#404040" points="112.5,-294 55.5,-294 55.5,-275 112.5,-275 112.5,-294"/>
<text text-anchor="middle" x="84" y="-282" font-family="Helvetica,sans-Serif" font-size="10.00">actuator</text>
</a>
</g>
</g>
<!-- dir_1076dd02d5eb8cf6d0e12dcc1217a0a2 -->
<g id="node3" class="node">
<title>dir_1076dd02d5eb8cf6d0e12dcc1217a0a2</title>
<g id="a_node3"><a xlink:href="dir_1076dd02d5eb8cf6d0e12dcc1217a0a2.html" target="_top" xlink:title="bus">
<polygon fill="#a2b4d6" stroke="#404040" points="148,-129 114,-129 114,-110 148,-110 148,-129"/>
<text text-anchor="middle" x="131" y="-117" font-family="Helvetica,sans-Serif" font-size="10.00">bus</text>
</a>
</g>
</g>
<!-- dir_cd0398b0339be16bd34bbad786eef627&#45;&gt;dir_1076dd02d5eb8cf6d0e12dcc1217a0a2 -->
<g id="edge1" class="edge">
<title>dir_cd0398b0339be16bd34bbad786eef627&#45;&gt;dir_1076dd02d5eb8cf6d0e12dcc1217a0a2</title>
<g id="a_edge1"><a xlink:href="dir_000000_000002.html" target="_top">
<path fill="none" stroke="#63b8ff" d="M80.6,-274.75C76.29,-262.38 69.98,-239.17 75,-220 83.29,-188.36 104.16,-156.17 117.95,-137.29"/>
<polygon fill="#63b8ff" stroke="#63b8ff" points="120.85,-139.24 124.06,-129.14 115.26,-135.04 120.85,-139.24"/>
</a>
</g>
<g id="a_edge1&#45;headlabel"><a xlink:href="dir_000000_000002.html" target="_top" xlink:title="4">
<text text-anchor="middle" x="120.97" y="-141.32" font-family="Helvetica,sans-Serif" font-size="10.00" fill="#63b8ff">4</text>
</a>
</g>
</g>
<!-- dir_8141fbae6ae65c08d03cc2c01d550ae3 -->
<g id="node4" class="node">
<title>dir_8141fbae6ae65c08d03cc2c01d550ae3</title>
<g id="a_node4"><a xlink:href="dir_8141fbae6ae65c08d03cc2c01d550ae3.html" target="_top" xlink:title="communication">
<polygon fill="#a2b4d6" stroke="#404040" points="176,-239 84,-239 84,-220 176,-220 176,-239"/>
<text text-anchor="middle" x="130" y="-227" font-family="Helvetica,sans-Serif" font-size="10.00">communication</text>
</a>
</g>
</g>
<!-- dir_cd0398b0339be16bd34bbad786eef627&#45;&gt;dir_8141fbae6ae65c08d03cc2c01d550ae3 -->
<g id="edge3" class="edge">
<title>dir_cd0398b0339be16bd34bbad786eef627&#45;&gt;dir_8141fbae6ae65c08d03cc2c01d550ae3</title>
<g id="a_edge3"><a xlink:href="dir_000000_000004.html" target="_top">
<path fill="none" stroke="#63b8ff" d="M91.6,-274.75C98.16,-267.18 107.82,-256.05 115.81,-246.84"/>
<polygon fill="#63b8ff" stroke="#63b8ff" points="118.63,-248.94 122.55,-239.09 113.35,-244.35 118.63,-248.94"/>
</a>
</g>
<g id="a_edge3&#45;headlabel"><a xlink:href="dir_000000_000004.html" target="_top" xlink:title="2">
<text text-anchor="middle" x="118.42" y="-251.01" font-family="Helvetica,sans-Serif" font-size="10.00" fill="#63b8ff">2</text>
</a>
</g>
</g>
<!-- dir_f0def43da6858815fcb024e72019effa -->
<g id="node5" class="node">
<title>dir_f0def43da6858815fcb024e72019effa</title>
<g id="a_node5"><a xlink:href="dir_f0def43da6858815fcb024e72019effa.html" target="_top" xlink:title="data">
<polygon fill="#a2b4d6" stroke="#404040" points="118,-74 80,-74 80,-55 118,-55 118,-74"/>
<text text-anchor="middle" x="99" y="-62" font-family="Helvetica,sans-Serif" font-size="10.00">data</text>
</a>
</g>
</g>
<!-- dir_cd0398b0339be16bd34bbad786eef627&#45;&gt;dir_f0def43da6858815fcb024e72019effa -->
<g id="edge4" class="edge">
<title>dir_cd0398b0339be16bd34bbad786eef627&#45;&gt;dir_f0def43da6858815fcb024e72019effa</title>
<g id="a_edge4"><a xlink:href="dir_000000_000007.html" target="_top">
<path fill="none" stroke="#63b8ff" d="M80.18,-274.89C69.29,-249.05 40.22,-170.25 62,-110 65.94,-99.09 73.86,-88.96 81.36,-81.14"/>
<polygon fill="#63b8ff" stroke="#63b8ff" points="83.84,-83.61 88.56,-74.13 78.95,-78.6 83.84,-83.61"/>
</a>
</g>
<g id="a_edge4&#45;headlabel"><a xlink:href="dir_000000_000007.html" target="_top" xlink:title="2">
<text text-anchor="middle" x="83.24" y="-85.66" font-family="Helvetica,sans-Serif" font-size="10.00" fill="#63b8ff">2</text>
</a>
</g>
</g>
<!-- dir_409f97388efe006bc3438b95e9edef48 -->
<g id="node10" class="node">
<title>dir_409f97388efe006bc3438b95e9edef48</title>
<g id="a_node10"><a xlink:href="dir_409f97388efe006bc3438b95e9edef48.html" target="_top" xlink:title="components">
<polygon fill="#edf0f7" stroke="red" points="303.5,-19 226.5,-19 226.5,0 303.5,0 303.5,-19"/>
<text text-anchor="middle" x="265" y="-7" font-family="Helvetica,sans-Serif" font-size="10.00">components</text>
</a>
</g>
</g>
<!-- dir_cd0398b0339be16bd34bbad786eef627&#45;&gt;dir_409f97388efe006bc3438b95e9edef48 -->
<g id="edge2" class="edge">
<title>dir_cd0398b0339be16bd34bbad786eef627&#45;&gt;dir_409f97388efe006bc3438b95e9edef48</title>
<g id="a_edge2"><a xlink:href="dir_000000_000005.html" target="_top">
<path fill="none" stroke="#63b8ff" d="M112.7,-279.89C190.21,-269.36 398,-235.53 398,-175.5 398,-175.5 398,-175.5 398,-118.5 398,-79.14 388.99,-64.49 359,-39 346.2,-28.12 329.32,-21.39 313.41,-17.23"/>
<polygon fill="#63b8ff" stroke="#63b8ff" points="314.2,-13.82 303.66,-14.96 312.61,-20.64 314.2,-13.82"/>
</a>
</g>
<g id="a_edge2&#45;headlabel"><a xlink:href="dir_000000_000005.html" target="_top" xlink:title="5">
<text text-anchor="middle" x="318.34" y="-9.37" font-family="Helvetica,sans-Serif" font-size="10.00" fill="#63b8ff">5</text>
</a>
</g>
</g>
<!-- dir_1076dd02d5eb8cf6d0e12dcc1217a0a2&#45;&gt;dir_f0def43da6858815fcb024e72019effa -->
<g id="edge6" class="edge">
<title>dir_1076dd02d5eb8cf6d0e12dcc1217a0a2&#45;&gt;dir_f0def43da6858815fcb024e72019effa</title>
<g id="a_edge6"><a xlink:href="dir_000002_000007.html" target="_top">
<path fill="none" stroke="#63b8ff" d="M125.72,-109.75C121.29,-102.42 114.84,-91.73 109.38,-82.7"/>
<polygon fill="#63b8ff" stroke="#63b8ff" points="112.35,-80.84 104.19,-74.09 106.36,-84.46 112.35,-80.84"/>
</a>
</g>
<g id="a_edge6&#45;headlabel"><a xlink:href="dir_000002_000007.html" target="_top" xlink:title="4">
<text text-anchor="middle" x="116.64" y="-79.95" font-family="Helvetica,sans-Serif" font-size="10.00" fill="#63b8ff">4</text>
</a>
</g>
</g>
<!-- dir_1076dd02d5eb8cf6d0e12dcc1217a0a2&#45;&gt;dir_409f97388efe006bc3438b95e9edef48 -->
<g id="edge5" class="edge">
<title>dir_1076dd02d5eb8cf6d0e12dcc1217a0a2&#45;&gt;dir_409f97388efe006bc3438b95e9edef48</title>
<g id="a_edge5"><a xlink:href="dir_000002_000005.html" target="_top">
<path fill="none" stroke="#63b8ff" d="M138.23,-109.77C151.48,-94.15 181.03,-61.04 211,-39 218.76,-33.3 227.81,-28.05 236.26,-23.66"/>
<polygon fill="#63b8ff" stroke="#63b8ff" points="238.05,-26.68 245.44,-19.09 234.93,-20.41 238.05,-26.68"/>
</a>
</g>
<g id="a_edge5&#45;headlabel"><a xlink:href="dir_000002_000005.html" target="_top" xlink:title="3">
<text text-anchor="middle" x="236.1" y="-28.32" font-family="Helvetica,sans-Serif" font-size="10.00" fill="#63b8ff">3</text>
</a>
</g>
</g>
<!-- dir_8141fbae6ae65c08d03cc2c01d550ae3&#45;&gt;dir_1076dd02d5eb8cf6d0e12dcc1217a0a2 -->
<g id="edge10" class="edge">
<title>dir_8141fbae6ae65c08d03cc2c01d550ae3&#45;&gt;dir_1076dd02d5eb8cf6d0e12dcc1217a0a2</title>
<g id="a_edge10"><a xlink:href="dir_000004_000002.html" target="_top">
<path fill="none" stroke="#63b8ff" d="M125.71,-219.94C120.14,-207.8 111.54,-184.86 115,-165 116.57,-156 119.8,-146.42 122.94,-138.46"/>
<polygon fill="#63b8ff" stroke="#63b8ff" points="126.22,-139.69 126.89,-129.12 119.77,-136.97 126.22,-139.69"/>
</a>
</g>
<g id="a_edge10&#45;headlabel"><a xlink:href="dir_000004_000002.html" target="_top" xlink:title="1">
<text text-anchor="middle" x="127.44" y="-141.61" font-family="Helvetica,sans-Serif" font-size="10.00" fill="#63b8ff">1</text>
</a>
</g>
</g>
<!-- dir_8141fbae6ae65c08d03cc2c01d550ae3&#45;&gt;dir_f0def43da6858815fcb024e72019effa -->
<g id="edge7" class="edge">
<title>dir_8141fbae6ae65c08d03cc2c01d550ae3&#45;&gt;dir_f0def43da6858815fcb024e72019effa</title>
<g id="a_edge7"><a xlink:href="dir_000004_000007.html" target="_top">
<path fill="none" stroke="#63b8ff" d="M115.77,-219.75C104.23,-211.86 88.54,-199.2 80,-184 63.75,-155.06 60.55,-141.81 70,-110 72.98,-99.98 79,-90.11 84.79,-82.22"/>
<polygon fill="#63b8ff" stroke="#63b8ff" points="87.63,-84.28 91.06,-74.25 82.13,-79.95 87.63,-84.28"/>
</a>
</g>
<g id="a_edge7&#45;headlabel"><a xlink:href="dir_000004_000007.html" target="_top" xlink:title="2">
<text text-anchor="middle" x="87.64" y="-86.36" font-family="Helvetica,sans-Serif" font-size="10.00" fill="#63b8ff">2</text>
</a>
</g>
</g>
<!-- dir_e4b9c6f7e7339e84c015f7e12cbe2261 -->
<g id="node9" class="node">
<title>dir_e4b9c6f7e7339e84c015f7e12cbe2261</title>
<g id="a_node9"><a xlink:href="dir_e4b9c6f7e7339e84c015f7e12cbe2261.html" target="_top" xlink:title="time">
<polygon fill="#a2b4d6" stroke="#404040" points="163.5,-184 124.5,-184 124.5,-165 163.5,-165 163.5,-184"/>
<text text-anchor="middle" x="144" y="-172" font-family="Helvetica,sans-Serif" font-size="10.00">time</text>
</a>
</g>
</g>
<!-- dir_8141fbae6ae65c08d03cc2c01d550ae3&#45;&gt;dir_e4b9c6f7e7339e84c015f7e12cbe2261 -->
<g id="edge9" class="edge">
<title>dir_8141fbae6ae65c08d03cc2c01d550ae3&#45;&gt;dir_e4b9c6f7e7339e84c015f7e12cbe2261</title>
<g id="a_edge9"><a xlink:href="dir_000004_000046.html" target="_top">
<path fill="none" stroke="#63b8ff" d="M132.31,-219.75C134.17,-212.72 136.84,-202.62 139.15,-193.84"/>
<polygon fill="#63b8ff" stroke="#63b8ff" points="142.56,-194.65 141.73,-184.09 135.79,-192.86 142.56,-194.65"/>
</a>
</g>
<g id="a_edge9&#45;headlabel"><a xlink:href="dir_000004_000046.html" target="_top" xlink:title="1">
<text text-anchor="middle" x="144.39" y="-196.35" font-family="Helvetica,sans-Serif" font-size="10.00" fill="#63b8ff">1</text>
</a>
</g>
</g>
<!-- dir_8141fbae6ae65c08d03cc2c01d550ae3&#45;&gt;dir_409f97388efe006bc3438b95e9edef48 -->
<g id="edge8" class="edge">
<title>dir_8141fbae6ae65c08d03cc2c01d550ae3&#45;&gt;dir_409f97388efe006bc3438b95e9edef48</title>
<g id="a_edge8"><a xlink:href="dir_000004_000005.html" target="_top">
<path fill="none" stroke="#63b8ff" d="M169.67,-219.99C203.84,-211.81 249.42,-198.57 261,-184 297.03,-138.66 281.21,-63.61 271.09,-29.01"/>
<polygon fill="#63b8ff" stroke="#63b8ff" points="274.38,-27.8 268.08,-19.29 267.7,-29.88 274.38,-27.8"/>
</a>
</g>
<g id="a_edge8&#45;headlabel"><a xlink:href="dir_000004_000005.html" target="_top" xlink:title="1">
<text text-anchor="middle" x="278.16" y="-27.9" font-family="Helvetica,sans-Serif" font-size="10.00" fill="#63b8ff">1</text>
</a>
</g>
</g>
<!-- dir_f0def43da6858815fcb024e72019effa&#45;&gt;dir_409f97388efe006bc3438b95e9edef48 -->
<g id="edge11" class="edge">
<title>dir_f0def43da6858815fcb024e72019effa&#45;&gt;dir_409f97388efe006bc3438b95e9edef48</title>
<g id="a_edge11"><a xlink:href="dir_000007_000005.html" target="_top">
<path fill="none" stroke="#63b8ff" d="M113.39,-54.82C122.48,-49.63 134.62,-43.25 146,-39 168.5,-30.59 194.35,-24.04 216.19,-19.36"/>
<polygon fill="#63b8ff" stroke="#63b8ff" points="217.16,-22.74 226.24,-17.28 215.73,-15.88 217.16,-22.74"/>
</a>
</g>
<g id="a_edge11&#45;headlabel"><a xlink:href="dir_000007_000005.html" target="_top" xlink:title="1">
<text text-anchor="middle" x="214.21" y="-23.75" font-family="Helvetica,sans-Serif" font-size="10.00" fill="#63b8ff">1</text>
</a>
</g>
</g>
<!-- dir_82d391f1ef075d501d265bd9558d9cde -->
<g id="node6" class="node">
<title>dir_82d391f1ef075d501d265bd9558d9cde</title>
<g id="a_node6"><a xlink:href="dir_82d391f1ef075d501d265bd9558d9cde.html" target="_top" xlink:title="pin">
<polygon fill="#a2b4d6" stroke="#404040" points="218,-129 186,-129 186,-110 218,-110 218,-129"/>
<text text-anchor="middle" x="202" y="-117" font-family="Helvetica,sans-Serif" font-size="10.00">pin</text>
</a>
</g>
</g>
<!-- dir_82d391f1ef075d501d265bd9558d9cde&#45;&gt;dir_f0def43da6858815fcb024e72019effa -->
<g id="edge13" class="edge">
<title>dir_82d391f1ef075d501d265bd9558d9cde&#45;&gt;dir_f0def43da6858815fcb024e72019effa</title>
<g id="a_edge13"><a xlink:href="dir_000038_000007.html" target="_top">
<path fill="none" stroke="#63b8ff" d="M185.91,-110.22C169.55,-101.8 143.95,-88.63 124.76,-78.76"/>
<polygon fill="#63b8ff" stroke="#63b8ff" points="126.16,-75.54 115.66,-74.07 122.95,-81.76 126.16,-75.54"/>
</a>
</g>
<g id="a_edge13&#45;headlabel"><a xlink:href="dir_000038_000007.html" target="_top" xlink:title="1">
<text text-anchor="middle" x="130.65" y="-72.16" font-family="Helvetica,sans-Serif" font-size="10.00" fill="#63b8ff">1</text>
</a>
</g>
</g>
<!-- dir_82d391f1ef075d501d265bd9558d9cde&#45;&gt;dir_409f97388efe006bc3438b95e9edef48 -->
<g id="edge12" class="edge">
<title>dir_82d391f1ef075d501d265bd9558d9cde&#45;&gt;dir_409f97388efe006bc3438b95e9edef48</title>
<g id="a_edge12"><a xlink:href="dir_000038_000005.html" target="_top">
<path fill="none" stroke="#63b8ff" d="M203.75,-109.95C207.2,-94.64 215.95,-61.98 232,-39 235.41,-34.11 239.85,-29.54 244.36,-25.54"/>
<polygon fill="#63b8ff" stroke="#63b8ff" points="246.8,-28.06 252.34,-19.03 242.38,-22.64 246.8,-28.06"/>
</a>
</g>
<g id="a_edge12&#45;headlabel"><a xlink:href="dir_000038_000005.html" target="_top" xlink:title="4">
<text text-anchor="middle" x="245.8" y="-30.04" font-family="Helvetica,sans-Serif" font-size="10.00" fill="#63b8ff">4</text>
</a>
</g>
</g>
<!-- dir_9eca5c3c9f3db5a997d6484005d0264a -->
<g id="node7" class="node">
<title>dir_9eca5c3c9f3db5a997d6484005d0264a</title>
<g id="a_node7"><a xlink:href="dir_9eca5c3c9f3db5a997d6484005d0264a.html" target="_top" xlink:title="sensor">
<polygon fill="#a2b4d6" stroke="#404040" points="251.5,-184 202.5,-184 202.5,-165 251.5,-165 251.5,-184"/>
<text text-anchor="middle" x="227" y="-172" font-family="Helvetica,sans-Serif" font-size="10.00">sensor</text>
</a>
</g>
</g>
<!-- dir_9eca5c3c9f3db5a997d6484005d0264a&#45;&gt;dir_1076dd02d5eb8cf6d0e12dcc1217a0a2 -->
<g id="edge14" class="edge">
<title>dir_9eca5c3c9f3db5a997d6484005d0264a&#45;&gt;dir_1076dd02d5eb8cf6d0e12dcc1217a0a2</title>
<g id="a_edge14"><a xlink:href="dir_000041_000002.html" target="_top">
<path fill="none" stroke="#63b8ff" d="M211.58,-164.98C196.55,-156.69 173.46,-143.94 155.84,-134.22"/>
<polygon fill="#63b8ff" stroke="#63b8ff" points="157.15,-130.94 146.7,-129.17 153.77,-137.07 157.15,-130.94"/>
</a>
</g>
<g id="a_edge14&#45;headlabel"><a xlink:href="dir_000041_000002.html" target="_top" xlink:title="2">
<text text-anchor="middle" x="161.67" y="-127.69" font-family="Helvetica,sans-Serif" font-size="10.00" fill="#63b8ff">2</text>
</a>
</g>
</g>
<!-- dir_9eca5c3c9f3db5a997d6484005d0264a&#45;&gt;dir_f0def43da6858815fcb024e72019effa -->
<g id="edge16" class="edge">
<title>dir_9eca5c3c9f3db5a997d6484005d0264a&#45;&gt;dir_f0def43da6858815fcb024e72019effa</title>
<g id="a_edge16"><a xlink:href="dir_000041_000007.html" target="_top">
<path fill="none" stroke="#63b8ff" d="M216.95,-164.73C206.8,-155.82 190.69,-141.59 177,-129 167.98,-120.7 166.32,-117.96 157,-110 144.82,-99.59 130.55,-88.63 119.21,-80.18"/>
<polygon fill="#63b8ff" stroke="#63b8ff" points="120.96,-77.13 110.84,-74.01 116.81,-82.77 120.96,-77.13"/>
</a>
</g>
<g id="a_edge16&#45;headlabel"><a xlink:href="dir_000041_000007.html" target="_top" xlink:title="2">
<text text-anchor="middle" x="125.54" y="-74.48" font-family="Helvetica,sans-Serif" font-size="10.00" fill="#63b8ff">2</text>
</a>
</g>
</g>
<!-- dir_9eca5c3c9f3db5a997d6484005d0264a&#45;&gt;dir_409f97388efe006bc3438b95e9edef48 -->
<g id="edge15" class="edge">
<title>dir_9eca5c3c9f3db5a997d6484005d0264a&#45;&gt;dir_409f97388efe006bc3438b95e9edef48</title>
<g id="a_edge15"><a xlink:href="dir_000041_000005.html" target="_top">
<path fill="none" stroke="#63b8ff" d="M229.04,-164.74C235,-139.2 252.43,-64.43 260.63,-29.23"/>
<polygon fill="#63b8ff" stroke="#63b8ff" points="264.08,-29.84 262.95,-19.31 257.27,-28.25 264.08,-29.84"/>
</a>
</g>
<g id="a_edge15&#45;headlabel"><a xlink:href="dir_000041_000005.html" target="_top" xlink:title="3">
<text text-anchor="middle" x="266.03" y="-31.49" font-family="Helvetica,sans-Serif" font-size="10.00" fill="#63b8ff">3</text>
</a>
</g>
</g>
<!-- dir_c80600dd16cc4e35cda59ae9218956ae -->
<g id="node8" class="node">
<title>dir_c80600dd16cc4e35cda59ae9218956ae</title>
<g id="a_node8"><a xlink:href="dir_c80600dd16cc4e35cda59ae9218956ae.html" target="_top" xlink:title="storage">
<polygon fill="#a2b4d6" stroke="#404040" points="247.5,-239 194.5,-239 194.5,-220 247.5,-220 247.5,-239"/>
<text text-anchor="middle" x="221" y="-227" font-family="Helvetica,sans-Serif" font-size="10.00">storage</text>
</a>
</g>
</g>
<!-- dir_c80600dd16cc4e35cda59ae9218956ae&#45;&gt;dir_1076dd02d5eb8cf6d0e12dcc1217a0a2 -->
<g id="edge17" class="edge">
<title>dir_c80600dd16cc4e35cda59ae9218956ae&#45;&gt;dir_1076dd02d5eb8cf6d0e12dcc1217a0a2</title>
<g id="a_edge17"><a xlink:href="dir_000043_000002.html" target="_top">
<path fill="none" stroke="#63b8ff" d="M214.58,-219.68C205.43,-207.24 187.98,-183.94 172,-165 163.79,-155.27 154.16,-144.77 146.29,-136.42"/>
<polygon fill="#63b8ff" stroke="#63b8ff" points="148.82,-134 139.4,-129.16 143.75,-138.82 148.82,-134"/>
</a>
</g>
<g id="a_edge17&#45;headlabel"><a xlink:href="dir_000043_000002.html" target="_top" xlink:title="2">
<text text-anchor="middle" x="153.36" y="-132.15" font-family="Helvetica,sans-Serif" font-size="10.00" fill="#63b8ff">2</text>
</a>
</g>
</g>
<!-- dir_c80600dd16cc4e35cda59ae9218956ae&#45;&gt;dir_f0def43da6858815fcb024e72019effa -->
<g id="edge20" class="edge">
<title>dir_c80600dd16cc4e35cda59ae9218956ae&#45;&gt;dir_f0def43da6858815fcb024e72019effa</title>
<g id="a_edge20"><a xlink:href="dir_000043_000007.html" target="_top">
<path fill="none" stroke="#63b8ff" d="M194.11,-220.02C166.55,-210.85 126.19,-195.94 115,-184 89.65,-156.95 91.88,-109.98 95.55,-84.04"/>
<polygon fill="#63b8ff" stroke="#63b8ff" points="99.02,-84.47 97.19,-74.04 92.12,-83.34 99.02,-84.47"/>
</a>
</g>
<g id="a_edge20&#45;headlabel"><a xlink:href="dir_000043_000007.html" target="_top" xlink:title="2">
<text text-anchor="middle" x="101.25" y="-85.98" font-family="Helvetica,sans-Serif" font-size="10.00" fill="#63b8ff">2</text>
</a>
</g>
</g>
<!-- dir_c80600dd16cc4e35cda59ae9218956ae&#45;&gt;dir_e4b9c6f7e7339e84c015f7e12cbe2261 -->
<g id="edge19" class="edge">
<title>dir_c80600dd16cc4e35cda59ae9218956ae&#45;&gt;dir_e4b9c6f7e7339e84c015f7e12cbe2261</title>
<g id="a_edge19"><a xlink:href="dir_000043_000046.html" target="_top">
<path fill="none" stroke="#63b8ff" d="M208.63,-219.98C196.91,-211.92 179.08,-199.65 165.11,-190.03"/>
<polygon fill="#63b8ff" stroke="#63b8ff" points="166.82,-186.96 156.6,-184.17 162.85,-192.72 166.82,-186.96"/>
</a>
</g>
<g id="a_edge19&#45;headlabel"><a xlink:href="dir_000043_000046.html" target="_top" xlink:title="2">
<text text-anchor="middle" x="171.39" y="-184.16" font-family="Helvetica,sans-Serif" font-size="10.00" fill="#63b8ff">2</text>
</a>
</g>
</g>
<!-- dir_c80600dd16cc4e35cda59ae9218956ae&#45;&gt;dir_409f97388efe006bc3438b95e9edef48 -->
<g id="edge18" class="edge">
<title>dir_c80600dd16cc4e35cda59ae9218956ae&#45;&gt;dir_409f97388efe006bc3438b95e9edef48</title>
<g id="a_edge18"><a xlink:href="dir_000043_000005.html" target="_top">
<path fill="none" stroke="#63b8ff" d="M247.69,-226.54C275.05,-222.95 316.27,-212.78 336,-184 372.43,-130.84 372.1,-92.39 336,-39 330.48,-30.83 322.19,-25.01 313.2,-20.85"/>
<polygon fill="#63b8ff" stroke="#63b8ff" points="314.26,-17.5 303.67,-17.09 311.69,-24.02 314.26,-17.5"/>
</a>
</g>
<g id="a_edge18&#45;headlabel"><a xlink:href="dir_000043_000005.html" target="_top" xlink:title="1">
<text text-anchor="middle" x="318.65" y="-13.68" font-family="Helvetica,sans-Serif" font-size="10.00" fill="#63b8ff">1</text>
</a>
</g>
</g>
<!-- dir_e4b9c6f7e7339e84c015f7e12cbe2261&#45;&gt;dir_1076dd02d5eb8cf6d0e12dcc1217a0a2 -->
<g id="edge21" class="edge">
<title>dir_e4b9c6f7e7339e84c015f7e12cbe2261&#45;&gt;dir_1076dd02d5eb8cf6d0e12dcc1217a0a2</title>
<g id="a_edge21"><a xlink:href="dir_000046_000002.html" target="_top">
<path fill="none" stroke="#63b8ff" d="M141.85,-164.75C140.13,-157.72 137.65,-147.62 135.5,-138.84"/>
<polygon fill="#63b8ff" stroke="#63b8ff" points="138.89,-137.97 133.11,-129.09 132.09,-139.63 138.89,-137.97"/>
</a>
</g>
<g id="a_edge21&#45;headlabel"><a xlink:href="dir_000046_000002.html" target="_top" xlink:title="2">
<text text-anchor="middle" x="142.5" y="-138.28" font-family="Helvetica,sans-Serif" font-size="10.00" fill="#63b8ff">2</text>
</a>
</g>
</g>
<!-- dir_e4b9c6f7e7339e84c015f7e12cbe2261&#45;&gt;dir_f0def43da6858815fcb024e72019effa -->
<g id="edge23" class="edge">
<title>dir_e4b9c6f7e7339e84c015f7e12cbe2261&#45;&gt;dir_f0def43da6858815fcb024e72019effa</title>
<g id="a_edge23"><a xlink:href="dir_000046_000007.html" target="_top">
<path fill="none" stroke="#63b8ff" d="M133.34,-164.86C124.1,-156.68 111.26,-143.53 105,-129 98.9,-114.84 97.66,-97.3 97.8,-84.25"/>
<polygon fill="#63b8ff" stroke="#63b8ff" points="101.3,-84.25 98.19,-74.13 94.3,-83.99 101.3,-84.25"/>
</a>
</g>
<g id="a_edge23&#45;headlabel"><a xlink:href="dir_000046_000007.html" target="_top" xlink:title="2">
<text text-anchor="middle" x="104" y="-85.46" font-family="Helvetica,sans-Serif" font-size="10.00" fill="#63b8ff">2</text>
</a>
</g>
</g>
<!-- dir_e4b9c6f7e7339e84c015f7e12cbe2261&#45;&gt;dir_409f97388efe006bc3438b95e9edef48 -->
<g id="edge22" class="edge">
<title>dir_e4b9c6f7e7339e84c015f7e12cbe2261&#45;&gt;dir_409f97388efe006bc3438b95e9edef48</title>
<g id="a_edge22"><a xlink:href="dir_000046_000005.html" target="_top">
<path fill="none" stroke="#63b8ff" d="M163.55,-167.78C182.37,-161.3 210.36,-148.98 227,-129 251.34,-99.78 260.17,-54.71 263.32,-29.41"/>
<polygon fill="#63b8ff" stroke="#63b8ff" points="266.82,-29.62 264.4,-19.3 259.86,-28.87 266.82,-29.62"/>
</a>
</g>
<g id="a_edge22&#45;headlabel"><a xlink:href="dir_000046_000005.html" target="_top" xlink:title="3">
<text text-anchor="middle" x="269.26" y="-30.99" font-family="Helvetica,sans-Serif" font-size="10.00" fill="#63b8ff">3</text>
</a>
</g>
</g>
</g>
</svg>
</svg>

<style type='text/css'>
<![CDATA[
[data-mouse-over-selected='false'] { opacity: 0.7; }
[data-mouse-over-selected='true']  { opacity: 1.0; }
]]>
</style>
<script type="application/ecmascript"><![CDATA[
document.addEventListener('DOMContentLoaded', (event) => {
  highlightEdges();
  highlightAdjacentNodes();
});
]]></script>
</svg>
