<?xml version="1.0" encoding="UTF-8" standalone="no"?>
<!DOCTYPE svg PUBLIC "-//W3C//DTD SVG 1.1//EN"
 "http://www.w3.org/Graphics/SVG/1.1/DTD/svg11.dtd">
<!-- Generated by graphviz version 2.43.0 (0)
 -->
<!-- Title: main/ceo/managers/storage Pages: 1 -->
<svg width="268pt" height="196pt"
 viewBox="0.00 0.00 267.50 196.00" xmlns="http://www.w3.org/2000/svg" xmlns:xlink="http://www.w3.org/1999/xlink">
<g id="graph0" class="graph" transform="scale(1 1) rotate(0) translate(4 192)">
<title>main/ceo/managers/storage</title>
<g id="clust1" class="cluster">
<title>clusterdir_850aa22a015276891fa6057cf395aea5</title>
<g id="a_clust1"><a xlink:href="dir_850aa22a015276891fa6057cf395aea5.html" target="_top" xlink:title="managers">
<polygon fill="#edf0f7" stroke="#7f7f7f" stroke-dasharray="5,2" points="8,-8 8,-180 172,-180 172,-8 8,-8"/>
<text text-anchor="middle" x="90" y="-168" font-family="Helvetica,sans-Serif" font-size="10.00">managers</text>
</a>
</g>
</g>
<g id="clust2" class="cluster">
<title>clusterdir_c80600dd16cc4e35cda59ae9218956ae</title>
<g id="a_clust2"><a xlink:href="dir_c80600dd16cc4e35cda59ae9218956ae.html" target="_top">
<polygon fill="#edf0f7" stroke="#404040" stroke-width="2" points="64,-63 64,-153 134,-153 134,-63 64,-63"/>
</a>
</g>
</g>
<!-- dir_1076dd02d5eb8cf6d0e12dcc1217a0a2 -->
<g id="node1" class="node">
<title>dir_1076dd02d5eb8cf6d0e12dcc1217a0a2</title>
<g id="a_node1"><a xlink:href="dir_1076dd02d5eb8cf6d0e12dcc1217a0a2.html" target="_top" xlink:title="bus">
<polygon fill="#a2b4d6" stroke="red" points="50,-35 16,-35 16,-16 50,-16 50,-35"/>
<text text-anchor="middle" x="33" y="-23" font-family="Helvetica,sans-Serif" font-size="10.00">bus</text>
</a>
</g>
</g>
<!-- dir_e4b9c6f7e7339e84c015f7e12cbe2261 -->
<g id="node2" class="node">
<title>dir_e4b9c6f7e7339e84c015f7e12cbe2261</title>
<g id="a_node2"><a xlink:href="dir_e4b9c6f7e7339e84c015f7e12cbe2261.html" target="_top" xlink:title="time">
<polygon fill="#a2b4d6" stroke="red" points="107.5,-35 68.5,-35 68.5,-16 107.5,-16 107.5,-35"/>
<text text-anchor="middle" x="88" y="-23" font-family="Helvetica,sans-Serif" font-size="10.00">time</text>
</a>
</g>
</g>
<!-- dir_f0def43da6858815fcb024e72019effa -->
<g id="node3" class="node">
<title>dir_f0def43da6858815fcb024e72019effa</title>
<g id="a_node3"><a xlink:href="dir_f0def43da6858815fcb024e72019effa.html" target="_top" xlink:title="data">
<polygon fill="#a2b4d6" stroke="red" points="164,-35 126,-35 126,-16 164,-16 164,-35"/>
<text text-anchor="middle" x="145" y="-23" font-family="Helvetica,sans-Serif" font-size="10.00">data</text>
</a>
</g>
</g>
<!-- dir_c80600dd16cc4e35cda59ae9218956ae -->
<g id="node4" class="node">
<title>dir_c80600dd16cc4e35cda59ae9218956ae</title>
<text text-anchor="middle" x="99" y="-133" font-family="Helvetica,sans-Serif" font-size="10.00">storage</text>
</g>
<!-- dir_c80600dd16cc4e35cda59ae9218956ae&#45;&gt;dir_1076dd02d5eb8cf6d0e12dcc1217a0a2 -->
<g id="edge1" class="edge">
<title>dir_c80600dd16cc4e35cda59ae9218956ae&#45;&gt;dir_1076dd02d5eb8cf6d0e12dcc1217a0a2</title>
<g id="a_edge1"><a xlink:href="dir_000043_000002.html" target="_top">
<path fill="none" stroke="#63b8ff" d="M89.1,-125.79C80.02,-117.37 66.7,-103.89 58,-90 49.15,-75.88 42.48,-58.11 38.27,-44.96"/>
<polygon fill="#63b8ff" stroke="#63b8ff" points="41.55,-43.75 35.31,-35.19 34.85,-45.77 41.55,-43.75"/>
</a>
</g>
<g id="a_edge1&#45;headlabel"><a xlink:href="dir_000043_000002.html" target="_top" xlink:title="2">
<text text-anchor="middle" x="45.31" y="-43.86" font-family="Helvetica,sans-Serif" font-size="10.00" fill="#63b8ff">2</text>
</a>
</g>
</g>
<!-- dir_c80600dd16cc4e35cda59ae9218956ae&#45;&gt;dir_e4b9c6f7e7339e84c015f7e12cbe2261 -->
<g id="edge3" class="edge">
<title>dir_c80600dd16cc4e35cda59ae9218956ae&#45;&gt;dir_e4b9c6f7e7339e84c015f7e12cbe2261</title>
<g id="a_edge3"><a xlink:href="dir_000043_000046.html" target="_top">
<path fill="none" stroke="#63b8ff" d="M89.39,-125.69C81.13,-117.41 69.8,-104.18 65,-90 61.15,-78.63 61.67,-74.53 65,-63 66.99,-56.11 70.71,-49.26 74.59,-43.39"/>
<polygon fill="#63b8ff" stroke="#63b8ff" points="77.56,-45.26 80.59,-35.11 71.89,-41.15 77.56,-45.26"/>
</a>
</g>
<g id="a_edge3&#45;headlabel"><a xlink:href="dir_000043_000046.html" target="_top" xlink:title="2">
<text text-anchor="middle" x="77.75" y="-47.34" font-family="Helvetica,sans-Serif" font-size="10.00" fill="#63b8ff">2</text>
</a>
</g>
</g>
<!-- dir_c80600dd16cc4e35cda59ae9218956ae&#45;&gt;dir_f0def43da6858815fcb024e72019effa -->
<g id="edge4" class="edge">
<title>dir_c80600dd16cc4e35cda59ae9218956ae&#45;&gt;dir_f0def43da6858815fcb024e72019effa</title>
<g id="a_edge4"><a xlink:href="dir_000043_000007.html" target="_top">
<path fill="none" stroke="#63b8ff" d="M108.31,-125.92C116.71,-117.59 128.7,-104.17 135,-90 141.31,-75.8 143.71,-58.27 144.59,-45.22"/>
<polygon fill="#63b8ff" stroke="#63b8ff" points="148.1,-45.26 145.04,-35.11 141.1,-44.95 148.1,-45.26"/>
</a>
</g>
<g id="a_edge4&#45;headlabel"><a xlink:href="dir_000043_000007.html" target="_top" xlink:title="2">
<text text-anchor="middle" x="150.78" y="-46.47" font-family="Helvetica,sans-Serif" font-size="10.00" fill="#63b8ff">2</text>
</a>
</g>
</g>
<!-- dir_4fc5b290760cbcca89f12bc84e307c16 -->
<g id="node5" class="node">
<title>dir_4fc5b290760cbcca89f12bc84e307c16</title>
<g id="a_node5"><a xlink:href="dir_4fc5b290760cbcca89f12bc84e307c16.html" target="_top" xlink:title="include">
<polygon fill="#a2b4d6" stroke="#404040" points="126,-90 74,-90 74,-71 126,-71 126,-90"/>
<text text-anchor="middle" x="100" y="-78" font-family="Helvetica,sans-Serif" font-size="10.00">include</text>
</a>
</g>
</g>
<!-- dir_c80600dd16cc4e35cda59ae9218956ae&#45;&gt;dir_4fc5b290760cbcca89f12bc84e307c16 -->
<g id="edge2" class="edge">
<title>dir_c80600dd16cc4e35cda59ae9218956ae&#45;&gt;dir_4fc5b290760cbcca89f12bc84e307c16</title>
<g id="a_edge2"><a xlink:href="dir_000043_000030.html" target="_top">
<path fill="none" stroke="#63b8ff" d="M99.17,-125.75C99.3,-118.8 99.48,-108.85 99.65,-100.13"/>
<polygon fill="#63b8ff" stroke="#63b8ff" points="103.15,-100.15 99.84,-90.09 96.15,-100.02 103.15,-100.15"/>
</a>
</g>
<g id="a_edge2&#45;headlabel"><a xlink:href="dir_000043_000030.html" target="_top" xlink:title="1">
<text text-anchor="middle" x="105.92" y="-101.3" font-family="Helvetica,sans-Serif" font-size="10.00" fill="#63b8ff">1</text>
</a>
</g>
</g>
<!-- dir_4fc5b290760cbcca89f12bc84e307c16&#45;&gt;dir_1076dd02d5eb8cf6d0e12dcc1217a0a2 -->
<g id="edge5" class="edge">
<title>dir_4fc5b290760cbcca89f12bc84e307c16&#45;&gt;dir_1076dd02d5eb8cf6d0e12dcc1217a0a2</title>
<g id="a_edge5"><a xlink:href="dir_000030_000002.html" target="_top">
<path fill="none" stroke="#63b8ff" d="M89.24,-70.98C79.23,-63.07 64.11,-51.11 52.07,-41.58"/>
<polygon fill="#63b8ff" stroke="#63b8ff" points="53.97,-38.63 43.96,-35.17 49.63,-44.12 53.97,-38.63"/>
</a>
</g>
<g id="a_edge5&#45;headlabel"><a xlink:href="dir_000030_000002.html" target="_top" xlink:title="1">
<text text-anchor="middle" x="58.56" y="-36.13" font-family="Helvetica,sans-Serif" font-size="10.00" fill="#63b8ff">1</text>
</a>
</g>
</g>
<!-- dir_4fc5b290760cbcca89f12bc84e307c16&#45;&gt;dir_e4b9c6f7e7339e84c015f7e12cbe2261 -->
<g id="edge7" class="edge">
<title>dir_4fc5b290760cbcca89f12bc84e307c16&#45;&gt;dir_e4b9c6f7e7339e84c015f7e12cbe2261</title>
<g id="a_edge7"><a xlink:href="dir_000030_000046.html" target="_top">
<path fill="none" stroke="#63b8ff" d="M98.02,-70.75C96.43,-63.72 94.14,-53.62 92.15,-44.84"/>
<polygon fill="#63b8ff" stroke="#63b8ff" points="95.57,-44.07 89.94,-35.09 88.74,-45.62 95.57,-44.07"/>
</a>
</g>
<g id="a_edge7&#45;headlabel"><a xlink:href="dir_000030_000046.html" target="_top" xlink:title="1">
<text text-anchor="middle" x="99.13" y="-44.45" font-family="Helvetica,sans-Serif" font-size="10.00" fill="#63b8ff">1</text>
</a>
</g>
</g>
<!-- dir_4fc5b290760cbcca89f12bc84e307c16&#45;&gt;dir_f0def43da6858815fcb024e72019effa -->
<g id="edge8" class="edge">
<title>dir_4fc5b290760cbcca89f12bc84e307c16&#45;&gt;dir_f0def43da6858815fcb024e72019effa</title>
<g id="a_edge8"><a xlink:href="dir_000030_000007.html" target="_top">
<path fill="none" stroke="#63b8ff" d="M107.43,-70.75C113.85,-63.18 123.31,-52.05 131.12,-42.84"/>
<polygon fill="#63b8ff" stroke="#63b8ff" points="133.9,-44.98 137.71,-35.09 128.57,-40.45 133.9,-44.98"/>
</a>
</g>
<g id="a_edge8&#45;headlabel"><a xlink:href="dir_000030_000007.html" target="_top" xlink:title="1">
<text text-anchor="middle" x="133.74" y="-47.06" font-family="Helvetica,sans-Serif" font-size="10.00" fill="#63b8ff">1</text>
</a>
</g>
</g>
<!-- dir_409f97388efe006bc3438b95e9edef48 -->
<g id="node6" class="node">
<title>dir_409f97388efe006bc3438b95e9edef48</title>
<g id="a_node6"><a xlink:href="dir_409f97388efe006bc3438b95e9edef48.html" target="_top" xlink:title="components">
<polygon fill="#edf0f7" stroke="red" points="259.5,-35 182.5,-35 182.5,-16 259.5,-16 259.5,-35"/>
<text text-anchor="middle" x="221" y="-23" font-family="Helvetica,sans-Serif" font-size="10.00">components</text>
</a>
</g>
</g>
<!-- dir_4fc5b290760cbcca89f12bc84e307c16&#45;&gt;dir_409f97388efe006bc3438b95e9edef48 -->
<g id="edge6" class="edge">
<title>dir_4fc5b290760cbcca89f12bc84e307c16&#45;&gt;dir_409f97388efe006bc3438b95e9edef48</title>
<g id="a_edge6"><a xlink:href="dir_000030_000005.html" target="_top">
<path fill="none" stroke="#63b8ff" d="M119.44,-70.98C138.99,-62.42 169.38,-49.11 191.82,-39.28"/>
<polygon fill="#63b8ff" stroke="#63b8ff" points="193.45,-42.39 201.21,-35.17 190.64,-35.98 193.45,-42.39"/>
</a>
</g>
<g id="a_edge6&#45;headlabel"><a xlink:href="dir_000030_000005.html" target="_top" xlink:title="1">
<text text-anchor="middle" x="191.3" y="-43.93" font-family="Helvetica,sans-Serif" font-size="10.00" fill="#63b8ff">1</text>
</a>
</g>
</g>
</g>
</svg>
