<?xml version="1.0" encoding="UTF-8" standalone="no"?>
<!DOCTYPE svg PUBLIC "-//W3C//DTD SVG 1.1//EN"
 "http://www.w3.org/Graphics/SVG/1.1/DTD/svg11.dtd">
<!-- Generated by graphviz version 2.43.0 (0)
 -->
<!-- Title: main/ceo/managers/bus/include/I2CBus.hpp Pages: 1 -->
<svg width="1436pt" height="434pt"
 viewBox="0.00 0.00 1436.00 434.00" xmlns="http://www.w3.org/2000/svg" xmlns:xlink="http://www.w3.org/1999/xlink">
<g id="graph0" class="graph" transform="scale(1 1) rotate(0) translate(4 430)">
<title>main/ceo/managers/bus/include/I2CBus.hpp</title>
<!-- Node1 -->
<g id="Node000001" class="node">
<title>Node1</title>
<g id="a_Node000001"><a xlink:title="Industrial I2C Master bus driver with health monitoring.">
<polygon fill="#999999" stroke="#666666" points="728,-426 594,-426 594,-396 728,-396 728,-426"/>
<text text-anchor="start" x="602" y="-414" font-family="Helvetica,sans-Serif" font-size="10.00">main/ceo/managers/bus</text>
<text text-anchor="middle" x="661" y="-403" font-family="Helvetica,sans-Serif" font-size="10.00">/include/I2CBus.hpp</text>
</a>
</g>
</g>
<!-- Node2 -->
<g id="Node000002" class="node">
<title>Node2</title>
<g id="a_Node000002"><a xlink:href="I2CBus_8cpp.html" target="_top" xlink:title=" ">
<polygon fill="white" stroke="#666666" points="456,-360 322,-360 322,-330 456,-330 456,-360"/>
<text text-anchor="start" x="330" y="-348" font-family="Helvetica,sans-Serif" font-size="10.00">main/ceo/managers/bus</text>
<text text-anchor="middle" x="389" y="-337" font-family="Helvetica,sans-Serif" font-size="10.00">/I2CBus.cpp</text>
</a>
</g>
</g>
<!-- Node1&#45;&gt;Node2 -->
<g id="edge1_Node000001_Node000002" class="edge">
<title>Node1&#45;&gt;Node2</title>
<g id="a_edge1_Node000001_Node000002"><a xlink:title=" ">
<path fill="none" stroke="#63b8ff" d="M591.51,-393.65C547.31,-383.25 490.68,-369.93 448.55,-360.01"/>
<polygon fill="#63b8ff" stroke="#63b8ff" points="590.77,-397.07 601.31,-395.95 592.38,-390.26 590.77,-397.07"/>
</a>
</g>
</g>
<!-- Node3 -->
<g id="Node000003" class="node">
<title>Node3</title>
<g id="a_Node000003"><a xlink:href="BusManager_8hpp.html" target="_top" xlink:title="The peripheral nervous system managing all communication pathways.">
<polygon fill="white" stroke="#666666" points="613.5,-360 474.5,-360 474.5,-330 613.5,-330 613.5,-360"/>
<text text-anchor="start" x="482.5" y="-348" font-family="Helvetica,sans-Serif" font-size="10.00">main/ceo/managers/bus</text>
<text text-anchor="middle" x="544" y="-337" font-family="Helvetica,sans-Serif" font-size="10.00">/include/BusManager.hpp</text>
</a>
</g>
</g>
<!-- Node1&#45;&gt;Node3 -->
<g id="edge2_Node000001_Node000003" class="edge">
<title>Node1&#45;&gt;Node3</title>
<g id="a_edge2_Node000001_Node000003"><a xlink:title=" ">
<path fill="none" stroke="#63b8ff" d="M626.21,-390.97C608.05,-381.03 586.22,-369.09 569.62,-360.01"/>
<polygon fill="#63b8ff" stroke="#63b8ff" points="624.87,-394.23 635.32,-395.95 628.23,-388.09 624.87,-394.23"/>
</a>
</g>
</g>
<!-- Node12 -->
<g id="Node000012" class="node">
<title>Node12</title>
<g id="a_Node000012"><a xlink:href="TimeManager_8cpp.html" target="_top" xlink:title=" ">
<polygon fill="white" stroke="#666666" points="1217.5,-162 1078.5,-162 1078.5,-132 1217.5,-132 1217.5,-162"/>
<text text-anchor="start" x="1086.5" y="-150" font-family="Helvetica,sans-Serif" font-size="10.00">main/ceo/managers/time</text>
<text text-anchor="middle" x="1148" y="-139" font-family="Helvetica,sans-Serif" font-size="10.00">/TimeManager.cpp</text>
</a>
</g>
</g>
<!-- Node1&#45;&gt;Node12 -->
<g id="edge40_Node000001_Node000012" class="edge">
<title>Node1&#45;&gt;Node12</title>
<g id="a_edge40_Node000001_Node000012"><a xlink:title=" ">
<path fill="none" stroke="#63b8ff" d="M696.19,-391.07C789.15,-341.05 1039.76,-206.23 1121.69,-162.16"/>
<polygon fill="#63b8ff" stroke="#63b8ff" points="694.33,-388.09 687.18,-395.91 697.65,-394.26 694.33,-388.09"/>
</a>
</g>
</g>
<!-- Node13 -->
<g id="Node000013" class="node">
<title>Node13</title>
<g id="a_Node000013"><a xlink:href="TimeManager_8hpp.html" target="_top" xlink:title="The biological clock and circadian rhythm (pacemaker) of the organism.">
<polygon fill="white" stroke="#666666" points="800,-228 654,-228 654,-198 800,-198 800,-228"/>
<text text-anchor="start" x="662" y="-216" font-family="Helvetica,sans-Serif" font-size="10.00">main/ceo/managers/time</text>
<text text-anchor="middle" x="727" y="-205" font-family="Helvetica,sans-Serif" font-size="10.00">/include/TimeManager.hpp</text>
</a>
</g>
</g>
<!-- Node1&#45;&gt;Node13 -->
<g id="edge41_Node000001_Node000013" class="edge">
<title>Node1&#45;&gt;Node13</title>
<g id="a_edge41_Node000001_Node000013"><a xlink:title=" ">
<path fill="none" stroke="#63b8ff" d="M681.94,-388.12C701.28,-366.28 728.67,-330.75 740,-294 746.92,-271.54 739.28,-244.34 733.13,-228.14"/>
<polygon fill="#63b8ff" stroke="#63b8ff" points="679.11,-386.04 674.98,-395.8 684.29,-390.75 679.11,-386.04"/>
</a>
</g>
</g>
<!-- Node4 -->
<g id="Node000004" class="node">
<title>Node4</title>
<g id="a_Node000004"><a xlink:href="IActuator_8hpp.html" target="_top" xlink:title="The abstract behavioral contract for all executive organs (limbs).">
<polygon fill="white" stroke="#666666" points="1399.5,-162 1274.5,-162 1274.5,-132 1399.5,-132 1399.5,-162"/>
<text text-anchor="start" x="1282.5" y="-150" font-family="Helvetica,sans-Serif" font-size="10.00">components/contracts</text>
<text text-anchor="middle" x="1337" y="-139" font-family="Helvetica,sans-Serif" font-size="10.00">/include/IActuator.hpp</text>
</a>
</g>
</g>
<!-- Node3&#45;&gt;Node4 -->
<g id="edge3_Node000003_Node000004" class="edge">
<title>Node3&#45;&gt;Node4</title>
<g id="a_edge3_Node000003_Node000004"><a xlink:title=" ">
<path fill="none" stroke="#63b8ff" d="M623.94,-342.76C799.59,-339.42 1207.77,-328.04 1260,-294 1307.54,-263.02 1327.6,-192.62 1334.25,-162.32"/>
<polygon fill="#63b8ff" stroke="#63b8ff" points="623.66,-339.26 613.72,-342.95 623.79,-346.26 623.66,-339.26"/>
</a>
</g>
</g>
<!-- Node5 -->
<g id="Node000005" class="node">
<title>Node5</title>
<g id="a_Node000005"><a xlink:href="ActuatorManager_8cpp.html" target="_top" xlink:title=" ">
<polygon fill="white" stroke="#666666" points="1361.5,-30 1204.5,-30 1204.5,0 1361.5,0 1361.5,-30"/>
<text text-anchor="start" x="1212.5" y="-18" font-family="Helvetica,sans-Serif" font-size="10.00">main/ceo/managers/actuator</text>
<text text-anchor="middle" x="1283" y="-7" font-family="Helvetica,sans-Serif" font-size="10.00">/ActuatorManager.cpp</text>
</a>
</g>
</g>
<!-- Node3&#45;&gt;Node5 -->
<g id="edge30_Node000003_Node000005" class="edge">
<title>Node3&#45;&gt;Node5</title>
<g id="a_edge30_Node000003_Node000005"><a xlink:title=" ">
<path fill="none" stroke="#63b8ff" d="M623.65,-343.15C789.28,-340.64 1165.62,-330.94 1288,-294 1356.61,-273.29 1428,-285.66 1428,-214 1428,-214 1428,-214 1428,-146 1428,-87.85 1362.54,-49.15 1319.59,-30.02"/>
<polygon fill="#63b8ff" stroke="#63b8ff" points="623.47,-339.65 613.53,-343.29 623.58,-346.65 623.47,-339.65"/>
</a>
</g>
</g>
<!-- Node6 -->
<g id="Node000006" class="node">
<title>Node6</title>
<g id="a_Node000006"><a xlink:href="ActuatorManager_8hpp.html" target="_top" xlink:title="Interface for all executive organs (limbs) of the organism.">
<polygon fill="white" stroke="#666666" points="1310,-96 1148,-96 1148,-66 1310,-66 1310,-96"/>
<text text-anchor="start" x="1156" y="-84" font-family="Helvetica,sans-Serif" font-size="10.00">main/ceo/managers/actuator</text>
<text text-anchor="middle" x="1229" y="-73" font-family="Helvetica,sans-Serif" font-size="10.00">/include/ActuatorManager.hpp</text>
</a>
</g>
</g>
<!-- Node3&#45;&gt;Node6 -->
<g id="edge31_Node000003_Node000006" class="edge">
<title>Node3&#45;&gt;Node6</title>
<g id="a_edge31_Node000003_Node000006"><a xlink:title=" ">
<path fill="none" stroke="#63b8ff" d="M623.6,-328.97C670.02,-319.79 729.57,-307.28 782,-294 981.57,-243.46 1099.83,-324.68 1226,-162 1240.65,-143.11 1236.97,-113.49 1232.98,-96.09"/>
<polygon fill="#63b8ff" stroke="#63b8ff" points="622.74,-325.57 613.6,-330.94 624.09,-332.44 622.74,-325.57"/>
</a>
</g>
</g>
<!-- Node7 -->
<g id="Node000007" class="node">
<title>Node7</title>
<g id="a_Node000007"><a xlink:href="CEO_8cpp.html" target="_top" xlink:title=" ">
<polygon fill="white" stroke="#666666" points="867.5,-24.5 762.5,-24.5 762.5,-5.5 867.5,-5.5 867.5,-24.5"/>
<text text-anchor="middle" x="815" y="-12.5" font-family="Helvetica,sans-Serif" font-size="10.00">main/ceo/CEO.cpp</text>
</a>
</g>
</g>
<!-- Node3&#45;&gt;Node7 -->
<g id="edge29_Node000003_Node000007" class="edge">
<title>Node3&#45;&gt;Node7</title>
<g id="a_edge29_Node000003_Node000007"><a xlink:title=" ">
<path fill="none" stroke="#63b8ff" d="M464.24,-330.1C365.9,-319.25 158.74,-328.06 84,-294 37.09,-272.62 0,-265.56 0,-214 0,-214 0,-214 0,-146 0,-80.79 61.19,-86.79 123,-66 241.38,-26.19 622.06,-18.07 762.4,-16.42"/>
<polygon fill="#63b8ff" stroke="#63b8ff" points="463.91,-333.58 474.26,-331.32 464.76,-326.63 463.91,-333.58"/>
</a>
</g>
</g>
<!-- Node8 -->
<g id="Node000008" class="node">
<title>Node8</title>
<g id="a_Node000008"><a xlink:href="ISensor_8hpp.html" target="_top" xlink:title="The abstract behavioral contract for all sensory organs (receptors).">
<polygon fill="white" stroke="#666666" points="230.5,-294 105.5,-294 105.5,-264 230.5,-264 230.5,-294"/>
<text text-anchor="start" x="113.5" y="-282" font-family="Helvetica,sans-Serif" font-size="10.00">components/contracts</text>
<text text-anchor="middle" x="168" y="-271" font-family="Helvetica,sans-Serif" font-size="10.00">/include/ISensor.hpp</text>
</a>
</g>
</g>
<!-- Node3&#45;&gt;Node8 -->
<g id="edge8_Node000003_Node000008" class="edge">
<title>Node3&#45;&gt;Node8</title>
<g id="a_edge8_Node000003_Node000008"><a xlink:title=" ">
<path fill="none" stroke="#63b8ff" d="M464.24,-329.89C363.48,-313.05 336.6,-311.12 240,-294 236.99,-293.47 233.91,-292.91 230.81,-292.34"/>
<polygon fill="#63b8ff" stroke="#63b8ff" points="463.78,-333.36 474.22,-331.57 464.94,-326.46 463.78,-333.36"/>
</a>
</g>
</g>
<!-- Node9 -->
<g id="Node000009" class="node">
<title>Node9</title>
<g id="a_Node000009"><a xlink:href="SensorManager_8cpp.html" target="_top" xlink:title=" ">
<polygon fill="white" stroke="#666666" points="228.5,-162 79.5,-162 79.5,-132 228.5,-132 228.5,-162"/>
<text text-anchor="start" x="87.5" y="-150" font-family="Helvetica,sans-Serif" font-size="10.00">main/ceo/managers/sensor</text>
<text text-anchor="middle" x="154" y="-139" font-family="Helvetica,sans-Serif" font-size="10.00">/SensorManager.cpp</text>
</a>
</g>
</g>
<!-- Node3&#45;&gt;Node9 -->
<g id="edge34_Node000003_Node000009" class="edge">
<title>Node3&#45;&gt;Node9</title>
<g id="a_edge34_Node000003_Node000009"><a xlink:title=" ">
<path fill="none" stroke="#63b8ff" d="M500.04,-325.98C479.81,-317.15 455.75,-305.87 435,-294 414.77,-282.43 412.09,-275.81 392,-264 321.26,-222.43 233.46,-182.43 186.78,-162.03"/>
<polygon fill="#63b8ff" stroke="#63b8ff" points="498.77,-329.24 509.34,-329.99 501.54,-322.82 498.77,-329.24"/>
</a>
</g>
</g>
<!-- Node10 -->
<g id="Node000010" class="node">
<title>Node10</title>
<g id="a_Node000010"><a xlink:href="SensorManager_8hpp.html" target="_top" xlink:title="The sensory cortex (afferent system) of the organism.">
<polygon fill="white" stroke="#666666" points="182,-228 28,-228 28,-198 182,-198 182,-228"/>
<text text-anchor="start" x="36" y="-216" font-family="Helvetica,sans-Serif" font-size="10.00">main/ceo/managers/sensor</text>
<text text-anchor="middle" x="105" y="-205" font-family="Helvetica,sans-Serif" font-size="10.00">/include/SensorManager.hpp</text>
</a>
</g>
</g>
<!-- Node3&#45;&gt;Node10 -->
<g id="edge35_Node000003_Node000010" class="edge">
<title>Node3&#45;&gt;Node10</title>
<g id="a_edge35_Node000003_Node000010"><a xlink:title=" ">
<path fill="none" stroke="#63b8ff" d="M463.88,-330.26C392.14,-324.32 122.17,-322.84 96,-294 79.75,-276.09 89.58,-245.85 97.65,-228.13"/>
<polygon fill="#63b8ff" stroke="#63b8ff" points="463.95,-333.78 474.26,-331.34 464.68,-326.82 463.95,-333.78"/>
</a>
</g>
</g>
<!-- Node11 -->
<g id="Node000011" class="node">
<title>Node11</title>
<g id="a_Node000011"><a xlink:href="ITimeSource_8hpp.html" target="_top" xlink:title="The abstract behavioral contract for all temporal reference organs.">
<polygon fill="white" stroke="#666666" points="731,-294 591,-294 591,-264 731,-264 731,-294"/>
<text text-anchor="start" x="599" y="-282" font-family="Helvetica,sans-Serif" font-size="10.00">components/contracts</text>
<text text-anchor="middle" x="661" y="-271" font-family="Helvetica,sans-Serif" font-size="10.00">/include/ITimeSource.hpp</text>
</a>
</g>
</g>
<!-- Node3&#45;&gt;Node11 -->
<g id="edge13_Node000003_Node000011" class="edge">
<title>Node3&#45;&gt;Node11</title>
<g id="a_edge13_Node000003_Node000011"><a xlink:title=" ">
<path fill="none" stroke="#63b8ff" d="M578.79,-324.97C596.95,-315.03 618.78,-303.09 635.38,-294.01"/>
<polygon fill="#63b8ff" stroke="#63b8ff" points="576.77,-322.09 569.68,-329.95 580.13,-328.23 576.77,-322.09"/>
</a>
</g>
</g>
<!-- Node14 -->
<g id="Node000014" class="node">
<title>Node14</title>
<g id="a_Node000014"><a xlink:href="CommunicationManager_8hpp.html" target="_top" xlink:title="The external interface and vocal apparatus of the organism.">
<polygon fill="white" stroke="#666666" points="1060,-162 862,-162 862,-132 1060,-132 1060,-162"/>
<text text-anchor="start" x="870" y="-150" font-family="Helvetica,sans-Serif" font-size="10.00">main/ceo/managers/communication</text>
<text text-anchor="middle" x="961" y="-139" font-family="Helvetica,sans-Serif" font-size="10.00">/include/CommunicationManager.hpp</text>
</a>
</g>
</g>
<!-- Node3&#45;&gt;Node14 -->
<g id="edge33_Node000003_Node000014" class="edge">
<title>Node3&#45;&gt;Node14</title>
<g id="a_edge33_Node000003_Node000014"><a xlink:title=" ">
<path fill="none" stroke="#63b8ff" d="M623.98,-329.93C660.33,-321.95 703.31,-310.24 740,-294 822.62,-257.42 908.62,-190.98 944.12,-162.07"/>
<polygon fill="#63b8ff" stroke="#63b8ff" points="622.96,-326.57 613.91,-332.08 624.42,-333.41 622.96,-326.57"/>
</a>
</g>
</g>
<!-- Node16 -->
<g id="Node000016" class="node">
<title>Node16</title>
<g id="a_Node000016"><a xlink:href="StorageManager_8cpp.html" target="_top" xlink:title="Implementation of hybrid storage management according to AGX Rule.">
<polygon fill="white" stroke="#666666" points="696.5,-96 543.5,-96 543.5,-66 696.5,-66 696.5,-96"/>
<text text-anchor="start" x="551.5" y="-84" font-family="Helvetica,sans-Serif" font-size="10.00">main/ceo/managers/storage</text>
<text text-anchor="middle" x="620" y="-73" font-family="Helvetica,sans-Serif" font-size="10.00">/StorageManager.cpp</text>
</a>
</g>
</g>
<!-- Node3&#45;&gt;Node16 -->
<g id="edge36_Node000003_Node000016" class="edge">
<title>Node3&#45;&gt;Node16</title>
<g id="a_edge36_Node000003_Node000016"><a xlink:title=" ">
<path fill="none" stroke="#63b8ff" d="M515.1,-323.88C491.68,-307.63 457.8,-284.21 428,-264 394.18,-241.07 294.28,-198.03 275,-162 268.71,-150.24 266.27,-142.08 275,-132 308.96,-92.76 452.26,-83.66 543.15,-81.92"/>
<polygon fill="#63b8ff" stroke="#63b8ff" points="513.32,-326.91 523.53,-329.74 517.32,-321.16 513.32,-326.91"/>
</a>
</g>
</g>
<!-- Node17 -->
<g id="Node000017" class="node">
<title>Node17</title>
<g id="a_Node000017"><a xlink:href="StorageManager_8hpp.html" target="_top" xlink:title="The long&#45;term memory and archivist (hippocampus) of the organism.">
<polygon fill="white" stroke="#666666" points="806,-162 648,-162 648,-132 806,-132 806,-162"/>
<text text-anchor="start" x="656" y="-150" font-family="Helvetica,sans-Serif" font-size="10.00">main/ceo/managers/storage</text>
<text text-anchor="middle" x="727" y="-139" font-family="Helvetica,sans-Serif" font-size="10.00">/include/StorageManager.hpp</text>
</a>
</g>
</g>
<!-- Node3&#45;&gt;Node17 -->
<g id="edge37_Node000003_Node000017" class="edge">
<title>Node3&#45;&gt;Node17</title>
<g id="a_edge37_Node000003_Node000017"><a xlink:title=" ">
<path fill="none" stroke="#63b8ff" d="M552.83,-320.51C559.58,-303.98 569.8,-281.73 582,-264 604.99,-230.6 613.42,-223.44 645,-198 662.14,-184.19 683.41,-171.33 699.99,-162.11"/>
<polygon fill="#63b8ff" stroke="#63b8ff" points="549.51,-319.39 549.08,-329.98 556.01,-321.97 549.51,-319.39"/>
</a>
</g>
</g>
<!-- Node18 -->
<g id="Node000018" class="node">
<title>Node18</title>
<g id="a_Node000018"><a xlink:href="ToolBox_8cpp.html" target="_top" xlink:title=" ">
<polygon fill="white" stroke="#666666" points="409.5,-156.5 284.5,-156.5 284.5,-137.5 409.5,-137.5 409.5,-156.5"/>
<text text-anchor="middle" x="347" y="-144.5" font-family="Helvetica,sans-Serif" font-size="10.00">main/tool/ToolBox.cpp</text>
</a>
</g>
</g>
<!-- Node3&#45;&gt;Node18 -->
<g id="edge38_Node000003_Node000018" class="edge">
<title>Node3&#45;&gt;Node18</title>
<g id="a_edge38_Node000003_Node000018"><a xlink:title=" ">
<path fill="none" stroke="#63b8ff" d="M536.31,-320.22C524.95,-288.46 500.84,-232.25 463,-198 439.99,-177.18 406.98,-164.1 382.05,-156.56"/>
<polygon fill="#63b8ff" stroke="#63b8ff" points="533.11,-321.67 539.68,-329.98 539.73,-319.39 533.11,-321.67"/>
</a>
</g>
</g>
<!-- Node19 -->
<g id="Node000019" class="node">
<title>Node19</title>
<g id="a_Node000019"><a xlink:href="ToolBox_8hpp.html" target="_top" xlink:title="The metabolic support and universal toolkit of the organism.">
<polygon fill="white" stroke="#666666" points="592,-156.5 428,-156.5 428,-137.5 592,-137.5 592,-156.5"/>
<text text-anchor="middle" x="510" y="-144.5" font-family="Helvetica,sans-Serif" font-size="10.00">main/tool/include/ToolBox.hpp</text>
</a>
</g>
</g>
<!-- Node3&#45;&gt;Node19 -->
<g id="edge39_Node000003_Node000019" class="edge">
<title>Node3&#45;&gt;Node19</title>
<g id="a_edge39_Node000003_Node000019"><a xlink:title=" ">
<path fill="none" stroke="#63b8ff" d="M539.81,-319.83C532.2,-275.97 516.45,-185.18 511.51,-156.73"/>
<polygon fill="#63b8ff" stroke="#63b8ff" points="536.4,-320.65 541.55,-329.9 543.29,-319.45 536.4,-320.65"/>
</a>
</g>
</g>
<!-- Node20 -->
<g id="Node000020" class="node">
<title>Node20</title>
<g id="a_Node000020"><a xlink:href="BusManager_8cpp.html" target="_top" xlink:title=" ">
<polygon fill="white" stroke="#666666" points="383,-294 249,-294 249,-264 383,-264 383,-294"/>
<text text-anchor="start" x="257" y="-282" font-family="Helvetica,sans-Serif" font-size="10.00">main/ceo/managers/bus</text>
<text text-anchor="middle" x="316" y="-271" font-family="Helvetica,sans-Serif" font-size="10.00">/BusManager.cpp</text>
</a>
</g>
</g>
<!-- Node3&#45;&gt;Node20 -->
<g id="edge32_Node000003_Node000020" class="edge">
<title>Node3&#45;&gt;Node20</title>
<g id="a_edge32_Node000003_Node000020"><a xlink:title=" ">
<path fill="none" stroke="#63b8ff" d="M483.87,-327.12C447.11,-316.8 400.64,-303.76 365.92,-294.01"/>
<polygon fill="#63b8ff" stroke="#63b8ff" points="483.39,-330.62 493.96,-329.95 485.28,-323.88 483.39,-330.62"/>
</a>
</g>
</g>
<!-- Node4&#45;&gt;Node5 -->
<g id="edge4_Node000004_Node000005" class="edge">
<title>Node4&#45;&gt;Node5</title>
<g id="a_edge4_Node000004_Node000005"><a xlink:title=" ">
<path fill="none" stroke="#63b8ff" d="M1334.11,-121.56C1331.56,-105.29 1326.97,-83.72 1319,-66 1313.12,-52.93 1303.53,-39.84 1295.73,-30.34"/>
<polygon fill="#63b8ff" stroke="#63b8ff" points="1330.7,-122.46 1335.56,-131.87 1337.63,-121.48 1330.7,-122.46"/>
</a>
</g>
</g>
<!-- Node4&#45;&gt;Node6 -->
<g id="edge5_Node000004_Node000006" class="edge">
<title>Node4&#45;&gt;Node6</title>
<g id="a_edge5_Node000004_Node000006"><a xlink:title=" ">
<path fill="none" stroke="#63b8ff" d="M1304.42,-126.69C1287.75,-116.82 1267.83,-105.01 1252.65,-96.01"/>
<polygon fill="#63b8ff" stroke="#63b8ff" points="1302.91,-129.87 1313.3,-131.95 1306.48,-123.85 1302.91,-129.87"/>
</a>
</g>
</g>
<!-- Node6&#45;&gt;Node5 -->
<g id="edge7_Node000006_Node000005" class="edge">
<title>Node6&#45;&gt;Node5</title>
<g id="a_edge7_Node000006_Node000005"><a xlink:title=" ">
<path fill="none" stroke="#63b8ff" d="M1247.49,-58.09C1255.28,-48.85 1264.13,-38.36 1271.05,-30.16"/>
<polygon fill="#63b8ff" stroke="#63b8ff" points="1244.76,-55.9 1240.98,-65.8 1250.11,-60.41 1244.76,-55.9"/>
</a>
</g>
</g>
<!-- Node6&#45;&gt;Node7 -->
<g id="edge6_Node000006_Node000007" class="edge">
<title>Node6&#45;&gt;Node7</title>
<g id="a_edge6_Node000006_Node000007"><a xlink:title=" ">
<path fill="none" stroke="#63b8ff" d="M1137.78,-65.9C1054.9,-53.09 935.52,-34.63 867.58,-24.13"/>
<polygon fill="#63b8ff" stroke="#63b8ff" points="1137.28,-69.36 1147.7,-67.43 1138.35,-62.45 1137.28,-69.36"/>
</a>
</g>
</g>
<!-- Node8&#45;&gt;Node9 -->
<g id="edge9_Node000008_Node000009" class="edge">
<title>Node8&#45;&gt;Node9</title>
<g id="a_edge9_Node000008_Node000009"><a xlink:title=" ">
<path fill="none" stroke="#63b8ff" d="M182.23,-254.56C190.13,-238.54 197.22,-216.87 191,-198 186.54,-184.46 176.84,-171.59 168.49,-162.3"/>
<polygon fill="#63b8ff" stroke="#63b8ff" points="178.95,-253.27 177.32,-263.74 185.12,-256.57 178.95,-253.27"/>
</a>
</g>
</g>
<!-- Node8&#45;&gt;Node10 -->
<g id="edge10_Node000008_Node000010" class="edge">
<title>Node8&#45;&gt;Node10</title>
<g id="a_edge10_Node000008_Node000010"><a xlink:title=" ">
<path fill="none" stroke="#63b8ff" d="M146.98,-256.65C137.75,-247.27 127.17,-236.53 118.94,-228.16"/>
<polygon fill="#63b8ff" stroke="#63b8ff" points="144.51,-259.13 154.02,-263.8 149.5,-254.21 144.51,-259.13"/>
</a>
</g>
</g>
<!-- Node10&#45;&gt;Node7 -->
<g id="edge11_Node000010_Node000007" class="edge">
<title>Node10&#45;&gt;Node7</title>
<g id="a_edge11_Node000010_Node000007"><a xlink:title=" ">
<path fill="none" stroke="#63b8ff" d="M83.47,-190.03C69.19,-172.78 55.51,-148.92 70,-132 159.82,-27.11 607.68,-16.32 762.36,-15.77"/>
<polygon fill="#63b8ff" stroke="#63b8ff" points="81.17,-192.72 90.41,-197.91 86.43,-188.09 81.17,-192.72"/>
</a>
</g>
</g>
<!-- Node10&#45;&gt;Node9 -->
<g id="edge12_Node000010_Node000009" class="edge">
<title>Node10&#45;&gt;Node9</title>
<g id="a_edge12_Node000010_Node000009"><a xlink:title=" ">
<path fill="none" stroke="#63b8ff" d="M121.99,-189.81C129.01,-180.64 136.94,-170.28 143.16,-162.16"/>
<polygon fill="#63b8ff" stroke="#63b8ff" points="119.17,-187.73 115.87,-197.8 124.73,-191.98 119.17,-187.73"/>
</a>
</g>
</g>
<!-- Node11&#45;&gt;Node12 -->
<g id="edge14_Node000011_Node000012" class="edge">
<title>Node11&#45;&gt;Node12</title>
<g id="a_edge14_Node000011_Node000012"><a xlink:title=" ">
<path fill="none" stroke="#63b8ff" d="M723.52,-261.31C820.34,-235.47 1004.78,-186.23 1095.27,-162.08"/>
<polygon fill="#63b8ff" stroke="#63b8ff" points="722.34,-258 713.58,-263.96 724.14,-264.77 722.34,-258"/>
</a>
</g>
</g>
<!-- Node11&#45;&gt;Node13 -->
<g id="edge15_Node000011_Node000013" class="edge">
<title>Node11&#45;&gt;Node13</title>
<g id="a_edge15_Node000011_Node000013"><a xlink:title=" ">
<path fill="none" stroke="#63b8ff" d="M683.02,-256.65C692.69,-247.27 703.77,-236.53 712.39,-228.16"/>
<polygon fill="#63b8ff" stroke="#63b8ff" points="680.39,-254.32 675.65,-263.8 685.26,-259.35 680.39,-254.32"/>
</a>
</g>
</g>
<!-- Node13&#45;&gt;Node7 -->
<g id="edge16_Node000013_Node000007" class="edge">
<title>Node13&#45;&gt;Node7</title>
<g id="a_edge16_Node000013_Node000007"><a xlink:title=" ">
<path fill="none" stroke="#63b8ff" d="M780.25,-193.29C793.98,-185.77 807.1,-175.58 815,-162 841.52,-116.43 824.94,-48.53 817.8,-24.67"/>
<polygon fill="#63b8ff" stroke="#63b8ff" points="778.55,-190.23 771.2,-197.85 781.7,-196.48 778.55,-190.23"/>
</a>
</g>
</g>
<!-- Node13&#45;&gt;Node12 -->
<g id="edge26_Node000013_Node000012" class="edge">
<title>Node13&#45;&gt;Node12</title>
<g id="a_edge26_Node000013_Node000012"><a xlink:title=" ">
<path fill="none" stroke="#63b8ff" d="M810.14,-200.56C879.46,-190.85 980.78,-176.26 1069,-162 1072.03,-161.51 1075.11,-161 1078.23,-160.48"/>
<polygon fill="#63b8ff" stroke="#63b8ff" points="809.57,-197.11 800.15,-201.96 810.54,-204.04 809.57,-197.11"/>
</a>
</g>
</g>
<!-- Node13&#45;&gt;Node14 -->
<g id="edge17_Node000013_Node000014" class="edge">
<title>Node13&#45;&gt;Node14</title>
<g id="a_edge17_Node000013_Node000014"><a xlink:title=" ">
<path fill="none" stroke="#63b8ff" d="M788.23,-195.25C826.03,-184.91 873.98,-171.8 909.77,-162.01"/>
<polygon fill="#63b8ff" stroke="#63b8ff" points="787.07,-191.94 778.35,-197.95 788.92,-198.69 787.07,-191.94"/>
</a>
</g>
</g>
<!-- Node13&#45;&gt;Node16 -->
<g id="edge22_Node000013_Node000016" class="edge">
<title>Node13&#45;&gt;Node16</title>
<g id="a_edge22_Node000013_Node000016"><a xlink:title=" ">
<path fill="none" stroke="#63b8ff" d="M678.36,-193.45C663.79,-185.73 649.04,-175.39 639,-162 624.35,-142.47 620.79,-113.34 620.05,-96.14"/>
<polygon fill="#63b8ff" stroke="#63b8ff" points="676.84,-196.6 687.36,-197.92 679.96,-190.33 676.84,-196.6"/>
</a>
</g>
</g>
<!-- Node13&#45;&gt;Node17 -->
<g id="edge23_Node000013_Node000017" class="edge">
<title>Node13&#45;&gt;Node17</title>
<g id="a_edge23_Node000013_Node000017"><a xlink:title=" ">
<path fill="none" stroke="#63b8ff" d="M727,-187.54C727,-178.96 727,-169.61 727,-162.16"/>
<polygon fill="#63b8ff" stroke="#63b8ff" points="723.5,-187.8 727,-197.8 730.5,-187.8 723.5,-187.8"/>
</a>
</g>
</g>
<!-- Node13&#45;&gt;Node18 -->
<g id="edge27_Node000013_Node000018" class="edge">
<title>Node13&#45;&gt;Node18</title>
<g id="a_edge27_Node000013_Node000018"><a xlink:title=" ">
<path fill="none" stroke="#63b8ff" d="M643.64,-199.19C581.61,-189.48 494.9,-175.54 419,-162 409.47,-160.3 399.26,-158.38 389.6,-156.51"/>
<polygon fill="#63b8ff" stroke="#63b8ff" points="643.35,-202.68 653.77,-200.77 644.43,-195.77 643.35,-202.68"/>
</a>
</g>
</g>
<!-- Node13&#45;&gt;Node19 -->
<g id="edge28_Node000013_Node000019" class="edge">
<title>Node13&#45;&gt;Node19</title>
<g id="a_edge28_Node000013_Node000019"><a xlink:title=" ">
<path fill="none" stroke="#63b8ff" d="M669.53,-195.05C627.44,-182.64 572.09,-166.31 538.88,-156.52"/>
<polygon fill="#63b8ff" stroke="#63b8ff" points="668.8,-198.48 679.38,-197.95 670.78,-191.77 668.8,-198.48"/>
</a>
</g>
</g>
<!-- Node14&#45;&gt;Node5 -->
<g id="edge19_Node000014_Node000005" class="edge">
<title>Node14&#45;&gt;Node5</title>
<g id="a_edge19_Node000014_Node000005"><a xlink:title=" ">
<path fill="none" stroke="#63b8ff" d="M1022.41,-128.86C1047.58,-120.63 1076.48,-109.57 1101,-96 1119.82,-85.58 1120.13,-76.34 1139,-66 1167.31,-50.49 1201.35,-38.4 1229.21,-30"/>
<polygon fill="#63b8ff" stroke="#63b8ff" points="1021.07,-125.61 1012.61,-131.99 1023.2,-132.28 1021.07,-125.61"/>
</a>
</g>
</g>
<!-- Node14&#45;&gt;Node6 -->
<g id="edge20_Node000014_Node000006" class="edge">
<title>Node14&#45;&gt;Node6</title>
<g id="a_edge20_Node000014_Node000006"><a xlink:title=" ">
<path fill="none" stroke="#63b8ff" d="M1029.75,-129.58C1073.25,-119.19 1128.9,-105.9 1170.32,-96.01"/>
<polygon fill="#63b8ff" stroke="#63b8ff" points="1028.73,-126.23 1019.81,-131.95 1030.35,-133.04 1028.73,-126.23"/>
</a>
</g>
</g>
<!-- Node14&#45;&gt;Node7 -->
<g id="edge18_Node000014_Node000007" class="edge">
<title>Node14&#45;&gt;Node7</title>
<g id="a_edge18_Node000014_Node000007"><a xlink:title=" ">
<path fill="none" stroke="#63b8ff" d="M930.65,-126.2C917.98,-117.46 903.36,-106.75 891,-96 863.82,-72.37 835.57,-40.3 822.49,-24.93"/>
<polygon fill="#63b8ff" stroke="#63b8ff" points="928.83,-129.19 939.07,-131.91 932.76,-123.4 928.83,-129.19"/>
</a>
</g>
</g>
<!-- Node15 -->
<g id="Node000015" class="node">
<title>Node15</title>
<g id="a_Node000015"><a xlink:href="CommunicationManager_8cpp.html" target="_top" xlink:title=" ">
<polygon fill="white" stroke="#666666" points="1092,-96 900,-96 900,-66 1092,-66 1092,-96"/>
<text text-anchor="start" x="908" y="-84" font-family="Helvetica,sans-Serif" font-size="10.00">main/ceo/managers/communication</text>
<text text-anchor="middle" x="996" y="-73" font-family="Helvetica,sans-Serif" font-size="10.00">/CommunicationManager.cpp</text>
</a>
</g>
</g>
<!-- Node14&#45;&gt;Node15 -->
<g id="edge21_Node000014_Node000015" class="edge">
<title>Node14&#45;&gt;Node15</title>
<g id="a_edge21_Node000014_Node000015"><a xlink:title=" ">
<path fill="none" stroke="#63b8ff" d="M973.6,-122.96C978.5,-114 983.95,-104.03 988.25,-96.16"/>
<polygon fill="#63b8ff" stroke="#63b8ff" points="970.5,-121.34 968.77,-131.8 976.64,-124.7 970.5,-121.34"/>
</a>
</g>
</g>
<!-- Node17&#45;&gt;Node7 -->
<g id="edge24_Node000017_Node000007" class="edge">
<title>Node17&#45;&gt;Node7</title>
<g id="a_edge24_Node000017_Node000007"><a xlink:title=" ">
<path fill="none" stroke="#63b8ff" d="M742.24,-123.49C762,-94.29 795.55,-44.74 809.08,-24.75"/>
<polygon fill="#63b8ff" stroke="#63b8ff" points="739.29,-121.6 736.59,-131.84 745.09,-125.52 739.29,-121.6"/>
</a>
</g>
</g>
<!-- Node17&#45;&gt;Node16 -->
<g id="edge25_Node000017_Node000016" class="edge">
<title>Node17&#45;&gt;Node16</title>
<g id="a_edge25_Node000017_Node000016"><a xlink:title=" ">
<path fill="none" stroke="#63b8ff" d="M694.72,-126.69C678.21,-116.82 658.47,-105.01 643.43,-96.01"/>
<polygon fill="#63b8ff" stroke="#63b8ff" points="693.14,-129.83 703.52,-131.95 696.73,-123.82 693.14,-129.83"/>
</a>
</g>
</g>
</g>
</svg>
