<?xml version="1.0" encoding="UTF-8" standalone="no"?>
<!DOCTYPE svg PUBLIC "-//W3C//DTD SVG 1.1//EN"
 "http://www.w3.org/Graphics/SVG/1.1/DTD/svg11.dtd">
<!-- Generated by graphviz version 2.43.0 (0)
 -->
<!-- Title: main/ceo/managers/bus/I2CBus.cpp Pages: 1 -->
<svg width="772pt" height="203pt"
 viewBox="0.00 0.00 772.00 203.00" xmlns="http://www.w3.org/2000/svg" xmlns:xlink="http://www.w3.org/1999/xlink">
<g id="graph0" class="graph" transform="scale(1 1) rotate(0) translate(4 199)">
<title>main/ceo/managers/bus/I2CBus.cpp</title>
<!-- Node1 -->
<g id="Node000001" class="node">
<title>Node1</title>
<g id="a_Node000001"><a xlink:title=" ">
<polygon fill="#999999" stroke="#666666" points="542.5,-195 408.5,-195 408.5,-165 542.5,-165 542.5,-195"/>
<text text-anchor="start" x="416.5" y="-183" font-family="Helvetica,sans-Serif" font-size="10.00">main/ceo/managers/bus</text>
<text text-anchor="middle" x="475.5" y="-172" font-family="Helvetica,sans-Serif" font-size="10.00">/I2CBus.cpp</text>
</a>
</g>
</g>
<!-- Node2 -->
<g id="Node000002" class="node">
<title>Node2</title>
<g id="a_Node000002"><a xlink:title=" ">
<polygon fill="#e0e0e0" stroke="#999999" points="53,-19 0,-19 0,0 53,0 53,-19"/>
<text text-anchor="middle" x="26.5" y="-7" font-family="Helvetica,sans-Serif" font-size="10.00">string.h</text>
</a>
</g>
</g>
<!-- Node1&#45;&gt;Node2 -->
<g id="edge1_Node000001_Node000002" class="edge">
<title>Node1&#45;&gt;Node2</title>
<g id="a_edge1_Node000001_Node000002"><a xlink:title=" ">
<path fill="none" stroke="#63b8ff" d="M431.3,-164.98C401.31,-155.29 360.83,-141.88 325.5,-129 225.98,-92.73 109.78,-45.14 56.26,-22.93"/>
<polygon fill="#63b8ff" stroke="#63b8ff" points="57.59,-19.69 47.01,-19.09 54.9,-26.16 57.59,-19.69"/>
</a>
</g>
</g>
<!-- Node3 -->
<g id="Node000003" class="node">
<title>Node3</title>
<g id="a_Node000003"><a xlink:title=" ">
<polygon fill="#e0e0e0" stroke="#999999" points="134,-19 71,-19 71,0 134,0 134,-19"/>
<text text-anchor="middle" x="102.5" y="-7" font-family="Helvetica,sans-Serif" font-size="10.00">esp_log.h</text>
</a>
</g>
</g>
<!-- Node1&#45;&gt;Node3 -->
<g id="edge2_Node000001_Node000003" class="edge">
<title>Node1&#45;&gt;Node3</title>
<g id="a_edge2_Node000001_Node000003"><a xlink:title=" ">
<path fill="none" stroke="#63b8ff" d="M444.34,-164.92C373.08,-132.73 199.12,-54.15 130.75,-23.26"/>
<polygon fill="#63b8ff" stroke="#63b8ff" points="132.01,-19.99 121.45,-19.06 129.13,-26.37 132.01,-19.99"/>
</a>
</g>
</g>
<!-- Node4 -->
<g id="Node000004" class="node">
<title>Node4</title>
<g id="a_Node000004"><a xlink:title=" ">
<polygon fill="#e0e0e0" stroke="#999999" points="764,-19 651,-19 651,0 764,0 764,-19"/>
<text text-anchor="middle" x="707.5" y="-7" font-family="Helvetica,sans-Serif" font-size="10.00">freertos/FreeRTOS.h</text>
</a>
</g>
</g>
<!-- Node1&#45;&gt;Node4 -->
<g id="edge3_Node000001_Node000004" class="edge">
<title>Node1&#45;&gt;Node4</title>
<g id="a_edge3_Node000001_Node000004"><a xlink:title=" ">
<path fill="none" stroke="#63b8ff" d="M538.03,-164.94C566.3,-156.95 599.37,-145.24 626.5,-129 656.98,-110.76 665.04,-103.72 684.5,-74 693.53,-60.21 699.58,-42.41 703.2,-29.16"/>
<polygon fill="#63b8ff" stroke="#63b8ff" points="706.64,-29.85 705.68,-19.3 699.85,-28.14 706.64,-29.85"/>
</a>
</g>
</g>
<!-- Node5 -->
<g id="Node000005" class="node">
<title>Node5</title>
<g id="a_Node000005"><a xlink:title=" ">
<polygon fill="#e0e0e0" stroke="#999999" points="617.5,-129 529.5,-129 529.5,-110 617.5,-110 617.5,-129"/>
<text text-anchor="middle" x="573.5" y="-117" font-family="Helvetica,sans-Serif" font-size="10.00">freertos/task.h</text>
</a>
</g>
</g>
<!-- Node1&#45;&gt;Node5 -->
<g id="edge4_Node000001_Node000005" class="edge">
<title>Node1&#45;&gt;Node5</title>
<g id="a_edge4_Node000001_Node000005"><a xlink:title=" ">
<path fill="none" stroke="#63b8ff" d="M499.22,-164.84C514.7,-155.6 534.82,-143.59 550.21,-134.4"/>
<polygon fill="#63b8ff" stroke="#63b8ff" points="552.31,-137.23 559.1,-129.09 548.72,-131.21 552.31,-137.23"/>
</a>
</g>
</g>
<!-- Node6 -->
<g id="Node000006" class="node">
<title>Node6</title>
<g id="a_Node000006"><a xlink:href="I2CBus_8hpp.html" target="_top" xlink:title="Industrial I2C Master bus driver with health monitoring.">
<polygon fill="white" stroke="#666666" points="511,-129 440,-129 440,-110 511,-110 511,-129"/>
<text text-anchor="middle" x="475.5" y="-117" font-family="Helvetica,sans-Serif" font-size="10.00">I2CBus.hpp</text>
</a>
</g>
</g>
<!-- Node1&#45;&gt;Node6 -->
<g id="edge5_Node000001_Node000006" class="edge">
<title>Node1&#45;&gt;Node6</title>
<g id="a_edge5_Node000001_Node000006"><a xlink:title=" ">
<path fill="none" stroke="#63b8ff" d="M475.5,-164.84C475.5,-157.21 475.5,-147.7 475.5,-139.45"/>
<polygon fill="#63b8ff" stroke="#63b8ff" points="479,-139.27 475.5,-129.27 472,-139.27 479,-139.27"/>
</a>
</g>
</g>
<!-- Node6&#45;&gt;Node4 -->
<g id="edge8_Node000006_Node000004" class="edge">
<title>Node6&#45;&gt;Node4</title>
<g id="a_edge8_Node000006_Node000004"><a xlink:title=" ">
<path fill="none" stroke="#63b8ff" d="M511.04,-111.32C561.2,-100.98 648.07,-82.23 660.5,-74 677.6,-62.68 690.75,-42.93 698.74,-28.45"/>
<polygon fill="#63b8ff" stroke="#63b8ff" points="701.92,-29.92 703.43,-19.44 695.71,-26.69 701.92,-29.92"/>
</a>
</g>
</g>
<!-- Node7 -->
<g id="Node000007" class="node">
<title>Node7</title>
<g id="a_Node000007"><a xlink:title=" ">
<polygon fill="#e0e0e0" stroke="#999999" points="512,-19 459,-19 459,0 512,0 512,-19"/>
<text text-anchor="middle" x="485.5" y="-7" font-family="Helvetica,sans-Serif" font-size="10.00">stdint.h</text>
</a>
</g>
</g>
<!-- Node6&#45;&gt;Node7 -->
<g id="edge6_Node000006_Node000007" class="edge">
<title>Node6&#45;&gt;Node7</title>
<g id="a_edge6_Node000006_Node000007"><a xlink:title=" ">
<path fill="none" stroke="#63b8ff" d="M476.32,-109.66C477.94,-92.17 481.58,-52.8 483.76,-29.27"/>
<polygon fill="#63b8ff" stroke="#63b8ff" points="487.26,-29.44 484.7,-19.16 480.29,-28.79 487.26,-29.44"/>
</a>
</g>
</g>
<!-- Node8 -->
<g id="Node000008" class="node">
<title>Node8</title>
<g id="a_Node000008"><a xlink:title=" ">
<polygon fill="#e0e0e0" stroke="#999999" points="651.5,-74 541.5,-74 541.5,-55 651.5,-55 651.5,-74"/>
<text text-anchor="middle" x="596.5" y="-62" font-family="Helvetica,sans-Serif" font-size="10.00">driver/i2c_master.h</text>
</a>
</g>
</g>
<!-- Node6&#45;&gt;Node8 -->
<g id="edge7_Node000006_Node000008" class="edge">
<title>Node6&#45;&gt;Node8</title>
<g id="a_edge7_Node000006_Node000008"><a xlink:title=" ">
<path fill="none" stroke="#63b8ff" d="M494.94,-109.98C514.49,-101.42 544.88,-88.11 567.32,-78.28"/>
<polygon fill="#63b8ff" stroke="#63b8ff" points="568.95,-81.39 576.71,-74.17 566.14,-74.98 568.95,-81.39"/>
</a>
</g>
</g>
<!-- Node9 -->
<g id="Node000009" class="node">
<title>Node9</title>
<g id="a_Node000009"><a xlink:title=" ">
<polygon fill="#e0e0e0" stroke="#999999" points="633,-19 530,-19 530,0 633,0 633,-19"/>
<text text-anchor="middle" x="581.5" y="-7" font-family="Helvetica,sans-Serif" font-size="10.00">freertos/semphr.h</text>
</a>
</g>
</g>
<!-- Node6&#45;&gt;Node9 -->
<g id="edge9_Node000006_Node000009" class="edge">
<title>Node6&#45;&gt;Node9</title>
<g id="a_edge9_Node000006_Node000009"><a xlink:title=" ">
<path fill="none" stroke="#63b8ff" d="M482.97,-109.62C493.61,-97.09 513.91,-73.7 532.5,-55 542.53,-44.92 554.31,-34.18 563.81,-25.78"/>
<polygon fill="#63b8ff" stroke="#63b8ff" points="566.25,-28.3 571.47,-19.08 561.64,-23.03 566.25,-28.3"/>
</a>
</g>
</g>
<!-- Node10 -->
<g id="Node000010" class="node">
<title>Node10</title>
<g id="a_Node000010"><a xlink:title=" ">
<polygon fill="#e0e0e0" stroke="#999999" points="447,-74 386,-74 386,-55 447,-55 447,-74"/>
<text text-anchor="middle" x="416.5" y="-62" font-family="Helvetica,sans-Serif" font-size="10.00">esp_err.h</text>
</a>
</g>
</g>
<!-- Node6&#45;&gt;Node10 -->
<g id="edge10_Node000006_Node000010" class="edge">
<title>Node6&#45;&gt;Node10</title>
<g id="a_edge10_Node000006_Node000010"><a xlink:title=" ">
<path fill="none" stroke="#63b8ff" d="M466.02,-109.98C457.3,-102.15 444.16,-90.34 433.6,-80.86"/>
<polygon fill="#63b8ff" stroke="#63b8ff" points="435.93,-78.25 426.15,-74.17 431.25,-83.46 435.93,-78.25"/>
</a>
</g>
</g>
<!-- Node11 -->
<g id="Node000011" class="node">
<title>Node11</title>
<g id="a_Node000011"><a xlink:href="DataManager_8hpp.html" target="_top" xlink:title="The collective consciousness and unified system state mirror.">
<polygon fill="white" stroke="#666666" points="368,-74 265,-74 265,-55 368,-55 368,-74"/>
<text text-anchor="middle" x="316.5" y="-62" font-family="Helvetica,sans-Serif" font-size="10.00">DataManager.hpp</text>
</a>
</g>
</g>
<!-- Node6&#45;&gt;Node11 -->
<g id="edge11_Node000006_Node000011" class="edge">
<title>Node6&#45;&gt;Node11</title>
<g id="a_edge11_Node000006_Node000011"><a xlink:title=" ">
<path fill="none" stroke="#63b8ff" d="M449.95,-109.98C423.38,-101.13 381.56,-87.19 351.83,-77.28"/>
<polygon fill="#63b8ff" stroke="#63b8ff" points="352.84,-73.92 342.25,-74.08 350.63,-80.56 352.84,-73.92"/>
</a>
</g>
</g>
<!-- Node11&#45;&gt;Node2 -->
<g id="edge13_Node000011_Node000002" class="edge">
<title>Node11&#45;&gt;Node2</title>
<g id="a_edge13_Node000011_Node000002"><a xlink:title=" ">
<path fill="none" stroke="#63b8ff" d="M264.54,-55.46C215.1,-47.57 138.39,-34.74 63.31,-19.28"/>
<polygon fill="#63b8ff" stroke="#63b8ff" points="63.72,-15.79 53.21,-17.18 62.29,-22.64 63.72,-15.79"/>
</a>
</g>
</g>
<!-- Node11&#45;&gt;Node3 -->
<g id="edge18_Node000011_Node000003" class="edge">
<title>Node11&#45;&gt;Node3</title>
<g id="a_edge18_Node000011_Node000003"><a xlink:title=" ">
<path fill="none" stroke="#63b8ff" d="M282.12,-54.98C244.43,-45.65 183.99,-30.68 143.77,-20.72"/>
<polygon fill="#63b8ff" stroke="#63b8ff" points="144.56,-17.31 134.01,-18.3 142.87,-24.1 144.56,-17.31"/>
</a>
</g>
</g>
<!-- Node11&#45;&gt;Node4 -->
<g id="edge15_Node000011_Node000004" class="edge">
<title>Node11&#45;&gt;Node4</title>
<g id="a_edge15_Node000011_Node000004"><a xlink:title=" ">
<path fill="none" stroke="#63b8ff" d="M368.21,-56.15C371.01,-55.76 373.79,-55.37 376.5,-55 468.15,-42.35 574.14,-28.18 640.99,-19.3"/>
<polygon fill="#63b8ff" stroke="#63b8ff" points="641.51,-22.76 650.97,-17.98 640.59,-15.82 641.51,-22.76"/>
</a>
</g>
</g>
<!-- Node11&#45;&gt;Node7 -->
<g id="edge12_Node000011_Node000007" class="edge">
<title>Node11&#45;&gt;Node7</title>
<g id="a_edge12_Node000011_Node000007"><a xlink:title=" ">
<path fill="none" stroke="#63b8ff" d="M343.65,-54.98C372.28,-46.01 417.53,-31.82 449.2,-21.88"/>
<polygon fill="#63b8ff" stroke="#63b8ff" points="450.48,-25.15 458.97,-18.82 448.38,-18.47 450.48,-25.15"/>
</a>
</g>
</g>
<!-- Node11&#45;&gt;Node9 -->
<g id="edge16_Node000011_Node000009" class="edge">
<title>Node11&#45;&gt;Node9</title>
<g id="a_edge16_Node000011_Node000009"><a xlink:title=" ">
<path fill="none" stroke="#63b8ff" d="M359.08,-54.98C405.2,-45.76 478.86,-31.03 528.66,-21.07"/>
<polygon fill="#63b8ff" stroke="#63b8ff" points="529.47,-24.48 538.59,-19.08 528.1,-17.61 529.47,-24.48"/>
</a>
</g>
</g>
<!-- Node12 -->
<g id="Node000012" class="node">
<title>Node12</title>
<g id="a_Node000012"><a xlink:title=" ">
<polygon fill="#e0e0e0" stroke="#999999" points="322,-19 253,-19 253,0 322,0 322,-19"/>
<text text-anchor="middle" x="287.5" y="-7" font-family="Helvetica,sans-Serif" font-size="10.00">type_traits</text>
</a>
</g>
</g>
<!-- Node11&#45;&gt;Node12 -->
<g id="edge14_Node000011_Node000012" class="edge">
<title>Node11&#45;&gt;Node12</title>
<g id="a_edge14_Node000011_Node000012"><a xlink:title=" ">
<path fill="none" stroke="#63b8ff" d="M311.71,-54.75C307.74,-47.49 301.97,-36.95 297.07,-27.98"/>
<polygon fill="#63b8ff" stroke="#63b8ff" points="300.07,-26.18 292.2,-19.09 293.93,-29.54 300.07,-26.18"/>
</a>
</g>
</g>
<!-- Node13 -->
<g id="Node000013" class="node">
<title>Node13</title>
<g id="a_Node000013"><a xlink:title=" ">
<polygon fill="#e0e0e0" stroke="#999999" points="440.5,-19 340.5,-19 340.5,0 440.5,0 440.5,-19"/>
<text text-anchor="middle" x="390.5" y="-7" font-family="Helvetica,sans-Serif" font-size="10.00">esp_heap_caps.h</text>
</a>
</g>
</g>
<!-- Node11&#45;&gt;Node13 -->
<g id="edge17_Node000011_Node000013" class="edge">
<title>Node11&#45;&gt;Node13</title>
<g id="a_edge17_Node000011_Node000013"><a xlink:title=" ">
<path fill="none" stroke="#63b8ff" d="M328.39,-54.98C339.65,-46.92 356.79,-34.65 370.21,-25.03"/>
<polygon fill="#63b8ff" stroke="#63b8ff" points="372.3,-27.84 378.39,-19.17 368.23,-22.15 372.3,-27.84"/>
</a>
</g>
</g>
<!-- Node14 -->
<g id="Node000014" class="node">
<title>Node14</title>
<g id="a_Node000014"><a xlink:href="IManager_8hpp.html" target="_top" xlink:title="The abstract behavioral contract for all managers.">
<polygon fill="white" stroke="#666666" points="235,-19 152,-19 152,0 235,0 235,-19"/>
<text text-anchor="middle" x="193.5" y="-7" font-family="Helvetica,sans-Serif" font-size="10.00">IManager.hpp</text>
</a>
</g>
</g>
<!-- Node11&#45;&gt;Node14 -->
<g id="edge19_Node000011_Node000014" class="edge">
<title>Node11&#45;&gt;Node14</title>
<g id="a_edge19_Node000011_Node000014"><a xlink:title=" ">
<path fill="none" stroke="#63b8ff" d="M296.74,-54.98C276.77,-46.38 245.7,-32.99 222.85,-23.15"/>
<polygon fill="#63b8ff" stroke="#63b8ff" points="224.19,-19.91 213.62,-19.17 221.42,-26.34 224.19,-19.91"/>
</a>
</g>
</g>
</g>
</svg>
