<?xml version="1.0" encoding="UTF-8" standalone="no"?>
<!DOCTYPE svg PUBLIC "-//W3C//DTD SVG 1.1//EN"
 "http://www.w3.org/Graphics/SVG/1.1/DTD/svg11.dtd">
<!-- Generated by graphviz version 2.43.0 (0)
 -->
<!-- Title: components/contracts/include/IActuator.hpp Pages: 1 -->
<svg width="288pt" height="170pt"
 viewBox="0.00 0.00 288.00 170.00" xmlns="http://www.w3.org/2000/svg" xmlns:xlink="http://www.w3.org/1999/xlink">
<g id="graph0" class="graph" transform="scale(1 1) rotate(0) translate(4 166)">
<title>components/contracts/include/IActuator.hpp</title>
<!-- Node1 -->
<g id="Node000001" class="node">
<title>Node1</title>
<g id="a_Node000001"><a xlink:title="The abstract behavioral contract for all executive organs (limbs).">
<polygon fill="#999999" stroke="#666666" points="195,-162 70,-162 70,-132 195,-132 195,-162"/>
<text text-anchor="start" x="78" y="-150" font-family="Helvetica,sans-Serif" font-size="10.00">components/contracts</text>
<text text-anchor="middle" x="132.5" y="-139" font-family="Helvetica,sans-Serif" font-size="10.00">/include/IActuator.hpp</text>
</a>
</g>
</g>
<!-- Node2 -->
<g id="Node000002" class="node">
<title>Node2</title>
<g id="a_Node000002"><a xlink:href="ActuatorManager_8cpp.html" target="_top" xlink:title=" ">
<polygon fill="white" stroke="#666666" points="157,-30 0,-30 0,0 157,0 157,-30"/>
<text text-anchor="start" x="8" y="-18" font-family="Helvetica,sans-Serif" font-size="10.00">main/ceo/managers/actuator</text>
<text text-anchor="middle" x="78.5" y="-7" font-family="Helvetica,sans-Serif" font-size="10.00">/ActuatorManager.cpp</text>
</a>
</g>
</g>
<!-- Node1&#45;&gt;Node2 -->
<g id="edge1_Node000001_Node000002" class="edge">
<title>Node1&#45;&gt;Node2</title>
<g id="a_edge1_Node000001_Node000002"><a xlink:title=" ">
<path fill="none" stroke="#63b8ff" d="M114.08,-123.56C108.06,-115.3 101.82,-105.61 97.5,-96 87.68,-74.12 82.56,-46.51 80.21,-30.1"/>
<polygon fill="#63b8ff" stroke="#63b8ff" points="111.35,-125.75 120.19,-131.58 116.92,-121.51 111.35,-125.75"/>
</a>
</g>
</g>
<!-- Node3 -->
<g id="Node000003" class="node">
<title>Node3</title>
<g id="a_Node000003"><a xlink:href="ActuatorManager_8hpp.html" target="_top" xlink:title="Interface for all executive organs (limbs) of the organism.">
<polygon fill="white" stroke="#666666" points="268.5,-96 106.5,-96 106.5,-66 268.5,-66 268.5,-96"/>
<text text-anchor="start" x="114.5" y="-84" font-family="Helvetica,sans-Serif" font-size="10.00">main/ceo/managers/actuator</text>
<text text-anchor="middle" x="187.5" y="-73" font-family="Helvetica,sans-Serif" font-size="10.00">/include/ActuatorManager.hpp</text>
</a>
</g>
</g>
<!-- Node1&#45;&gt;Node3 -->
<g id="edge2_Node000001_Node000003" class="edge">
<title>Node1&#45;&gt;Node3</title>
<g id="a_edge2_Node000001_Node000003"><a xlink:title=" ">
<path fill="none" stroke="#63b8ff" d="M151.33,-124.09C159.27,-114.85 168.28,-104.36 175.33,-96.16"/>
<polygon fill="#63b8ff" stroke="#63b8ff" points="148.57,-121.93 144.71,-131.8 153.88,-126.49 148.57,-121.93"/>
</a>
</g>
</g>
<!-- Node3&#45;&gt;Node2 -->
<g id="edge4_Node000003_Node000002" class="edge">
<title>Node3&#45;&gt;Node2</title>
<g id="a_edge4_Node000003_Node000002"><a xlink:title=" ">
<path fill="none" stroke="#63b8ff" d="M154.62,-60.69C137.79,-50.82 117.69,-39.01 102.36,-30.01"/>
<polygon fill="#63b8ff" stroke="#63b8ff" points="153.18,-63.91 163.58,-65.95 156.73,-57.87 153.18,-63.91"/>
</a>
</g>
</g>
<!-- Node4 -->
<g id="Node000004" class="node">
<title>Node4</title>
<g id="a_Node000004"><a xlink:href="CEO_8cpp.html" target="_top" xlink:title=" ">
<polygon fill="white" stroke="#666666" points="280,-24.5 175,-24.5 175,-5.5 280,-5.5 280,-24.5"/>
<text text-anchor="middle" x="227.5" y="-12.5" font-family="Helvetica,sans-Serif" font-size="10.00">main/ceo/CEO.cpp</text>
</a>
</g>
</g>
<!-- Node3&#45;&gt;Node4 -->
<g id="edge3_Node000003_Node000004" class="edge">
<title>Node3&#45;&gt;Node4</title>
<g id="a_edge3_Node000003_Node000004"><a xlink:title=" ">
<path fill="none" stroke="#63b8ff" d="M201.7,-57.28C208.71,-46.07 216.75,-33.19 221.97,-24.84"/>
<polygon fill="#63b8ff" stroke="#63b8ff" points="198.71,-55.46 196.38,-65.8 204.65,-59.17 198.71,-55.46"/>
</a>
</g>
</g>
</g>
</svg>
