<?xml version="1.0" encoding="UTF-8" standalone="no"?>
<!DOCTYPE svg PUBLIC "-//W3C//DTD SVG 1.1//EN"
 "http://www.w3.org/Graphics/SVG/1.1/DTD/svg11.dtd">
<!-- Generated by graphviz version 2.43.0 (0)
 -->
<!-- Title: components/contracts/include/IActuator.hpp Pages: 1 -->
<!--zoomable 258 -->

<svg id="main" version="1.1" xmlns="http://www.w3.org/2000/svg" xmlns:xlink="http://www.w3.org/1999/xlink" xml:space="preserve" onload="init(evt)">
<style type="text/css"><![CDATA[
.node, .edge {opacity: 0.7;}
.node.selected, .edge.selected {opacity: 1;}
.edge:hover path { stroke: red; }
.edge:hover polygon { stroke: red; fill: red; }
]]></style>

<defs>
  <circle id="rim" cx="0" cy="0" r="7"/>
  <circle id="rim2" cx="0" cy="0" r="3.5"/>
  <g id="zoomPlus">
    <use xlink:href="#rim" fill="#404040"><set attributeName="fill" to="#808080" begin="zoomplus.mouseover" end="zoomplus.mouseout"/></use>
    <path d="M-4,0h8M0,-4v8" fill="none" stroke="white" stroke-width="1.5" pointer-events="none"/>
  </g>
  <g id="zoomMin">
    <use xlink:href="#rim" fill="#404040"><set attributeName="fill" to="#808080" begin="zoomminus.mouseover" end="zoomminus.mouseout"/></use>
    <path d="M-4,0h8" fill="none" stroke="white" stroke-width="1.5" pointer-events="none"/>
  </g>
  <g id="arrowUp" transform="translate(30 24)">
    <use xlink:href="#rim"/>
    <path pointer-events="none" fill="none" stroke="white" stroke-width="1.5" d="M0,-3.0v7 M-2.5,-0.5L0,-3.0L2.5,-0.5"/>
  </g>
  <g id="arrowRight" transform="rotate(90) translate(36 -43)">
    <use xlink:href="#rim"/>
    <path pointer-events="none" fill="none" stroke="white" stroke-width="1.5" d="M0,-3.0v7 M-2.5,-0.5L0,-3.0L2.5,-0.5"/>
  </g>
  <g id="arrowDown" transform="rotate(180) translate(-30 -48)">
    <use xlink:href="#rim"/>
    <path pointer-events="none" fill="none" stroke="white" stroke-width="1.5" d="M0,-3.0v7 M-2.5,-0.5L0,-3.0L2.5,-0.5"/>
  </g>
  <g id="arrowLeft" transform="rotate(270) translate(-36 17)">
    <use xlink:href="#rim"/>
    <path pointer-events="none" fill="none" stroke="white" stroke-width="1.5" d="M0,-3.0v7 M-2.5,-0.5L0,-3.0L2.5,-0.5"/>
  </g>
  <g id="resetDef">
    <use xlink:href="#rim2" fill="#404040"><set attributeName="fill" to="#808080" begin="reset.mouseover" end="reset.mouseout"/></use>
  </g>
</defs>
<script type="application/ecmascript">
var viewWidth = 1095;
var viewHeight = 258;
var sectionId = 'dynsection-0';
</script>
<script type="application/ecmascript" xlink:href="svg.min.js"/>
<svg id="graph" class="graph">
<g id="viewport">
<title>components/contracts/include/IActuator.hpp</title>
<!-- Node1 -->
<g id="Node000001" class="node">
<title>Node1</title>
<g id="a_Node000001"><a xlink:title="The abstract behavioral contract for all executive organs (limbs).">
<polygon fill="#999999" stroke="#666666" points="305.29,-250 180.29,-250 180.29,-220 305.29,-220 305.29,-250"/>
<text text-anchor="start" x="188.29" y="-238" font-family="Helvetica,sans-Serif" font-size="10.00">components/contracts</text>
<text text-anchor="middle" x="242.79" y="-227" font-family="Helvetica,sans-Serif" font-size="10.00">/include/IActuator.hpp</text>
</a>
</g>
</g>
<!-- Node2 -->
<g id="Node000002" class="node">
<title>Node2</title>
<g id="a_Node000002"><a xlink:title=" ">
<polygon fill="#e0e0e0" stroke="#999999" points="376.29,-19 323.29,-19 323.29,0 376.29,0 376.29,-19"/>
<text text-anchor="middle" x="349.79" y="-7" font-family="Helvetica,sans-Serif" font-size="10.00">stdint.h</text>
</a>
</g>
</g>
<!-- Node1&#45;&gt;Node2 -->
<g id="edge1_Node000001_Node000002" class="edge">
<title>Node1&#45;&gt;Node2</title>
<g id="a_edge1_Node000001_Node000002"><a xlink:title=" ">
<path fill="none" stroke="#63b8ff" d="M196.21,-219.98C112.46,-192.53 -49.12,-127.97 14.79,-55 34.24,-32.8 230.01,-18.01 312.96,-12.69"/>
<polygon fill="#63b8ff" stroke="#63b8ff" points="313.44,-16.17 323.2,-12.05 313,-9.19 313.44,-16.17"/>
</a>
</g>
</g>
<!-- Node3 -->
<g id="Node000003" class="node">
<title>Node3</title>
<g id="a_Node000003"><a xlink:title=" ">
<polygon fill="#e0e0e0" stroke="#999999" points="327.29,-74 266.29,-74 266.29,-55 327.29,-55 327.29,-74"/>
<text text-anchor="middle" x="296.79" y="-62" font-family="Helvetica,sans-Serif" font-size="10.00">esp_err.h</text>
</a>
</g>
</g>
<!-- Node1&#45;&gt;Node3 -->
<g id="edge2_Node000001_Node000003" class="edge">
<title>Node1&#45;&gt;Node3</title>
<g id="a_edge2_Node000001_Node000003"><a xlink:title=" ">
<path fill="none" stroke="#63b8ff" d="M222.51,-219.85C191.43,-196.41 138.34,-148.32 165.79,-110 186.13,-81.62 225.61,-71.12 255.93,-67.35"/>
<polygon fill="#63b8ff" stroke="#63b8ff" points="256.65,-70.79 266.23,-66.27 255.92,-63.83 256.65,-70.79"/>
</a>
</g>
</g>
<!-- Node4 -->
<g id="Node000004" class="node">
<title>Node4</title>
<g id="a_Node000004"><a xlink:href="DataManager_8hpp.html" target="_top" xlink:title="The collective consciousness and unified system state mirror.">
<polygon fill="white" stroke="#666666" points="805.29,-74 702.29,-74 702.29,-55 805.29,-55 805.29,-74"/>
<text text-anchor="middle" x="753.79" y="-62" font-family="Helvetica,sans-Serif" font-size="10.00">DataManager.hpp</text>
</a>
</g>
</g>
<!-- Node1&#45;&gt;Node4 -->
<g id="edge3_Node000001_Node000004" class="edge">
<title>Node1&#45;&gt;Node4</title>
<g id="a_edge3_Node000001_Node000004"><a xlink:title=" ">
<path fill="none" stroke="#63b8ff" d="M305.62,-230.45C396.33,-222.96 566.77,-199.84 691.79,-129 712.22,-117.43 730.29,-97.13 741.58,-82.6"/>
<polygon fill="#63b8ff" stroke="#63b8ff" points="744.51,-84.53 747.69,-74.43 738.9,-80.34 744.51,-84.53"/>
</a>
</g>
</g>
<!-- Node12 -->
<g id="Node000012" class="node">
<title>Node12</title>
<g id="a_Node000012"><a xlink:href="BusManager_8hpp.html" target="_top" xlink:title="The peripheral nervous system managing all communication pathways.">
<polygon fill="white" stroke="#666666" points="451.79,-184 353.79,-184 353.79,-165 451.79,-165 451.79,-184"/>
<text text-anchor="middle" x="402.79" y="-172" font-family="Helvetica,sans-Serif" font-size="10.00">BusManager.hpp</text>
</a>
</g>
</g>
<!-- Node1&#45;&gt;Node12 -->
<g id="edge12_Node000001_Node000012" class="edge">
<title>Node1&#45;&gt;Node12</title>
<g id="a_edge12_Node000001_Node000012"><a xlink:title=" ">
<path fill="none" stroke="#63b8ff" d="M281.12,-219.99C308.05,-210.14 343.73,-197.1 369.48,-187.68"/>
<polygon fill="#63b8ff" stroke="#63b8ff" points="370.97,-190.86 379.16,-184.14 368.57,-184.29 370.97,-190.86"/>
</a>
</g>
</g>
<!-- Node4&#45;&gt;Node2 -->
<g id="edge4_Node000004_Node000002" class="edge">
<title>Node4&#45;&gt;Node2</title>
<g id="a_edge4_Node000004_Node000002"><a xlink:title=" ">
<path fill="none" stroke="#63b8ff" d="M702.17,-59.22C632.51,-53.01 504.42,-40.08 386.4,-19.11"/>
<polygon fill="#63b8ff" stroke="#63b8ff" points="386.94,-15.65 376.48,-17.32 385.7,-22.54 386.94,-15.65"/>
</a>
</g>
</g>
<!-- Node5 -->
<g id="Node000005" class="node">
<title>Node5</title>
<g id="a_Node000005"><a xlink:title=" ">
<polygon fill="#e0e0e0" stroke="#999999" points="780.29,-19 727.29,-19 727.29,0 780.29,0 780.29,-19"/>
<text text-anchor="middle" x="753.79" y="-7" font-family="Helvetica,sans-Serif" font-size="10.00">string.h</text>
</a>
</g>
</g>
<!-- Node4&#45;&gt;Node5 -->
<g id="edge5_Node000004_Node000005" class="edge">
<title>Node4&#45;&gt;Node5</title>
<g id="a_edge5_Node000004_Node000005"><a xlink:title=" ">
<path fill="none" stroke="#63b8ff" d="M753.79,-54.75C753.79,-47.8 753.79,-37.85 753.79,-29.13"/>
<polygon fill="#63b8ff" stroke="#63b8ff" points="757.29,-29.09 753.79,-19.09 750.29,-29.09 757.29,-29.09"/>
</a>
</g>
</g>
<!-- Node6 -->
<g id="Node000006" class="node">
<title>Node6</title>
<g id="a_Node000006"><a xlink:title=" ">
<polygon fill="#e0e0e0" stroke="#999999" points="867.29,-19 798.29,-19 798.29,0 867.29,0 867.29,-19"/>
<text text-anchor="middle" x="832.79" y="-7" font-family="Helvetica,sans-Serif" font-size="10.00">type_traits</text>
</a>
</g>
</g>
<!-- Node4&#45;&gt;Node6 -->
<g id="edge6_Node000004_Node000006" class="edge">
<title>Node4&#45;&gt;Node6</title>
<g id="a_edge6_Node000004_Node000006"><a xlink:title=" ">
<path fill="none" stroke="#63b8ff" d="M766.49,-54.98C778.62,-46.84 797.15,-34.41 811.54,-24.76"/>
<polygon fill="#63b8ff" stroke="#63b8ff" points="813.51,-27.65 819.87,-19.17 809.61,-21.84 813.51,-27.65"/>
</a>
</g>
</g>
<!-- Node7 -->
<g id="Node000007" class="node">
<title>Node7</title>
<g id="a_Node000007"><a xlink:title=" ">
<polygon fill="#e0e0e0" stroke="#999999" points="507.29,-19 394.29,-19 394.29,0 507.29,0 507.29,-19"/>
<text text-anchor="middle" x="450.79" y="-7" font-family="Helvetica,sans-Serif" font-size="10.00">freertos/FreeRTOS.h</text>
</a>
</g>
</g>
<!-- Node4&#45;&gt;Node7 -->
<g id="edge7_Node000004_Node000007" class="edge">
<title>Node4&#45;&gt;Node7</title>
<g id="a_edge7_Node000004_Node000007"><a xlink:title=" ">
<path fill="none" stroke="#63b8ff" d="M705.11,-54.98C651.85,-45.67 566.49,-30.74 509.54,-20.78"/>
<polygon fill="#63b8ff" stroke="#63b8ff" points="510.06,-17.31 499.6,-19.04 508.85,-24.21 510.06,-17.31"/>
</a>
</g>
</g>
<!-- Node8 -->
<g id="Node000008" class="node">
<title>Node8</title>
<g id="a_Node000008"><a xlink:title=" ">
<polygon fill="#e0e0e0" stroke="#999999" points="628.29,-19 525.29,-19 525.29,0 628.29,0 628.29,-19"/>
<text text-anchor="middle" x="576.79" y="-7" font-family="Helvetica,sans-Serif" font-size="10.00">freertos/semphr.h</text>
</a>
</g>
</g>
<!-- Node4&#45;&gt;Node8 -->
<g id="edge8_Node000004_Node000008" class="edge">
<title>Node4&#45;&gt;Node8</title>
<g id="a_edge8_Node000004_Node000008"><a xlink:title=" ">
<path fill="none" stroke="#63b8ff" d="M725.35,-54.98C695.51,-46.05 648.41,-31.94 615.26,-22.02"/>
<polygon fill="#63b8ff" stroke="#63b8ff" points="616.04,-18.6 605.45,-19.08 614.03,-25.3 616.04,-18.6"/>
</a>
</g>
</g>
<!-- Node9 -->
<g id="Node000009" class="node">
<title>Node9</title>
<g id="a_Node000009"><a xlink:title=" ">
<polygon fill="#e0e0e0" stroke="#999999" points="985.79,-19 885.79,-19 885.79,0 985.79,0 985.79,-19"/>
<text text-anchor="middle" x="935.79" y="-7" font-family="Helvetica,sans-Serif" font-size="10.00">esp_heap_caps.h</text>
</a>
</g>
</g>
<!-- Node4&#45;&gt;Node9 -->
<g id="edge9_Node000004_Node000009" class="edge">
<title>Node4&#45;&gt;Node9</title>
<g id="a_edge9_Node000004_Node000009"><a xlink:title=" ">
<path fill="none" stroke="#63b8ff" d="M783.03,-54.98C813.85,-46.01 862.57,-31.82 896.68,-21.89"/>
<polygon fill="#63b8ff" stroke="#63b8ff" points="897.7,-25.24 906.32,-19.08 895.74,-18.52 897.7,-25.24"/>
</a>
</g>
</g>
<!-- Node10 -->
<g id="Node000010" class="node">
<title>Node10</title>
<g id="a_Node000010"><a xlink:title=" ">
<polygon fill="#e0e0e0" stroke="#999999" points="709.29,-19 646.29,-19 646.29,0 709.29,0 709.29,-19"/>
<text text-anchor="middle" x="677.79" y="-7" font-family="Helvetica,sans-Serif" font-size="10.00">esp_log.h</text>
</a>
</g>
</g>
<!-- Node4&#45;&gt;Node10 -->
<g id="edge10_Node000004_Node000010" class="edge">
<title>Node4&#45;&gt;Node10</title>
<g id="a_edge10_Node000004_Node000010"><a xlink:title=" ">
<path fill="none" stroke="#63b8ff" d="M741.58,-54.98C730.02,-46.92 712.42,-34.65 698.63,-25.03"/>
<polygon fill="#63b8ff" stroke="#63b8ff" points="700.43,-22.02 690.23,-19.17 696.43,-27.76 700.43,-22.02"/>
</a>
</g>
</g>
<!-- Node11 -->
<g id="Node000011" class="node">
<title>Node11</title>
<g id="a_Node000011"><a xlink:href="IManager_8hpp.html" target="_top" xlink:title="The abstract behavioral contract for all managers.">
<polygon fill="white" stroke="#666666" points="1087.29,-19 1004.29,-19 1004.29,0 1087.29,0 1087.29,-19"/>
<text text-anchor="middle" x="1045.79" y="-7" font-family="Helvetica,sans-Serif" font-size="10.00">IManager.hpp</text>
</a>
</g>
</g>
<!-- Node4&#45;&gt;Node11 -->
<g id="edge11_Node000004_Node000011" class="edge">
<title>Node4&#45;&gt;Node11</title>
<g id="a_edge11_Node000004_Node000011"><a xlink:title=" ">
<path fill="none" stroke="#63b8ff" d="M800.71,-54.98C853.67,-45.37 939.58,-29.78 994.35,-19.84"/>
<polygon fill="#63b8ff" stroke="#63b8ff" points="994.98,-23.28 1004.2,-18.05 993.73,-16.39 994.98,-23.28"/>
</a>
</g>
</g>
<!-- Node12&#45;&gt;Node3 -->
<g id="edge13_Node000012_Node000003" class="edge">
<title>Node12&#45;&gt;Node3</title>
<g id="a_edge13_Node000012_Node000003"><a xlink:title=" ">
<path fill="none" stroke="#63b8ff" d="M394.95,-164.71C383.8,-152.3 362.64,-129.03 343.79,-110 334.1,-100.22 322.93,-89.61 313.9,-81.21"/>
<polygon fill="#63b8ff" stroke="#63b8ff" points="316.04,-78.42 306.33,-74.19 311.29,-83.55 316.04,-78.42"/>
</a>
</g>
</g>
<!-- Node12&#45;&gt;Node4 -->
<g id="edge18_Node000012_Node000004" class="edge">
<title>Node12&#45;&gt;Node4</title>
<g id="a_edge18_Node000012_Node000004"><a xlink:title=" ">
<path fill="none" stroke="#63b8ff" d="M452.09,-171C504.88,-166.95 590.32,-156.4 658.79,-129 688.23,-117.22 717.95,-95.39 736.11,-80.66"/>
<polygon fill="#63b8ff" stroke="#63b8ff" points="738.59,-83.15 744.05,-74.07 734.12,-77.76 738.59,-83.15"/>
</a>
</g>
</g>
<!-- Node12&#45;&gt;Node11 -->
<g id="edge17_Node000012_Node000011" class="edge">
<title>Node12&#45;&gt;Node11</title>
<g id="a_edge17_Node000012_Node000011"><a xlink:title=" ">
<path fill="none" stroke="#63b8ff" d="M451.92,-169.59C517.13,-163.79 635.61,-151.15 734.79,-129 813.95,-111.32 833.18,-103.34 908.79,-74 948.41,-58.63 992.78,-37.27 1020.01,-23.66"/>
<polygon fill="#63b8ff" stroke="#63b8ff" points="1021.86,-26.65 1029.22,-19.02 1018.71,-20.39 1021.86,-26.65"/>
</a>
</g>
</g>
<!-- Node13 -->
<g id="Node000013" class="node">
<title>Node13</title>
<g id="a_Node000013"><a xlink:title=" ">
<polygon fill="#e0e0e0" stroke="#999999" points="246.29,-129 175.29,-129 175.29,-110 246.29,-110 246.29,-129"/>
<text text-anchor="middle" x="210.79" y="-117" font-family="Helvetica,sans-Serif" font-size="10.00">driver/i2c.h</text>
</a>
</g>
</g>
<!-- Node12&#45;&gt;Node13 -->
<g id="edge14_Node000012_Node000013" class="edge">
<title>Node12&#45;&gt;Node13</title>
<g id="a_edge14_Node000012_Node000013"><a xlink:title=" ">
<path fill="none" stroke="#63b8ff" d="M371.94,-164.98C339.29,-155.97 287.6,-141.7 251.59,-131.76"/>
<polygon fill="#63b8ff" stroke="#63b8ff" points="252.45,-128.37 241.88,-129.08 250.59,-135.12 252.45,-128.37"/>
</a>
</g>
</g>
<!-- Node14 -->
<g id="Node000014" class="node">
<title>Node14</title>
<g id="a_Node000014"><a xlink:title=" ">
<polygon fill="#e0e0e0" stroke="#999999" points="133.79,-74 23.79,-74 23.79,-55 133.79,-55 133.79,-74"/>
<text text-anchor="middle" x="78.79" y="-62" font-family="Helvetica,sans-Serif" font-size="10.00">driver/spi_master.h</text>
</a>
</g>
</g>
<!-- Node12&#45;&gt;Node14 -->
<g id="edge15_Node000012_Node000014" class="edge">
<title>Node12&#45;&gt;Node14</title>
<g id="a_edge15_Node000012_Node000014"><a xlink:title=" ">
<path fill="none" stroke="#63b8ff" d="M353.74,-170.63C304.48,-166.32 227.28,-155.58 165.79,-129 138.61,-117.25 111.76,-95.73 95.23,-81.03"/>
<polygon fill="#63b8ff" stroke="#63b8ff" points="97.33,-78.21 87.59,-74.05 92.62,-83.38 97.33,-78.21"/>
</a>
</g>
</g>
<!-- Node15 -->
<g id="Node000015" class="node">
<title>Node15</title>
<g id="a_Node000015"><a xlink:title=" ">
<polygon fill="#e0e0e0" stroke="#999999" points="900.29,-74 823.29,-74 823.29,-55 900.29,-55 900.29,-74"/>
<text text-anchor="middle" x="861.79" y="-62" font-family="Helvetica,sans-Serif" font-size="10.00">driver/uart.h</text>
</a>
</g>
</g>
<!-- Node12&#45;&gt;Node15 -->
<g id="edge16_Node000012_Node000015" class="edge">
<title>Node12&#45;&gt;Node15</title>
<g id="a_edge16_Node000012_Node000015"><a xlink:title=" ">
<path fill="none" stroke="#63b8ff" d="M451.99,-169.02C510.01,-163.04 609.02,-150.59 691.79,-129 742.9,-115.67 799.98,-92.56 833.29,-78.2"/>
<polygon fill="#63b8ff" stroke="#63b8ff" points="835.06,-81.25 842.83,-74.05 832.27,-74.83 835.06,-81.25"/>
</a>
</g>
</g>
<!-- Node16 -->
<g id="Node000016" class="node">
<title>Node16</title>
<g id="a_Node000016"><a xlink:href="I2CBus_8hpp.html" target="_top" xlink:title="Industrial I2C Master bus driver with health monitoring.">
<polygon fill="white" stroke="#666666" points="474.29,-129 403.29,-129 403.29,-110 474.29,-110 474.29,-129"/>
<text text-anchor="middle" x="438.79" y="-117" font-family="Helvetica,sans-Serif" font-size="10.00">I2CBus.hpp</text>
</a>
</g>
</g>
<!-- Node12&#45;&gt;Node16 -->
<g id="edge19_Node000012_Node000016" class="edge">
<title>Node12&#45;&gt;Node16</title>
<g id="a_edge19_Node000012_Node000016"><a xlink:title=" ">
<path fill="none" stroke="#63b8ff" d="M408.74,-164.75C413.77,-157.34 421.13,-146.5 427.31,-137.41"/>
<polygon fill="#63b8ff" stroke="#63b8ff" points="430.23,-139.33 432.96,-129.09 424.44,-135.39 430.23,-139.33"/>
</a>
</g>
</g>
<!-- Node18 -->
<g id="Node000018" class="node">
<title>Node18</title>
<g id="a_Node000018"><a xlink:href="SPIBus_8hpp.html" target="_top" xlink:title="Industrial SPI Master bus driver with health monitoring.">
<polygon fill="white" stroke="#666666" points="335.29,-129 264.29,-129 264.29,-110 335.29,-110 335.29,-129"/>
<text text-anchor="middle" x="299.79" y="-117" font-family="Helvetica,sans-Serif" font-size="10.00">SPIBus.hpp</text>
</a>
</g>
</g>
<!-- Node12&#45;&gt;Node18 -->
<g id="edge26_Node000012_Node000018" class="edge">
<title>Node12&#45;&gt;Node18</title>
<g id="a_edge26_Node000012_Node000018"><a xlink:title=" ">
<path fill="none" stroke="#63b8ff" d="M386.24,-164.98C369.9,-156.57 344.66,-143.59 325.66,-133.81"/>
<polygon fill="#63b8ff" stroke="#63b8ff" points="327.14,-130.63 316.64,-129.17 323.93,-136.86 327.14,-130.63"/>
</a>
</g>
</g>
<!-- Node19 -->
<g id="Node000019" class="node">
<title>Node19</title>
<g id="a_Node000019"><a xlink:href="UARTBus_8hpp.html" target="_top" xlink:title="Industrial UART bus driver with health monitoring.">
<polygon fill="white" stroke="#666666" points="649.79,-129 567.79,-129 567.79,-110 649.79,-110 649.79,-129"/>
<text text-anchor="middle" x="608.79" y="-117" font-family="Helvetica,sans-Serif" font-size="10.00">UARTBus.hpp</text>
</a>
</g>
</g>
<!-- Node12&#45;&gt;Node19 -->
<g id="edge33_Node000012_Node000019" class="edge">
<title>Node12&#45;&gt;Node19</title>
<g id="a_edge33_Node000012_Node000019"><a xlink:title=" ">
<path fill="none" stroke="#63b8ff" d="M435.89,-164.98C471.07,-155.93 526.86,-141.58 565.51,-131.64"/>
<polygon fill="#63b8ff" stroke="#63b8ff" points="566.62,-134.96 575.44,-129.08 564.88,-128.18 566.62,-134.96"/>
</a>
</g>
</g>
<!-- Node16&#45;&gt;Node2 -->
<g id="edge20_Node000016_Node000002" class="edge">
<title>Node16&#45;&gt;Node2</title>
<g id="a_edge20_Node000016_Node000002"><a xlink:title=" ">
<path fill="none" stroke="#63b8ff" d="M421.15,-109.97C406.93,-102.3 387.3,-89.82 374.79,-74 364.34,-60.79 357.79,-42.66 354.03,-29.16"/>
<polygon fill="#63b8ff" stroke="#63b8ff" points="357.33,-27.95 351.5,-19.11 350.54,-29.66 357.33,-27.95"/>
</a>
</g>
</g>
<!-- Node16&#45;&gt;Node3 -->
<g id="edge24_Node000016_Node000003" class="edge">
<title>Node16&#45;&gt;Node3</title>
<g id="a_edge24_Node000016_Node000003"><a xlink:title=" ">
<path fill="none" stroke="#63b8ff" d="M415.98,-109.98C392.62,-101.27 356.09,-87.63 329.62,-77.75"/>
<polygon fill="#63b8ff" stroke="#63b8ff" points="330.61,-74.39 320.02,-74.17 328.17,-80.95 330.61,-74.39"/>
</a>
</g>
</g>
<!-- Node16&#45;&gt;Node4 -->
<g id="edge25_Node000016_Node000004" class="edge">
<title>Node16&#45;&gt;Node4</title>
<g id="a_edge25_Node000016_Node000004"><a xlink:title=" ">
<path fill="none" stroke="#63b8ff" d="M474.31,-112.52C527.39,-103.59 628.07,-86.65 693,-75.73"/>
<polygon fill="#63b8ff" stroke="#63b8ff" points="693.82,-79.14 703.1,-74.03 692.65,-72.24 693.82,-79.14"/>
</a>
</g>
</g>
<!-- Node16&#45;&gt;Node7 -->
<g id="edge22_Node000016_Node000007" class="edge">
<title>Node16&#45;&gt;Node7</title>
<g id="a_edge22_Node000016_Node000007"><a xlink:title=" ">
<path fill="none" stroke="#63b8ff" d="M460.58,-109.87C475.44,-102.69 493.95,-90.91 502.79,-74 512.66,-55.12 493.26,-36.63 475.42,-24.52"/>
<polygon fill="#63b8ff" stroke="#63b8ff" points="477.23,-21.52 466.92,-19.11 473.47,-27.43 477.23,-21.52"/>
</a>
</g>
</g>
<!-- Node16&#45;&gt;Node8 -->
<g id="edge23_Node000016_Node000008" class="edge">
<title>Node16&#45;&gt;Node8</title>
<g id="a_edge23_Node000016_Node000008"><a xlink:title=" ">
<path fill="none" stroke="#63b8ff" d="M458.29,-109.85C475.19,-101.86 499.84,-88.98 518.79,-74 536.28,-60.17 553.09,-40.88 564.08,-27.19"/>
<polygon fill="#63b8ff" stroke="#63b8ff" points="566.98,-29.15 570.4,-19.12 561.47,-24.84 566.98,-29.15"/>
</a>
</g>
</g>
<!-- Node17 -->
<g id="Node000017" class="node">
<title>Node17</title>
<g id="a_Node000017"><a xlink:title=" ">
<polygon fill="#e0e0e0" stroke="#999999" points="493.79,-74 383.79,-74 383.79,-55 493.79,-55 493.79,-74"/>
<text text-anchor="middle" x="438.79" y="-62" font-family="Helvetica,sans-Serif" font-size="10.00">driver/i2c_master.h</text>
</a>
</g>
</g>
<!-- Node16&#45;&gt;Node17 -->
<g id="edge21_Node000016_Node000017" class="edge">
<title>Node16&#45;&gt;Node17</title>
<g id="a_edge21_Node000016_Node000017"><a xlink:title=" ">
<path fill="none" stroke="#63b8ff" d="M438.79,-109.75C438.79,-102.8 438.79,-92.85 438.79,-84.13"/>
<polygon fill="#63b8ff" stroke="#63b8ff" points="442.29,-84.09 438.79,-74.09 435.29,-84.09 442.29,-84.09"/>
</a>
</g>
</g>
<!-- Node18&#45;&gt;Node2 -->
<g id="edge27_Node000018_Node000002" class="edge">
<title>Node18&#45;&gt;Node2</title>
<g id="a_edge27_Node000018_Node000002"><a xlink:title=" ">
<path fill="none" stroke="#63b8ff" d="M266.34,-109.94C236.21,-101.48 195.23,-87.82 185.79,-74 181.03,-67.03 180.66,-61.71 185.79,-55 201.18,-34.88 269.73,-21.73 313.18,-15.25"/>
<polygon fill="#63b8ff" stroke="#63b8ff" points="313.71,-18.71 323.11,-13.82 312.71,-11.78 313.71,-18.71"/>
</a>
</g>
</g>
<!-- Node18&#45;&gt;Node3 -->
<g id="edge31_Node000018_Node000003" class="edge">
<title>Node18&#45;&gt;Node3</title>
<g id="a_edge31_Node000018_Node000003"><a xlink:title=" ">
<path fill="none" stroke="#63b8ff" d="M299.3,-109.75C298.9,-102.8 298.34,-92.85 297.85,-84.13"/>
<polygon fill="#63b8ff" stroke="#63b8ff" points="301.34,-83.88 297.28,-74.09 294.35,-84.27 301.34,-83.88"/>
</a>
</g>
</g>
<!-- Node18&#45;&gt;Node4 -->
<g id="edge32_Node000018_Node000004" class="edge">
<title>Node18&#45;&gt;Node4</title>
<g id="a_edge32_Node000018_Node000004"><a xlink:title=" ">
<path fill="none" stroke="#63b8ff" d="M335.42,-114.34C412.46,-105.35 595.39,-83.99 691.83,-72.73"/>
<polygon fill="#63b8ff" stroke="#63b8ff" points="692.49,-76.18 702.02,-71.54 691.68,-69.23 692.49,-76.18"/>
</a>
</g>
</g>
<!-- Node18&#45;&gt;Node7 -->
<g id="edge29_Node000018_Node000007" class="edge">
<title>Node18&#45;&gt;Node7</title>
<g id="a_edge29_Node000018_Node000007"><a xlink:title=" ">
<path fill="none" stroke="#63b8ff" d="M274.54,-109.85C245.77,-98.65 205,-77.83 223.79,-55 234.06,-42.53 321.08,-28.16 384.33,-19.2"/>
<polygon fill="#63b8ff" stroke="#63b8ff" points="384.84,-22.66 394.26,-17.81 383.87,-15.73 384.84,-22.66"/>
</a>
</g>
</g>
<!-- Node18&#45;&gt;Node8 -->
<g id="edge30_Node000018_Node000008" class="edge">
<title>Node18&#45;&gt;Node8</title>
<g id="a_edge30_Node000018_Node000008"><a xlink:title=" ">
<path fill="none" stroke="#63b8ff" d="M286.51,-109.81C268.71,-97.13 241.06,-73.08 256.79,-55 293.16,-13.23 443.2,-25.66 515.18,-18.84"/>
<polygon fill="#63b8ff" stroke="#63b8ff" points="515.67,-22.31 525.21,-17.69 514.87,-15.35 515.67,-22.31"/>
</a>
</g>
</g>
<!-- Node18&#45;&gt;Node14 -->
<g id="edge28_Node000018_Node000014" class="edge">
<title>Node18&#45;&gt;Node14</title>
<g id="a_edge28_Node000018_Node000014"><a xlink:title=" ">
<path fill="none" stroke="#63b8ff" d="M264.28,-109.98C226.3,-100.87 165.92,-86.4 124.43,-76.45"/>
<polygon fill="#63b8ff" stroke="#63b8ff" points="125.12,-73.01 114.58,-74.08 123.49,-79.82 125.12,-73.01"/>
</a>
</g>
</g>
<!-- Node19&#45;&gt;Node2 -->
<g id="edge34_Node000019_Node000002" class="edge">
<title>Node19&#45;&gt;Node2</title>
<g id="a_edge34_Node000019_Node000002"><a xlink:title=" ">
<path fill="none" stroke="#63b8ff" d="M596.63,-109.78C577.48,-96.4 538.77,-70.7 502.79,-55 481.9,-45.89 424.52,-30.07 386.27,-19.95"/>
<polygon fill="#63b8ff" stroke="#63b8ff" points="387.08,-16.55 376.52,-17.39 385.3,-23.32 387.08,-16.55"/>
</a>
</g>
</g>
<!-- Node19&#45;&gt;Node3 -->
<g id="edge38_Node000019_Node000003" class="edge">
<title>Node19&#45;&gt;Node3</title>
<g id="a_edge38_Node000019_Node000003"><a xlink:title=" ">
<path fill="none" stroke="#63b8ff" d="M567.68,-111.52C507.9,-101.36 397.59,-82.62 337.84,-72.47"/>
<polygon fill="#63b8ff" stroke="#63b8ff" points="338.09,-68.97 327.65,-70.74 336.92,-75.87 338.09,-68.97"/>
</a>
</g>
</g>
<!-- Node19&#45;&gt;Node4 -->
<g id="edge39_Node000019_Node000004" class="edge">
<title>Node19&#45;&gt;Node4</title>
<g id="a_edge39_Node000019_Node000004"><a xlink:title=" ">
<path fill="none" stroke="#63b8ff" d="M632.09,-109.98C656.05,-101.23 693.57,-87.51 720.62,-77.62"/>
<polygon fill="#63b8ff" stroke="#63b8ff" points="721.88,-80.89 730.07,-74.17 719.48,-74.32 721.88,-80.89"/>
</a>
</g>
</g>
<!-- Node19&#45;&gt;Node7 -->
<g id="edge36_Node000019_Node000007" class="edge">
<title>Node19&#45;&gt;Node7</title>
<g id="a_edge36_Node000019_Node000007"><a xlink:title=" ">
<path fill="none" stroke="#63b8ff" d="M612.45,-109.66C617.31,-96.34 623.96,-70.98 611.79,-55 600.02,-39.54 556.45,-28.07 517.6,-20.65"/>
<polygon fill="#63b8ff" stroke="#63b8ff" points="517.79,-17.13 507.32,-18.76 516.52,-24.01 517.79,-17.13"/>
</a>
</g>
</g>
<!-- Node19&#45;&gt;Node8 -->
<g id="edge37_Node000019_Node000008" class="edge">
<title>Node19&#45;&gt;Node8</title>
<g id="a_edge37_Node000019_Node000008"><a xlink:title=" ">
<path fill="none" stroke="#63b8ff" d="M621.34,-109.88C637.21,-97.86 661.17,-75.25 649.79,-55 641.68,-40.56 626.78,-30.26 612.54,-23.22"/>
<polygon fill="#63b8ff" stroke="#63b8ff" points="613.91,-20 603.36,-19.06 611.02,-26.38 613.91,-20"/>
</a>
</g>
</g>
<!-- Node19&#45;&gt;Node15 -->
<g id="edge35_Node000019_Node000015" class="edge">
<title>Node19&#45;&gt;Node15</title>
<g id="a_edge35_Node000019_Node000015"><a xlink:title=" ">
<path fill="none" stroke="#63b8ff" d="M649.44,-109.98C693.95,-100.66 765.3,-85.71 812.84,-75.75"/>
<polygon fill="#63b8ff" stroke="#63b8ff" points="813.84,-79.12 822.91,-73.65 812.4,-72.27 813.84,-79.12"/>
</a>
</g>
</g>
</g>
</svg>

<g id="navigator" transform="translate(0 0)" fill="#404254">
  <rect fill="#f2f5e9" fill-opacity="0.5" stroke="#606060" stroke-width=".5" x="0" y="0" width="60" height="60"/>
  <use id="zoomplus" xlink:href="#zoomPlus" x="17" y="9" onmousedown="handleZoom(evt,'in')"/>
  <use id="zoomminus" xlink:href="#zoomMin" x="42" y="9" onmousedown="handleZoom(evt,'out')"/>
  <use id="reset" xlink:href="#resetDef" x="30" y="36" onmousedown="handleReset()"/>
   <use id="arrowup" xlink:href="#arrowUp" x="0" y="0" onmousedown="handlePan(0,-1)"/>
  <use id="arrowright" xlink:href="#arrowRight" x="0" y="0" onmousedown="handlePan(1,0)"/>
  <use id="arrowdown" xlink:href="#arrowDown" x="0" y="0" onmousedown="handlePan(0,1)"/>
  <use id="arrowleft" xlink:href="#arrowLeft" x="0" y="0" onmousedown="handlePan(-1,0)"/>
</g>
<svg viewBox="0 0 15 15" width="100%" height="30px" preserveAspectRatio="xMaxYMin meet">
 <g id="arrow_out" transform="scale(0.3 0.3)">
  <a xlink:href="IActuator_8hpp__incl_org.svg" target="_base">
   <rect id="button" ry="5" rx="5" y="6" x="6" height="38" width="38"
        fill="#f2f5e9" fill-opacity="0.5" stroke="#606060" stroke-width="1.0"/>
   <path id="arrow"
     d="M 11.500037,31.436501 C 11.940474,20.09759 22.043105,11.32322 32.158766,21.979434 L 37.068811,17.246167 C 37.068811,17.246167 37.088388,32 37.088388,32 L 22.160133,31.978069 C 22.160133,31.978069 26.997745,27.140456 26.997745,27.140456 C 18.528582,18.264221 13.291696,25.230495 11.500037,31.436501 z"
     style="fill:#404040;"/>
  </a>
 </g>
</svg>

<style type='text/css'>
<![CDATA[
[data-mouse-over-selected='false'] { opacity: 0.7; }
[data-mouse-over-selected='true']  { opacity: 1.0; }
]]>
</style>
<script type="application/ecmascript"><![CDATA[
document.addEventListener('DOMContentLoaded', (event) => {
  highlightEdges();
  highlightAdjacentNodes();
});
]]></script>
</svg>
