<?xml version="1.0" encoding="UTF-8" standalone="no"?>
<!DOCTYPE svg PUBLIC "-//W3C//DTD SVG 1.1//EN"
 "http://www.w3.org/Graphics/SVG/1.1/DTD/svg11.dtd">
<!-- Generated by graphviz version 2.43.0 (0)
 -->
<!-- Title: Graphical Class Hierarchy Pages: 1 -->
<svg width="331pt" height="64pt"
 viewBox="0.00 0.00 331.00 64.00" xmlns="http://www.w3.org/2000/svg" xmlns:xlink="http://www.w3.org/1999/xlink">
<g id="graph0" class="graph" transform="scale(1 1) rotate(0) translate(4 60)">
<title>Graphical Class Hierarchy</title>
<!-- Node0 -->
<g id="Node000000" class="node">
<title>Node0</title>
<g id="a_Node000000"><a xlink:href="classHardware_1_1IActuator.html" target="_top" xlink:title="Abstract interface for all hardware outputs (Relays, PWM, Valves). Designed for deterministic synchro...">
<polygon fill="white" stroke="#666666" points="114,-37 0,-37 0,-18 114,-18 114,-37"/>
<text text-anchor="middle" x="57" y="-25" font-family="Helvetica,sans-Serif" font-size="10.00">Hardware::IActuator</text>
</a>
</g>
</g>
<!-- Node1 -->
<g id="Node000001" class="node">
<title>Node1</title>
<g id="a_Node000001"><a xlink:href="classHardware_1_1I2CExpanderActuator.html" target="_top" xlink:title=" ">
<polygon fill="white" stroke="#666666" points="323,-56 150,-56 150,-37 323,-37 323,-56"/>
<text text-anchor="middle" x="236.5" y="-44" font-family="Helvetica,sans-Serif" font-size="10.00">Hardware::I2CExpanderActuator</text>
</a>
</g>
</g>
<!-- Node0&#45;&gt;Node1 -->
<g id="edge5_Node000000_Node000001" class="edge">
<title>Node0&#45;&gt;Node1</title>
<g id="a_edge5_Node000000_Node000001"><a xlink:title=" ">
<path fill="none" stroke="#63b8ff" d="M124.21,-34.59C132.59,-35.48 141.25,-36.41 149.87,-37.33"/>
<polygon fill="#63b8ff" stroke="#63b8ff" points="124.48,-31.1 114.16,-33.51 123.73,-38.06 124.48,-31.1"/>
</a>
</g>
</g>
<!-- Node2 -->
<g id="Node000002" class="node">
<title>Node2</title>
<g id="a_Node000002"><a xlink:href="classHardware_1_1RelayActuator.html" target="_top" xlink:title=" ">
<polygon fill="white" stroke="#666666" points="306,-19 167,-19 167,0 306,0 306,-19"/>
<text text-anchor="middle" x="236.5" y="-7" font-family="Helvetica,sans-Serif" font-size="10.00">Hardware::RelayActuator</text>
</a>
</g>
</g>
<!-- Node0&#45;&gt;Node2 -->
<g id="edge6_Node000000_Node000002" class="edge">
<title>Node0&#45;&gt;Node2</title>
<g id="a_edge6_Node000000_Node000002"><a xlink:title=" ">
<path fill="none" stroke="#63b8ff" d="M124.17,-20.79C138.13,-19.37 152.89,-17.88 166.94,-16.45"/>
<polygon fill="#63b8ff" stroke="#63b8ff" points="123.76,-17.31 114.16,-21.8 124.46,-24.28 123.76,-17.31"/>
</a>
</g>
</g>
</g>
</svg>
