<?xml version="1.0" encoding="UTF-8" standalone="no"?>
<!DOCTYPE svg PUBLIC "-//W3C//DTD SVG 1.1//EN"
 "http://www.w3.org/Graphics/SVG/1.1/DTD/svg11.dtd">
<!-- Generated by graphviz version 2.43.0 (0)
 -->
<!-- Title: Graphical Class Hierarchy Pages: 1 -->
<svg width="322pt" height="64pt"
 viewBox="0.00 0.00 322.00 64.00" xmlns="http://www.w3.org/2000/svg" xmlns:xlink="http://www.w3.org/1999/xlink">
<g id="graph0" class="graph" transform="scale(1 1) rotate(0) translate(4 60)">
<title>Graphical Class Hierarchy</title>
<!-- Node0 -->
<g id="Node000000" class="node">
<title>Node0</title>
<g id="a_Node000000"><a xlink:href="classHardware_1_1ISensor.html" target="_top" xlink:title="Abstract interface for all physical sensors (Temp, Humidity, Pressure).">
<polygon fill="white" stroke="#666666" points="106,-37 0,-37 0,-18 106,-18 106,-37"/>
<text text-anchor="middle" x="53" y="-25" font-family="Helvetica,sans-Serif" font-size="10.00">Hardware::ISensor</text>
</a>
</g>
</g>
<!-- Node1 -->
<g id="Node000001" class="node">
<title>Node1</title>
<g id="a_Node000001"><a xlink:href="classHardware_1_1Bme280Sensor.html" target="_top" xlink:title="Driver voor BME280 (Temperatuur, Luchtvochtigheid, Luchtdruk).">
<polygon fill="white" stroke="#666666" points="299.5,-56 156.5,-56 156.5,-37 299.5,-37 299.5,-56"/>
<text text-anchor="middle" x="228" y="-44" font-family="Helvetica,sans-Serif" font-size="10.00">Hardware::Bme280Sensor</text>
</a>
</g>
</g>
<!-- Node0&#45;&gt;Node1 -->
<g id="edge7_Node000000_Node000001" class="edge">
<title>Node0&#45;&gt;Node1</title>
<g id="a_edge7_Node000000_Node000001"><a xlink:title=" ">
<path fill="none" stroke="#63b8ff" d="M116.53,-34.37C129.44,-35.78 143.11,-37.29 156.28,-38.73"/>
<polygon fill="#63b8ff" stroke="#63b8ff" points="116.7,-30.86 106.38,-33.25 115.93,-37.82 116.7,-30.86"/>
</a>
</g>
</g>
<!-- Node2 -->
<g id="Node000002" class="node">
<title>Node2</title>
<g id="a_Node000002"><a xlink:href="classHardware_1_1ExampleTempSensor.html" target="_top" xlink:title=" ">
<polygon fill="white" stroke="#666666" points="314,-19 142,-19 142,0 314,0 314,-19"/>
<text text-anchor="middle" x="228" y="-7" font-family="Helvetica,sans-Serif" font-size="10.00">Hardware::ExampleTempSensor</text>
</a>
</g>
</g>
<!-- Node0&#45;&gt;Node2 -->
<g id="edge8_Node000000_Node000002" class="edge">
<title>Node0&#45;&gt;Node2</title>
<g id="a_edge8_Node000000_Node000002"><a xlink:title=" ">
<path fill="none" stroke="#63b8ff" d="M116.33,-21.02C124.64,-20.15 133.27,-19.25 141.88,-18.36"/>
<polygon fill="#63b8ff" stroke="#63b8ff" points="115.96,-17.53 106.38,-22.05 116.68,-24.5 115.96,-17.53"/>
</a>
</g>
</g>
</g>
</svg>
