<?xml version="1.0" encoding="UTF-8" standalone="no"?>
<!DOCTYPE svg PUBLIC "-//W3C//DTD SVG 1.1//EN"
 "http://www.w3.org/Graphics/SVG/1.1/DTD/svg11.dtd">
<!-- Generated by graphviz version 2.43.0 (0)
 -->
<!-- Title: Graphical Class Hierarchy Pages: 1 -->
<svg width="300pt" height="138pt"
 viewBox="0.00 0.00 300.00 138.00" xmlns="http://www.w3.org/2000/svg" xmlns:xlink="http://www.w3.org/1999/xlink">
<g id="graph0" class="graph" transform="scale(1 1) rotate(0) translate(4 134)">
<title>Graphical Class Hierarchy</title>
<!-- Node0 -->
<g id="Node000000" class="node">
<title>Node0</title>
<g id="a_Node000000"><a xlink:href="classCore_1_1IManager.html" target="_top" xlink:title=" ">
<polygon fill="white" stroke="#666666" points="91,-74 0,-74 0,-55 91,-55 91,-74"/>
<text text-anchor="middle" x="45.5" y="-62" font-family="Helvetica,sans-Serif" font-size="10.00">Core::IManager</text>
</a>
</g>
</g>
<!-- Node1 -->
<g id="Node000001" class="node">
<title>Node1</title>
<g id="a_Node000001"><a xlink:href="classCore_1_1CommunicationManager.html" target="_top" xlink:title="The central network orchestrator for Core 0.">
<polygon fill="white" stroke="#666666" points="292,-130 127,-130 127,-111 292,-111 292,-130"/>
<text text-anchor="middle" x="209.5" y="-118" font-family="Helvetica,sans-Serif" font-size="10.00">Core::CommunicationManager</text>
</a>
</g>
</g>
<!-- Node0&#45;&gt;Node1 -->
<g id="edge1_Node000000_Node000001" class="edge">
<title>Node0&#45;&gt;Node1</title>
<g id="a_edge1_Node000000_Node000001"><a xlink:title=" ">
<path fill="none" stroke="#63b8ff" d="M72.88,-78.79C88.3,-86.67 108.35,-96.13 127,-102.5 136.6,-105.78 147.04,-108.61 157.15,-110.99"/>
<polygon fill="#63b8ff" stroke="#63b8ff" points="74.41,-75.64 63.93,-74.13 71.18,-81.85 74.41,-75.64"/>
</a>
</g>
</g>
<!-- Node2 -->
<g id="Node000002" class="node">
<title>Node2</title>
<g id="a_Node000002"><a xlink:href="classCore_1_1DataManager.html" target="_top" xlink:title="Manages the global system state in thread&#45;safe PSRAM memory.">
<polygon fill="white" stroke="#666666" points="265,-93 154,-93 154,-74 265,-74 265,-93"/>
<text text-anchor="middle" x="209.5" y="-81" font-family="Helvetica,sans-Serif" font-size="10.00">Core::DataManager</text>
</a>
</g>
</g>
<!-- Node0&#45;&gt;Node2 -->
<g id="edge2_Node000000_Node000002" class="edge">
<title>Node0&#45;&gt;Node2</title>
<g id="a_edge2_Node000000_Node000002"><a xlink:title=" ">
<path fill="none" stroke="#63b8ff" d="M101.47,-70.95C118.38,-72.93 136.97,-75.11 153.85,-77.09"/>
<polygon fill="#63b8ff" stroke="#63b8ff" points="101.54,-67.43 91.2,-69.74 100.72,-74.38 101.54,-67.43"/>
</a>
</g>
</g>
<!-- Node3 -->
<g id="Node000003" class="node">
<title>Node3</title>
<g id="a_Node000003"><a xlink:href="classCore_1_1StorageManager.html" target="_top" xlink:title="Manages persistent data via NVS (fast parameters) and LittleFS (JSON).">
<polygon fill="white" stroke="#666666" points="272,-56 147,-56 147,-37 272,-37 272,-56"/>
<text text-anchor="middle" x="209.5" y="-44" font-family="Helvetica,sans-Serif" font-size="10.00">Core::StorageManager</text>
</a>
</g>
</g>
<!-- Node0&#45;&gt;Node3 -->
<g id="edge3_Node000000_Node000003" class="edge">
<title>Node0&#45;&gt;Node3</title>
<g id="a_edge3_Node000000_Node000003"><a xlink:title=" ">
<path fill="none" stroke="#63b8ff" d="M101.15,-58.43C115.88,-56.79 131.9,-55.01 146.97,-53.34"/>
<polygon fill="#63b8ff" stroke="#63b8ff" points="100.75,-54.95 91.2,-59.53 101.52,-61.91 100.75,-54.95"/>
</a>
</g>
</g>
<!-- Node4 -->
<g id="Node000004" class="node">
<title>Node4</title>
<g id="a_Node000004"><a xlink:href="classCore_1_1TimeManager.html" target="_top" xlink:title="Orchestrates temporal integrity and astronomical scheduling.">
<polygon fill="white" stroke="#666666" points="266,-19 153,-19 153,0 266,0 266,-19"/>
<text text-anchor="middle" x="209.5" y="-7" font-family="Helvetica,sans-Serif" font-size="10.00">Core::TimeManager</text>
</a>
</g>
</g>
<!-- Node0&#45;&gt;Node4 -->
<g id="edge4_Node000000_Node000004" class="edge">
<title>Node0&#45;&gt;Node4</title>
<g id="a_edge4_Node000000_Node000004"><a xlink:title=" ">
<path fill="none" stroke="#63b8ff" d="M74.64,-50.32C89.86,-43.06 109.15,-34.51 127,-28.5 137.74,-24.88 149.5,-21.71 160.66,-19.04"/>
<polygon fill="#63b8ff" stroke="#63b8ff" points="72.75,-47.35 65.28,-54.86 75.81,-53.64 72.75,-47.35"/>
</a>
</g>
</g>
</g>
</svg>
