<?xml version="1.0" encoding="UTF-8" standalone="no"?>
<!DOCTYPE svg PUBLIC "-//W3C//DTD SVG 1.1//EN"
 "http://www.w3.org/Graphics/SVG/1.1/DTD/svg11.dtd">
<!-- Generated by graphviz version 2.43.0 (0)
 -->
<!-- Title: Graphical Class Hierarchy Pages: 1 -->
<svg width="260pt" height="138pt"
 viewBox="0.00 0.00 260.00 138.00" xmlns="http://www.w3.org/2000/svg" xmlns:xlink="http://www.w3.org/1999/xlink">
<g id="graph0" class="graph" transform="scale(1 1) rotate(0) translate(4 134)">
<title>Graphical Class Hierarchy</title>
<!-- Node0 -->
<g id="Node000000" class="node">
<title>Node0</title>
<g id="a_Node000000"><a xlink:title=" ">
<polygon fill="#e0e0e0" stroke="#999999" points="62,-74 0,-74 0,-55 62,-55 62,-74"/>
<text text-anchor="middle" x="31" y="-62" font-family="Helvetica,sans-Serif" font-size="10.00">IManager</text>
</a>
</g>
</g>
<!-- Node1 -->
<g id="Node000001" class="node">
<title>Node1</title>
<g id="a_Node000001"><a xlink:href="classHardware_1_1ActuatorManager.html" target="_top" xlink:title="The central engine for hardware output operations on Core 1. Synchronizes &#39;Desired State&#39; from DataMa...">
<polygon fill="white" stroke="#666666" points="252,-130 98,-130 98,-111 252,-111 252,-130"/>
<text text-anchor="middle" x="175" y="-118" font-family="Helvetica,sans-Serif" font-size="10.00">Hardware::ActuatorManager</text>
</a>
</g>
</g>
<!-- Node0&#45;&gt;Node1 -->
<g id="edge10_Node000000_Node000001" class="edge">
<title>Node0&#45;&gt;Node1</title>
<g id="a_edge10_Node000000_Node000001"><a xlink:title=" ">
<path fill="none" stroke="#63b8ff" d="M54.54,-79.66C66.92,-87.42 82.82,-96.48 98,-102.5 106.32,-105.8 115.4,-108.59 124.3,-110.92"/>
<polygon fill="#63b8ff" stroke="#63b8ff" points="56.12,-76.52 45.82,-74.05 52.33,-82.41 56.12,-76.52"/>
</a>
</g>
</g>
<!-- Node2 -->
<g id="Node000002" class="node">
<title>Node2</title>
<g id="a_Node000002"><a xlink:href="classHardware_1_1BusManager.html" target="_top" xlink:title="Orchestrates and monitors all physical communication buses.">
<polygon fill="white" stroke="#666666" points="240.5,-93 109.5,-93 109.5,-74 240.5,-74 240.5,-93"/>
<text text-anchor="middle" x="175" y="-81" font-family="Helvetica,sans-Serif" font-size="10.00">Hardware::BusManager</text>
</a>
</g>
</g>
<!-- Node0&#45;&gt;Node2 -->
<g id="edge11_Node000000_Node000002" class="edge">
<title>Node0&#45;&gt;Node2</title>
<g id="a_edge11_Node000000_Node000002"><a xlink:title=" ">
<path fill="none" stroke="#63b8ff" d="M72.32,-69.89C83.89,-71.44 96.81,-73.17 109.45,-74.86"/>
<polygon fill="#63b8ff" stroke="#63b8ff" points="72.49,-66.39 62.11,-68.53 71.56,-73.32 72.49,-66.39"/>
</a>
</g>
</g>
<!-- Node3 -->
<g id="Node000003" class="node">
<title>Node3</title>
<g id="a_Node000003"><a xlink:href="classHardware_1_1PinManager.html" target="_top" xlink:title="Responsible for the physical configuration and status of GPIOs.">
<polygon fill="white" stroke="#666666" points="239,-56 111,-56 111,-37 239,-37 239,-56"/>
<text text-anchor="middle" x="175" y="-44" font-family="Helvetica,sans-Serif" font-size="10.00">Hardware::PinManager</text>
</a>
</g>
</g>
<!-- Node0&#45;&gt;Node3 -->
<g id="edge12_Node000000_Node000003" class="edge">
<title>Node0&#45;&gt;Node3</title>
<g id="a_edge12_Node000000_Node000003"><a xlink:title=" ">
<path fill="none" stroke="#63b8ff" d="M72.27,-59.4C84.3,-57.87 97.78,-56.16 110.91,-54.5"/>
<polygon fill="#63b8ff" stroke="#63b8ff" points="71.59,-55.95 62.11,-60.68 72.48,-62.9 71.59,-55.95"/>
</a>
</g>
</g>
<!-- Node4 -->
<g id="Node000004" class="node">
<title>Node4</title>
<g id="a_Node000004"><a xlink:href="classHardware_1_1SensorManager.html" target="_top" xlink:title="Orchestrates sensor acquisition and data storage in DataManager. Industrial Grade....">
<polygon fill="white" stroke="#666666" points="248,-19 102,-19 102,0 248,0 248,-19"/>
<text text-anchor="middle" x="175" y="-7" font-family="Helvetica,sans-Serif" font-size="10.00">Hardware::SensorManager</text>
</a>
</g>
</g>
<!-- Node0&#45;&gt;Node4 -->
<g id="edge13_Node000000_Node000004" class="edge">
<title>Node0&#45;&gt;Node4</title>
<g id="a_edge13_Node000000_Node000004"><a xlink:title=" ">
<path fill="none" stroke="#63b8ff" d="M55.64,-49.7C67.91,-42.51 83.37,-34.21 98,-28.5 107.5,-24.79 117.96,-21.62 128,-19"/>
<polygon fill="#63b8ff" stroke="#63b8ff" points="53.71,-46.77 46.94,-54.92 57.31,-52.77 53.71,-46.77"/>
</a>
</g>
</g>
</g>
</svg>
