<?xml version="1.0" encoding="UTF-8" standalone="no"?>
<!DOCTYPE svg PUBLIC "-//W3C//DTD SVG 1.1//EN"
 "http://www.w3.org/Graphics/SVG/1.1/DTD/svg11.dtd">
<!-- Generated by graphviz version 2.43.0 (0)
 -->
<!-- Title: components/contracts/include/ISensor.hpp Pages: 1 -->
<svg width="280pt" height="170pt"
 viewBox="0.00 0.00 280.00 170.00" xmlns="http://www.w3.org/2000/svg" xmlns:xlink="http://www.w3.org/1999/xlink">

<svg id="main" version="1.1" xmlns="http://www.w3.org/2000/svg" xmlns:xlink="http://www.w3.org/1999/xlink" xml:space="preserve" onload="init(evt)">
<style type="text/css"><![CDATA[
.node, .edge {opacity: 0.7;}
.node.selected, .edge.selected {opacity: 1;}
.edge:hover path { stroke: red; }
.edge:hover polygon { stroke: red; fill: red; }
]]></style>
<script type="application/ecmascript" xlink:href="svg.min.js"/>
<svg id="graph" class="graph">
<g id="graph0" class="graph" transform="scale(1 1) rotate(0) translate(4 166)">
<title>components/contracts/include/ISensor.hpp</title>
<!-- Node1 -->
<g id="Node000001" class="node">
<title>Node1</title>
<g id="a_Node000001"><a xlink:title="The abstract behavioral contract for all sensory organs (receptors).">
<polygon fill="#999999" stroke="#666666" points="189,-162 64,-162 64,-132 189,-132 189,-162"/>
<text text-anchor="start" x="72" y="-150" font-family="Helvetica,sans-Serif" font-size="10.00">components/contracts</text>
<text text-anchor="middle" x="126.5" y="-139" font-family="Helvetica,sans-Serif" font-size="10.00">/include/ISensor.hpp</text>
</a>
</g>
</g>
<!-- Node2 -->
<g id="Node000002" class="node">
<title>Node2</title>
<g id="a_Node000002"><a xlink:href="SensorManager_8cpp.html" target="_top" xlink:title=" ">
<polygon fill="white" stroke="#666666" points="149,-30 0,-30 0,0 149,0 149,-30"/>
<text text-anchor="start" x="8" y="-18" font-family="Helvetica,sans-Serif" font-size="10.00">main/ceo/managers/sensor</text>
<text text-anchor="middle" x="74.5" y="-7" font-family="Helvetica,sans-Serif" font-size="10.00">/SensorManager.cpp</text>
</a>
</g>
</g>
<!-- Node1&#45;&gt;Node2 -->
<g id="edge1_Node000001_Node000002" class="edge">
<title>Node1&#45;&gt;Node2</title>
<g id="a_edge1_Node000001_Node000002"><a xlink:title=" ">
<path fill="none" stroke="#63b8ff" d="M109.25,-123.53C103.55,-115.24 97.62,-105.53 93.5,-96 83.98,-73.99 78.77,-46.41 76.32,-30.06"/>
<polygon fill="#63b8ff" stroke="#63b8ff" points="106.58,-125.81 115.25,-131.9 112.27,-121.73 106.58,-125.81"/>
</a>
</g>
</g>
<!-- Node3 -->
<g id="Node000003" class="node">
<title>Node3</title>
<g id="a_Node000003"><a xlink:href="SensorManager_8hpp.html" target="_top" xlink:title="The sensory cortex (afferent system) of the organism.">
<polygon fill="white" stroke="#666666" points="256.5,-96 102.5,-96 102.5,-66 256.5,-66 256.5,-96"/>
<text text-anchor="start" x="110.5" y="-84" font-family="Helvetica,sans-Serif" font-size="10.00">main/ceo/managers/sensor</text>
<text text-anchor="middle" x="179.5" y="-73" font-family="Helvetica,sans-Serif" font-size="10.00">/include/SensorManager.hpp</text>
</a>
</g>
</g>
<!-- Node1&#45;&gt;Node3 -->
<g id="edge2_Node000001_Node000003" class="edge">
<title>Node1&#45;&gt;Node3</title>
<g id="a_edge2_Node000001_Node000003"><a xlink:title=" ">
<path fill="none" stroke="#63b8ff" d="M144.65,-124.09C152.3,-114.85 160.98,-104.36 167.77,-96.16"/>
<polygon fill="#63b8ff" stroke="#63b8ff" points="141.94,-121.86 138.26,-131.8 147.34,-126.33 141.94,-121.86"/>
</a>
</g>
</g>
<!-- Node3&#45;&gt;Node2 -->
<g id="edge4_Node000003_Node000002" class="edge">
<title>Node3&#45;&gt;Node2</title>
<g id="a_edge4_Node000003_Node000002"><a xlink:title=" ">
<path fill="none" stroke="#63b8ff" d="M147.83,-60.69C131.62,-50.82 112.25,-39.01 97.49,-30.01"/>
<polygon fill="#63b8ff" stroke="#63b8ff" points="146.1,-63.74 156.46,-65.95 149.74,-57.76 146.1,-63.74"/>
</a>
</g>
</g>
<!-- Node4 -->
<g id="Node000004" class="node">
<title>Node4</title>
<g id="a_Node000004"><a xlink:href="CEO_8cpp.html" target="_top" xlink:title=" ">
<polygon fill="white" stroke="#666666" points="272,-24.5 167,-24.5 167,-5.5 272,-5.5 272,-24.5"/>
<text text-anchor="middle" x="219.5" y="-12.5" font-family="Helvetica,sans-Serif" font-size="10.00">main/ceo/CEO.cpp</text>
</a>
</g>
</g>
<!-- Node3&#45;&gt;Node4 -->
<g id="edge3_Node000003_Node000004" class="edge">
<title>Node3&#45;&gt;Node4</title>
<g id="a_edge3_Node000003_Node000004"><a xlink:title=" ">
<path fill="none" stroke="#63b8ff" d="M193.7,-57.28C200.71,-46.07 208.75,-33.19 213.97,-24.84"/>
<polygon fill="#63b8ff" stroke="#63b8ff" points="190.71,-55.46 188.38,-65.8 196.65,-59.17 190.71,-55.46"/>
</a>
</g>
</g>
</g>
</svg>
</svg>

<style type='text/css'>
<![CDATA[
[data-mouse-over-selected='false'] { opacity: 0.7; }
[data-mouse-over-selected='true']  { opacity: 1.0; }
]]>
</style>
<script type="application/ecmascript"><![CDATA[
document.addEventListener('DOMContentLoaded', (event) => {
  highlightEdges();
  highlightAdjacentNodes();
});
]]></script>
</svg>
