<?xml version="1.0" encoding="UTF-8" standalone="no"?>
<!DOCTYPE svg PUBLIC "-//W3C//DTD SVG 1.1//EN"
 "http://www.w3.org/Graphics/SVG/1.1/DTD/svg11.dtd">
<!-- Generated by graphviz version 2.43.0 (0)
 -->
<!-- Title: components/contracts/include/ISensor.hpp Pages: 1 -->
<!--zoomable 258 -->

<svg id="main" version="1.1" xmlns="http://www.w3.org/2000/svg" xmlns:xlink="http://www.w3.org/1999/xlink" xml:space="preserve" onload="init(evt)">
<style type="text/css"><![CDATA[
.node, .edge {opacity: 0.7;}
.node.selected, .edge.selected {opacity: 1;}
.edge:hover path { stroke: red; }
.edge:hover polygon { stroke: red; fill: red; }
]]></style>

<defs>
  <circle id="rim" cx="0" cy="0" r="7"/>
  <circle id="rim2" cx="0" cy="0" r="3.5"/>
  <g id="zoomPlus">
    <use xlink:href="#rim" fill="#404040"><set attributeName="fill" to="#808080" begin="zoomplus.mouseover" end="zoomplus.mouseout"/></use>
    <path d="M-4,0h8M0,-4v8" fill="none" stroke="white" stroke-width="1.5" pointer-events="none"/>
  </g>
  <g id="zoomMin">
    <use xlink:href="#rim" fill="#404040"><set attributeName="fill" to="#808080" begin="zoomminus.mouseover" end="zoomminus.mouseout"/></use>
    <path d="M-4,0h8" fill="none" stroke="white" stroke-width="1.5" pointer-events="none"/>
  </g>
  <g id="arrowUp" transform="translate(30 24)">
    <use xlink:href="#rim"/>
    <path pointer-events="none" fill="none" stroke="white" stroke-width="1.5" d="M0,-3.0v7 M-2.5,-0.5L0,-3.0L2.5,-0.5"/>
  </g>
  <g id="arrowRight" transform="rotate(90) translate(36 -43)">
    <use xlink:href="#rim"/>
    <path pointer-events="none" fill="none" stroke="white" stroke-width="1.5" d="M0,-3.0v7 M-2.5,-0.5L0,-3.0L2.5,-0.5"/>
  </g>
  <g id="arrowDown" transform="rotate(180) translate(-30 -48)">
    <use xlink:href="#rim"/>
    <path pointer-events="none" fill="none" stroke="white" stroke-width="1.5" d="M0,-3.0v7 M-2.5,-0.5L0,-3.0L2.5,-0.5"/>
  </g>
  <g id="arrowLeft" transform="rotate(270) translate(-36 17)">
    <use xlink:href="#rim"/>
    <path pointer-events="none" fill="none" stroke="white" stroke-width="1.5" d="M0,-3.0v7 M-2.5,-0.5L0,-3.0L2.5,-0.5"/>
  </g>
  <g id="resetDef">
    <use xlink:href="#rim2" fill="#404040"><set attributeName="fill" to="#808080" begin="reset.mouseover" end="reset.mouseout"/></use>
  </g>
</defs>
<script type="application/ecmascript">
var viewWidth = 1106;
var viewHeight = 258;
var sectionId = 'dynsection-0';
</script>
<script type="application/ecmascript" xlink:href="svg.min.js"/>
<svg id="graph" class="graph">
<g id="viewport">
<title>components/contracts/include/ISensor.hpp</title>
<!-- Node1 -->
<g id="Node000001" class="node">
<title>Node1</title>
<g id="a_Node000001"><a xlink:title="The abstract behavioral contract for all sensory organs (receptors).">
<polygon fill="#999999" stroke="#666666" points="313.96,-250 188.96,-250 188.96,-220 313.96,-220 313.96,-250"/>
<text text-anchor="start" x="196.96" y="-238" font-family="Helvetica,sans-Serif" font-size="10.00">components/contracts</text>
<text text-anchor="middle" x="251.46" y="-227" font-family="Helvetica,sans-Serif" font-size="10.00">/include/ISensor.hpp</text>
</a>
</g>
</g>
<!-- Node2 -->
<g id="Node000002" class="node">
<title>Node2</title>
<g id="a_Node000002"><a xlink:title=" ">
<polygon fill="#e0e0e0" stroke="#999999" points="386.96,-19 333.96,-19 333.96,0 386.96,0 386.96,-19"/>
<text text-anchor="middle" x="360.46" y="-7" font-family="Helvetica,sans-Serif" font-size="10.00">stdint.h</text>
</a>
</g>
</g>
<!-- Node1&#45;&gt;Node2 -->
<g id="edge1_Node000001_Node000002" class="edge">
<title>Node1&#45;&gt;Node2</title>
<g id="a_edge1_Node000001_Node000002"><a xlink:title=" ">
<path fill="none" stroke="#63b8ff" d="M188.75,-228.09C131.04,-221.24 51.48,-207.72 31.46,-184 -5.55,-140.14 -12.36,-98.17 25.46,-55 44.91,-32.8 240.68,-18.01 323.63,-12.69"/>
<polygon fill="#63b8ff" stroke="#63b8ff" points="324.11,-16.17 333.87,-12.05 323.67,-9.19 324.11,-16.17"/>
</a>
</g>
</g>
<!-- Node3 -->
<g id="Node000003" class="node">
<title>Node3</title>
<g id="a_Node000003"><a xlink:title=" ">
<polygon fill="#e0e0e0" stroke="#999999" points="95.96,-184 40.96,-184 40.96,-165 95.96,-165 95.96,-184"/>
<text text-anchor="middle" x="68.46" y="-172" font-family="Helvetica,sans-Serif" font-size="10.00">cJSON.h</text>
</a>
</g>
</g>
<!-- Node1&#45;&gt;Node3 -->
<g id="edge2_Node000001_Node000003" class="edge">
<title>Node1&#45;&gt;Node3</title>
<g id="a_edge2_Node000001_Node000003"><a xlink:title=" ">
<path fill="none" stroke="#63b8ff" d="M207.63,-219.99C176.32,-209.98 134.68,-196.67 105.13,-187.22"/>
<polygon fill="#63b8ff" stroke="#63b8ff" points="105.81,-183.76 95.22,-184.05 103.68,-190.43 105.81,-183.76"/>
</a>
</g>
</g>
<!-- Node4 -->
<g id="Node000004" class="node">
<title>Node4</title>
<g id="a_Node000004"><a xlink:title=" ">
<polygon fill="#e0e0e0" stroke="#999999" points="337.96,-74 276.96,-74 276.96,-55 337.96,-55 337.96,-74"/>
<text text-anchor="middle" x="307.46" y="-62" font-family="Helvetica,sans-Serif" font-size="10.00">esp_err.h</text>
</a>
</g>
</g>
<!-- Node1&#45;&gt;Node4 -->
<g id="edge3_Node000001_Node000004" class="edge">
<title>Node1&#45;&gt;Node4</title>
<g id="a_edge3_Node000001_Node000004"><a xlink:title=" ">
<path fill="none" stroke="#63b8ff" d="M232.67,-219.68C203.89,-195.99 154.91,-147.54 181.46,-110 200.61,-82.93 237.66,-72.21 266.65,-68.03"/>
<polygon fill="#63b8ff" stroke="#63b8ff" points="267.42,-71.46 276.92,-66.77 266.57,-64.51 267.42,-71.46"/>
</a>
</g>
</g>
<!-- Node5 -->
<g id="Node000005" class="node">
<title>Node5</title>
<g id="a_Node000005"><a xlink:href="DataManager_8hpp.html" target="_top" xlink:title="The collective consciousness and unified system state mirror.">
<polygon fill="white" stroke="#666666" points="815.96,-74 712.96,-74 712.96,-55 815.96,-55 815.96,-74"/>
<text text-anchor="middle" x="764.46" y="-62" font-family="Helvetica,sans-Serif" font-size="10.00">DataManager.hpp</text>
</a>
</g>
</g>
<!-- Node1&#45;&gt;Node5 -->
<g id="edge4_Node000001_Node000005" class="edge">
<title>Node1&#45;&gt;Node5</title>
<g id="a_edge4_Node000001_Node000005"><a xlink:title=" ">
<path fill="none" stroke="#63b8ff" d="M314.21,-229.77C381.64,-224.02 491.4,-211.16 582.46,-184 638.68,-167.23 654.49,-162.78 702.46,-129 721.45,-115.63 739.57,-95.99 751.26,-82.1"/>
<polygon fill="#63b8ff" stroke="#63b8ff" points="754.02,-84.25 757.66,-74.3 748.61,-79.81 754.02,-84.25"/>
</a>
</g>
</g>
<!-- Node13 -->
<g id="Node000013" class="node">
<title>Node13</title>
<g id="a_Node000013"><a xlink:title=" ">
<polygon fill="#e0e0e0" stroke="#999999" points="573.96,-184 446.96,-184 446.96,-165 573.96,-165 573.96,-184"/>
<text text-anchor="middle" x="510.46" y="-172" font-family="Helvetica,sans-Serif" font-size="10.00">SystemDefinitions.hpp</text>
</a>
</g>
</g>
<!-- Node1&#45;&gt;Node13 -->
<g id="edge13_Node000001_Node000013" class="edge">
<title>Node1&#45;&gt;Node13</title>
<g id="a_edge13_Node000001_Node000013"><a xlink:title=" ">
<path fill="none" stroke="#63b8ff" d="M313.5,-219.99C359.26,-209.65 420.62,-195.79 462.62,-186.31"/>
<polygon fill="#63b8ff" stroke="#63b8ff" points="463.61,-189.67 472.59,-184.05 462.07,-182.84 463.61,-189.67"/>
</a>
</g>
</g>
<!-- Node14 -->
<g id="Node000014" class="node">
<title>Node14</title>
<g id="a_Node000014"><a xlink:href="BusManager_8hpp.html" target="_top" xlink:title="The peripheral nervous system managing all communication pathways.">
<polygon fill="white" stroke="#666666" points="428.46,-184 330.46,-184 330.46,-165 428.46,-165 428.46,-184"/>
<text text-anchor="middle" x="379.46" y="-172" font-family="Helvetica,sans-Serif" font-size="10.00">BusManager.hpp</text>
</a>
</g>
</g>
<!-- Node1&#45;&gt;Node14 -->
<g id="edge14_Node000001_Node000014" class="edge">
<title>Node1&#45;&gt;Node14</title>
<g id="a_edge14_Node000001_Node000014"><a xlink:title=" ">
<path fill="none" stroke="#63b8ff" d="M282.12,-219.99C303.19,-210.36 330.95,-197.67 351.43,-188.31"/>
<polygon fill="#63b8ff" stroke="#63b8ff" points="352.92,-191.48 360.56,-184.14 350.01,-185.11 352.92,-191.48"/>
</a>
</g>
</g>
<!-- Node5&#45;&gt;Node2 -->
<g id="edge5_Node000005_Node000002" class="edge">
<title>Node5&#45;&gt;Node2</title>
<g id="a_edge5_Node000005_Node000002"><a xlink:title=" ">
<path fill="none" stroke="#63b8ff" d="M712.84,-59.22C643.18,-53.01 515.09,-40.08 397.07,-19.11"/>
<polygon fill="#63b8ff" stroke="#63b8ff" points="397.61,-15.65 387.15,-17.32 396.37,-22.54 397.61,-15.65"/>
</a>
</g>
</g>
<!-- Node6 -->
<g id="Node000006" class="node">
<title>Node6</title>
<g id="a_Node000006"><a xlink:title=" ">
<polygon fill="#e0e0e0" stroke="#999999" points="790.96,-19 737.96,-19 737.96,0 790.96,0 790.96,-19"/>
<text text-anchor="middle" x="764.46" y="-7" font-family="Helvetica,sans-Serif" font-size="10.00">string.h</text>
</a>
</g>
</g>
<!-- Node5&#45;&gt;Node6 -->
<g id="edge6_Node000005_Node000006" class="edge">
<title>Node5&#45;&gt;Node6</title>
<g id="a_edge6_Node000005_Node000006"><a xlink:title=" ">
<path fill="none" stroke="#63b8ff" d="M764.46,-54.75C764.46,-47.8 764.46,-37.85 764.46,-29.13"/>
<polygon fill="#63b8ff" stroke="#63b8ff" points="767.96,-29.09 764.46,-19.09 760.96,-29.09 767.96,-29.09"/>
</a>
</g>
</g>
<!-- Node7 -->
<g id="Node000007" class="node">
<title>Node7</title>
<g id="a_Node000007"><a xlink:title=" ">
<polygon fill="#e0e0e0" stroke="#999999" points="877.96,-19 808.96,-19 808.96,0 877.96,0 877.96,-19"/>
<text text-anchor="middle" x="843.46" y="-7" font-family="Helvetica,sans-Serif" font-size="10.00">type_traits</text>
</a>
</g>
</g>
<!-- Node5&#45;&gt;Node7 -->
<g id="edge7_Node000005_Node000007" class="edge">
<title>Node5&#45;&gt;Node7</title>
<g id="a_edge7_Node000005_Node000007"><a xlink:title=" ">
<path fill="none" stroke="#63b8ff" d="M777.16,-54.98C789.29,-46.84 807.82,-34.41 822.21,-24.76"/>
<polygon fill="#63b8ff" stroke="#63b8ff" points="824.18,-27.65 830.54,-19.17 820.28,-21.84 824.18,-27.65"/>
</a>
</g>
</g>
<!-- Node8 -->
<g id="Node000008" class="node">
<title>Node8</title>
<g id="a_Node000008"><a xlink:title=" ">
<polygon fill="#e0e0e0" stroke="#999999" points="517.96,-19 404.96,-19 404.96,0 517.96,0 517.96,-19"/>
<text text-anchor="middle" x="461.46" y="-7" font-family="Helvetica,sans-Serif" font-size="10.00">freertos/FreeRTOS.h</text>
</a>
</g>
</g>
<!-- Node5&#45;&gt;Node8 -->
<g id="edge8_Node000005_Node000008" class="edge">
<title>Node5&#45;&gt;Node8</title>
<g id="a_edge8_Node000005_Node000008"><a xlink:title=" ">
<path fill="none" stroke="#63b8ff" d="M715.78,-54.98C662.52,-45.67 577.16,-30.74 520.21,-20.78"/>
<polygon fill="#63b8ff" stroke="#63b8ff" points="520.73,-17.31 510.27,-19.04 519.52,-24.21 520.73,-17.31"/>
</a>
</g>
</g>
<!-- Node9 -->
<g id="Node000009" class="node">
<title>Node9</title>
<g id="a_Node000009"><a xlink:title=" ">
<polygon fill="#e0e0e0" stroke="#999999" points="638.96,-19 535.96,-19 535.96,0 638.96,0 638.96,-19"/>
<text text-anchor="middle" x="587.46" y="-7" font-family="Helvetica,sans-Serif" font-size="10.00">freertos/semphr.h</text>
</a>
</g>
</g>
<!-- Node5&#45;&gt;Node9 -->
<g id="edge9_Node000005_Node000009" class="edge">
<title>Node5&#45;&gt;Node9</title>
<g id="a_edge9_Node000005_Node000009"><a xlink:title=" ">
<path fill="none" stroke="#63b8ff" d="M736.02,-54.98C706.18,-46.05 659.08,-31.94 625.93,-22.02"/>
<polygon fill="#63b8ff" stroke="#63b8ff" points="626.71,-18.6 616.12,-19.08 624.7,-25.3 626.71,-18.6"/>
</a>
</g>
</g>
<!-- Node10 -->
<g id="Node000010" class="node">
<title>Node10</title>
<g id="a_Node000010"><a xlink:title=" ">
<polygon fill="#e0e0e0" stroke="#999999" points="996.46,-19 896.46,-19 896.46,0 996.46,0 996.46,-19"/>
<text text-anchor="middle" x="946.46" y="-7" font-family="Helvetica,sans-Serif" font-size="10.00">esp_heap_caps.h</text>
</a>
</g>
</g>
<!-- Node5&#45;&gt;Node10 -->
<g id="edge10_Node000005_Node000010" class="edge">
<title>Node5&#45;&gt;Node10</title>
<g id="a_edge10_Node000005_Node000010"><a xlink:title=" ">
<path fill="none" stroke="#63b8ff" d="M793.7,-54.98C824.52,-46.01 873.24,-31.82 907.35,-21.89"/>
<polygon fill="#63b8ff" stroke="#63b8ff" points="908.37,-25.24 916.99,-19.08 906.41,-18.52 908.37,-25.24"/>
</a>
</g>
</g>
<!-- Node11 -->
<g id="Node000011" class="node">
<title>Node11</title>
<g id="a_Node000011"><a xlink:title=" ">
<polygon fill="#e0e0e0" stroke="#999999" points="719.96,-19 656.96,-19 656.96,0 719.96,0 719.96,-19"/>
<text text-anchor="middle" x="688.46" y="-7" font-family="Helvetica,sans-Serif" font-size="10.00">esp_log.h</text>
</a>
</g>
</g>
<!-- Node5&#45;&gt;Node11 -->
<g id="edge11_Node000005_Node000011" class="edge">
<title>Node5&#45;&gt;Node11</title>
<g id="a_edge11_Node000005_Node000011"><a xlink:title=" ">
<path fill="none" stroke="#63b8ff" d="M752.25,-54.98C740.69,-46.92 723.09,-34.65 709.3,-25.03"/>
<polygon fill="#63b8ff" stroke="#63b8ff" points="711.1,-22.02 700.9,-19.17 707.1,-27.76 711.1,-22.02"/>
</a>
</g>
</g>
<!-- Node12 -->
<g id="Node000012" class="node">
<title>Node12</title>
<g id="a_Node000012"><a xlink:href="IManager_8hpp.html" target="_top" xlink:title="The abstract behavioral contract for all managers.">
<polygon fill="white" stroke="#666666" points="1097.96,-19 1014.96,-19 1014.96,0 1097.96,0 1097.96,-19"/>
<text text-anchor="middle" x="1056.46" y="-7" font-family="Helvetica,sans-Serif" font-size="10.00">IManager.hpp</text>
</a>
</g>
</g>
<!-- Node5&#45;&gt;Node12 -->
<g id="edge12_Node000005_Node000012" class="edge">
<title>Node5&#45;&gt;Node12</title>
<g id="a_edge12_Node000005_Node000012"><a xlink:title=" ">
<path fill="none" stroke="#63b8ff" d="M811.38,-54.98C864.34,-45.37 950.25,-29.78 1005.02,-19.84"/>
<polygon fill="#63b8ff" stroke="#63b8ff" points="1005.65,-23.28 1014.87,-18.05 1004.4,-16.39 1005.65,-23.28"/>
</a>
</g>
</g>
<!-- Node14&#45;&gt;Node4 -->
<g id="edge15_Node000014_Node000004" class="edge">
<title>Node14&#45;&gt;Node4</title>
<g id="a_edge15_Node000014_Node000004"><a xlink:title=" ">
<path fill="none" stroke="#63b8ff" d="M378.25,-164.62C376.16,-151.7 370.93,-127.36 359.46,-110 351.68,-98.23 339.93,-87.8 329.57,-80.01"/>
<polygon fill="#63b8ff" stroke="#63b8ff" points="331.48,-77.07 321.3,-74.11 327.41,-82.77 331.48,-77.07"/>
</a>
</g>
</g>
<!-- Node14&#45;&gt;Node5 -->
<g id="edge20_Node000014_Node000005" class="edge">
<title>Node14&#45;&gt;Node5</title>
<g id="a_edge20_Node000014_Node000005"><a xlink:title=" ">
<path fill="none" stroke="#63b8ff" d="M428.47,-166.26C509.69,-154.21 663.88,-131.17 669.46,-129 699.02,-117.51 728.7,-95.61 746.83,-80.78"/>
<polygon fill="#63b8ff" stroke="#63b8ff" points="749.33,-83.25 754.75,-74.15 744.84,-77.89 749.33,-83.25"/>
</a>
</g>
</g>
<!-- Node14&#45;&gt;Node12 -->
<g id="edge19_Node000014_Node000012" class="edge">
<title>Node14&#45;&gt;Node12</title>
<g id="a_edge19_Node000014_Node000012"><a xlink:title=" ">
<path fill="none" stroke="#63b8ff" d="M428.5,-166.21C431.53,-165.79 434.54,-165.39 437.46,-165 574.1,-147.01 610.71,-157.9 745.46,-129 824.76,-111.99 843.85,-103.34 919.46,-74 959.08,-58.63 1003.45,-37.27 1030.68,-23.66"/>
<polygon fill="#63b8ff" stroke="#63b8ff" points="1032.53,-26.65 1039.89,-19.02 1029.38,-20.39 1032.53,-26.65"/>
</a>
</g>
</g>
<!-- Node15 -->
<g id="Node000015" class="node">
<title>Node15</title>
<g id="a_Node000015"><a xlink:title=" ">
<polygon fill="#e0e0e0" stroke="#999999" points="261.96,-129 190.96,-129 190.96,-110 261.96,-110 261.96,-129"/>
<text text-anchor="middle" x="226.46" y="-117" font-family="Helvetica,sans-Serif" font-size="10.00">driver/i2c.h</text>
</a>
</g>
</g>
<!-- Node14&#45;&gt;Node15 -->
<g id="edge16_Node000014_Node000015" class="edge">
<title>Node14&#45;&gt;Node15</title>
<g id="a_edge16_Node000014_Node000015"><a xlink:title=" ">
<path fill="none" stroke="#63b8ff" d="M354.88,-164.98C329.42,-156.16 289.42,-142.31 260.83,-132.41"/>
<polygon fill="#63b8ff" stroke="#63b8ff" points="261.83,-129.05 251.24,-129.08 259.54,-135.66 261.83,-129.05"/>
</a>
</g>
</g>
<!-- Node16 -->
<g id="Node000016" class="node">
<title>Node16</title>
<g id="a_Node000016"><a xlink:title=" ">
<polygon fill="#e0e0e0" stroke="#999999" points="144.46,-74 34.46,-74 34.46,-55 144.46,-55 144.46,-74"/>
<text text-anchor="middle" x="89.46" y="-62" font-family="Helvetica,sans-Serif" font-size="10.00">driver/spi_master.h</text>
</a>
</g>
</g>
<!-- Node14&#45;&gt;Node16 -->
<g id="edge17_Node000014_Node000016" class="edge">
<title>Node14&#45;&gt;Node16</title>
<g id="a_edge17_Node000014_Node000016"><a xlink:title=" ">
<path fill="none" stroke="#63b8ff" d="M330.22,-167.77C289.14,-161.75 229.71,-150.12 181.46,-129 153.2,-116.63 124.56,-95.13 106.91,-80.62"/>
<polygon fill="#63b8ff" stroke="#63b8ff" points="109.09,-77.87 99.18,-74.12 104.58,-83.23 109.09,-77.87"/>
</a>
</g>
</g>
<!-- Node17 -->
<g id="Node000017" class="node">
<title>Node17</title>
<g id="a_Node000017"><a xlink:title=" ">
<polygon fill="#e0e0e0" stroke="#999999" points="910.96,-74 833.96,-74 833.96,-55 910.96,-55 910.96,-74"/>
<text text-anchor="middle" x="872.46" y="-62" font-family="Helvetica,sans-Serif" font-size="10.00">driver/uart.h</text>
</a>
</g>
</g>
<!-- Node14&#45;&gt;Node17 -->
<g id="edge18_Node000014_Node000017" class="edge">
<title>Node14&#45;&gt;Node17</title>
<g id="a_edge18_Node000014_Node000017"><a xlink:title=" ">
<path fill="none" stroke="#63b8ff" d="M428.51,-166.28C431.54,-165.84 434.54,-165.41 437.46,-165 555.15,-148.38 587.19,-157.97 702.46,-129 753.69,-116.12 810.73,-92.88 844,-78.37"/>
<polygon fill="#63b8ff" stroke="#63b8ff" points="845.79,-81.4 853.53,-74.17 842.97,-75 845.79,-81.4"/>
</a>
</g>
</g>
<!-- Node18 -->
<g id="Node000018" class="node">
<title>Node18</title>
<g id="a_Node000018"><a xlink:href="I2CBus_8hpp.html" target="_top" xlink:title="Industrial I2C Master bus driver with health monitoring.">
<polygon fill="white" stroke="#666666" points="484.96,-129 413.96,-129 413.96,-110 484.96,-110 484.96,-129"/>
<text text-anchor="middle" x="449.46" y="-117" font-family="Helvetica,sans-Serif" font-size="10.00">I2CBus.hpp</text>
</a>
</g>
</g>
<!-- Node14&#45;&gt;Node18 -->
<g id="edge21_Node000014_Node000018" class="edge">
<title>Node14&#45;&gt;Node18</title>
<g id="a_edge21_Node000014_Node000018"><a xlink:title=" ">
<path fill="none" stroke="#63b8ff" d="M390.71,-164.98C401.26,-157 417.26,-144.88 429.9,-135.31"/>
<polygon fill="#63b8ff" stroke="#63b8ff" points="432.15,-138 438.01,-129.17 427.93,-132.42 432.15,-138"/>
</a>
</g>
</g>
<!-- Node20 -->
<g id="Node000020" class="node">
<title>Node20</title>
<g id="a_Node000020"><a xlink:href="SPIBus_8hpp.html" target="_top" xlink:title="Industrial SPI Master bus driver with health monitoring.">
<polygon fill="white" stroke="#666666" points="350.96,-129 279.96,-129 279.96,-110 350.96,-110 350.96,-129"/>
<text text-anchor="middle" x="315.46" y="-117" font-family="Helvetica,sans-Serif" font-size="10.00">SPIBus.hpp</text>
</a>
</g>
</g>
<!-- Node14&#45;&gt;Node20 -->
<g id="edge28_Node000014_Node000020" class="edge">
<title>Node14&#45;&gt;Node20</title>
<g id="a_edge28_Node000014_Node000020"><a xlink:title=" ">
<path fill="none" stroke="#63b8ff" d="M369.18,-164.98C359.63,-157.07 345.18,-145.11 333.68,-135.58"/>
<polygon fill="#63b8ff" stroke="#63b8ff" points="335.87,-132.85 325.93,-129.17 331.4,-138.24 335.87,-132.85"/>
</a>
</g>
</g>
<!-- Node21 -->
<g id="Node000021" class="node">
<title>Node21</title>
<g id="a_Node000021"><a xlink:href="UARTBus_8hpp.html" target="_top" xlink:title="Industrial UART bus driver with health monitoring.">
<polygon fill="white" stroke="#666666" points="660.46,-129 578.46,-129 578.46,-110 660.46,-110 660.46,-129"/>
<text text-anchor="middle" x="619.46" y="-117" font-family="Helvetica,sans-Serif" font-size="10.00">UARTBus.hpp</text>
</a>
</g>
</g>
<!-- Node14&#45;&gt;Node21 -->
<g id="edge35_Node000014_Node000021" class="edge">
<title>Node14&#45;&gt;Node21</title>
<g id="a_edge35_Node000014_Node000021"><a xlink:title=" ">
<path fill="none" stroke="#63b8ff" d="M418.02,-164.98C459.54,-155.82 525.67,-141.21 570.75,-131.26"/>
<polygon fill="#63b8ff" stroke="#63b8ff" points="571.59,-134.66 580.6,-129.08 570.08,-127.82 571.59,-134.66"/>
</a>
</g>
</g>
<!-- Node18&#45;&gt;Node2 -->
<g id="edge22_Node000018_Node000002" class="edge">
<title>Node18&#45;&gt;Node2</title>
<g id="a_edge22_Node000018_Node000002"><a xlink:title=" ">
<path fill="none" stroke="#63b8ff" d="M431.82,-109.97C417.6,-102.3 397.97,-89.82 385.46,-74 375.01,-60.79 368.46,-42.66 364.7,-29.16"/>
<polygon fill="#63b8ff" stroke="#63b8ff" points="368,-27.95 362.17,-19.11 361.21,-29.66 368,-27.95"/>
</a>
</g>
</g>
<!-- Node18&#45;&gt;Node4 -->
<g id="edge26_Node000018_Node000004" class="edge">
<title>Node18&#45;&gt;Node4</title>
<g id="a_edge26_Node000018_Node000004"><a xlink:title=" ">
<path fill="none" stroke="#63b8ff" d="M426.65,-109.98C403.29,-101.27 366.76,-87.63 340.29,-77.75"/>
<polygon fill="#63b8ff" stroke="#63b8ff" points="341.28,-74.39 330.69,-74.17 338.84,-80.95 341.28,-74.39"/>
</a>
</g>
</g>
<!-- Node18&#45;&gt;Node5 -->
<g id="edge27_Node000018_Node000005" class="edge">
<title>Node18&#45;&gt;Node5</title>
<g id="a_edge27_Node000018_Node000005"><a xlink:title=" ">
<path fill="none" stroke="#63b8ff" d="M484.98,-112.52C538.06,-103.59 638.74,-86.65 703.67,-75.73"/>
<polygon fill="#63b8ff" stroke="#63b8ff" points="704.49,-79.14 713.77,-74.03 703.32,-72.24 704.49,-79.14"/>
</a>
</g>
</g>
<!-- Node18&#45;&gt;Node8 -->
<g id="edge24_Node000018_Node000008" class="edge">
<title>Node18&#45;&gt;Node8</title>
<g id="a_edge24_Node000018_Node000008"><a xlink:title=" ">
<path fill="none" stroke="#63b8ff" d="M471.25,-109.87C486.11,-102.69 504.62,-90.91 513.46,-74 523.33,-55.12 503.93,-36.63 486.09,-24.52"/>
<polygon fill="#63b8ff" stroke="#63b8ff" points="487.9,-21.52 477.59,-19.11 484.14,-27.43 487.9,-21.52"/>
</a>
</g>
</g>
<!-- Node18&#45;&gt;Node9 -->
<g id="edge25_Node000018_Node000009" class="edge">
<title>Node18&#45;&gt;Node9</title>
<g id="a_edge25_Node000018_Node000009"><a xlink:title=" ">
<path fill="none" stroke="#63b8ff" d="M468.96,-109.85C485.86,-101.86 510.51,-88.98 529.46,-74 546.95,-60.17 563.76,-40.88 574.75,-27.19"/>
<polygon fill="#63b8ff" stroke="#63b8ff" points="577.65,-29.15 581.07,-19.12 572.15,-24.84 577.65,-29.15"/>
</a>
</g>
</g>
<!-- Node19 -->
<g id="Node000019" class="node">
<title>Node19</title>
<g id="a_Node000019"><a xlink:title=" ">
<polygon fill="#e0e0e0" stroke="#999999" points="504.46,-74 394.46,-74 394.46,-55 504.46,-55 504.46,-74"/>
<text text-anchor="middle" x="449.46" y="-62" font-family="Helvetica,sans-Serif" font-size="10.00">driver/i2c_master.h</text>
</a>
</g>
</g>
<!-- Node18&#45;&gt;Node19 -->
<g id="edge23_Node000018_Node000019" class="edge">
<title>Node18&#45;&gt;Node19</title>
<g id="a_edge23_Node000018_Node000019"><a xlink:title=" ">
<path fill="none" stroke="#63b8ff" d="M449.46,-109.75C449.46,-102.8 449.46,-92.85 449.46,-84.13"/>
<polygon fill="#63b8ff" stroke="#63b8ff" points="452.96,-84.09 449.46,-74.09 445.96,-84.09 452.96,-84.09"/>
</a>
</g>
</g>
<!-- Node20&#45;&gt;Node2 -->
<g id="edge29_Node000020_Node000002" class="edge">
<title>Node20&#45;&gt;Node2</title>
<g id="a_edge29_Node000020_Node000002"><a xlink:title=" ">
<path fill="none" stroke="#63b8ff" d="M279.96,-109.99C248.58,-101.65 206.3,-88.18 196.46,-74 191.65,-67.06 191.33,-61.71 196.46,-55 211.85,-34.88 280.4,-21.73 323.85,-15.25"/>
<polygon fill="#63b8ff" stroke="#63b8ff" points="324.38,-18.71 333.78,-13.82 323.39,-11.78 324.38,-18.71"/>
</a>
</g>
</g>
<!-- Node20&#45;&gt;Node4 -->
<g id="edge33_Node000020_Node000004" class="edge">
<title>Node20&#45;&gt;Node4</title>
<g id="a_edge33_Node000020_Node000004"><a xlink:title=" ">
<path fill="none" stroke="#63b8ff" d="M314.14,-109.75C313.09,-102.8 311.59,-92.85 310.28,-84.13"/>
<polygon fill="#63b8ff" stroke="#63b8ff" points="313.71,-83.45 308.76,-74.09 306.79,-84.5 313.71,-83.45"/>
</a>
</g>
</g>
<!-- Node20&#45;&gt;Node5 -->
<g id="edge34_Node000020_Node000005" class="edge">
<title>Node20&#45;&gt;Node5</title>
<g id="a_edge34_Node000020_Node000005"><a xlink:title=" ">
<path fill="none" stroke="#63b8ff" d="M351.07,-114.3C427.32,-105.3 607.18,-84.07 702.56,-72.81"/>
<polygon fill="#63b8ff" stroke="#63b8ff" points="703.12,-76.26 712.64,-71.62 702.3,-69.31 703.12,-76.26"/>
</a>
</g>
</g>
<!-- Node20&#45;&gt;Node8 -->
<g id="edge31_Node000020_Node000008" class="edge">
<title>Node20&#45;&gt;Node8</title>
<g id="a_edge31_Node000020_Node000008"><a xlink:title=" ">
<path fill="none" stroke="#63b8ff" d="M288.18,-109.95C257.71,-99 215.05,-78.59 234.46,-55 244.73,-42.53 331.75,-28.16 395,-19.2"/>
<polygon fill="#63b8ff" stroke="#63b8ff" points="395.51,-22.66 404.93,-17.81 394.54,-15.73 395.51,-22.66"/>
</a>
</g>
</g>
<!-- Node20&#45;&gt;Node9 -->
<g id="edge32_Node000020_Node000009" class="edge">
<title>Node20&#45;&gt;Node9</title>
<g id="a_edge32_Node000020_Node000009"><a xlink:title=" ">
<path fill="none" stroke="#63b8ff" d="M300.96,-109.99C281.49,-97.53 251.13,-73.76 267.46,-55 303.83,-13.23 453.87,-25.66 525.85,-18.84"/>
<polygon fill="#63b8ff" stroke="#63b8ff" points="526.34,-22.31 535.88,-17.69 525.54,-15.35 526.34,-22.31"/>
</a>
</g>
</g>
<!-- Node20&#45;&gt;Node16 -->
<g id="edge30_Node000020_Node000016" class="edge">
<title>Node20&#45;&gt;Node16</title>
<g id="a_edge30_Node000020_Node000016"><a xlink:title=" ">
<path fill="none" stroke="#63b8ff" d="M279.9,-110.16C241,-101.04 178.52,-86.39 135.81,-76.37"/>
<polygon fill="#63b8ff" stroke="#63b8ff" points="136.47,-72.93 125.94,-74.05 134.88,-79.75 136.47,-72.93"/>
</a>
</g>
</g>
<!-- Node21&#45;&gt;Node2 -->
<g id="edge36_Node000021_Node000002" class="edge">
<title>Node21&#45;&gt;Node2</title>
<g id="a_edge36_Node000021_Node000002"><a xlink:title=" ">
<path fill="none" stroke="#63b8ff" d="M607.3,-109.78C588.15,-96.4 549.44,-70.7 513.46,-55 492.57,-45.89 435.19,-30.07 396.94,-19.95"/>
<polygon fill="#63b8ff" stroke="#63b8ff" points="397.75,-16.55 387.19,-17.39 395.97,-23.32 397.75,-16.55"/>
</a>
</g>
</g>
<!-- Node21&#45;&gt;Node4 -->
<g id="edge40_Node000021_Node000004" class="edge">
<title>Node21&#45;&gt;Node4</title>
<g id="a_edge40_Node000021_Node000004"><a xlink:title=" ">
<path fill="none" stroke="#63b8ff" d="M578.35,-111.52C518.57,-101.36 408.26,-82.62 348.51,-72.47"/>
<polygon fill="#63b8ff" stroke="#63b8ff" points="348.76,-68.97 338.32,-70.74 347.59,-75.87 348.76,-68.97"/>
</a>
</g>
</g>
<!-- Node21&#45;&gt;Node5 -->
<g id="edge41_Node000021_Node000005" class="edge">
<title>Node21&#45;&gt;Node5</title>
<g id="a_edge41_Node000021_Node000005"><a xlink:title=" ">
<path fill="none" stroke="#63b8ff" d="M642.76,-109.98C666.72,-101.23 704.24,-87.51 731.29,-77.62"/>
<polygon fill="#63b8ff" stroke="#63b8ff" points="732.55,-80.89 740.74,-74.17 730.15,-74.32 732.55,-80.89"/>
</a>
</g>
</g>
<!-- Node21&#45;&gt;Node8 -->
<g id="edge38_Node000021_Node000008" class="edge">
<title>Node21&#45;&gt;Node8</title>
<g id="a_edge38_Node000021_Node000008"><a xlink:title=" ">
<path fill="none" stroke="#63b8ff" d="M623.12,-109.66C627.98,-96.34 634.63,-70.98 622.46,-55 610.69,-39.54 567.12,-28.07 528.27,-20.65"/>
<polygon fill="#63b8ff" stroke="#63b8ff" points="528.46,-17.13 517.99,-18.76 527.19,-24.01 528.46,-17.13"/>
</a>
</g>
</g>
<!-- Node21&#45;&gt;Node9 -->
<g id="edge39_Node000021_Node000009" class="edge">
<title>Node21&#45;&gt;Node9</title>
<g id="a_edge39_Node000021_Node000009"><a xlink:title=" ">
<path fill="none" stroke="#63b8ff" d="M632.02,-109.88C647.88,-97.86 671.84,-75.25 660.46,-55 652.35,-40.56 637.45,-30.26 623.21,-23.22"/>
<polygon fill="#63b8ff" stroke="#63b8ff" points="624.58,-20 614.03,-19.06 621.69,-26.38 624.58,-20"/>
</a>
</g>
</g>
<!-- Node21&#45;&gt;Node17 -->
<g id="edge37_Node000021_Node000017" class="edge">
<title>Node21&#45;&gt;Node17</title>
<g id="a_edge37_Node000021_Node000017"><a xlink:title=" ">
<path fill="none" stroke="#63b8ff" d="M660.11,-109.98C704.62,-100.66 775.97,-85.71 823.51,-75.75"/>
<polygon fill="#63b8ff" stroke="#63b8ff" points="824.51,-79.12 833.58,-73.65 823.07,-72.27 824.51,-79.12"/>
</a>
</g>
</g>
</g>
</svg>

<g id="navigator" transform="translate(0 0)" fill="#404254">
  <rect fill="#f2f5e9" fill-opacity="0.5" stroke="#606060" stroke-width=".5" x="0" y="0" width="60" height="60"/>
  <use id="zoomplus" xlink:href="#zoomPlus" x="17" y="9" onmousedown="handleZoom(evt,'in')"/>
  <use id="zoomminus" xlink:href="#zoomMin" x="42" y="9" onmousedown="handleZoom(evt,'out')"/>
  <use id="reset" xlink:href="#resetDef" x="30" y="36" onmousedown="handleReset()"/>
   <use id="arrowup" xlink:href="#arrowUp" x="0" y="0" onmousedown="handlePan(0,-1)"/>
  <use id="arrowright" xlink:href="#arrowRight" x="0" y="0" onmousedown="handlePan(1,0)"/>
  <use id="arrowdown" xlink:href="#arrowDown" x="0" y="0" onmousedown="handlePan(0,1)"/>
  <use id="arrowleft" xlink:href="#arrowLeft" x="0" y="0" onmousedown="handlePan(-1,0)"/>
</g>
<svg viewBox="0 0 15 15" width="100%" height="30px" preserveAspectRatio="xMaxYMin meet">
 <g id="arrow_out" transform="scale(0.3 0.3)">
  <a xlink:href="ISensor_8hpp__incl_org.svg" target="_base">
   <rect id="button" ry="5" rx="5" y="6" x="6" height="38" width="38"
        fill="#f2f5e9" fill-opacity="0.5" stroke="#606060" stroke-width="1.0"/>
   <path id="arrow"
     d="M 11.500037,31.436501 C 11.940474,20.09759 22.043105,11.32322 32.158766,21.979434 L 37.068811,17.246167 C 37.068811,17.246167 37.088388,32 37.088388,32 L 22.160133,31.978069 C 22.160133,31.978069 26.997745,27.140456 26.997745,27.140456 C 18.528582,18.264221 13.291696,25.230495 11.500037,31.436501 z"
     style="fill:#404040;"/>
  </a>
 </g>
</svg>

<style type='text/css'>
<![CDATA[
[data-mouse-over-selected='false'] { opacity: 0.7; }
[data-mouse-over-selected='true']  { opacity: 1.0; }
]]>
</style>
<script type="application/ecmascript"><![CDATA[
document.addEventListener('DOMContentLoaded', (event) => {
  highlightEdges();
  highlightAdjacentNodes();
});
]]></script>
</svg>
