<?xml version="1.0" encoding="UTF-8" standalone="no"?>
<!DOCTYPE svg PUBLIC "-//W3C//DTD SVG 1.1//EN"
 "http://www.w3.org/Graphics/SVG/1.1/DTD/svg11.dtd">
<!-- Generated by graphviz version 2.43.0 (0)
 -->
<!-- Title: components/contracts/include/ITimeSource.hpp Pages: 1 -->
<svg width="977pt" height="302pt"
 viewBox="0.00 0.00 976.81 302.00" xmlns="http://www.w3.org/2000/svg" xmlns:xlink="http://www.w3.org/1999/xlink">
<g id="graph0" class="graph" transform="scale(1 1) rotate(0) translate(4 298)">
<title>components/contracts/include/ITimeSource.hpp</title>
<!-- Node1 -->
<g id="Node000001" class="node">
<title>Node1</title>
<g id="a_Node000001"><a xlink:title="The abstract behavioral contract for all temporal reference organs.">
<polygon fill="#999999" stroke="#666666" points="393.38,-294 253.38,-294 253.38,-264 393.38,-264 393.38,-294"/>
<text text-anchor="start" x="261.38" y="-282" font-family="Helvetica,sans-Serif" font-size="10.00">components/contracts</text>
<text text-anchor="middle" x="323.38" y="-271" font-family="Helvetica,sans-Serif" font-size="10.00">/include/ITimeSource.hpp</text>
</a>
</g>
</g>
<!-- Node2 -->
<g id="Node000002" class="node">
<title>Node2</title>
<g id="a_Node000002"><a xlink:href="TimeManager_8cpp.html" target="_top" xlink:title=" ">
<polygon fill="white" stroke="#666666" points="182.88,-162 43.88,-162 43.88,-132 182.88,-132 182.88,-162"/>
<text text-anchor="start" x="51.88" y="-150" font-family="Helvetica,sans-Serif" font-size="10.00">main/ceo/managers/time</text>
<text text-anchor="middle" x="113.38" y="-139" font-family="Helvetica,sans-Serif" font-size="10.00">/TimeManager.cpp</text>
</a>
</g>
</g>
<!-- Node1&#45;&gt;Node2 -->
<g id="edge1_Node000001_Node000002" class="edge">
<title>Node1&#45;&gt;Node2</title>
<g id="a_edge1_Node000001_Node000002"><a xlink:title=" ">
<path fill="none" stroke="#63b8ff" d="M291.91,-258.52C249.21,-232.09 173.92,-185.48 136.22,-162.14"/>
<polygon fill="#63b8ff" stroke="#63b8ff" points="290.16,-261.55 300.5,-263.84 293.84,-255.6 290.16,-261.55"/>
</a>
</g>
</g>
<!-- Node3 -->
<g id="Node000003" class="node">
<title>Node3</title>
<g id="a_Node000003"><a xlink:href="TimeManager_8hpp.html" target="_top" xlink:title="The biological clock and circadian rhythm (pacemaker) of the organism.">
<polygon fill="white" stroke="#666666" points="553.38,-228 407.38,-228 407.38,-198 553.38,-198 553.38,-228"/>
<text text-anchor="start" x="415.38" y="-216" font-family="Helvetica,sans-Serif" font-size="10.00">main/ceo/managers/time</text>
<text text-anchor="middle" x="480.38" y="-205" font-family="Helvetica,sans-Serif" font-size="10.00">/include/TimeManager.hpp</text>
</a>
</g>
</g>
<!-- Node1&#45;&gt;Node3 -->
<g id="edge2_Node000001_Node000003" class="edge">
<title>Node1&#45;&gt;Node3</title>
<g id="a_edge2_Node000001_Node000003"><a xlink:title=" ">
<path fill="none" stroke="#63b8ff" d="M367.4,-260.05C392.28,-249.91 422.91,-237.43 446,-228.01"/>
<polygon fill="#63b8ff" stroke="#63b8ff" points="365.77,-256.94 357.83,-263.95 368.41,-263.42 365.77,-256.94"/>
</a>
</g>
</g>
<!-- Node3&#45;&gt;Node2 -->
<g id="edge15_Node000003_Node000002" class="edge">
<title>Node3&#45;&gt;Node2</title>
<g id="a_edge15_Node000003_Node000002"><a xlink:title=" ">
<path fill="none" stroke="#63b8ff" d="M397.14,-197.63C339.62,-187.68 261.34,-174.1 192.38,-162 189.36,-161.47 186.28,-160.93 183.16,-160.38"/>
<polygon fill="#63b8ff" stroke="#63b8ff" points="396.82,-201.13 407.27,-199.38 398.02,-194.23 396.82,-201.13"/>
</a>
</g>
</g>
<!-- Node4 -->
<g id="Node000004" class="node">
<title>Node4</title>
<g id="a_Node000004"><a xlink:href="CEO_8cpp.html" target="_top" xlink:title=" ">
<polygon fill="white" stroke="#666666" points="560.88,-24.5 455.88,-24.5 455.88,-5.5 560.88,-5.5 560.88,-24.5"/>
<text text-anchor="middle" x="508.38" y="-12.5" font-family="Helvetica,sans-Serif" font-size="10.00">main/ceo/CEO.cpp</text>
</a>
</g>
</g>
<!-- Node3&#45;&gt;Node4 -->
<g id="edge3_Node000003_Node000004" class="edge">
<title>Node3&#45;&gt;Node4</title>
<g id="a_edge3_Node000003_Node000004"><a xlink:title=" ">
<path fill="none" stroke="#63b8ff" d="M563.93,-209C691.37,-203.56 922.27,-189.94 947.38,-162 1058.98,-37.81 699.88,-19.04 560.92,-16.37"/>
<polygon fill="#63b8ff" stroke="#63b8ff" points="563.66,-205.51 553.81,-209.43 563.95,-212.51 563.66,-205.51"/>
</a>
</g>
</g>
<!-- Node5 -->
<g id="Node000005" class="node">
<title>Node5</title>
<g id="a_Node000005"><a xlink:href="CommunicationManager_8hpp.html" target="_top" xlink:title="The external interface and vocal apparatus of the organism.">
<polygon fill="white" stroke="#666666" points="399.38,-162 201.38,-162 201.38,-132 399.38,-132 399.38,-162"/>
<text text-anchor="start" x="209.38" y="-150" font-family="Helvetica,sans-Serif" font-size="10.00">main/ceo/managers/communication</text>
<text text-anchor="middle" x="300.38" y="-139" font-family="Helvetica,sans-Serif" font-size="10.00">/include/CommunicationManager.hpp</text>
</a>
</g>
</g>
<!-- Node3&#45;&gt;Node5 -->
<g id="edge4_Node000003_Node000005" class="edge">
<title>Node3&#45;&gt;Node5</title>
<g id="a_edge4_Node000003_Node000005"><a xlink:title=" ">
<path fill="none" stroke="#63b8ff" d="M431.41,-194.59C402.63,-184.36 366.73,-171.59 339.79,-162.01"/>
<polygon fill="#63b8ff" stroke="#63b8ff" points="430.28,-197.9 440.88,-197.95 432.63,-191.31 430.28,-197.9"/>
</a>
</g>
</g>
<!-- Node9 -->
<g id="Node000009" class="node">
<title>Node9</title>
<g id="a_Node000009"><a xlink:href="StorageManager_8cpp.html" target="_top" xlink:title="Implementation of hybrid storage management according to AGX Rule.">
<polygon fill="white" stroke="#666666" points="600.88,-96 447.88,-96 447.88,-66 600.88,-66 600.88,-96"/>
<text text-anchor="start" x="455.88" y="-84" font-family="Helvetica,sans-Serif" font-size="10.00">main/ceo/managers/storage</text>
<text text-anchor="middle" x="524.38" y="-73" font-family="Helvetica,sans-Serif" font-size="10.00">/StorageManager.cpp</text>
</a>
</g>
</g>
<!-- Node3&#45;&gt;Node9 -->
<g id="edge11_Node000003_Node000009" class="edge">
<title>Node3&#45;&gt;Node9</title>
<g id="a_edge11_Node000003_Node000009"><a xlink:title=" ">
<path fill="none" stroke="#63b8ff" d="M460.1,-189.79C447.72,-173.43 436.08,-150.83 446.38,-132 455.25,-115.77 471.89,-104.03 487.53,-96.02"/>
<polygon fill="#63b8ff" stroke="#63b8ff" points="457.51,-192.16 466.52,-197.73 462.95,-187.76 457.51,-192.16"/>
</a>
</g>
</g>
<!-- Node10 -->
<g id="Node000010" class="node">
<title>Node10</title>
<g id="a_Node000010"><a xlink:href="StorageManager_8hpp.html" target="_top" xlink:title="The long&#45;term memory and archivist (hippocampus) of the organism.">
<polygon fill="white" stroke="#666666" points="613.38,-162 455.38,-162 455.38,-132 613.38,-132 613.38,-162"/>
<text text-anchor="start" x="463.38" y="-150" font-family="Helvetica,sans-Serif" font-size="10.00">main/ceo/managers/storage</text>
<text text-anchor="middle" x="534.38" y="-139" font-family="Helvetica,sans-Serif" font-size="10.00">/include/StorageManager.hpp</text>
</a>
</g>
</g>
<!-- Node3&#45;&gt;Node10 -->
<g id="edge12_Node000003_Node000010" class="edge">
<title>Node3&#45;&gt;Node10</title>
<g id="a_edge12_Node000003_Node000010"><a xlink:title=" ">
<path fill="none" stroke="#63b8ff" d="M498.87,-190.09C506.66,-180.85 515.51,-170.36 522.43,-162.16"/>
<polygon fill="#63b8ff" stroke="#63b8ff" points="496.14,-187.9 492.36,-197.8 501.49,-192.41 496.14,-187.9"/>
</a>
</g>
</g>
<!-- Node11 -->
<g id="Node000011" class="node">
<title>Node11</title>
<g id="a_Node000011"><a xlink:href="ToolBox_8cpp.html" target="_top" xlink:title=" ">
<polygon fill="white" stroke="#666666" points="755.88,-156.5 630.88,-156.5 630.88,-137.5 755.88,-137.5 755.88,-156.5"/>
<text text-anchor="middle" x="693.38" y="-144.5" font-family="Helvetica,sans-Serif" font-size="10.00">main/tool/ToolBox.cpp</text>
</a>
</g>
</g>
<!-- Node3&#45;&gt;Node11 -->
<g id="edge16_Node000003_Node000011" class="edge">
<title>Node3&#45;&gt;Node11</title>
<g id="a_edge16_Node000003_Node000011"><a xlink:title=" ">
<path fill="none" stroke="#63b8ff" d="M536.79,-195.05C578.1,-182.64 632.43,-166.31 665.03,-156.52"/>
<polygon fill="#63b8ff" stroke="#63b8ff" points="535.69,-191.73 527.12,-197.95 537.71,-198.43 535.69,-191.73"/>
</a>
</g>
</g>
<!-- Node12 -->
<g id="Node000012" class="node">
<title>Node12</title>
<g id="a_Node000012"><a xlink:href="ToolBox_8hpp.html" target="_top" xlink:title="The metabolic support and universal toolkit of the organism.">
<polygon fill="white" stroke="#666666" points="938.38,-156.5 774.38,-156.5 774.38,-137.5 938.38,-137.5 938.38,-156.5"/>
<text text-anchor="middle" x="856.38" y="-144.5" font-family="Helvetica,sans-Serif" font-size="10.00">main/tool/include/ToolBox.hpp</text>
</a>
</g>
</g>
<!-- Node3&#45;&gt;Node12 -->
<g id="edge17_Node000003_Node000012" class="edge">
<title>Node3&#45;&gt;Node12</title>
<g id="a_edge17_Node000003_Node000012"><a xlink:title=" ">
<path fill="none" stroke="#63b8ff" d="M564.03,-197.76C638.33,-185.11 744.45,-167.05 806.3,-156.52"/>
<polygon fill="#63b8ff" stroke="#63b8ff" points="563.04,-194.38 553.77,-199.51 564.21,-201.28 563.04,-194.38"/>
</a>
</g>
</g>
<!-- Node5&#45;&gt;Node4 -->
<g id="edge5_Node000005_Node000004" class="edge">
<title>Node5&#45;&gt;Node4</title>
<g id="a_edge5_Node000005_Node000004"><a xlink:title=" ">
<path fill="none" stroke="#63b8ff" d="M342.09,-127.5C360.44,-118.76 381.96,-107.7 400.38,-96 418.54,-84.46 421.17,-78.92 438.38,-66 458.2,-51.11 481.75,-34.51 495.86,-24.67"/>
<polygon fill="#63b8ff" stroke="#63b8ff" points="340.38,-124.43 332.81,-131.84 343.35,-130.77 340.38,-124.43"/>
</a>
</g>
</g>
<!-- Node6 -->
<g id="Node000006" class="node">
<title>Node6</title>
<g id="a_Node000006"><a xlink:href="ActuatorManager_8cpp.html" target="_top" xlink:title=" ">
<polygon fill="white" stroke="#666666" points="298.88,-30 141.88,-30 141.88,0 298.88,0 298.88,-30"/>
<text text-anchor="start" x="149.88" y="-18" font-family="Helvetica,sans-Serif" font-size="10.00">main/ceo/managers/actuator</text>
<text text-anchor="middle" x="220.38" y="-7" font-family="Helvetica,sans-Serif" font-size="10.00">/ActuatorManager.cpp</text>
</a>
</g>
</g>
<!-- Node5&#45;&gt;Node6 -->
<g id="edge6_Node000005_Node000006" class="edge">
<title>Node5&#45;&gt;Node6</title>
<g id="a_edge6_Node000005_Node000006"><a xlink:title=" ">
<path fill="none" stroke="#63b8ff" d="M191.05,-130.48C111.41,-118.64 16.43,-103.19 10.38,-96 -30.72,-47.21 66.34,-28.11 141.84,-20.68"/>
<polygon fill="#63b8ff" stroke="#63b8ff" points="190.77,-133.98 201.17,-131.98 191.79,-127.05 190.77,-133.98"/>
</a>
</g>
</g>
<!-- Node7 -->
<g id="Node000007" class="node">
<title>Node7</title>
<g id="a_Node000007"><a xlink:href="ActuatorManager_8hpp.html" target="_top" xlink:title="Interface for all executive organs (limbs) of the organism.">
<polygon fill="white" stroke="#666666" points="391.38,-96 229.38,-96 229.38,-66 391.38,-66 391.38,-96"/>
<text text-anchor="start" x="237.38" y="-84" font-family="Helvetica,sans-Serif" font-size="10.00">main/ceo/managers/actuator</text>
<text text-anchor="middle" x="310.38" y="-73" font-family="Helvetica,sans-Serif" font-size="10.00">/include/ActuatorManager.hpp</text>
</a>
</g>
</g>
<!-- Node5&#45;&gt;Node7 -->
<g id="edge7_Node000005_Node000007" class="edge">
<title>Node5&#45;&gt;Node7</title>
<g id="a_edge7_Node000005_Node000007"><a xlink:title=" ">
<path fill="none" stroke="#63b8ff" d="M304.16,-121.83C305.51,-113.17 306.99,-103.7 308.17,-96.16"/>
<polygon fill="#63b8ff" stroke="#63b8ff" points="300.68,-121.38 302.6,-131.8 307.6,-122.46 300.68,-121.38"/>
</a>
</g>
</g>
<!-- Node8 -->
<g id="Node000008" class="node">
<title>Node8</title>
<g id="a_Node000008"><a xlink:href="CommunicationManager_8cpp.html" target="_top" xlink:title=" ">
<polygon fill="white" stroke="#666666" points="211.38,-96 19.38,-96 19.38,-66 211.38,-66 211.38,-96"/>
<text text-anchor="start" x="27.38" y="-84" font-family="Helvetica,sans-Serif" font-size="10.00">main/ceo/managers/communication</text>
<text text-anchor="middle" x="115.38" y="-73" font-family="Helvetica,sans-Serif" font-size="10.00">/CommunicationManager.cpp</text>
</a>
</g>
</g>
<!-- Node5&#45;&gt;Node8 -->
<g id="edge10_Node000005_Node000008" class="edge">
<title>Node5&#45;&gt;Node8</title>
<g id="a_edge10_Node000005_Node000008"><a xlink:title=" ">
<path fill="none" stroke="#63b8ff" d="M250.05,-128.59C220.47,-118.36 183.57,-105.59 155.88,-96.01"/>
<polygon fill="#63b8ff" stroke="#63b8ff" points="249.18,-131.99 259.78,-131.95 251.47,-125.38 249.18,-131.99"/>
</a>
</g>
</g>
<!-- Node7&#45;&gt;Node4 -->
<g id="edge8_Node000007_Node000004" class="edge">
<title>Node7&#45;&gt;Node4</title>
<g id="a_edge8_Node000007_Node000004"><a xlink:title=" ">
<path fill="none" stroke="#63b8ff" d="M363.79,-62.74C402.07,-50.36 451.98,-34.23 482.03,-24.52"/>
<polygon fill="#63b8ff" stroke="#63b8ff" points="362.27,-59.55 353.83,-65.95 364.42,-66.21 362.27,-59.55"/>
</a>
</g>
</g>
<!-- Node7&#45;&gt;Node6 -->
<g id="edge9_Node000007_Node000006" class="edge">
<title>Node7&#45;&gt;Node6</title>
<g id="a_edge9_Node000007_Node000006"><a xlink:title=" ">
<path fill="none" stroke="#63b8ff" d="M281.91,-59.75C268.37,-50.13 252.52,-38.86 240.3,-30.16"/>
<polygon fill="#63b8ff" stroke="#63b8ff" points="280.23,-62.85 290.4,-65.8 284.28,-57.15 280.23,-62.85"/>
</a>
</g>
</g>
<!-- Node10&#45;&gt;Node4 -->
<g id="edge13_Node000010_Node000004" class="edge">
<title>Node10&#45;&gt;Node4</title>
<g id="a_edge13_Node000010_Node000004"><a xlink:title=" ">
<path fill="none" stroke="#63b8ff" d="M578.96,-126.81C591.38,-119.14 603.38,-108.98 610.38,-96 616.71,-84.26 617.43,-77.31 610.38,-66 596.76,-44.16 570.52,-31.59 548.07,-24.52"/>
<polygon fill="#63b8ff" stroke="#63b8ff" points="576.87,-123.98 569.91,-131.96 580.33,-130.06 576.87,-123.98"/>
</a>
</g>
</g>
<!-- Node10&#45;&gt;Node9 -->
<g id="edge14_Node000010_Node000009" class="edge">
<title>Node10&#45;&gt;Node9</title>
<g id="a_edge14_Node000010_Node000009"><a xlink:title=" ">
<path fill="none" stroke="#63b8ff" d="M530.6,-121.83C529.25,-113.17 527.77,-103.7 526.59,-96.16"/>
<polygon fill="#63b8ff" stroke="#63b8ff" points="527.16,-122.46 532.16,-131.8 534.07,-121.38 527.16,-122.46"/>
</a>
</g>
</g>
</g>
</svg>
