<?xml version="1.0" encoding="UTF-8" standalone="no"?>
<!DOCTYPE svg PUBLIC "-//W3C//DTD SVG 1.1//EN"
 "http://www.w3.org/Graphics/SVG/1.1/DTD/svg11.dtd">
<!-- Generated by graphviz version 2.43.0 (0)
 -->
<!-- Title: components/topology/include/PinMap.hpp Pages: 1 -->
<svg width="310pt" height="148pt"
 viewBox="0.00 0.00 310.36 148.00" xmlns="http://www.w3.org/2000/svg" xmlns:xlink="http://www.w3.org/1999/xlink">

<svg id="main" version="1.1" xmlns="http://www.w3.org/2000/svg" xmlns:xlink="http://www.w3.org/1999/xlink" xml:space="preserve" onload="init(evt)">
<style type="text/css"><![CDATA[
.node, .edge {opacity: 0.7;}
.node.selected, .edge.selected {opacity: 1;}
.edge:hover path { stroke: red; }
.edge:hover polygon { stroke: red; fill: red; }
]]></style>
<script type="application/ecmascript" xlink:href="svg.min.js"/>
<svg id="graph" class="graph">
<g id="graph0" class="graph" transform="scale(1 1) rotate(0) translate(4 144)">
<title>components/topology/include/PinMap.hpp</title>
<!-- Node1 -->
<g id="Node000001" class="node">
<title>Node1</title>
<g id="a_Node000001"><a xlink:title="The anatomical map and spatial registry of the organism.">
<polygon fill="#999999" stroke="#666666" points="157.36,-140 35.36,-140 35.36,-110 157.36,-110 157.36,-140"/>
<text text-anchor="start" x="43.36" y="-128" font-family="Helvetica,sans-Serif" font-size="10.00">components/topology</text>
<text text-anchor="middle" x="96.36" y="-117" font-family="Helvetica,sans-Serif" font-size="10.00">/include/PinMap.hpp</text>
</a>
</g>
</g>
<!-- Node2 -->
<g id="Node000002" class="node">
<title>Node2</title>
<g id="a_Node000002"><a xlink:title=" ">
<polygon fill="#e0e0e0" stroke="#999999" points="103.36,-19 31.36,-19 31.36,0 103.36,0 103.36,-19"/>
<text text-anchor="middle" x="67.36" y="-7" font-family="Helvetica,sans-Serif" font-size="10.00">sdkconfig.h</text>
</a>
</g>
</g>
<!-- Node1&#45;&gt;Node2 -->
<g id="edge1_Node000001_Node000002" class="edge">
<title>Node1&#45;&gt;Node2</title>
<g id="a_edge1_Node000001_Node000002"><a xlink:title=" ">
<path fill="none" stroke="#63b8ff" d="M48.25,-109.8C30.98,-102.12 13.32,-90.68 3.36,-74 -8.73,-53.78 15.51,-35.39 37.55,-23.66"/>
<polygon fill="#63b8ff" stroke="#63b8ff" points="39.37,-26.67 46.74,-19.06 36.23,-20.41 39.37,-26.67"/>
</a>
</g>
</g>
<!-- Node3 -->
<g id="Node000003" class="node">
<title>Node3</title>
<g id="a_Node000003"><a xlink:title=" ">
<polygon fill="#e0e0e0" stroke="#999999" points="75.86,-74 12.86,-74 12.86,-55 75.86,-55 75.86,-74"/>
<text text-anchor="middle" x="44.36" y="-62" font-family="Helvetica,sans-Serif" font-size="10.00">esp_log.h</text>
</a>
</g>
</g>
<!-- Node1&#45;&gt;Node3 -->
<g id="edge2_Node000001_Node000003" class="edge">
<title>Node1&#45;&gt;Node3</title>
<g id="a_edge2_Node000001_Node000003"><a xlink:title=" ">
<path fill="none" stroke="#63b8ff" d="M83.77,-109.84C76.3,-101.43 66.79,-90.74 58.99,-81.96"/>
<polygon fill="#63b8ff" stroke="#63b8ff" points="61.41,-79.41 52.15,-74.27 56.17,-84.07 61.41,-79.41"/>
</a>
</g>
</g>
<!-- Node4 -->
<g id="Node000004" class="node">
<title>Node4</title>
<g id="a_Node000004"><a xlink:href="PinCapabilities_8hpp.html" target="_top" xlink:title="The genetic blueprint and hardware validation logic of the organism.">
<polygon fill="white" stroke="#666666" points="204.36,-74 94.36,-74 94.36,-55 204.36,-55 204.36,-74"/>
<text text-anchor="middle" x="149.36" y="-62" font-family="Helvetica,sans-Serif" font-size="10.00">PinCapabilities.hpp</text>
</a>
</g>
</g>
<!-- Node1&#45;&gt;Node4 -->
<g id="edge3_Node000001_Node000004" class="edge">
<title>Node1&#45;&gt;Node4</title>
<g id="a_edge3_Node000001_Node000004"><a xlink:title=" ">
<path fill="none" stroke="#63b8ff" d="M109.19,-109.84C116.88,-101.35 126.69,-90.52 134.69,-81.69"/>
<polygon fill="#63b8ff" stroke="#63b8ff" points="137.29,-84.03 141.41,-74.27 132.11,-79.33 137.29,-84.03"/>
</a>
</g>
</g>
<!-- Node5 -->
<g id="Node000005" class="node">
<title>Node5</title>
<g id="a_Node000005"><a xlink:href="PinRoles_8hpp.html" target="_top" xlink:title="The functional assignment matrix and behavioral constraints.">
<polygon fill="white" stroke="#666666" points="302.36,-74 222.36,-74 222.36,-55 302.36,-55 302.36,-74"/>
<text text-anchor="middle" x="262.36" y="-62" font-family="Helvetica,sans-Serif" font-size="10.00">PinRoles.hpp</text>
</a>
</g>
</g>
<!-- Node1&#45;&gt;Node5 -->
<g id="edge5_Node000001_Node000005" class="edge">
<title>Node1&#45;&gt;Node5</title>
<g id="a_edge5_Node000001_Node000005"><a xlink:title=" ">
<path fill="none" stroke="#63b8ff" d="M136.12,-109.99C164.18,-100.1 201.4,-86.98 228.15,-77.56"/>
<polygon fill="#63b8ff" stroke="#63b8ff" points="229.57,-80.76 237.84,-74.14 227.25,-74.16 229.57,-80.76"/>
</a>
</g>
</g>
<!-- Node4&#45;&gt;Node2 -->
<g id="edge4_Node000004_Node000002" class="edge">
<title>Node4&#45;&gt;Node2</title>
<g id="a_edge4_Node000004_Node000002"><a xlink:title=" ">
<path fill="none" stroke="#63b8ff" d="M136.18,-54.98C123.58,-46.84 104.35,-34.41 89.42,-24.76"/>
<polygon fill="#63b8ff" stroke="#63b8ff" points="91.07,-21.66 80.77,-19.17 87.27,-27.54 91.07,-21.66"/>
</a>
</g>
</g>
<!-- Node6 -->
<g id="Node000006" class="node">
<title>Node6</title>
<g id="a_Node000006"><a xlink:title=" ">
<polygon fill="#e0e0e0" stroke="#999999" points="287.36,-19 237.36,-19 237.36,0 287.36,0 287.36,-19"/>
<text text-anchor="middle" x="262.36" y="-7" font-family="Helvetica,sans-Serif" font-size="10.00">cstdint</text>
</a>
</g>
</g>
<!-- Node5&#45;&gt;Node6 -->
<g id="edge6_Node000005_Node000006" class="edge">
<title>Node5&#45;&gt;Node6</title>
<g id="a_edge6_Node000005_Node000006"><a xlink:title=" ">
<path fill="none" stroke="#63b8ff" d="M262.36,-54.75C262.36,-47.8 262.36,-37.85 262.36,-29.13"/>
<polygon fill="#63b8ff" stroke="#63b8ff" points="265.86,-29.09 262.36,-19.09 258.86,-29.09 265.86,-29.09"/>
</a>
</g>
</g>
</g>
</svg>
</svg>

<style type='text/css'>
<![CDATA[
[data-mouse-over-selected='false'] { opacity: 0.7; }
[data-mouse-over-selected='true']  { opacity: 1.0; }
]]>
</style>
<script type="application/ecmascript"><![CDATA[
document.addEventListener('DOMContentLoaded', (event) => {
  highlightEdges();
  highlightAdjacentNodes();
});
]]></script>
</svg>
