<?xml version="1.0" encoding="UTF-8" standalone="no"?>
<!DOCTYPE svg PUBLIC "-//W3C//DTD SVG 1.1//EN"
 "http://www.w3.org/Graphics/SVG/1.1/DTD/svg11.dtd">
<!-- Generated by graphviz version 2.43.0 (0)
 -->
<!-- Title: components/topology/include/PinRoles.hpp Pages: 1 -->
<svg width="558pt" height="170pt"
 viewBox="0.00 0.00 557.50 170.00" xmlns="http://www.w3.org/2000/svg" xmlns:xlink="http://www.w3.org/1999/xlink">
<g id="graph0" class="graph" transform="scale(1 1) rotate(0) translate(4 166)">
<title>components/topology/include/PinRoles.hpp</title>
<!-- Node1 -->
<g id="Node000001" class="node">
<title>Node1</title>
<g id="a_Node000001"><a xlink:title="The functional assignment matrix and behavioral constraints.">
<polygon fill="#999999" stroke="#666666" points="320,-162 198,-162 198,-132 320,-132 320,-162"/>
<text text-anchor="start" x="206" y="-150" font-family="Helvetica,sans-Serif" font-size="10.00">components/topology</text>
<text text-anchor="middle" x="259" y="-139" font-family="Helvetica,sans-Serif" font-size="10.00">/include/PinRoles.hpp</text>
</a>
</g>
</g>
<!-- Node2 -->
<g id="Node000002" class="node">
<title>Node2</title>
<g id="a_Node000002"><a xlink:href="PinMap_8hpp.html" target="_top" xlink:title="The anatomical map and spatial registry of the organism.">
<polygon fill="white" stroke="#666666" points="276,-96 154,-96 154,-66 276,-66 276,-96"/>
<text text-anchor="start" x="162" y="-84" font-family="Helvetica,sans-Serif" font-size="10.00">components/topology</text>
<text text-anchor="middle" x="215" y="-73" font-family="Helvetica,sans-Serif" font-size="10.00">/include/PinMap.hpp</text>
</a>
</g>
</g>
<!-- Node1&#45;&gt;Node2 -->
<g id="edge1_Node000001_Node000002" class="edge">
<title>Node1&#45;&gt;Node2</title>
<g id="a_edge1_Node000001_Node000002"><a xlink:title=" ">
<path fill="none" stroke="#63b8ff" d="M243.55,-123.53C237.29,-114.43 230.26,-104.19 224.74,-96.16"/>
<polygon fill="#63b8ff" stroke="#63b8ff" points="240.69,-125.54 249.23,-131.8 246.45,-121.57 240.69,-125.54"/>
</a>
</g>
</g>
<!-- Node3 -->
<g id="Node000003" class="node">
<title>Node3</title>
<g id="a_Node000003"><a xlink:href="BusManager_8cpp.html" target="_top" xlink:title=" ">
<polygon fill="white" stroke="#666666" points="134,-30 0,-30 0,0 134,0 134,-30"/>
<text text-anchor="start" x="8" y="-18" font-family="Helvetica,sans-Serif" font-size="10.00">main/ceo/managers/bus</text>
<text text-anchor="middle" x="67" y="-7" font-family="Helvetica,sans-Serif" font-size="10.00">/BusManager.cpp</text>
</a>
</g>
</g>
<!-- Node1&#45;&gt;Node3 -->
<g id="edge5_Node000001_Node000003" class="edge">
<title>Node1&#45;&gt;Node3</title>
<g id="a_edge5_Node000001_Node000003"><a xlink:title=" ">
<path fill="none" stroke="#63b8ff" d="M207.45,-128.29C187.07,-120.07 164.02,-109.17 145,-96 117.57,-77 91.79,-47.42 77.82,-30.05"/>
<polygon fill="#63b8ff" stroke="#63b8ff" points="206.31,-131.61 216.9,-132 208.87,-125.09 206.31,-131.61"/>
</a>
</g>
</g>
<!-- Node4 -->
<g id="Node000004" class="node">
<title>Node4</title>
<g id="a_Node000004"><a xlink:href="PinManager_8cpp.html" target="_top" xlink:title=" ">
<polygon fill="white" stroke="#666666" points="426.5,-30 295.5,-30 295.5,0 426.5,0 426.5,-30"/>
<text text-anchor="start" x="303.5" y="-18" font-family="Helvetica,sans-Serif" font-size="10.00">main/ceo/managers/pin</text>
<text text-anchor="middle" x="361" y="-7" font-family="Helvetica,sans-Serif" font-size="10.00">/PinManager.cpp</text>
</a>
</g>
</g>
<!-- Node1&#45;&gt;Node4 -->
<g id="edge6_Node000001_Node000004" class="edge">
<title>Node1&#45;&gt;Node4</title>
<g id="a_edge6_Node000001_Node000004"><a xlink:title=" ">
<path fill="none" stroke="#63b8ff" d="M276.42,-123.8C297.45,-96.99 332.21,-52.7 349.9,-30.14"/>
<polygon fill="#63b8ff" stroke="#63b8ff" points="273.53,-121.81 270.11,-131.84 279.04,-126.13 273.53,-121.81"/>
</a>
</g>
</g>
<!-- Node6 -->
<g id="Node000006" class="node">
<title>Node6</title>
<g id="a_Node000006"><a xlink:href="PinManager_8hpp.html" target="_top" xlink:title="The physical nerve endings (motor neurons) of the organism.">
<polygon fill="white" stroke="#666666" points="468,-96 332,-96 332,-66 468,-66 468,-96"/>
<text text-anchor="start" x="340" y="-84" font-family="Helvetica,sans-Serif" font-size="10.00">main/ceo/managers/pin</text>
<text text-anchor="middle" x="400" y="-73" font-family="Helvetica,sans-Serif" font-size="10.00">/include/PinManager.hpp</text>
</a>
</g>
</g>
<!-- Node1&#45;&gt;Node6 -->
<g id="edge7_Node000001_Node000006" class="edge">
<title>Node1&#45;&gt;Node6</title>
<g id="a_edge7_Node000001_Node000006"><a xlink:title=" ">
<path fill="none" stroke="#63b8ff" d="M299.13,-127.78C321.36,-117.69 348.57,-105.34 369.13,-96.01"/>
<polygon fill="#63b8ff" stroke="#63b8ff" points="297.6,-124.63 289.94,-131.95 300.5,-131.01 297.6,-124.63"/>
</a>
</g>
</g>
<!-- Node2&#45;&gt;Node3 -->
<g id="edge2_Node000002_Node000003" class="edge">
<title>Node2&#45;&gt;Node3</title>
<g id="a_edge2_Node000002_Node000003"><a xlink:title=" ">
<path fill="none" stroke="#63b8ff" d="M173.19,-61.92C149.8,-51.8 121.08,-39.38 99.4,-30.01"/>
<polygon fill="#63b8ff" stroke="#63b8ff" points="171.95,-65.2 182.52,-65.95 174.73,-58.77 171.95,-65.2"/>
</a>
</g>
</g>
<!-- Node2&#45;&gt;Node4 -->
<g id="edge3_Node000002_Node000004" class="edge">
<title>Node2&#45;&gt;Node4</title>
<g id="a_edge3_Node000002_Node000004"><a xlink:title=" ">
<path fill="none" stroke="#63b8ff" d="M256.25,-61.92C279.32,-51.8 307.66,-39.38 329.03,-30.01"/>
<polygon fill="#63b8ff" stroke="#63b8ff" points="254.79,-58.73 247.04,-65.95 257.6,-65.15 254.79,-58.73"/>
</a>
</g>
</g>
<!-- Node5 -->
<g id="Node000005" class="node">
<title>Node5</title>
<g id="a_Node000005"><a xlink:href="ToolBox_8cpp.html" target="_top" xlink:title=" ">
<polygon fill="white" stroke="#666666" points="277.5,-24.5 152.5,-24.5 152.5,-5.5 277.5,-5.5 277.5,-24.5"/>
<text text-anchor="middle" x="215" y="-12.5" font-family="Helvetica,sans-Serif" font-size="10.00">main/tool/ToolBox.cpp</text>
</a>
</g>
</g>
<!-- Node2&#45;&gt;Node5 -->
<g id="edge4_Node000002_Node000005" class="edge">
<title>Node2&#45;&gt;Node5</title>
<g id="a_edge4_Node000002_Node000005"><a xlink:title=" ">
<path fill="none" stroke="#63b8ff" d="M215,-55.6C215,-44.8 215,-32.78 215,-24.84"/>
<polygon fill="#63b8ff" stroke="#63b8ff" points="211.5,-55.8 215,-65.8 218.5,-55.8 211.5,-55.8"/>
</a>
</g>
</g>
<!-- Node6&#45;&gt;Node4 -->
<g id="edge9_Node000006_Node000004" class="edge">
<title>Node6&#45;&gt;Node4</title>
<g id="a_edge9_Node000006_Node000004"><a xlink:title=" ">
<path fill="none" stroke="#63b8ff" d="M386.13,-57.24C380.63,-48.21 374.47,-38.11 369.63,-30.16"/>
<polygon fill="#63b8ff" stroke="#63b8ff" points="383.15,-59.08 391.34,-65.8 389.13,-55.44 383.15,-59.08"/>
</a>
</g>
</g>
<!-- Node7 -->
<g id="Node000007" class="node">
<title>Node7</title>
<g id="a_Node000007"><a xlink:href="CEO_8cpp.html" target="_top" xlink:title=" ">
<polygon fill="white" stroke="#666666" points="549.5,-24.5 444.5,-24.5 444.5,-5.5 549.5,-5.5 549.5,-24.5"/>
<text text-anchor="middle" x="497" y="-12.5" font-family="Helvetica,sans-Serif" font-size="10.00">main/ceo/CEO.cpp</text>
</a>
</g>
</g>
<!-- Node6&#45;&gt;Node7 -->
<g id="edge8_Node000006_Node000007" class="edge">
<title>Node6&#45;&gt;Node7</title>
<g id="a_edge8_Node000006_Node000007"><a xlink:title=" ">
<path fill="none" stroke="#63b8ff" d="M430.01,-60.2C448.06,-48.29 470.13,-33.73 483.88,-24.66"/>
<polygon fill="#63b8ff" stroke="#63b8ff" points="427.95,-57.37 421.53,-65.8 431.8,-63.21 427.95,-57.37"/>
</a>
</g>
</g>
</g>
</svg>
