<?xml version="1.0" encoding="UTF-8" standalone="no"?>
<!DOCTYPE svg PUBLIC "-//W3C//DTD SVG 1.1//EN"
 "http://www.w3.org/Graphics/SVG/1.1/DTD/svg11.dtd">
<!-- Generated by graphviz version 2.43.0 (0)
 -->
<!-- Title: main/ceo/managers/sensor/include/SensorManager.hpp Pages: 1 -->
<svg width="1373pt" height="313pt"
 viewBox="0.00 0.00 1372.73 313.00" xmlns="http://www.w3.org/2000/svg" xmlns:xlink="http://www.w3.org/1999/xlink">
<g id="graph0" class="graph" transform="scale(1 1) rotate(0) translate(4 309)">
<title>main/ceo/managers/sensor/include/SensorManager.hpp</title>
<!-- Node1 -->
<g id="Node000001" class="node">
<title>Node1</title>
<g id="a_Node000001"><a xlink:title="The sensory cortex (afferent system) of the organism.">
<polygon fill="#999999" stroke="#666666" points="369.73,-305 215.73,-305 215.73,-275 369.73,-275 369.73,-305"/>
<text text-anchor="start" x="223.73" y="-293" font-family="Helvetica,sans-Serif" font-size="10.00">main/ceo/managers/sensor</text>
<text text-anchor="middle" x="292.73" y="-282" font-family="Helvetica,sans-Serif" font-size="10.00">/include/SensorManager.hpp</text>
</a>
</g>
</g>
<!-- Node2 -->
<g id="Node000002" class="node">
<title>Node2</title>
<g id="a_Node000002"><a xlink:title=" ">
<polygon fill="#e0e0e0" stroke="#999999" points="570.23,-19 517.23,-19 517.23,0 570.23,0 570.23,-19"/>
<text text-anchor="middle" x="543.73" y="-7" font-family="Helvetica,sans-Serif" font-size="10.00">stdint.h</text>
</a>
</g>
</g>
<!-- Node1&#45;&gt;Node2 -->
<g id="edge1_Node000001_Node000002" class="edge">
<title>Node1&#45;&gt;Node2</title>
<g id="a_edge1_Node000001_Node000002"><a xlink:title=" ">
<path fill="none" stroke="#63b8ff" d="M287.53,-274.78C273.87,-234.72 241.72,-119.68 296.73,-55 323.35,-23.7 444.8,-14.37 506.91,-11.62"/>
<polygon fill="#63b8ff" stroke="#63b8ff" points="507.22,-15.11 517.07,-11.21 506.93,-8.12 507.22,-15.11"/>
</a>
</g>
</g>
<!-- Node3 -->
<g id="Node000003" class="node">
<title>Node3</title>
<g id="a_Node000003"><a xlink:title=" ">
<polygon fill="#e0e0e0" stroke="#999999" points="84.73,-239 28.73,-239 28.73,-220 84.73,-220 84.73,-239"/>
<text text-anchor="middle" x="56.73" y="-227" font-family="Helvetica,sans-Serif" font-size="10.00">stddef.h</text>
</a>
</g>
</g>
<!-- Node1&#45;&gt;Node3 -->
<g id="edge2_Node000001_Node000003" class="edge">
<title>Node1&#45;&gt;Node3</title>
<g id="a_edge2_Node000001_Node000003"><a xlink:title=" ">
<path fill="none" stroke="#63b8ff" d="M236.21,-274.99C192.39,-264.13 132.9,-249.38 94.65,-239.9"/>
<polygon fill="#63b8ff" stroke="#63b8ff" points="95.48,-236.5 84.93,-237.49 93.8,-243.29 95.48,-236.5"/>
</a>
</g>
</g>
<!-- Node4 -->
<g id="Node000004" class="node">
<title>Node4</title>
<g id="a_Node000004"><a xlink:title=" ">
<polygon fill="#e0e0e0" stroke="#999999" points="150.23,-239 103.23,-239 103.23,-220 150.23,-220 150.23,-239"/>
<text text-anchor="middle" x="126.73" y="-227" font-family="Helvetica,sans-Serif" font-size="10.00">vector</text>
</a>
</g>
</g>
<!-- Node1&#45;&gt;Node4 -->
<g id="edge3_Node000001_Node000004" class="edge">
<title>Node1&#45;&gt;Node4</title>
<g id="a_edge3_Node000001_Node000004"><a xlink:title=" ">
<path fill="none" stroke="#63b8ff" d="M252.97,-274.99C224.57,-264.98 186.78,-251.66 159.98,-242.21"/>
<polygon fill="#63b8ff" stroke="#63b8ff" points="160.88,-238.82 150.28,-238.8 158.55,-245.42 160.88,-238.82"/>
</a>
</g>
</g>
<!-- Node5 -->
<g id="Node000005" class="node">
<title>Node5</title>
<g id="a_Node000005"><a xlink:title=" ">
<polygon fill="#e0e0e0" stroke="#999999" points="226.73,-239 168.73,-239 168.73,-220 226.73,-220 226.73,-239"/>
<text text-anchor="middle" x="197.73" y="-227" font-family="Helvetica,sans-Serif" font-size="10.00">memory</text>
</a>
</g>
</g>
<!-- Node1&#45;&gt;Node5 -->
<g id="edge4_Node000001_Node000005" class="edge">
<title>Node1&#45;&gt;Node5</title>
<g id="a_edge4_Node000001_Node000005"><a xlink:title=" ">
<path fill="none" stroke="#63b8ff" d="M269.74,-274.84C254.73,-265.6 235.23,-253.59 220.31,-244.4"/>
<polygon fill="#63b8ff" stroke="#63b8ff" points="222.04,-241.36 211.69,-239.09 218.37,-247.32 222.04,-241.36"/>
</a>
</g>
</g>
<!-- Node6 -->
<g id="Node000006" class="node">
<title>Node6</title>
<g id="a_Node000006"><a xlink:title=" ">
<polygon fill="#e0e0e0" stroke="#999999" points="382.23,-74 321.23,-74 321.23,-55 382.23,-55 382.23,-74"/>
<text text-anchor="middle" x="351.73" y="-62" font-family="Helvetica,sans-Serif" font-size="10.00">esp_err.h</text>
</a>
</g>
</g>
<!-- Node1&#45;&gt;Node6 -->
<g id="edge5_Node000001_Node000006" class="edge">
<title>Node1&#45;&gt;Node6</title>
<g id="a_edge5_Node000001_Node000006"><a xlink:title=" ">
<path fill="none" stroke="#63b8ff" d="M296.52,-274.68C306.81,-235.68 335.34,-127.61 346.84,-84.05"/>
<polygon fill="#63b8ff" stroke="#63b8ff" points="350.26,-84.79 349.43,-74.23 343.49,-83.01 350.26,-84.79"/>
</a>
</g>
</g>
<!-- Node7 -->
<g id="Node000007" class="node">
<title>Node7</title>
<g id="a_Node000007"><a xlink:title=" ">
<polygon fill="#e0e0e0" stroke="#999999" points="994.23,-19 881.23,-19 881.23,0 994.23,0 994.23,-19"/>
<text text-anchor="middle" x="937.73" y="-7" font-family="Helvetica,sans-Serif" font-size="10.00">freertos/FreeRTOS.h</text>
</a>
</g>
</g>
<!-- Node1&#45;&gt;Node7 -->
<g id="edge6_Node000001_Node000007" class="edge">
<title>Node1&#45;&gt;Node7</title>
<g id="a_edge6_Node000001_Node000007"><a xlink:title=" ">
<path fill="none" stroke="#63b8ff" d="M369.88,-287.67C593.42,-282.81 1225.73,-261.47 1225.73,-175.5 1225.73,-175.5 1225.73,-175.5 1225.73,-118.5 1225.73,-89.04 1228.84,-74.47 1206.73,-55 1191.72,-41.78 1079.24,-26.61 1004.56,-17.84"/>
<polygon fill="#63b8ff" stroke="#63b8ff" points="1004.62,-14.32 994.28,-16.64 1003.81,-21.28 1004.62,-14.32"/>
</a>
</g>
</g>
<!-- Node8 -->
<g id="Node000008" class="node">
<title>Node8</title>
<g id="a_Node000008"><a xlink:title=" ">
<polygon fill="#e0e0e0" stroke="#999999" points="408.73,-239 320.73,-239 320.73,-220 408.73,-220 408.73,-239"/>
<text text-anchor="middle" x="364.73" y="-227" font-family="Helvetica,sans-Serif" font-size="10.00">freertos/task.h</text>
</a>
</g>
</g>
<!-- Node1&#45;&gt;Node8 -->
<g id="edge7_Node000001_Node000008" class="edge">
<title>Node1&#45;&gt;Node8</title>
<g id="a_edge7_Node000001_Node000008"><a xlink:title=" ">
<path fill="none" stroke="#63b8ff" d="M310.16,-274.84C321.04,-266 335.04,-254.63 346.13,-245.62"/>
<polygon fill="#63b8ff" stroke="#63b8ff" points="348.39,-248.29 353.95,-239.27 343.98,-242.86 348.39,-248.29"/>
</a>
</g>
</g>
<!-- Node9 -->
<g id="Node000009" class="node">
<title>Node9</title>
<g id="a_Node000009"><a xlink:href="IManager_8hpp.html" target="_top" xlink:title="The abstract behavioral contract for all managers.">
<polygon fill="white" stroke="#666666" points="296.23,-19 213.23,-19 213.23,0 296.23,0 296.23,-19"/>
<text text-anchor="middle" x="254.73" y="-7" font-family="Helvetica,sans-Serif" font-size="10.00">IManager.hpp</text>
</a>
</g>
</g>
<!-- Node1&#45;&gt;Node9 -->
<g id="edge8_Node000001_Node000009" class="edge">
<title>Node1&#45;&gt;Node9</title>
<g id="a_edge8_Node000001_Node000009"><a xlink:title=" ">
<path fill="none" stroke="#63b8ff" d="M215.47,-283.77C145.12,-277.45 48.04,-264.36 19.73,-239 -2.2,-219.34 0.73,-204.96 0.73,-175.5 0.73,-175.5 0.73,-175.5 0.73,-118.5 0.73,-31.43 128.7,-13.55 202.97,-10.51"/>
<polygon fill="#63b8ff" stroke="#63b8ff" points="203.2,-14 213.08,-10.17 202.97,-7.01 203.2,-14"/>
</a>
</g>
</g>
<!-- Node10 -->
<g id="Node000010" class="node">
<title>Node10</title>
<g id="a_Node000010"><a xlink:href="ISensor_8hpp.html" target="_top" xlink:title="The abstract behavioral contract for all sensory organs (receptors).">
<polygon fill="white" stroke="#666666" points="500.23,-239 427.23,-239 427.23,-220 500.23,-220 500.23,-239"/>
<text text-anchor="middle" x="463.73" y="-227" font-family="Helvetica,sans-Serif" font-size="10.00">ISensor.hpp</text>
</a>
</g>
</g>
<!-- Node1&#45;&gt;Node10 -->
<g id="edge9_Node000001_Node000010" class="edge">
<title>Node1&#45;&gt;Node10</title>
<g id="a_edge9_Node000001_Node000010"><a xlink:title=" ">
<path fill="none" stroke="#63b8ff" d="M333.69,-274.99C362.73,-265.05 401.28,-251.86 428.86,-242.43"/>
<polygon fill="#63b8ff" stroke="#63b8ff" points="430.15,-245.69 438.48,-239.14 427.89,-239.06 430.15,-245.69"/>
</a>
</g>
</g>
<!-- Node12 -->
<g id="Node000012" class="node">
<title>Node12</title>
<g id="a_Node000012"><a xlink:href="DataManager_8hpp.html" target="_top" xlink:title="The collective consciousness and unified system state mirror.">
<polygon fill="white" stroke="#666666" points="1197.23,-74 1094.23,-74 1094.23,-55 1197.23,-55 1197.23,-74"/>
<text text-anchor="middle" x="1145.73" y="-62" font-family="Helvetica,sans-Serif" font-size="10.00">DataManager.hpp</text>
</a>
</g>
</g>
<!-- Node1&#45;&gt;Node12 -->
<g id="edge51_Node000001_Node000012" class="edge">
<title>Node1&#45;&gt;Node12</title>
<g id="a_edge51_Node000001_Node000012"><a xlink:title=" ">
<path fill="none" stroke="#63b8ff" d="M369.81,-280.27C489.53,-265.8 726.9,-233.44 923.73,-184 997.48,-165.48 1021.74,-170.06 1085.73,-129 1105,-116.64 1122.41,-96.78 1133.45,-82.56"/>
<polygon fill="#63b8ff" stroke="#63b8ff" points="1136.54,-84.27 1139.74,-74.17 1130.94,-80.07 1136.54,-84.27"/>
</a>
</g>
</g>
<!-- Node19 -->
<g id="Node000019" class="node">
<title>Node19</title>
<g id="a_Node000019"><a xlink:href="BusManager_8hpp.html" target="_top" xlink:title="The peripheral nervous system managing all communication pathways.">
<polygon fill="white" stroke="#666666" points="713.73,-184 615.73,-184 615.73,-165 713.73,-165 713.73,-184"/>
<text text-anchor="middle" x="664.73" y="-172" font-family="Helvetica,sans-Serif" font-size="10.00">BusManager.hpp</text>
</a>
</g>
</g>
<!-- Node1&#45;&gt;Node19 -->
<g id="edge52_Node000001_Node000019" class="edge">
<title>Node1&#45;&gt;Node19</title>
<g id="a_edge52_Node000001_Node000019"><a xlink:title=" ">
<path fill="none" stroke="#63b8ff" d="M366.5,-274.96C408.61,-266.19 462.14,-253.77 508.73,-239 554.76,-224.41 606.32,-202.22 637.12,-188.31"/>
<polygon fill="#63b8ff" stroke="#63b8ff" points="638.71,-191.43 646.36,-184.1 635.81,-185.06 638.71,-191.43"/>
</a>
</g>
</g>
<!-- Node10&#45;&gt;Node2 -->
<g id="edge10_Node000010_Node000002" class="edge">
<title>Node10&#45;&gt;Node2</title>
<g id="a_edge10_Node000010_Node000002"><a xlink:title=" ">
<path fill="none" stroke="#63b8ff" d="M436.03,-219.97C416.49,-212.84 390.71,-201.08 372.73,-184 326.75,-140.32 271.33,-103.89 311.73,-55 336.07,-25.55 447.87,-15.4 506.93,-12.05"/>
<polygon fill="#63b8ff" stroke="#63b8ff" points="507.17,-15.54 516.97,-11.52 506.8,-8.55 507.17,-15.54"/>
</a>
</g>
</g>
<!-- Node10&#45;&gt;Node6 -->
<g id="edge12_Node000010_Node000006" class="edge">
<title>Node10&#45;&gt;Node6</title>
<g id="a_edge12_Node000010_Node000006"><a xlink:title=" ">
<path fill="none" stroke="#63b8ff" d="M439.59,-219.87C422.79,-212.71 401.09,-200.92 387.73,-184 364.29,-154.29 356.07,-109.4 353.22,-84.26"/>
<polygon fill="#63b8ff" stroke="#63b8ff" points="356.69,-83.85 352.25,-74.23 349.72,-84.52 356.69,-83.85"/>
</a>
</g>
</g>
<!-- Node11 -->
<g id="Node000011" class="node">
<title>Node11</title>
<g id="a_Node000011"><a xlink:title=" ">
<polygon fill="#e0e0e0" stroke="#999999" points="452.23,-184 397.23,-184 397.23,-165 452.23,-165 452.23,-184"/>
<text text-anchor="middle" x="424.73" y="-172" font-family="Helvetica,sans-Serif" font-size="10.00">cJSON.h</text>
</a>
</g>
</g>
<!-- Node10&#45;&gt;Node11 -->
<g id="edge11_Node000010_Node000011" class="edge">
<title>Node10&#45;&gt;Node11</title>
<g id="a_edge11_Node000010_Node000011"><a xlink:title=" ">
<path fill="none" stroke="#63b8ff" d="M457.29,-219.75C451.84,-212.34 443.87,-201.5 437.18,-192.41"/>
<polygon fill="#63b8ff" stroke="#63b8ff" points="439.8,-190.07 431.06,-184.09 434.16,-194.22 439.8,-190.07"/>
</a>
</g>
</g>
<!-- Node10&#45;&gt;Node12 -->
<g id="edge13_Node000010_Node000012" class="edge">
<title>Node10&#45;&gt;Node12</title>
<g id="a_edge13_Node000010_Node000012"><a xlink:title=" ">
<path fill="none" stroke="#63b8ff" d="M500.55,-227.86C595.82,-225.03 856.81,-209.9 1054.73,-129 1083.24,-117.35 1111.63,-95.49 1128.93,-80.72"/>
<polygon fill="#63b8ff" stroke="#63b8ff" points="1131.26,-83.32 1136.48,-74.11 1126.65,-78.06 1131.26,-83.32"/>
</a>
</g>
</g>
<!-- Node18 -->
<g id="Node000018" class="node">
<title>Node18</title>
<g id="a_Node000018"><a xlink:title=" ">
<polygon fill="#e0e0e0" stroke="#999999" points="597.23,-184 470.23,-184 470.23,-165 597.23,-165 597.23,-184"/>
<text text-anchor="middle" x="533.73" y="-172" font-family="Helvetica,sans-Serif" font-size="10.00">SystemDefinitions.hpp</text>
</a>
</g>
</g>
<!-- Node10&#45;&gt;Node18 -->
<g id="edge22_Node000010_Node000018" class="edge">
<title>Node10&#45;&gt;Node18</title>
<g id="a_edge22_Node000010_Node000018"><a xlink:title=" ">
<path fill="none" stroke="#63b8ff" d="M474.98,-219.98C485.53,-212 501.54,-199.88 514.18,-190.31"/>
<polygon fill="#63b8ff" stroke="#63b8ff" points="516.42,-193 522.28,-184.17 512.2,-187.42 516.42,-193"/>
</a>
</g>
</g>
<!-- Node10&#45;&gt;Node19 -->
<g id="edge23_Node000010_Node000019" class="edge">
<title>Node10&#45;&gt;Node19</title>
<g id="a_edge23_Node000010_Node000019"><a xlink:title=" ">
<path fill="none" stroke="#63b8ff" d="M496.03,-219.98C530.36,-210.93 584.79,-196.58 622.5,-186.64"/>
<polygon fill="#63b8ff" stroke="#63b8ff" points="623.41,-190.02 632.19,-184.08 621.63,-183.25 623.41,-190.02"/>
</a>
</g>
</g>
<!-- Node12&#45;&gt;Node2 -->
<g id="edge14_Node000012_Node000002" class="edge">
<title>Node12&#45;&gt;Node2</title>
<g id="a_edge14_Node000012_Node000002"><a xlink:title=" ">
<path fill="none" stroke="#63b8ff" d="M1094.18,-56.11C1090.98,-55.71 1087.82,-55.34 1084.73,-55 1034.94,-49.49 694.61,-22.43 580.75,-13.42"/>
<polygon fill="#63b8ff" stroke="#63b8ff" points="580.7,-9.91 570.46,-12.61 580.15,-16.89 580.7,-9.91"/>
</a>
</g>
</g>
<!-- Node12&#45;&gt;Node7 -->
<g id="edge17_Node000012_Node000007" class="edge">
<title>Node12&#45;&gt;Node7</title>
<g id="a_edge17_Node000012_Node000007"><a xlink:title=" ">
<path fill="none" stroke="#63b8ff" d="M1112.32,-54.98C1076.79,-45.93 1020.46,-31.58 981.44,-21.64"/>
<polygon fill="#63b8ff" stroke="#63b8ff" points="981.97,-18.16 971.42,-19.08 980.24,-24.94 981.97,-18.16"/>
</a>
</g>
</g>
<!-- Node12&#45;&gt;Node9 -->
<g id="edge21_Node000012_Node000009" class="edge">
<title>Node12&#45;&gt;Node9</title>
<g id="a_edge21_Node000012_Node000009"><a xlink:title=" ">
<path fill="none" stroke="#63b8ff" d="M1094.19,-56C1090.99,-55.64 1087.82,-55.3 1084.73,-55 932.56,-40.35 463.71,-19.47 306.63,-12.7"/>
<polygon fill="#63b8ff" stroke="#63b8ff" points="306.45,-9.19 296.31,-12.26 306.15,-16.19 306.45,-9.19"/>
</a>
</g>
</g>
<!-- Node13 -->
<g id="Node000013" class="node">
<title>Node13</title>
<g id="a_Node000013"><a xlink:title=" ">
<polygon fill="#e0e0e0" stroke="#999999" points="1159.23,-19 1106.23,-19 1106.23,0 1159.23,0 1159.23,-19"/>
<text text-anchor="middle" x="1132.73" y="-7" font-family="Helvetica,sans-Serif" font-size="10.00">string.h</text>
</a>
</g>
</g>
<!-- Node12&#45;&gt;Node13 -->
<g id="edge15_Node000012_Node000013" class="edge">
<title>Node12&#45;&gt;Node13</title>
<g id="a_edge15_Node000012_Node000013"><a xlink:title=" ">
<path fill="none" stroke="#63b8ff" d="M1143.59,-54.75C1141.87,-47.72 1139.39,-37.62 1137.23,-28.84"/>
<polygon fill="#63b8ff" stroke="#63b8ff" points="1140.62,-27.97 1134.84,-19.09 1133.82,-29.63 1140.62,-27.97"/>
</a>
</g>
</g>
<!-- Node14 -->
<g id="Node000014" class="node">
<title>Node14</title>
<g id="a_Node000014"><a xlink:title=" ">
<polygon fill="#e0e0e0" stroke="#999999" points="1246.23,-19 1177.23,-19 1177.23,0 1246.23,0 1246.23,-19"/>
<text text-anchor="middle" x="1211.73" y="-7" font-family="Helvetica,sans-Serif" font-size="10.00">type_traits</text>
</a>
</g>
</g>
<!-- Node12&#45;&gt;Node14 -->
<g id="edge16_Node000012_Node000014" class="edge">
<title>Node12&#45;&gt;Node14</title>
<g id="a_edge16_Node000012_Node000014"><a xlink:title=" ">
<path fill="none" stroke="#63b8ff" d="M1156.34,-54.98C1166.19,-47.07 1181.09,-35.11 1192.95,-25.58"/>
<polygon fill="#63b8ff" stroke="#63b8ff" points="1195.33,-28.16 1200.94,-19.17 1190.95,-22.7 1195.33,-28.16"/>
</a>
</g>
</g>
<!-- Node15 -->
<g id="Node000015" class="node">
<title>Node15</title>
<g id="a_Node000015"><a xlink:title=" ">
<polygon fill="#e0e0e0" stroke="#999999" points="767.23,-19 664.23,-19 664.23,0 767.23,0 767.23,-19"/>
<text text-anchor="middle" x="715.73" y="-7" font-family="Helvetica,sans-Serif" font-size="10.00">freertos/semphr.h</text>
</a>
</g>
</g>
<!-- Node12&#45;&gt;Node15 -->
<g id="edge18_Node000012_Node000015" class="edge">
<title>Node12&#45;&gt;Node15</title>
<g id="a_edge18_Node000012_Node000015"><a xlink:title=" ">
<path fill="none" stroke="#63b8ff" d="M1094.16,-56.25C1090.97,-55.82 1087.81,-55.4 1084.73,-55 976.72,-40.96 850.7,-26.09 777.4,-17.58"/>
<polygon fill="#63b8ff" stroke="#63b8ff" points="777.75,-14.1 767.41,-16.43 776.94,-21.06 777.75,-14.1"/>
</a>
</g>
</g>
<!-- Node16 -->
<g id="Node000016" class="node">
<title>Node16</title>
<g id="a_Node000016"><a xlink:title=" ">
<polygon fill="#e0e0e0" stroke="#999999" points="1364.73,-19 1264.73,-19 1264.73,0 1364.73,0 1364.73,-19"/>
<text text-anchor="middle" x="1314.73" y="-7" font-family="Helvetica,sans-Serif" font-size="10.00">esp_heap_caps.h</text>
</a>
</g>
</g>
<!-- Node12&#45;&gt;Node16 -->
<g id="edge19_Node000012_Node000016" class="edge">
<title>Node12&#45;&gt;Node16</title>
<g id="a_edge19_Node000012_Node000016"><a xlink:title=" ">
<path fill="none" stroke="#63b8ff" d="M1172.89,-54.98C1201.26,-46.09 1245.97,-32.07 1277.6,-22.15"/>
<polygon fill="#63b8ff" stroke="#63b8ff" points="1278.87,-25.41 1287.37,-19.08 1276.78,-18.73 1278.87,-25.41"/>
</a>
</g>
</g>
<!-- Node17 -->
<g id="Node000017" class="node">
<title>Node17</title>
<g id="a_Node000017"><a xlink:title=" ">
<polygon fill="#e0e0e0" stroke="#999999" points="1088.23,-19 1025.23,-19 1025.23,0 1088.23,0 1088.23,-19"/>
<text text-anchor="middle" x="1056.73" y="-7" font-family="Helvetica,sans-Serif" font-size="10.00">esp_log.h</text>
</a>
</g>
</g>
<!-- Node12&#45;&gt;Node17 -->
<g id="edge20_Node000012_Node000017" class="edge">
<title>Node12&#45;&gt;Node17</title>
<g id="a_edge20_Node000012_Node000017"><a xlink:title=" ">
<path fill="none" stroke="#63b8ff" d="M1131.44,-54.98C1117.63,-46.77 1096.49,-34.18 1080.22,-24.49"/>
<polygon fill="#63b8ff" stroke="#63b8ff" points="1081.68,-21.28 1071.29,-19.17 1078.1,-27.29 1081.68,-21.28"/>
</a>
</g>
</g>
<!-- Node19&#45;&gt;Node6 -->
<g id="edge24_Node000019_Node000006" class="edge">
<title>Node19&#45;&gt;Node6</title>
<g id="a_edge24_Node000019_Node000006"><a xlink:title=" ">
<path fill="none" stroke="#63b8ff" d="M615.73,-166.21C575.41,-159.31 517.23,-147.27 468.73,-129 433.76,-115.82 396.28,-93.96 373.42,-79.63"/>
<polygon fill="#63b8ff" stroke="#63b8ff" points="375.17,-76.6 364.85,-74.19 371.41,-82.5 375.17,-76.6"/>
</a>
</g>
</g>
<!-- Node19&#45;&gt;Node9 -->
<g id="edge28_Node000019_Node000009" class="edge">
<title>Node19&#45;&gt;Node9</title>
<g id="a_edge28_Node000019_Node000009"><a xlink:title=" ">
<path fill="none" stroke="#63b8ff" d="M615.61,-165.99C556.07,-156.62 459.4,-140.42 424.73,-129 371.68,-111.53 356.33,-107.63 311.73,-74 294.08,-60.68 277.63,-41.3 266.98,-27.46"/>
<polygon fill="#63b8ff" stroke="#63b8ff" points="269.66,-25.2 260.87,-19.28 264.06,-29.39 269.66,-25.2"/>
</a>
</g>
</g>
<!-- Node19&#45;&gt;Node12 -->
<g id="edge29_Node000019_Node000012" class="edge">
<title>Node19&#45;&gt;Node12</title>
<g id="a_edge29_Node000019_Node000012"><a xlink:title=" ">
<path fill="none" stroke="#63b8ff" d="M713.76,-172.47C782.93,-169.86 912.47,-160.75 1017.73,-129 1056.91,-117.18 1098.73,-94.24 1123.54,-79.41"/>
<polygon fill="#63b8ff" stroke="#63b8ff" points="1125.44,-82.34 1132.17,-74.16 1121.8,-76.36 1125.44,-82.34"/>
</a>
</g>
</g>
<!-- Node20 -->
<g id="Node000020" class="node">
<title>Node20</title>
<g id="a_Node000020"><a xlink:title=" ">
<polygon fill="#e0e0e0" stroke="#999999" points="988.23,-129 917.23,-129 917.23,-110 988.23,-110 988.23,-129"/>
<text text-anchor="middle" x="952.73" y="-117" font-family="Helvetica,sans-Serif" font-size="10.00">driver/i2c.h</text>
</a>
</g>
</g>
<!-- Node19&#45;&gt;Node20 -->
<g id="edge25_Node000019_Node000020" class="edge">
<title>Node19&#45;&gt;Node20</title>
<g id="a_edge25_Node000019_Node000020"><a xlink:title=" ">
<path fill="none" stroke="#63b8ff" d="M712.45,-164.95C759.54,-156.48 833.87,-143.01 907.31,-129.25"/>
<polygon fill="#63b8ff" stroke="#63b8ff" points="908.02,-132.68 917.2,-127.4 906.73,-125.8 908.02,-132.68"/>
</a>
</g>
</g>
<!-- Node21 -->
<g id="Node000021" class="node">
<title>Node21</title>
<g id="a_Node000021"><a xlink:title=" ">
<polygon fill="#e0e0e0" stroke="#999999" points="1075.73,-74 965.73,-74 965.73,-55 1075.73,-55 1075.73,-74"/>
<text text-anchor="middle" x="1020.73" y="-62" font-family="Helvetica,sans-Serif" font-size="10.00">driver/spi_master.h</text>
</a>
</g>
</g>
<!-- Node19&#45;&gt;Node21 -->
<g id="edge26_Node000019_Node000021" class="edge">
<title>Node19&#45;&gt;Node21</title>
<g id="a_edge26_Node000019_Node000021"><a xlink:title=" ">
<path fill="none" stroke="#63b8ff" d="M714.03,-173.02C795.89,-171.25 955.09,-163.35 997.73,-129 1011.14,-118.21 1016.73,-98.92 1019.07,-84.42"/>
<polygon fill="#63b8ff" stroke="#63b8ff" points="1022.59,-84.43 1020.33,-74.08 1015.64,-83.58 1022.59,-84.43"/>
</a>
</g>
</g>
<!-- Node22 -->
<g id="Node000022" class="node">
<title>Node22</title>
<g id="a_Node000022"><a xlink:title=" ">
<polygon fill="#e0e0e0" stroke="#999999" points="477.23,-74 400.23,-74 400.23,-55 477.23,-55 477.23,-74"/>
<text text-anchor="middle" x="438.73" y="-62" font-family="Helvetica,sans-Serif" font-size="10.00">driver/uart.h</text>
</a>
</g>
</g>
<!-- Node19&#45;&gt;Node22 -->
<g id="edge27_Node000019_Node000022" class="edge">
<title>Node19&#45;&gt;Node22</title>
<g id="a_edge27_Node000019_Node000022"><a xlink:title=" ">
<path fill="none" stroke="#63b8ff" d="M619.83,-164.96C576.55,-156.18 514.65,-141.99 493.73,-129 475.03,-117.39 459.27,-97.39 449.47,-82.94"/>
<polygon fill="#63b8ff" stroke="#63b8ff" points="452.31,-80.87 443.93,-74.38 446.43,-84.68 452.31,-80.87"/>
</a>
</g>
</g>
<!-- Node23 -->
<g id="Node000023" class="node">
<title>Node23</title>
<g id="a_Node000023"><a xlink:href="I2CBus_8hpp.html" target="_top" xlink:title="Industrial I2C Master bus driver with health monitoring.">
<polygon fill="white" stroke="#666666" points="700.23,-129 629.23,-129 629.23,-110 700.23,-110 700.23,-129"/>
<text text-anchor="middle" x="664.73" y="-117" font-family="Helvetica,sans-Serif" font-size="10.00">I2CBus.hpp</text>
</a>
</g>
</g>
<!-- Node19&#45;&gt;Node23 -->
<g id="edge30_Node000019_Node000023" class="edge">
<title>Node19&#45;&gt;Node23</title>
<g id="a_edge30_Node000019_Node000023"><a xlink:title=" ">
<path fill="none" stroke="#63b8ff" d="M664.73,-164.75C664.73,-157.8 664.73,-147.85 664.73,-139.13"/>
<polygon fill="#63b8ff" stroke="#63b8ff" points="668.24,-139.09 664.73,-129.09 661.24,-139.09 668.24,-139.09"/>
</a>
</g>
</g>
<!-- Node25 -->
<g id="Node000025" class="node">
<title>Node25</title>
<g id="a_Node000025"><a xlink:href="SPIBus_8hpp.html" target="_top" xlink:title="Industrial SPI Master bus driver with health monitoring.">
<polygon fill="white" stroke="#666666" points="899.23,-129 828.23,-129 828.23,-110 899.23,-110 899.23,-129"/>
<text text-anchor="middle" x="863.73" y="-117" font-family="Helvetica,sans-Serif" font-size="10.00">SPIBus.hpp</text>
</a>
</g>
</g>
<!-- Node19&#45;&gt;Node25 -->
<g id="edge37_Node000019_Node000025" class="edge">
<title>Node19&#45;&gt;Node25</title>
<g id="a_edge37_Node000019_Node000025"><a xlink:title=" ">
<path fill="none" stroke="#63b8ff" d="M696.71,-164.98C730.55,-155.97 784.13,-141.7 821.45,-131.76"/>
<polygon fill="#63b8ff" stroke="#63b8ff" points="822.75,-135.04 831.51,-129.08 820.95,-128.27 822.75,-135.04"/>
</a>
</g>
</g>
<!-- Node26 -->
<g id="Node000026" class="node">
<title>Node26</title>
<g id="a_Node000026"><a xlink:href="UARTBus_8hpp.html" target="_top" xlink:title="Industrial UART bus driver with health monitoring.">
<polygon fill="white" stroke="#666666" points="584.73,-129 502.73,-129 502.73,-110 584.73,-110 584.73,-129"/>
<text text-anchor="middle" x="543.73" y="-117" font-family="Helvetica,sans-Serif" font-size="10.00">UARTBus.hpp</text>
</a>
</g>
</g>
<!-- Node19&#45;&gt;Node26 -->
<g id="edge44_Node000019_Node000026" class="edge">
<title>Node19&#45;&gt;Node26</title>
<g id="a_edge44_Node000019_Node000026"><a xlink:title=" ">
<path fill="none" stroke="#63b8ff" d="M645.29,-164.98C625.74,-156.42 595.35,-143.11 572.91,-133.28"/>
<polygon fill="#63b8ff" stroke="#63b8ff" points="574.09,-129.98 563.53,-129.17 571.29,-136.39 574.09,-129.98"/>
</a>
</g>
</g>
<!-- Node23&#45;&gt;Node2 -->
<g id="edge31_Node000023_Node000002" class="edge">
<title>Node23&#45;&gt;Node2</title>
<g id="a_edge31_Node000023_Node000002"><a xlink:title=" ">
<path fill="none" stroke="#63b8ff" d="M654.83,-109.66C634.26,-91.3 586.66,-48.81 560.95,-25.87"/>
<polygon fill="#63b8ff" stroke="#63b8ff" points="563.23,-23.21 553.44,-19.16 558.57,-28.43 563.23,-23.21"/>
</a>
</g>
</g>
<!-- Node23&#45;&gt;Node6 -->
<g id="edge35_Node000023_Node000006" class="edge">
<title>Node23&#45;&gt;Node6</title>
<g id="a_edge35_Node000023_Node000006"><a xlink:title=" ">
<path fill="none" stroke="#63b8ff" d="M629.16,-113.34C578.64,-105.89 482.99,-91.27 392.26,-74.21"/>
<polygon fill="#63b8ff" stroke="#63b8ff" points="392.84,-70.76 382.36,-72.34 391.53,-77.64 392.84,-70.76"/>
</a>
</g>
</g>
<!-- Node23&#45;&gt;Node7 -->
<g id="edge33_Node000023_Node000007" class="edge">
<title>Node23&#45;&gt;Node7</title>
<g id="a_edge33_Node000023_Node000007"><a xlink:title=" ">
<path fill="none" stroke="#63b8ff" d="M695.75,-109.97C724.41,-101.78 767.97,-88.54 804.73,-74 843.3,-58.75 886.35,-37.35 912.74,-23.71"/>
<polygon fill="#63b8ff" stroke="#63b8ff" points="914.42,-26.78 921.68,-19.06 911.19,-20.57 914.42,-26.78"/>
</a>
</g>
</g>
<!-- Node23&#45;&gt;Node12 -->
<g id="edge36_Node000023_Node000012" class="edge">
<title>Node23&#45;&gt;Node12</title>
<g id="a_edge36_Node000023_Node000012"><a xlink:title=" ">
<path fill="none" stroke="#63b8ff" d="M700.46,-115.12C771.35,-108.31 935.06,-92.17 1083.93,-74.06"/>
<polygon fill="#63b8ff" stroke="#63b8ff" points="1084.66,-77.5 1094.17,-72.81 1083.82,-70.55 1084.66,-77.5"/>
</a>
</g>
</g>
<!-- Node23&#45;&gt;Node15 -->
<g id="edge34_Node000023_Node000015" class="edge">
<title>Node23&#45;&gt;Node15</title>
<g id="a_edge34_Node000023_Node000015"><a xlink:title=" ">
<path fill="none" stroke="#63b8ff" d="M664.94,-109.83C665.55,-97.17 667.89,-73.16 676.73,-55 681.93,-44.33 690.38,-34.23 698.08,-26.36"/>
<polygon fill="#63b8ff" stroke="#63b8ff" points="700.64,-28.76 705.39,-19.29 695.77,-23.72 700.64,-28.76"/>
</a>
</g>
</g>
<!-- Node24 -->
<g id="Node000024" class="node">
<title>Node24</title>
<g id="a_Node000024"><a xlink:title=" ">
<polygon fill="#e0e0e0" stroke="#999999" points="795.73,-74 685.73,-74 685.73,-55 795.73,-55 795.73,-74"/>
<text text-anchor="middle" x="740.73" y="-62" font-family="Helvetica,sans-Serif" font-size="10.00">driver/i2c_master.h</text>
</a>
</g>
</g>
<!-- Node23&#45;&gt;Node24 -->
<g id="edge32_Node000023_Node000024" class="edge">
<title>Node23&#45;&gt;Node24</title>
<g id="a_edge32_Node000023_Node000024"><a xlink:title=" ">
<path fill="none" stroke="#63b8ff" d="M676.95,-109.98C688.51,-101.92 706.11,-89.65 719.9,-80.03"/>
<polygon fill="#63b8ff" stroke="#63b8ff" points="722.1,-82.76 728.3,-74.17 718.1,-77.02 722.1,-82.76"/>
</a>
</g>
</g>
<!-- Node25&#45;&gt;Node2 -->
<g id="edge38_Node000025_Node000002" class="edge">
<title>Node25&#45;&gt;Node2</title>
<g id="a_edge38_Node000025_Node000002"><a xlink:title=" ">
<path fill="none" stroke="#63b8ff" d="M858.44,-109.84C849.35,-95.8 829.36,-68.31 804.73,-55 766.6,-34.39 643.01,-20 580.56,-13.84"/>
<polygon fill="#63b8ff" stroke="#63b8ff" points="580.66,-10.34 570.37,-12.86 579.99,-17.31 580.66,-10.34"/>
</a>
</g>
</g>
<!-- Node25&#45;&gt;Node6 -->
<g id="edge42_Node000025_Node000006" class="edge">
<title>Node25&#45;&gt;Node6</title>
<g id="a_edge42_Node000025_Node000006"><a xlink:title=" ">
<path fill="none" stroke="#63b8ff" d="M827.95,-116.61C750.32,-112.2 560.53,-99.71 392.35,-74.08"/>
<polygon fill="#63b8ff" stroke="#63b8ff" points="392.74,-70.6 382.33,-72.53 391.68,-77.52 392.74,-70.6"/>
</a>
</g>
</g>
<!-- Node25&#45;&gt;Node7 -->
<g id="edge40_Node000025_Node000007" class="edge">
<title>Node25&#45;&gt;Node7</title>
<g id="a_edge40_Node000025_Node000007"><a xlink:title=" ">
<path fill="none" stroke="#63b8ff" d="M876.39,-109.96C887.56,-101.85 903.59,-88.75 913.73,-74 923.13,-60.34 929.44,-42.53 933.23,-29.25"/>
<polygon fill="#63b8ff" stroke="#63b8ff" points="936.67,-29.91 935.82,-19.35 929.9,-28.13 936.67,-29.91"/>
</a>
</g>
</g>
<!-- Node25&#45;&gt;Node12 -->
<g id="edge43_Node000025_Node000012" class="edge">
<title>Node25&#45;&gt;Node12</title>
<g id="a_edge43_Node000025_Node000012"><a xlink:title=" ">
<path fill="none" stroke="#63b8ff" d="M899.6,-111.72C902.69,-111.14 905.77,-110.56 908.73,-110 970.96,-98.28 1042.38,-84.88 1090.41,-75.87"/>
<polygon fill="#63b8ff" stroke="#63b8ff" points="1091.11,-79.3 1100.3,-74.02 1089.82,-72.42 1091.11,-79.3"/>
</a>
</g>
</g>
<!-- Node25&#45;&gt;Node15 -->
<g id="edge41_Node000025_Node000015" class="edge">
<title>Node25&#45;&gt;Node15</title>
<g id="a_edge41_Node000025_Node000015"><a xlink:title=" ">
<path fill="none" stroke="#63b8ff" d="M869.26,-109.73C876.81,-96.49 888.09,-71.26 875.73,-55 863.55,-38.97 817.04,-27.18 777.28,-19.79"/>
<polygon fill="#63b8ff" stroke="#63b8ff" points="777.81,-16.32 767.35,-18 776.57,-23.21 777.81,-16.32"/>
</a>
</g>
</g>
<!-- Node25&#45;&gt;Node21 -->
<g id="edge39_Node000025_Node000021" class="edge">
<title>Node25&#45;&gt;Node21</title>
<g id="a_edge39_Node000025_Node000021"><a xlink:title=" ">
<path fill="none" stroke="#63b8ff" d="M888.96,-109.98C915.09,-101.16 956.13,-87.31 985.47,-77.41"/>
<polygon fill="#63b8ff" stroke="#63b8ff" points="986.96,-80.6 995.31,-74.08 984.72,-73.96 986.96,-80.6"/>
</a>
</g>
</g>
<!-- Node26&#45;&gt;Node2 -->
<g id="edge45_Node000026_Node000002" class="edge">
<title>Node26&#45;&gt;Node2</title>
<g id="a_edge45_Node000026_Node000002"><a xlink:title=" ">
<path fill="none" stroke="#63b8ff" d="M539.78,-109.94C534.64,-97.8 526.68,-74.86 529.73,-55 531.09,-46.19 533.86,-36.74 536.59,-28.82"/>
<polygon fill="#63b8ff" stroke="#63b8ff" points="539.97,-29.77 540.14,-19.18 533.4,-27.35 539.97,-29.77"/>
</a>
</g>
</g>
<!-- Node26&#45;&gt;Node6 -->
<g id="edge49_Node000026_Node000006" class="edge">
<title>Node26&#45;&gt;Node6</title>
<g id="a_edge49_Node000026_Node000006"><a xlink:title=" ">
<path fill="none" stroke="#63b8ff" d="M512.89,-109.98C480.14,-100.94 428.23,-86.62 392.21,-76.67"/>
<polygon fill="#63b8ff" stroke="#63b8ff" points="393.08,-73.28 382.51,-73.99 391.21,-80.03 393.08,-73.28"/>
</a>
</g>
</g>
<!-- Node26&#45;&gt;Node7 -->
<g id="edge47_Node000026_Node000007" class="edge">
<title>Node26&#45;&gt;Node7</title>
<g id="a_edge47_Node000026_Node000007"><a xlink:title=" ">
<path fill="none" stroke="#63b8ff" d="M564.71,-109.91C585.15,-101.37 616.97,-87.61 643.73,-74 658.82,-66.33 660.81,-60.73 676.73,-55 740.42,-32.07 817.2,-20.79 870.94,-15.35"/>
<polygon fill="#63b8ff" stroke="#63b8ff" points="871.42,-18.82 881.03,-14.37 870.74,-11.86 871.42,-18.82"/>
</a>
</g>
</g>
<!-- Node26&#45;&gt;Node12 -->
<g id="edge50_Node000026_Node000012" class="edge">
<title>Node26&#45;&gt;Node12</title>
<g id="a_edge50_Node000026_Node000012"><a xlink:title=" ">
<path fill="none" stroke="#63b8ff" d="M585.12,-113.61C596.35,-112.36 608.5,-111.06 619.73,-110 822.87,-90.78 876.97,-96.14 1084.19,-73.99"/>
<polygon fill="#63b8ff" stroke="#63b8ff" points="1084.61,-77.46 1094.18,-72.91 1083.86,-70.5 1084.61,-77.46"/>
</a>
</g>
</g>
<!-- Node26&#45;&gt;Node15 -->
<g id="edge48_Node000026_Node000015" class="edge">
<title>Node26&#45;&gt;Node15</title>
<g id="a_edge48_Node000026_Node000015"><a xlink:title=" ">
<path fill="none" stroke="#63b8ff" d="M557.52,-109.84C587.08,-91.28 656.83,-47.49 693.03,-24.75"/>
<polygon fill="#63b8ff" stroke="#63b8ff" points="695.28,-27.48 701.88,-19.2 691.55,-21.55 695.28,-27.48"/>
</a>
</g>
</g>
<!-- Node26&#45;&gt;Node22 -->
<g id="edge46_Node000026_Node000022" class="edge">
<title>Node26&#45;&gt;Node22</title>
<g id="a_edge46_Node000026_Node000022"><a xlink:title=" ">
<path fill="none" stroke="#63b8ff" d="M526.86,-109.98C510.13,-101.54 484.24,-88.47 464.84,-78.68"/>
<polygon fill="#63b8ff" stroke="#63b8ff" points="466.42,-75.55 455.91,-74.17 463.26,-81.8 466.42,-75.55"/>
</a>
</g>
</g>
</g>
</svg>
