<?xml version="1.0" encoding="UTF-8" standalone="no"?>
<!DOCTYPE svg PUBLIC "-//W3C//DTD SVG 1.1//EN"
 "http://www.w3.org/Graphics/SVG/1.1/DTD/svg11.dtd">
<!-- Generated by graphviz version 2.43.0 (0)
 -->
<!-- Title: main/ceo/managers/sensor/SensorManager.cpp Pages: 1 -->
<svg width="1231pt" height="368pt"
 viewBox="0.00 0.00 1230.50 368.00" xmlns="http://www.w3.org/2000/svg" xmlns:xlink="http://www.w3.org/1999/xlink">
<g id="graph0" class="graph" transform="scale(1 1) rotate(0) translate(4 364)">
<title>main/ceo/managers/sensor/SensorManager.cpp</title>
<!-- Node1 -->
<g id="Node000001" class="node">
<title>Node1</title>
<g id="a_Node000001"><a xlink:title=" ">
<polygon fill="#999999" stroke="#666666" points="629,-360 480,-360 480,-330 629,-330 629,-360"/>
<text text-anchor="start" x="488" y="-348" font-family="Helvetica,sans-Serif" font-size="10.00">main/ceo/managers/sensor</text>
<text text-anchor="middle" x="554.5" y="-337" font-family="Helvetica,sans-Serif" font-size="10.00">/SensorManager.cpp</text>
</a>
</g>
</g>
<!-- Node2 -->
<g id="Node000002" class="node">
<title>Node2</title>
<g id="a_Node000002"><a xlink:title=" ">
<polygon fill="#e0e0e0" stroke="#999999" points="53,-19 0,-19 0,0 53,0 53,-19"/>
<text text-anchor="middle" x="26.5" y="-7" font-family="Helvetica,sans-Serif" font-size="10.00">string.h</text>
</a>
</g>
</g>
<!-- Node1&#45;&gt;Node2 -->
<g id="edge1_Node000001_Node000002" class="edge">
<title>Node1&#45;&gt;Node2</title>
<g id="a_edge1_Node000001_Node000002"><a xlink:title=" ">
<path fill="none" stroke="#63b8ff" d="M479.74,-341.67C366.62,-337.18 158,-324.9 90.5,-294 52.9,-276.79 22.5,-271.85 22.5,-230.5 22.5,-230.5 22.5,-230.5 22.5,-118.5 22.5,-87.17 24.2,-50.76 25.39,-29.23"/>
<polygon fill="#63b8ff" stroke="#63b8ff" points="28.88,-29.36 25.96,-19.18 21.9,-28.96 28.88,-29.36"/>
</a>
</g>
</g>
<!-- Node3 -->
<g id="Node000003" class="node">
<title>Node3</title>
<g id="a_Node000003"><a xlink:title=" ">
<polygon fill="#e0e0e0" stroke="#999999" points="137,-19 74,-19 74,0 137,0 137,-19"/>
<text text-anchor="middle" x="105.5" y="-7" font-family="Helvetica,sans-Serif" font-size="10.00">esp_log.h</text>
</a>
</g>
</g>
<!-- Node1&#45;&gt;Node3 -->
<g id="edge2_Node000001_Node000003" class="edge">
<title>Node1&#45;&gt;Node3</title>
<g id="a_edge2_Node000001_Node000003"><a xlink:title=" ">
<path fill="none" stroke="#63b8ff" d="M479.74,-342.2C341.64,-336.83 60.5,-315.47 60.5,-230.5 60.5,-230.5 60.5,-230.5 60.5,-118.5 60.5,-84.31 79.96,-48.38 93.28,-27.79"/>
<polygon fill="#63b8ff" stroke="#63b8ff" points="96.37,-29.48 99.05,-19.23 90.56,-25.57 96.37,-29.48"/>
</a>
</g>
</g>
<!-- Node4 -->
<g id="Node000004" class="node">
<title>Node4</title>
<g id="a_Node000004"><a xlink:title=" ">
<polygon fill="#e0e0e0" stroke="#999999" points="914,-74 853,-74 853,-55 914,-55 914,-74"/>
<text text-anchor="middle" x="883.5" y="-62" font-family="Helvetica,sans-Serif" font-size="10.00">esp_err.h</text>
</a>
</g>
</g>
<!-- Node1&#45;&gt;Node4 -->
<g id="edge3_Node000001_Node000004" class="edge">
<title>Node1&#45;&gt;Node4</title>
<g id="a_edge3_Node000001_Node000004"><a xlink:title=" ">
<path fill="none" stroke="#63b8ff" d="M629.49,-339.3C754.3,-329.73 996.07,-303.2 1047.5,-239 1073.91,-206.03 954.31,-115.59 904.46,-80.08"/>
<polygon fill="#63b8ff" stroke="#63b8ff" points="906.2,-77.03 896.01,-74.12 902.16,-82.74 906.2,-77.03"/>
</a>
</g>
</g>
<!-- Node5 -->
<g id="Node000005" class="node">
<title>Node5</title>
<g id="a_Node000005"><a xlink:title=" ">
<polygon fill="#e0e0e0" stroke="#999999" points="918,-19 805,-19 805,0 918,0 918,-19"/>
<text text-anchor="middle" x="861.5" y="-7" font-family="Helvetica,sans-Serif" font-size="10.00">freertos/FreeRTOS.h</text>
</a>
</g>
</g>
<!-- Node1&#45;&gt;Node5 -->
<g id="edge4_Node000001_Node000005" class="edge">
<title>Node1&#45;&gt;Node5</title>
<g id="a_edge4_Node000001_Node000005"><a xlink:title=" ">
<path fill="none" stroke="#63b8ff" d="M629.18,-339.05C803.5,-326.5 1222.5,-290.13 1222.5,-230.5 1222.5,-230.5 1222.5,-230.5 1222.5,-118.5 1222.5,-78.43 1194.31,-72.97 1158.5,-55 1119.28,-35.32 1003.22,-22.28 928.34,-15.66"/>
<polygon fill="#63b8ff" stroke="#63b8ff" points="928.32,-12.14 918.05,-14.77 927.71,-19.12 928.32,-12.14"/>
</a>
</g>
</g>
<!-- Node6 -->
<g id="Node000006" class="node">
<title>Node6</title>
<g id="a_Node000006"><a xlink:title=" ">
<polygon fill="#e0e0e0" stroke="#999999" points="1038.5,-239 950.5,-239 950.5,-220 1038.5,-220 1038.5,-239"/>
<text text-anchor="middle" x="994.5" y="-227" font-family="Helvetica,sans-Serif" font-size="10.00">freertos/task.h</text>
</a>
</g>
</g>
<!-- Node1&#45;&gt;Node6 -->
<g id="edge5_Node000001_Node000006" class="edge">
<title>Node1&#45;&gt;Node6</title>
<g id="a_edge5_Node000001_Node000006"><a xlink:title=" ">
<path fill="none" stroke="#63b8ff" d="M608.89,-329.97C697.42,-307.13 870.87,-262.39 951.45,-241.6"/>
<polygon fill="#63b8ff" stroke="#63b8ff" points="952.46,-244.96 961.27,-239.07 950.71,-238.18 952.46,-244.96"/>
</a>
</g>
</g>
<!-- Node7 -->
<g id="Node000007" class="node">
<title>Node7</title>
<g id="a_Node000007"><a xlink:href="DataManager_8hpp.html" target="_top" xlink:title="The collective consciousness and unified system state mirror.">
<polygon fill="white" stroke="#666666" points="344,-74 241,-74 241,-55 344,-55 344,-74"/>
<text text-anchor="middle" x="292.5" y="-62" font-family="Helvetica,sans-Serif" font-size="10.00">DataManager.hpp</text>
</a>
</g>
</g>
<!-- Node1&#45;&gt;Node7 -->
<g id="edge6_Node000001_Node000007" class="edge">
<title>Node1&#45;&gt;Node7</title>
<g id="a_edge6_Node000001_Node000007"><a xlink:title=" ">
<path fill="none" stroke="#63b8ff" d="M479.77,-339.03C359.54,-328.96 136.5,-300.81 136.5,-230.5 136.5,-230.5 136.5,-230.5 136.5,-173.5 136.5,-120.1 199.05,-91.02 244.94,-76.88"/>
<polygon fill="#63b8ff" stroke="#63b8ff" points="246.13,-80.18 254.74,-74 244.16,-73.46 246.13,-80.18"/>
</a>
</g>
</g>
<!-- Node13 -->
<g id="Node000013" class="node">
<title>Node13</title>
<g id="a_Node000013"><a xlink:href="BusManager_8hpp.html" target="_top" xlink:title="The peripheral nervous system managing all communication pathways.">
<polygon fill="white" stroke="#666666" points="610.5,-184 512.5,-184 512.5,-165 610.5,-165 610.5,-184"/>
<text text-anchor="middle" x="561.5" y="-172" font-family="Helvetica,sans-Serif" font-size="10.00">BusManager.hpp</text>
</a>
</g>
</g>
<!-- Node1&#45;&gt;Node13 -->
<g id="edge15_Node000001_Node000013" class="edge">
<title>Node1&#45;&gt;Node13</title>
<g id="a_edge15_Node000001_Node000013"><a xlink:title=" ">
<path fill="none" stroke="#63b8ff" d="M555.08,-329.92C556.34,-299.65 559.3,-228.35 560.72,-194.27"/>
<polygon fill="#63b8ff" stroke="#63b8ff" points="564.22,-194.39 561.14,-184.25 557.22,-194.1 564.22,-194.39"/>
</a>
</g>
</g>
<!-- Node21 -->
<g id="Node000021" class="node">
<title>Node21</title>
<g id="a_Node000021"><a xlink:href="ISensor_8hpp.html" target="_top" xlink:title="The abstract behavioral contract for all sensory organs (receptors).">
<polygon fill="white" stroke="#666666" points="441,-239 368,-239 368,-220 441,-220 441,-239"/>
<text text-anchor="middle" x="404.5" y="-227" font-family="Helvetica,sans-Serif" font-size="10.00">ISensor.hpp</text>
</a>
</g>
</g>
<!-- Node1&#45;&gt;Node21 -->
<g id="edge43_Node000001_Node000021" class="edge">
<title>Node1&#45;&gt;Node21</title>
<g id="a_edge43_Node000001_Node000021"><a xlink:title=" ">
<path fill="none" stroke="#63b8ff" d="M535.81,-329.85C507.34,-308.31 453.36,-267.47 424.27,-245.46"/>
<polygon fill="#63b8ff" stroke="#63b8ff" points="426.18,-242.51 416.09,-239.27 421.95,-248.1 426.18,-242.51"/>
</a>
</g>
</g>
<!-- Node24 -->
<g id="Node000024" class="node">
<title>Node24</title>
<g id="a_Node000024"><a xlink:href="SensorManager_8hpp.html" target="_top" xlink:title="The sensory cortex (afferent system) of the organism.">
<polygon fill="white" stroke="#666666" points="727,-294 614,-294 614,-275 727,-275 727,-294"/>
<text text-anchor="middle" x="670.5" y="-282" font-family="Helvetica,sans-Serif" font-size="10.00">SensorManager.hpp</text>
</a>
</g>
</g>
<!-- Node1&#45;&gt;Node24 -->
<g id="edge50_Node000001_Node000024" class="edge">
<title>Node1&#45;&gt;Node24</title>
<g id="a_edge50_Node000001_Node000024"><a xlink:title=" ">
<path fill="none" stroke="#63b8ff" d="M582.28,-329.99C601.12,-320.49 625.85,-308.02 644.34,-298.69"/>
<polygon fill="#63b8ff" stroke="#63b8ff" points="646.02,-301.77 653.37,-294.14 642.86,-295.52 646.02,-301.77"/>
</a>
</g>
</g>
<!-- Node7&#45;&gt;Node2 -->
<g id="edge8_Node000007_Node000002" class="edge">
<title>Node7&#45;&gt;Node2</title>
<g id="a_edge8_Node000007_Node000002"><a xlink:title=" ">
<path fill="none" stroke="#63b8ff" d="M247,-55C200.93,-46.3 127.66,-32.22 64.5,-19 64.04,-18.9 63.57,-18.8 63.1,-18.71"/>
<polygon fill="#63b8ff" stroke="#63b8ff" points="63.57,-15.23 53.06,-16.54 62.09,-22.07 63.57,-15.23"/>
</a>
</g>
</g>
<!-- Node7&#45;&gt;Node3 -->
<g id="edge13_Node000007_Node000003" class="edge">
<title>Node7&#45;&gt;Node3</title>
<g id="a_edge13_Node000007_Node000003"><a xlink:title=" ">
<path fill="none" stroke="#63b8ff" d="M262.46,-54.98C230.79,-46.01 180.73,-31.82 145.69,-21.89"/>
<polygon fill="#63b8ff" stroke="#63b8ff" points="146.36,-18.44 135.78,-19.08 144.45,-25.18 146.36,-18.44"/>
</a>
</g>
</g>
<!-- Node7&#45;&gt;Node5 -->
<g id="edge10_Node000007_Node000005" class="edge">
<title>Node7&#45;&gt;Node5</title>
<g id="a_edge10_Node000007_Node000005"><a xlink:title=" ">
<path fill="none" stroke="#63b8ff" d="M344.06,-56.12C347.25,-55.72 350.42,-55.35 353.5,-55 538.79,-34.13 585.79,-35.77 771.5,-19 779,-18.32 786.85,-17.6 794.65,-16.88"/>
<polygon fill="#63b8ff" stroke="#63b8ff" points="795.22,-20.34 804.85,-15.92 794.57,-13.37 795.22,-20.34"/>
</a>
</g>
</g>
<!-- Node8 -->
<g id="Node000008" class="node">
<title>Node8</title>
<g id="a_Node000008"><a xlink:title=" ">
<polygon fill="#e0e0e0" stroke="#999999" points="590,-19 537,-19 537,0 590,0 590,-19"/>
<text text-anchor="middle" x="563.5" y="-7" font-family="Helvetica,sans-Serif" font-size="10.00">stdint.h</text>
</a>
</g>
</g>
<!-- Node7&#45;&gt;Node8 -->
<g id="edge7_Node000007_Node000008" class="edge">
<title>Node7&#45;&gt;Node8</title>
<g id="a_edge7_Node000007_Node000008"><a xlink:title=" ">
<path fill="none" stroke="#63b8ff" d="M336.04,-54.98C388.98,-44.63 477.38,-27.34 526.95,-17.65"/>
<polygon fill="#63b8ff" stroke="#63b8ff" points="527.77,-21.06 536.91,-15.7 526.42,-14.19 527.77,-21.06"/>
</a>
</g>
</g>
<!-- Node9 -->
<g id="Node000009" class="node">
<title>Node9</title>
<g id="a_Node000009"><a xlink:title=" ">
<polygon fill="#e0e0e0" stroke="#999999" points="327,-19 258,-19 258,0 327,0 327,-19"/>
<text text-anchor="middle" x="292.5" y="-7" font-family="Helvetica,sans-Serif" font-size="10.00">type_traits</text>
</a>
</g>
</g>
<!-- Node7&#45;&gt;Node9 -->
<g id="edge9_Node000007_Node000009" class="edge">
<title>Node7&#45;&gt;Node9</title>
<g id="a_edge9_Node000007_Node000009"><a xlink:title=" ">
<path fill="none" stroke="#63b8ff" d="M292.5,-54.75C292.5,-47.8 292.5,-37.85 292.5,-29.13"/>
<polygon fill="#63b8ff" stroke="#63b8ff" points="296,-29.09 292.5,-19.09 289,-29.09 296,-29.09"/>
</a>
</g>
</g>
<!-- Node10 -->
<g id="Node000010" class="node">
<title>Node10</title>
<g id="a_Node000010"><a xlink:title=" ">
<polygon fill="#e0e0e0" stroke="#999999" points="762,-19 659,-19 659,0 762,0 762,-19"/>
<text text-anchor="middle" x="710.5" y="-7" font-family="Helvetica,sans-Serif" font-size="10.00">freertos/semphr.h</text>
</a>
</g>
</g>
<!-- Node7&#45;&gt;Node10 -->
<g id="edge11_Node000007_Node000010" class="edge">
<title>Node7&#45;&gt;Node10</title>
<g id="a_edge11_Node000007_Node000010"><a xlink:title=" ">
<path fill="none" stroke="#63b8ff" d="M344.08,-56.26C347.27,-55.83 350.43,-55.41 353.5,-55 456.93,-41.35 577.37,-26.57 648.6,-17.94"/>
<polygon fill="#63b8ff" stroke="#63b8ff" points="649.23,-21.39 658.74,-16.71 648.39,-14.44 649.23,-21.39"/>
</a>
</g>
</g>
<!-- Node11 -->
<g id="Node000011" class="node">
<title>Node11</title>
<g id="a_Node000011"><a xlink:title=" ">
<polygon fill="#e0e0e0" stroke="#999999" points="445.5,-19 345.5,-19 345.5,0 445.5,0 445.5,-19"/>
<text text-anchor="middle" x="395.5" y="-7" font-family="Helvetica,sans-Serif" font-size="10.00">esp_heap_caps.h</text>
</a>
</g>
</g>
<!-- Node7&#45;&gt;Node11 -->
<g id="edge12_Node000007_Node000011" class="edge">
<title>Node7&#45;&gt;Node11</title>
<g id="a_edge12_Node000007_Node000011"><a xlink:title=" ">
<path fill="none" stroke="#63b8ff" d="M309.05,-54.98C325.39,-46.57 350.63,-33.59 369.63,-23.81"/>
<polygon fill="#63b8ff" stroke="#63b8ff" points="371.36,-26.86 378.65,-19.17 368.16,-20.63 371.36,-26.86"/>
</a>
</g>
</g>
<!-- Node12 -->
<g id="Node000012" class="node">
<title>Node12</title>
<g id="a_Node000012"><a xlink:href="IManager_8hpp.html" target="_top" xlink:title="The abstract behavioral contract for all managers.">
<polygon fill="white" stroke="#666666" points="240,-19 157,-19 157,0 240,0 240,-19"/>
<text text-anchor="middle" x="198.5" y="-7" font-family="Helvetica,sans-Serif" font-size="10.00">IManager.hpp</text>
</a>
</g>
</g>
<!-- Node7&#45;&gt;Node12 -->
<g id="edge14_Node000007_Node000012" class="edge">
<title>Node7&#45;&gt;Node12</title>
<g id="a_edge14_Node000007_Node000012"><a xlink:title=" ">
<path fill="none" stroke="#63b8ff" d="M277.4,-54.98C262.68,-46.69 240.08,-33.94 222.83,-24.22"/>
<polygon fill="#63b8ff" stroke="#63b8ff" points="224.31,-21.03 213.88,-19.17 220.87,-27.13 224.31,-21.03"/>
</a>
</g>
</g>
<!-- Node13&#45;&gt;Node4 -->
<g id="edge16_Node000013_Node000004" class="edge">
<title>Node13&#45;&gt;Node4</title>
<g id="a_edge16_Node000013_Node000004"><a xlink:title=" ">
<path fill="none" stroke="#63b8ff" d="M610.76,-165.03C649.62,-157.62 704.86,-145.46 751.5,-129 790.63,-115.19 833.5,-93.19 859.45,-79.05"/>
<polygon fill="#63b8ff" stroke="#63b8ff" points="861.45,-81.94 868.52,-74.05 858.07,-75.81 861.45,-81.94"/>
</a>
</g>
</g>
<!-- Node13&#45;&gt;Node7 -->
<g id="edge21_Node000013_Node000007" class="edge">
<title>Node13&#45;&gt;Node7</title>
<g id="a_edge21_Node000013_Node000007"><a xlink:title=" ">
<path fill="none" stroke="#63b8ff" d="M529.65,-164.97C500.74,-156.88 457.17,-143.78 420.5,-129 383.37,-114.04 342.18,-92.7 316.81,-78.98"/>
<polygon fill="#63b8ff" stroke="#63b8ff" points="318.36,-75.84 307.91,-74.12 315.01,-81.98 318.36,-75.84"/>
</a>
</g>
</g>
<!-- Node13&#45;&gt;Node12 -->
<g id="edge20_Node000013_Node000012" class="edge">
<title>Node13&#45;&gt;Node12</title>
<g id="a_edge20_Node000013_Node000012"><a xlink:title=" ">
<path fill="none" stroke="#63b8ff" d="M512.46,-171.12C442.29,-165.23 312.89,-144.79 232.5,-74 218.74,-61.88 209.59,-42.81 204.28,-28.73"/>
<polygon fill="#63b8ff" stroke="#63b8ff" points="207.54,-27.44 200.96,-19.13 200.92,-29.73 207.54,-27.44"/>
</a>
</g>
</g>
<!-- Node14 -->
<g id="Node000014" class="node">
<title>Node14</title>
<g id="a_Node000014"><a xlink:title=" ">
<polygon fill="#e0e0e0" stroke="#999999" points="515,-129 444,-129 444,-110 515,-110 515,-129"/>
<text text-anchor="middle" x="479.5" y="-117" font-family="Helvetica,sans-Serif" font-size="10.00">driver/i2c.h</text>
</a>
</g>
</g>
<!-- Node13&#45;&gt;Node14 -->
<g id="edge17_Node000013_Node000014" class="edge">
<title>Node13&#45;&gt;Node14</title>
<g id="a_edge17_Node000013_Node000014"><a xlink:title=" ">
<path fill="none" stroke="#63b8ff" d="M548.33,-164.98C535.73,-156.84 516.5,-144.41 501.56,-134.76"/>
<polygon fill="#63b8ff" stroke="#63b8ff" points="503.21,-131.66 492.91,-129.17 499.41,-137.54 503.21,-131.66"/>
</a>
</g>
</g>
<!-- Node15 -->
<g id="Node000015" class="node">
<title>Node15</title>
<g id="a_Node000015"><a xlink:title=" ">
<polygon fill="#e0e0e0" stroke="#999999" points="472.5,-74 362.5,-74 362.5,-55 472.5,-55 472.5,-74"/>
<text text-anchor="middle" x="417.5" y="-62" font-family="Helvetica,sans-Serif" font-size="10.00">driver/spi_master.h</text>
</a>
</g>
</g>
<!-- Node13&#45;&gt;Node15 -->
<g id="edge18_Node000013_Node000015" class="edge">
<title>Node13&#45;&gt;Node15</title>
<g id="a_edge18_Node000013_Node000015"><a xlink:title=" ">
<path fill="none" stroke="#63b8ff" d="M512.5,-167.22C486.34,-161.43 455.51,-150.31 435.5,-129 424.11,-116.87 419.85,-98.07 418.3,-84.08"/>
<polygon fill="#63b8ff" stroke="#63b8ff" points="421.79,-83.8 417.55,-74.1 414.81,-84.33 421.79,-83.8"/>
</a>
</g>
</g>
<!-- Node16 -->
<g id="Node000016" class="node">
<title>Node16</title>
<g id="a_Node000016"><a xlink:title=" ">
<polygon fill="#e0e0e0" stroke="#999999" points="644,-74 567,-74 567,-55 644,-55 644,-74"/>
<text text-anchor="middle" x="605.5" y="-62" font-family="Helvetica,sans-Serif" font-size="10.00">driver/uart.h</text>
</a>
</g>
</g>
<!-- Node13&#45;&gt;Node16 -->
<g id="edge19_Node000013_Node000016" class="edge">
<title>Node13&#45;&gt;Node16</title>
<g id="a_edge19_Node000013_Node000016"><a xlink:title=" ">
<path fill="none" stroke="#63b8ff" d="M577.53,-164.95C589.91,-157.35 606.15,-144.97 613.5,-129 620.03,-114.81 616.98,-97.05 612.89,-83.92"/>
<polygon fill="#63b8ff" stroke="#63b8ff" points="616.07,-82.4 609.41,-74.16 609.48,-84.76 616.07,-82.4"/>
</a>
</g>
</g>
<!-- Node17 -->
<g id="Node000017" class="node">
<title>Node17</title>
<g id="a_Node000017"><a xlink:href="I2CBus_8hpp.html" target="_top" xlink:title="Industrial I2C Master bus driver with health monitoring.">
<polygon fill="white" stroke="#666666" points="1075,-129 1004,-129 1004,-110 1075,-110 1075,-129"/>
<text text-anchor="middle" x="1039.5" y="-117" font-family="Helvetica,sans-Serif" font-size="10.00">I2CBus.hpp</text>
</a>
</g>
</g>
<!-- Node13&#45;&gt;Node17 -->
<g id="edge22_Node000013_Node000017" class="edge">
<title>Node13&#45;&gt;Node17</title>
<g id="a_edge22_Node000013_Node000017"><a xlink:title=" ">
<path fill="none" stroke="#63b8ff" d="M610.85,-168.03C703.78,-157.72 903.46,-135.58 993.64,-125.59"/>
<polygon fill="#63b8ff" stroke="#63b8ff" points="994.27,-129.04 1003.82,-124.46 993.49,-122.08 994.27,-129.04"/>
</a>
</g>
</g>
<!-- Node19 -->
<g id="Node000019" class="node">
<title>Node19</title>
<g id="a_Node000019"><a xlink:href="SPIBus_8hpp.html" target="_top" xlink:title="Industrial SPI Master bus driver with health monitoring.">
<polygon fill="white" stroke="#666666" points="604,-129 533,-129 533,-110 604,-110 604,-129"/>
<text text-anchor="middle" x="568.5" y="-117" font-family="Helvetica,sans-Serif" font-size="10.00">SPIBus.hpp</text>
</a>
</g>
</g>
<!-- Node13&#45;&gt;Node19 -->
<g id="edge29_Node000013_Node000019" class="edge">
<title>Node13&#45;&gt;Node19</title>
<g id="a_edge29_Node000013_Node000019"><a xlink:title=" ">
<path fill="none" stroke="#63b8ff" d="M562.66,-164.75C563.57,-157.8 564.89,-147.85 566.04,-139.13"/>
<polygon fill="#63b8ff" stroke="#63b8ff" points="569.53,-139.46 567.37,-129.09 562.59,-138.54 569.53,-139.46"/>
</a>
</g>
</g>
<!-- Node20 -->
<g id="Node000020" class="node">
<title>Node20</title>
<g id="a_Node000020"><a xlink:href="UARTBus_8hpp.html" target="_top" xlink:title="Industrial UART bus driver with health monitoring.">
<polygon fill="white" stroke="#666666" points="742.5,-129 660.5,-129 660.5,-110 742.5,-110 742.5,-129"/>
<text text-anchor="middle" x="701.5" y="-117" font-family="Helvetica,sans-Serif" font-size="10.00">UARTBus.hpp</text>
</a>
</g>
</g>
<!-- Node13&#45;&gt;Node20 -->
<g id="edge36_Node000013_Node000020" class="edge">
<title>Node13&#45;&gt;Node20</title>
<g id="a_edge36_Node000013_Node000020"><a xlink:title=" ">
<path fill="none" stroke="#63b8ff" d="M583.99,-164.98C607.02,-156.27 643.04,-142.63 669.13,-132.75"/>
<polygon fill="#63b8ff" stroke="#63b8ff" points="670.48,-135.98 678.6,-129.17 668.01,-129.44 670.48,-135.98"/>
</a>
</g>
</g>
<!-- Node17&#45;&gt;Node4 -->
<g id="edge27_Node000017_Node000004" class="edge">
<title>Node17&#45;&gt;Node4</title>
<g id="a_edge27_Node000017_Node000004"><a xlink:title=" ">
<path fill="none" stroke="#63b8ff" d="M1014.44,-109.98C988.47,-101.16 947.69,-87.31 918.54,-77.41"/>
<polygon fill="#63b8ff" stroke="#63b8ff" points="919.35,-73.99 908.76,-74.08 917.1,-80.61 919.35,-73.99"/>
</a>
</g>
</g>
<!-- Node17&#45;&gt;Node5 -->
<g id="edge25_Node000017_Node000005" class="edge">
<title>Node17&#45;&gt;Node5</title>
<g id="a_edge25_Node000017_Node000005"><a xlink:title=" ">
<path fill="none" stroke="#63b8ff" d="M1069.92,-110C1102.87,-99.31 1148.13,-79.37 1127.5,-55 1102.45,-25.41 998.49,-15.48 928.2,-12.16"/>
<polygon fill="#63b8ff" stroke="#63b8ff" points="928.24,-8.66 918.09,-11.71 927.93,-15.65 928.24,-8.66"/>
</a>
</g>
</g>
<!-- Node17&#45;&gt;Node7 -->
<g id="edge28_Node000017_Node000007" class="edge">
<title>Node17&#45;&gt;Node7</title>
<g id="a_edge28_Node000017_Node000007"><a xlink:title=" ">
<path fill="none" stroke="#63b8ff" d="M1003.71,-117.11C903.19,-113.01 609.53,-99.66 354.26,-73.99"/>
<polygon fill="#63b8ff" stroke="#63b8ff" points="354.35,-70.48 344.05,-72.96 353.65,-77.45 354.35,-70.48"/>
</a>
</g>
</g>
<!-- Node17&#45;&gt;Node8 -->
<g id="edge23_Node000017_Node000008" class="edge">
<title>Node17&#45;&gt;Node8</title>
<g id="a_edge23_Node000017_Node000008"><a xlink:title=" ">
<path fill="none" stroke="#63b8ff" d="M1023.2,-109.95C1006.41,-101.09 979.51,-86.79 956.5,-74 941.71,-65.78 939.55,-60.37 923.5,-55 893.26,-44.89 685.5,-22.92 600.07,-14.19"/>
<polygon fill="#63b8ff" stroke="#63b8ff" points="600.34,-10.7 590.04,-13.17 599.63,-17.66 600.34,-10.7"/>
</a>
</g>
</g>
<!-- Node17&#45;&gt;Node10 -->
<g id="edge26_Node000017_Node000010" class="edge">
<title>Node17&#45;&gt;Node10</title>
<g id="a_edge26_Node000017_Node000010"><a xlink:title=" ">
<path fill="none" stroke="#63b8ff" d="M1031.2,-109.91C1017.2,-95.98 987.37,-68.64 956.5,-55 924.25,-40.75 833.87,-26.67 772.12,-18.28"/>
<polygon fill="#63b8ff" stroke="#63b8ff" points="772.46,-14.79 762.09,-16.93 771.53,-21.73 772.46,-14.79"/>
</a>
</g>
</g>
<!-- Node18 -->
<g id="Node000018" class="node">
<title>Node18</title>
<g id="a_Node000018"><a xlink:title=" ">
<polygon fill="#e0e0e0" stroke="#999999" points="1118.5,-74 1008.5,-74 1008.5,-55 1118.5,-55 1118.5,-74"/>
<text text-anchor="middle" x="1063.5" y="-62" font-family="Helvetica,sans-Serif" font-size="10.00">driver/i2c_master.h</text>
</a>
</g>
</g>
<!-- Node17&#45;&gt;Node18 -->
<g id="edge24_Node000017_Node000018" class="edge">
<title>Node17&#45;&gt;Node18</title>
<g id="a_edge24_Node000017_Node000018"><a xlink:title=" ">
<path fill="none" stroke="#63b8ff" d="M1043.46,-109.75C1046.71,-102.57 1051.42,-92.18 1055.45,-83.27"/>
<polygon fill="#63b8ff" stroke="#63b8ff" points="1058.67,-84.64 1059.61,-74.09 1052.3,-81.75 1058.67,-84.64"/>
</a>
</g>
</g>
<!-- Node19&#45;&gt;Node4 -->
<g id="edge34_Node000019_Node000004" class="edge">
<title>Node19&#45;&gt;Node4</title>
<g id="a_edge34_Node000019_Node000004"><a xlink:title=" ">
<path fill="none" stroke="#63b8ff" d="M604.02,-112.52C662.88,-102.62 780.32,-82.86 842.57,-72.39"/>
<polygon fill="#63b8ff" stroke="#63b8ff" points="843.51,-75.78 852.79,-70.67 842.35,-68.87 843.51,-75.78"/>
</a>
</g>
</g>
<!-- Node19&#45;&gt;Node5 -->
<g id="edge32_Node000019_Node000005" class="edge">
<title>Node19&#45;&gt;Node5</title>
<g id="a_edge32_Node000019_Node000005"><a xlink:title=" ">
<path fill="none" stroke="#63b8ff" d="M591.98,-109.84C643.97,-90.68 768.91,-44.63 828.63,-22.62"/>
<polygon fill="#63b8ff" stroke="#63b8ff" points="830.14,-25.79 838.31,-19.05 827.72,-19.22 830.14,-25.79"/>
</a>
</g>
</g>
<!-- Node19&#45;&gt;Node7 -->
<g id="edge35_Node000019_Node000007" class="edge">
<title>Node19&#45;&gt;Node7</title>
<g id="a_edge35_Node000019_Node000007"><a xlink:title=" ">
<path fill="none" stroke="#63b8ff" d="M532.96,-111.63C530.1,-111.08 527.25,-110.53 524.5,-110 463.72,-98.3 393.97,-84.93 346.95,-75.92"/>
<polygon fill="#63b8ff" stroke="#63b8ff" points="347.46,-72.46 336.98,-74.01 346.14,-79.33 347.46,-72.46"/>
</a>
</g>
</g>
<!-- Node19&#45;&gt;Node8 -->
<g id="edge30_Node000019_Node000008" class="edge">
<title>Node19&#45;&gt;Node8</title>
<g id="a_edge30_Node000019_Node000008"><a xlink:title=" ">
<path fill="none" stroke="#63b8ff" d="M555.72,-110C545.11,-102.1 530.78,-89.27 524.5,-74 517.33,-56.56 530.97,-38.39 544.04,-25.98"/>
<polygon fill="#63b8ff" stroke="#63b8ff" points="546.72,-28.29 551.92,-19.06 542.1,-23.03 546.72,-28.29"/>
</a>
</g>
</g>
<!-- Node19&#45;&gt;Node10 -->
<g id="edge33_Node000019_Node000010" class="edge">
<title>Node19&#45;&gt;Node10</title>
<g id="a_edge33_Node000019_Node000010"><a xlink:title=" ">
<path fill="none" stroke="#63b8ff" d="M563.42,-109.72C556.51,-96.49 546.32,-71.26 558.5,-55 569.65,-40.12 611.46,-28.54 648.42,-20.92"/>
<polygon fill="#63b8ff" stroke="#63b8ff" points="649.56,-24.27 658.68,-18.88 648.19,-17.4 649.56,-24.27"/>
</a>
</g>
</g>
<!-- Node19&#45;&gt;Node15 -->
<g id="edge31_Node000019_Node000015" class="edge">
<title>Node19&#45;&gt;Node15</title>
<g id="a_edge31_Node000019_Node000015"><a xlink:title=" ">
<path fill="none" stroke="#63b8ff" d="M544.24,-109.98C519.18,-101.19 479.87,-87.39 451.67,-77.49"/>
<polygon fill="#63b8ff" stroke="#63b8ff" points="452.8,-74.18 442.2,-74.17 450.48,-80.78 452.8,-74.18"/>
</a>
</g>
</g>
<!-- Node20&#45;&gt;Node4 -->
<g id="edge41_Node000020_Node000004" class="edge">
<title>Node20&#45;&gt;Node4</title>
<g id="a_edge41_Node000020_Node000004"><a xlink:title=" ">
<path fill="none" stroke="#63b8ff" d="M730.74,-109.98C761.56,-101.01 810.28,-86.82 844.39,-76.89"/>
<polygon fill="#63b8ff" stroke="#63b8ff" points="845.41,-80.24 854.03,-74.08 843.45,-73.52 845.41,-80.24"/>
</a>
</g>
</g>
<!-- Node20&#45;&gt;Node5 -->
<g id="edge39_Node000020_Node000005" class="edge">
<title>Node20&#45;&gt;Node5</title>
<g id="a_edge39_Node000020_Node000005"><a xlink:title=" ">
<path fill="none" stroke="#63b8ff" d="M714.32,-109.84C741.71,-91.36 806.15,-47.86 839.95,-25.05"/>
<polygon fill="#63b8ff" stroke="#63b8ff" points="842.29,-27.69 848.62,-19.2 838.37,-21.89 842.29,-27.69"/>
</a>
</g>
</g>
<!-- Node20&#45;&gt;Node7 -->
<g id="edge42_Node000020_Node000007" class="edge">
<title>Node20&#45;&gt;Node7</title>
<g id="a_edge42_Node000020_Node000007"><a xlink:title=" ">
<path fill="none" stroke="#63b8ff" d="M660.5,-113.41C597.25,-105.52 471.8,-89.75 354.33,-74.1"/>
<polygon fill="#63b8ff" stroke="#63b8ff" points="354.45,-70.58 344.08,-72.73 353.53,-77.52 354.45,-70.58"/>
</a>
</g>
</g>
<!-- Node20&#45;&gt;Node8 -->
<g id="edge37_Node000020_Node000008" class="edge">
<title>Node20&#45;&gt;Node8</title>
<g id="a_edge37_Node000020_Node000008"><a xlink:title=" ">
<path fill="none" stroke="#63b8ff" d="M696.64,-109.67C688.96,-96.37 672.88,-71.04 653.5,-55 636.96,-41.31 615.5,-30.49 597.68,-22.95"/>
<polygon fill="#63b8ff" stroke="#63b8ff" points="598.79,-19.62 588.21,-19.1 596.16,-26.11 598.79,-19.62"/>
</a>
</g>
</g>
<!-- Node20&#45;&gt;Node10 -->
<g id="edge40_Node000020_Node000010" class="edge">
<title>Node20&#45;&gt;Node10</title>
<g id="a_edge40_Node000020_Node000010"><a xlink:title=" ">
<path fill="none" stroke="#63b8ff" d="M702.24,-109.66C703.69,-92.17 706.97,-52.8 708.94,-29.27"/>
<polygon fill="#63b8ff" stroke="#63b8ff" points="712.44,-29.41 709.78,-19.16 705.46,-28.83 712.44,-29.41"/>
</a>
</g>
</g>
<!-- Node20&#45;&gt;Node16 -->
<g id="edge38_Node000020_Node000016" class="edge">
<title>Node20&#45;&gt;Node16</title>
<g id="a_edge38_Node000020_Node000016"><a xlink:title=" ">
<path fill="none" stroke="#63b8ff" d="M686.08,-109.98C671.05,-101.69 647.96,-88.94 630.34,-79.22"/>
<polygon fill="#63b8ff" stroke="#63b8ff" points="631.65,-75.94 621.2,-74.17 628.27,-82.07 631.65,-75.94"/>
</a>
</g>
</g>
<!-- Node21&#45;&gt;Node4 -->
<g id="edge46_Node000021_Node000004" class="edge">
<title>Node21&#45;&gt;Node4</title>
<g id="a_edge46_Node000021_Node000004"><a xlink:title=" ">
<path fill="none" stroke="#63b8ff" d="M441.25,-223.84C511.47,-213.89 668.29,-186.64 787.5,-129 815.92,-115.26 845.82,-94.29 864.56,-80.26"/>
<polygon fill="#63b8ff" stroke="#63b8ff" points="866.72,-83 872.56,-74.16 862.49,-77.43 866.72,-83"/>
</a>
</g>
</g>
<!-- Node21&#45;&gt;Node7 -->
<g id="edge47_Node000021_Node000007" class="edge">
<title>Node21&#45;&gt;Node7</title>
<g id="a_edge47_Node000021_Node000007"><a xlink:title=" ">
<path fill="none" stroke="#63b8ff" d="M407.86,-219.87C412.33,-206.82 418.48,-181.82 407.5,-165 385.74,-131.68 354.55,-156.21 325.5,-129 312.2,-116.55 303.31,-97.53 298.14,-83.55"/>
<polygon fill="#63b8ff" stroke="#63b8ff" points="301.44,-82.37 294.9,-74.04 294.81,-84.63 301.44,-82.37"/>
</a>
</g>
</g>
<!-- Node21&#45;&gt;Node8 -->
<g id="edge44_Node000021_Node000008" class="edge">
<title>Node21&#45;&gt;Node8</title>
<g id="a_edge44_Node000021_Node000008"><a xlink:title=" ">
<path fill="none" stroke="#63b8ff" d="M402.27,-219.67C398.53,-206.37 389.83,-181.04 374.5,-165 350.88,-140.28 335.42,-147.25 306.5,-129 271.85,-107.13 250.91,-110.61 232.5,-74 228.71,-66.46 226.94,-61.36 232.5,-55 242.13,-43.99 442.39,-22.67 526.65,-14.15"/>
<polygon fill="#63b8ff" stroke="#63b8ff" points="527.2,-17.61 536.8,-13.13 526.5,-10.65 527.2,-17.61"/>
</a>
</g>
</g>
<!-- Node21&#45;&gt;Node13 -->
<g id="edge49_Node000021_Node000013" class="edge">
<title>Node21&#45;&gt;Node13</title>
<g id="a_edge49_Node000021_Node000013"><a xlink:title=" ">
<path fill="none" stroke="#63b8ff" d="M429.72,-219.98C455.86,-211.16 496.9,-197.31 526.23,-187.41"/>
<polygon fill="#63b8ff" stroke="#63b8ff" points="527.72,-190.6 536.08,-184.08 525.48,-183.96 527.72,-190.6"/>
</a>
</g>
</g>
<!-- Node22 -->
<g id="Node000022" class="node">
<title>Node22</title>
<g id="a_Node000022"><a xlink:title=" ">
<polygon fill="#e0e0e0" stroke="#999999" points="220,-184 165,-184 165,-165 220,-165 220,-184"/>
<text text-anchor="middle" x="192.5" y="-172" font-family="Helvetica,sans-Serif" font-size="10.00">cJSON.h</text>
</a>
</g>
</g>
<!-- Node21&#45;&gt;Node22 -->
<g id="edge45_Node000021_Node000022" class="edge">
<title>Node21&#45;&gt;Node22</title>
<g id="a_edge45_Node000021_Node000022"><a xlink:title=" ">
<path fill="none" stroke="#63b8ff" d="M370.44,-219.98C332,-210.37 269.66,-194.79 229.9,-184.85"/>
<polygon fill="#63b8ff" stroke="#63b8ff" points="230.61,-181.42 220.06,-182.39 228.91,-188.21 230.61,-181.42"/>
</a>
</g>
</g>
<!-- Node23 -->
<g id="Node000023" class="node">
<title>Node23</title>
<g id="a_Node000023"><a xlink:title=" ">
<polygon fill="#e0e0e0" stroke="#999999" points="365,-184 238,-184 238,-165 365,-165 365,-184"/>
<text text-anchor="middle" x="301.5" y="-172" font-family="Helvetica,sans-Serif" font-size="10.00">SystemDefinitions.hpp</text>
</a>
</g>
</g>
<!-- Node21&#45;&gt;Node23 -->
<g id="edge48_Node000021_Node000023" class="edge">
<title>Node21&#45;&gt;Node23</title>
<g id="a_edge48_Node000021_Node000023"><a xlink:title=" ">
<path fill="none" stroke="#63b8ff" d="M387.95,-219.98C371.61,-211.57 346.37,-198.59 327.37,-188.81"/>
<polygon fill="#63b8ff" stroke="#63b8ff" points="328.84,-185.63 318.35,-184.17 325.64,-191.86 328.84,-185.63"/>
</a>
</g>
</g>
<!-- Node24&#45;&gt;Node4 -->
<g id="edge55_Node000024_Node000004" class="edge">
<title>Node24&#45;&gt;Node4</title>
<g id="a_edge55_Node000024_Node000004"><a xlink:title=" ">
<path fill="none" stroke="#63b8ff" d="M727.32,-277.84C778.18,-271.52 847.43,-259.4 865.5,-239 904.27,-195.23 894.79,-118.77 887.8,-83.85"/>
<polygon fill="#63b8ff" stroke="#63b8ff" points="891.21,-83.09 885.68,-74.06 884.37,-84.57 891.21,-83.09"/>
</a>
</g>
</g>
<!-- Node24&#45;&gt;Node5 -->
<g id="edge56_Node000024_Node000005" class="edge">
<title>Node24&#45;&gt;Node5</title>
<g id="a_edge56_Node000024_Node000005"><a xlink:title=" ">
<path fill="none" stroke="#63b8ff" d="M727.02,-276.55C771.15,-270 833.49,-258.25 885.5,-239 949.32,-215.37 1116.36,-136.41 1143.5,-74 1146.87,-66.26 1148.99,-61.42 1143.5,-55 1116.4,-23.29 1003.01,-14.04 928.53,-11.42"/>
<polygon fill="#63b8ff" stroke="#63b8ff" points="928.4,-7.92 918.29,-11.1 928.17,-14.91 928.4,-7.92"/>
</a>
</g>
</g>
<!-- Node24&#45;&gt;Node6 -->
<g id="edge57_Node000024_Node000006" class="edge">
<title>Node24&#45;&gt;Node6</title>
<g id="a_edge57_Node000024_Node000006"><a xlink:title=" ">
<path fill="none" stroke="#63b8ff" d="M722.56,-274.98C782.25,-265.22 879.65,-249.29 940.25,-239.37"/>
<polygon fill="#63b8ff" stroke="#63b8ff" points="941.08,-242.79 950.38,-237.72 939.95,-235.88 941.08,-242.79"/>
</a>
</g>
</g>
<!-- Node24&#45;&gt;Node7 -->
<g id="edge60_Node000024_Node000007" class="edge">
<title>Node24&#45;&gt;Node7</title>
<g id="a_edge60_Node000024_Node000007"><a xlink:title=" ">
<path fill="none" stroke="#63b8ff" d="M651.68,-274.93C604.16,-253.01 476.05,-192.19 376.5,-129 352.71,-113.9 327.12,-93.96 310.52,-80.49"/>
<polygon fill="#63b8ff" stroke="#63b8ff" points="312.66,-77.72 302.71,-74.09 308.23,-83.14 312.66,-77.72"/>
</a>
</g>
</g>
<!-- Node24&#45;&gt;Node8 -->
<g id="edge51_Node000024_Node000008" class="edge">
<title>Node24&#45;&gt;Node8</title>
<g id="a_edge51_Node000024_Node000008"><a xlink:title=" ">
<path fill="none" stroke="#63b8ff" d="M676.7,-274.89C698.27,-244.47 767.8,-142.17 751.5,-110 722.48,-52.73 646.17,-27.36 600.19,-16.97"/>
<polygon fill="#63b8ff" stroke="#63b8ff" points="600.82,-13.53 590.31,-14.86 599.36,-20.37 600.82,-13.53"/>
</a>
</g>
</g>
<!-- Node24&#45;&gt;Node12 -->
<g id="edge58_Node000024_Node000012" class="edge">
<title>Node24&#45;&gt;Node12</title>
<g id="a_edge58_Node000024_Node000012"><a xlink:title=" ">
<path fill="none" stroke="#63b8ff" d="M613.57,-281.58C491.56,-276.11 211.46,-255.83 156.5,-184 119.83,-136.08 163.23,-60.7 186.12,-27.34"/>
<polygon fill="#63b8ff" stroke="#63b8ff" points="189.03,-29.29 191.95,-19.1 183.31,-25.24 189.03,-29.29"/>
</a>
</g>
</g>
<!-- Node24&#45;&gt;Node13 -->
<g id="edge61_Node000024_Node000013" class="edge">
<title>Node24&#45;&gt;Node13</title>
<g id="a_edge61_Node000024_Node000013"><a xlink:title=" ">
<path fill="none" stroke="#63b8ff" d="M657.34,-274.77C645.1,-266.34 626.65,-252.84 612.5,-239 597.72,-224.54 583.18,-205.88 573.43,-192.53"/>
<polygon fill="#63b8ff" stroke="#63b8ff" points="576.17,-190.35 567.5,-184.26 570.48,-194.43 576.17,-190.35"/>
</a>
</g>
</g>
<!-- Node24&#45;&gt;Node21 -->
<g id="edge59_Node000024_Node000021" class="edge">
<title>Node24&#45;&gt;Node21</title>
<g id="a_edge59_Node000024_Node000021"><a xlink:title=" ">
<path fill="none" stroke="#63b8ff" d="M627.76,-274.98C579.4,-265.35 500.89,-249.71 451.02,-239.77"/>
<polygon fill="#63b8ff" stroke="#63b8ff" points="451.63,-236.32 441.14,-237.8 450.26,-243.19 451.63,-236.32"/>
</a>
</g>
</g>
<!-- Node25 -->
<g id="Node000025" class="node">
<title>Node25</title>
<g id="a_Node000025"><a xlink:title=" ">
<polygon fill="#e0e0e0" stroke="#999999" points="856.5,-239 800.5,-239 800.5,-220 856.5,-220 856.5,-239"/>
<text text-anchor="middle" x="828.5" y="-227" font-family="Helvetica,sans-Serif" font-size="10.00">stddef.h</text>
</a>
</g>
</g>
<!-- Node24&#45;&gt;Node25 -->
<g id="edge52_Node000024_Node000025" class="edge">
<title>Node24&#45;&gt;Node25</title>
<g id="a_edge52_Node000024_Node000025"><a xlink:title=" ">
<path fill="none" stroke="#63b8ff" d="M695.89,-274.98C722.3,-266.13 763.85,-252.19 793.39,-242.28"/>
<polygon fill="#63b8ff" stroke="#63b8ff" points="794.55,-245.58 802.92,-239.08 792.32,-238.94 794.55,-245.58"/>
</a>
</g>
</g>
<!-- Node26 -->
<g id="Node000026" class="node">
<title>Node26</title>
<g id="a_Node000026"><a xlink:title=" ">
<polygon fill="#e0e0e0" stroke="#999999" points="668,-239 621,-239 621,-220 668,-220 668,-239"/>
<text text-anchor="middle" x="644.5" y="-227" font-family="Helvetica,sans-Serif" font-size="10.00">vector</text>
</a>
</g>
</g>
<!-- Node24&#45;&gt;Node26 -->
<g id="edge53_Node000024_Node000026" class="edge">
<title>Node24&#45;&gt;Node26</title>
<g id="a_edge53_Node000024_Node000026"><a xlink:title=" ">
<path fill="none" stroke="#63b8ff" d="M666.21,-274.75C662.69,-267.57 657.59,-257.18 653.22,-248.27"/>
<polygon fill="#63b8ff" stroke="#63b8ff" points="656.26,-246.53 648.71,-239.09 649.98,-249.61 656.26,-246.53"/>
</a>
</g>
</g>
<!-- Node27 -->
<g id="Node000027" class="node">
<title>Node27</title>
<g id="a_Node000027"><a xlink:title=" ">
<polygon fill="#e0e0e0" stroke="#999999" points="782.5,-239 724.5,-239 724.5,-220 782.5,-220 782.5,-239"/>
<text text-anchor="middle" x="753.5" y="-227" font-family="Helvetica,sans-Serif" font-size="10.00">memory</text>
</a>
</g>
</g>
<!-- Node24&#45;&gt;Node27 -->
<g id="edge54_Node000024_Node000027" class="edge">
<title>Node24&#45;&gt;Node27</title>
<g id="a_edge54_Node000024_Node000027"><a xlink:title=" ">
<path fill="none" stroke="#63b8ff" d="M683.84,-274.98C696.59,-266.84 716.05,-254.41 731.17,-244.76"/>
<polygon fill="#63b8ff" stroke="#63b8ff" points="733.38,-247.5 739.92,-239.17 729.61,-241.6 733.38,-247.5"/>
</a>
</g>
</g>
</g>
</svg>
