<?xml version="1.0" encoding="UTF-8" standalone="no"?>
<!DOCTYPE svg PUBLIC "-//W3C//DTD SVG 1.1//EN"
 "http://www.w3.org/Graphics/SVG/1.1/DTD/svg11.dtd">
<!-- Generated by graphviz version 2.43.0 (0)
 -->
<!-- Title: main/ceo/managers/bus/SPIBus.cpp Pages: 1 -->
<svg width="772pt" height="203pt"
 viewBox="0.00 0.00 772.00 203.00" xmlns="http://www.w3.org/2000/svg" xmlns:xlink="http://www.w3.org/1999/xlink">
<g id="graph0" class="graph" transform="scale(1 1) rotate(0) translate(4 199)">
<title>main/ceo/managers/bus/SPIBus.cpp</title>
<!-- Node1 -->
<g id="Node000001" class="node">
<title>Node1</title>
<g id="a_Node000001"><a xlink:title=" ">
<polygon fill="#999999" stroke="#666666" points="214.5,-195 80.5,-195 80.5,-165 214.5,-165 214.5,-195"/>
<text text-anchor="start" x="88.5" y="-183" font-family="Helvetica,sans-Serif" font-size="10.00">main/ceo/managers/bus</text>
<text text-anchor="middle" x="147.5" y="-172" font-family="Helvetica,sans-Serif" font-size="10.00">/SPIBus.cpp</text>
</a>
</g>
</g>
<!-- Node2 -->
<g id="Node000002" class="node">
<title>Node2</title>
<g id="a_Node000002"><a xlink:title=" ">
<polygon fill="#e0e0e0" stroke="#999999" points="53,-19 0,-19 0,0 53,0 53,-19"/>
<text text-anchor="middle" x="26.5" y="-7" font-family="Helvetica,sans-Serif" font-size="10.00">string.h</text>
</a>
</g>
</g>
<!-- Node1&#45;&gt;Node2 -->
<g id="edge1_Node000001_Node000002" class="edge">
<title>Node1&#45;&gt;Node2</title>
<g id="a_edge1_Node000001_Node000002"><a xlink:title=" ">
<path fill="none" stroke="#63b8ff" d="M131.15,-164.59C120.84,-155.06 107.62,-141.97 97.5,-129 71.55,-95.75 47.75,-52.25 35.39,-28.29"/>
<polygon fill="#63b8ff" stroke="#63b8ff" points="38.47,-26.62 30.82,-19.3 32.23,-29.8 38.47,-26.62"/>
</a>
</g>
</g>
<!-- Node3 -->
<g id="Node000003" class="node">
<title>Node3</title>
<g id="a_Node000003"><a xlink:title=" ">
<polygon fill="#e0e0e0" stroke="#999999" points="134,-19 71,-19 71,0 134,0 134,-19"/>
<text text-anchor="middle" x="102.5" y="-7" font-family="Helvetica,sans-Serif" font-size="10.00">esp_log.h</text>
</a>
</g>
</g>
<!-- Node1&#45;&gt;Node3 -->
<g id="edge2_Node000001_Node000003" class="edge">
<title>Node1&#45;&gt;Node3</title>
<g id="a_edge2_Node000001_Node000003"><a xlink:title=" ">
<path fill="none" stroke="#63b8ff" d="M131.64,-164.93C122.46,-155.73 111.72,-142.87 106.5,-129 93.96,-95.73 96.52,-53.4 99.52,-29.39"/>
<polygon fill="#63b8ff" stroke="#63b8ff" points="103.02,-29.59 100.95,-19.2 96.09,-28.61 103.02,-29.59"/>
</a>
</g>
</g>
<!-- Node4 -->
<g id="Node000004" class="node">
<title>Node4</title>
<g id="a_Node000004"><a xlink:title=" ">
<polygon fill="#e0e0e0" stroke="#999999" points="210,-74 149,-74 149,-55 210,-55 210,-74"/>
<text text-anchor="middle" x="179.5" y="-62" font-family="Helvetica,sans-Serif" font-size="10.00">esp_err.h</text>
</a>
</g>
</g>
<!-- Node1&#45;&gt;Node4 -->
<g id="edge3_Node000001_Node000004" class="edge">
<title>Node1&#45;&gt;Node4</title>
<g id="a_edge3_Node000001_Node000004"><a xlink:title=" ">
<path fill="none" stroke="#63b8ff" d="M151.55,-164.63C157.33,-144.12 167.95,-106.47 174.3,-83.93"/>
<polygon fill="#63b8ff" stroke="#63b8ff" points="177.69,-84.8 177.04,-74.23 170.96,-82.9 177.69,-84.8"/>
</a>
</g>
</g>
<!-- Node5 -->
<g id="Node000005" class="node">
<title>Node5</title>
<g id="a_Node000005"><a xlink:title=" ">
<polygon fill="#e0e0e0" stroke="#999999" points="265,-19 152,-19 152,0 265,0 265,-19"/>
<text text-anchor="middle" x="208.5" y="-7" font-family="Helvetica,sans-Serif" font-size="10.00">freertos/FreeRTOS.h</text>
</a>
</g>
</g>
<!-- Node1&#45;&gt;Node5 -->
<g id="edge4_Node000001_Node000005" class="edge">
<title>Node1&#45;&gt;Node5</title>
<g id="a_edge4_Node000001_Node000005"><a xlink:title=" ">
<path fill="none" stroke="#63b8ff" d="M142,-164.94C133.5,-140.79 120.09,-90.61 139.5,-55 147.15,-40.97 161.33,-30.69 174.86,-23.57"/>
<polygon fill="#63b8ff" stroke="#63b8ff" points="176.55,-26.64 184.03,-19.14 173.51,-20.34 176.55,-26.64"/>
</a>
</g>
</g>
<!-- Node6 -->
<g id="Node000006" class="node">
<title>Node6</title>
<g id="a_Node000006"><a xlink:title=" ">
<polygon fill="#e0e0e0" stroke="#999999" points="386.5,-129 298.5,-129 298.5,-110 386.5,-110 386.5,-129"/>
<text text-anchor="middle" x="342.5" y="-117" font-family="Helvetica,sans-Serif" font-size="10.00">freertos/task.h</text>
</a>
</g>
</g>
<!-- Node1&#45;&gt;Node6 -->
<g id="edge5_Node000001_Node000006" class="edge">
<title>Node1&#45;&gt;Node6</title>
<g id="a_edge5_Node000001_Node000006"><a xlink:title=" ">
<path fill="none" stroke="#63b8ff" d="M194.21,-164.99C227.86,-154.89 272.71,-141.44 304.25,-131.98"/>
<polygon fill="#63b8ff" stroke="#63b8ff" points="305.42,-135.28 313.99,-129.05 303.4,-128.57 305.42,-135.28"/>
</a>
</g>
</g>
<!-- Node7 -->
<g id="Node000007" class="node">
<title>Node7</title>
<g id="a_Node000007"><a xlink:href="SPIBus_8hpp.html" target="_top" xlink:title="Industrial SPI Master bus driver with health monitoring.">
<polygon fill="white" stroke="#666666" points="280,-129 209,-129 209,-110 280,-110 280,-129"/>
<text text-anchor="middle" x="244.5" y="-117" font-family="Helvetica,sans-Serif" font-size="10.00">SPIBus.hpp</text>
</a>
</g>
</g>
<!-- Node1&#45;&gt;Node7 -->
<g id="edge6_Node000001_Node000007" class="edge">
<title>Node1&#45;&gt;Node7</title>
<g id="a_edge6_Node000001_Node000007"><a xlink:title=" ">
<path fill="none" stroke="#63b8ff" d="M170.98,-164.84C186.3,-155.6 206.21,-143.59 221.45,-134.4"/>
<polygon fill="#63b8ff" stroke="#63b8ff" points="223.49,-137.26 230.25,-129.09 219.88,-131.26 223.49,-137.26"/>
</a>
</g>
</g>
<!-- Node7&#45;&gt;Node4 -->
<g id="edge11_Node000007_Node000004" class="edge">
<title>Node7&#45;&gt;Node4</title>
<g id="a_edge11_Node000007_Node000004"><a xlink:title=" ">
<path fill="none" stroke="#63b8ff" d="M234.06,-109.98C224.35,-102.07 209.68,-90.11 198,-80.58"/>
<polygon fill="#63b8ff" stroke="#63b8ff" points="200.1,-77.78 190.13,-74.17 195.67,-83.2 200.1,-77.78"/>
</a>
</g>
</g>
<!-- Node7&#45;&gt;Node5 -->
<g id="edge9_Node000007_Node000005" class="edge">
<title>Node7&#45;&gt;Node5</title>
<g id="a_edge9_Node000007_Node000005"><a xlink:title=" ">
<path fill="none" stroke="#63b8ff" d="M241.55,-109.66C235.7,-92.09 222.48,-52.45 214.65,-28.95"/>
<polygon fill="#63b8ff" stroke="#63b8ff" points="217.87,-27.54 211.39,-19.16 211.23,-29.75 217.87,-27.54"/>
</a>
</g>
</g>
<!-- Node8 -->
<g id="Node000008" class="node">
<title>Node8</title>
<g id="a_Node000008"><a xlink:title=" ">
<polygon fill="#e0e0e0" stroke="#999999" points="336,-19 283,-19 283,0 336,0 336,-19"/>
<text text-anchor="middle" x="309.5" y="-7" font-family="Helvetica,sans-Serif" font-size="10.00">stdint.h</text>
</a>
</g>
</g>
<!-- Node7&#45;&gt;Node8 -->
<g id="edge7_Node000007_Node000008" class="edge">
<title>Node7&#45;&gt;Node8</title>
<g id="a_edge7_Node000007_Node000008"><a xlink:title=" ">
<path fill="none" stroke="#63b8ff" d="M249.82,-109.66C260.54,-91.85 284.9,-51.37 298.96,-28.01"/>
<polygon fill="#63b8ff" stroke="#63b8ff" points="302.13,-29.53 304.29,-19.16 296.13,-25.92 302.13,-29.53"/>
</a>
</g>
</g>
<!-- Node9 -->
<g id="Node000009" class="node">
<title>Node9</title>
<g id="a_Node000009"><a xlink:title=" ">
<polygon fill="#e0e0e0" stroke="#999999" points="414.5,-74 304.5,-74 304.5,-55 414.5,-55 414.5,-74"/>
<text text-anchor="middle" x="359.5" y="-62" font-family="Helvetica,sans-Serif" font-size="10.00">driver/spi_master.h</text>
</a>
</g>
</g>
<!-- Node7&#45;&gt;Node9 -->
<g id="edge8_Node000007_Node000009" class="edge">
<title>Node7&#45;&gt;Node9</title>
<g id="a_edge8_Node000007_Node000009"><a xlink:title=" ">
<path fill="none" stroke="#63b8ff" d="M262.98,-109.98C281.48,-101.46 310.18,-88.23 331.48,-78.41"/>
<polygon fill="#63b8ff" stroke="#63b8ff" points="333.07,-81.53 340.69,-74.17 330.14,-75.18 333.07,-81.53"/>
</a>
</g>
</g>
<!-- Node10 -->
<g id="Node000010" class="node">
<title>Node10</title>
<g id="a_Node000010"><a xlink:title=" ">
<polygon fill="#e0e0e0" stroke="#999999" points="764,-19 661,-19 661,0 764,0 764,-19"/>
<text text-anchor="middle" x="712.5" y="-7" font-family="Helvetica,sans-Serif" font-size="10.00">freertos/semphr.h</text>
</a>
</g>
</g>
<!-- Node7&#45;&gt;Node10 -->
<g id="edge10_Node000007_Node000010" class="edge">
<title>Node7&#45;&gt;Node10</title>
<g id="a_edge10_Node000007_Node000010"><a xlink:title=" ">
<path fill="none" stroke="#63b8ff" d="M280.33,-111.57C283.43,-111.02 286.52,-110.49 289.5,-110 402.87,-91.33 434.22,-102.6 545.5,-74 595.87,-61.06 651.89,-37.83 684.56,-23.34"/>
<polygon fill="#63b8ff" stroke="#63b8ff" points="686.22,-26.43 693.91,-19.15 683.36,-20.05 686.22,-26.43"/>
</a>
</g>
</g>
<!-- Node11 -->
<g id="Node000011" class="node">
<title>Node11</title>
<g id="a_Node000011"><a xlink:href="DataManager_8hpp.html" target="_top" xlink:title="The collective consciousness and unified system state mirror.">
<polygon fill="white" stroke="#666666" points="536,-74 433,-74 433,-55 536,-55 536,-74"/>
<text text-anchor="middle" x="484.5" y="-62" font-family="Helvetica,sans-Serif" font-size="10.00">DataManager.hpp</text>
</a>
</g>
</g>
<!-- Node7&#45;&gt;Node11 -->
<g id="edge12_Node000007_Node000011" class="edge">
<title>Node7&#45;&gt;Node11</title>
<g id="a_edge12_Node000007_Node000011"><a xlink:title=" ">
<path fill="none" stroke="#63b8ff" d="M280.17,-110.62C321.53,-101.49 389.92,-86.39 436.07,-76.2"/>
<polygon fill="#63b8ff" stroke="#63b8ff" points="436.84,-79.61 445.85,-74.04 435.33,-72.77 436.84,-79.61"/>
</a>
</g>
</g>
<!-- Node11&#45;&gt;Node2 -->
<g id="edge14_Node000011_Node000002" class="edge">
<title>Node11&#45;&gt;Node2</title>
<g id="a_edge14_Node000011_Node000002"><a xlink:title=" ">
<path fill="none" stroke="#63b8ff" d="M432.93,-56.17C429.74,-55.76 426.58,-55.37 423.5,-55 266.25,-36.23 222.66,-45.73 63.34,-19.1"/>
<polygon fill="#63b8ff" stroke="#63b8ff" points="63.62,-15.6 53.17,-17.38 62.45,-22.5 63.62,-15.6"/>
</a>
</g>
</g>
<!-- Node11&#45;&gt;Node3 -->
<g id="edge19_Node000011_Node000003" class="edge">
<title>Node11&#45;&gt;Node3</title>
<g id="a_edge19_Node000011_Node000003"><a xlink:title=" ">
<path fill="none" stroke="#63b8ff" d="M432.92,-56.27C429.73,-55.84 426.57,-55.41 423.5,-55 301.87,-38.74 268.32,-40.02 144.22,-19.18"/>
<polygon fill="#63b8ff" stroke="#63b8ff" points="144.78,-15.73 134.33,-17.51 143.61,-22.63 144.78,-15.73"/>
</a>
</g>
</g>
<!-- Node11&#45;&gt;Node5 -->
<g id="edge16_Node000011_Node000005" class="edge">
<title>Node11&#45;&gt;Node5</title>
<g id="a_edge16_Node000011_Node000005"><a xlink:title=" ">
<path fill="none" stroke="#63b8ff" d="M440.16,-54.98C392.01,-45.74 315.08,-30.97 263.21,-21.01"/>
<polygon fill="#63b8ff" stroke="#63b8ff" points="263.67,-17.53 253.19,-19.08 262.35,-24.41 263.67,-17.53"/>
</a>
</g>
</g>
<!-- Node11&#45;&gt;Node8 -->
<g id="edge13_Node000011_Node000008" class="edge">
<title>Node11&#45;&gt;Node8</title>
<g id="a_edge13_Node000011_Node000008"><a xlink:title=" ">
<path fill="none" stroke="#63b8ff" d="M456.38,-54.98C426.35,-45.89 378.64,-31.44 345.79,-21.49"/>
<polygon fill="#63b8ff" stroke="#63b8ff" points="346.7,-18.11 336.11,-18.56 344.67,-24.81 346.7,-18.11"/>
</a>
</g>
</g>
<!-- Node11&#45;&gt;Node10 -->
<g id="edge17_Node000011_Node000010" class="edge">
<title>Node11&#45;&gt;Node10</title>
<g id="a_edge17_Node000011_Node000010"><a xlink:title=" ">
<path fill="none" stroke="#63b8ff" d="M521.13,-54.98C560.41,-45.86 622.87,-31.33 665.69,-21.38"/>
<polygon fill="#63b8ff" stroke="#63b8ff" points="666.63,-24.76 675.58,-19.08 665.05,-17.94 666.63,-24.76"/>
</a>
</g>
</g>
<!-- Node12 -->
<g id="Node000012" class="node">
<title>Node12</title>
<g id="a_Node000012"><a xlink:title=" ">
<polygon fill="#e0e0e0" stroke="#999999" points="423,-19 354,-19 354,0 423,0 423,-19"/>
<text text-anchor="middle" x="388.5" y="-7" font-family="Helvetica,sans-Serif" font-size="10.00">type_traits</text>
</a>
</g>
</g>
<!-- Node11&#45;&gt;Node12 -->
<g id="edge15_Node000011_Node000012" class="edge">
<title>Node11&#45;&gt;Node12</title>
<g id="a_edge15_Node000011_Node000012"><a xlink:title=" ">
<path fill="none" stroke="#63b8ff" d="M469.08,-54.98C454.05,-46.69 430.96,-33.94 413.34,-24.22"/>
<polygon fill="#63b8ff" stroke="#63b8ff" points="414.65,-20.94 404.2,-19.17 411.27,-27.07 414.65,-20.94"/>
</a>
</g>
</g>
<!-- Node13 -->
<g id="Node000013" class="node">
<title>Node13</title>
<g id="a_Node000013"><a xlink:title=" ">
<polygon fill="#e0e0e0" stroke="#999999" points="541.5,-19 441.5,-19 441.5,0 541.5,0 541.5,-19"/>
<text text-anchor="middle" x="491.5" y="-7" font-family="Helvetica,sans-Serif" font-size="10.00">esp_heap_caps.h</text>
</a>
</g>
</g>
<!-- Node11&#45;&gt;Node13 -->
<g id="edge18_Node000011_Node000013" class="edge">
<title>Node11&#45;&gt;Node13</title>
<g id="a_edge18_Node000011_Node000013"><a xlink:title=" ">
<path fill="none" stroke="#63b8ff" d="M485.66,-54.75C486.57,-47.8 487.89,-37.85 489.04,-29.13"/>
<polygon fill="#63b8ff" stroke="#63b8ff" points="492.53,-29.46 490.37,-19.09 485.59,-28.54 492.53,-29.46"/>
</a>
</g>
</g>
<!-- Node14 -->
<g id="Node000014" class="node">
<title>Node14</title>
<g id="a_Node000014"><a xlink:href="IManager_8hpp.html" target="_top" xlink:title="The abstract behavioral contract for all managers.">
<polygon fill="white" stroke="#666666" points="643,-19 560,-19 560,0 643,0 643,-19"/>
<text text-anchor="middle" x="601.5" y="-7" font-family="Helvetica,sans-Serif" font-size="10.00">IManager.hpp</text>
</a>
</g>
</g>
<!-- Node11&#45;&gt;Node14 -->
<g id="edge20_Node000011_Node000014" class="edge">
<title>Node11&#45;&gt;Node14</title>
<g id="a_edge20_Node000011_Node000014"><a xlink:title=" ">
<path fill="none" stroke="#63b8ff" d="M503.3,-54.98C522.12,-46.46 551.32,-33.23 573,-23.41"/>
<polygon fill="#63b8ff" stroke="#63b8ff" points="574.7,-26.48 582.36,-19.17 571.81,-20.11 574.7,-26.48"/>
</a>
</g>
</g>
</g>
</svg>
