<?xml version="1.0" encoding="UTF-8" standalone="no"?>
<!DOCTYPE svg PUBLIC "-//W3C//DTD SVG 1.1//EN"
 "http://www.w3.org/Graphics/SVG/1.1/DTD/svg11.dtd">
<!-- Generated by graphviz version 2.43.0 (0)
 -->
<!-- Title: main/ceo/managers/bus/include/SPIBus.hpp Pages: 1 -->
<!--zoomable 434 -->

<svg id="main" version="1.1" xmlns="http://www.w3.org/2000/svg" xmlns:xlink="http://www.w3.org/1999/xlink" xml:space="preserve" onload="init(evt)">
<style type="text/css"><![CDATA[
.node, .edge {opacity: 0.7;}
.node.selected, .edge.selected {opacity: 1;}
.edge:hover path { stroke: red; }
.edge:hover polygon { stroke: red; fill: red; }
]]></style>

<defs>
  <circle id="rim" cx="0" cy="0" r="7"/>
  <circle id="rim2" cx="0" cy="0" r="3.5"/>
  <g id="zoomPlus">
    <use xlink:href="#rim" fill="#404040"><set attributeName="fill" to="#808080" begin="zoomplus.mouseover" end="zoomplus.mouseout"/></use>
    <path d="M-4,0h8M0,-4v8" fill="none" stroke="white" stroke-width="1.5" pointer-events="none"/>
  </g>
  <g id="zoomMin">
    <use xlink:href="#rim" fill="#404040"><set attributeName="fill" to="#808080" begin="zoomminus.mouseover" end="zoomminus.mouseout"/></use>
    <path d="M-4,0h8" fill="none" stroke="white" stroke-width="1.5" pointer-events="none"/>
  </g>
  <g id="arrowUp" transform="translate(30 24)">
    <use xlink:href="#rim"/>
    <path pointer-events="none" fill="none" stroke="white" stroke-width="1.5" d="M0,-3.0v7 M-2.5,-0.5L0,-3.0L2.5,-0.5"/>
  </g>
  <g id="arrowRight" transform="rotate(90) translate(36 -43)">
    <use xlink:href="#rim"/>
    <path pointer-events="none" fill="none" stroke="white" stroke-width="1.5" d="M0,-3.0v7 M-2.5,-0.5L0,-3.0L2.5,-0.5"/>
  </g>
  <g id="arrowDown" transform="rotate(180) translate(-30 -48)">
    <use xlink:href="#rim"/>
    <path pointer-events="none" fill="none" stroke="white" stroke-width="1.5" d="M0,-3.0v7 M-2.5,-0.5L0,-3.0L2.5,-0.5"/>
  </g>
  <g id="arrowLeft" transform="rotate(270) translate(-36 17)">
    <use xlink:href="#rim"/>
    <path pointer-events="none" fill="none" stroke="white" stroke-width="1.5" d="M0,-3.0v7 M-2.5,-0.5L0,-3.0L2.5,-0.5"/>
  </g>
  <g id="resetDef">
    <use xlink:href="#rim2" fill="#404040"><set attributeName="fill" to="#808080" begin="reset.mouseover" end="reset.mouseout"/></use>
  </g>
</defs>
<script type="application/ecmascript">
var viewWidth = 1584;
var viewHeight = 434;
var sectionId = 'dynsection-1';
</script>
<script type="application/ecmascript" xlink:href="svg.min.js"/>
<svg id="graph" class="graph">
<g id="viewport">
<title>main/ceo/managers/bus/include/SPIBus.hpp</title>
<!-- Node1 -->
<g id="Node000001" class="node">
<title>Node1</title>
<g id="a_Node000001"><a xlink:title="Industrial SPI Master bus driver with health monitoring.">
<polygon fill="#999999" stroke="#666666" points="665,-426 531,-426 531,-396 665,-396 665,-426"/>
<text text-anchor="start" x="539" y="-414" font-family="Helvetica,sans-Serif" font-size="10.00">main/ceo/managers/bus</text>
<text text-anchor="middle" x="598" y="-403" font-family="Helvetica,sans-Serif" font-size="10.00">/include/SPIBus.hpp</text>
</a>
</g>
</g>
<!-- Node2 -->
<g id="Node000002" class="node">
<title>Node2</title>
<g id="a_Node000002"><a xlink:href="SPIBus_8cpp.html" target="_top" xlink:title=" ">
<polygon fill="white" stroke="#666666" points="588,-360 454,-360 454,-330 588,-330 588,-360"/>
<text text-anchor="start" x="462" y="-348" font-family="Helvetica,sans-Serif" font-size="10.00">main/ceo/managers/bus</text>
<text text-anchor="middle" x="521" y="-337" font-family="Helvetica,sans-Serif" font-size="10.00">/SPIBus.cpp</text>
</a>
</g>
</g>
<!-- Node1&#45;&gt;Node2 -->
<g id="edge1_Node000001_Node000002" class="edge">
<title>Node1&#45;&gt;Node2</title>
<g id="a_edge1_Node000001_Node000002"><a xlink:title=" ">
<path fill="none" stroke="#63b8ff" d="M572.98,-389.2C561.55,-379.7 548.3,-368.69 538.04,-360.16"/>
<polygon fill="#63b8ff" stroke="#63b8ff" points="570.98,-392.1 580.91,-395.8 575.46,-386.71 570.98,-392.1"/>
</a>
</g>
</g>
<!-- Node3 -->
<g id="Node000003" class="node">
<title>Node3</title>
<g id="a_Node000003"><a xlink:href="BusManager_8hpp.html" target="_top" xlink:title="The peripheral nervous system managing all communication pathways.">
<polygon fill="white" stroke="#666666" points="745.5,-360 606.5,-360 606.5,-330 745.5,-330 745.5,-360"/>
<text text-anchor="start" x="614.5" y="-348" font-family="Helvetica,sans-Serif" font-size="10.00">main/ceo/managers/bus</text>
<text text-anchor="middle" x="676" y="-337" font-family="Helvetica,sans-Serif" font-size="10.00">/include/BusManager.hpp</text>
</a>
</g>
</g>
<!-- Node1&#45;&gt;Node3 -->
<g id="edge2_Node000001_Node000003" class="edge">
<title>Node1&#45;&gt;Node3</title>
<g id="a_edge2_Node000001_Node000003"><a xlink:title=" ">
<path fill="none" stroke="#63b8ff" d="M623.35,-389.2C634.93,-379.7 648.35,-368.69 658.74,-360.16"/>
<polygon fill="#63b8ff" stroke="#63b8ff" points="620.82,-386.75 615.31,-395.8 625.26,-392.16 620.82,-386.75"/>
</a>
</g>
</g>
<!-- Node4 -->
<g id="Node000004" class="node">
<title>Node4</title>
<g id="a_Node000004"><a xlink:href="IActuator_8hpp.html" target="_top" xlink:title="The abstract behavioral contract for all executive organs (limbs).">
<polygon fill="white" stroke="#666666" points="153.5,-162 28.5,-162 28.5,-132 153.5,-132 153.5,-162"/>
<text text-anchor="start" x="36.5" y="-150" font-family="Helvetica,sans-Serif" font-size="10.00">components/contracts</text>
<text text-anchor="middle" x="91" y="-139" font-family="Helvetica,sans-Serif" font-size="10.00">/include/IActuator.hpp</text>
</a>
</g>
</g>
<!-- Node3&#45;&gt;Node4 -->
<g id="edge3_Node000003_Node000004" class="edge">
<title>Node3&#45;&gt;Node4</title>
<g id="a_edge3_Node000003_Node000004"><a xlink:title=" ">
<path fill="none" stroke="#63b8ff" d="M596.07,-330.13C486.41,-319.38 245.29,-345.15 168,-294 120.68,-262.69 100.5,-192.47 93.78,-162.27"/>
<polygon fill="#63b8ff" stroke="#63b8ff" points="595.94,-333.63 606.27,-331.28 596.73,-326.68 595.94,-333.63"/>
</a>
</g>
</g>
<!-- Node5 -->
<g id="Node000005" class="node">
<title>Node5</title>
<g id="a_Node000005"><a xlink:href="ActuatorManager_8cpp.html" target="_top" xlink:title=" ">
<polygon fill="white" stroke="#666666" points="189.5,-30 32.5,-30 32.5,0 189.5,0 189.5,-30"/>
<text text-anchor="start" x="40.5" y="-18" font-family="Helvetica,sans-Serif" font-size="10.00">main/ceo/managers/actuator</text>
<text text-anchor="middle" x="111" y="-7" font-family="Helvetica,sans-Serif" font-size="10.00">/ActuatorManager.cpp</text>
</a>
</g>
</g>
<!-- Node3&#45;&gt;Node5 -->
<g id="edge30_Node000003_Node000005" class="edge">
<title>Node3&#45;&gt;Node5</title>
<g id="a_edge30_Node000003_Node000005"><a xlink:title=" ">
<path fill="none" stroke="#63b8ff" d="M596.06,-330.01C390.68,-305.65 328.2,-355.11 135,-294 68.5,-272.97 0,-283.74 0,-214 0,-214 0,-214 0,-146 0,-93.17 53.66,-50.96 86.37,-30.14"/>
<polygon fill="#63b8ff" stroke="#63b8ff" points="595.92,-333.51 606.27,-331.26 596.77,-326.57 595.92,-333.51"/>
</a>
</g>
</g>
<!-- Node6 -->
<g id="Node000006" class="node">
<title>Node6</title>
<g id="a_Node000006"><a xlink:href="ActuatorManager_8hpp.html" target="_top" xlink:title="Interface for all executive organs (limbs) of the organism.">
<polygon fill="white" stroke="#666666" points="246,-96 84,-96 84,-66 246,-66 246,-96"/>
<text text-anchor="start" x="92" y="-84" font-family="Helvetica,sans-Serif" font-size="10.00">main/ceo/managers/actuator</text>
<text text-anchor="middle" x="165" y="-73" font-family="Helvetica,sans-Serif" font-size="10.00">/include/ActuatorManager.hpp</text>
</a>
</g>
</g>
<!-- Node3&#45;&gt;Node6 -->
<g id="edge31_Node000003_Node000006" class="edge">
<title>Node3&#45;&gt;Node6</title>
<g id="a_edge31_Node000003_Node000006"><a xlink:title=" ">
<path fill="none" stroke="#63b8ff" d="M596.34,-329.99C476.68,-312.88 438.56,-336.49 330,-294 282.46,-275.39 269.11,-266.86 236,-228 200.54,-186.38 178.05,-123.99 169.24,-96.22"/>
<polygon fill="#63b8ff" stroke="#63b8ff" points="595.83,-333.46 606.24,-331.48 596.87,-326.53 595.83,-333.46"/>
</a>
</g>
</g>
<!-- Node7 -->
<g id="Node000007" class="node">
<title>Node7</title>
<g id="a_Node000007"><a xlink:href="CEO_8cpp.html" target="_top" xlink:title=" ">
<polygon fill="white" stroke="#666666" points="638.5,-24.5 533.5,-24.5 533.5,-5.5 638.5,-5.5 638.5,-24.5"/>
<text text-anchor="middle" x="586" y="-12.5" font-family="Helvetica,sans-Serif" font-size="10.00">main/ceo/CEO.cpp</text>
</a>
</g>
</g>
<!-- Node3&#45;&gt;Node7 -->
<g id="edge29_Node000003_Node000007" class="edge">
<title>Node3&#45;&gt;Node7</title>
<g id="a_edge29_Node000003_Node000007"><a xlink:title=" ">
<path fill="none" stroke="#63b8ff" d="M755.74,-338.24C946.6,-323.39 1414,-280.26 1414,-214 1414,-214 1414,-214 1414,-146 1414,-67.2 821.12,-28.67 638.74,-18.69"/>
<polygon fill="#63b8ff" stroke="#63b8ff" points="755.46,-334.75 745.76,-339.01 756,-341.73 755.46,-334.75"/>
</a>
</g>
</g>
<!-- Node8 -->
<g id="Node000008" class="node">
<title>Node8</title>
<g id="a_Node000008"><a xlink:href="ISensor_8hpp.html" target="_top" xlink:title="The abstract behavioral contract for all sensory organs (receptors).">
<polygon fill="white" stroke="#666666" points="489.5,-294 364.5,-294 364.5,-264 489.5,-264 489.5,-294"/>
<text text-anchor="start" x="372.5" y="-282" font-family="Helvetica,sans-Serif" font-size="10.00">components/contracts</text>
<text text-anchor="middle" x="427" y="-271" font-family="Helvetica,sans-Serif" font-size="10.00">/include/ISensor.hpp</text>
</a>
</g>
</g>
<!-- Node3&#45;&gt;Node8 -->
<g id="edge8_Node000003_Node000008" class="edge">
<title>Node3&#45;&gt;Node8</title>
<g id="a_edge8_Node000003_Node000008"><a xlink:title=" ">
<path fill="none" stroke="#63b8ff" d="M611.62,-327.45C571.27,-317.08 519.84,-303.86 481.52,-294.01"/>
<polygon fill="#63b8ff" stroke="#63b8ff" points="610.8,-330.86 621.36,-329.95 612.54,-324.08 610.8,-330.86"/>
</a>
</g>
</g>
<!-- Node9 -->
<g id="Node000009" class="node">
<title>Node9</title>
<g id="a_Node000009"><a xlink:href="SensorManager_8cpp.html" target="_top" xlink:title=" ">
<polygon fill="white" stroke="#666666" points="396.5,-162 247.5,-162 247.5,-132 396.5,-132 396.5,-162"/>
<text text-anchor="start" x="255.5" y="-150" font-family="Helvetica,sans-Serif" font-size="10.00">main/ceo/managers/sensor</text>
<text text-anchor="middle" x="322" y="-139" font-family="Helvetica,sans-Serif" font-size="10.00">/SensorManager.cpp</text>
</a>
</g>
</g>
<!-- Node3&#45;&gt;Node9 -->
<g id="edge34_Node000003_Node000009" class="edge">
<title>Node3&#45;&gt;Node9</title>
<g id="a_edge34_Node000003_Node000009"><a xlink:title=" ">
<path fill="none" stroke="#63b8ff" d="M644.79,-324.38C598.28,-295.43 507.71,-240.15 428,-198 403.54,-185.06 375.15,-171.76 353.91,-162.13"/>
<polygon fill="#63b8ff" stroke="#63b8ff" points="643.15,-327.48 653.49,-329.81 646.86,-321.54 643.15,-327.48"/>
</a>
</g>
</g>
<!-- Node10 -->
<g id="Node000010" class="node">
<title>Node10</title>
<g id="a_Node000010"><a xlink:href="SensorManager_8hpp.html" target="_top" xlink:title="The sensory cortex (afferent system) of the organism.">
<polygon fill="white" stroke="#666666" points="399,-228 245,-228 245,-198 399,-198 399,-228"/>
<text text-anchor="start" x="253" y="-216" font-family="Helvetica,sans-Serif" font-size="10.00">main/ceo/managers/sensor</text>
<text text-anchor="middle" x="322" y="-205" font-family="Helvetica,sans-Serif" font-size="10.00">/include/SensorManager.hpp</text>
</a>
</g>
</g>
<!-- Node3&#45;&gt;Node10 -->
<g id="edge35_Node000003_Node000010" class="edge">
<title>Node3&#45;&gt;Node10</title>
<g id="a_edge35_Node000003_Node000010"><a xlink:title=" ">
<path fill="none" stroke="#63b8ff" d="M596.07,-330.09C529.12,-321.77 396.65,-325.46 356,-294 335.11,-277.84 326.89,-246.39 323.78,-228.1"/>
<polygon fill="#63b8ff" stroke="#63b8ff" points="595.84,-333.59 606.23,-331.53 596.82,-326.66 595.84,-333.59"/>
</a>
</g>
</g>
<!-- Node11 -->
<g id="Node000011" class="node">
<title>Node11</title>
<g id="a_Node000011"><a xlink:href="ITimeSource_8hpp.html" target="_top" xlink:title="The abstract behavioral contract for all temporal reference organs.">
<polygon fill="white" stroke="#666666" points="922,-294 782,-294 782,-264 922,-264 922,-294"/>
<text text-anchor="start" x="790" y="-282" font-family="Helvetica,sans-Serif" font-size="10.00">components/contracts</text>
<text text-anchor="middle" x="852" y="-271" font-family="Helvetica,sans-Serif" font-size="10.00">/include/ITimeSource.hpp</text>
</a>
</g>
</g>
<!-- Node3&#45;&gt;Node11 -->
<g id="edge13_Node000003_Node000011" class="edge">
<title>Node3&#45;&gt;Node11</title>
<g id="a_edge13_Node000003_Node000011"><a xlink:title=" ">
<path fill="none" stroke="#63b8ff" d="M724.24,-326.46C752.32,-316.25 787.24,-303.55 813.47,-294.01"/>
<polygon fill="#63b8ff" stroke="#63b8ff" points="722.83,-323.25 714.62,-329.95 725.22,-329.83 722.83,-323.25"/>
</a>
</g>
</g>
<!-- Node14 -->
<g id="Node000014" class="node">
<title>Node14</title>
<g id="a_Node000014"><a xlink:href="CommunicationManager_8hpp.html" target="_top" xlink:title="The external interface and vocal apparatus of the organism.">
<polygon fill="white" stroke="#666666" points="613,-162 415,-162 415,-132 613,-132 613,-162"/>
<text text-anchor="start" x="423" y="-150" font-family="Helvetica,sans-Serif" font-size="10.00">main/ceo/managers/communication</text>
<text text-anchor="middle" x="514" y="-139" font-family="Helvetica,sans-Serif" font-size="10.00">/include/CommunicationManager.hpp</text>
</a>
</g>
</g>
<!-- Node3&#45;&gt;Node14 -->
<g id="edge33_Node000003_Node000014" class="edge">
<title>Node3&#45;&gt;Node14</title>
<g id="a_edge33_Node000003_Node000014"><a xlink:title=" ">
<path fill="none" stroke="#63b8ff" d="M666.11,-320.23C652.43,-289.39 625.35,-235.14 590,-198 576.06,-183.36 557.06,-170.86 541.55,-162.02"/>
<polygon fill="#63b8ff" stroke="#63b8ff" points="663.04,-321.95 670.23,-329.73 669.47,-319.16 663.04,-321.95"/>
</a>
</g>
</g>
<!-- Node16 -->
<g id="Node000016" class="node">
<title>Node16</title>
<g id="a_Node000016"><a xlink:href="StorageManager_8cpp.html" target="_top" xlink:title="Implementation of hybrid storage management according to AGX Rule.">
<polygon fill="white" stroke="#666666" points="998.5,-96 845.5,-96 845.5,-66 998.5,-66 998.5,-96"/>
<text text-anchor="start" x="853.5" y="-84" font-family="Helvetica,sans-Serif" font-size="10.00">main/ceo/managers/storage</text>
<text text-anchor="middle" x="922" y="-73" font-family="Helvetica,sans-Serif" font-size="10.00">/StorageManager.cpp</text>
</a>
</g>
</g>
<!-- Node3&#45;&gt;Node16 -->
<g id="edge36_Node000003_Node000016" class="edge">
<title>Node3&#45;&gt;Node16</title>
<g id="a_edge36_Node000003_Node000016"><a xlink:title=" ">
<path fill="none" stroke="#63b8ff" d="M755.8,-335.48C920.63,-315.97 1288.99,-261.89 1357,-162 1364.5,-150.98 1365.87,-141.95 1357,-132 1333.63,-105.79 1117.44,-91.37 998.9,-85.37"/>
<polygon fill="#63b8ff" stroke="#63b8ff" points="755.25,-332.02 745.72,-336.66 756.06,-338.97 755.25,-332.02"/>
</a>
</g>
</g>
<!-- Node17 -->
<g id="Node000017" class="node">
<title>Node17</title>
<g id="a_Node000017"><a xlink:href="StorageManager_8hpp.html" target="_top" xlink:title="The long&#45;term memory and archivist (hippocampus) of the organism.">
<polygon fill="white" stroke="#666666" points="789,-162 631,-162 631,-132 789,-132 789,-162"/>
<text text-anchor="start" x="639" y="-150" font-family="Helvetica,sans-Serif" font-size="10.00">main/ceo/managers/storage</text>
<text text-anchor="middle" x="710" y="-139" font-family="Helvetica,sans-Serif" font-size="10.00">/include/StorageManager.hpp</text>
</a>
</g>
</g>
<!-- Node3&#45;&gt;Node17 -->
<g id="edge37_Node000003_Node000017" class="edge">
<title>Node3&#45;&gt;Node17</title>
<g id="a_edge37_Node000003_Node000017"><a xlink:title=" ">
<path fill="none" stroke="#63b8ff" d="M680.18,-319.89C687.35,-278.58 701.76,-195.48 707.53,-162.23"/>
<polygon fill="#63b8ff" stroke="#63b8ff" points="676.71,-319.45 678.45,-329.9 683.6,-320.65 676.71,-319.45"/>
</a>
</g>
</g>
<!-- Node18 -->
<g id="Node000018" class="node">
<title>Node18</title>
<g id="a_Node000018"><a xlink:href="ToolBox_8cpp.html" target="_top" xlink:title=" ">
<polygon fill="white" stroke="#666666" points="1165.5,-156.5 1040.5,-156.5 1040.5,-137.5 1165.5,-137.5 1165.5,-156.5"/>
<text text-anchor="middle" x="1103" y="-144.5" font-family="Helvetica,sans-Serif" font-size="10.00">main/tool/ToolBox.cpp</text>
</a>
</g>
</g>
<!-- Node3&#45;&gt;Node18 -->
<g id="edge38_Node000003_Node000018" class="edge">
<title>Node3&#45;&gt;Node18</title>
<g id="a_edge38_Node000003_Node000018"><a xlink:title=" ">
<path fill="none" stroke="#63b8ff" d="M755.73,-338.82C807.74,-332.97 875.94,-320.51 931,-294 1005.46,-258.15 1074.02,-182.21 1095.83,-156.62"/>
<polygon fill="#63b8ff" stroke="#63b8ff" points="755.13,-335.36 745.56,-339.9 755.87,-342.32 755.13,-335.36"/>
</a>
</g>
</g>
<!-- Node19 -->
<g id="Node000019" class="node">
<title>Node19</title>
<g id="a_Node000019"><a xlink:href="ToolBox_8hpp.html" target="_top" xlink:title="The metabolic support and universal toolkit of the organism.">
<polygon fill="white" stroke="#666666" points="1348,-156.5 1184,-156.5 1184,-137.5 1348,-137.5 1348,-156.5"/>
<text text-anchor="middle" x="1266" y="-144.5" font-family="Helvetica,sans-Serif" font-size="10.00">main/tool/include/ToolBox.hpp</text>
</a>
</g>
</g>
<!-- Node3&#45;&gt;Node19 -->
<g id="edge39_Node000003_Node000019" class="edge">
<title>Node3&#45;&gt;Node19</title>
<g id="a_edge39_Node000003_Node000019"><a xlink:title=" ">
<path fill="none" stroke="#63b8ff" d="M755.85,-336.65C815.62,-329.65 898.8,-316.72 969,-294 1084.07,-256.76 1210.71,-182.05 1252.09,-156.67"/>
<polygon fill="#63b8ff" stroke="#63b8ff" points="755.26,-333.2 745.72,-337.81 756.06,-340.15 755.26,-333.2"/>
</a>
</g>
</g>
<!-- Node20 -->
<g id="Node000020" class="node">
<title>Node20</title>
<g id="a_Node000020"><a xlink:href="BusManager_8cpp.html" target="_top" xlink:title=" ">
<polygon fill="white" stroke="#666666" points="1576,-294 1442,-294 1442,-264 1576,-264 1576,-294"/>
<text text-anchor="start" x="1450" y="-282" font-family="Helvetica,sans-Serif" font-size="10.00">main/ceo/managers/bus</text>
<text text-anchor="middle" x="1509" y="-271" font-family="Helvetica,sans-Serif" font-size="10.00">/BusManager.cpp</text>
</a>
</g>
</g>
<!-- Node3&#45;&gt;Node20 -->
<g id="edge32_Node000003_Node000020" class="edge">
<title>Node3&#45;&gt;Node20</title>
<g id="a_edge32_Node000003_Node000020"><a xlink:title=" ">
<path fill="none" stroke="#63b8ff" d="M755.73,-341.44C893.3,-336.42 1184.01,-323.12 1428,-294 1432.53,-293.46 1437.2,-292.83 1441.9,-292.16"/>
<polygon fill="#63b8ff" stroke="#63b8ff" points="755.56,-337.95 745.69,-341.81 755.81,-344.94 755.56,-337.95"/>
</a>
</g>
</g>
<!-- Node4&#45;&gt;Node5 -->
<g id="edge4_Node000004_Node000005" class="edge">
<title>Node4&#45;&gt;Node5</title>
<g id="a_edge4_Node000004_Node000005"><a xlink:title=" ">
<path fill="none" stroke="#63b8ff" d="M79.98,-122.18C74.04,-106.08 69.04,-84.47 75,-66 79.33,-52.56 88.77,-39.69 96.89,-30.37"/>
<polygon fill="#63b8ff" stroke="#63b8ff" points="76.91,-123.93 83.91,-131.88 83.4,-121.3 76.91,-123.93"/>
</a>
</g>
</g>
<!-- Node4&#45;&gt;Node6 -->
<g id="edge5_Node000004_Node000006" class="edge">
<title>Node4&#45;&gt;Node6</title>
<g id="a_edge5_Node000004_Node000006"><a xlink:title=" ">
<path fill="none" stroke="#63b8ff" d="M115.05,-125.2C126.03,-115.7 138.76,-104.69 148.62,-96.16"/>
<polygon fill="#63b8ff" stroke="#63b8ff" points="112.7,-122.61 107.42,-131.8 117.28,-127.9 112.7,-122.61"/>
</a>
</g>
</g>
<!-- Node6&#45;&gt;Node5 -->
<g id="edge7_Node000006_Node000005" class="edge">
<title>Node6&#45;&gt;Node5</title>
<g id="a_edge7_Node000006_Node000005"><a xlink:title=" ">
<path fill="none" stroke="#63b8ff" d="M146.51,-58.09C138.72,-48.85 129.87,-38.36 122.95,-30.16"/>
<polygon fill="#63b8ff" stroke="#63b8ff" points="143.89,-60.41 153.02,-65.8 149.24,-55.9 143.89,-60.41"/>
</a>
</g>
</g>
<!-- Node6&#45;&gt;Node7 -->
<g id="edge6_Node000006_Node000007" class="edge">
<title>Node6&#45;&gt;Node7</title>
<g id="a_edge6_Node000006_Node000007"><a xlink:title=" ">
<path fill="none" stroke="#63b8ff" d="M256.3,-66.12C340.97,-53.25 464.02,-34.54 533.36,-24"/>
<polygon fill="#63b8ff" stroke="#63b8ff" points="255.53,-62.7 246.17,-67.66 256.59,-69.62 255.53,-62.7"/>
</a>
</g>
</g>
<!-- Node8&#45;&gt;Node9 -->
<g id="edge9_Node000008_Node000009" class="edge">
<title>Node8&#45;&gt;Node9</title>
<g id="a_edge9_Node000008_Node000009"><a xlink:title=" ">
<path fill="none" stroke="#63b8ff" d="M426.18,-253.59C424.5,-236.56 419.94,-214.08 408,-198 396.06,-181.92 377.28,-170.14 360.31,-162.07"/>
<polygon fill="#63b8ff" stroke="#63b8ff" points="422.71,-254.16 426.92,-263.88 429.69,-253.65 422.71,-254.16"/>
</a>
</g>
</g>
<!-- Node8&#45;&gt;Node10 -->
<g id="edge10_Node000008_Node000010" class="edge">
<title>Node8&#45;&gt;Node10</title>
<g id="a_edge10_Node000008_Node000010"><a xlink:title=" ">
<path fill="none" stroke="#63b8ff" d="M395.33,-258.69C379.12,-248.82 359.75,-237.01 344.99,-228.01"/>
<polygon fill="#63b8ff" stroke="#63b8ff" points="393.6,-261.74 403.96,-263.95 397.24,-255.76 393.6,-261.74"/>
</a>
</g>
</g>
<!-- Node10&#45;&gt;Node7 -->
<g id="edge11_Node000010_Node000007" class="edge">
<title>Node10&#45;&gt;Node7</title>
<g id="a_edge11_Node000010_Node000007"><a xlink:title=" ">
<path fill="none" stroke="#63b8ff" d="M272.39,-193.07C259.2,-185.5 246.53,-175.33 239,-162 232.44,-150.39 231.21,-142.82 239,-132 306.74,-37.93 454.25,-19.03 533.37,-15.93"/>
<polygon fill="#63b8ff" stroke="#63b8ff" points="271.08,-196.34 281.56,-197.91 274.35,-190.15 271.08,-196.34"/>
</a>
</g>
</g>
<!-- Node10&#45;&gt;Node9 -->
<g id="edge12_Node000010_Node000009" class="edge">
<title>Node10&#45;&gt;Node9</title>
<g id="a_edge12_Node000010_Node000009"><a xlink:title=" ">
<path fill="none" stroke="#63b8ff" d="M322,-187.54C322,-178.96 322,-169.61 322,-162.16"/>
<polygon fill="#63b8ff" stroke="#63b8ff" points="318.5,-187.8 322,-197.8 325.5,-187.8 318.5,-187.8"/>
</a>
</g>
</g>
<!-- Node12 -->
<g id="Node000012" class="node">
<title>Node12</title>
<g id="a_Node000012"><a xlink:href="TimeManager_8cpp.html" target="_top" xlink:title=" ">
<polygon fill="white" stroke="#666666" points="1022.5,-162 883.5,-162 883.5,-132 1022.5,-132 1022.5,-162"/>
<text text-anchor="start" x="891.5" y="-150" font-family="Helvetica,sans-Serif" font-size="10.00">main/ceo/managers/time</text>
<text text-anchor="middle" x="953" y="-139" font-family="Helvetica,sans-Serif" font-size="10.00">/TimeManager.cpp</text>
</a>
</g>
</g>
<!-- Node11&#45;&gt;Node12 -->
<g id="edge14_Node000011_Node000012" class="edge">
<title>Node11&#45;&gt;Node12</title>
<g id="a_edge14_Node000011_Node000012"><a xlink:title=" ">
<path fill="none" stroke="#63b8ff" d="M896.69,-259.19C910.48,-251.39 924.51,-241.06 934,-228 948.35,-208.25 952,-179.19 952.85,-162.07"/>
<polygon fill="#63b8ff" stroke="#63b8ff" points="894.91,-256.17 887.71,-263.95 898.19,-262.36 894.91,-256.17"/>
</a>
</g>
</g>
<!-- Node13 -->
<g id="Node000013" class="node">
<title>Node13</title>
<g id="a_Node000013"><a xlink:href="TimeManager_8hpp.html" target="_top" xlink:title="The biological clock and circadian rhythm (pacemaker) of the organism.">
<polygon fill="white" stroke="#666666" points="925,-228 779,-228 779,-198 925,-198 925,-228"/>
<text text-anchor="start" x="787" y="-216" font-family="Helvetica,sans-Serif" font-size="10.00">main/ceo/managers/time</text>
<text text-anchor="middle" x="852" y="-205" font-family="Helvetica,sans-Serif" font-size="10.00">/include/TimeManager.hpp</text>
</a>
</g>
</g>
<!-- Node11&#45;&gt;Node13 -->
<g id="edge15_Node000011_Node000013" class="edge">
<title>Node11&#45;&gt;Node13</title>
<g id="a_edge15_Node000011_Node000013"><a xlink:title=" ">
<path fill="none" stroke="#63b8ff" d="M852,-253.54C852,-244.96 852,-235.61 852,-228.16"/>
<polygon fill="#63b8ff" stroke="#63b8ff" points="848.5,-253.8 852,-263.8 855.5,-253.8 848.5,-253.8"/>
</a>
</g>
</g>
<!-- Node13&#45;&gt;Node7 -->
<g id="edge16_Node000013_Node000007" class="edge">
<title>Node13&#45;&gt;Node7</title>
<g id="a_edge16_Node000013_Node000007"><a xlink:title=" ">
<path fill="none" stroke="#63b8ff" d="M839.24,-189.06C829.26,-172.24 814.37,-149.4 798,-132 764.98,-96.91 753.9,-89.78 712,-66 680.07,-47.88 640.27,-33.28 614.04,-24.63"/>
<polygon fill="#63b8ff" stroke="#63b8ff" points="836.21,-190.81 844.25,-197.71 842.27,-187.3 836.21,-190.81"/>
</a>
</g>
</g>
<!-- Node13&#45;&gt;Node12 -->
<g id="edge26_Node000013_Node000012" class="edge">
<title>Node13&#45;&gt;Node12</title>
<g id="a_edge26_Node000013_Node000012"><a xlink:title=" ">
<path fill="none" stroke="#63b8ff" d="M883.09,-192.3C898.46,-182.56 916.67,-171.02 930.65,-162.16"/>
<polygon fill="#63b8ff" stroke="#63b8ff" points="880.99,-189.49 874.42,-197.8 884.74,-195.4 880.99,-189.49"/>
</a>
</g>
</g>
<!-- Node13&#45;&gt;Node14 -->
<g id="edge17_Node000013_Node000014" class="edge">
<title>Node13&#45;&gt;Node14</title>
<g id="a_edge17_Node000013_Node000014"><a xlink:title=" ">
<path fill="none" stroke="#63b8ff" d="M768.53,-196.2C713.23,-185.72 641.34,-172.11 588.07,-162.03"/>
<polygon fill="#63b8ff" stroke="#63b8ff" points="768.18,-199.69 778.66,-198.11 769.48,-192.81 768.18,-199.69"/>
</a>
</g>
</g>
<!-- Node13&#45;&gt;Node16 -->
<g id="edge22_Node000013_Node000016" class="edge">
<title>Node13&#45;&gt;Node16</title>
<g id="a_edge22_Node000013_Node000016"><a xlink:title=" ">
<path fill="none" stroke="#63b8ff" d="M855.82,-187.95C859.17,-171.43 865.09,-149.41 875,-132 882.78,-118.33 895.03,-105.46 905.07,-96.21"/>
<polygon fill="#63b8ff" stroke="#63b8ff" points="852.36,-187.45 853.98,-197.92 859.24,-188.72 852.36,-187.45"/>
</a>
</g>
</g>
<!-- Node13&#45;&gt;Node17 -->
<g id="edge23_Node000013_Node000017" class="edge">
<title>Node13&#45;&gt;Node17</title>
<g id="a_edge23_Node000013_Node000017"><a xlink:title=" ">
<path fill="none" stroke="#63b8ff" d="M811.58,-193.78C789.2,-183.69 761.79,-171.34 741.09,-162.01"/>
<polygon fill="#63b8ff" stroke="#63b8ff" points="810.28,-197.04 820.84,-197.95 813.16,-190.65 810.28,-197.04"/>
</a>
</g>
</g>
<!-- Node13&#45;&gt;Node18 -->
<g id="edge27_Node000013_Node000018" class="edge">
<title>Node13&#45;&gt;Node18</title>
<g id="a_edge27_Node000013_Node000018"><a xlink:title=" ">
<path fill="none" stroke="#63b8ff" d="M916.94,-195.44C965.8,-182.98 1030.78,-166.42 1069.6,-156.52"/>
<polygon fill="#63b8ff" stroke="#63b8ff" points="915.91,-192.09 907.08,-197.95 917.64,-198.88 915.91,-192.09"/>
</a>
</g>
</g>
<!-- Node13&#45;&gt;Node19 -->
<g id="edge28_Node000013_Node000019" class="edge">
<title>Node13&#45;&gt;Node19</title>
<g id="a_edge28_Node000013_Node000019"><a xlink:title=" ">
<path fill="none" stroke="#63b8ff" d="M935.1,-199.15C1017.13,-186.47 1140.22,-167.44 1210.86,-156.52"/>
<polygon fill="#63b8ff" stroke="#63b8ff" points="934.41,-195.72 925.06,-200.71 935.48,-202.64 934.41,-195.72"/>
</a>
</g>
</g>
<!-- Node14&#45;&gt;Node5 -->
<g id="edge19_Node000014_Node000005" class="edge">
<title>Node14&#45;&gt;Node5</title>
<g id="a_edge19_Node000014_Node000005"><a xlink:title=" ">
<path fill="none" stroke="#63b8ff" d="M460.55,-128.76C379.99,-102.77 228.99,-54.06 154.63,-30.08"/>
<polygon fill="#63b8ff" stroke="#63b8ff" points="459.9,-132.23 470.49,-131.96 462.05,-125.56 459.9,-132.23"/>
</a>
</g>
</g>
<!-- Node14&#45;&gt;Node6 -->
<g id="edge20_Node000014_Node000006" class="edge">
<title>Node14&#45;&gt;Node6</title>
<g id="a_edge20_Node000014_Node000006"><a xlink:title=" ">
<path fill="none" stroke="#63b8ff" d="M427.32,-130.11C370.27,-119.64 296.26,-106.07 241.41,-96.01"/>
<polygon fill="#63b8ff" stroke="#63b8ff" points="426.94,-133.59 437.41,-131.95 428.21,-126.71 426.94,-133.59"/>
</a>
</g>
</g>
<!-- Node14&#45;&gt;Node7 -->
<g id="edge18_Node000014_Node000007" class="edge">
<title>Node14&#45;&gt;Node7</title>
<g id="a_edge18_Node000014_Node000007"><a xlink:title=" ">
<path fill="none" stroke="#63b8ff" d="M493.7,-123.64C481.18,-107.02 469.52,-84.17 481,-66 494.85,-44.06 521.25,-31.55 544.12,-24.53"/>
<polygon fill="#63b8ff" stroke="#63b8ff" points="491.2,-126.12 500.21,-131.71 496.65,-121.72 491.2,-126.12"/>
</a>
</g>
</g>
<!-- Node15 -->
<g id="Node000015" class="node">
<title>Node15</title>
<g id="a_Node000015"><a xlink:href="CommunicationManager_8cpp.html" target="_top" xlink:title=" ">
<polygon fill="white" stroke="#666666" points="682,-96 490,-96 490,-66 682,-66 682,-96"/>
<text text-anchor="start" x="498" y="-84" font-family="Helvetica,sans-Serif" font-size="10.00">main/ceo/managers/communication</text>
<text text-anchor="middle" x="586" y="-73" font-family="Helvetica,sans-Serif" font-size="10.00">/CommunicationManager.cpp</text>
</a>
</g>
</g>
<!-- Node14&#45;&gt;Node15 -->
<g id="edge21_Node000014_Node000015" class="edge">
<title>Node14&#45;&gt;Node15</title>
<g id="a_edge21_Node000014_Node000015"><a xlink:title=" ">
<path fill="none" stroke="#63b8ff" d="M537.71,-124.92C548.33,-115.49 560.57,-104.61 570.07,-96.16"/>
<polygon fill="#63b8ff" stroke="#63b8ff" points="535.13,-122.54 529.98,-131.8 539.78,-127.77 535.13,-122.54"/>
</a>
</g>
</g>
<!-- Node17&#45;&gt;Node7 -->
<g id="edge24_Node000017_Node000007" class="edge">
<title>Node17&#45;&gt;Node7</title>
<g id="a_edge24_Node000017_Node000007"><a xlink:title=" ">
<path fill="none" stroke="#63b8ff" d="M709.61,-121.58C708.14,-104.36 703.66,-81.66 691,-66 673.68,-44.57 644.97,-31.77 621.95,-24.5"/>
<polygon fill="#63b8ff" stroke="#63b8ff" points="706.13,-122.19 710.19,-131.98 713.12,-121.8 706.13,-122.19"/>
</a>
</g>
</g>
<!-- Node17&#45;&gt;Node16 -->
<g id="edge25_Node000017_Node000016" class="edge">
<title>Node17&#45;&gt;Node16</title>
<g id="a_edge25_Node000017_Node000016"><a xlink:title=" ">
<path fill="none" stroke="#63b8ff" d="M766.35,-128.99C800.46,-118.69 843.44,-105.72 875.58,-96.01"/>
<polygon fill="#63b8ff" stroke="#63b8ff" points="765.09,-125.71 756.52,-131.95 767.11,-132.42 765.09,-125.71"/>
</a>
</g>
</g>
</g>
</svg>

<g id="navigator" transform="translate(0 0)" fill="#404254">
  <rect fill="#f2f5e9" fill-opacity="0.5" stroke="#606060" stroke-width=".5" x="0" y="0" width="60" height="60"/>
  <use id="zoomplus" xlink:href="#zoomPlus" x="17" y="9" onmousedown="handleZoom(evt,'in')"/>
  <use id="zoomminus" xlink:href="#zoomMin" x="42" y="9" onmousedown="handleZoom(evt,'out')"/>
  <use id="reset" xlink:href="#resetDef" x="30" y="36" onmousedown="handleReset()"/>
   <use id="arrowup" xlink:href="#arrowUp" x="0" y="0" onmousedown="handlePan(0,-1)"/>
  <use id="arrowright" xlink:href="#arrowRight" x="0" y="0" onmousedown="handlePan(1,0)"/>
  <use id="arrowdown" xlink:href="#arrowDown" x="0" y="0" onmousedown="handlePan(0,1)"/>
  <use id="arrowleft" xlink:href="#arrowLeft" x="0" y="0" onmousedown="handlePan(-1,0)"/>
</g>
<svg viewBox="0 0 15 15" width="100%" height="30px" preserveAspectRatio="xMaxYMin meet">
 <g id="arrow_out" transform="scale(0.3 0.3)">
  <a xlink:href="SPIBus_8hpp__dep__incl_org.svg" target="_base">
   <rect id="button" ry="5" rx="5" y="6" x="6" height="38" width="38"
        fill="#f2f5e9" fill-opacity="0.5" stroke="#606060" stroke-width="1.0"/>
   <path id="arrow"
     d="M 11.500037,31.436501 C 11.940474,20.09759 22.043105,11.32322 32.158766,21.979434 L 37.068811,17.246167 C 37.068811,17.246167 37.088388,32 37.088388,32 L 22.160133,31.978069 C 22.160133,31.978069 26.997745,27.140456 26.997745,27.140456 C 18.528582,18.264221 13.291696,25.230495 11.500037,31.436501 z"
     style="fill:#404040;"/>
  </a>
 </g>
</svg>

<style type='text/css'>
<![CDATA[
[data-mouse-over-selected='false'] { opacity: 0.7; }
[data-mouse-over-selected='true']  { opacity: 1.0; }
]]>
</style>
<script type="application/ecmascript"><![CDATA[
document.addEventListener('DOMContentLoaded', (event) => {
  highlightEdges();
  highlightAdjacentNodes();
});
]]></script>
</svg>
