<?xml version="1.0" encoding="UTF-8" standalone="no"?>
<!DOCTYPE svg PUBLIC "-//W3C//DTD SVG 1.1//EN"
 "http://www.w3.org/Graphics/SVG/1.1/DTD/svg11.dtd">
<!-- Generated by graphviz version 2.43.0 (0)
 -->
<!-- Title: main/ceo/managers/storage/include/StorageManager.hpp Pages: 1 -->
<!--zoomable 368 -->

<svg id="main" version="1.1" xmlns="http://www.w3.org/2000/svg" xmlns:xlink="http://www.w3.org/1999/xlink" xml:space="preserve" onload="init(evt)">
<style type="text/css"><![CDATA[
.node, .edge {opacity: 0.7;}
.node.selected, .edge.selected {opacity: 1;}
.edge:hover path { stroke: red; }
.edge:hover polygon { stroke: red; fill: red; }
]]></style>

<defs>
  <circle id="rim" cx="0" cy="0" r="7"/>
  <circle id="rim2" cx="0" cy="0" r="3.5"/>
  <g id="zoomPlus">
    <use xlink:href="#rim" fill="#404040"><set attributeName="fill" to="#808080" begin="zoomplus.mouseover" end="zoomplus.mouseout"/></use>
    <path d="M-4,0h8M0,-4v8" fill="none" stroke="white" stroke-width="1.5" pointer-events="none"/>
  </g>
  <g id="zoomMin">
    <use xlink:href="#rim" fill="#404040"><set attributeName="fill" to="#808080" begin="zoomminus.mouseover" end="zoomminus.mouseout"/></use>
    <path d="M-4,0h8" fill="none" stroke="white" stroke-width="1.5" pointer-events="none"/>
  </g>
  <g id="arrowUp" transform="translate(30 24)">
    <use xlink:href="#rim"/>
    <path pointer-events="none" fill="none" stroke="white" stroke-width="1.5" d="M0,-3.0v7 M-2.5,-0.5L0,-3.0L2.5,-0.5"/>
  </g>
  <g id="arrowRight" transform="rotate(90) translate(36 -43)">
    <use xlink:href="#rim"/>
    <path pointer-events="none" fill="none" stroke="white" stroke-width="1.5" d="M0,-3.0v7 M-2.5,-0.5L0,-3.0L2.5,-0.5"/>
  </g>
  <g id="arrowDown" transform="rotate(180) translate(-30 -48)">
    <use xlink:href="#rim"/>
    <path pointer-events="none" fill="none" stroke="white" stroke-width="1.5" d="M0,-3.0v7 M-2.5,-0.5L0,-3.0L2.5,-0.5"/>
  </g>
  <g id="arrowLeft" transform="rotate(270) translate(-36 17)">
    <use xlink:href="#rim"/>
    <path pointer-events="none" fill="none" stroke="white" stroke-width="1.5" d="M0,-3.0v7 M-2.5,-0.5L0,-3.0L2.5,-0.5"/>
  </g>
  <g id="resetDef">
    <use xlink:href="#rim2" fill="#404040"><set attributeName="fill" to="#808080" begin="reset.mouseover" end="reset.mouseout"/></use>
  </g>
</defs>
<script type="application/ecmascript">
var viewWidth = 1259;
var viewHeight = 368;
var sectionId = 'dynsection-0';
</script>
<script type="application/ecmascript" xlink:href="svg.min.js"/>
<svg id="graph" class="graph">
<g id="viewport">
<title>main/ceo/managers/storage/include/StorageManager.hpp</title>
<!-- Node1 -->
<g id="Node000001" class="node">
<title>Node1</title>
<g id="a_Node000001"><a xlink:title="The long&#45;term memory and archivist (hippocampus) of the organism.">
<polygon fill="#999999" stroke="#666666" points="357.71,-360 199.71,-360 199.71,-330 357.71,-330 357.71,-360"/>
<text text-anchor="start" x="207.71" y="-348" font-family="Helvetica,sans-Serif" font-size="10.00">main/ceo/managers/storage</text>
<text text-anchor="middle" x="278.71" y="-337" font-family="Helvetica,sans-Serif" font-size="10.00">/include/StorageManager.hpp</text>
</a>
</g>
</g>
<!-- Node2 -->
<g id="Node000002" class="node">
<title>Node2</title>
<g id="a_Node000002"><a xlink:title=" ">
<polygon fill="#e0e0e0" stroke="#999999" points="359.21,-19 306.21,-19 306.21,0 359.21,0 359.21,-19"/>
<text text-anchor="middle" x="332.71" y="-7" font-family="Helvetica,sans-Serif" font-size="10.00">stdint.h</text>
</a>
</g>
</g>
<!-- Node1&#45;&gt;Node2 -->
<g id="edge1_Node000001_Node000002" class="edge">
<title>Node1&#45;&gt;Node2</title>
<g id="a_edge1_Node000001_Node000002"><a xlink:title=" ">
<path fill="none" stroke="#63b8ff" d="M199.61,-337.68C133.42,-330.82 45.73,-317.54 19.71,-294 -2.13,-274.24 0.71,-259.96 0.71,-230.5 0.71,-230.5 0.71,-230.5 0.71,-118.5 0.71,-56.97 209.54,-25.11 295.95,-14.55"/>
<polygon fill="#63b8ff" stroke="#63b8ff" points="296.59,-18 306.1,-13.35 295.76,-11.05 296.59,-18"/>
</a>
</g>
</g>
<!-- Node3 -->
<g id="Node000003" class="node">
<title>Node3</title>
<g id="a_Node000003"><a xlink:title=" ">
<polygon fill="#e0e0e0" stroke="#999999" points="84.71,-294 28.71,-294 28.71,-275 84.71,-275 84.71,-294"/>
<text text-anchor="middle" x="56.71" y="-282" font-family="Helvetica,sans-Serif" font-size="10.00">stddef.h</text>
</a>
</g>
</g>
<!-- Node1&#45;&gt;Node3 -->
<g id="edge2_Node000001_Node000003" class="edge">
<title>Node1&#45;&gt;Node3</title>
<g id="a_edge2_Node000001_Node000003"><a xlink:title=" ">
<path fill="none" stroke="#63b8ff" d="M225.54,-329.99C185.26,-319.37 130.89,-305.05 94.86,-295.55"/>
<polygon fill="#63b8ff" stroke="#63b8ff" points="95.31,-292.05 84.75,-292.89 93.53,-298.82 95.31,-292.05"/>
</a>
</g>
</g>
<!-- Node4 -->
<g id="Node000004" class="node">
<title>Node4</title>
<g id="a_Node000004"><a xlink:title=" ">
<polygon fill="#e0e0e0" stroke="#999999" points="146.71,-294 102.71,-294 102.71,-275 146.71,-275 146.71,-294"/>
<text text-anchor="middle" x="124.71" y="-282" font-family="Helvetica,sans-Serif" font-size="10.00">string</text>
</a>
</g>
</g>
<!-- Node1&#45;&gt;Node4 -->
<g id="edge3_Node000001_Node000004" class="edge">
<title>Node1&#45;&gt;Node4</title>
<g id="a_edge3_Node000001_Node000004"><a xlink:title=" ">
<path fill="none" stroke="#63b8ff" d="M241.82,-329.99C215.86,-320.12 181.45,-307.05 156.66,-297.64"/>
<polygon fill="#63b8ff" stroke="#63b8ff" points="157.6,-294.25 147,-293.97 155.11,-300.79 157.6,-294.25"/>
</a>
</g>
</g>
<!-- Node5 -->
<g id="Node000005" class="node">
<title>Node5</title>
<g id="a_Node000005"><a xlink:title=" ">
<polygon fill="#e0e0e0" stroke="#999999" points="212.21,-294 165.21,-294 165.21,-275 212.21,-275 212.21,-294"/>
<text text-anchor="middle" x="188.71" y="-282" font-family="Helvetica,sans-Serif" font-size="10.00">vector</text>
</a>
</g>
</g>
<!-- Node1&#45;&gt;Node5 -->
<g id="edge4_Node000001_Node000005" class="edge">
<title>Node1&#45;&gt;Node5</title>
<g id="a_edge4_Node000001_Node000005"><a xlink:title=" ">
<path fill="none" stroke="#63b8ff" d="M256.92,-329.84C242.84,-320.68 224.58,-308.82 210.5,-299.66"/>
<polygon fill="#63b8ff" stroke="#63b8ff" points="212.23,-296.61 201.93,-294.09 208.41,-302.48 212.23,-296.61"/>
</a>
</g>
</g>
<!-- Node6 -->
<g id="Node000006" class="node">
<title>Node6</title>
<g id="a_Node000006"><a xlink:title=" ">
<polygon fill="#e0e0e0" stroke="#999999" points="256.21,-239 191.21,-239 191.21,-220 256.21,-220 256.21,-239"/>
<text text-anchor="middle" x="223.71" y="-227" font-family="Helvetica,sans-Serif" font-size="10.00">functional</text>
</a>
</g>
</g>
<!-- Node1&#45;&gt;Node6 -->
<g id="edge5_Node000001_Node000006" class="edge">
<title>Node1&#45;&gt;Node6</title>
<g id="a_edge5_Node000001_Node000006"><a xlink:title=" ">
<path fill="none" stroke="#63b8ff" d="M275.01,-329.79C271,-315.51 263.93,-293.08 254.71,-275 249.8,-265.37 243.06,-255.43 237.12,-247.39"/>
<polygon fill="#63b8ff" stroke="#63b8ff" points="239.74,-245.06 230.89,-239.24 234.18,-249.31 239.74,-245.06"/>
</a>
</g>
</g>
<!-- Node7 -->
<g id="Node000007" class="node">
<title>Node7</title>
<g id="a_Node000007"><a xlink:title=" ">
<polygon fill="#e0e0e0" stroke="#999999" points="535.21,-74 474.21,-74 474.21,-55 535.21,-55 535.21,-74"/>
<text text-anchor="middle" x="504.71" y="-62" font-family="Helvetica,sans-Serif" font-size="10.00">esp_err.h</text>
</a>
</g>
</g>
<!-- Node1&#45;&gt;Node7 -->
<g id="edge6_Node000001_Node000007" class="edge">
<title>Node1&#45;&gt;Node7</title>
<g id="a_edge6_Node000001_Node000007"><a xlink:title=" ">
<path fill="none" stroke="#63b8ff" d="M267.65,-329.81C256.33,-315.54 238,-293.11 220.71,-275 204.42,-257.94 191.17,-260.61 181.71,-239 178.32,-231.26 177,-227.01 181.71,-220 241.42,-131.15 309.6,-178.11 404.71,-129 433.55,-114.11 464.84,-93.44 484.6,-79.78"/>
<polygon fill="#63b8ff" stroke="#63b8ff" points="486.62,-82.64 492.81,-74.05 482.61,-76.9 486.62,-82.64"/>
</a>
</g>
</g>
<!-- Node8 -->
<g id="Node000008" class="node">
<title>Node8</title>
<g id="a_Node000008"><a xlink:title=" ">
<polygon fill="#e0e0e0" stroke="#999999" points="350.21,-294 307.21,-294 307.21,-275 350.21,-275 350.21,-294"/>
<text text-anchor="middle" x="328.71" y="-282" font-family="Helvetica,sans-Serif" font-size="10.00">nvs.h</text>
</a>
</g>
</g>
<!-- Node1&#45;&gt;Node8 -->
<g id="edge7_Node000001_Node000008" class="edge">
<title>Node1&#45;&gt;Node8</title>
<g id="a_edge7_Node000001_Node000008"><a xlink:title=" ">
<path fill="none" stroke="#63b8ff" d="M290.82,-329.84C298,-321.43 307.14,-310.74 314.64,-301.96"/>
<polygon fill="#63b8ff" stroke="#63b8ff" points="317.38,-304.14 321.22,-294.27 312.06,-299.59 317.38,-304.14"/>
</a>
</g>
</g>
<!-- Node9 -->
<g id="Node000009" class="node">
<title>Node9</title>
<g id="a_Node000009"><a xlink:href="IManager_8hpp.html" target="_top" xlink:title="The abstract behavioral contract for all managers.">
<polygon fill="white" stroke="#666666" points="1235.21,-19 1152.21,-19 1152.21,0 1235.21,0 1235.21,-19"/>
<text text-anchor="middle" x="1193.71" y="-7" font-family="Helvetica,sans-Serif" font-size="10.00">IManager.hpp</text>
</a>
</g>
</g>
<!-- Node1&#45;&gt;Node9 -->
<g id="edge8_Node000001_Node000009" class="edge">
<title>Node1&#45;&gt;Node9</title>
<g id="a_edge8_Node000001_Node000009"><a xlink:title=" ">
<path fill="none" stroke="#63b8ff" d="M357.84,-343.03C589.61,-339.13 1250.71,-320.17 1250.71,-230.5 1250.71,-230.5 1250.71,-230.5 1250.71,-118.5 1250.71,-82.51 1225.65,-46.76 1208.76,-26.76"/>
<polygon fill="#63b8ff" stroke="#63b8ff" points="1211.35,-24.4 1202.12,-19.2 1206.09,-29.02 1211.35,-24.4"/>
</a>
</g>
</g>
<!-- Node10 -->
<g id="Node000010" class="node">
<title>Node10</title>
<g id="a_Node000010"><a xlink:href="DataManager_8hpp.html" target="_top" xlink:title="The collective consciousness and unified system state mirror.">
<polygon fill="white" stroke="#666666" points="904.21,-74 801.21,-74 801.21,-55 904.21,-55 904.21,-74"/>
<text text-anchor="middle" x="852.71" y="-62" font-family="Helvetica,sans-Serif" font-size="10.00">DataManager.hpp</text>
</a>
</g>
</g>
<!-- Node1&#45;&gt;Node10 -->
<g id="edge9_Node000001_Node000010" class="edge">
<title>Node1&#45;&gt;Node10</title>
<g id="a_edge9_Node000001_Node000010"><a xlink:title=" ">
<path fill="none" stroke="#63b8ff" d="M357.81,-338.42C464.35,-328.7 658.19,-303.14 810.71,-239 879.24,-210.18 918.85,-201.16 936.71,-129 938.74,-120.8 941.07,-117.23 936.71,-110 927.62,-94.89 911.49,-84.65 895.78,-77.83"/>
<polygon fill="#63b8ff" stroke="#63b8ff" points="896.7,-74.44 886.11,-74.02 894.13,-80.95 896.7,-74.44"/>
</a>
</g>
</g>
<!-- Node17 -->
<g id="Node000017" class="node">
<title>Node17</title>
<g id="a_Node000017"><a xlink:href="BusManager_8hpp.html" target="_top" xlink:title="The peripheral nervous system managing all communication pathways.">
<polygon fill="white" stroke="#666666" points="779.71,-184 681.71,-184 681.71,-165 779.71,-165 779.71,-184"/>
<text text-anchor="middle" x="730.71" y="-172" font-family="Helvetica,sans-Serif" font-size="10.00">BusManager.hpp</text>
</a>
</g>
</g>
<!-- Node1&#45;&gt;Node17 -->
<g id="edge18_Node000001_Node000017" class="edge">
<title>Node1&#45;&gt;Node17</title>
<g id="a_edge18_Node000001_Node000017"><a xlink:title=" ">
<path fill="none" stroke="#63b8ff" d="M358.13,-334.04C467.63,-318.75 657.13,-286.23 706.71,-239 719.1,-227.2 725.16,-208.36 728.08,-194.26"/>
<polygon fill="#63b8ff" stroke="#63b8ff" points="731.56,-194.64 729.81,-184.19 724.66,-193.46 731.56,-194.64"/>
</a>
</g>
</g>
<!-- Node25 -->
<g id="Node000025" class="node">
<title>Node25</title>
<g id="a_Node000025"><a xlink:href="TimeManager_8hpp.html" target="_top" xlink:title="The biological clock and circadian rhythm (pacemaker) of the organism.">
<polygon fill="white" stroke="#666666" points="527.71,-294 423.71,-294 423.71,-275 527.71,-275 527.71,-294"/>
<text text-anchor="middle" x="475.71" y="-282" font-family="Helvetica,sans-Serif" font-size="10.00">TimeManager.hpp</text>
</a>
</g>
</g>
<!-- Node1&#45;&gt;Node25 -->
<g id="edge46_Node000001_Node000025" class="edge">
<title>Node1&#45;&gt;Node25</title>
<g id="a_edge46_Node000001_Node000025"><a xlink:title=" ">
<path fill="none" stroke="#63b8ff" d="M325.9,-329.99C359.9,-319.89 405.21,-306.44 437.07,-296.98"/>
<polygon fill="#63b8ff" stroke="#63b8ff" points="438.32,-300.26 446.91,-294.05 436.32,-293.55 438.32,-300.26"/>
</a>
</g>
</g>
<!-- Node10&#45;&gt;Node2 -->
<g id="edge10_Node000010_Node000002" class="edge">
<title>Node10&#45;&gt;Node2</title>
<g id="a_edge10_Node000010_Node000002"><a xlink:title=" ">
<path fill="none" stroke="#63b8ff" d="M800.95,-58.22C695.93,-47.52 460.1,-23.48 369.3,-14.23"/>
<polygon fill="#63b8ff" stroke="#63b8ff" points="369.52,-10.73 359.22,-13.2 368.81,-17.7 369.52,-10.73"/>
</a>
</g>
</g>
<!-- Node10&#45;&gt;Node9 -->
<g id="edge17_Node000010_Node000009" class="edge">
<title>Node10&#45;&gt;Node9</title>
<g id="a_edge17_Node000010_Node000009"><a xlink:title=" ">
<path fill="none" stroke="#63b8ff" d="M904.5,-55.45C968.88,-45.44 1078.07,-28.47 1142.28,-18.49"/>
<polygon fill="#63b8ff" stroke="#63b8ff" points="1142.84,-21.95 1152.19,-16.95 1141.77,-15.03 1142.84,-21.95"/>
</a>
</g>
</g>
<!-- Node11 -->
<g id="Node000011" class="node">
<title>Node11</title>
<g id="a_Node000011"><a xlink:title=" ">
<polygon fill="#e0e0e0" stroke="#999999" points="844.21,-19 791.21,-19 791.21,0 844.21,0 844.21,-19"/>
<text text-anchor="middle" x="817.71" y="-7" font-family="Helvetica,sans-Serif" font-size="10.00">string.h</text>
</a>
</g>
</g>
<!-- Node10&#45;&gt;Node11 -->
<g id="edge11_Node000010_Node000011" class="edge">
<title>Node10&#45;&gt;Node11</title>
<g id="a_edge11_Node000010_Node000011"><a xlink:title=" ">
<path fill="none" stroke="#63b8ff" d="M846.93,-54.75C842.09,-47.42 835.03,-36.73 829.07,-27.7"/>
<polygon fill="#63b8ff" stroke="#63b8ff" points="831.81,-25.5 823.38,-19.09 825.97,-29.36 831.81,-25.5"/>
</a>
</g>
</g>
<!-- Node12 -->
<g id="Node000012" class="node">
<title>Node12</title>
<g id="a_Node000012"><a xlink:title=" ">
<polygon fill="#e0e0e0" stroke="#999999" points="931.21,-19 862.21,-19 862.21,0 931.21,0 931.21,-19"/>
<text text-anchor="middle" x="896.71" y="-7" font-family="Helvetica,sans-Serif" font-size="10.00">type_traits</text>
</a>
</g>
</g>
<!-- Node10&#45;&gt;Node12 -->
<g id="edge12_Node000010_Node000012" class="edge">
<title>Node10&#45;&gt;Node12</title>
<g id="a_edge12_Node000010_Node000012"><a xlink:title=" ">
<path fill="none" stroke="#63b8ff" d="M859.98,-54.75C866.26,-47.18 875.5,-36.05 883.14,-26.84"/>
<polygon fill="#63b8ff" stroke="#63b8ff" points="885.89,-29.02 889.58,-19.09 880.5,-24.55 885.89,-29.02"/>
</a>
</g>
</g>
<!-- Node13 -->
<g id="Node000013" class="node">
<title>Node13</title>
<g id="a_Node000013"><a xlink:title=" ">
<polygon fill="#e0e0e0" stroke="#999999" points="1062.21,-19 949.21,-19 949.21,0 1062.21,0 1062.21,-19"/>
<text text-anchor="middle" x="1005.71" y="-7" font-family="Helvetica,sans-Serif" font-size="10.00">freertos/FreeRTOS.h</text>
</a>
</g>
</g>
<!-- Node10&#45;&gt;Node13 -->
<g id="edge13_Node000010_Node000013" class="edge">
<title>Node10&#45;&gt;Node13</title>
<g id="a_edge13_Node000010_Node000013"><a xlink:title=" ">
<path fill="none" stroke="#63b8ff" d="M877.29,-54.98C902.76,-46.16 942.75,-32.31 971.34,-22.41"/>
<polygon fill="#63b8ff" stroke="#63b8ff" points="972.63,-25.66 980.94,-19.08 970.34,-19.05 972.63,-25.66"/>
</a>
</g>
</g>
<!-- Node14 -->
<g id="Node000014" class="node">
<title>Node14</title>
<g id="a_Node000014"><a xlink:title=" ">
<polygon fill="#e0e0e0" stroke="#999999" points="573.21,-19 470.21,-19 470.21,0 573.21,0 573.21,-19"/>
<text text-anchor="middle" x="521.71" y="-7" font-family="Helvetica,sans-Serif" font-size="10.00">freertos/semphr.h</text>
</a>
</g>
</g>
<!-- Node10&#45;&gt;Node14 -->
<g id="edge14_Node000010_Node000014" class="edge">
<title>Node10&#45;&gt;Node14</title>
<g id="a_edge14_Node000010_Node000014"><a xlink:title=" ">
<path fill="none" stroke="#63b8ff" d="M800.99,-55.22C742.17,-45.8 646.19,-30.43 583.49,-20.39"/>
<polygon fill="#63b8ff" stroke="#63b8ff" points="583.77,-16.89 573.34,-18.77 582.66,-23.8 583.77,-16.89"/>
</a>
</g>
</g>
<!-- Node15 -->
<g id="Node000015" class="node">
<title>Node15</title>
<g id="a_Node000015"><a xlink:title=" ">
<polygon fill="#e0e0e0" stroke="#999999" points="691.71,-19 591.71,-19 591.71,0 691.71,0 691.71,-19"/>
<text text-anchor="middle" x="641.71" y="-7" font-family="Helvetica,sans-Serif" font-size="10.00">esp_heap_caps.h</text>
</a>
</g>
</g>
<!-- Node10&#45;&gt;Node15 -->
<g id="edge15_Node000010_Node000015" class="edge">
<title>Node10&#45;&gt;Node15</title>
<g id="a_edge15_Node000010_Node000015"><a xlink:title=" ">
<path fill="none" stroke="#63b8ff" d="M818.81,-54.98C782.7,-45.91 725.39,-31.52 685.79,-21.57"/>
<polygon fill="#63b8ff" stroke="#63b8ff" points="686.43,-18.12 675.88,-19.08 684.72,-24.91 686.43,-18.12"/>
</a>
</g>
</g>
<!-- Node16 -->
<g id="Node000016" class="node">
<title>Node16</title>
<g id="a_Node000016"><a xlink:title=" ">
<polygon fill="#e0e0e0" stroke="#999999" points="773.21,-19 710.21,-19 710.21,0 773.21,0 773.21,-19"/>
<text text-anchor="middle" x="741.71" y="-7" font-family="Helvetica,sans-Serif" font-size="10.00">esp_log.h</text>
</a>
</g>
</g>
<!-- Node10&#45;&gt;Node16 -->
<g id="edge16_Node000010_Node000016" class="edge">
<title>Node10&#45;&gt;Node16</title>
<g id="a_edge16_Node000010_Node000016"><a xlink:title=" ">
<path fill="none" stroke="#63b8ff" d="M834.88,-54.98C817.1,-46.5 789.56,-33.35 769.03,-23.54"/>
<polygon fill="#63b8ff" stroke="#63b8ff" points="770.4,-20.32 759.87,-19.17 767.39,-26.64 770.4,-20.32"/>
</a>
</g>
</g>
<!-- Node17&#45;&gt;Node7 -->
<g id="edge19_Node000017_Node000007" class="edge">
<title>Node17&#45;&gt;Node7</title>
<g id="a_edge19_Node000017_Node000007"><a xlink:title=" ">
<path fill="none" stroke="#63b8ff" d="M694.91,-164.93C666.8,-157.46 627.13,-145.28 594.71,-129 568.08,-115.63 540.52,-95.01 523.03,-80.92"/>
<polygon fill="#63b8ff" stroke="#63b8ff" points="524.82,-77.85 514.86,-74.21 520.38,-83.26 524.82,-77.85"/>
</a>
</g>
</g>
<!-- Node17&#45;&gt;Node9 -->
<g id="edge23_Node000017_Node000009" class="edge">
<title>Node17&#45;&gt;Node9</title>
<g id="a_edge23_Node000017_Node000009"><a xlink:title=" ">
<path fill="none" stroke="#63b8ff" d="M780.01,-168.72C856.45,-159.63 1006.37,-134.99 1117.71,-74 1141.12,-61.18 1164.09,-40.55 1178.54,-26.31"/>
<polygon fill="#63b8ff" stroke="#63b8ff" points="1181.09,-28.7 1185.64,-19.14 1176.12,-23.78 1181.09,-28.7"/>
</a>
</g>
</g>
<!-- Node17&#45;&gt;Node10 -->
<g id="edge24_Node000017_Node000010" class="edge">
<title>Node17&#45;&gt;Node10</title>
<g id="a_edge24_Node000017_Node000010"><a xlink:title=" ">
<path fill="none" stroke="#63b8ff" d="M779.85,-166.04C820.55,-158.73 873.73,-146.2 886.71,-129 898.05,-113.98 884.31,-94.68 871.06,-81.32"/>
<polygon fill="#63b8ff" stroke="#63b8ff" points="873.19,-78.52 863.51,-74.22 868.39,-83.62 873.19,-78.52"/>
</a>
</g>
</g>
<!-- Node18 -->
<g id="Node000018" class="node">
<title>Node18</title>
<g id="a_Node000018"><a xlink:title=" ">
<polygon fill="#e0e0e0" stroke="#999999" points="878.21,-129 807.21,-129 807.21,-110 878.21,-110 878.21,-129"/>
<text text-anchor="middle" x="842.71" y="-117" font-family="Helvetica,sans-Serif" font-size="10.00">driver/i2c.h</text>
</a>
</g>
</g>
<!-- Node17&#45;&gt;Node18 -->
<g id="edge20_Node000017_Node000018" class="edge">
<title>Node17&#45;&gt;Node18</title>
<g id="a_edge20_Node000017_Node000018"><a xlink:title=" ">
<path fill="none" stroke="#63b8ff" d="M748.71,-164.98C766.64,-156.5 794.43,-143.35 815.14,-133.54"/>
<polygon fill="#63b8ff" stroke="#63b8ff" points="816.85,-136.61 824.39,-129.17 813.85,-130.28 816.85,-136.61"/>
</a>
</g>
</g>
<!-- Node19 -->
<g id="Node000019" class="node">
<title>Node19</title>
<g id="a_Node000019"><a xlink:title=" ">
<polygon fill="#e0e0e0" stroke="#999999" points="1108.71,-74 998.71,-74 998.71,-55 1108.71,-55 1108.71,-74"/>
<text text-anchor="middle" x="1053.71" y="-62" font-family="Helvetica,sans-Serif" font-size="10.00">driver/spi_master.h</text>
</a>
</g>
</g>
<!-- Node17&#45;&gt;Node19 -->
<g id="edge21_Node000017_Node000019" class="edge">
<title>Node17&#45;&gt;Node19</title>
<g id="a_edge21_Node000017_Node000019"><a xlink:title=" ">
<path fill="none" stroke="#63b8ff" d="M770.71,-164.99C806.09,-157.04 858.91,-144.15 903.71,-129 947.76,-114.1 997.1,-92.15 1026.76,-78.35"/>
<polygon fill="#63b8ff" stroke="#63b8ff" points="1028.47,-81.42 1036.04,-74 1025.49,-75.08 1028.47,-81.42"/>
</a>
</g>
</g>
<!-- Node20 -->
<g id="Node000020" class="node">
<title>Node20</title>
<g id="a_Node000020"><a xlink:title=" ">
<polygon fill="#e0e0e0" stroke="#999999" points="630.21,-74 553.21,-74 553.21,-55 630.21,-55 630.21,-74"/>
<text text-anchor="middle" x="591.71" y="-62" font-family="Helvetica,sans-Serif" font-size="10.00">driver/uart.h</text>
</a>
</g>
</g>
<!-- Node17&#45;&gt;Node20 -->
<g id="edge22_Node000017_Node000020" class="edge">
<title>Node17&#45;&gt;Node20</title>
<g id="a_edge22_Node000017_Node000020"><a xlink:title=" ">
<path fill="none" stroke="#63b8ff" d="M681.61,-166.58C656.57,-160.62 627.51,-149.54 608.71,-129 597.63,-116.9 593.64,-98.37 592.26,-84.44"/>
<polygon fill="#63b8ff" stroke="#63b8ff" points="595.73,-83.83 591.62,-74.07 588.74,-84.26 595.73,-83.83"/>
</a>
</g>
</g>
<!-- Node21 -->
<g id="Node000021" class="node">
<title>Node21</title>
<g id="a_Node000021"><a xlink:href="I2CBus_8hpp.html" target="_top" xlink:title="Industrial I2C Master bus driver with health monitoring.">
<polygon fill="white" stroke="#666666" points="396.21,-129 325.21,-129 325.21,-110 396.21,-110 396.21,-129"/>
<text text-anchor="middle" x="360.71" y="-117" font-family="Helvetica,sans-Serif" font-size="10.00">I2CBus.hpp</text>
</a>
</g>
</g>
<!-- Node17&#45;&gt;Node21 -->
<g id="edge25_Node000017_Node000021" class="edge">
<title>Node17&#45;&gt;Node21</title>
<g id="a_edge25_Node000017_Node000021"><a xlink:title=" ">
<path fill="none" stroke="#63b8ff" d="M681.58,-166.46C609.69,-156.16 476.78,-137.13 406.71,-127.09"/>
<polygon fill="#63b8ff" stroke="#63b8ff" points="406.83,-123.57 396.43,-125.62 405.84,-130.5 406.83,-123.57"/>
</a>
</g>
</g>
<!-- Node23 -->
<g id="Node000023" class="node">
<title>Node23</title>
<g id="a_Node000023"><a xlink:href="SPIBus_8hpp.html" target="_top" xlink:title="Industrial SPI Master bus driver with health monitoring.">
<polygon fill="white" stroke="#666666" points="789.21,-129 718.21,-129 718.21,-110 789.21,-110 789.21,-129"/>
<text text-anchor="middle" x="753.71" y="-117" font-family="Helvetica,sans-Serif" font-size="10.00">SPIBus.hpp</text>
</a>
</g>
</g>
<!-- Node17&#45;&gt;Node23 -->
<g id="edge32_Node000017_Node000023" class="edge">
<title>Node17&#45;&gt;Node23</title>
<g id="a_edge32_Node000017_Node000023"><a xlink:title=" ">
<path fill="none" stroke="#63b8ff" d="M734.51,-164.75C737.62,-157.57 742.13,-147.18 746,-138.27"/>
<polygon fill="#63b8ff" stroke="#63b8ff" points="749.21,-139.66 749.98,-129.09 742.79,-136.87 749.21,-139.66"/>
</a>
</g>
</g>
<!-- Node24 -->
<g id="Node000024" class="node">
<title>Node24</title>
<g id="a_Node000024"><a xlink:href="UARTBus_8hpp.html" target="_top" xlink:title="Industrial UART bus driver with health monitoring.">
<polygon fill="white" stroke="#666666" points="699.71,-129 617.71,-129 617.71,-110 699.71,-110 699.71,-129"/>
<text text-anchor="middle" x="658.71" y="-117" font-family="Helvetica,sans-Serif" font-size="10.00">UARTBus.hpp</text>
</a>
</g>
</g>
<!-- Node17&#45;&gt;Node24 -->
<g id="edge39_Node000017_Node000024" class="edge">
<title>Node17&#45;&gt;Node24</title>
<g id="a_edge39_Node000017_Node000024"><a xlink:title=" ">
<path fill="none" stroke="#63b8ff" d="M719.14,-164.98C708.29,-157 691.83,-144.88 678.83,-135.31"/>
<polygon fill="#63b8ff" stroke="#63b8ff" points="680.62,-132.28 670.49,-129.17 676.47,-137.92 680.62,-132.28"/>
</a>
</g>
</g>
<!-- Node21&#45;&gt;Node2 -->
<g id="edge26_Node000021_Node000002" class="edge">
<title>Node21&#45;&gt;Node2</title>
<g id="a_edge26_Node000021_Node000002"><a xlink:title=" ">
<path fill="none" stroke="#63b8ff" d="M325.17,-112.75C302.53,-107.04 274.89,-95.83 260.71,-74 247.03,-52.93 274.42,-34.66 299.26,-23.19"/>
<polygon fill="#63b8ff" stroke="#63b8ff" points="300.8,-26.34 308.57,-19.14 298,-19.92 300.8,-26.34"/>
</a>
</g>
</g>
<!-- Node21&#45;&gt;Node7 -->
<g id="edge30_Node000021_Node000007" class="edge">
<title>Node21&#45;&gt;Node7</title>
<g id="a_edge30_Node000021_Node000007"><a xlink:title=" ">
<path fill="none" stroke="#63b8ff" d="M383.85,-109.98C407.53,-101.27 444.58,-87.63 471.42,-77.75"/>
<polygon fill="#63b8ff" stroke="#63b8ff" points="472.98,-80.91 481.15,-74.17 470.56,-74.34 472.98,-80.91"/>
</a>
</g>
</g>
<!-- Node21&#45;&gt;Node10 -->
<g id="edge31_Node000021_Node000010" class="edge">
<title>Node21&#45;&gt;Node10</title>
<g id="a_edge31_Node000021_Node000010"><a xlink:title=" ">
<path fill="none" stroke="#63b8ff" d="M396.49,-114.65C479.63,-105.69 686.68,-83.39 790.83,-72.17"/>
<polygon fill="#63b8ff" stroke="#63b8ff" points="791.31,-75.63 800.88,-71.08 790.56,-68.67 791.31,-75.63"/>
</a>
</g>
</g>
<!-- Node21&#45;&gt;Node13 -->
<g id="edge28_Node000021_Node000013" class="edge">
<title>Node21&#45;&gt;Node13</title>
<g id="a_edge28_Node000021_Node000013"><a xlink:title=" ">
<path fill="none" stroke="#63b8ff" d="M374.36,-109.93C401.44,-92.97 459.78,-56.59 464.71,-55 663.06,8.95 727.09,-38.98 939,-18.98"/>
<polygon fill="#63b8ff" stroke="#63b8ff" points="939.6,-22.44 949.21,-17.97 938.91,-15.47 939.6,-22.44"/>
</a>
</g>
</g>
<!-- Node21&#45;&gt;Node14 -->
<g id="edge29_Node000021_Node000014" class="edge">
<title>Node21&#45;&gt;Node14</title>
<g id="a_edge29_Node000021_Node000014"><a xlink:title=" ">
<path fill="none" stroke="#63b8ff" d="M368.83,-109.88C381.41,-96.84 406.78,-71.86 431.71,-55 450.35,-42.4 473.08,-31.19 491.03,-23.17"/>
<polygon fill="#63b8ff" stroke="#63b8ff" points="492.69,-26.27 500.46,-19.06 489.89,-19.85 492.69,-26.27"/>
</a>
</g>
</g>
<!-- Node22 -->
<g id="Node000022" class="node">
<title>Node22</title>
<g id="a_Node000022"><a xlink:title=" ">
<polygon fill="#e0e0e0" stroke="#999999" points="379.71,-74 269.71,-74 269.71,-55 379.71,-55 379.71,-74"/>
<text text-anchor="middle" x="324.71" y="-62" font-family="Helvetica,sans-Serif" font-size="10.00">driver/i2c_master.h</text>
</a>
</g>
</g>
<!-- Node21&#45;&gt;Node22 -->
<g id="edge27_Node000021_Node000022" class="edge">
<title>Node21&#45;&gt;Node22</title>
<g id="a_edge27_Node000021_Node000022"><a xlink:title=" ">
<path fill="none" stroke="#63b8ff" d="M354.77,-109.75C349.73,-102.34 342.37,-91.5 336.2,-82.41"/>
<polygon fill="#63b8ff" stroke="#63b8ff" points="339.06,-80.39 330.55,-74.09 333.27,-84.33 339.06,-80.39"/>
</a>
</g>
</g>
<!-- Node23&#45;&gt;Node2 -->
<g id="edge33_Node000023_Node000002" class="edge">
<title>Node23&#45;&gt;Node2</title>
<g id="a_edge33_Node000023_Node000002"><a xlink:title=" ">
<path fill="none" stroke="#63b8ff" d="M744.15,-109.78C728.05,-95.67 693.93,-68.06 659.71,-55 607.29,-34.99 443.66,-19.55 369.69,-13.4"/>
<polygon fill="#63b8ff" stroke="#63b8ff" points="369.7,-9.89 359.44,-12.56 369.13,-16.87 369.7,-9.89"/>
</a>
</g>
</g>
<!-- Node23&#45;&gt;Node7 -->
<g id="edge37_Node000023_Node000007" class="edge">
<title>Node23&#45;&gt;Node7</title>
<g id="a_edge37_Node000023_Node000007"><a xlink:title=" ">
<path fill="none" stroke="#63b8ff" d="M718.03,-111C678.19,-102.62 611.54,-88.55 545.15,-74.3"/>
<polygon fill="#63b8ff" stroke="#63b8ff" points="545.88,-70.88 535.36,-72.2 544.41,-77.72 545.88,-70.88"/>
</a>
</g>
</g>
<!-- Node23&#45;&gt;Node10 -->
<g id="edge38_Node000023_Node000010" class="edge">
<title>Node23&#45;&gt;Node10</title>
<g id="a_edge38_Node000023_Node000010"><a xlink:title=" ">
<path fill="none" stroke="#63b8ff" d="M769.62,-109.98C785.26,-101.61 809.37,-88.7 827.6,-78.95"/>
<polygon fill="#63b8ff" stroke="#63b8ff" points="829.35,-81.98 836.52,-74.17 826.05,-75.8 829.35,-81.98"/>
</a>
</g>
</g>
<!-- Node23&#45;&gt;Node13 -->
<g id="edge35_Node000023_Node000013" class="edge">
<title>Node23&#45;&gt;Node13</title>
<g id="a_edge35_Node000023_Node000013"><a xlink:title=" ">
<path fill="none" stroke="#63b8ff" d="M789.37,-111.46C841.33,-101.02 933.17,-81.83 946.71,-74 966.59,-62.5 983.73,-42.15 994.34,-27.59"/>
<polygon fill="#63b8ff" stroke="#63b8ff" points="997.47,-29.21 1000.32,-19 991.73,-25.2 997.47,-29.21"/>
</a>
</g>
</g>
<!-- Node23&#45;&gt;Node14 -->
<g id="edge36_Node000023_Node000014" class="edge">
<title>Node23&#45;&gt;Node14</title>
<g id="a_edge36_Node000023_Node000014"><a xlink:title=" ">
<path fill="none" stroke="#63b8ff" d="M755.96,-109.86C758.91,-96.35 762.25,-70.19 748.71,-55 743.16,-48.77 648.97,-31.84 583.68,-20.76"/>
<polygon fill="#63b8ff" stroke="#63b8ff" points="583.92,-17.25 573.47,-19.03 582.75,-24.15 583.92,-17.25"/>
</a>
</g>
</g>
<!-- Node23&#45;&gt;Node19 -->
<g id="edge34_Node000023_Node000019" class="edge">
<title>Node23&#45;&gt;Node19</title>
<g id="a_edge34_Node000023_Node000019"><a xlink:title=" ">
<path fill="none" stroke="#63b8ff" d="M789.24,-111.58C792.11,-111.04 794.96,-110.51 797.71,-110 864.47,-97.75 941.2,-84.53 993.1,-75.71"/>
<polygon fill="#63b8ff" stroke="#63b8ff" points="993.87,-79.13 1003.15,-74 992.7,-72.22 993.87,-79.13"/>
</a>
</g>
</g>
<!-- Node24&#45;&gt;Node2 -->
<g id="edge40_Node000024_Node000002" class="edge">
<title>Node24&#45;&gt;Node2</title>
<g id="a_edge40_Node000024_Node000002"><a xlink:title=" ">
<path fill="none" stroke="#63b8ff" d="M658.72,-109.98C658.22,-96.14 655.08,-68.93 638.71,-55 618.46,-37.76 446.18,-20.55 369.39,-13.65"/>
<polygon fill="#63b8ff" stroke="#63b8ff" points="369.49,-10.14 359.22,-12.74 368.87,-17.11 369.49,-10.14"/>
</a>
</g>
</g>
<!-- Node24&#45;&gt;Node7 -->
<g id="edge44_Node000024_Node000007" class="edge">
<title>Node24&#45;&gt;Node7</title>
<g id="a_edge44_Node000024_Node000007"><a xlink:title=" ">
<path fill="none" stroke="#63b8ff" d="M633.97,-109.98C608.34,-101.16 568.08,-87.31 539.3,-77.41"/>
<polygon fill="#63b8ff" stroke="#63b8ff" points="540.24,-74.03 529.65,-74.08 537.96,-80.65 540.24,-74.03"/>
</a>
</g>
</g>
<!-- Node24&#45;&gt;Node10 -->
<g id="edge45_Node000024_Node000010" class="edge">
<title>Node24&#45;&gt;Node10</title>
<g id="a_edge45_Node000024_Node000010"><a xlink:title=" ">
<path fill="none" stroke="#63b8ff" d="M689.88,-109.98C722.87,-100.97 775.11,-86.7 811.49,-76.76"/>
<polygon fill="#63b8ff" stroke="#63b8ff" points="812.57,-80.09 821.3,-74.08 810.73,-73.34 812.57,-80.09"/>
</a>
</g>
</g>
<!-- Node24&#45;&gt;Node13 -->
<g id="edge42_Node000024_Node000013" class="edge">
<title>Node24&#45;&gt;Node13</title>
<g id="a_edge42_Node000024_Node000013"><a xlink:title=" ">
<path fill="none" stroke="#63b8ff" d="M699.88,-111.4C771.16,-99.09 910.25,-75 912.71,-74 928.06,-67.76 963.85,-41.94 986.29,-25.21"/>
<polygon fill="#63b8ff" stroke="#63b8ff" points="988.54,-27.9 994.44,-19.1 984.34,-22.3 988.54,-27.9"/>
</a>
</g>
</g>
<!-- Node24&#45;&gt;Node14 -->
<g id="edge43_Node000024_Node000014" class="edge">
<title>Node24&#45;&gt;Node14</title>
<g id="a_edge43_Node000024_Node000014"><a xlink:title=" ">
<path fill="none" stroke="#63b8ff" d="M664.63,-109.77C672.75,-96.61 685.02,-71.45 672.71,-55 661.68,-40.25 620.38,-28.69 583.76,-21.05"/>
<polygon fill="#63b8ff" stroke="#63b8ff" points="584.08,-17.55 573.59,-19.01 582.7,-24.41 584.08,-17.55"/>
</a>
</g>
</g>
<!-- Node24&#45;&gt;Node20 -->
<g id="edge41_Node000024_Node000020" class="edge">
<title>Node24&#45;&gt;Node20</title>
<g id="a_edge41_Node000024_Node000020"><a xlink:title=" ">
<path fill="none" stroke="#63b8ff" d="M647.95,-109.98C637.95,-102.07 622.82,-90.11 610.78,-80.58"/>
<polygon fill="#63b8ff" stroke="#63b8ff" points="612.69,-77.63 602.67,-74.17 608.34,-83.12 612.69,-77.63"/>
</a>
</g>
</g>
<!-- Node25&#45;&gt;Node2 -->
<g id="edge48_Node000025_Node000002" class="edge">
<title>Node25&#45;&gt;Node2</title>
<g id="a_edge48_Node000025_Node000002"><a xlink:title=" ">
<path fill="none" stroke="#63b8ff" d="M439.46,-274.91C380.41,-258.5 267.52,-216.31 242.71,-129 236.54,-107.27 251.81,-57.62 253.71,-55 264.27,-40.44 281.15,-30.01 296.6,-22.93"/>
<polygon fill="#63b8ff" stroke="#63b8ff" points="298.13,-26.08 305.96,-18.94 295.39,-19.64 298.13,-26.08"/>
</a>
</g>
</g>
<!-- Node25&#45;&gt;Node6 -->
<g id="edge51_Node000025_Node000006" class="edge">
<title>Node25&#45;&gt;Node6</title>
<g id="a_edge51_Node000025_Node000006"><a xlink:title=" ">
<path fill="none" stroke="#63b8ff" d="M435.22,-274.98C388.95,-265.25 313.54,-249.39 266.38,-239.47"/>
<polygon fill="#63b8ff" stroke="#63b8ff" points="266.98,-236.02 256.47,-237.39 265.54,-242.87 266.98,-236.02"/>
</a>
</g>
</g>
<!-- Node25&#45;&gt;Node7 -->
<g id="edge52_Node000025_Node000007" class="edge">
<title>Node25&#45;&gt;Node7</title>
<g id="a_edge52_Node000025_Node000007"><a xlink:title=" ">
<path fill="none" stroke="#63b8ff" d="M528.01,-279.03C580.41,-273.33 655.77,-261.42 673.71,-239 716.02,-186.13 725.93,-288.68 559.71,-129 544.33,-114.22 528.57,-95.61 517.89,-82.36"/>
<polygon fill="#63b8ff" stroke="#63b8ff" points="520.33,-79.81 511.37,-74.16 514.85,-84.16 520.33,-79.81"/>
</a>
</g>
</g>
<!-- Node25&#45;&gt;Node9 -->
<g id="edge55_Node000025_Node000009" class="edge">
<title>Node25&#45;&gt;Node9</title>
<g id="a_edge55_Node000025_Node000009"><a xlink:title=" ">
<path fill="none" stroke="#63b8ff" d="M527.83,-281.36C695.9,-273.77 1212.71,-244.81 1212.71,-175.5 1212.71,-175.5 1212.71,-175.5 1212.71,-118.5 1212.71,-86.56 1204.55,-50.1 1198.93,-28.77"/>
<polygon fill="#63b8ff" stroke="#63b8ff" points="1202.29,-27.81 1196.27,-19.09 1195.54,-29.66 1202.29,-27.81"/>
</a>
</g>
</g>
<!-- Node25&#45;&gt;Node10 -->
<g id="edge56_Node000025_Node000010" class="edge">
<title>Node25&#45;&gt;Node10</title>
<g id="a_edge56_Node000025_Node000010"><a xlink:title=" ">
<path fill="none" stroke="#63b8ff" d="M527.74,-283.05C610.46,-279.83 773.63,-263.03 881.71,-184 911.56,-162.18 937.18,-142.58 919.71,-110 912.2,-96 898.14,-85.66 884.83,-78.48"/>
<polygon fill="#63b8ff" stroke="#63b8ff" points="886.34,-75.33 875.82,-74.02 883.23,-81.6 886.34,-75.33"/>
</a>
</g>
</g>
<!-- Node25&#45;&gt;Node13 -->
<g id="edge53_Node000025_Node000013" class="edge">
<title>Node25&#45;&gt;Node13</title>
<g id="a_edge53_Node000025_Node000013"><a xlink:title=" ">
<path fill="none" stroke="#63b8ff" d="M527.77,-282.36C594.75,-279.59 713.99,-270.26 810.71,-239 958.11,-191.36 1038.23,-206.96 1117.71,-74 1133.59,-47.43 1099.52,-31.03 1064.89,-21.56"/>
<polygon fill="#63b8ff" stroke="#63b8ff" points="1065.7,-18.16 1055.15,-19.07 1063.97,-24.94 1065.7,-18.16"/>
</a>
</g>
</g>
<!-- Node25&#45;&gt;Node14 -->
<g id="edge54_Node000025_Node000014" class="edge">
<title>Node25&#45;&gt;Node14</title>
<g id="a_edge54_Node000025_Node000014"><a xlink:title=" ">
<path fill="none" stroke="#63b8ff" d="M455.59,-274.89C389.11,-245.3 185.01,-144.71 260.71,-55 285.67,-25.43 390.68,-15.51 459.66,-12.18"/>
<polygon fill="#63b8ff" stroke="#63b8ff" points="460.15,-15.66 469.98,-11.72 459.84,-8.67 460.15,-15.66"/>
</a>
</g>
</g>
<!-- Node25&#45;&gt;Node21 -->
<g id="edge62_Node000025_Node000021" class="edge">
<title>Node25&#45;&gt;Node21</title>
<g id="a_edge62_Node000025_Node000021"><a xlink:title=" ">
<path fill="none" stroke="#63b8ff" d="M457.67,-274.97C443.09,-267.3 422.89,-254.82 409.71,-239 384.63,-208.89 370.87,-164.15 364.73,-139.15"/>
<polygon fill="#63b8ff" stroke="#63b8ff" points="368.08,-138.13 362.42,-129.17 361.26,-139.7 368.08,-138.13"/>
</a>
</g>
</g>
<!-- Node26 -->
<g id="Node000026" class="node">
<title>Node26</title>
<g id="a_Node000026"><a xlink:title=" ">
<polygon fill="#e0e0e0" stroke="#999999" points="442.71,-184 394.71,-184 394.71,-165 442.71,-165 442.71,-184"/>
<text text-anchor="middle" x="418.71" y="-172" font-family="Helvetica,sans-Serif" font-size="10.00">time.h</text>
</a>
</g>
</g>
<!-- Node25&#45;&gt;Node26 -->
<g id="edge47_Node000025_Node000026" class="edge">
<title>Node25&#45;&gt;Node26</title>
<g id="a_edge47_Node000025_Node000026"><a xlink:title=" ">
<path fill="none" stroke="#63b8ff" d="M457.05,-274.97C443.38,-267.59 425.85,-255.5 417.71,-239 410.85,-225.09 411.83,-207.3 414.11,-194.09"/>
<polygon fill="#63b8ff" stroke="#63b8ff" points="417.54,-194.77 416.18,-184.26 410.69,-193.32 417.54,-194.77"/>
</a>
</g>
</g>
<!-- Node27 -->
<g id="Node000027" class="node">
<title>Node27</title>
<g id="a_Node000027"><a xlink:title=" ">
<polygon fill="#e0e0e0" stroke="#999999" points="604.71,-239 542.71,-239 542.71,-220 604.71,-220 604.71,-239"/>
<text text-anchor="middle" x="573.71" y="-227" font-family="Helvetica,sans-Serif" font-size="10.00">stdbool.h</text>
</a>
</g>
</g>
<!-- Node25&#45;&gt;Node27 -->
<g id="edge49_Node000025_Node000027" class="edge">
<title>Node25&#45;&gt;Node27</title>
<g id="a_edge49_Node000025_Node000027"><a xlink:title=" ">
<path fill="none" stroke="#63b8ff" d="M491.46,-274.98C506.94,-266.61 530.8,-253.7 548.85,-243.95"/>
<polygon fill="#63b8ff" stroke="#63b8ff" points="550.55,-247.01 557.68,-239.17 547.22,-240.85 550.55,-247.01"/>
</a>
</g>
</g>
<!-- Node28 -->
<g id="Node000028" class="node">
<title>Node28</title>
<g id="a_Node000028"><a xlink:title=" ">
<polygon fill="#e0e0e0" stroke="#999999" points="664.71,-239 622.71,-239 622.71,-220 664.71,-220 664.71,-239"/>
<text text-anchor="middle" x="643.71" y="-227" font-family="Helvetica,sans-Serif" font-size="10.00">array</text>
</a>
</g>
</g>
<!-- Node25&#45;&gt;Node28 -->
<g id="edge50_Node000025_Node000028" class="edge">
<title>Node25&#45;&gt;Node28</title>
<g id="a_edge50_Node000025_Node000028"><a xlink:title=" ">
<path fill="none" stroke="#63b8ff" d="M502.7,-274.98C532.83,-265.48 581.49,-250.13 613.04,-240.18"/>
<polygon fill="#63b8ff" stroke="#63b8ff" points="614.15,-243.5 622.64,-237.15 612.05,-236.82 614.15,-243.5"/>
</a>
</g>
</g>
<!-- Node29 -->
<g id="Node000029" class="node">
<title>Node29</title>
<g id="a_Node000029"><a xlink:href="ITimeSource_8hpp.html" target="_top" xlink:title="The abstract behavioral contract for all temporal reference organs.">
<polygon fill="white" stroke="#666666" points="524.71,-239 426.71,-239 426.71,-220 524.71,-220 524.71,-239"/>
<text text-anchor="middle" x="475.71" y="-227" font-family="Helvetica,sans-Serif" font-size="10.00">ITimeSource.hpp</text>
</a>
</g>
</g>
<!-- Node25&#45;&gt;Node29 -->
<g id="edge57_Node000025_Node000029" class="edge">
<title>Node25&#45;&gt;Node29</title>
<g id="a_edge57_Node000025_Node000029"><a xlink:title=" ">
<path fill="none" stroke="#63b8ff" d="M475.71,-274.75C475.71,-267.8 475.71,-257.85 475.71,-249.13"/>
<polygon fill="#63b8ff" stroke="#63b8ff" points="479.21,-249.09 475.71,-239.09 472.21,-249.09 479.21,-249.09"/>
</a>
</g>
</g>
<!-- Node29&#45;&gt;Node7 -->
<g id="edge59_Node000029_Node000007" class="edge">
<title>Node29&#45;&gt;Node7</title>
<g id="a_edge59_Node000029_Node000007"><a xlink:title=" ">
<path fill="none" stroke="#63b8ff" d="M477.27,-219.74C481.81,-194.2 495.12,-119.43 501.38,-84.23"/>
<polygon fill="#63b8ff" stroke="#63b8ff" points="504.84,-84.77 503.14,-74.31 497.95,-83.54 504.84,-84.77"/>
</a>
</g>
</g>
<!-- Node29&#45;&gt;Node10 -->
<g id="edge60_Node000029_Node000010" class="edge">
<title>Node29&#45;&gt;Node10</title>
<g id="a_edge60_Node000029_Node000010"><a xlink:title=" ">
<path fill="none" stroke="#63b8ff" d="M524.76,-221.29C527.79,-220.85 530.79,-220.42 533.71,-220 701.33,-195.89 813.42,-272.27 903.71,-129 915.11,-110.91 895.24,-92.03 877.07,-79.61"/>
<polygon fill="#63b8ff" stroke="#63b8ff" points="878.73,-76.52 868.43,-74.06 874.95,-82.41 878.73,-76.52"/>
</a>
</g>
</g>
<!-- Node29&#45;&gt;Node17 -->
<g id="edge61_Node000029_Node000017" class="edge">
<title>Node29&#45;&gt;Node17</title>
<g id="a_edge61_Node000029_Node000017"><a xlink:title=" ">
<path fill="none" stroke="#63b8ff" d="M516.68,-219.98C560.98,-210.78 631.65,-196.09 679.56,-186.13"/>
<polygon fill="#63b8ff" stroke="#63b8ff" points="680.34,-189.54 689.42,-184.08 678.92,-182.69 680.34,-189.54"/>
</a>
</g>
</g>
<!-- Node29&#45;&gt;Node26 -->
<g id="edge58_Node000029_Node000026" class="edge">
<title>Node29&#45;&gt;Node26</title>
<g id="a_edge58_Node000029_Node000026"><a xlink:title=" ">
<path fill="none" stroke="#63b8ff" d="M466.55,-219.98C458.21,-212.23 445.68,-200.58 435.53,-191.14"/>
<polygon fill="#63b8ff" stroke="#63b8ff" points="437.74,-188.42 428.04,-184.17 432.98,-193.54 437.74,-188.42"/>
</a>
</g>
</g>
</g>
</svg>

<g id="navigator" transform="translate(0 0)" fill="#404254">
  <rect fill="#f2f5e9" fill-opacity="0.5" stroke="#606060" stroke-width=".5" x="0" y="0" width="60" height="60"/>
  <use id="zoomplus" xlink:href="#zoomPlus" x="17" y="9" onmousedown="handleZoom(evt,'in')"/>
  <use id="zoomminus" xlink:href="#zoomMin" x="42" y="9" onmousedown="handleZoom(evt,'out')"/>
  <use id="reset" xlink:href="#resetDef" x="30" y="36" onmousedown="handleReset()"/>
   <use id="arrowup" xlink:href="#arrowUp" x="0" y="0" onmousedown="handlePan(0,-1)"/>
  <use id="arrowright" xlink:href="#arrowRight" x="0" y="0" onmousedown="handlePan(1,0)"/>
  <use id="arrowdown" xlink:href="#arrowDown" x="0" y="0" onmousedown="handlePan(0,1)"/>
  <use id="arrowleft" xlink:href="#arrowLeft" x="0" y="0" onmousedown="handlePan(-1,0)"/>
</g>
<svg viewBox="0 0 15 15" width="100%" height="30px" preserveAspectRatio="xMaxYMin meet">
 <g id="arrow_out" transform="scale(0.3 0.3)">
  <a xlink:href="StorageManager_8hpp__incl_org.svg" target="_base">
   <rect id="button" ry="5" rx="5" y="6" x="6" height="38" width="38"
        fill="#f2f5e9" fill-opacity="0.5" stroke="#606060" stroke-width="1.0"/>
   <path id="arrow"
     d="M 11.500037,31.436501 C 11.940474,20.09759 22.043105,11.32322 32.158766,21.979434 L 37.068811,17.246167 C 37.068811,17.246167 37.088388,32 37.088388,32 L 22.160133,31.978069 C 22.160133,31.978069 26.997745,27.140456 26.997745,27.140456 C 18.528582,18.264221 13.291696,25.230495 11.500037,31.436501 z"
     style="fill:#404040;"/>
  </a>
 </g>
</svg>

<style type='text/css'>
<![CDATA[
[data-mouse-over-selected='false'] { opacity: 0.7; }
[data-mouse-over-selected='true']  { opacity: 1.0; }
]]>
</style>
<script type="application/ecmascript"><![CDATA[
document.addEventListener('DOMContentLoaded', (event) => {
  highlightEdges();
  highlightAdjacentNodes();
});
]]></script>
</svg>
