<?xml version="1.0" encoding="UTF-8" standalone="no"?>
<!DOCTYPE svg PUBLIC "-//W3C//DTD SVG 1.1//EN"
 "http://www.w3.org/Graphics/SVG/1.1/DTD/svg11.dtd">
<!-- Generated by graphviz version 2.43.0 (0)
 -->
<!-- Title: lfs_dir Pages: 1 -->
<svg width="111pt" height="303pt"
 viewBox="0.00 0.00 110.50 303.00" xmlns="http://www.w3.org/2000/svg" xmlns:xlink="http://www.w3.org/1999/xlink">
<g id="graph0" class="graph" transform="scale(1 1) rotate(0) translate(4 299)">
<title>lfs_dir</title>
<!-- Node1 -->
<g id="Node000001" class="node">
<title>Node1</title>
<g id="a_Node000001"><a xlink:title=" ">
<polygon fill="#999999" stroke="transparent" points="50.5,-94 4.5,-94 4.5,0 50.5,0 50.5,-94"/>
<text text-anchor="start" x="12" y="-82" font-family="Helvetica,sans-Serif" font-size="10.00">lfs_dir</text>
<text text-anchor="start" x="8.5" y="-67" font-family="Helvetica,sans-Serif" font-size="10.00">+</text>
<text text-anchor="start" x="21.5" y="-67" font-family="Helvetica,sans-Serif" font-size="10.00">id</text>
<text text-anchor="start" x="8.5" y="-52" font-family="Helvetica,sans-Serif" font-size="10.00">+</text>
<text text-anchor="start" x="21.5" y="-52" font-family="Helvetica,sans-Serif" font-size="10.00">type</text>
<text text-anchor="start" x="8.5" y="-37" font-family="Helvetica,sans-Serif" font-size="10.00">+</text>
<text text-anchor="start" x="21.5" y="-37" font-family="Helvetica,sans-Serif" font-size="10.00">pos</text>
<text text-anchor="start" x="8.5" y="-22" font-family="Helvetica,sans-Serif" font-size="10.00">+</text>
<text text-anchor="start" x="21.5" y="-22" font-family="Helvetica,sans-Serif" font-size="10.00">head</text>
<text text-anchor="start" x="25.5" y="-7" font-family="Helvetica,sans-Serif" font-size="10.00"> </text>
<polygon fill="#666666" stroke="#666666" points="4.5,-77 4.5,-77 50.5,-77 50.5,-77 4.5,-77"/>
<polygon fill="#666666" stroke="#666666" points="4.5,-17 4.5,-17 19.5,-17 19.5,-17 4.5,-17"/>
<polygon fill="#666666" stroke="#666666" points="19.5,-17 19.5,-17 50.5,-17 50.5,-17 19.5,-17"/>
<polygon fill="none" stroke="#666666" points="4.5,0 4.5,-94 50.5,-94 50.5,0 4.5,0"/>
</a>
</g>
</g>
<!-- Node1&#45;&gt;Node1 -->
<g id="edge1_Node000001_Node000001" class="edge">
<title>Node1&#45;&gt;Node1</title>
<g id="a_edge1_Node000001_Node000001"><a xlink:title=" ">
<path fill="none" stroke="#63b8ff" d="M50.68,-60.01C60.33,-60.91 68.5,-56.57 68.5,-47 68.5,-41.92 66.19,-38.31 62.58,-36.18"/>
<polygon fill="none" stroke="#63b8ff" points="62.48,-36.16 55.86,-39.01 50.68,-33.99 57.31,-31.14 62.48,-36.16"/>
</a>
</g>
<text text-anchor="middle" x="85.5" y="-44.5" font-family="Helvetica,sans-Serif" font-size="10.00" fill="grey"> +next</text>
</g>
<!-- Node2 -->
<g id="Node000002" class="node">
<title>Node2</title>
<g id="a_Node000002"><a xlink:href="structlfs__mdir.html" target="_top" xlink:title=" ">
<polygon fill="white" stroke="transparent" points="55,-295 0,-295 0,-141 55,-141 55,-295"/>
<text text-anchor="start" x="8" y="-283" font-family="Helvetica,sans-Serif" font-size="10.00">lfs_mdir</text>
<text text-anchor="start" x="4.5" y="-268" font-family="Helvetica,sans-Serif" font-size="10.00">+</text>
<text text-anchor="start" x="17.5" y="-268" font-family="Helvetica,sans-Serif" font-size="10.00">pair</text>
<text text-anchor="start" x="4.5" y="-253" font-family="Helvetica,sans-Serif" font-size="10.00">+</text>
<text text-anchor="start" x="17.5" y="-253" font-family="Helvetica,sans-Serif" font-size="10.00">rev</text>
<text text-anchor="start" x="4.5" y="-238" font-family="Helvetica,sans-Serif" font-size="10.00">+</text>
<text text-anchor="start" x="17.5" y="-238" font-family="Helvetica,sans-Serif" font-size="10.00">off</text>
<text text-anchor="start" x="4.5" y="-223" font-family="Helvetica,sans-Serif" font-size="10.00">+</text>
<text text-anchor="start" x="17.5" y="-223" font-family="Helvetica,sans-Serif" font-size="10.00">etag</text>
<text text-anchor="start" x="4.5" y="-208" font-family="Helvetica,sans-Serif" font-size="10.00">+</text>
<text text-anchor="start" x="17.5" y="-208" font-family="Helvetica,sans-Serif" font-size="10.00">count</text>
<text text-anchor="start" x="4.5" y="-193" font-family="Helvetica,sans-Serif" font-size="10.00">+</text>
<text text-anchor="start" x="17.5" y="-193" font-family="Helvetica,sans-Serif" font-size="10.00">erased</text>
<text text-anchor="start" x="4.5" y="-178" font-family="Helvetica,sans-Serif" font-size="10.00">+</text>
<text text-anchor="start" x="17.5" y="-178" font-family="Helvetica,sans-Serif" font-size="10.00">split</text>
<text text-anchor="start" x="4.5" y="-163" font-family="Helvetica,sans-Serif" font-size="10.00">+</text>
<text text-anchor="start" x="17.5" y="-163" font-family="Helvetica,sans-Serif" font-size="10.00">tail</text>
<text text-anchor="start" x="26" y="-148" font-family="Helvetica,sans-Serif" font-size="10.00"> </text>
<polygon fill="#bfbfbf" stroke="#bfbfbf" points="0.5,-278 0.5,-278 55.5,-278 55.5,-278 0.5,-278"/>
<polygon fill="#bfbfbf" stroke="#bfbfbf" points="0.5,-158 0.5,-158 15.5,-158 15.5,-158 0.5,-158"/>
<polygon fill="#bfbfbf" stroke="#bfbfbf" points="15.5,-158 15.5,-158 55.5,-158 55.5,-158 15.5,-158"/>
<polygon fill="none" stroke="#bfbfbf" points="0,-141 0,-295 55,-295 55,-141 0,-141"/>
</a>
</g>
</g>
<!-- Node2&#45;&gt;Node1 -->
<g id="edge2_Node000001_Node000002" class="edge">
<title>Node2&#45;&gt;Node1</title>
<g id="a_edge2_Node000001_Node000002"><a xlink:title=" ">
<path fill="none" stroke="#63b8ff" d="M27.5,-140.9C27.5,-129.32 27.5,-117.52 27.5,-106.39"/>
<polygon fill="none" stroke="#63b8ff" points="27.5,-106.16 23.5,-100.16 27.5,-94.16 31.5,-100.16 27.5,-106.16"/>
</a>
</g>
<text text-anchor="middle" x="38.5" y="-115" font-family="Helvetica,sans-Serif" font-size="10.00" fill="grey"> +m</text>
</g>
</g>
</svg>
