<?xml version="1.0" encoding="UTF-8" standalone="no"?>
<!DOCTYPE svg PUBLIC "-//W3C//DTD SVG 1.1//EN"
 "http://www.w3.org/Graphics/SVG/1.1/DTD/svg11.dtd">
<!-- Generated by graphviz version 2.43.0 (0)
 -->
<!-- Title: _vfs_littlefs_file_t Pages: 1 -->
<svg width="376pt" height="585pt"
 viewBox="0.00 0.00 375.50 585.00" xmlns="http://www.w3.org/2000/svg" xmlns:xlink="http://www.w3.org/1999/xlink">
<g id="graph0" class="graph" transform="scale(1 1) rotate(0) translate(4 581)">
<title>_vfs_littlefs_file_t</title>
<!-- Node1 -->
<g id="Node000001" class="node">
<title>Node1</title>
<g id="a_Node000001"><a xlink:title="a file descriptor That&#39;s also a singly linked list used for keeping tracks of all opened file descrip...">
<polygon fill="#999999" stroke="transparent" points="292,-79 195,-79 195,0 292,0 292,-79"/>
<text text-anchor="start" x="200.5" y="-66.5" font-family="Helvetica,sans-Serif" font-size="10.00">_vfs_littlefs_file_t</text>
<text text-anchor="start" x="207" y="-51.5" font-family="Helvetica,sans-Serif" font-size="10.00">+</text>
<text text-anchor="start" x="227.5" y="-51.5" font-family="Helvetica,sans-Serif" font-size="10.00">lfs_buffer</text>
<text text-anchor="start" x="207" y="-36.5" font-family="Helvetica,sans-Serif" font-size="10.00">+</text>
<text text-anchor="start" x="227.5" y="-36.5" font-family="Helvetica,sans-Serif" font-size="10.00">hash</text>
<text text-anchor="start" x="207" y="-21.5" font-family="Helvetica,sans-Serif" font-size="10.00">+</text>
<text text-anchor="start" x="227.5" y="-21.5" font-family="Helvetica,sans-Serif" font-size="10.00">path</text>
<text text-anchor="start" x="242" y="-6.5" font-family="Helvetica,sans-Serif" font-size="10.00"> </text>
<polygon fill="#666666" stroke="#666666" points="195.5,-61.5 195.5,-61.5 292.5,-61.5 292.5,-61.5 195.5,-61.5"/>
<polygon fill="#666666" stroke="#666666" points="195.5,-16.5 195.5,-16.5 225.5,-16.5 225.5,-16.5 195.5,-16.5"/>
<polygon fill="#666666" stroke="#666666" points="225.5,-16.5 225.5,-16.5 292.5,-16.5 292.5,-16.5 225.5,-16.5"/>
<polygon fill="none" stroke="#666666" points="195,0 195,-79 292,-79 292,0 195,0"/>
</a>
</g>
</g>
<!-- Node1&#45;&gt;Node1 -->
<g id="edge9_Node000001_Node000001" class="edge">
<title>Node1&#45;&gt;Node1</title>
<g id="a_edge9_Node000001_Node000001"><a xlink:title=" ">
<path fill="none" stroke="#63b8ff" d="M292.21,-50.75C302.54,-49.61 310,-45.86 310,-39.5 310,-36.02 307.77,-33.33 304.06,-31.41"/>
<polygon fill="none" stroke="#63b8ff" points="303.81,-31.34 296.98,-33.66 292.21,-28.25 299.04,-25.93 303.81,-31.34"/>
</a>
</g>
<text text-anchor="middle" x="327" y="-37" font-family="Helvetica,sans-Serif" font-size="10.00" fill="grey"> +next</text>
</g>
<!-- Node2 -->
<g id="Node000002" class="node">
<title>Node2</title>
<g id="a_Node000002"><a xlink:href="structlfs__file.html" target="_top" xlink:title=" ">
<polygon fill="white" stroke="transparent" points="211.5,-250 163.5,-250 163.5,-126 211.5,-126 211.5,-250"/>
<text text-anchor="start" x="171" y="-238" font-family="Helvetica,sans-Serif" font-size="10.00">lfs_file</text>
<text text-anchor="start" x="167.5" y="-223" font-family="Helvetica,sans-Serif" font-size="10.00">+</text>
<text text-anchor="start" x="180.5" y="-223" font-family="Helvetica,sans-Serif" font-size="10.00">id</text>
<text text-anchor="start" x="167.5" y="-208" font-family="Helvetica,sans-Serif" font-size="10.00">+</text>
<text text-anchor="start" x="180.5" y="-208" font-family="Helvetica,sans-Serif" font-size="10.00">type</text>
<text text-anchor="start" x="167.5" y="-193" font-family="Helvetica,sans-Serif" font-size="10.00">+</text>
<text text-anchor="start" x="180.5" y="-193" font-family="Helvetica,sans-Serif" font-size="10.00">flags</text>
<text text-anchor="start" x="167.5" y="-178" font-family="Helvetica,sans-Serif" font-size="10.00">+</text>
<text text-anchor="start" x="180.5" y="-178" font-family="Helvetica,sans-Serif" font-size="10.00">pos</text>
<text text-anchor="start" x="167.5" y="-163" font-family="Helvetica,sans-Serif" font-size="10.00">+</text>
<text text-anchor="start" x="180.5" y="-163" font-family="Helvetica,sans-Serif" font-size="10.00">block</text>
<text text-anchor="start" x="167.5" y="-148" font-family="Helvetica,sans-Serif" font-size="10.00">+</text>
<text text-anchor="start" x="180.5" y="-148" font-family="Helvetica,sans-Serif" font-size="10.00">off</text>
<text text-anchor="start" x="185.5" y="-133" font-family="Helvetica,sans-Serif" font-size="10.00"> </text>
<polygon fill="#bfbfbf" stroke="#bfbfbf" points="163.5,-233 163.5,-233 211.5,-233 211.5,-233 163.5,-233"/>
<polygon fill="#bfbfbf" stroke="#bfbfbf" points="163.5,-143 163.5,-143 178.5,-143 178.5,-143 163.5,-143"/>
<polygon fill="#bfbfbf" stroke="#bfbfbf" points="178.5,-143 178.5,-143 211.5,-143 211.5,-143 178.5,-143"/>
<polygon fill="none" stroke="#bfbfbf" points="163.5,-126 163.5,-250 211.5,-250 211.5,-126 163.5,-126"/>
</a>
</g>
</g>
<!-- Node2&#45;&gt;Node1 -->
<g id="edge1_Node000001_Node000002" class="edge">
<title>Node2&#45;&gt;Node1</title>
<g id="a_edge1_Node000001_Node000002"><a xlink:title=" ">
<path fill="none" stroke="#63b8ff" d="M210.92,-125.72C215.37,-114.08 219.98,-102.03 224.28,-90.78"/>
<polygon fill="none" stroke="#63b8ff" points="224.35,-90.61 222.75,-83.57 228.63,-79.4 230.22,-86.43 224.35,-90.61"/>
</a>
</g>
<text text-anchor="middle" x="234" y="-100" font-family="Helvetica,sans-Serif" font-size="10.00" fill="grey"> +file</text>
</g>
<!-- Node2&#45;&gt;Node2 -->
<g id="edge2_Node000002_Node000002" class="edge">
<title>Node2&#45;&gt;Node2</title>
<g id="a_edge2_Node000002_Node000002"><a xlink:title=" ">
<path fill="none" stroke="#63b8ff" d="M211.67,-203.65C221.36,-204.54 229.5,-199.32 229.5,-188 229.5,-181.99 227.2,-177.69 223.6,-175.12"/>
<polygon fill="none" stroke="#63b8ff" points="223.36,-175.07 216.61,-177.6 211.67,-172.35 218.42,-169.81 223.36,-175.07"/>
</a>
</g>
<text text-anchor="middle" x="246.5" y="-185.5" font-family="Helvetica,sans-Serif" font-size="10.00" fill="grey"> +next</text>
</g>
<!-- Node3 -->
<g id="Node000003" class="node">
<title>Node3</title>
<g id="a_Node000003"><a xlink:href="structlfs__mdir.html" target="_top" xlink:title=" ">
<polygon fill="white" stroke="transparent" points="55,-451 0,-451 0,-297 55,-297 55,-451"/>
<text text-anchor="start" x="8" y="-439" font-family="Helvetica,sans-Serif" font-size="10.00">lfs_mdir</text>
<text text-anchor="start" x="4.5" y="-424" font-family="Helvetica,sans-Serif" font-size="10.00">+</text>
<text text-anchor="start" x="17.5" y="-424" font-family="Helvetica,sans-Serif" font-size="10.00">pair</text>
<text text-anchor="start" x="4.5" y="-409" font-family="Helvetica,sans-Serif" font-size="10.00">+</text>
<text text-anchor="start" x="17.5" y="-409" font-family="Helvetica,sans-Serif" font-size="10.00">rev</text>
<text text-anchor="start" x="4.5" y="-394" font-family="Helvetica,sans-Serif" font-size="10.00">+</text>
<text text-anchor="start" x="17.5" y="-394" font-family="Helvetica,sans-Serif" font-size="10.00">off</text>
<text text-anchor="start" x="4.5" y="-379" font-family="Helvetica,sans-Serif" font-size="10.00">+</text>
<text text-anchor="start" x="17.5" y="-379" font-family="Helvetica,sans-Serif" font-size="10.00">etag</text>
<text text-anchor="start" x="4.5" y="-364" font-family="Helvetica,sans-Serif" font-size="10.00">+</text>
<text text-anchor="start" x="17.5" y="-364" font-family="Helvetica,sans-Serif" font-size="10.00">count</text>
<text text-anchor="start" x="4.5" y="-349" font-family="Helvetica,sans-Serif" font-size="10.00">+</text>
<text text-anchor="start" x="17.5" y="-349" font-family="Helvetica,sans-Serif" font-size="10.00">erased</text>
<text text-anchor="start" x="4.5" y="-334" font-family="Helvetica,sans-Serif" font-size="10.00">+</text>
<text text-anchor="start" x="17.5" y="-334" font-family="Helvetica,sans-Serif" font-size="10.00">split</text>
<text text-anchor="start" x="4.5" y="-319" font-family="Helvetica,sans-Serif" font-size="10.00">+</text>
<text text-anchor="start" x="17.5" y="-319" font-family="Helvetica,sans-Serif" font-size="10.00">tail</text>
<text text-anchor="start" x="26" y="-304" font-family="Helvetica,sans-Serif" font-size="10.00"> </text>
<polygon fill="#bfbfbf" stroke="#bfbfbf" points="0.5,-434 0.5,-434 55.5,-434 55.5,-434 0.5,-434"/>
<polygon fill="#bfbfbf" stroke="#bfbfbf" points="0.5,-314 0.5,-314 15.5,-314 15.5,-314 0.5,-314"/>
<polygon fill="#bfbfbf" stroke="#bfbfbf" points="15.5,-314 15.5,-314 55.5,-314 55.5,-314 15.5,-314"/>
<polygon fill="none" stroke="#bfbfbf" points="0,-297 0,-451 55,-451 55,-297 0,-297"/>
</a>
</g>
</g>
<!-- Node3&#45;&gt;Node2 -->
<g id="edge3_Node000002_Node000003" class="edge">
<title>Node3&#45;&gt;Node2</title>
<g id="a_edge3_Node000002_Node000003"><a xlink:title=" ">
<path fill="none" stroke="#63b8ff" d="M55.17,-310.78C58.09,-305.97 61.21,-301.32 64.5,-297 89.87,-263.74 126.73,-233.02 153.48,-212.92"/>
<polygon fill="none" stroke="#63b8ff" points="153.54,-212.88 155.99,-206.1 163.19,-205.75 160.74,-212.53 153.54,-212.88"/>
</a>
</g>
<text text-anchor="middle" x="98.5" y="-271" font-family="Helvetica,sans-Serif" font-size="10.00" fill="grey"> +m</text>
</g>
<!-- Node4 -->
<g id="Node000004" class="node">
<title>Node4</title>
<g id="a_Node000004"><a xlink:href="structlfs__file_1_1lfs__ctz.html" target="_top" xlink:title=" ">
<polygon fill="white" stroke="transparent" points="153.5,-406 73.5,-406 73.5,-342 153.5,-342 153.5,-406"/>
<text text-anchor="start" x="78.5" y="-394" font-family="Helvetica,sans-Serif" font-size="10.00">lfs_file::lfs_ctz</text>
<text text-anchor="start" x="86" y="-379" font-family="Helvetica,sans-Serif" font-size="10.00">+</text>
<text text-anchor="start" x="107.5" y="-379" font-family="Helvetica,sans-Serif" font-size="10.00">head</text>
<text text-anchor="start" x="86" y="-364" font-family="Helvetica,sans-Serif" font-size="10.00">+</text>
<text text-anchor="start" x="107.5" y="-364" font-family="Helvetica,sans-Serif" font-size="10.00">size</text>
<text text-anchor="start" x="111.5" y="-349" font-family="Helvetica,sans-Serif" font-size="10.00"> </text>
<polygon fill="#bfbfbf" stroke="#bfbfbf" points="73.5,-389 73.5,-389 153.5,-389 153.5,-389 73.5,-389"/>
<polygon fill="#bfbfbf" stroke="#bfbfbf" points="73.5,-359 73.5,-359 105.5,-359 105.5,-359 73.5,-359"/>
<polygon fill="#bfbfbf" stroke="#bfbfbf" points="105.5,-359 105.5,-359 153.5,-359 153.5,-359 105.5,-359"/>
<polygon fill="none" stroke="#bfbfbf" points="73.5,-342 73.5,-406 153.5,-406 153.5,-342 73.5,-342"/>
</a>
</g>
</g>
<!-- Node4&#45;&gt;Node2 -->
<g id="edge4_Node000002_Node000004" class="edge">
<title>Node4&#45;&gt;Node2</title>
<g id="a_edge4_Node000002_Node000004"><a xlink:title=" ">
<path fill="none" stroke="#63b8ff" d="M126.05,-341.79C135.04,-319.44 147.51,-288.43 158.87,-260.18"/>
<polygon fill="none" stroke="#63b8ff" points="159.02,-259.83 157.54,-252.77 163.49,-248.69 164.97,-255.75 159.02,-259.83"/>
</a>
</g>
<text text-anchor="middle" x="167.5" y="-271" font-family="Helvetica,sans-Serif" font-size="10.00" fill="grey"> +ctz</text>
</g>
<!-- Node5 -->
<g id="Node000005" class="node">
<title>Node5</title>
<g id="a_Node000005"><a xlink:href="structlfs__cache.html" target="_top" xlink:title="internal littlefs data structures ///">
<polygon fill="white" stroke="transparent" points="227.5,-421 171.5,-421 171.5,-327 227.5,-327 227.5,-421"/>
<text text-anchor="start" x="176.5" y="-409" font-family="Helvetica,sans-Serif" font-size="10.00">lfs_cache</text>
<text text-anchor="start" x="177" y="-394" font-family="Helvetica,sans-Serif" font-size="10.00">+</text>
<text text-anchor="start" x="191.5" y="-394" font-family="Helvetica,sans-Serif" font-size="10.00">block</text>
<text text-anchor="start" x="177" y="-379" font-family="Helvetica,sans-Serif" font-size="10.00">+</text>
<text text-anchor="start" x="191.5" y="-379" font-family="Helvetica,sans-Serif" font-size="10.00">off</text>
<text text-anchor="start" x="177" y="-364" font-family="Helvetica,sans-Serif" font-size="10.00">+</text>
<text text-anchor="start" x="191.5" y="-364" font-family="Helvetica,sans-Serif" font-size="10.00">size</text>
<text text-anchor="start" x="177" y="-349" font-family="Helvetica,sans-Serif" font-size="10.00">+</text>
<text text-anchor="start" x="191.5" y="-349" font-family="Helvetica,sans-Serif" font-size="10.00">buffer</text>
<text text-anchor="start" x="197.5" y="-334" font-family="Helvetica,sans-Serif" font-size="10.00"> </text>
<polygon fill="#666666" stroke="#666666" points="171.5,-404 171.5,-404 227.5,-404 227.5,-404 171.5,-404"/>
<polygon fill="#666666" stroke="#666666" points="171.5,-344 171.5,-344 189.5,-344 189.5,-344 171.5,-344"/>
<polygon fill="#666666" stroke="#666666" points="189.5,-344 189.5,-344 227.5,-344 227.5,-344 189.5,-344"/>
<polygon fill="none" stroke="#666666" points="171.5,-327 171.5,-421 227.5,-421 227.5,-327 171.5,-327"/>
</a>
</g>
</g>
<!-- Node5&#45;&gt;Node2 -->
<g id="edge5_Node000002_Node000005" class="edge">
<title>Node5&#45;&gt;Node2</title>
<g id="a_edge5_Node000002_Node000005"><a xlink:title=" ">
<path fill="none" stroke="#63b8ff" d="M196.47,-326.57C195.2,-307.08 193.69,-283.93 192.28,-262.24"/>
<polygon fill="none" stroke="#63b8ff" points="192.26,-262 187.88,-256.28 191.48,-250.03 195.86,-255.76 192.26,-262"/>
</a>
</g>
<text text-anchor="middle" x="212.5" y="-271" font-family="Helvetica,sans-Serif" font-size="10.00" fill="grey"> +cache</text>
</g>
<!-- Node6 -->
<g id="Node000006" class="node">
<title>Node6</title>
<g id="a_Node000006"><a xlink:href="structlfs__file__config.html" target="_top" xlink:title=" ">
<polygon fill="white" stroke="transparent" points="333,-406 256,-406 256,-342 333,-342 333,-406"/>
<text text-anchor="start" x="261.5" y="-394" font-family="Helvetica,sans-Serif" font-size="10.00">lfs_file_config</text>
<text text-anchor="start" x="262" y="-379" font-family="Helvetica,sans-Serif" font-size="10.00">+</text>
<text text-anchor="start" x="276.5" y="-379" font-family="Helvetica,sans-Serif" font-size="10.00">buffer</text>
<text text-anchor="start" x="262" y="-364" font-family="Helvetica,sans-Serif" font-size="10.00">+</text>
<text text-anchor="start" x="276.5" y="-364" font-family="Helvetica,sans-Serif" font-size="10.00">attr_count</text>
<text text-anchor="start" x="293" y="-349" font-family="Helvetica,sans-Serif" font-size="10.00"> </text>
<polygon fill="#bfbfbf" stroke="#bfbfbf" points="256.5,-389 256.5,-389 333.5,-389 333.5,-389 256.5,-389"/>
<polygon fill="#bfbfbf" stroke="#bfbfbf" points="256.5,-359 256.5,-359 274.5,-359 274.5,-359 256.5,-359"/>
<polygon fill="#bfbfbf" stroke="#bfbfbf" points="274.5,-359 274.5,-359 333.5,-359 333.5,-359 274.5,-359"/>
<polygon fill="none" stroke="#bfbfbf" points="256,-342 256,-406 333,-406 333,-342 256,-342"/>
</a>
</g>
</g>
<!-- Node6&#45;&gt;Node1 -->
<g id="edge8_Node000001_Node000006" class="edge">
<title>Node6&#45;&gt;Node1</title>
<g id="a_edge8_Node000001_Node000006"><a xlink:title=" ">
<path fill="none" stroke="#63b8ff" d="M294.09,-341.85C292.95,-294.66 288.63,-202.46 272.5,-126 270.05,-114.39 266.51,-102.17 262.75,-90.71"/>
<polygon fill="none" stroke="#63b8ff" points="262.66,-90.47 256.93,-86.09 258.77,-79.11 264.5,-83.49 262.66,-90.47"/>
</a>
</g>
<text text-anchor="middle" x="328" y="-185.5" font-family="Helvetica,sans-Serif" font-size="10.00" fill="grey"> +lfs_file_config</text>
</g>
<!-- Node6&#45;&gt;Node2 -->
<g id="edge6_Node000002_Node000006" class="edge">
<title>Node6&#45;&gt;Node2</title>
<g id="a_edge6_Node000002_Node000006"><a xlink:title=" ">
<path fill="none" stroke="#63b8ff" d="M277.22,-341.6C265.61,-320.65 249.85,-292.55 235.5,-268 229.91,-258.44 223.84,-248.29 217.97,-238.56"/>
<polygon fill="none" stroke="#63b8ff" points="217.92,-238.48 211.39,-235.43 211.69,-228.22 218.22,-231.28 217.92,-238.48"/>
</a>
</g>
<text text-anchor="middle" x="253" y="-271" font-family="Helvetica,sans-Serif" font-size="10.00" fill="grey"> +cfg</text>
</g>
<!-- Node7 -->
<g id="Node000007" class="node">
<title>Node7</title>
<g id="a_Node000007"><a xlink:href="structlfs__attr.html" target="_top" xlink:title=" ">
<polygon fill="white" stroke="transparent" points="319.5,-577 269.5,-577 269.5,-498 319.5,-498 319.5,-577"/>
<text text-anchor="start" x="277" y="-564.5" font-family="Helvetica,sans-Serif" font-size="10.00">lfs_attr</text>
<text text-anchor="start" x="273.5" y="-549.5" font-family="Helvetica,sans-Serif" font-size="10.00">+</text>
<text text-anchor="start" x="286.5" y="-549.5" font-family="Helvetica,sans-Serif" font-size="10.00">type</text>
<text text-anchor="start" x="273.5" y="-534.5" font-family="Helvetica,sans-Serif" font-size="10.00">+</text>
<text text-anchor="start" x="286.5" y="-534.5" font-family="Helvetica,sans-Serif" font-size="10.00">buffer</text>
<text text-anchor="start" x="273.5" y="-519.5" font-family="Helvetica,sans-Serif" font-size="10.00">+</text>
<text text-anchor="start" x="286.5" y="-519.5" font-family="Helvetica,sans-Serif" font-size="10.00">size</text>
<text text-anchor="start" x="292.5" y="-504.5" font-family="Helvetica,sans-Serif" font-size="10.00"> </text>
<polygon fill="#bfbfbf" stroke="#bfbfbf" points="269.5,-559.5 269.5,-559.5 319.5,-559.5 319.5,-559.5 269.5,-559.5"/>
<polygon fill="#bfbfbf" stroke="#bfbfbf" points="269.5,-514.5 269.5,-514.5 284.5,-514.5 284.5,-514.5 269.5,-514.5"/>
<polygon fill="#bfbfbf" stroke="#bfbfbf" points="284.5,-514.5 284.5,-514.5 319.5,-514.5 319.5,-514.5 284.5,-514.5"/>
<polygon fill="none" stroke="#bfbfbf" points="269.5,-498 269.5,-577 319.5,-577 319.5,-498 269.5,-498"/>
</a>
</g>
</g>
<!-- Node7&#45;&gt;Node6 -->
<g id="edge7_Node000006_Node000007" class="edge">
<title>Node7&#45;&gt;Node6</title>
<g id="a_edge7_Node000006_Node000007"><a xlink:title=" ">
<path fill="none" stroke="#63b8ff" d="M294.5,-497.82C294.5,-473.9 294.5,-443.15 294.5,-418.4"/>
<polygon fill="none" stroke="#63b8ff" points="294.5,-418.07 290.5,-412.07 294.5,-406.07 298.5,-412.07 294.5,-418.07"/>
</a>
</g>
<text text-anchor="middle" x="311.5" y="-472" font-family="Helvetica,sans-Serif" font-size="10.00" fill="grey"> +attrs</text>
</g>
</g>
</svg>
