<?xml version="1.0" encoding="UTF-8" standalone="no"?>
<!DOCTYPE svg PUBLIC "-//W3C//DTD SVG 1.1//EN"
 "http://www.w3.org/Graphics/SVG/1.1/DTD/svg11.dtd">
<!-- Generated by graphviz version 2.43.0 (0)
 -->
<!-- Title: Hardware::BusManager::State_Monitor_t Pages: 1 -->
<svg width="416pt" height="250pt"
 viewBox="0.00 0.00 415.50 250.00" xmlns="http://www.w3.org/2000/svg" xmlns:xlink="http://www.w3.org/1999/xlink">

<svg id="main" version="1.1" xmlns="http://www.w3.org/2000/svg" xmlns:xlink="http://www.w3.org/1999/xlink" xml:space="preserve" onload="init(evt)">
<style type="text/css"><![CDATA[
.node, .edge {opacity: 0.7;}
.node.selected, .edge.selected {opacity: 1;}
.edge:hover path { stroke: red; }
.edge:hover polygon { stroke: red; fill: red; }
]]></style>
<script type="application/ecmascript" xlink:href="svg.min.js"/>
<svg id="graph" class="graph">
<g id="graph0" class="graph" transform="scale(1 1) rotate(0) translate(4 246)">
<title>Hardware::BusManager::State_Monitor_t</title>
<!-- Node1 -->
<g id="Node000001" class="node">
<title>Node1</title>
<g id="a_Node000001"><a xlink:title="Telemetry &amp; Health&#45;State Awareness.">
<polygon fill="#999999" stroke="transparent" points="274,-105 149,-105 149,0 274,0 274,-105"/>
<text text-anchor="start" x="154.5" y="-92.5" font-family="Helvetica,sans-Serif" font-size="10.00">Hardware::BusManager</text>
<text text-anchor="start" x="170" y="-81.5" font-family="Helvetica,sans-Serif" font-size="10.00">::State_Monitor_t</text>
<text text-anchor="start" x="165" y="-66.5" font-family="Helvetica,sans-Serif" font-size="10.00">+</text>
<text text-anchor="start" x="189.5" y="-66.5" font-family="Helvetica,sans-Serif" font-size="10.00">all_status</text>
<text text-anchor="start" x="165" y="-51.5" font-family="Helvetica,sans-Serif" font-size="10.00">+</text>
<text text-anchor="start" x="189.5" y="-51.5" font-family="Helvetica,sans-Serif" font-size="10.00">last_update</text>
<text text-anchor="start" x="165" y="-36.5" font-family="Helvetica,sans-Serif" font-size="10.00">+</text>
<text text-anchor="start" x="189.5" y="-36.5" font-family="Helvetica,sans-Serif" font-size="10.00">status</text>
<text text-anchor="start" x="165" y="-21.5" font-family="Helvetica,sans-Serif" font-size="10.00">+</text>
<text text-anchor="start" x="189.5" y="-21.5" font-family="Helvetica,sans-Serif" font-size="10.00">last_error</text>
<text text-anchor="start" x="210" y="-6.5" font-family="Helvetica,sans-Serif" font-size="10.00"> </text>
<polygon fill="#666666" stroke="#666666" points="149.5,-76.5 149.5,-76.5 274.5,-76.5 274.5,-76.5 149.5,-76.5"/>
<polygon fill="#666666" stroke="#666666" points="149.5,-16.5 149.5,-16.5 187.5,-16.5 187.5,-16.5 149.5,-16.5"/>
<polygon fill="#666666" stroke="#666666" points="187.5,-16.5 187.5,-16.5 274.5,-16.5 274.5,-16.5 187.5,-16.5"/>
<polygon fill="none" stroke="#666666" points="149,0 149,-105 274,-105 274,0 149,0"/>
</a>
</g>
</g>
<!-- Node2 -->
<g id="Node000002" class="node">
<title>Node2</title>
<g id="a_Node000002"><a xlink:href="structHardware_1_1I2CBus_1_1State__Monitor__t.html" target="_top" xlink:title="Telemetry &amp; Health&#45;State Awareness.">
<polygon fill="white" stroke="transparent" points="129,-242 0,-242 0,-152 129,-152 129,-242"/>
<text text-anchor="start" x="5.5" y="-230" font-family="Helvetica,sans-Serif" font-size="10.00">Hardware::I2CBus::State</text>
<text text-anchor="start" x="39" y="-219" font-family="Helvetica,sans-Serif" font-size="10.00">_Monitor_t</text>
<text text-anchor="start" x="17" y="-204" font-family="Helvetica,sans-Serif" font-size="10.00">+</text>
<text text-anchor="start" x="42.5" y="-204" font-family="Helvetica,sans-Serif" font-size="10.00">last_update</text>
<text text-anchor="start" x="17" y="-189" font-family="Helvetica,sans-Serif" font-size="10.00">+</text>
<text text-anchor="start" x="42.5" y="-189" font-family="Helvetica,sans-Serif" font-size="10.00">status</text>
<text text-anchor="start" x="17" y="-174" font-family="Helvetica,sans-Serif" font-size="10.00">+</text>
<text text-anchor="start" x="42.5" y="-174" font-family="Helvetica,sans-Serif" font-size="10.00">last_error</text>
<text text-anchor="start" x="63" y="-159" font-family="Helvetica,sans-Serif" font-size="10.00"> </text>
<polygon fill="#666666" stroke="#666666" points="0.5,-214 0.5,-214 129.5,-214 129.5,-214 0.5,-214"/>
<polygon fill="#666666" stroke="#666666" points="0.5,-169 0.5,-169 40.5,-169 40.5,-169 0.5,-169"/>
<polygon fill="#666666" stroke="#666666" points="40.5,-169 40.5,-169 129.5,-169 129.5,-169 40.5,-169"/>
<polygon fill="none" stroke="#666666" points="0,-152 0,-242 129,-242 129,-152 0,-152"/>
</a>
</g>
</g>
<!-- Node2&#45;&gt;Node1 -->
<g id="edge1_Node000001_Node000002" class="edge">
<title>Node2&#45;&gt;Node1</title>
<g id="a_edge1_Node000001_Node000002"><a xlink:title=" ">
<path fill="none" stroke="#63b8ff" d="M110.21,-151.69C122.6,-139.68 136.23,-126.46 149.37,-113.73"/>
<polygon fill="none" stroke="#63b8ff" points="149.74,-113.37 151.27,-106.32 158.36,-105.01 156.84,-112.06 149.74,-113.37"/>
</a>
</g>
<text text-anchor="middle" x="151.5" y="-126" font-family="Helvetica,sans-Serif" font-size="10.00" fill="grey"> +i2c</text>
</g>
<!-- Node3 -->
<g id="Node000003" class="node">
<title>Node3</title>
<g id="a_Node000003"><a xlink:href="structHardware_1_1SPIBus_1_1State__Monitor__t.html" target="_top" xlink:title=" ">
<polygon fill="white" stroke="transparent" points="275.5,-242 147.5,-242 147.5,-152 275.5,-152 275.5,-242"/>
<text text-anchor="start" x="152.5" y="-230" font-family="Helvetica,sans-Serif" font-size="10.00">Hardware::SPIBus::State</text>
<text text-anchor="start" x="185.5" y="-219" font-family="Helvetica,sans-Serif" font-size="10.00">_Monitor_t</text>
<text text-anchor="start" x="163.5" y="-204" font-family="Helvetica,sans-Serif" font-size="10.00">+</text>
<text text-anchor="start" x="188.5" y="-204" font-family="Helvetica,sans-Serif" font-size="10.00">last_update</text>
<text text-anchor="start" x="163.5" y="-189" font-family="Helvetica,sans-Serif" font-size="10.00">+</text>
<text text-anchor="start" x="188.5" y="-189" font-family="Helvetica,sans-Serif" font-size="10.00">status</text>
<text text-anchor="start" x="163.5" y="-174" font-family="Helvetica,sans-Serif" font-size="10.00">+</text>
<text text-anchor="start" x="188.5" y="-174" font-family="Helvetica,sans-Serif" font-size="10.00">last_error</text>
<text text-anchor="start" x="209.5" y="-159" font-family="Helvetica,sans-Serif" font-size="10.00"> </text>
<polygon fill="#bfbfbf" stroke="#bfbfbf" points="147.5,-214 147.5,-214 275.5,-214 275.5,-214 147.5,-214"/>
<polygon fill="#bfbfbf" stroke="#bfbfbf" points="147.5,-169 147.5,-169 186.5,-169 186.5,-169 147.5,-169"/>
<polygon fill="#bfbfbf" stroke="#bfbfbf" points="186.5,-169 186.5,-169 275.5,-169 275.5,-169 186.5,-169"/>
<polygon fill="none" stroke="#bfbfbf" points="147.5,-152 147.5,-242 275.5,-242 275.5,-152 147.5,-152"/>
</a>
</g>
</g>
<!-- Node3&#45;&gt;Node1 -->
<g id="edge2_Node000001_Node000003" class="edge">
<title>Node3&#45;&gt;Node1</title>
<g id="a_edge2_Node000001_Node000003"><a xlink:title=" ">
<path fill="none" stroke="#63b8ff" d="M211.5,-151.69C211.5,-140.72 211.5,-128.74 211.5,-117.05"/>
<polygon fill="none" stroke="#63b8ff" points="211.5,-117.01 207.5,-111.01 211.5,-105.01 215.5,-111.01 211.5,-117.01"/>
</a>
</g>
<text text-anchor="middle" x="224.5" y="-126" font-family="Helvetica,sans-Serif" font-size="10.00" fill="grey"> +spi</text>
</g>
<!-- Node4 -->
<g id="Node000004" class="node">
<title>Node4</title>
<g id="a_Node000004"><a xlink:href="structHardware_1_1UARTBus_1_1State__Monitor__t.html" target="_top" xlink:title=" ">
<polygon fill="white" stroke="transparent" points="407.5,-242 293.5,-242 293.5,-152 407.5,-152 407.5,-242"/>
<text text-anchor="start" x="298.5" y="-230" font-family="Helvetica,sans-Serif" font-size="10.00">Hardware::UARTBus::</text>
<text text-anchor="start" x="311.5" y="-219" font-family="Helvetica,sans-Serif" font-size="10.00">State_Monitor_t</text>
<text text-anchor="start" x="306" y="-204" font-family="Helvetica,sans-Serif" font-size="10.00">+</text>
<text text-anchor="start" x="327.5" y="-204" font-family="Helvetica,sans-Serif" font-size="10.00">last_update</text>
<text text-anchor="start" x="306" y="-189" font-family="Helvetica,sans-Serif" font-size="10.00">+</text>
<text text-anchor="start" x="327.5" y="-189" font-family="Helvetica,sans-Serif" font-size="10.00">status</text>
<text text-anchor="start" x="306" y="-174" font-family="Helvetica,sans-Serif" font-size="10.00">+</text>
<text text-anchor="start" x="327.5" y="-174" font-family="Helvetica,sans-Serif" font-size="10.00">last_error</text>
<text text-anchor="start" x="348.5" y="-159" font-family="Helvetica,sans-Serif" font-size="10.00"> </text>
<polygon fill="#bfbfbf" stroke="#bfbfbf" points="293.5,-214 293.5,-214 407.5,-214 407.5,-214 293.5,-214"/>
<polygon fill="#bfbfbf" stroke="#bfbfbf" points="293.5,-169 293.5,-169 325.5,-169 325.5,-169 293.5,-169"/>
<polygon fill="#bfbfbf" stroke="#bfbfbf" points="325.5,-169 325.5,-169 407.5,-169 407.5,-169 325.5,-169"/>
<polygon fill="none" stroke="#bfbfbf" points="293.5,-152 293.5,-242 407.5,-242 407.5,-152 293.5,-152"/>
</a>
</g>
</g>
<!-- Node4&#45;&gt;Node1 -->
<g id="edge3_Node000001_Node000004" class="edge">
<title>Node4&#45;&gt;Node1</title>
<g id="a_edge3_Node000001_Node000004"><a xlink:title=" ">
<path fill="none" stroke="#63b8ff" d="M307.28,-151.69C295.56,-139.68 282.67,-126.46 270.25,-113.73"/>
<polygon fill="none" stroke="#63b8ff" points="270.13,-113.6 263.07,-112.1 261.75,-105.01 268.8,-106.52 270.13,-113.6"/>
</a>
</g>
<text text-anchor="middle" x="304" y="-126" font-family="Helvetica,sans-Serif" font-size="10.00" fill="grey"> +uart</text>
</g>
</g>
</svg>
</svg>

<style type='text/css'>
<![CDATA[
[data-mouse-over-selected='false'] { opacity: 0.7; }
[data-mouse-over-selected='true']  { opacity: 1.0; }
]]>
</style>
<script type="application/ecmascript"><![CDATA[
document.addEventListener('DOMContentLoaded', (event) => {
  highlightEdges();
  highlightAdjacentNodes();
});
]]></script>
</svg>
