<?xml version="1.0" encoding="UTF-8" standalone="no"?>
<!DOCTYPE svg PUBLIC "-//W3C//DTD SVG 1.1//EN"
 "http://www.w3.org/Graphics/SVG/1.1/DTD/svg11.dtd">
<!-- Generated by graphviz version 2.43.0 (0)
 -->
<!-- Title: lfs_dir_find_match Pages: 1 -->
<!--zoomable 727 -->

<svg id="main" version="1.1" xmlns="http://www.w3.org/2000/svg" xmlns:xlink="http://www.w3.org/1999/xlink" xml:space="preserve" onload="init(evt)">
<style type="text/css"><![CDATA[
.node, .edge {opacity: 0.7;}
.node.selected, .edge.selected {opacity: 1;}
.edge:hover path { stroke: red; }
.edge:hover polygon { stroke: red; fill: red; }
]]></style>

<defs>
  <circle id="rim" cx="0" cy="0" r="7"/>
  <circle id="rim2" cx="0" cy="0" r="3.5"/>
  <g id="zoomPlus">
    <use xlink:href="#rim" fill="#404040"><set attributeName="fill" to="#808080" begin="zoomplus.mouseover" end="zoomplus.mouseout"/></use>
    <path d="M-4,0h8M0,-4v8" fill="none" stroke="white" stroke-width="1.5" pointer-events="none"/>
  </g>
  <g id="zoomMin">
    <use xlink:href="#rim" fill="#404040"><set attributeName="fill" to="#808080" begin="zoomminus.mouseover" end="zoomminus.mouseout"/></use>
    <path d="M-4,0h8" fill="none" stroke="white" stroke-width="1.5" pointer-events="none"/>
  </g>
  <g id="arrowUp" transform="translate(30 24)">
    <use xlink:href="#rim"/>
    <path pointer-events="none" fill="none" stroke="white" stroke-width="1.5" d="M0,-3.0v7 M-2.5,-0.5L0,-3.0L2.5,-0.5"/>
  </g>
  <g id="arrowRight" transform="rotate(90) translate(36 -43)">
    <use xlink:href="#rim"/>
    <path pointer-events="none" fill="none" stroke="white" stroke-width="1.5" d="M0,-3.0v7 M-2.5,-0.5L0,-3.0L2.5,-0.5"/>
  </g>
  <g id="arrowDown" transform="rotate(180) translate(-30 -48)">
    <use xlink:href="#rim"/>
    <path pointer-events="none" fill="none" stroke="white" stroke-width="1.5" d="M0,-3.0v7 M-2.5,-0.5L0,-3.0L2.5,-0.5"/>
  </g>
  <g id="arrowLeft" transform="rotate(270) translate(-36 17)">
    <use xlink:href="#rim"/>
    <path pointer-events="none" fill="none" stroke="white" stroke-width="1.5" d="M0,-3.0v7 M-2.5,-0.5L0,-3.0L2.5,-0.5"/>
  </g>
  <g id="resetDef">
    <use xlink:href="#rim2" fill="#404040"><set attributeName="fill" to="#808080" begin="reset.mouseover" end="reset.mouseout"/></use>
  </g>
</defs>
<script type="application/ecmascript">
var viewWidth = 507;
var viewHeight = 727;
var sectionId = 'dynsection-0';
</script>
<script type="application/ecmascript" xlink:href="svg.min.js"/>
<svg id="graph" class="graph">
<g id="viewport">
<title>lfs_dir_find_match</title>
<!-- Node1 -->
<g id="Node000001" class="node">
<title>Node1</title>
<g id="a_Node000001"><a xlink:title=" ">
<polygon fill="#999999" stroke="transparent" points="295,-64 195,-64 195,0 295,0 295,-64"/>
<text text-anchor="start" x="200" y="-52" font-family="Helvetica,sans-Serif" font-size="10.00">lfs_dir_find_match</text>
<text text-anchor="start" x="211.5" y="-37" font-family="Helvetica,sans-Serif" font-size="10.00">+</text>
<text text-anchor="start" x="237" y="-37" font-family="Helvetica,sans-Serif" font-size="10.00">name</text>
<text text-anchor="start" x="211.5" y="-22" font-family="Helvetica,sans-Serif" font-size="10.00">+</text>
<text text-anchor="start" x="237" y="-22" font-family="Helvetica,sans-Serif" font-size="10.00">size</text>
<text text-anchor="start" x="243" y="-7" font-family="Helvetica,sans-Serif" font-size="10.00"> </text>
<polygon fill="#666666" stroke="#666666" points="195,-47 195,-47 295,-47 295,-47 195,-47"/>
<polygon fill="#666666" stroke="#666666" points="195,-17 195,-17 235,-17 235,-17 195,-17"/>
<polygon fill="#666666" stroke="#666666" points="235,-17 235,-17 295,-17 295,-17 235,-17"/>
<polygon fill="none" stroke="#666666" points="195,0 195,-64 295,-64 295,0 195,0"/>
</a>
</g>
</g>
<!-- Node2 -->
<g id="Node000002" class="node">
<title>Node2</title>
<g id="a_Node000002"><a xlink:href="structlfs.html" target="_top" xlink:title=" ">
<polygon fill="white" stroke="transparent" points="285,-250 205,-250 205,-111 285,-111 285,-250"/>
<text text-anchor="start" x="238.5" y="-237.5" font-family="Helvetica,sans-Serif" font-size="10.00">lfs</text>
<text text-anchor="start" x="209" y="-222.5" font-family="Helvetica,sans-Serif" font-size="10.00">+</text>
<text text-anchor="start" x="222" y="-222.5" font-family="Helvetica,sans-Serif" font-size="10.00">root</text>
<text text-anchor="start" x="209" y="-207.5" font-family="Helvetica,sans-Serif" font-size="10.00">+</text>
<text text-anchor="start" x="222" y="-207.5" font-family="Helvetica,sans-Serif" font-size="10.00">seed</text>
<text text-anchor="start" x="209" y="-192.5" font-family="Helvetica,sans-Serif" font-size="10.00">+</text>
<text text-anchor="start" x="222" y="-192.5" font-family="Helvetica,sans-Serif" font-size="10.00">block_count</text>
<text text-anchor="start" x="209" y="-177.5" font-family="Helvetica,sans-Serif" font-size="10.00">+</text>
<text text-anchor="start" x="222" y="-177.5" font-family="Helvetica,sans-Serif" font-size="10.00">name_max</text>
<text text-anchor="start" x="209" y="-162.5" font-family="Helvetica,sans-Serif" font-size="10.00">+</text>
<text text-anchor="start" x="222" y="-162.5" font-family="Helvetica,sans-Serif" font-size="10.00">file_max</text>
<text text-anchor="start" x="209" y="-147.5" font-family="Helvetica,sans-Serif" font-size="10.00">+</text>
<text text-anchor="start" x="222" y="-147.5" font-family="Helvetica,sans-Serif" font-size="10.00">attr_max</text>
<text text-anchor="start" x="209" y="-132.5" font-family="Helvetica,sans-Serif" font-size="10.00">+</text>
<text text-anchor="start" x="222" y="-132.5" font-family="Helvetica,sans-Serif" font-size="10.00">inline_max</text>
<text text-anchor="start" x="243" y="-117.5" font-family="Helvetica,sans-Serif" font-size="10.00"> </text>
<polygon fill="#bfbfbf" stroke="#bfbfbf" points="205,-232.5 205,-232.5 285,-232.5 285,-232.5 205,-232.5"/>
<polygon fill="#bfbfbf" stroke="#bfbfbf" points="205,-127.5 205,-127.5 220,-127.5 220,-127.5 205,-127.5"/>
<polygon fill="#bfbfbf" stroke="#bfbfbf" points="220,-127.5 220,-127.5 285,-127.5 285,-127.5 220,-127.5"/>
<polygon fill="none" stroke="#bfbfbf" points="205,-111 205,-250 285,-250 285,-111 205,-111"/>
</a>
</g>
</g>
<!-- Node2&#45;&gt;Node1 -->
<g id="edge1_Node000001_Node000002" class="edge">
<title>Node2&#45;&gt;Node1</title>
<g id="a_edge1_Node000001_Node000002"><a xlink:title=" ">
<path fill="none" stroke="#63b8ff" d="M245,-110.97C245,-99.19 245,-87.25 245,-76.38"/>
<polygon fill="none" stroke="#63b8ff" points="245,-76.17 241,-70.17 245,-64.17 249,-70.17 245,-76.17"/>
</a>
</g>
<text text-anchor="middle" x="257" y="-85" font-family="Helvetica,sans-Serif" font-size="10.00" fill="grey"> +lfs</text>
</g>
<!-- Node3 -->
<g id="Node000003" class="node">
<title>Node3</title>
<g id="a_Node000003"><a xlink:href="structlfs__cache.html" target="_top" xlink:title="internal littlefs data structures ///">
<polygon fill="white" stroke="transparent" points="56,-465.5 0,-465.5 0,-371.5 56,-371.5 56,-465.5"/>
<text text-anchor="start" x="5" y="-453.5" font-family="Helvetica,sans-Serif" font-size="10.00">lfs_cache</text>
<text text-anchor="start" x="5.5" y="-438.5" font-family="Helvetica,sans-Serif" font-size="10.00">+</text>
<text text-anchor="start" x="20" y="-438.5" font-family="Helvetica,sans-Serif" font-size="10.00">block</text>
<text text-anchor="start" x="5.5" y="-423.5" font-family="Helvetica,sans-Serif" font-size="10.00">+</text>
<text text-anchor="start" x="20" y="-423.5" font-family="Helvetica,sans-Serif" font-size="10.00">off</text>
<text text-anchor="start" x="5.5" y="-408.5" font-family="Helvetica,sans-Serif" font-size="10.00">+</text>
<text text-anchor="start" x="20" y="-408.5" font-family="Helvetica,sans-Serif" font-size="10.00">size</text>
<text text-anchor="start" x="5.5" y="-393.5" font-family="Helvetica,sans-Serif" font-size="10.00">+</text>
<text text-anchor="start" x="20" y="-393.5" font-family="Helvetica,sans-Serif" font-size="10.00">buffer</text>
<text text-anchor="start" x="26" y="-378.5" font-family="Helvetica,sans-Serif" font-size="10.00"> </text>
<polygon fill="#666666" stroke="#666666" points="0,-448.5 0,-448.5 56,-448.5 56,-448.5 0,-448.5"/>
<polygon fill="#666666" stroke="#666666" points="0,-388.5 0,-388.5 18,-388.5 18,-388.5 0,-388.5"/>
<polygon fill="#666666" stroke="#666666" points="18,-388.5 18,-388.5 56,-388.5 56,-388.5 18,-388.5"/>
<polygon fill="none" stroke="#666666" points="0,-371.5 0,-465.5 56,-465.5 56,-371.5 0,-371.5"/>
</a>
</g>
</g>
<!-- Node3&#45;&gt;Node2 -->
<g id="edge2_Node000002_Node000003" class="edge">
<title>Node3&#45;&gt;Node2</title>
<g id="a_edge2_Node000002_Node000003"><a xlink:title=" ">
<path fill="none" stroke="#63b8ff" d="M39.79,-371.4C45.61,-353.97 53.84,-334.6 65,-319 98.92,-271.58 153.92,-232.97 194.21,-208.87"/>
<polygon fill="none" stroke="#63b8ff" points="194.28,-208.83 197.43,-202.34 204.63,-202.76 201.48,-209.24 194.28,-208.83"/>
</a>
</g>
<text text-anchor="middle" x="134" y="-287.5" font-family="Helvetica,sans-Serif" font-size="10.00" fill="grey"> +pcache</text>
<text text-anchor="middle" x="134" y="-276.5" font-family="Helvetica,sans-Serif" font-size="10.00" fill="grey">+rcache</text>
</g>
<!-- Node4 -->
<g id="Node000004" class="node">
<title>Node4</title>
<g id="a_Node000004"><a xlink:href="structlfs_1_1lfs__mlist.html" target="_top" xlink:title=" ">
<polygon fill="white" stroke="transparent" points="145.5,-450.5 74.5,-450.5 74.5,-386.5 145.5,-386.5 145.5,-450.5"/>
<text text-anchor="start" x="80" y="-438.5" font-family="Helvetica,sans-Serif" font-size="10.00">lfs::lfs_mlist</text>
<text text-anchor="start" x="86" y="-423.5" font-family="Helvetica,sans-Serif" font-size="10.00">+</text>
<text text-anchor="start" x="106" y="-423.5" font-family="Helvetica,sans-Serif" font-size="10.00">id</text>
<text text-anchor="start" x="86" y="-408.5" font-family="Helvetica,sans-Serif" font-size="10.00">+</text>
<text text-anchor="start" x="106" y="-408.5" font-family="Helvetica,sans-Serif" font-size="10.00">type</text>
<text text-anchor="start" x="108.5" y="-393.5" font-family="Helvetica,sans-Serif" font-size="10.00"> </text>
<polygon fill="#bfbfbf" stroke="#bfbfbf" points="75,-433.5 75,-433.5 146,-433.5 146,-433.5 75,-433.5"/>
<polygon fill="#bfbfbf" stroke="#bfbfbf" points="75,-403.5 75,-403.5 104,-403.5 104,-403.5 75,-403.5"/>
<polygon fill="#bfbfbf" stroke="#bfbfbf" points="104,-403.5 104,-403.5 146,-403.5 146,-403.5 104,-403.5"/>
<polygon fill="none" stroke="#bfbfbf" points="74.5,-386.5 74.5,-450.5 145.5,-450.5 145.5,-386.5 74.5,-386.5"/>
</a>
</g>
</g>
<!-- Node4&#45;&gt;Node2 -->
<g id="edge3_Node000002_Node000004" class="edge">
<title>Node4&#45;&gt;Node2</title>
<g id="a_edge3_Node000002_Node000004"><a xlink:title=" ">
<path fill="none" stroke="#63b8ff" d="M127.93,-386.16C146.15,-354.31 175.11,-303.67 199.67,-260.74"/>
<polygon fill="none" stroke="#63b8ff" points="199.69,-260.71 199.2,-253.52 205.65,-250.29 206.14,-257.49 199.69,-260.71"/>
</a>
</g>
<text text-anchor="middle" x="211.5" y="-282" font-family="Helvetica,sans-Serif" font-size="10.00" fill="grey"> +mlist</text>
</g>
<!-- Node4&#45;&gt;Node4 -->
<g id="edge4_Node000004_Node000004" class="edge">
<title>Node4&#45;&gt;Node4</title>
<g id="a_edge4_Node000004_Node000004"><a xlink:title=" ">
<path fill="none" stroke="#63b8ff" d="M145.75,-441.26C155.79,-440.27 163.5,-432.68 163.5,-418.5 163.5,-410.3 160.92,-404.31 156.81,-400.52"/>
<polygon fill="none" stroke="#63b8ff" points="156.77,-400.5 149.67,-401.79 145.75,-395.74 152.85,-394.45 156.77,-400.5"/>
</a>
</g>
<text text-anchor="middle" x="180.5" y="-416" font-family="Helvetica,sans-Serif" font-size="10.00" fill="grey"> +next</text>
</g>
<!-- Node5 -->
<g id="Node000005" class="node">
<title>Node5</title>
<g id="a_Node000005"><a xlink:href="structlfs__mdir.html" target="_top" xlink:title=" ">
<polygon fill="white" stroke="transparent" points="137.5,-719 82.5,-719 82.5,-565 137.5,-565 137.5,-719"/>
<text text-anchor="start" x="90.5" y="-707" font-family="Helvetica,sans-Serif" font-size="10.00">lfs_mdir</text>
<text text-anchor="start" x="87" y="-692" font-family="Helvetica,sans-Serif" font-size="10.00">+</text>
<text text-anchor="start" x="100" y="-692" font-family="Helvetica,sans-Serif" font-size="10.00">pair</text>
<text text-anchor="start" x="87" y="-677" font-family="Helvetica,sans-Serif" font-size="10.00">+</text>
<text text-anchor="start" x="100" y="-677" font-family="Helvetica,sans-Serif" font-size="10.00">rev</text>
<text text-anchor="start" x="87" y="-662" font-family="Helvetica,sans-Serif" font-size="10.00">+</text>
<text text-anchor="start" x="100" y="-662" font-family="Helvetica,sans-Serif" font-size="10.00">off</text>
<text text-anchor="start" x="87" y="-647" font-family="Helvetica,sans-Serif" font-size="10.00">+</text>
<text text-anchor="start" x="100" y="-647" font-family="Helvetica,sans-Serif" font-size="10.00">etag</text>
<text text-anchor="start" x="87" y="-632" font-family="Helvetica,sans-Serif" font-size="10.00">+</text>
<text text-anchor="start" x="100" y="-632" font-family="Helvetica,sans-Serif" font-size="10.00">count</text>
<text text-anchor="start" x="87" y="-617" font-family="Helvetica,sans-Serif" font-size="10.00">+</text>
<text text-anchor="start" x="100" y="-617" font-family="Helvetica,sans-Serif" font-size="10.00">erased</text>
<text text-anchor="start" x="87" y="-602" font-family="Helvetica,sans-Serif" font-size="10.00">+</text>
<text text-anchor="start" x="100" y="-602" font-family="Helvetica,sans-Serif" font-size="10.00">split</text>
<text text-anchor="start" x="87" y="-587" font-family="Helvetica,sans-Serif" font-size="10.00">+</text>
<text text-anchor="start" x="100" y="-587" font-family="Helvetica,sans-Serif" font-size="10.00">tail</text>
<text text-anchor="start" x="108.5" y="-572" font-family="Helvetica,sans-Serif" font-size="10.00"> </text>
<polygon fill="#bfbfbf" stroke="#bfbfbf" points="83,-702 83,-702 138,-702 138,-702 83,-702"/>
<polygon fill="#bfbfbf" stroke="#bfbfbf" points="83,-582 83,-582 98,-582 98,-582 83,-582"/>
<polygon fill="#bfbfbf" stroke="#bfbfbf" points="98,-582 98,-582 138,-582 138,-582 98,-582"/>
<polygon fill="none" stroke="#bfbfbf" points="82.5,-565 82.5,-719 137.5,-719 137.5,-565 82.5,-565"/>
</a>
</g>
</g>
<!-- Node5&#45;&gt;Node4 -->
<g id="edge5_Node000004_Node000005" class="edge">
<title>Node5&#45;&gt;Node4</title>
<g id="a_edge5_Node000004_Node000005"><a xlink:title=" ">
<path fill="none" stroke="#63b8ff" d="M110,-564.77C110,-530.65 110,-491.68 110,-462.69"/>
<polygon fill="none" stroke="#63b8ff" points="110,-462.53 106,-456.53 110,-450.53 114,-456.53 110,-462.53"/>
</a>
</g>
<text text-anchor="middle" x="121" y="-539" font-family="Helvetica,sans-Serif" font-size="10.00" fill="grey"> +m</text>
</g>
<!-- Node6 -->
<g id="Node000006" class="node">
<title>Node6</title>
<g id="a_Node000006"><a xlink:href="structlfs__gstate.html" target="_top" xlink:title=" ">
<polygon fill="white" stroke="transparent" points="274.5,-450.5 215.5,-450.5 215.5,-386.5 274.5,-386.5 274.5,-450.5"/>
<text text-anchor="start" x="221" y="-438.5" font-family="Helvetica,sans-Serif" font-size="10.00">lfs_gstate</text>
<text text-anchor="start" x="224.5" y="-423.5" font-family="Helvetica,sans-Serif" font-size="10.00">+</text>
<text text-anchor="start" x="242" y="-423.5" font-family="Helvetica,sans-Serif" font-size="10.00">tag</text>
<text text-anchor="start" x="224.5" y="-408.5" font-family="Helvetica,sans-Serif" font-size="10.00">+</text>
<text text-anchor="start" x="242" y="-408.5" font-family="Helvetica,sans-Serif" font-size="10.00">pair</text>
<text text-anchor="start" x="243.5" y="-393.5" font-family="Helvetica,sans-Serif" font-size="10.00"> </text>
<polygon fill="#bfbfbf" stroke="#bfbfbf" points="216,-433.5 216,-433.5 275,-433.5 275,-433.5 216,-433.5"/>
<polygon fill="#bfbfbf" stroke="#bfbfbf" points="216,-403.5 216,-403.5 240,-403.5 240,-403.5 216,-403.5"/>
<polygon fill="#bfbfbf" stroke="#bfbfbf" points="240,-403.5 240,-403.5 275,-403.5 275,-403.5 240,-403.5"/>
<polygon fill="none" stroke="#bfbfbf" points="215.5,-386.5 215.5,-450.5 274.5,-450.5 274.5,-386.5 215.5,-386.5"/>
</a>
</g>
</g>
<!-- Node6&#45;&gt;Node2 -->
<g id="edge6_Node000002_Node000006" class="edge">
<title>Node6&#45;&gt;Node2</title>
<g id="a_edge6_Node000002_Node000006"><a xlink:title=" ">
<path fill="none" stroke="#63b8ff" d="M245,-386.16C245,-354.71 245,-304.96 245,-262.38"/>
<polygon fill="none" stroke="#63b8ff" points="245,-262.29 241,-256.29 245,-250.29 249,-256.29 245,-262.29"/>
</a>
</g>
<text text-anchor="middle" x="266.5" y="-293" font-family="Helvetica,sans-Serif" font-size="10.00" fill="grey"> +gdelta</text>
<text text-anchor="middle" x="266.5" y="-282" font-family="Helvetica,sans-Serif" font-size="10.00" fill="grey">+gdisk</text>
<text text-anchor="middle" x="266.5" y="-271" font-family="Helvetica,sans-Serif" font-size="10.00" fill="grey">+gstate</text>
</g>
<!-- Node7 -->
<g id="Node000007" class="node">
<title>Node7</title>
<g id="a_Node000007"><a xlink:href="structlfs_1_1lfs__lookahead.html" target="_top" xlink:title=" ">
<polygon fill="white" stroke="transparent" points="389,-473 293,-473 293,-364 389,-364 389,-473"/>
<text text-anchor="start" x="298" y="-460.5" font-family="Helvetica,sans-Serif" font-size="10.00">lfs::lfs_lookahead</text>
<text text-anchor="start" x="306.5" y="-445.5" font-family="Helvetica,sans-Serif" font-size="10.00">+</text>
<text text-anchor="start" x="329" y="-445.5" font-family="Helvetica,sans-Serif" font-size="10.00">start</text>
<text text-anchor="start" x="306.5" y="-430.5" font-family="Helvetica,sans-Serif" font-size="10.00">+</text>
<text text-anchor="start" x="329" y="-430.5" font-family="Helvetica,sans-Serif" font-size="10.00">size</text>
<text text-anchor="start" x="306.5" y="-415.5" font-family="Helvetica,sans-Serif" font-size="10.00">+</text>
<text text-anchor="start" x="329" y="-415.5" font-family="Helvetica,sans-Serif" font-size="10.00">next</text>
<text text-anchor="start" x="306.5" y="-400.5" font-family="Helvetica,sans-Serif" font-size="10.00">+</text>
<text text-anchor="start" x="329" y="-400.5" font-family="Helvetica,sans-Serif" font-size="10.00">ckpoint</text>
<text text-anchor="start" x="306.5" y="-385.5" font-family="Helvetica,sans-Serif" font-size="10.00">+</text>
<text text-anchor="start" x="329" y="-385.5" font-family="Helvetica,sans-Serif" font-size="10.00">buffer</text>
<text text-anchor="start" x="339" y="-370.5" font-family="Helvetica,sans-Serif" font-size="10.00"> </text>
<polygon fill="#bfbfbf" stroke="#bfbfbf" points="293,-455.5 293,-455.5 389,-455.5 389,-455.5 293,-455.5"/>
<polygon fill="#bfbfbf" stroke="#bfbfbf" points="293,-380.5 293,-380.5 327,-380.5 327,-380.5 293,-380.5"/>
<polygon fill="#bfbfbf" stroke="#bfbfbf" points="327,-380.5 327,-380.5 389,-380.5 389,-380.5 327,-380.5"/>
<polygon fill="none" stroke="#bfbfbf" points="293,-364 293,-473 389,-473 389,-364 293,-364"/>
</a>
</g>
</g>
<!-- Node7&#45;&gt;Node2 -->
<g id="edge7_Node000002_Node000007" class="edge">
<title>Node7&#45;&gt;Node2</title>
<g id="a_edge7_Node000002_Node000007"><a xlink:title=" ">
<path fill="none" stroke="#63b8ff" d="M325.95,-363.7C317.23,-334.86 305.36,-298.97 292,-268 291.06,-265.82 290.09,-263.63 289.08,-261.42"/>
<polygon fill="none" stroke="#63b8ff" points="288.97,-261.2 282.79,-257.49 283.84,-250.35 290.02,-254.06 288.97,-261.2"/>
</a>
</g>
<text text-anchor="middle" x="335" y="-282" font-family="Helvetica,sans-Serif" font-size="10.00" fill="grey"> +lookahead</text>
</g>
<!-- Node8 -->
<g id="Node000008" class="node">
<title>Node8</title>
<g id="a_Node000008"><a xlink:href="structlfs__config.html" target="_top" xlink:title=" ">
<polygon fill="white" stroke="transparent" points="499,-518 407,-518 407,-319 499,-319 499,-518"/>
<text text-anchor="start" x="429.5" y="-505.5" font-family="Helvetica,sans-Serif" font-size="10.00">lfs_config</text>
<text text-anchor="start" x="411" y="-490.5" font-family="Helvetica,sans-Serif" font-size="10.00">+</text>
<text text-anchor="start" x="424" y="-490.5" font-family="Helvetica,sans-Serif" font-size="10.00">context</text>
<text text-anchor="start" x="411" y="-475.5" font-family="Helvetica,sans-Serif" font-size="10.00">+</text>
<text text-anchor="start" x="424" y="-475.5" font-family="Helvetica,sans-Serif" font-size="10.00">read</text>
<text text-anchor="start" x="411" y="-460.5" font-family="Helvetica,sans-Serif" font-size="10.00">+</text>
<text text-anchor="start" x="424" y="-460.5" font-family="Helvetica,sans-Serif" font-size="10.00">prog</text>
<text text-anchor="start" x="411" y="-445.5" font-family="Helvetica,sans-Serif" font-size="10.00">+</text>
<text text-anchor="start" x="424" y="-445.5" font-family="Helvetica,sans-Serif" font-size="10.00">erase</text>
<text text-anchor="start" x="411" y="-430.5" font-family="Helvetica,sans-Serif" font-size="10.00">+</text>
<text text-anchor="start" x="424" y="-430.5" font-family="Helvetica,sans-Serif" font-size="10.00">sync</text>
<text text-anchor="start" x="411" y="-415.5" font-family="Helvetica,sans-Serif" font-size="10.00">+</text>
<text text-anchor="start" x="424" y="-415.5" font-family="Helvetica,sans-Serif" font-size="10.00">read_size</text>
<text text-anchor="start" x="411" y="-400.5" font-family="Helvetica,sans-Serif" font-size="10.00">+</text>
<text text-anchor="start" x="424" y="-400.5" font-family="Helvetica,sans-Serif" font-size="10.00">prog_size</text>
<text text-anchor="start" x="411" y="-385.5" font-family="Helvetica,sans-Serif" font-size="10.00">+</text>
<text text-anchor="start" x="424" y="-385.5" font-family="Helvetica,sans-Serif" font-size="10.00">block_size</text>
<text text-anchor="start" x="411" y="-370.5" font-family="Helvetica,sans-Serif" font-size="10.00">+</text>
<text text-anchor="start" x="424" y="-370.5" font-family="Helvetica,sans-Serif" font-size="10.00">block_count</text>
<text text-anchor="start" x="411" y="-355.5" font-family="Helvetica,sans-Serif" font-size="10.00">+</text>
<text text-anchor="start" x="424" y="-355.5" font-family="Helvetica,sans-Serif" font-size="10.00">block_cycles</text>
<text text-anchor="start" x="424" y="-340.5" font-family="Helvetica,sans-Serif" font-size="10.00">and 11 more...</text>
<text text-anchor="start" x="451" y="-325.5" font-family="Helvetica,sans-Serif" font-size="10.00"> </text>
<polygon fill="#bfbfbf" stroke="#bfbfbf" points="407,-500.5 407,-500.5 499,-500.5 499,-500.5 407,-500.5"/>
<polygon fill="#bfbfbf" stroke="#bfbfbf" points="407,-335.5 407,-335.5 422,-335.5 422,-335.5 407,-335.5"/>
<polygon fill="#bfbfbf" stroke="#bfbfbf" points="422,-335.5 422,-335.5 499,-335.5 499,-335.5 422,-335.5"/>
<polygon fill="none" stroke="#bfbfbf" points="407,-319 407,-518 499,-518 499,-319 407,-319"/>
</a>
</g>
</g>
<!-- Node8&#45;&gt;Node2 -->
<g id="edge8_Node000002_Node000008" class="edge">
<title>Node8&#45;&gt;Node2</title>
<g id="a_edge8_Node000002_Node000008"><a xlink:title=" ">
<path fill="none" stroke="#63b8ff" d="M406.85,-319.03C396.12,-301.04 383.75,-283.18 370,-268 348.85,-244.66 320.26,-224.28 295.75,-209.18"/>
<polygon fill="none" stroke="#63b8ff" points="295.47,-209.01 288.27,-209.35 285.18,-202.83 292.39,-202.49 295.47,-209.01"/>
</a>
</g>
<text text-anchor="middle" x="405.5" y="-282" font-family="Helvetica,sans-Serif" font-size="10.00" fill="grey"> +cfg</text>
</g>
</g>
</svg>

<g id="navigator" transform="translate(0 0)" fill="#404254">
  <rect fill="#f2f5e9" fill-opacity="0.5" stroke="#606060" stroke-width=".5" x="0" y="0" width="60" height="60"/>
  <use id="zoomplus" xlink:href="#zoomPlus" x="17" y="9" onmousedown="handleZoom(evt,'in')"/>
  <use id="zoomminus" xlink:href="#zoomMin" x="42" y="9" onmousedown="handleZoom(evt,'out')"/>
  <use id="reset" xlink:href="#resetDef" x="30" y="36" onmousedown="handleReset()"/>
   <use id="arrowup" xlink:href="#arrowUp" x="0" y="0" onmousedown="handlePan(0,-1)"/>
  <use id="arrowright" xlink:href="#arrowRight" x="0" y="0" onmousedown="handlePan(1,0)"/>
  <use id="arrowdown" xlink:href="#arrowDown" x="0" y="0" onmousedown="handlePan(0,1)"/>
  <use id="arrowleft" xlink:href="#arrowLeft" x="0" y="0" onmousedown="handlePan(-1,0)"/>
</g>
<svg viewBox="0 0 15 15" width="100%" height="30px" preserveAspectRatio="xMaxYMin meet">
 <g id="arrow_out" transform="scale(0.3 0.3)">
  <a xlink:href="structlfs__dir__find__match__coll__graph_org.svg" target="_base">
   <rect id="button" ry="5" rx="5" y="6" x="6" height="38" width="38"
        fill="#f2f5e9" fill-opacity="0.5" stroke="#606060" stroke-width="1.0"/>
   <path id="arrow"
     d="M 11.500037,31.436501 C 11.940474,20.09759 22.043105,11.32322 32.158766,21.979434 L 37.068811,17.246167 C 37.068811,17.246167 37.088388,32 37.088388,32 L 22.160133,31.978069 C 22.160133,31.978069 26.997745,27.140456 26.997745,27.140456 C 18.528582,18.264221 13.291696,25.230495 11.500037,31.436501 z"
     style="fill:#404040;"/>
  </a>
 </g>
</svg>

<style type='text/css'>
<![CDATA[
[data-mouse-over-selected='false'] { opacity: 0.7; }
[data-mouse-over-selected='true']  { opacity: 1.0; }
]]>
</style>
<script type="application/ecmascript"><![CDATA[
document.addEventListener('DOMContentLoaded', (event) => {
  highlightEdges();
  highlightAdjacentNodes();
});
]]></script>
</svg>
