<?xml version="1.0" encoding="UTF-8" standalone="no"?>
<!DOCTYPE svg PUBLIC "-//W3C//DTD SVG 1.1//EN"
 "http://www.w3.org/Graphics/SVG/1.1/DTD/svg11.dtd">
<!-- Generated by graphviz version 2.43.0 (0)
 -->
<!-- Title: lfs Pages: 1 -->
<svg width="507pt" height="616pt"
 viewBox="0.00 0.00 507.00 616.00" xmlns="http://www.w3.org/2000/svg" xmlns:xlink="http://www.w3.org/1999/xlink">
<g id="graph0" class="graph" transform="scale(1 1) rotate(0) translate(4 612)">
<title>lfs</title>
<!-- Node1 -->
<g id="Node000001" class="node">
<title>Node1</title>
<g id="a_Node000001"><a xlink:title=" ">
<polygon fill="#999999" stroke="transparent" points="285,-139 205,-139 205,0 285,0 285,-139"/>
<text text-anchor="start" x="238.5" y="-126.5" font-family="Helvetica,sans-Serif" font-size="10.00">lfs</text>
<text text-anchor="start" x="209" y="-111.5" font-family="Helvetica,sans-Serif" font-size="10.00">+</text>
<text text-anchor="start" x="222" y="-111.5" font-family="Helvetica,sans-Serif" font-size="10.00">root</text>
<text text-anchor="start" x="209" y="-96.5" font-family="Helvetica,sans-Serif" font-size="10.00">+</text>
<text text-anchor="start" x="222" y="-96.5" font-family="Helvetica,sans-Serif" font-size="10.00">seed</text>
<text text-anchor="start" x="209" y="-81.5" font-family="Helvetica,sans-Serif" font-size="10.00">+</text>
<text text-anchor="start" x="222" y="-81.5" font-family="Helvetica,sans-Serif" font-size="10.00">block_count</text>
<text text-anchor="start" x="209" y="-66.5" font-family="Helvetica,sans-Serif" font-size="10.00">+</text>
<text text-anchor="start" x="222" y="-66.5" font-family="Helvetica,sans-Serif" font-size="10.00">name_max</text>
<text text-anchor="start" x="209" y="-51.5" font-family="Helvetica,sans-Serif" font-size="10.00">+</text>
<text text-anchor="start" x="222" y="-51.5" font-family="Helvetica,sans-Serif" font-size="10.00">file_max</text>
<text text-anchor="start" x="209" y="-36.5" font-family="Helvetica,sans-Serif" font-size="10.00">+</text>
<text text-anchor="start" x="222" y="-36.5" font-family="Helvetica,sans-Serif" font-size="10.00">attr_max</text>
<text text-anchor="start" x="209" y="-21.5" font-family="Helvetica,sans-Serif" font-size="10.00">+</text>
<text text-anchor="start" x="222" y="-21.5" font-family="Helvetica,sans-Serif" font-size="10.00">inline_max</text>
<text text-anchor="start" x="243" y="-6.5" font-family="Helvetica,sans-Serif" font-size="10.00"> </text>
<polygon fill="#666666" stroke="#666666" points="205,-121.5 205,-121.5 285,-121.5 285,-121.5 205,-121.5"/>
<polygon fill="#666666" stroke="#666666" points="205,-16.5 205,-16.5 220,-16.5 220,-16.5 205,-16.5"/>
<polygon fill="#666666" stroke="#666666" points="220,-16.5 220,-16.5 285,-16.5 285,-16.5 220,-16.5"/>
<polygon fill="none" stroke="#666666" points="205,0 205,-139 285,-139 285,0 205,0"/>
</a>
</g>
</g>
<!-- Node2 -->
<g id="Node000002" class="node">
<title>Node2</title>
<g id="a_Node000002"><a xlink:href="structlfs__cache.html" target="_top" xlink:title="internal littlefs data structures ///">
<polygon fill="white" stroke="transparent" points="56,-354.5 0,-354.5 0,-260.5 56,-260.5 56,-354.5"/>
<text text-anchor="start" x="5" y="-342.5" font-family="Helvetica,sans-Serif" font-size="10.00">lfs_cache</text>
<text text-anchor="start" x="5.5" y="-327.5" font-family="Helvetica,sans-Serif" font-size="10.00">+</text>
<text text-anchor="start" x="20" y="-327.5" font-family="Helvetica,sans-Serif" font-size="10.00">block</text>
<text text-anchor="start" x="5.5" y="-312.5" font-family="Helvetica,sans-Serif" font-size="10.00">+</text>
<text text-anchor="start" x="20" y="-312.5" font-family="Helvetica,sans-Serif" font-size="10.00">off</text>
<text text-anchor="start" x="5.5" y="-297.5" font-family="Helvetica,sans-Serif" font-size="10.00">+</text>
<text text-anchor="start" x="20" y="-297.5" font-family="Helvetica,sans-Serif" font-size="10.00">size</text>
<text text-anchor="start" x="5.5" y="-282.5" font-family="Helvetica,sans-Serif" font-size="10.00">+</text>
<text text-anchor="start" x="20" y="-282.5" font-family="Helvetica,sans-Serif" font-size="10.00">buffer</text>
<text text-anchor="start" x="26" y="-267.5" font-family="Helvetica,sans-Serif" font-size="10.00"> </text>
<polygon fill="#666666" stroke="#666666" points="0,-337.5 0,-337.5 56,-337.5 56,-337.5 0,-337.5"/>
<polygon fill="#666666" stroke="#666666" points="0,-277.5 0,-277.5 18,-277.5 18,-277.5 0,-277.5"/>
<polygon fill="#666666" stroke="#666666" points="18,-277.5 18,-277.5 56,-277.5 56,-277.5 18,-277.5"/>
<polygon fill="none" stroke="#666666" points="0,-260.5 0,-354.5 56,-354.5 56,-260.5 0,-260.5"/>
</a>
</g>
</g>
<!-- Node2&#45;&gt;Node1 -->
<g id="edge1_Node000001_Node000002" class="edge">
<title>Node2&#45;&gt;Node1</title>
<g id="a_edge1_Node000001_Node000002"><a xlink:title=" ">
<path fill="none" stroke="#63b8ff" d="M39.79,-260.4C45.61,-242.97 53.84,-223.6 65,-208 98.92,-160.58 153.92,-121.97 194.21,-97.87"/>
<polygon fill="none" stroke="#63b8ff" points="194.28,-97.83 197.43,-91.34 204.63,-91.76 201.48,-98.24 194.28,-97.83"/>
</a>
</g>
<text text-anchor="middle" x="134" y="-176.5" font-family="Helvetica,sans-Serif" font-size="10.00" fill="grey"> +pcache</text>
<text text-anchor="middle" x="134" y="-165.5" font-family="Helvetica,sans-Serif" font-size="10.00" fill="grey">+rcache</text>
</g>
<!-- Node3 -->
<g id="Node000003" class="node">
<title>Node3</title>
<g id="a_Node000003"><a xlink:href="structlfs_1_1lfs__mlist.html" target="_top" xlink:title=" ">
<polygon fill="white" stroke="transparent" points="145.5,-339.5 74.5,-339.5 74.5,-275.5 145.5,-275.5 145.5,-339.5"/>
<text text-anchor="start" x="80" y="-327.5" font-family="Helvetica,sans-Serif" font-size="10.00">lfs::lfs_mlist</text>
<text text-anchor="start" x="86" y="-312.5" font-family="Helvetica,sans-Serif" font-size="10.00">+</text>
<text text-anchor="start" x="106" y="-312.5" font-family="Helvetica,sans-Serif" font-size="10.00">id</text>
<text text-anchor="start" x="86" y="-297.5" font-family="Helvetica,sans-Serif" font-size="10.00">+</text>
<text text-anchor="start" x="106" y="-297.5" font-family="Helvetica,sans-Serif" font-size="10.00">type</text>
<text text-anchor="start" x="108.5" y="-282.5" font-family="Helvetica,sans-Serif" font-size="10.00"> </text>
<polygon fill="#bfbfbf" stroke="#bfbfbf" points="75,-322.5 75,-322.5 146,-322.5 146,-322.5 75,-322.5"/>
<polygon fill="#bfbfbf" stroke="#bfbfbf" points="75,-292.5 75,-292.5 104,-292.5 104,-292.5 75,-292.5"/>
<polygon fill="#bfbfbf" stroke="#bfbfbf" points="104,-292.5 104,-292.5 146,-292.5 146,-292.5 104,-292.5"/>
<polygon fill="none" stroke="#bfbfbf" points="74.5,-275.5 74.5,-339.5 145.5,-339.5 145.5,-275.5 74.5,-275.5"/>
</a>
</g>
</g>
<!-- Node3&#45;&gt;Node1 -->
<g id="edge2_Node000001_Node000003" class="edge">
<title>Node3&#45;&gt;Node1</title>
<g id="a_edge2_Node000001_Node000003"><a xlink:title=" ">
<path fill="none" stroke="#63b8ff" d="M127.93,-275.16C146.15,-243.31 175.11,-192.67 199.67,-149.74"/>
<polygon fill="none" stroke="#63b8ff" points="199.69,-149.71 199.2,-142.52 205.65,-139.29 206.14,-146.49 199.69,-149.71"/>
</a>
</g>
<text text-anchor="middle" x="211.5" y="-171" font-family="Helvetica,sans-Serif" font-size="10.00" fill="grey"> +mlist</text>
</g>
<!-- Node3&#45;&gt;Node3 -->
<g id="edge3_Node000003_Node000003" class="edge">
<title>Node3&#45;&gt;Node3</title>
<g id="a_edge3_Node000003_Node000003"><a xlink:title=" ">
<path fill="none" stroke="#63b8ff" d="M145.75,-330.26C155.79,-329.27 163.5,-321.68 163.5,-307.5 163.5,-299.3 160.92,-293.31 156.81,-289.52"/>
<polygon fill="none" stroke="#63b8ff" points="156.77,-289.5 149.67,-290.79 145.75,-284.74 152.85,-283.45 156.77,-289.5"/>
</a>
</g>
<text text-anchor="middle" x="180.5" y="-305" font-family="Helvetica,sans-Serif" font-size="10.00" fill="grey"> +next</text>
</g>
<!-- Node4 -->
<g id="Node000004" class="node">
<title>Node4</title>
<g id="a_Node000004"><a xlink:href="structlfs__mdir.html" target="_top" xlink:title=" ">
<polygon fill="white" stroke="transparent" points="137.5,-608 82.5,-608 82.5,-454 137.5,-454 137.5,-608"/>
<text text-anchor="start" x="90.5" y="-596" font-family="Helvetica,sans-Serif" font-size="10.00">lfs_mdir</text>
<text text-anchor="start" x="87" y="-581" font-family="Helvetica,sans-Serif" font-size="10.00">+</text>
<text text-anchor="start" x="100" y="-581" font-family="Helvetica,sans-Serif" font-size="10.00">pair</text>
<text text-anchor="start" x="87" y="-566" font-family="Helvetica,sans-Serif" font-size="10.00">+</text>
<text text-anchor="start" x="100" y="-566" font-family="Helvetica,sans-Serif" font-size="10.00">rev</text>
<text text-anchor="start" x="87" y="-551" font-family="Helvetica,sans-Serif" font-size="10.00">+</text>
<text text-anchor="start" x="100" y="-551" font-family="Helvetica,sans-Serif" font-size="10.00">off</text>
<text text-anchor="start" x="87" y="-536" font-family="Helvetica,sans-Serif" font-size="10.00">+</text>
<text text-anchor="start" x="100" y="-536" font-family="Helvetica,sans-Serif" font-size="10.00">etag</text>
<text text-anchor="start" x="87" y="-521" font-family="Helvetica,sans-Serif" font-size="10.00">+</text>
<text text-anchor="start" x="100" y="-521" font-family="Helvetica,sans-Serif" font-size="10.00">count</text>
<text text-anchor="start" x="87" y="-506" font-family="Helvetica,sans-Serif" font-size="10.00">+</text>
<text text-anchor="start" x="100" y="-506" font-family="Helvetica,sans-Serif" font-size="10.00">erased</text>
<text text-anchor="start" x="87" y="-491" font-family="Helvetica,sans-Serif" font-size="10.00">+</text>
<text text-anchor="start" x="100" y="-491" font-family="Helvetica,sans-Serif" font-size="10.00">split</text>
<text text-anchor="start" x="87" y="-476" font-family="Helvetica,sans-Serif" font-size="10.00">+</text>
<text text-anchor="start" x="100" y="-476" font-family="Helvetica,sans-Serif" font-size="10.00">tail</text>
<text text-anchor="start" x="108.5" y="-461" font-family="Helvetica,sans-Serif" font-size="10.00"> </text>
<polygon fill="#bfbfbf" stroke="#bfbfbf" points="83,-591 83,-591 138,-591 138,-591 83,-591"/>
<polygon fill="#bfbfbf" stroke="#bfbfbf" points="83,-471 83,-471 98,-471 98,-471 83,-471"/>
<polygon fill="#bfbfbf" stroke="#bfbfbf" points="98,-471 98,-471 138,-471 138,-471 98,-471"/>
<polygon fill="none" stroke="#bfbfbf" points="82.5,-454 82.5,-608 137.5,-608 137.5,-454 82.5,-454"/>
</a>
</g>
</g>
<!-- Node4&#45;&gt;Node3 -->
<g id="edge4_Node000003_Node000004" class="edge">
<title>Node4&#45;&gt;Node3</title>
<g id="a_edge4_Node000003_Node000004"><a xlink:title=" ">
<path fill="none" stroke="#63b8ff" d="M110,-453.77C110,-419.65 110,-380.68 110,-351.69"/>
<polygon fill="none" stroke="#63b8ff" points="110,-351.53 106,-345.53 110,-339.53 114,-345.53 110,-351.53"/>
</a>
</g>
<text text-anchor="middle" x="121" y="-428" font-family="Helvetica,sans-Serif" font-size="10.00" fill="grey"> +m</text>
</g>
<!-- Node5 -->
<g id="Node000005" class="node">
<title>Node5</title>
<g id="a_Node000005"><a xlink:href="structlfs__gstate.html" target="_top" xlink:title=" ">
<polygon fill="white" stroke="transparent" points="274.5,-339.5 215.5,-339.5 215.5,-275.5 274.5,-275.5 274.5,-339.5"/>
<text text-anchor="start" x="221" y="-327.5" font-family="Helvetica,sans-Serif" font-size="10.00">lfs_gstate</text>
<text text-anchor="start" x="224.5" y="-312.5" font-family="Helvetica,sans-Serif" font-size="10.00">+</text>
<text text-anchor="start" x="242" y="-312.5" font-family="Helvetica,sans-Serif" font-size="10.00">tag</text>
<text text-anchor="start" x="224.5" y="-297.5" font-family="Helvetica,sans-Serif" font-size="10.00">+</text>
<text text-anchor="start" x="242" y="-297.5" font-family="Helvetica,sans-Serif" font-size="10.00">pair</text>
<text text-anchor="start" x="243.5" y="-282.5" font-family="Helvetica,sans-Serif" font-size="10.00"> </text>
<polygon fill="#bfbfbf" stroke="#bfbfbf" points="216,-322.5 216,-322.5 275,-322.5 275,-322.5 216,-322.5"/>
<polygon fill="#bfbfbf" stroke="#bfbfbf" points="216,-292.5 216,-292.5 240,-292.5 240,-292.5 216,-292.5"/>
<polygon fill="#bfbfbf" stroke="#bfbfbf" points="240,-292.5 240,-292.5 275,-292.5 275,-292.5 240,-292.5"/>
<polygon fill="none" stroke="#bfbfbf" points="215.5,-275.5 215.5,-339.5 274.5,-339.5 274.5,-275.5 215.5,-275.5"/>
</a>
</g>
</g>
<!-- Node5&#45;&gt;Node1 -->
<g id="edge5_Node000001_Node000005" class="edge">
<title>Node5&#45;&gt;Node1</title>
<g id="a_edge5_Node000001_Node000005"><a xlink:title=" ">
<path fill="none" stroke="#63b8ff" d="M245,-275.16C245,-243.71 245,-193.96 245,-151.38"/>
<polygon fill="none" stroke="#63b8ff" points="245,-151.29 241,-145.29 245,-139.29 249,-145.29 245,-151.29"/>
</a>
</g>
<text text-anchor="middle" x="266.5" y="-182" font-family="Helvetica,sans-Serif" font-size="10.00" fill="grey"> +gdelta</text>
<text text-anchor="middle" x="266.5" y="-171" font-family="Helvetica,sans-Serif" font-size="10.00" fill="grey">+gdisk</text>
<text text-anchor="middle" x="266.5" y="-160" font-family="Helvetica,sans-Serif" font-size="10.00" fill="grey">+gstate</text>
</g>
<!-- Node6 -->
<g id="Node000006" class="node">
<title>Node6</title>
<g id="a_Node000006"><a xlink:href="structlfs_1_1lfs__lookahead.html" target="_top" xlink:title=" ">
<polygon fill="white" stroke="transparent" points="389,-362 293,-362 293,-253 389,-253 389,-362"/>
<text text-anchor="start" x="298" y="-349.5" font-family="Helvetica,sans-Serif" font-size="10.00">lfs::lfs_lookahead</text>
<text text-anchor="start" x="306.5" y="-334.5" font-family="Helvetica,sans-Serif" font-size="10.00">+</text>
<text text-anchor="start" x="329" y="-334.5" font-family="Helvetica,sans-Serif" font-size="10.00">start</text>
<text text-anchor="start" x="306.5" y="-319.5" font-family="Helvetica,sans-Serif" font-size="10.00">+</text>
<text text-anchor="start" x="329" y="-319.5" font-family="Helvetica,sans-Serif" font-size="10.00">size</text>
<text text-anchor="start" x="306.5" y="-304.5" font-family="Helvetica,sans-Serif" font-size="10.00">+</text>
<text text-anchor="start" x="329" y="-304.5" font-family="Helvetica,sans-Serif" font-size="10.00">next</text>
<text text-anchor="start" x="306.5" y="-289.5" font-family="Helvetica,sans-Serif" font-size="10.00">+</text>
<text text-anchor="start" x="329" y="-289.5" font-family="Helvetica,sans-Serif" font-size="10.00">ckpoint</text>
<text text-anchor="start" x="306.5" y="-274.5" font-family="Helvetica,sans-Serif" font-size="10.00">+</text>
<text text-anchor="start" x="329" y="-274.5" font-family="Helvetica,sans-Serif" font-size="10.00">buffer</text>
<text text-anchor="start" x="339" y="-259.5" font-family="Helvetica,sans-Serif" font-size="10.00"> </text>
<polygon fill="#bfbfbf" stroke="#bfbfbf" points="293,-344.5 293,-344.5 389,-344.5 389,-344.5 293,-344.5"/>
<polygon fill="#bfbfbf" stroke="#bfbfbf" points="293,-269.5 293,-269.5 327,-269.5 327,-269.5 293,-269.5"/>
<polygon fill="#bfbfbf" stroke="#bfbfbf" points="327,-269.5 327,-269.5 389,-269.5 389,-269.5 327,-269.5"/>
<polygon fill="none" stroke="#bfbfbf" points="293,-253 293,-362 389,-362 389,-253 293,-253"/>
</a>
</g>
</g>
<!-- Node6&#45;&gt;Node1 -->
<g id="edge6_Node000001_Node000006" class="edge">
<title>Node6&#45;&gt;Node1</title>
<g id="a_edge6_Node000001_Node000006"><a xlink:title=" ">
<path fill="none" stroke="#63b8ff" d="M325.95,-252.7C317.23,-223.86 305.36,-187.97 292,-157 291.06,-154.82 290.09,-152.63 289.08,-150.42"/>
<polygon fill="none" stroke="#63b8ff" points="288.97,-150.2 282.79,-146.49 283.84,-139.35 290.02,-143.06 288.97,-150.2"/>
</a>
</g>
<text text-anchor="middle" x="335" y="-171" font-family="Helvetica,sans-Serif" font-size="10.00" fill="grey"> +lookahead</text>
</g>
<!-- Node7 -->
<g id="Node000007" class="node">
<title>Node7</title>
<g id="a_Node000007"><a xlink:href="structlfs__config.html" target="_top" xlink:title=" ">
<polygon fill="white" stroke="transparent" points="499,-407 407,-407 407,-208 499,-208 499,-407"/>
<text text-anchor="start" x="429.5" y="-394.5" font-family="Helvetica,sans-Serif" font-size="10.00">lfs_config</text>
<text text-anchor="start" x="411" y="-379.5" font-family="Helvetica,sans-Serif" font-size="10.00">+</text>
<text text-anchor="start" x="424" y="-379.5" font-family="Helvetica,sans-Serif" font-size="10.00">context</text>
<text text-anchor="start" x="411" y="-364.5" font-family="Helvetica,sans-Serif" font-size="10.00">+</text>
<text text-anchor="start" x="424" y="-364.5" font-family="Helvetica,sans-Serif" font-size="10.00">read</text>
<text text-anchor="start" x="411" y="-349.5" font-family="Helvetica,sans-Serif" font-size="10.00">+</text>
<text text-anchor="start" x="424" y="-349.5" font-family="Helvetica,sans-Serif" font-size="10.00">prog</text>
<text text-anchor="start" x="411" y="-334.5" font-family="Helvetica,sans-Serif" font-size="10.00">+</text>
<text text-anchor="start" x="424" y="-334.5" font-family="Helvetica,sans-Serif" font-size="10.00">erase</text>
<text text-anchor="start" x="411" y="-319.5" font-family="Helvetica,sans-Serif" font-size="10.00">+</text>
<text text-anchor="start" x="424" y="-319.5" font-family="Helvetica,sans-Serif" font-size="10.00">sync</text>
<text text-anchor="start" x="411" y="-304.5" font-family="Helvetica,sans-Serif" font-size="10.00">+</text>
<text text-anchor="start" x="424" y="-304.5" font-family="Helvetica,sans-Serif" font-size="10.00">read_size</text>
<text text-anchor="start" x="411" y="-289.5" font-family="Helvetica,sans-Serif" font-size="10.00">+</text>
<text text-anchor="start" x="424" y="-289.5" font-family="Helvetica,sans-Serif" font-size="10.00">prog_size</text>
<text text-anchor="start" x="411" y="-274.5" font-family="Helvetica,sans-Serif" font-size="10.00">+</text>
<text text-anchor="start" x="424" y="-274.5" font-family="Helvetica,sans-Serif" font-size="10.00">block_size</text>
<text text-anchor="start" x="411" y="-259.5" font-family="Helvetica,sans-Serif" font-size="10.00">+</text>
<text text-anchor="start" x="424" y="-259.5" font-family="Helvetica,sans-Serif" font-size="10.00">block_count</text>
<text text-anchor="start" x="411" y="-244.5" font-family="Helvetica,sans-Serif" font-size="10.00">+</text>
<text text-anchor="start" x="424" y="-244.5" font-family="Helvetica,sans-Serif" font-size="10.00">block_cycles</text>
<text text-anchor="start" x="424" y="-229.5" font-family="Helvetica,sans-Serif" font-size="10.00">and 11 more...</text>
<text text-anchor="start" x="451" y="-214.5" font-family="Helvetica,sans-Serif" font-size="10.00"> </text>
<polygon fill="#bfbfbf" stroke="#bfbfbf" points="407,-389.5 407,-389.5 499,-389.5 499,-389.5 407,-389.5"/>
<polygon fill="#bfbfbf" stroke="#bfbfbf" points="407,-224.5 407,-224.5 422,-224.5 422,-224.5 407,-224.5"/>
<polygon fill="#bfbfbf" stroke="#bfbfbf" points="422,-224.5 422,-224.5 499,-224.5 499,-224.5 422,-224.5"/>
<polygon fill="none" stroke="#bfbfbf" points="407,-208 407,-407 499,-407 499,-208 407,-208"/>
</a>
</g>
</g>
<!-- Node7&#45;&gt;Node1 -->
<g id="edge7_Node000001_Node000007" class="edge">
<title>Node7&#45;&gt;Node1</title>
<g id="a_edge7_Node000001_Node000007"><a xlink:title=" ">
<path fill="none" stroke="#63b8ff" d="M406.85,-208.03C396.12,-190.04 383.75,-172.18 370,-157 348.85,-133.66 320.26,-113.28 295.75,-98.18"/>
<polygon fill="none" stroke="#63b8ff" points="295.47,-98.01 288.27,-98.35 285.18,-91.83 292.39,-91.49 295.47,-98.01"/>
</a>
</g>
<text text-anchor="middle" x="405.5" y="-171" font-family="Helvetica,sans-Serif" font-size="10.00" fill="grey"> +cfg</text>
</g>
</g>
</svg>
