<?xml version="1.0" encoding="UTF-8" standalone="no"?>
<!DOCTYPE svg PUBLIC "-//W3C//DTD SVG 1.1//EN"
 "http://www.w3.org/Graphics/SVG/1.1/DTD/svg11.dtd">
<!-- Generated by graphviz version 2.43.0 (0)
 -->
<!-- Title: lfs_file Pages: 1 -->
<!--zoomable 459 -->

<svg id="main" version="1.1" xmlns="http://www.w3.org/2000/svg" xmlns:xlink="http://www.w3.org/1999/xlink" xml:space="preserve" onload="init(evt)">
<style type="text/css"><![CDATA[
.node, .edge {opacity: 0.7;}
.node.selected, .edge.selected {opacity: 1;}
.edge:hover path { stroke: red; }
.edge:hover polygon { stroke: red; fill: red; }
]]></style>

<defs>
  <circle id="rim" cx="0" cy="0" r="7"/>
  <circle id="rim2" cx="0" cy="0" r="3.5"/>
  <g id="zoomPlus">
    <use xlink:href="#rim" fill="#404040"><set attributeName="fill" to="#808080" begin="zoomplus.mouseover" end="zoomplus.mouseout"/></use>
    <path d="M-4,0h8M0,-4v8" fill="none" stroke="white" stroke-width="1.5" pointer-events="none"/>
  </g>
  <g id="zoomMin">
    <use xlink:href="#rim" fill="#404040"><set attributeName="fill" to="#808080" begin="zoomminus.mouseover" end="zoomminus.mouseout"/></use>
    <path d="M-4,0h8" fill="none" stroke="white" stroke-width="1.5" pointer-events="none"/>
  </g>
  <g id="arrowUp" transform="translate(30 24)">
    <use xlink:href="#rim"/>
    <path pointer-events="none" fill="none" stroke="white" stroke-width="1.5" d="M0,-3.0v7 M-2.5,-0.5L0,-3.0L2.5,-0.5"/>
  </g>
  <g id="arrowRight" transform="rotate(90) translate(36 -43)">
    <use xlink:href="#rim"/>
    <path pointer-events="none" fill="none" stroke="white" stroke-width="1.5" d="M0,-3.0v7 M-2.5,-0.5L0,-3.0L2.5,-0.5"/>
  </g>
  <g id="arrowDown" transform="rotate(180) translate(-30 -48)">
    <use xlink:href="#rim"/>
    <path pointer-events="none" fill="none" stroke="white" stroke-width="1.5" d="M0,-3.0v7 M-2.5,-0.5L0,-3.0L2.5,-0.5"/>
  </g>
  <g id="arrowLeft" transform="rotate(270) translate(-36 17)">
    <use xlink:href="#rim"/>
    <path pointer-events="none" fill="none" stroke="white" stroke-width="1.5" d="M0,-3.0v7 M-2.5,-0.5L0,-3.0L2.5,-0.5"/>
  </g>
  <g id="resetDef">
    <use xlink:href="#rim2" fill="#404040"><set attributeName="fill" to="#808080" begin="reset.mouseover" end="reset.mouseout"/></use>
  </g>
</defs>
<script type="application/ecmascript">
var viewWidth = 331;
var viewHeight = 459;
var sectionId = 'dynsection-0';
</script>
<script type="application/ecmascript" xlink:href="svg.min.js"/>
<svg id="graph" class="graph">
<g id="viewport">
<title>lfs_file</title>
<!-- Node1 -->
<g id="Node000001" class="node">
<title>Node1</title>
<g id="a_Node000001"><a xlink:title=" ">
<polygon fill="#999999" stroke="transparent" points="180.5,-124 132.5,-124 132.5,0 180.5,0 180.5,-124"/>
<text text-anchor="start" x="140" y="-112" font-family="Helvetica,sans-Serif" font-size="10.00">lfs_file</text>
<text text-anchor="start" x="136.5" y="-97" font-family="Helvetica,sans-Serif" font-size="10.00">+</text>
<text text-anchor="start" x="149.5" y="-97" font-family="Helvetica,sans-Serif" font-size="10.00">id</text>
<text text-anchor="start" x="136.5" y="-82" font-family="Helvetica,sans-Serif" font-size="10.00">+</text>
<text text-anchor="start" x="149.5" y="-82" font-family="Helvetica,sans-Serif" font-size="10.00">type</text>
<text text-anchor="start" x="136.5" y="-67" font-family="Helvetica,sans-Serif" font-size="10.00">+</text>
<text text-anchor="start" x="149.5" y="-67" font-family="Helvetica,sans-Serif" font-size="10.00">flags</text>
<text text-anchor="start" x="136.5" y="-52" font-family="Helvetica,sans-Serif" font-size="10.00">+</text>
<text text-anchor="start" x="149.5" y="-52" font-family="Helvetica,sans-Serif" font-size="10.00">pos</text>
<text text-anchor="start" x="136.5" y="-37" font-family="Helvetica,sans-Serif" font-size="10.00">+</text>
<text text-anchor="start" x="149.5" y="-37" font-family="Helvetica,sans-Serif" font-size="10.00">block</text>
<text text-anchor="start" x="136.5" y="-22" font-family="Helvetica,sans-Serif" font-size="10.00">+</text>
<text text-anchor="start" x="149.5" y="-22" font-family="Helvetica,sans-Serif" font-size="10.00">off</text>
<text text-anchor="start" x="154.5" y="-7" font-family="Helvetica,sans-Serif" font-size="10.00"> </text>
<polygon fill="#666666" stroke="#666666" points="132.5,-107 132.5,-107 180.5,-107 180.5,-107 132.5,-107"/>
<polygon fill="#666666" stroke="#666666" points="132.5,-17 132.5,-17 147.5,-17 147.5,-17 132.5,-17"/>
<polygon fill="#666666" stroke="#666666" points="147.5,-17 147.5,-17 180.5,-17 180.5,-17 147.5,-17"/>
<polygon fill="none" stroke="#666666" points="132.5,0 132.5,-124 180.5,-124 180.5,0 132.5,0"/>
</a>
</g>
</g>
<!-- Node1&#45;&gt;Node1 -->
<g id="edge1_Node000001_Node000001" class="edge">
<title>Node1&#45;&gt;Node1</title>
<g id="a_edge1_Node000001_Node000001"><a xlink:title=" ">
<path fill="none" stroke="#63b8ff" d="M180.67,-77.65C190.36,-78.54 198.5,-73.32 198.5,-62 198.5,-55.99 196.2,-51.69 192.6,-49.12"/>
<polygon fill="none" stroke="#63b8ff" points="192.36,-49.07 185.61,-51.6 180.67,-46.35 187.42,-43.81 192.36,-49.07"/>
</a>
</g>
<text text-anchor="middle" x="215.5" y="-59.5" font-family="Helvetica,sans-Serif" font-size="10.00" fill="grey"> +next</text>
</g>
<!-- Node2 -->
<g id="Node000002" class="node">
<title>Node2</title>
<g id="a_Node000002"><a xlink:href="structlfs__mdir.html" target="_top" xlink:title=" ">
<polygon fill="white" stroke="transparent" points="55,-325 0,-325 0,-171 55,-171 55,-325"/>
<text text-anchor="start" x="8" y="-313" font-family="Helvetica,sans-Serif" font-size="10.00">lfs_mdir</text>
<text text-anchor="start" x="4.5" y="-298" font-family="Helvetica,sans-Serif" font-size="10.00">+</text>
<text text-anchor="start" x="17.5" y="-298" font-family="Helvetica,sans-Serif" font-size="10.00">pair</text>
<text text-anchor="start" x="4.5" y="-283" font-family="Helvetica,sans-Serif" font-size="10.00">+</text>
<text text-anchor="start" x="17.5" y="-283" font-family="Helvetica,sans-Serif" font-size="10.00">rev</text>
<text text-anchor="start" x="4.5" y="-268" font-family="Helvetica,sans-Serif" font-size="10.00">+</text>
<text text-anchor="start" x="17.5" y="-268" font-family="Helvetica,sans-Serif" font-size="10.00">off</text>
<text text-anchor="start" x="4.5" y="-253" font-family="Helvetica,sans-Serif" font-size="10.00">+</text>
<text text-anchor="start" x="17.5" y="-253" font-family="Helvetica,sans-Serif" font-size="10.00">etag</text>
<text text-anchor="start" x="4.5" y="-238" font-family="Helvetica,sans-Serif" font-size="10.00">+</text>
<text text-anchor="start" x="17.5" y="-238" font-family="Helvetica,sans-Serif" font-size="10.00">count</text>
<text text-anchor="start" x="4.5" y="-223" font-family="Helvetica,sans-Serif" font-size="10.00">+</text>
<text text-anchor="start" x="17.5" y="-223" font-family="Helvetica,sans-Serif" font-size="10.00">erased</text>
<text text-anchor="start" x="4.5" y="-208" font-family="Helvetica,sans-Serif" font-size="10.00">+</text>
<text text-anchor="start" x="17.5" y="-208" font-family="Helvetica,sans-Serif" font-size="10.00">split</text>
<text text-anchor="start" x="4.5" y="-193" font-family="Helvetica,sans-Serif" font-size="10.00">+</text>
<text text-anchor="start" x="17.5" y="-193" font-family="Helvetica,sans-Serif" font-size="10.00">tail</text>
<text text-anchor="start" x="26" y="-178" font-family="Helvetica,sans-Serif" font-size="10.00"> </text>
<polygon fill="#bfbfbf" stroke="#bfbfbf" points="0.5,-308 0.5,-308 55.5,-308 55.5,-308 0.5,-308"/>
<polygon fill="#bfbfbf" stroke="#bfbfbf" points="0.5,-188 0.5,-188 15.5,-188 15.5,-188 0.5,-188"/>
<polygon fill="#bfbfbf" stroke="#bfbfbf" points="15.5,-188 15.5,-188 55.5,-188 55.5,-188 15.5,-188"/>
<polygon fill="none" stroke="#bfbfbf" points="0,-171 0,-325 55,-325 55,-171 0,-171"/>
</a>
</g>
</g>
<!-- Node2&#45;&gt;Node1 -->
<g id="edge2_Node000001_Node000002" class="edge">
<title>Node2&#45;&gt;Node1</title>
<g id="a_edge2_Node000001_Node000002"><a xlink:title=" ">
<path fill="none" stroke="#63b8ff" d="M55.21,-186.48C58.17,-181.14 61.29,-175.91 64.5,-171 81.92,-144.37 105.2,-117.11 123.97,-96.64"/>
<polygon fill="none" stroke="#63b8ff" points="124.08,-96.52 125.23,-89.41 132.25,-87.73 131.09,-94.85 124.08,-96.52"/>
</a>
</g>
<text text-anchor="middle" x="96.5" y="-145" font-family="Helvetica,sans-Serif" font-size="10.00" fill="grey"> +m</text>
</g>
<!-- Node3 -->
<g id="Node000003" class="node">
<title>Node3</title>
<g id="a_Node000003"><a xlink:href="structlfs__file_1_1lfs__ctz.html" target="_top" xlink:title=" ">
<polygon fill="white" stroke="transparent" points="153.5,-280 73.5,-280 73.5,-216 153.5,-216 153.5,-280"/>
<text text-anchor="start" x="78.5" y="-268" font-family="Helvetica,sans-Serif" font-size="10.00">lfs_file::lfs_ctz</text>
<text text-anchor="start" x="86" y="-253" font-family="Helvetica,sans-Serif" font-size="10.00">+</text>
<text text-anchor="start" x="107.5" y="-253" font-family="Helvetica,sans-Serif" font-size="10.00">head</text>
<text text-anchor="start" x="86" y="-238" font-family="Helvetica,sans-Serif" font-size="10.00">+</text>
<text text-anchor="start" x="107.5" y="-238" font-family="Helvetica,sans-Serif" font-size="10.00">size</text>
<text text-anchor="start" x="111.5" y="-223" font-family="Helvetica,sans-Serif" font-size="10.00"> </text>
<polygon fill="#bfbfbf" stroke="#bfbfbf" points="73.5,-263 73.5,-263 153.5,-263 153.5,-263 73.5,-263"/>
<polygon fill="#bfbfbf" stroke="#bfbfbf" points="73.5,-233 73.5,-233 105.5,-233 105.5,-233 73.5,-233"/>
<polygon fill="#bfbfbf" stroke="#bfbfbf" points="105.5,-233 105.5,-233 153.5,-233 153.5,-233 105.5,-233"/>
<polygon fill="none" stroke="#bfbfbf" points="73.5,-216 73.5,-280 153.5,-280 153.5,-216 73.5,-216"/>
</a>
</g>
</g>
<!-- Node3&#45;&gt;Node1 -->
<g id="edge3_Node000001_Node000003" class="edge">
<title>Node3&#45;&gt;Node1</title>
<g id="a_edge3_Node000001_Node000003"><a xlink:title=" ">
<path fill="none" stroke="#63b8ff" d="M120.79,-215.79C125.91,-193.9 132.97,-163.7 139.46,-135.92"/>
<polygon fill="none" stroke="#63b8ff" points="139.47,-135.88 136.94,-129.13 142.2,-124.2 144.73,-130.95 139.47,-135.88"/>
</a>
</g>
<text text-anchor="middle" x="151.5" y="-145" font-family="Helvetica,sans-Serif" font-size="10.00" fill="grey"> +ctz</text>
</g>
<!-- Node4 -->
<g id="Node000004" class="node">
<title>Node4</title>
<g id="a_Node000004"><a xlink:href="structlfs__cache.html" target="_top" xlink:title="internal littlefs data structures ///">
<polygon fill="white" stroke="transparent" points="227.5,-295 171.5,-295 171.5,-201 227.5,-201 227.5,-295"/>
<text text-anchor="start" x="176.5" y="-283" font-family="Helvetica,sans-Serif" font-size="10.00">lfs_cache</text>
<text text-anchor="start" x="177" y="-268" font-family="Helvetica,sans-Serif" font-size="10.00">+</text>
<text text-anchor="start" x="191.5" y="-268" font-family="Helvetica,sans-Serif" font-size="10.00">block</text>
<text text-anchor="start" x="177" y="-253" font-family="Helvetica,sans-Serif" font-size="10.00">+</text>
<text text-anchor="start" x="191.5" y="-253" font-family="Helvetica,sans-Serif" font-size="10.00">off</text>
<text text-anchor="start" x="177" y="-238" font-family="Helvetica,sans-Serif" font-size="10.00">+</text>
<text text-anchor="start" x="191.5" y="-238" font-family="Helvetica,sans-Serif" font-size="10.00">size</text>
<text text-anchor="start" x="177" y="-223" font-family="Helvetica,sans-Serif" font-size="10.00">+</text>
<text text-anchor="start" x="191.5" y="-223" font-family="Helvetica,sans-Serif" font-size="10.00">buffer</text>
<text text-anchor="start" x="197.5" y="-208" font-family="Helvetica,sans-Serif" font-size="10.00"> </text>
<polygon fill="#666666" stroke="#666666" points="171.5,-278 171.5,-278 227.5,-278 227.5,-278 171.5,-278"/>
<polygon fill="#666666" stroke="#666666" points="171.5,-218 171.5,-218 189.5,-218 189.5,-218 171.5,-218"/>
<polygon fill="#666666" stroke="#666666" points="189.5,-218 189.5,-218 227.5,-218 227.5,-218 189.5,-218"/>
<polygon fill="none" stroke="#666666" points="171.5,-201 171.5,-295 227.5,-295 227.5,-201 171.5,-201"/>
</a>
</g>
</g>
<!-- Node4&#45;&gt;Node1 -->
<g id="edge4_Node000001_Node000004" class="edge">
<title>Node4&#45;&gt;Node1</title>
<g id="a_edge4_Node000001_Node000004"><a xlink:title=" ">
<path fill="none" stroke="#63b8ff" d="M188.65,-200.57C184.07,-180.99 178.64,-157.72 173.55,-135.94"/>
<polygon fill="none" stroke="#63b8ff" points="173.49,-135.71 168.23,-130.78 170.76,-124.03 176.02,-128.96 173.49,-135.71"/>
</a>
</g>
<text text-anchor="middle" x="197.5" y="-145" font-family="Helvetica,sans-Serif" font-size="10.00" fill="grey"> +cache</text>
</g>
<!-- Node5 -->
<g id="Node000005" class="node">
<title>Node5</title>
<g id="a_Node000005"><a xlink:href="structlfs__file__config.html" target="_top" xlink:title=" ">
<polygon fill="white" stroke="transparent" points="323,-280 246,-280 246,-216 323,-216 323,-280"/>
<text text-anchor="start" x="251.5" y="-268" font-family="Helvetica,sans-Serif" font-size="10.00">lfs_file_config</text>
<text text-anchor="start" x="252" y="-253" font-family="Helvetica,sans-Serif" font-size="10.00">+</text>
<text text-anchor="start" x="266.5" y="-253" font-family="Helvetica,sans-Serif" font-size="10.00">buffer</text>
<text text-anchor="start" x="252" y="-238" font-family="Helvetica,sans-Serif" font-size="10.00">+</text>
<text text-anchor="start" x="266.5" y="-238" font-family="Helvetica,sans-Serif" font-size="10.00">attr_count</text>
<text text-anchor="start" x="283" y="-223" font-family="Helvetica,sans-Serif" font-size="10.00"> </text>
<polygon fill="#bfbfbf" stroke="#bfbfbf" points="246.5,-263 246.5,-263 323.5,-263 323.5,-263 246.5,-263"/>
<polygon fill="#bfbfbf" stroke="#bfbfbf" points="246.5,-233 246.5,-233 264.5,-233 264.5,-233 246.5,-233"/>
<polygon fill="#bfbfbf" stroke="#bfbfbf" points="264.5,-233 264.5,-233 323.5,-233 323.5,-233 264.5,-233"/>
<polygon fill="none" stroke="#bfbfbf" points="246,-216 246,-280 323,-280 323,-216 246,-216"/>
</a>
</g>
</g>
<!-- Node5&#45;&gt;Node1 -->
<g id="edge5_Node000001_Node000005" class="edge">
<title>Node5&#45;&gt;Node1</title>
<g id="a_edge5_Node000001_Node000005"><a xlink:title=" ">
<path fill="none" stroke="#63b8ff" d="M267.46,-215.92C255.4,-194.61 238.41,-165.97 221.5,-142 211.46,-127.78 199.58,-112.86 188.74,-99.87"/>
<polygon fill="none" stroke="#63b8ff" points="188.45,-99.53 181.52,-97.52 180.71,-90.36 187.63,-92.36 188.45,-99.53"/>
</a>
</g>
<text text-anchor="middle" x="242" y="-145" font-family="Helvetica,sans-Serif" font-size="10.00" fill="grey"> +cfg</text>
</g>
<!-- Node6 -->
<g id="Node000006" class="node">
<title>Node6</title>
<g id="a_Node000006"><a xlink:href="structlfs__attr.html" target="_top" xlink:title=" ">
<polygon fill="white" stroke="transparent" points="309.5,-451 259.5,-451 259.5,-372 309.5,-372 309.5,-451"/>
<text text-anchor="start" x="267" y="-438.5" font-family="Helvetica,sans-Serif" font-size="10.00">lfs_attr</text>
<text text-anchor="start" x="263.5" y="-423.5" font-family="Helvetica,sans-Serif" font-size="10.00">+</text>
<text text-anchor="start" x="276.5" y="-423.5" font-family="Helvetica,sans-Serif" font-size="10.00">type</text>
<text text-anchor="start" x="263.5" y="-408.5" font-family="Helvetica,sans-Serif" font-size="10.00">+</text>
<text text-anchor="start" x="276.5" y="-408.5" font-family="Helvetica,sans-Serif" font-size="10.00">buffer</text>
<text text-anchor="start" x="263.5" y="-393.5" font-family="Helvetica,sans-Serif" font-size="10.00">+</text>
<text text-anchor="start" x="276.5" y="-393.5" font-family="Helvetica,sans-Serif" font-size="10.00">size</text>
<text text-anchor="start" x="282.5" y="-378.5" font-family="Helvetica,sans-Serif" font-size="10.00"> </text>
<polygon fill="#bfbfbf" stroke="#bfbfbf" points="259.5,-433.5 259.5,-433.5 309.5,-433.5 309.5,-433.5 259.5,-433.5"/>
<polygon fill="#bfbfbf" stroke="#bfbfbf" points="259.5,-388.5 259.5,-388.5 274.5,-388.5 274.5,-388.5 259.5,-388.5"/>
<polygon fill="#bfbfbf" stroke="#bfbfbf" points="274.5,-388.5 274.5,-388.5 309.5,-388.5 309.5,-388.5 274.5,-388.5"/>
<polygon fill="none" stroke="#bfbfbf" points="259.5,-372 259.5,-451 309.5,-451 309.5,-372 259.5,-372"/>
</a>
</g>
</g>
<!-- Node6&#45;&gt;Node5 -->
<g id="edge6_Node000005_Node000006" class="edge">
<title>Node6&#45;&gt;Node5</title>
<g id="a_edge6_Node000005_Node000006"><a xlink:title=" ">
<path fill="none" stroke="#63b8ff" d="M284.5,-371.82C284.5,-347.9 284.5,-317.15 284.5,-292.4"/>
<polygon fill="none" stroke="#63b8ff" points="284.5,-292.07 280.5,-286.07 284.5,-280.07 288.5,-286.07 284.5,-292.07"/>
</a>
</g>
<text text-anchor="middle" x="301.5" y="-346" font-family="Helvetica,sans-Serif" font-size="10.00" fill="grey"> +attrs</text>
</g>
</g>
</svg>

<g id="navigator" transform="translate(0 0)" fill="#404254">
  <rect fill="#f2f5e9" fill-opacity="0.5" stroke="#606060" stroke-width=".5" x="0" y="0" width="60" height="60"/>
  <use id="zoomplus" xlink:href="#zoomPlus" x="17" y="9" onmousedown="handleZoom(evt,'in')"/>
  <use id="zoomminus" xlink:href="#zoomMin" x="42" y="9" onmousedown="handleZoom(evt,'out')"/>
  <use id="reset" xlink:href="#resetDef" x="30" y="36" onmousedown="handleReset()"/>
   <use id="arrowup" xlink:href="#arrowUp" x="0" y="0" onmousedown="handlePan(0,-1)"/>
  <use id="arrowright" xlink:href="#arrowRight" x="0" y="0" onmousedown="handlePan(1,0)"/>
  <use id="arrowdown" xlink:href="#arrowDown" x="0" y="0" onmousedown="handlePan(0,1)"/>
  <use id="arrowleft" xlink:href="#arrowLeft" x="0" y="0" onmousedown="handlePan(-1,0)"/>
</g>
<svg viewBox="0 0 15 15" width="100%" height="30px" preserveAspectRatio="xMaxYMin meet">
 <g id="arrow_out" transform="scale(0.3 0.3)">
  <a xlink:href="structlfs__file__coll__graph_org.svg" target="_base">
   <rect id="button" ry="5" rx="5" y="6" x="6" height="38" width="38"
        fill="#f2f5e9" fill-opacity="0.5" stroke="#606060" stroke-width="1.0"/>
   <path id="arrow"
     d="M 11.500037,31.436501 C 11.940474,20.09759 22.043105,11.32322 32.158766,21.979434 L 37.068811,17.246167 C 37.068811,17.246167 37.088388,32 37.088388,32 L 22.160133,31.978069 C 22.160133,31.978069 26.997745,27.140456 26.997745,27.140456 C 18.528582,18.264221 13.291696,25.230495 11.500037,31.436501 z"
     style="fill:#404040;"/>
  </a>
 </g>
</svg>

<style type='text/css'>
<![CDATA[
[data-mouse-over-selected='false'] { opacity: 0.7; }
[data-mouse-over-selected='true']  { opacity: 1.0; }
]]>
</style>
<script type="application/ecmascript"><![CDATA[
document.addEventListener('DOMContentLoaded', (event) => {
  highlightEdges();
  highlightAdjacentNodes();
});
]]></script>
</svg>
