<?xml version="1.0" encoding="UTF-8" standalone="no"?>
<!DOCTYPE svg PUBLIC "-//W3C//DTD SVG 1.1//EN"
 "http://www.w3.org/Graphics/SVG/1.1/DTD/svg11.dtd">
<!-- Generated by graphviz version 2.43.0 (0)
 -->
<!-- Title: lfs::lfs_mlist Pages: 1 -->
<svg width="131pt" height="273pt"
 viewBox="0.00 0.00 131.00 273.00" xmlns="http://www.w3.org/2000/svg" xmlns:xlink="http://www.w3.org/1999/xlink">
<g id="graph0" class="graph" transform="scale(1 1) rotate(0) translate(4 269)">
<title>lfs::lfs_mlist</title>
<!-- Node1 -->
<g id="Node000001" class="node">
<title>Node1</title>
<g id="a_Node000001"><a xlink:title=" ">
<polygon fill="#999999" stroke="transparent" points="71,-64 0,-64 0,0 71,0 71,-64"/>
<text text-anchor="start" x="5.5" y="-52" font-family="Helvetica,sans-Serif" font-size="10.00">lfs::lfs_mlist</text>
<text text-anchor="start" x="11.5" y="-37" font-family="Helvetica,sans-Serif" font-size="10.00">+</text>
<text text-anchor="start" x="31.5" y="-37" font-family="Helvetica,sans-Serif" font-size="10.00">id</text>
<text text-anchor="start" x="11.5" y="-22" font-family="Helvetica,sans-Serif" font-size="10.00">+</text>
<text text-anchor="start" x="31.5" y="-22" font-family="Helvetica,sans-Serif" font-size="10.00">type</text>
<text text-anchor="start" x="34" y="-7" font-family="Helvetica,sans-Serif" font-size="10.00"> </text>
<polygon fill="#666666" stroke="#666666" points="0.5,-47 0.5,-47 71.5,-47 71.5,-47 0.5,-47"/>
<polygon fill="#666666" stroke="#666666" points="0.5,-17 0.5,-17 29.5,-17 29.5,-17 0.5,-17"/>
<polygon fill="#666666" stroke="#666666" points="29.5,-17 29.5,-17 71.5,-17 71.5,-17 29.5,-17"/>
<polygon fill="none" stroke="#666666" points="0,0 0,-64 71,-64 71,0 0,0"/>
</a>
</g>
</g>
<!-- Node1&#45;&gt;Node1 -->
<g id="edge1_Node000001_Node000001" class="edge">
<title>Node1&#45;&gt;Node1</title>
<g id="a_edge1_Node000001_Node000001"><a xlink:title=" ">
<path fill="none" stroke="#63b8ff" d="M71.25,-42.07C81.29,-41.63 89,-38.28 89,-32 89,-28.67 86.82,-26.16 83.28,-24.47"/>
<polygon fill="none" stroke="#63b8ff" points="82.99,-24.41 76.3,-27.08 71.25,-21.93 77.95,-19.25 82.99,-24.41"/>
</a>
</g>
<text text-anchor="middle" x="106" y="-29.5" font-family="Helvetica,sans-Serif" font-size="10.00" fill="grey"> +next</text>
</g>
<!-- Node2 -->
<g id="Node000002" class="node">
<title>Node2</title>
<g id="a_Node000002"><a xlink:href="structlfs__mdir.html" target="_top" xlink:title=" ">
<polygon fill="white" stroke="transparent" points="63,-265 8,-265 8,-111 63,-111 63,-265"/>
<text text-anchor="start" x="16" y="-253" font-family="Helvetica,sans-Serif" font-size="10.00">lfs_mdir</text>
<text text-anchor="start" x="12.5" y="-238" font-family="Helvetica,sans-Serif" font-size="10.00">+</text>
<text text-anchor="start" x="25.5" y="-238" font-family="Helvetica,sans-Serif" font-size="10.00">pair</text>
<text text-anchor="start" x="12.5" y="-223" font-family="Helvetica,sans-Serif" font-size="10.00">+</text>
<text text-anchor="start" x="25.5" y="-223" font-family="Helvetica,sans-Serif" font-size="10.00">rev</text>
<text text-anchor="start" x="12.5" y="-208" font-family="Helvetica,sans-Serif" font-size="10.00">+</text>
<text text-anchor="start" x="25.5" y="-208" font-family="Helvetica,sans-Serif" font-size="10.00">off</text>
<text text-anchor="start" x="12.5" y="-193" font-family="Helvetica,sans-Serif" font-size="10.00">+</text>
<text text-anchor="start" x="25.5" y="-193" font-family="Helvetica,sans-Serif" font-size="10.00">etag</text>
<text text-anchor="start" x="12.5" y="-178" font-family="Helvetica,sans-Serif" font-size="10.00">+</text>
<text text-anchor="start" x="25.5" y="-178" font-family="Helvetica,sans-Serif" font-size="10.00">count</text>
<text text-anchor="start" x="12.5" y="-163" font-family="Helvetica,sans-Serif" font-size="10.00">+</text>
<text text-anchor="start" x="25.5" y="-163" font-family="Helvetica,sans-Serif" font-size="10.00">erased</text>
<text text-anchor="start" x="12.5" y="-148" font-family="Helvetica,sans-Serif" font-size="10.00">+</text>
<text text-anchor="start" x="25.5" y="-148" font-family="Helvetica,sans-Serif" font-size="10.00">split</text>
<text text-anchor="start" x="12.5" y="-133" font-family="Helvetica,sans-Serif" font-size="10.00">+</text>
<text text-anchor="start" x="25.5" y="-133" font-family="Helvetica,sans-Serif" font-size="10.00">tail</text>
<text text-anchor="start" x="34" y="-118" font-family="Helvetica,sans-Serif" font-size="10.00"> </text>
<polygon fill="#bfbfbf" stroke="#bfbfbf" points="8.5,-248 8.5,-248 63.5,-248 63.5,-248 8.5,-248"/>
<polygon fill="#bfbfbf" stroke="#bfbfbf" points="8.5,-128 8.5,-128 23.5,-128 23.5,-128 8.5,-128"/>
<polygon fill="#bfbfbf" stroke="#bfbfbf" points="23.5,-128 23.5,-128 63.5,-128 63.5,-128 23.5,-128"/>
<polygon fill="none" stroke="#bfbfbf" points="8,-111 8,-265 63,-265 63,-111 8,-111"/>
</a>
</g>
</g>
<!-- Node2&#45;&gt;Node1 -->
<g id="edge2_Node000001_Node000002" class="edge">
<title>Node2&#45;&gt;Node1</title>
<g id="a_edge2_Node000001_Node000002"><a xlink:title=" ">
<path fill="none" stroke="#63b8ff" d="M35.5,-110.9C35.5,-99.03 35.5,-87.13 35.5,-76.33"/>
<polygon fill="none" stroke="#63b8ff" points="35.5,-76.22 31.5,-70.22 35.5,-64.22 39.5,-70.22 35.5,-76.22"/>
</a>
</g>
<text text-anchor="middle" x="46.5" y="-85" font-family="Helvetica,sans-Serif" font-size="10.00" fill="grey"> +m</text>
</g>
</g>
</svg>
