<?xml version="1.0" encoding="UTF-8" standalone="no"?>
<!DOCTYPE svg PUBLIC "-//W3C//DTD SVG 1.1//EN"
 "http://www.w3.org/Graphics/SVG/1.1/DTD/svg11.dtd">
<!-- Generated by graphviz version 2.43.0 (0)
 -->
<!-- Title: Hardware::SensorManager::State_Monitor_t Pages: 1 -->
<svg width="148pt" height="143pt"
 viewBox="0.00 0.00 148.00 143.00" xmlns="http://www.w3.org/2000/svg" xmlns:xlink="http://www.w3.org/1999/xlink">
<g id="graph0" class="graph" transform="scale(1 1) rotate(0) translate(4 139)">
<title>Hardware::SensorManager::State_Monitor_t</title>
<!-- Node1 -->
<g id="Node000001" class="node">
<title>Node1</title>
<g id="a_Node000001"><a xlink:title="Telemetry &amp; Health&#45;State Awareness.">
<polygon fill="#999999" stroke="transparent" points="140,-135 0,-135 0,0 140,0 140,-135"/>
<text text-anchor="start" x="5" y="-122.5" font-family="Helvetica,sans-Serif" font-size="10.00">Hardware::SensorManager</text>
<text text-anchor="start" x="28" y="-111.5" font-family="Helvetica,sans-Serif" font-size="10.00">::State_Monitor_t</text>
<text text-anchor="start" x="17" y="-96.5" font-family="Helvetica,sans-Serif" font-size="10.00">+</text>
<text text-anchor="start" x="43" y="-96.5" font-family="Helvetica,sans-Serif" font-size="10.00">sensor_failed</text>
<text text-anchor="start" x="17" y="-81.5" font-family="Helvetica,sans-Serif" font-size="10.00">+</text>
<text text-anchor="start" x="43" y="-81.5" font-family="Helvetica,sans-Serif" font-size="10.00">total_sensors</text>
<text text-anchor="start" x="17" y="-66.5" font-family="Helvetica,sans-Serif" font-size="10.00">+</text>
<text text-anchor="start" x="43" y="-66.5" font-family="Helvetica,sans-Serif" font-size="10.00">all_status</text>
<text text-anchor="start" x="17" y="-51.5" font-family="Helvetica,sans-Serif" font-size="10.00">+</text>
<text text-anchor="start" x="43" y="-51.5" font-family="Helvetica,sans-Serif" font-size="10.00">last_update</text>
<text text-anchor="start" x="17" y="-36.5" font-family="Helvetica,sans-Serif" font-size="10.00">+</text>
<text text-anchor="start" x="43" y="-36.5" font-family="Helvetica,sans-Serif" font-size="10.00">status</text>
<text text-anchor="start" x="17" y="-21.5" font-family="Helvetica,sans-Serif" font-size="10.00">+</text>
<text text-anchor="start" x="43" y="-21.5" font-family="Helvetica,sans-Serif" font-size="10.00">last_error</text>
<text text-anchor="start" x="68" y="-6.5" font-family="Helvetica,sans-Serif" font-size="10.00"> </text>
<polygon fill="#666666" stroke="#666666" points="0,-106.5 0,-106.5 140,-106.5 140,-106.5 0,-106.5"/>
<polygon fill="#666666" stroke="#666666" points="0,-16.5 0,-16.5 41,-16.5 41,-16.5 0,-16.5"/>
<polygon fill="#666666" stroke="#666666" points="41,-16.5 41,-16.5 140,-16.5 140,-16.5 41,-16.5"/>
<polygon fill="none" stroke="#666666" points="0,0 0,-135 140,-135 140,0 0,0"/>
</a>
</g>
</g>
</g>
</svg>
