<?xml version="1.0" encoding="UTF-8" standalone="no"?>
<!DOCTYPE svg PUBLIC "-//W3C//DTD SVG 1.1//EN"
 "http://www.w3.org/Graphics/SVG/1.1/DTD/svg11.dtd">
<!-- Generated by graphviz version 2.43.0 (0)
 -->
<!-- Title: vfs_littlefs_dir_t Pages: 1 -->
<svg width="128pt" height="444pt"
 viewBox="0.00 0.00 127.50 444.00" xmlns="http://www.w3.org/2000/svg" xmlns:xlink="http://www.w3.org/1999/xlink">

<svg id="main" version="1.1" xmlns="http://www.w3.org/2000/svg" xmlns:xlink="http://www.w3.org/1999/xlink" xml:space="preserve" onload="init(evt)">
<style type="text/css"><![CDATA[
.node, .edge {opacity: 0.7;}
.node.selected, .edge.selected {opacity: 1;}
.edge:hover path { stroke: red; }
.edge:hover polygon { stroke: red; fill: red; }
]]></style>
<script type="application/ecmascript" xlink:href="svg.min.js"/>
<svg id="graph" class="graph">
<g id="graph0" class="graph" transform="scale(1 1) rotate(0) translate(4 440)">
<title>vfs_littlefs_dir_t</title>
<!-- Node1 -->
<g id="Node000001" class="node">
<title>Node1</title>
<g id="a_Node000001"><a xlink:title="littlefs DIR structure">
<polygon fill="#999999" stroke="transparent" points="89,-94 0,-94 0,0 89,0 89,-94"/>
<text text-anchor="start" x="5.5" y="-82" font-family="Helvetica,sans-Serif" font-size="10.00">vfs_littlefs_dir_t</text>
<text text-anchor="start" x="14.5" y="-67" font-family="Helvetica,sans-Serif" font-size="10.00">+</text>
<text text-anchor="start" x="37.5" y="-67" font-family="Helvetica,sans-Serif" font-size="10.00">dir</text>
<text text-anchor="start" x="14.5" y="-52" font-family="Helvetica,sans-Serif" font-size="10.00">+</text>
<text text-anchor="start" x="37.5" y="-52" font-family="Helvetica,sans-Serif" font-size="10.00">e</text>
<text text-anchor="start" x="14.5" y="-37" font-family="Helvetica,sans-Serif" font-size="10.00">+</text>
<text text-anchor="start" x="37.5" y="-37" font-family="Helvetica,sans-Serif" font-size="10.00">offset</text>
<text text-anchor="start" x="14.5" y="-22" font-family="Helvetica,sans-Serif" font-size="10.00">+</text>
<text text-anchor="start" x="37.5" y="-22" font-family="Helvetica,sans-Serif" font-size="10.00">path</text>
<text text-anchor="start" x="43" y="-7" font-family="Helvetica,sans-Serif" font-size="10.00"> </text>
<polygon fill="#666666" stroke="#666666" points="0.5,-77 0.5,-77 89.5,-77 89.5,-77 0.5,-77"/>
<polygon fill="#666666" stroke="#666666" points="0.5,-17 0.5,-17 35.5,-17 35.5,-17 0.5,-17"/>
<polygon fill="#666666" stroke="#666666" points="35.5,-17 35.5,-17 89.5,-17 89.5,-17 35.5,-17"/>
<polygon fill="none" stroke="#666666" points="0,0 0,-94 89,-94 89,0 0,0"/>
</a>
</g>
</g>
<!-- Node2 -->
<g id="Node000002" class="node">
<title>Node2</title>
<g id="a_Node000002"><a xlink:href="structlfs__dir.html" target="_top" xlink:title=" ">
<polygon fill="white" stroke="transparent" points="67.5,-235 21.5,-235 21.5,-141 67.5,-141 67.5,-235"/>
<text text-anchor="start" x="29" y="-223" font-family="Helvetica,sans-Serif" font-size="10.00">lfs_dir</text>
<text text-anchor="start" x="25.5" y="-208" font-family="Helvetica,sans-Serif" font-size="10.00">+</text>
<text text-anchor="start" x="38.5" y="-208" font-family="Helvetica,sans-Serif" font-size="10.00">id</text>
<text text-anchor="start" x="25.5" y="-193" font-family="Helvetica,sans-Serif" font-size="10.00">+</text>
<text text-anchor="start" x="38.5" y="-193" font-family="Helvetica,sans-Serif" font-size="10.00">type</text>
<text text-anchor="start" x="25.5" y="-178" font-family="Helvetica,sans-Serif" font-size="10.00">+</text>
<text text-anchor="start" x="38.5" y="-178" font-family="Helvetica,sans-Serif" font-size="10.00">pos</text>
<text text-anchor="start" x="25.5" y="-163" font-family="Helvetica,sans-Serif" font-size="10.00">+</text>
<text text-anchor="start" x="38.5" y="-163" font-family="Helvetica,sans-Serif" font-size="10.00">head</text>
<text text-anchor="start" x="42.5" y="-148" font-family="Helvetica,sans-Serif" font-size="10.00"> </text>
<polygon fill="#bfbfbf" stroke="#bfbfbf" points="21.5,-218 21.5,-218 67.5,-218 67.5,-218 21.5,-218"/>
<polygon fill="#bfbfbf" stroke="#bfbfbf" points="21.5,-158 21.5,-158 36.5,-158 36.5,-158 21.5,-158"/>
<polygon fill="#bfbfbf" stroke="#bfbfbf" points="36.5,-158 36.5,-158 67.5,-158 67.5,-158 36.5,-158"/>
<polygon fill="none" stroke="#bfbfbf" points="21.5,-141 21.5,-235 67.5,-235 67.5,-141 21.5,-141"/>
</a>
</g>
</g>
<!-- Node2&#45;&gt;Node1 -->
<g id="edge1_Node000001_Node000002" class="edge">
<title>Node2&#45;&gt;Node1</title>
<g id="a_edge1_Node000001_Node000002"><a xlink:title=" ">
<path fill="none" stroke="#63b8ff" d="M44.5,-140.72C44.5,-129.7 44.5,-117.8 44.5,-106.32"/>
<polygon fill="none" stroke="#63b8ff" points="44.5,-106.08 40.5,-100.08 44.5,-94.08 48.5,-100.08 44.5,-106.08"/>
</a>
</g>
<text text-anchor="middle" x="53.5" y="-115" font-family="Helvetica,sans-Serif" font-size="10.00" fill="grey"> +d</text>
</g>
<!-- Node2&#45;&gt;Node2 -->
<g id="edge2_Node000002_Node000002" class="edge">
<title>Node2&#45;&gt;Node2</title>
<g id="a_edge2_Node000002_Node000002"><a xlink:title=" ">
<path fill="none" stroke="#63b8ff" d="M67.68,-201.01C77.33,-201.91 85.5,-197.57 85.5,-188 85.5,-182.92 83.19,-179.31 79.58,-177.18"/>
<polygon fill="none" stroke="#63b8ff" points="79.48,-177.16 72.86,-180.01 67.68,-174.99 74.31,-172.14 79.48,-177.16"/>
</a>
</g>
<text text-anchor="middle" x="102.5" y="-185.5" font-family="Helvetica,sans-Serif" font-size="10.00" fill="grey"> +next</text>
</g>
<!-- Node3 -->
<g id="Node000003" class="node">
<title>Node3</title>
<g id="a_Node000003"><a xlink:href="structlfs__mdir.html" target="_top" xlink:title=" ">
<polygon fill="white" stroke="transparent" points="72,-436 17,-436 17,-282 72,-282 72,-436"/>
<text text-anchor="start" x="25" y="-424" font-family="Helvetica,sans-Serif" font-size="10.00">lfs_mdir</text>
<text text-anchor="start" x="21.5" y="-409" font-family="Helvetica,sans-Serif" font-size="10.00">+</text>
<text text-anchor="start" x="34.5" y="-409" font-family="Helvetica,sans-Serif" font-size="10.00">pair</text>
<text text-anchor="start" x="21.5" y="-394" font-family="Helvetica,sans-Serif" font-size="10.00">+</text>
<text text-anchor="start" x="34.5" y="-394" font-family="Helvetica,sans-Serif" font-size="10.00">rev</text>
<text text-anchor="start" x="21.5" y="-379" font-family="Helvetica,sans-Serif" font-size="10.00">+</text>
<text text-anchor="start" x="34.5" y="-379" font-family="Helvetica,sans-Serif" font-size="10.00">off</text>
<text text-anchor="start" x="21.5" y="-364" font-family="Helvetica,sans-Serif" font-size="10.00">+</text>
<text text-anchor="start" x="34.5" y="-364" font-family="Helvetica,sans-Serif" font-size="10.00">etag</text>
<text text-anchor="start" x="21.5" y="-349" font-family="Helvetica,sans-Serif" font-size="10.00">+</text>
<text text-anchor="start" x="34.5" y="-349" font-family="Helvetica,sans-Serif" font-size="10.00">count</text>
<text text-anchor="start" x="21.5" y="-334" font-family="Helvetica,sans-Serif" font-size="10.00">+</text>
<text text-anchor="start" x="34.5" y="-334" font-family="Helvetica,sans-Serif" font-size="10.00">erased</text>
<text text-anchor="start" x="21.5" y="-319" font-family="Helvetica,sans-Serif" font-size="10.00">+</text>
<text text-anchor="start" x="34.5" y="-319" font-family="Helvetica,sans-Serif" font-size="10.00">split</text>
<text text-anchor="start" x="21.5" y="-304" font-family="Helvetica,sans-Serif" font-size="10.00">+</text>
<text text-anchor="start" x="34.5" y="-304" font-family="Helvetica,sans-Serif" font-size="10.00">tail</text>
<text text-anchor="start" x="43" y="-289" font-family="Helvetica,sans-Serif" font-size="10.00"> </text>
<polygon fill="#bfbfbf" stroke="#bfbfbf" points="17.5,-419 17.5,-419 72.5,-419 72.5,-419 17.5,-419"/>
<polygon fill="#bfbfbf" stroke="#bfbfbf" points="17.5,-299 17.5,-299 32.5,-299 32.5,-299 17.5,-299"/>
<polygon fill="#bfbfbf" stroke="#bfbfbf" points="32.5,-299 32.5,-299 72.5,-299 72.5,-299 32.5,-299"/>
<polygon fill="none" stroke="#bfbfbf" points="17,-282 17,-436 72,-436 72,-282 17,-282"/>
</a>
</g>
</g>
<!-- Node3&#45;&gt;Node2 -->
<g id="edge3_Node000002_Node000003" class="edge">
<title>Node3&#45;&gt;Node2</title>
<g id="a_edge3_Node000002_Node000003"><a xlink:title=" ">
<path fill="none" stroke="#63b8ff" d="M44.5,-281.9C44.5,-270.32 44.5,-258.52 44.5,-247.39"/>
<polygon fill="none" stroke="#63b8ff" points="44.5,-247.16 40.5,-241.16 44.5,-235.16 48.5,-241.16 44.5,-247.16"/>
</a>
</g>
<text text-anchor="middle" x="55.5" y="-256" font-family="Helvetica,sans-Serif" font-size="10.00" fill="grey"> +m</text>
</g>
</g>
</svg>
</svg>

<style type='text/css'>
<![CDATA[
[data-mouse-over-selected='false'] { opacity: 0.7; }
[data-mouse-over-selected='true']  { opacity: 1.0; }
]]>
</style>
<script type="application/ecmascript"><![CDATA[
document.addEventListener('DOMContentLoaded', (event) => {
  highlightEdges();
  highlightAdjacentNodes();
});
]]></script>
</svg>
