<?xml version="1.0" encoding="UTF-8" standalone="no"?>
<!DOCTYPE svg PUBLIC "-//W3C//DTD SVG 1.1//EN"
 "http://www.w3.org/Graphics/SVG/1.1/DTD/svg11.dtd">
<!-- Generated by graphviz version 2.43.0 (0)
 -->
<!-- Title: lfs_dir_traverse Pages: 1 -->
<svg width="215pt" height="423pt"
 viewBox="0.00 0.00 214.50 423.00" xmlns="http://www.w3.org/2000/svg" xmlns:xlink="http://www.w3.org/1999/xlink">

<svg id="main" version="1.1" xmlns="http://www.w3.org/2000/svg" xmlns:xlink="http://www.w3.org/1999/xlink" xml:space="preserve" onload="init(evt)">
<style type="text/css"><![CDATA[
.node, .edge {opacity: 0.7;}
.node.selected, .edge.selected {opacity: 1;}
.edge:hover path { stroke: red; }
.edge:hover polygon { stroke: red; fill: red; }
]]></style>
<script type="application/ecmascript" xlink:href="svg.min.js"/>
<svg id="graph" class="graph">
<g id="graph0" class="graph" transform="scale(1 1) rotate(0) translate(4 419)">
<title>lfs_dir_traverse</title>
<!-- Node1 -->
<g id="Node000001" class="node">
<title>Node1</title>
<g id="a_Node000001"><a xlink:title=" ">
<polygon fill="#999999" stroke="transparent" points="143.5,-214 57.5,-214 57.5,0 143.5,0 143.5,-214"/>
<text text-anchor="start" x="62.5" y="-202" font-family="Helvetica,sans-Serif" font-size="10.00">lfs_dir_traverse</text>
<text text-anchor="start" x="66.5" y="-187" font-family="Helvetica,sans-Serif" font-size="10.00">+</text>
<text text-anchor="start" x="84.5" y="-187" font-family="Helvetica,sans-Serif" font-size="10.00">off</text>
<text text-anchor="start" x="66.5" y="-172" font-family="Helvetica,sans-Serif" font-size="10.00">+</text>
<text text-anchor="start" x="84.5" y="-172" font-family="Helvetica,sans-Serif" font-size="10.00">ptag</text>
<text text-anchor="start" x="66.5" y="-157" font-family="Helvetica,sans-Serif" font-size="10.00">+</text>
<text text-anchor="start" x="84.5" y="-157" font-family="Helvetica,sans-Serif" font-size="10.00">attrcount</text>
<text text-anchor="start" x="66.5" y="-142" font-family="Helvetica,sans-Serif" font-size="10.00">+</text>
<text text-anchor="start" x="84.5" y="-142" font-family="Helvetica,sans-Serif" font-size="10.00">tmask</text>
<text text-anchor="start" x="66.5" y="-127" font-family="Helvetica,sans-Serif" font-size="10.00">+</text>
<text text-anchor="start" x="84.5" y="-127" font-family="Helvetica,sans-Serif" font-size="10.00">ttag</text>
<text text-anchor="start" x="66.5" y="-112" font-family="Helvetica,sans-Serif" font-size="10.00">+</text>
<text text-anchor="start" x="84.5" y="-112" font-family="Helvetica,sans-Serif" font-size="10.00">begin</text>
<text text-anchor="start" x="66.5" y="-97" font-family="Helvetica,sans-Serif" font-size="10.00">+</text>
<text text-anchor="start" x="84.5" y="-97" font-family="Helvetica,sans-Serif" font-size="10.00">end</text>
<text text-anchor="start" x="66.5" y="-82" font-family="Helvetica,sans-Serif" font-size="10.00">+</text>
<text text-anchor="start" x="84.5" y="-82" font-family="Helvetica,sans-Serif" font-size="10.00">diff</text>
<text text-anchor="start" x="66.5" y="-67" font-family="Helvetica,sans-Serif" font-size="10.00">+</text>
<text text-anchor="start" x="84.5" y="-67" font-family="Helvetica,sans-Serif" font-size="10.00">cb</text>
<text text-anchor="start" x="66.5" y="-52" font-family="Helvetica,sans-Serif" font-size="10.00">+</text>
<text text-anchor="start" x="84.5" y="-52" font-family="Helvetica,sans-Serif" font-size="10.00">data</text>
<text text-anchor="start" x="66.5" y="-37" font-family="Helvetica,sans-Serif" font-size="10.00">+</text>
<text text-anchor="start" x="84.5" y="-37" font-family="Helvetica,sans-Serif" font-size="10.00">tag</text>
<text text-anchor="start" x="66.5" y="-22" font-family="Helvetica,sans-Serif" font-size="10.00">+</text>
<text text-anchor="start" x="84.5" y="-22" font-family="Helvetica,sans-Serif" font-size="10.00">buffer</text>
<text text-anchor="start" x="98.5" y="-7" font-family="Helvetica,sans-Serif" font-size="10.00"> </text>
<polygon fill="#666666" stroke="#666666" points="57.5,-197 57.5,-197 143.5,-197 143.5,-197 57.5,-197"/>
<polygon fill="#666666" stroke="#666666" points="57.5,-17 57.5,-17 82.5,-17 82.5,-17 57.5,-17"/>
<polygon fill="#666666" stroke="#666666" points="82.5,-17 82.5,-17 143.5,-17 143.5,-17 82.5,-17"/>
<polygon fill="none" stroke="#666666" points="57.5,0 57.5,-214 143.5,-214 143.5,0 57.5,0"/>
</a>
</g>
</g>
<!-- Node2 -->
<g id="Node000002" class="node">
<title>Node2</title>
<g id="a_Node000002"><a xlink:href="structlfs__mdir.html" target="_top" xlink:title=" ">
<polygon fill="white" stroke="transparent" points="55,-415 0,-415 0,-261 55,-261 55,-415"/>
<text text-anchor="start" x="8" y="-403" font-family="Helvetica,sans-Serif" font-size="10.00">lfs_mdir</text>
<text text-anchor="start" x="4.5" y="-388" font-family="Helvetica,sans-Serif" font-size="10.00">+</text>
<text text-anchor="start" x="17.5" y="-388" font-family="Helvetica,sans-Serif" font-size="10.00">pair</text>
<text text-anchor="start" x="4.5" y="-373" font-family="Helvetica,sans-Serif" font-size="10.00">+</text>
<text text-anchor="start" x="17.5" y="-373" font-family="Helvetica,sans-Serif" font-size="10.00">rev</text>
<text text-anchor="start" x="4.5" y="-358" font-family="Helvetica,sans-Serif" font-size="10.00">+</text>
<text text-anchor="start" x="17.5" y="-358" font-family="Helvetica,sans-Serif" font-size="10.00">off</text>
<text text-anchor="start" x="4.5" y="-343" font-family="Helvetica,sans-Serif" font-size="10.00">+</text>
<text text-anchor="start" x="17.5" y="-343" font-family="Helvetica,sans-Serif" font-size="10.00">etag</text>
<text text-anchor="start" x="4.5" y="-328" font-family="Helvetica,sans-Serif" font-size="10.00">+</text>
<text text-anchor="start" x="17.5" y="-328" font-family="Helvetica,sans-Serif" font-size="10.00">count</text>
<text text-anchor="start" x="4.5" y="-313" font-family="Helvetica,sans-Serif" font-size="10.00">+</text>
<text text-anchor="start" x="17.5" y="-313" font-family="Helvetica,sans-Serif" font-size="10.00">erased</text>
<text text-anchor="start" x="4.5" y="-298" font-family="Helvetica,sans-Serif" font-size="10.00">+</text>
<text text-anchor="start" x="17.5" y="-298" font-family="Helvetica,sans-Serif" font-size="10.00">split</text>
<text text-anchor="start" x="4.5" y="-283" font-family="Helvetica,sans-Serif" font-size="10.00">+</text>
<text text-anchor="start" x="17.5" y="-283" font-family="Helvetica,sans-Serif" font-size="10.00">tail</text>
<text text-anchor="start" x="26" y="-268" font-family="Helvetica,sans-Serif" font-size="10.00"> </text>
<polygon fill="#bfbfbf" stroke="#bfbfbf" points="0.5,-398 0.5,-398 55.5,-398 55.5,-398 0.5,-398"/>
<polygon fill="#bfbfbf" stroke="#bfbfbf" points="0.5,-278 0.5,-278 15.5,-278 15.5,-278 0.5,-278"/>
<polygon fill="#bfbfbf" stroke="#bfbfbf" points="15.5,-278 15.5,-278 55.5,-278 55.5,-278 15.5,-278"/>
<polygon fill="none" stroke="#bfbfbf" points="0,-261 0,-415 55,-415 55,-261 0,-261"/>
</a>
</g>
</g>
<!-- Node2&#45;&gt;Node1 -->
<g id="edge1_Node000001_Node000002" class="edge">
<title>Node2&#45;&gt;Node1</title>
<g id="a_edge1_Node000001_Node000002"><a xlink:title=" ">
<path fill="none" stroke="#63b8ff" d="M51.81,-260.75C55.42,-249.41 59.22,-237.5 63.03,-225.55"/>
<polygon fill="none" stroke="#63b8ff" points="63.03,-225.54 61.04,-218.6 66.68,-214.1 68.67,-221.03 63.03,-225.54"/>
</a>
</g>
<text text-anchor="middle" x="73" y="-235" font-family="Helvetica,sans-Serif" font-size="10.00" fill="grey"> +dir</text>
</g>
<!-- Node3 -->
<g id="Node000003" class="node">
<title>Node3</title>
<g id="a_Node000003"><a xlink:href="structlfs__mattr.html" target="_top" xlink:title=" ">
<polygon fill="white" stroke="transparent" points="128,-370 73,-370 73,-306 128,-306 128,-370"/>
<text text-anchor="start" x="78.5" y="-358" font-family="Helvetica,sans-Serif" font-size="10.00">lfs_mattr</text>
<text text-anchor="start" x="78.5" y="-343" font-family="Helvetica,sans-Serif" font-size="10.00">+</text>
<text text-anchor="start" x="92.5" y="-343" font-family="Helvetica,sans-Serif" font-size="10.00">tag</text>
<text text-anchor="start" x="78.5" y="-328" font-family="Helvetica,sans-Serif" font-size="10.00">+</text>
<text text-anchor="start" x="92.5" y="-328" font-family="Helvetica,sans-Serif" font-size="10.00">buffer</text>
<text text-anchor="start" x="99" y="-313" font-family="Helvetica,sans-Serif" font-size="10.00"> </text>
<polygon fill="#bfbfbf" stroke="#bfbfbf" points="73.5,-353 73.5,-353 128.5,-353 128.5,-353 73.5,-353"/>
<polygon fill="#bfbfbf" stroke="#bfbfbf" points="73.5,-323 73.5,-323 90.5,-323 90.5,-323 73.5,-323"/>
<polygon fill="#bfbfbf" stroke="#bfbfbf" points="90.5,-323 90.5,-323 128.5,-323 128.5,-323 90.5,-323"/>
<polygon fill="none" stroke="#bfbfbf" points="73,-306 73,-370 128,-370 128,-306 73,-306"/>
</a>
</g>
</g>
<!-- Node3&#45;&gt;Node1 -->
<g id="edge2_Node000001_Node000003" class="edge">
<title>Node3&#45;&gt;Node1</title>
<g id="a_edge2_Node000001_Node000003"><a xlink:title=" ">
<path fill="none" stroke="#63b8ff" d="M100.5,-305.64C100.5,-284.64 100.5,-255.56 100.5,-226.15"/>
<polygon fill="none" stroke="#63b8ff" points="100.5,-226 96.5,-220 100.5,-214 104.5,-220 100.5,-226"/>
</a>
</g>
<text text-anchor="middle" x="117.5" y="-235" font-family="Helvetica,sans-Serif" font-size="10.00" fill="grey"> +attrs</text>
</g>
<!-- Node4 -->
<g id="Node000004" class="node">
<title>Node4</title>
<g id="a_Node000004"><a xlink:href="structlfs__diskoff.html" target="_top" xlink:title=" ">
<polygon fill="white" stroke="transparent" points="206.5,-370 146.5,-370 146.5,-306 206.5,-306 206.5,-370"/>
<text text-anchor="start" x="151.5" y="-358" font-family="Helvetica,sans-Serif" font-size="10.00">lfs_diskoff</text>
<text text-anchor="start" x="153.5" y="-343" font-family="Helvetica,sans-Serif" font-size="10.00">+</text>
<text text-anchor="start" x="169.5" y="-343" font-family="Helvetica,sans-Serif" font-size="10.00">block</text>
<text text-anchor="start" x="153.5" y="-328" font-family="Helvetica,sans-Serif" font-size="10.00">+</text>
<text text-anchor="start" x="169.5" y="-328" font-family="Helvetica,sans-Serif" font-size="10.00">off</text>
<text text-anchor="start" x="174.5" y="-313" font-family="Helvetica,sans-Serif" font-size="10.00"> </text>
<polygon fill="#bfbfbf" stroke="#bfbfbf" points="146.5,-353 146.5,-353 206.5,-353 206.5,-353 146.5,-353"/>
<polygon fill="#bfbfbf" stroke="#bfbfbf" points="146.5,-323 146.5,-323 167.5,-323 167.5,-323 146.5,-323"/>
<polygon fill="#bfbfbf" stroke="#bfbfbf" points="167.5,-323 167.5,-323 206.5,-323 206.5,-323 167.5,-323"/>
<polygon fill="none" stroke="#bfbfbf" points="146.5,-306 146.5,-370 206.5,-370 206.5,-306 146.5,-306"/>
</a>
</g>
</g>
<!-- Node4&#45;&gt;Node1 -->
<g id="edge3_Node000001_Node000004" class="edge">
<title>Node4&#45;&gt;Node1</title>
<g id="a_edge3_Node000001_Node000004"><a xlink:title=" ">
<path fill="none" stroke="#63b8ff" d="M166.09,-305.64C159.09,-284.55 149.39,-255.3 139.58,-225.76"/>
<polygon fill="none" stroke="#63b8ff" points="139.46,-225.39 133.77,-220.96 135.68,-214 141.37,-218.44 139.46,-225.39"/>
</a>
</g>
<text text-anchor="middle" x="158.5" y="-235" font-family="Helvetica,sans-Serif" font-size="10.00" fill="grey"> +disk</text>
</g>
</g>
</svg>
</svg>

<style type='text/css'>
<![CDATA[
[data-mouse-over-selected='false'] { opacity: 0.7; }
[data-mouse-over-selected='true']  { opacity: 1.0; }
]]>
</style>
<script type="application/ecmascript"><![CDATA[
document.addEventListener('DOMContentLoaded', (event) => {
  highlightEdges();
  highlightAdjacentNodes();
});
]]></script>
</svg>
