<?xml version="1.0" encoding="UTF-8" standalone="no"?>
<!DOCTYPE svg PUBLIC "-//W3C//DTD SVG 1.1//EN"
 "http://www.w3.org/Graphics/SVG/1.1/DTD/svg11.dtd">
<!-- Generated by graphviz version 2.43.0 (0)
 -->
<!-- Title: lfs_fs_parent_match Pages: 1 -->
<svg width="507pt" height="712pt"
 viewBox="0.00 0.00 507.00 712.00" xmlns="http://www.w3.org/2000/svg" xmlns:xlink="http://www.w3.org/1999/xlink">
<g id="graph0" class="graph" transform="scale(1 1) rotate(0) translate(4 708)">
<title>lfs_fs_parent_match</title>
<!-- Node1 -->
<g id="Node000001" class="node">
<title>Node1</title>
<g id="a_Node000001"><a xlink:title=" ">
<polygon fill="#999999" stroke="transparent" points="300,-49 190,-49 190,0 300,0 300,-49"/>
<text text-anchor="start" x="195" y="-36.5" font-family="Helvetica,sans-Serif" font-size="10.00">lfs_fs_parent_match</text>
<text text-anchor="start" x="211.5" y="-21.5" font-family="Helvetica,sans-Serif" font-size="10.00">+</text>
<text text-anchor="start" x="242" y="-21.5" font-family="Helvetica,sans-Serif" font-size="10.00">pair</text>
<text text-anchor="start" x="243" y="-6.5" font-family="Helvetica,sans-Serif" font-size="10.00"> </text>
<polygon fill="#666666" stroke="#666666" points="190,-31.5 190,-31.5 300,-31.5 300,-31.5 190,-31.5"/>
<polygon fill="#666666" stroke="#666666" points="190,-16.5 190,-16.5 240,-16.5 240,-16.5 190,-16.5"/>
<polygon fill="#666666" stroke="#666666" points="240,-16.5 240,-16.5 300,-16.5 300,-16.5 240,-16.5"/>
<polygon fill="none" stroke="#666666" points="190,0 190,-49 300,-49 300,0 190,0"/>
</a>
</g>
</g>
<!-- Node2 -->
<g id="Node000002" class="node">
<title>Node2</title>
<g id="a_Node000002"><a xlink:href="structlfs.html" target="_top" xlink:title=" ">
<polygon fill="white" stroke="transparent" points="285,-235 205,-235 205,-96 285,-96 285,-235"/>
<text text-anchor="start" x="238.5" y="-222.5" font-family="Helvetica,sans-Serif" font-size="10.00">lfs</text>
<text text-anchor="start" x="209" y="-207.5" font-family="Helvetica,sans-Serif" font-size="10.00">+</text>
<text text-anchor="start" x="222" y="-207.5" font-family="Helvetica,sans-Serif" font-size="10.00">root</text>
<text text-anchor="start" x="209" y="-192.5" font-family="Helvetica,sans-Serif" font-size="10.00">+</text>
<text text-anchor="start" x="222" y="-192.5" font-family="Helvetica,sans-Serif" font-size="10.00">seed</text>
<text text-anchor="start" x="209" y="-177.5" font-family="Helvetica,sans-Serif" font-size="10.00">+</text>
<text text-anchor="start" x="222" y="-177.5" font-family="Helvetica,sans-Serif" font-size="10.00">block_count</text>
<text text-anchor="start" x="209" y="-162.5" font-family="Helvetica,sans-Serif" font-size="10.00">+</text>
<text text-anchor="start" x="222" y="-162.5" font-family="Helvetica,sans-Serif" font-size="10.00">name_max</text>
<text text-anchor="start" x="209" y="-147.5" font-family="Helvetica,sans-Serif" font-size="10.00">+</text>
<text text-anchor="start" x="222" y="-147.5" font-family="Helvetica,sans-Serif" font-size="10.00">file_max</text>
<text text-anchor="start" x="209" y="-132.5" font-family="Helvetica,sans-Serif" font-size="10.00">+</text>
<text text-anchor="start" x="222" y="-132.5" font-family="Helvetica,sans-Serif" font-size="10.00">attr_max</text>
<text text-anchor="start" x="209" y="-117.5" font-family="Helvetica,sans-Serif" font-size="10.00">+</text>
<text text-anchor="start" x="222" y="-117.5" font-family="Helvetica,sans-Serif" font-size="10.00">inline_max</text>
<text text-anchor="start" x="243" y="-102.5" font-family="Helvetica,sans-Serif" font-size="10.00"> </text>
<polygon fill="#bfbfbf" stroke="#bfbfbf" points="205,-217.5 205,-217.5 285,-217.5 285,-217.5 205,-217.5"/>
<polygon fill="#bfbfbf" stroke="#bfbfbf" points="205,-112.5 205,-112.5 220,-112.5 220,-112.5 205,-112.5"/>
<polygon fill="#bfbfbf" stroke="#bfbfbf" points="220,-112.5 220,-112.5 285,-112.5 285,-112.5 220,-112.5"/>
<polygon fill="none" stroke="#bfbfbf" points="205,-96 205,-235 285,-235 285,-96 205,-96"/>
</a>
</g>
</g>
<!-- Node2&#45;&gt;Node1 -->
<g id="edge1_Node000001_Node000002" class="edge">
<title>Node2&#45;&gt;Node1</title>
<g id="a_edge1_Node000001_Node000002"><a xlink:title=" ">
<path fill="none" stroke="#63b8ff" d="M245,-95.81C245,-83.85 245,-71.86 245,-61.25"/>
<polygon fill="none" stroke="#63b8ff" points="245,-61.09 241,-55.09 245,-49.09 249,-55.09 245,-61.09"/>
</a>
</g>
<text text-anchor="middle" x="257" y="-70" font-family="Helvetica,sans-Serif" font-size="10.00" fill="grey"> +lfs</text>
</g>
<!-- Node3 -->
<g id="Node000003" class="node">
<title>Node3</title>
<g id="a_Node000003"><a xlink:href="structlfs__cache.html" target="_top" xlink:title="internal littlefs data structures ///">
<polygon fill="white" stroke="transparent" points="56,-450.5 0,-450.5 0,-356.5 56,-356.5 56,-450.5"/>
<text text-anchor="start" x="5" y="-438.5" font-family="Helvetica,sans-Serif" font-size="10.00">lfs_cache</text>
<text text-anchor="start" x="5.5" y="-423.5" font-family="Helvetica,sans-Serif" font-size="10.00">+</text>
<text text-anchor="start" x="20" y="-423.5" font-family="Helvetica,sans-Serif" font-size="10.00">block</text>
<text text-anchor="start" x="5.5" y="-408.5" font-family="Helvetica,sans-Serif" font-size="10.00">+</text>
<text text-anchor="start" x="20" y="-408.5" font-family="Helvetica,sans-Serif" font-size="10.00">off</text>
<text text-anchor="start" x="5.5" y="-393.5" font-family="Helvetica,sans-Serif" font-size="10.00">+</text>
<text text-anchor="start" x="20" y="-393.5" font-family="Helvetica,sans-Serif" font-size="10.00">size</text>
<text text-anchor="start" x="5.5" y="-378.5" font-family="Helvetica,sans-Serif" font-size="10.00">+</text>
<text text-anchor="start" x="20" y="-378.5" font-family="Helvetica,sans-Serif" font-size="10.00">buffer</text>
<text text-anchor="start" x="26" y="-363.5" font-family="Helvetica,sans-Serif" font-size="10.00"> </text>
<polygon fill="#666666" stroke="#666666" points="0,-433.5 0,-433.5 56,-433.5 56,-433.5 0,-433.5"/>
<polygon fill="#666666" stroke="#666666" points="0,-373.5 0,-373.5 18,-373.5 18,-373.5 0,-373.5"/>
<polygon fill="#666666" stroke="#666666" points="18,-373.5 18,-373.5 56,-373.5 56,-373.5 18,-373.5"/>
<polygon fill="none" stroke="#666666" points="0,-356.5 0,-450.5 56,-450.5 56,-356.5 0,-356.5"/>
</a>
</g>
</g>
<!-- Node3&#45;&gt;Node2 -->
<g id="edge2_Node000002_Node000003" class="edge">
<title>Node3&#45;&gt;Node2</title>
<g id="a_edge2_Node000002_Node000003"><a xlink:title=" ">
<path fill="none" stroke="#63b8ff" d="M39.79,-356.4C45.61,-338.97 53.84,-319.6 65,-304 98.92,-256.58 153.92,-217.97 194.21,-193.87"/>
<polygon fill="none" stroke="#63b8ff" points="194.28,-193.83 197.43,-187.34 204.63,-187.76 201.48,-194.24 194.28,-193.83"/>
</a>
</g>
<text text-anchor="middle" x="134" y="-272.5" font-family="Helvetica,sans-Serif" font-size="10.00" fill="grey"> +pcache</text>
<text text-anchor="middle" x="134" y="-261.5" font-family="Helvetica,sans-Serif" font-size="10.00" fill="grey">+rcache</text>
</g>
<!-- Node4 -->
<g id="Node000004" class="node">
<title>Node4</title>
<g id="a_Node000004"><a xlink:href="structlfs_1_1lfs__mlist.html" target="_top" xlink:title=" ">
<polygon fill="white" stroke="transparent" points="145.5,-435.5 74.5,-435.5 74.5,-371.5 145.5,-371.5 145.5,-435.5"/>
<text text-anchor="start" x="80" y="-423.5" font-family="Helvetica,sans-Serif" font-size="10.00">lfs::lfs_mlist</text>
<text text-anchor="start" x="86" y="-408.5" font-family="Helvetica,sans-Serif" font-size="10.00">+</text>
<text text-anchor="start" x="106" y="-408.5" font-family="Helvetica,sans-Serif" font-size="10.00">id</text>
<text text-anchor="start" x="86" y="-393.5" font-family="Helvetica,sans-Serif" font-size="10.00">+</text>
<text text-anchor="start" x="106" y="-393.5" font-family="Helvetica,sans-Serif" font-size="10.00">type</text>
<text text-anchor="start" x="108.5" y="-378.5" font-family="Helvetica,sans-Serif" font-size="10.00"> </text>
<polygon fill="#bfbfbf" stroke="#bfbfbf" points="75,-418.5 75,-418.5 146,-418.5 146,-418.5 75,-418.5"/>
<polygon fill="#bfbfbf" stroke="#bfbfbf" points="75,-388.5 75,-388.5 104,-388.5 104,-388.5 75,-388.5"/>
<polygon fill="#bfbfbf" stroke="#bfbfbf" points="104,-388.5 104,-388.5 146,-388.5 146,-388.5 104,-388.5"/>
<polygon fill="none" stroke="#bfbfbf" points="74.5,-371.5 74.5,-435.5 145.5,-435.5 145.5,-371.5 74.5,-371.5"/>
</a>
</g>
</g>
<!-- Node4&#45;&gt;Node2 -->
<g id="edge3_Node000002_Node000004" class="edge">
<title>Node4&#45;&gt;Node2</title>
<g id="a_edge3_Node000002_Node000004"><a xlink:title=" ">
<path fill="none" stroke="#63b8ff" d="M127.93,-371.16C146.15,-339.31 175.11,-288.67 199.67,-245.74"/>
<polygon fill="none" stroke="#63b8ff" points="199.69,-245.71 199.2,-238.52 205.65,-235.29 206.14,-242.49 199.69,-245.71"/>
</a>
</g>
<text text-anchor="middle" x="211.5" y="-267" font-family="Helvetica,sans-Serif" font-size="10.00" fill="grey"> +mlist</text>
</g>
<!-- Node4&#45;&gt;Node4 -->
<g id="edge4_Node000004_Node000004" class="edge">
<title>Node4&#45;&gt;Node4</title>
<g id="a_edge4_Node000004_Node000004"><a xlink:title=" ">
<path fill="none" stroke="#63b8ff" d="M145.75,-426.26C155.79,-425.27 163.5,-417.68 163.5,-403.5 163.5,-395.3 160.92,-389.31 156.81,-385.52"/>
<polygon fill="none" stroke="#63b8ff" points="156.77,-385.5 149.67,-386.79 145.75,-380.74 152.85,-379.45 156.77,-385.5"/>
</a>
</g>
<text text-anchor="middle" x="180.5" y="-401" font-family="Helvetica,sans-Serif" font-size="10.00" fill="grey"> +next</text>
</g>
<!-- Node5 -->
<g id="Node000005" class="node">
<title>Node5</title>
<g id="a_Node000005"><a xlink:href="structlfs__mdir.html" target="_top" xlink:title=" ">
<polygon fill="white" stroke="transparent" points="137.5,-704 82.5,-704 82.5,-550 137.5,-550 137.5,-704"/>
<text text-anchor="start" x="90.5" y="-692" font-family="Helvetica,sans-Serif" font-size="10.00">lfs_mdir</text>
<text text-anchor="start" x="87" y="-677" font-family="Helvetica,sans-Serif" font-size="10.00">+</text>
<text text-anchor="start" x="100" y="-677" font-family="Helvetica,sans-Serif" font-size="10.00">pair</text>
<text text-anchor="start" x="87" y="-662" font-family="Helvetica,sans-Serif" font-size="10.00">+</text>
<text text-anchor="start" x="100" y="-662" font-family="Helvetica,sans-Serif" font-size="10.00">rev</text>
<text text-anchor="start" x="87" y="-647" font-family="Helvetica,sans-Serif" font-size="10.00">+</text>
<text text-anchor="start" x="100" y="-647" font-family="Helvetica,sans-Serif" font-size="10.00">off</text>
<text text-anchor="start" x="87" y="-632" font-family="Helvetica,sans-Serif" font-size="10.00">+</text>
<text text-anchor="start" x="100" y="-632" font-family="Helvetica,sans-Serif" font-size="10.00">etag</text>
<text text-anchor="start" x="87" y="-617" font-family="Helvetica,sans-Serif" font-size="10.00">+</text>
<text text-anchor="start" x="100" y="-617" font-family="Helvetica,sans-Serif" font-size="10.00">count</text>
<text text-anchor="start" x="87" y="-602" font-family="Helvetica,sans-Serif" font-size="10.00">+</text>
<text text-anchor="start" x="100" y="-602" font-family="Helvetica,sans-Serif" font-size="10.00">erased</text>
<text text-anchor="start" x="87" y="-587" font-family="Helvetica,sans-Serif" font-size="10.00">+</text>
<text text-anchor="start" x="100" y="-587" font-family="Helvetica,sans-Serif" font-size="10.00">split</text>
<text text-anchor="start" x="87" y="-572" font-family="Helvetica,sans-Serif" font-size="10.00">+</text>
<text text-anchor="start" x="100" y="-572" font-family="Helvetica,sans-Serif" font-size="10.00">tail</text>
<text text-anchor="start" x="108.5" y="-557" font-family="Helvetica,sans-Serif" font-size="10.00"> </text>
<polygon fill="#bfbfbf" stroke="#bfbfbf" points="83,-687 83,-687 138,-687 138,-687 83,-687"/>
<polygon fill="#bfbfbf" stroke="#bfbfbf" points="83,-567 83,-567 98,-567 98,-567 83,-567"/>
<polygon fill="#bfbfbf" stroke="#bfbfbf" points="98,-567 98,-567 138,-567 138,-567 98,-567"/>
<polygon fill="none" stroke="#bfbfbf" points="82.5,-550 82.5,-704 137.5,-704 137.5,-550 82.5,-550"/>
</a>
</g>
</g>
<!-- Node5&#45;&gt;Node4 -->
<g id="edge5_Node000004_Node000005" class="edge">
<title>Node5&#45;&gt;Node4</title>
<g id="a_edge5_Node000004_Node000005"><a xlink:title=" ">
<path fill="none" stroke="#63b8ff" d="M110,-549.77C110,-515.65 110,-476.68 110,-447.69"/>
<polygon fill="none" stroke="#63b8ff" points="110,-447.53 106,-441.53 110,-435.53 114,-441.53 110,-447.53"/>
</a>
</g>
<text text-anchor="middle" x="121" y="-524" font-family="Helvetica,sans-Serif" font-size="10.00" fill="grey"> +m</text>
</g>
<!-- Node6 -->
<g id="Node000006" class="node">
<title>Node6</title>
<g id="a_Node000006"><a xlink:href="structlfs__gstate.html" target="_top" xlink:title=" ">
<polygon fill="white" stroke="transparent" points="274.5,-435.5 215.5,-435.5 215.5,-371.5 274.5,-371.5 274.5,-435.5"/>
<text text-anchor="start" x="221" y="-423.5" font-family="Helvetica,sans-Serif" font-size="10.00">lfs_gstate</text>
<text text-anchor="start" x="224.5" y="-408.5" font-family="Helvetica,sans-Serif" font-size="10.00">+</text>
<text text-anchor="start" x="242" y="-408.5" font-family="Helvetica,sans-Serif" font-size="10.00">tag</text>
<text text-anchor="start" x="224.5" y="-393.5" font-family="Helvetica,sans-Serif" font-size="10.00">+</text>
<text text-anchor="start" x="242" y="-393.5" font-family="Helvetica,sans-Serif" font-size="10.00">pair</text>
<text text-anchor="start" x="243.5" y="-378.5" font-family="Helvetica,sans-Serif" font-size="10.00"> </text>
<polygon fill="#bfbfbf" stroke="#bfbfbf" points="216,-418.5 216,-418.5 275,-418.5 275,-418.5 216,-418.5"/>
<polygon fill="#bfbfbf" stroke="#bfbfbf" points="216,-388.5 216,-388.5 240,-388.5 240,-388.5 216,-388.5"/>
<polygon fill="#bfbfbf" stroke="#bfbfbf" points="240,-388.5 240,-388.5 275,-388.5 275,-388.5 240,-388.5"/>
<polygon fill="none" stroke="#bfbfbf" points="215.5,-371.5 215.5,-435.5 274.5,-435.5 274.5,-371.5 215.5,-371.5"/>
</a>
</g>
</g>
<!-- Node6&#45;&gt;Node2 -->
<g id="edge6_Node000002_Node000006" class="edge">
<title>Node6&#45;&gt;Node2</title>
<g id="a_edge6_Node000002_Node000006"><a xlink:title=" ">
<path fill="none" stroke="#63b8ff" d="M245,-371.16C245,-339.71 245,-289.96 245,-247.38"/>
<polygon fill="none" stroke="#63b8ff" points="245,-247.29 241,-241.29 245,-235.29 249,-241.29 245,-247.29"/>
</a>
</g>
<text text-anchor="middle" x="266.5" y="-278" font-family="Helvetica,sans-Serif" font-size="10.00" fill="grey"> +gdelta</text>
<text text-anchor="middle" x="266.5" y="-267" font-family="Helvetica,sans-Serif" font-size="10.00" fill="grey">+gdisk</text>
<text text-anchor="middle" x="266.5" y="-256" font-family="Helvetica,sans-Serif" font-size="10.00" fill="grey">+gstate</text>
</g>
<!-- Node7 -->
<g id="Node000007" class="node">
<title>Node7</title>
<g id="a_Node000007"><a xlink:href="structlfs_1_1lfs__lookahead.html" target="_top" xlink:title=" ">
<polygon fill="white" stroke="transparent" points="389,-458 293,-458 293,-349 389,-349 389,-458"/>
<text text-anchor="start" x="298" y="-445.5" font-family="Helvetica,sans-Serif" font-size="10.00">lfs::lfs_lookahead</text>
<text text-anchor="start" x="306.5" y="-430.5" font-family="Helvetica,sans-Serif" font-size="10.00">+</text>
<text text-anchor="start" x="329" y="-430.5" font-family="Helvetica,sans-Serif" font-size="10.00">start</text>
<text text-anchor="start" x="306.5" y="-415.5" font-family="Helvetica,sans-Serif" font-size="10.00">+</text>
<text text-anchor="start" x="329" y="-415.5" font-family="Helvetica,sans-Serif" font-size="10.00">size</text>
<text text-anchor="start" x="306.5" y="-400.5" font-family="Helvetica,sans-Serif" font-size="10.00">+</text>
<text text-anchor="start" x="329" y="-400.5" font-family="Helvetica,sans-Serif" font-size="10.00">next</text>
<text text-anchor="start" x="306.5" y="-385.5" font-family="Helvetica,sans-Serif" font-size="10.00">+</text>
<text text-anchor="start" x="329" y="-385.5" font-family="Helvetica,sans-Serif" font-size="10.00">ckpoint</text>
<text text-anchor="start" x="306.5" y="-370.5" font-family="Helvetica,sans-Serif" font-size="10.00">+</text>
<text text-anchor="start" x="329" y="-370.5" font-family="Helvetica,sans-Serif" font-size="10.00">buffer</text>
<text text-anchor="start" x="339" y="-355.5" font-family="Helvetica,sans-Serif" font-size="10.00"> </text>
<polygon fill="#bfbfbf" stroke="#bfbfbf" points="293,-440.5 293,-440.5 389,-440.5 389,-440.5 293,-440.5"/>
<polygon fill="#bfbfbf" stroke="#bfbfbf" points="293,-365.5 293,-365.5 327,-365.5 327,-365.5 293,-365.5"/>
<polygon fill="#bfbfbf" stroke="#bfbfbf" points="327,-365.5 327,-365.5 389,-365.5 389,-365.5 327,-365.5"/>
<polygon fill="none" stroke="#bfbfbf" points="293,-349 293,-458 389,-458 389,-349 293,-349"/>
</a>
</g>
</g>
<!-- Node7&#45;&gt;Node2 -->
<g id="edge7_Node000002_Node000007" class="edge">
<title>Node7&#45;&gt;Node2</title>
<g id="a_edge7_Node000002_Node000007"><a xlink:title=" ">
<path fill="none" stroke="#63b8ff" d="M325.95,-348.7C317.23,-319.86 305.36,-283.97 292,-253 291.06,-250.82 290.09,-248.63 289.08,-246.42"/>
<polygon fill="none" stroke="#63b8ff" points="288.97,-246.2 282.79,-242.49 283.84,-235.35 290.02,-239.06 288.97,-246.2"/>
</a>
</g>
<text text-anchor="middle" x="335" y="-267" font-family="Helvetica,sans-Serif" font-size="10.00" fill="grey"> +lookahead</text>
</g>
<!-- Node8 -->
<g id="Node000008" class="node">
<title>Node8</title>
<g id="a_Node000008"><a xlink:href="structlfs__config.html" target="_top" xlink:title=" ">
<polygon fill="white" stroke="transparent" points="499,-503 407,-503 407,-304 499,-304 499,-503"/>
<text text-anchor="start" x="429.5" y="-490.5" font-family="Helvetica,sans-Serif" font-size="10.00">lfs_config</text>
<text text-anchor="start" x="411" y="-475.5" font-family="Helvetica,sans-Serif" font-size="10.00">+</text>
<text text-anchor="start" x="424" y="-475.5" font-family="Helvetica,sans-Serif" font-size="10.00">context</text>
<text text-anchor="start" x="411" y="-460.5" font-family="Helvetica,sans-Serif" font-size="10.00">+</text>
<text text-anchor="start" x="424" y="-460.5" font-family="Helvetica,sans-Serif" font-size="10.00">read</text>
<text text-anchor="start" x="411" y="-445.5" font-family="Helvetica,sans-Serif" font-size="10.00">+</text>
<text text-anchor="start" x="424" y="-445.5" font-family="Helvetica,sans-Serif" font-size="10.00">prog</text>
<text text-anchor="start" x="411" y="-430.5" font-family="Helvetica,sans-Serif" font-size="10.00">+</text>
<text text-anchor="start" x="424" y="-430.5" font-family="Helvetica,sans-Serif" font-size="10.00">erase</text>
<text text-anchor="start" x="411" y="-415.5" font-family="Helvetica,sans-Serif" font-size="10.00">+</text>
<text text-anchor="start" x="424" y="-415.5" font-family="Helvetica,sans-Serif" font-size="10.00">sync</text>
<text text-anchor="start" x="411" y="-400.5" font-family="Helvetica,sans-Serif" font-size="10.00">+</text>
<text text-anchor="start" x="424" y="-400.5" font-family="Helvetica,sans-Serif" font-size="10.00">read_size</text>
<text text-anchor="start" x="411" y="-385.5" font-family="Helvetica,sans-Serif" font-size="10.00">+</text>
<text text-anchor="start" x="424" y="-385.5" font-family="Helvetica,sans-Serif" font-size="10.00">prog_size</text>
<text text-anchor="start" x="411" y="-370.5" font-family="Helvetica,sans-Serif" font-size="10.00">+</text>
<text text-anchor="start" x="424" y="-370.5" font-family="Helvetica,sans-Serif" font-size="10.00">block_size</text>
<text text-anchor="start" x="411" y="-355.5" font-family="Helvetica,sans-Serif" font-size="10.00">+</text>
<text text-anchor="start" x="424" y="-355.5" font-family="Helvetica,sans-Serif" font-size="10.00">block_count</text>
<text text-anchor="start" x="411" y="-340.5" font-family="Helvetica,sans-Serif" font-size="10.00">+</text>
<text text-anchor="start" x="424" y="-340.5" font-family="Helvetica,sans-Serif" font-size="10.00">block_cycles</text>
<text text-anchor="start" x="424" y="-325.5" font-family="Helvetica,sans-Serif" font-size="10.00">and 11 more...</text>
<text text-anchor="start" x="451" y="-310.5" font-family="Helvetica,sans-Serif" font-size="10.00"> </text>
<polygon fill="#bfbfbf" stroke="#bfbfbf" points="407,-485.5 407,-485.5 499,-485.5 499,-485.5 407,-485.5"/>
<polygon fill="#bfbfbf" stroke="#bfbfbf" points="407,-320.5 407,-320.5 422,-320.5 422,-320.5 407,-320.5"/>
<polygon fill="#bfbfbf" stroke="#bfbfbf" points="422,-320.5 422,-320.5 499,-320.5 499,-320.5 422,-320.5"/>
<polygon fill="none" stroke="#bfbfbf" points="407,-304 407,-503 499,-503 499,-304 407,-304"/>
</a>
</g>
</g>
<!-- Node8&#45;&gt;Node2 -->
<g id="edge8_Node000002_Node000008" class="edge">
<title>Node8&#45;&gt;Node2</title>
<g id="a_edge8_Node000002_Node000008"><a xlink:title=" ">
<path fill="none" stroke="#63b8ff" d="M406.85,-304.03C396.12,-286.04 383.75,-268.18 370,-253 348.85,-229.66 320.26,-209.28 295.75,-194.18"/>
<polygon fill="none" stroke="#63b8ff" points="295.47,-194.01 288.27,-194.35 285.18,-187.83 292.39,-187.49 295.47,-194.01"/>
</a>
</g>
<text text-anchor="middle" x="405.5" y="-267" font-family="Helvetica,sans-Serif" font-size="10.00" fill="grey"> +cfg</text>
</g>
</g>
</svg>
