<?xml version="1.0" encoding="UTF-8" standalone="no"?>
<!DOCTYPE svg PUBLIC "-//W3C//DTD SVG 1.1//EN"
 "http://www.w3.org/Graphics/SVG/1.1/DTD/svg11.dtd">
<!-- Generated by graphviz version 2.43.0 (0)
 -->
<!-- Title: main/ceo/task/include/TaskMonitor.hpp Pages: 1 -->
<svg width="772pt" height="148pt"
 viewBox="0.00 0.00 772.00 148.00" xmlns="http://www.w3.org/2000/svg" xmlns:xlink="http://www.w3.org/1999/xlink">
<g id="graph0" class="graph" transform="scale(1 1) rotate(0) translate(4 144)">
<title>main/ceo/task/include/TaskMonitor.hpp</title>
<!-- Node1 -->
<g id="Node000001" class="node">
<title>Node1</title>
<g id="a_Node000001"><a xlink:title="The immune system and homeostatic supervisor of the organism.">
<polygon fill="#999999" stroke="#666666" points="378.5,-140 254.5,-140 254.5,-110 378.5,-110 378.5,-140"/>
<text text-anchor="start" x="262.5" y="-128" font-family="Helvetica,sans-Serif" font-size="10.00">main/ceo/task/include</text>
<text text-anchor="middle" x="316.5" y="-117" font-family="Helvetica,sans-Serif" font-size="10.00">/TaskMonitor.hpp</text>
</a>
</g>
</g>
<!-- Node2 -->
<g id="Node000002" class="node">
<title>Node2</title>
<g id="a_Node000002"><a xlink:title=" ">
<polygon fill="#e0e0e0" stroke="#999999" points="53,-19 0,-19 0,0 53,0 53,-19"/>
<text text-anchor="middle" x="26.5" y="-7" font-family="Helvetica,sans-Serif" font-size="10.00">stdint.h</text>
</a>
</g>
</g>
<!-- Node1&#45;&gt;Node2 -->
<g id="edge1_Node000001_Node000002" class="edge">
<title>Node1&#45;&gt;Node2</title>
<g id="a_edge1_Node000001_Node000002"><a xlink:title=" ">
<path fill="none" stroke="#63b8ff" d="M276.15,-109.96C248.53,-100.2 211.15,-86.72 178.5,-74 135.41,-57.2 86.1,-36.29 55.63,-23.16"/>
<polygon fill="#63b8ff" stroke="#63b8ff" points="56.62,-19.78 46.05,-19.02 53.85,-26.2 56.62,-19.78"/>
</a>
</g>
</g>
<!-- Node3 -->
<g id="Node000003" class="node">
<title>Node3</title>
<g id="a_Node000003"><a xlink:title=" ">
<polygon fill="#e0e0e0" stroke="#999999" points="393.5,-74 337.5,-74 337.5,-55 393.5,-55 393.5,-74"/>
<text text-anchor="middle" x="365.5" y="-62" font-family="Helvetica,sans-Serif" font-size="10.00">stddef.h</text>
</a>
</g>
</g>
<!-- Node1&#45;&gt;Node3 -->
<g id="edge2_Node000001_Node000003" class="edge">
<title>Node1&#45;&gt;Node3</title>
<g id="a_edge2_Node000001_Node000003"><a xlink:title=" ">
<path fill="none" stroke="#63b8ff" d="M328.36,-109.84C335.4,-101.43 344.36,-90.74 351.71,-81.96"/>
<polygon fill="#63b8ff" stroke="#63b8ff" points="354.42,-84.18 358.16,-74.27 349.05,-79.68 354.42,-84.18"/>
</a>
</g>
</g>
<!-- Node4 -->
<g id="Node000004" class="node">
<title>Node4</title>
<g id="a_Node000004"><a xlink:title=" ">
<polygon fill="#e0e0e0" stroke="#999999" points="473,-74 412,-74 412,-55 473,-55 473,-74"/>
<text text-anchor="middle" x="442.5" y="-62" font-family="Helvetica,sans-Serif" font-size="10.00">esp_err.h</text>
</a>
</g>
</g>
<!-- Node1&#45;&gt;Node4 -->
<g id="edge3_Node000001_Node000004" class="edge">
<title>Node1&#45;&gt;Node4</title>
<g id="a_edge3_Node000001_Node000004"><a xlink:title=" ">
<path fill="none" stroke="#63b8ff" d="M346.68,-109.99C367.33,-100.4 394.5,-87.79 414.63,-78.44"/>
<polygon fill="#63b8ff" stroke="#63b8ff" points="416.3,-81.52 423.89,-74.14 413.35,-75.18 416.3,-81.52"/>
</a>
</g>
</g>
<!-- Node5 -->
<g id="Node000005" class="node">
<title>Node5</title>
<g id="a_Node000005"><a xlink:title=" ">
<polygon fill="#e0e0e0" stroke="#999999" points="184,-19 71,-19 71,0 184,0 184,-19"/>
<text text-anchor="middle" x="127.5" y="-7" font-family="Helvetica,sans-Serif" font-size="10.00">freertos/FreeRTOS.h</text>
</a>
</g>
</g>
<!-- Node1&#45;&gt;Node5 -->
<g id="edge4_Node000001_Node000005" class="edge">
<title>Node1&#45;&gt;Node5</title>
<g id="a_edge4_Node000001_Node000005"><a xlink:title=" ">
<path fill="none" stroke="#63b8ff" d="M280.29,-109.98C258.53,-100.93 230.66,-88.21 207.5,-74 184.29,-59.76 160.14,-39.75 144.53,-26.02"/>
<polygon fill="#63b8ff" stroke="#63b8ff" points="146.59,-23.17 136.79,-19.12 141.92,-28.39 146.59,-23.17"/>
</a>
</g>
</g>
<!-- Node6 -->
<g id="Node000006" class="node">
<title>Node6</title>
<g id="a_Node000006"><a xlink:title=" ">
<polygon fill="#e0e0e0" stroke="#999999" points="579.5,-74 491.5,-74 491.5,-55 579.5,-55 579.5,-74"/>
<text text-anchor="middle" x="535.5" y="-62" font-family="Helvetica,sans-Serif" font-size="10.00">freertos/task.h</text>
</a>
</g>
</g>
<!-- Node1&#45;&gt;Node6 -->
<g id="edge5_Node000001_Node000006" class="edge">
<title>Node1&#45;&gt;Node6</title>
<g id="a_edge5_Node000001_Node000006"><a xlink:title=" ">
<path fill="none" stroke="#63b8ff" d="M368.96,-109.99C407.08,-99.8 458,-86.2 493.46,-76.73"/>
<polygon fill="#63b8ff" stroke="#63b8ff" points="494.72,-80.02 503.48,-74.05 492.91,-73.25 494.72,-80.02"/>
</a>
</g>
</g>
<!-- Node7 -->
<g id="Node000007" class="node">
<title>Node7</title>
<g id="a_Node000007"><a xlink:href="DataManager_8hpp.html" target="_top" xlink:title="The collective consciousness and unified system state mirror.">
<polygon fill="white" stroke="#666666" points="319,-74 216,-74 216,-55 319,-55 319,-74"/>
<text text-anchor="middle" x="267.5" y="-62" font-family="Helvetica,sans-Serif" font-size="10.00">DataManager.hpp</text>
</a>
</g>
</g>
<!-- Node1&#45;&gt;Node7 -->
<g id="edge6_Node000001_Node000007" class="edge">
<title>Node1&#45;&gt;Node7</title>
<g id="a_edge6_Node000001_Node000007"><a xlink:title=" ">
<path fill="none" stroke="#63b8ff" d="M304.64,-109.84C297.6,-101.43 288.64,-90.74 281.29,-81.96"/>
<polygon fill="#63b8ff" stroke="#63b8ff" points="283.95,-79.68 274.84,-74.27 278.58,-84.18 283.95,-79.68"/>
</a>
</g>
</g>
<!-- Node7&#45;&gt;Node2 -->
<g id="edge7_Node000007_Node000002" class="edge">
<title>Node7&#45;&gt;Node2</title>
<g id="a_edge7_Node000007_Node000002"><a xlink:title=" ">
<path fill="none" stroke="#63b8ff" d="M226.39,-54.94C186.88,-46.64 125.22,-33.51 63.19,-19.35"/>
<polygon fill="#63b8ff" stroke="#63b8ff" points="63.77,-15.89 53.24,-17.07 62.2,-22.71 63.77,-15.89"/>
</a>
</g>
</g>
<!-- Node7&#45;&gt;Node5 -->
<g id="edge10_Node000007_Node000005" class="edge">
<title>Node7&#45;&gt;Node5</title>
<g id="a_edge10_Node000007_Node000005"><a xlink:title=" ">
<path fill="none" stroke="#63b8ff" d="M245.01,-54.98C221.98,-46.27 185.96,-32.63 159.87,-22.75"/>
<polygon fill="#63b8ff" stroke="#63b8ff" points="160.99,-19.44 150.4,-19.17 158.52,-25.98 160.99,-19.44"/>
</a>
</g>
</g>
<!-- Node8 -->
<g id="Node000008" class="node">
<title>Node8</title>
<g id="a_Node000008"><a xlink:title=" ">
<polygon fill="#e0e0e0" stroke="#999999" points="255,-19 202,-19 202,0 255,0 255,-19"/>
<text text-anchor="middle" x="228.5" y="-7" font-family="Helvetica,sans-Serif" font-size="10.00">string.h</text>
</a>
</g>
</g>
<!-- Node7&#45;&gt;Node8 -->
<g id="edge8_Node000007_Node000008" class="edge">
<title>Node7&#45;&gt;Node8</title>
<g id="a_edge8_Node000007_Node000008"><a xlink:title=" ">
<path fill="none" stroke="#63b8ff" d="M261.06,-54.75C255.61,-47.34 247.64,-36.5 240.94,-27.41"/>
<polygon fill="#63b8ff" stroke="#63b8ff" points="243.57,-25.07 234.82,-19.09 237.93,-29.22 243.57,-25.07"/>
</a>
</g>
</g>
<!-- Node9 -->
<g id="Node000009" class="node">
<title>Node9</title>
<g id="a_Node000009"><a xlink:title=" ">
<polygon fill="#e0e0e0" stroke="#999999" points="342,-19 273,-19 273,0 342,0 342,-19"/>
<text text-anchor="middle" x="307.5" y="-7" font-family="Helvetica,sans-Serif" font-size="10.00">type_traits</text>
</a>
</g>
</g>
<!-- Node7&#45;&gt;Node9 -->
<g id="edge9_Node000007_Node000009" class="edge">
<title>Node7&#45;&gt;Node9</title>
<g id="a_edge9_Node000007_Node000009"><a xlink:title=" ">
<path fill="none" stroke="#63b8ff" d="M274.11,-54.75C279.76,-47.26 288.04,-36.28 294.95,-27.13"/>
<polygon fill="#63b8ff" stroke="#63b8ff" points="297.79,-29.18 301.02,-19.09 292.2,-24.96 297.79,-29.18"/>
</a>
</g>
</g>
<!-- Node10 -->
<g id="Node000010" class="node">
<title>Node10</title>
<g id="a_Node000010"><a xlink:title=" ">
<polygon fill="#e0e0e0" stroke="#999999" points="463,-19 360,-19 360,0 463,0 463,-19"/>
<text text-anchor="middle" x="411.5" y="-7" font-family="Helvetica,sans-Serif" font-size="10.00">freertos/semphr.h</text>
</a>
</g>
</g>
<!-- Node7&#45;&gt;Node10 -->
<g id="edge11_Node000007_Node000010" class="edge">
<title>Node7&#45;&gt;Node10</title>
<g id="a_edge11_Node000007_Node000010"><a xlink:title=" ">
<path fill="none" stroke="#63b8ff" d="M290.64,-54.98C314.32,-46.27 351.37,-32.63 378.21,-22.75"/>
<polygon fill="#63b8ff" stroke="#63b8ff" points="379.77,-25.91 387.94,-19.17 377.35,-19.34 379.77,-25.91"/>
</a>
</g>
</g>
<!-- Node11 -->
<g id="Node000011" class="node">
<title>Node11</title>
<g id="a_Node000011"><a xlink:title=" ">
<polygon fill="#e0e0e0" stroke="#999999" points="581.5,-19 481.5,-19 481.5,0 581.5,0 581.5,-19"/>
<text text-anchor="middle" x="531.5" y="-7" font-family="Helvetica,sans-Serif" font-size="10.00">esp_heap_caps.h</text>
</a>
</g>
</g>
<!-- Node7&#45;&gt;Node11 -->
<g id="edge12_Node000007_Node000011" class="edge">
<title>Node7&#45;&gt;Node11</title>
<g id="a_edge12_Node000007_Node000011"><a xlink:title=" ">
<path fill="none" stroke="#63b8ff" d="M309.92,-54.98C355.87,-45.76 429.25,-31.03 478.85,-21.07"/>
<polygon fill="#63b8ff" stroke="#63b8ff" points="479.64,-24.48 488.75,-19.08 478.26,-17.62 479.64,-24.48"/>
</a>
</g>
</g>
<!-- Node12 -->
<g id="Node000012" class="node">
<title>Node12</title>
<g id="a_Node000012"><a xlink:title=" ">
<polygon fill="#e0e0e0" stroke="#999999" points="663,-19 600,-19 600,0 663,0 663,-19"/>
<text text-anchor="middle" x="631.5" y="-7" font-family="Helvetica,sans-Serif" font-size="10.00">esp_log.h</text>
</a>
</g>
</g>
<!-- Node7&#45;&gt;Node12 -->
<g id="edge13_Node000007_Node000012" class="edge">
<title>Node7&#45;&gt;Node12</title>
<g id="a_edge13_Node000007_Node000012"><a xlink:title=" ">
<path fill="none" stroke="#63b8ff" d="M319.08,-56.31C322.27,-55.86 325.43,-55.43 328.5,-55 441.75,-39.33 472.97,-38.95 589.71,-19.03"/>
<polygon fill="#63b8ff" stroke="#63b8ff" points="590.49,-22.45 599.76,-17.3 589.31,-15.55 590.49,-22.45"/>
</a>
</g>
</g>
<!-- Node13 -->
<g id="Node000013" class="node">
<title>Node13</title>
<g id="a_Node000013"><a xlink:href="IManager_8hpp.html" target="_top" xlink:title="The abstract behavioral contract for all managers.">
<polygon fill="white" stroke="#666666" points="764,-19 681,-19 681,0 764,0 764,-19"/>
<text text-anchor="middle" x="722.5" y="-7" font-family="Helvetica,sans-Serif" font-size="10.00">IManager.hpp</text>
</a>
</g>
</g>
<!-- Node7&#45;&gt;Node13 -->
<g id="edge14_Node000007_Node000013" class="edge">
<title>Node7&#45;&gt;Node13</title>
<g id="a_edge14_Node000007_Node000013"><a xlink:title=" ">
<path fill="none" stroke="#63b8ff" d="M319.07,-56.19C322.26,-55.77 325.42,-55.38 328.5,-55 477.81,-36.79 518.47,-39.75 670.6,-19.19"/>
<polygon fill="#63b8ff" stroke="#63b8ff" points="671.35,-22.62 680.79,-17.8 670.41,-15.68 671.35,-22.62"/>
</a>
</g>
</g>
</g>
</svg>
