<?xml version="1.0" encoding="UTF-8" standalone="no"?>
<!DOCTYPE svg PUBLIC "-//W3C//DTD SVG 1.1//EN"
 "http://www.w3.org/Graphics/SVG/1.1/DTD/svg11.dtd">
<!-- Generated by graphviz version 2.43.0 (0)
 -->
<!-- Title: main/ceo/task/TaskMonitor.cpp Pages: 1 -->
<svg width="803pt" height="192pt"
 viewBox="0.00 0.00 802.50 192.00" xmlns="http://www.w3.org/2000/svg" xmlns:xlink="http://www.w3.org/1999/xlink">
<g id="graph0" class="graph" transform="scale(1 1) rotate(0) translate(4 188)">
<title>main/ceo/task/TaskMonitor.cpp</title>
<!-- Node1 -->
<g id="Node000001" class="node">
<title>Node1</title>
<g id="a_Node000001"><a xlink:title=" ">
<polygon fill="#999999" stroke="#666666" points="458,-184 291,-184 291,-165 458,-165 458,-184"/>
<text text-anchor="middle" x="374.5" y="-172" font-family="Helvetica,sans-Serif" font-size="10.00">main/ceo/task/TaskMonitor.cpp</text>
</a>
</g>
</g>
<!-- Node2 -->
<g id="Node000002" class="node">
<title>Node2</title>
<g id="a_Node000002"><a xlink:title=" ">
<polygon fill="#e0e0e0" stroke="#999999" points="53,-19 0,-19 0,0 53,0 53,-19"/>
<text text-anchor="middle" x="26.5" y="-7" font-family="Helvetica,sans-Serif" font-size="10.00">string.h</text>
</a>
</g>
</g>
<!-- Node1&#45;&gt;Node2 -->
<g id="edge1_Node000001_Node000002" class="edge">
<title>Node1&#45;&gt;Node2</title>
<g id="a_edge1_Node000001_Node000002"><a xlink:title=" ">
<path fill="none" stroke="#63b8ff" d="M335.69,-164.96C304.61,-157.44 260.28,-145.16 223.5,-129 155.07,-98.93 81.34,-49.44 46.68,-25.04"/>
<polygon fill="#63b8ff" stroke="#63b8ff" points="48.54,-22.06 38.36,-19.13 44.48,-27.77 48.54,-22.06"/>
</a>
</g>
</g>
<!-- Node3 -->
<g id="Node000003" class="node">
<title>Node3</title>
<g id="a_Node000003"><a xlink:title=" ">
<polygon fill="#e0e0e0" stroke="#999999" points="490.5,-129 440.5,-129 440.5,-110 490.5,-110 490.5,-129"/>
<text text-anchor="middle" x="465.5" y="-117" font-family="Helvetica,sans-Serif" font-size="10.00">stdio.h</text>
</a>
</g>
</g>
<!-- Node1&#45;&gt;Node3 -->
<g id="edge2_Node000001_Node000003" class="edge">
<title>Node1&#45;&gt;Node3</title>
<g id="a_edge2_Node000001_Node000003"><a xlink:title=" ">
<path fill="none" stroke="#63b8ff" d="M389.12,-164.98C403.36,-156.69 425.25,-143.94 441.95,-134.22"/>
<polygon fill="#63b8ff" stroke="#63b8ff" points="443.73,-137.23 450.61,-129.17 440.21,-131.18 443.73,-137.23"/>
</a>
</g>
</g>
<!-- Node4 -->
<g id="Node000004" class="node">
<title>Node4</title>
<g id="a_Node000004"><a xlink:title=" ">
<polygon fill="#e0e0e0" stroke="#999999" points="592.5,-129 508.5,-129 508.5,-110 592.5,-110 592.5,-129"/>
<text text-anchor="middle" x="550.5" y="-117" font-family="Helvetica,sans-Serif" font-size="10.00">esp_system.h</text>
</a>
</g>
</g>
<!-- Node1&#45;&gt;Node4 -->
<g id="edge3_Node000001_Node000004" class="edge">
<title>Node1&#45;&gt;Node4</title>
<g id="a_edge3_Node000001_Node000004"><a xlink:title=" ">
<path fill="none" stroke="#63b8ff" d="M402.78,-164.98C432.45,-156.05 479.29,-141.94 512.25,-132.02"/>
<polygon fill="#63b8ff" stroke="#63b8ff" points="513.43,-135.32 522,-129.08 511.42,-128.61 513.43,-135.32"/>
</a>
</g>
</g>
<!-- Node5 -->
<g id="Node000005" class="node">
<title>Node5</title>
<g id="a_Node000005"><a xlink:title=" ">
<polygon fill="#e0e0e0" stroke="#999999" points="134,-19 71,-19 71,0 134,0 134,-19"/>
<text text-anchor="middle" x="102.5" y="-7" font-family="Helvetica,sans-Serif" font-size="10.00">esp_log.h</text>
</a>
</g>
</g>
<!-- Node1&#45;&gt;Node5 -->
<g id="edge4_Node000001_Node000005" class="edge">
<title>Node1&#45;&gt;Node5</title>
<g id="a_edge4_Node000001_Node000005"><a xlink:title=" ">
<path fill="none" stroke="#63b8ff" d="M344.06,-164.91C319.33,-157.28 284.02,-144.89 255.5,-129 201.24,-98.76 145.56,-50.4 118.8,-25.86"/>
<polygon fill="#63b8ff" stroke="#63b8ff" points="121.18,-23.28 111.46,-19.05 116.42,-28.42 121.18,-23.28"/>
</a>
</g>
</g>
<!-- Node6 -->
<g id="Node000006" class="node">
<title>Node6</title>
<g id="a_Node000006"><a xlink:title=" ">
<polygon fill="#e0e0e0" stroke="#999999" points="252.5,-19 152.5,-19 152.5,0 252.5,0 252.5,-19"/>
<text text-anchor="middle" x="202.5" y="-7" font-family="Helvetica,sans-Serif" font-size="10.00">esp_heap_caps.h</text>
</a>
</g>
</g>
<!-- Node1&#45;&gt;Node6 -->
<g id="edge5_Node000001_Node000006" class="edge">
<title>Node1&#45;&gt;Node6</title>
<g id="a_edge5_Node000001_Node000006"><a xlink:title=" ">
<path fill="none" stroke="#63b8ff" d="M351.77,-164.93C318.12,-151.07 255.36,-120.48 221.5,-74 211.87,-60.78 207.07,-42.65 204.71,-29.15"/>
<polygon fill="#63b8ff" stroke="#63b8ff" points="208.16,-28.5 203.25,-19.11 201.23,-29.51 208.16,-28.5"/>
</a>
</g>
</g>
<!-- Node7 -->
<g id="Node000007" class="node">
<title>Node7</title>
<g id="a_Node000007"><a xlink:title=" ">
<polygon fill="#e0e0e0" stroke="#999999" points="684.5,-129 610.5,-129 610.5,-110 684.5,-110 684.5,-129"/>
<text text-anchor="middle" x="647.5" y="-117" font-family="Helvetica,sans-Serif" font-size="10.00">esp_timer.h</text>
</a>
</g>
</g>
<!-- Node1&#45;&gt;Node7 -->
<g id="edge6_Node000001_Node000007" class="edge">
<title>Node1&#45;&gt;Node7</title>
<g id="a_edge6_Node000001_Node000007"><a xlink:title=" ">
<path fill="none" stroke="#63b8ff" d="M418.36,-164.98C468.14,-155.32 549.03,-139.62 600.19,-129.68"/>
<polygon fill="#63b8ff" stroke="#63b8ff" points="601.17,-133.06 610.32,-127.72 599.84,-126.19 601.17,-133.06"/>
</a>
</g>
</g>
<!-- Node8 -->
<g id="Node000008" class="node">
<title>Node8</title>
<g id="a_Node000008"><a xlink:title=" ">
<polygon fill="#e0e0e0" stroke="#999999" points="794.5,-129 702.5,-129 702.5,-110 794.5,-110 794.5,-129"/>
<text text-anchor="middle" x="748.5" y="-117" font-family="Helvetica,sans-Serif" font-size="10.00">esp_chip_info.h</text>
</a>
</g>
</g>
<!-- Node1&#45;&gt;Node8 -->
<g id="edge7_Node000001_Node000008" class="edge">
<title>Node1&#45;&gt;Node8</title>
<g id="a_edge7_Node000001_Node000008"><a xlink:title=" ">
<path fill="none" stroke="#63b8ff" d="M437.49,-164.99C499.66,-156.53 597.72,-143.02 692.27,-129.16"/>
<polygon fill="#63b8ff" stroke="#63b8ff" points="692.91,-132.61 702.29,-127.69 691.89,-125.68 692.91,-132.61"/>
</a>
</g>
</g>
<!-- Node9 -->
<g id="Node000009" class="node">
<title>Node9</title>
<g id="a_Node000009"><a xlink:href="DataManager_8hpp.html" target="_top" xlink:title="The collective consciousness and unified system state mirror.">
<polygon fill="white" stroke="#666666" points="334,-74 231,-74 231,-55 334,-55 334,-74"/>
<text text-anchor="middle" x="282.5" y="-62" font-family="Helvetica,sans-Serif" font-size="10.00">DataManager.hpp</text>
</a>
</g>
</g>
<!-- Node1&#45;&gt;Node9 -->
<g id="edge8_Node000001_Node000009" class="edge">
<title>Node1&#45;&gt;Node9</title>
<g id="a_edge8_Node000001_Node000009"><a xlink:title=" ">
<path fill="none" stroke="#63b8ff" d="M360.54,-164.94C348.12,-156.83 330.04,-143.71 317.5,-129 305.79,-115.26 296.21,-96.98 290.06,-83.56"/>
<polygon fill="#63b8ff" stroke="#63b8ff" points="293.26,-82.16 286.04,-74.41 286.85,-84.97 293.26,-82.16"/>
</a>
</g>
</g>
<!-- Node15 -->
<g id="Node000015" class="node">
<title>Node15</title>
<g id="a_Node000015"><a xlink:href="TaskMonitor_8hpp.html" target="_top" xlink:title="The immune system and homeostatic supervisor of the organism.">
<polygon fill="white" stroke="#666666" points="422.5,-129 326.5,-129 326.5,-110 422.5,-110 422.5,-129"/>
<text text-anchor="middle" x="374.5" y="-117" font-family="Helvetica,sans-Serif" font-size="10.00">TaskMonitor.hpp</text>
</a>
</g>
</g>
<!-- Node1&#45;&gt;Node15 -->
<g id="edge17_Node000001_Node000015" class="edge">
<title>Node1&#45;&gt;Node15</title>
<g id="a_edge17_Node000001_Node000015"><a xlink:title=" ">
<path fill="none" stroke="#63b8ff" d="M374.5,-164.75C374.5,-157.8 374.5,-147.85 374.5,-139.13"/>
<polygon fill="#63b8ff" stroke="#63b8ff" points="378,-139.09 374.5,-129.09 371,-139.09 378,-139.09"/>
</a>
</g>
</g>
<!-- Node9&#45;&gt;Node2 -->
<g id="edge10_Node000009_Node000002" class="edge">
<title>Node9&#45;&gt;Node2</title>
<g id="a_edge10_Node000009_Node000002"><a xlink:title=" ">
<path fill="none" stroke="#63b8ff" d="M237.52,-54.98C194.97,-46.81 129.08,-33.83 63.35,-19.35"/>
<polygon fill="#63b8ff" stroke="#63b8ff" points="63.75,-15.85 53.23,-17.11 62.23,-22.69 63.75,-15.85"/>
</a>
</g>
</g>
<!-- Node9&#45;&gt;Node5 -->
<g id="edge15_Node000009_Node000005" class="edge">
<title>Node9&#45;&gt;Node5</title>
<g id="a_edge15_Node000009_Node000005"><a xlink:title=" ">
<path fill="none" stroke="#63b8ff" d="M253.58,-54.98C223.23,-46.05 175.33,-31.94 141.62,-22.02"/>
<polygon fill="#63b8ff" stroke="#63b8ff" points="142.23,-18.55 131.65,-19.08 140.25,-25.26 142.23,-18.55"/>
</a>
</g>
</g>
<!-- Node9&#45;&gt;Node6 -->
<g id="edge14_Node000009_Node000006" class="edge">
<title>Node9&#45;&gt;Node6</title>
<g id="a_edge14_Node000009_Node000006"><a xlink:title=" ">
<path fill="none" stroke="#63b8ff" d="M269.65,-54.98C257.36,-46.84 238.59,-34.41 224.02,-24.76"/>
<polygon fill="#63b8ff" stroke="#63b8ff" points="225.86,-21.78 215.59,-19.17 221.99,-27.61 225.86,-21.78"/>
</a>
</g>
</g>
<!-- Node10 -->
<g id="Node000010" class="node">
<title>Node10</title>
<g id="a_Node000010"><a xlink:title=" ">
<polygon fill="#e0e0e0" stroke="#999999" points="633,-19 580,-19 580,0 633,0 633,-19"/>
<text text-anchor="middle" x="606.5" y="-7" font-family="Helvetica,sans-Serif" font-size="10.00">stdint.h</text>
</a>
</g>
</g>
<!-- Node9&#45;&gt;Node10 -->
<g id="edge9_Node000009_Node000010" class="edge">
<title>Node9&#45;&gt;Node10</title>
<g id="a_edge9_Node000009_Node000010"><a xlink:title=" ">
<path fill="none" stroke="#63b8ff" d="M334.11,-56.02C400.22,-46.37 512.19,-29.72 569.73,-18.98"/>
<polygon fill="#63b8ff" stroke="#63b8ff" points="570.65,-22.37 579.81,-17.05 569.33,-15.49 570.65,-22.37"/>
</a>
</g>
</g>
<!-- Node11 -->
<g id="Node000011" class="node">
<title>Node11</title>
<g id="a_Node000011"><a xlink:title=" ">
<polygon fill="#e0e0e0" stroke="#999999" points="340,-19 271,-19 271,0 340,0 340,-19"/>
<text text-anchor="middle" x="305.5" y="-7" font-family="Helvetica,sans-Serif" font-size="10.00">type_traits</text>
</a>
</g>
</g>
<!-- Node9&#45;&gt;Node11 -->
<g id="edge11_Node000009_Node000011" class="edge">
<title>Node9&#45;&gt;Node11</title>
<g id="a_edge11_Node000009_Node000011"><a xlink:title=" ">
<path fill="none" stroke="#63b8ff" d="M286.3,-54.75C289.41,-47.57 293.92,-37.18 297.79,-28.27"/>
<polygon fill="#63b8ff" stroke="#63b8ff" points="301,-29.66 301.77,-19.09 294.58,-26.87 301,-29.66"/>
</a>
</g>
</g>
<!-- Node12 -->
<g id="Node000012" class="node">
<title>Node12</title>
<g id="a_Node000012"><a xlink:title=" ">
<polygon fill="#e0e0e0" stroke="#999999" points="764,-19 651,-19 651,0 764,0 764,-19"/>
<text text-anchor="middle" x="707.5" y="-7" font-family="Helvetica,sans-Serif" font-size="10.00">freertos/FreeRTOS.h</text>
</a>
</g>
</g>
<!-- Node9&#45;&gt;Node12 -->
<g id="edge12_Node000009_Node000012" class="edge">
<title>Node9&#45;&gt;Node12</title>
<g id="a_edge12_Node000009_Node000012"><a xlink:title=" ">
<path fill="none" stroke="#63b8ff" d="M334.08,-56.25C337.26,-55.82 340.43,-55.4 343.5,-55 472.56,-38.21 507.43,-35.64 640.78,-19.08"/>
<polygon fill="#63b8ff" stroke="#63b8ff" points="641.49,-22.52 650.98,-17.81 640.62,-15.57 641.49,-22.52"/>
</a>
</g>
</g>
<!-- Node13 -->
<g id="Node000013" class="node">
<title>Node13</title>
<g id="a_Node000013"><a xlink:title=" ">
<polygon fill="#e0e0e0" stroke="#999999" points="461,-19 358,-19 358,0 461,0 461,-19"/>
<text text-anchor="middle" x="409.5" y="-7" font-family="Helvetica,sans-Serif" font-size="10.00">freertos/semphr.h</text>
</a>
</g>
</g>
<!-- Node9&#45;&gt;Node13 -->
<g id="edge13_Node000009_Node000013" class="edge">
<title>Node9&#45;&gt;Node13</title>
<g id="a_edge13_Node000009_Node000013"><a xlink:title=" ">
<path fill="none" stroke="#63b8ff" d="M302.9,-54.98C323.52,-46.38 355.61,-32.99 379.19,-23.15"/>
<polygon fill="#63b8ff" stroke="#63b8ff" points="380.84,-26.25 388.72,-19.17 378.15,-19.79 380.84,-26.25"/>
</a>
</g>
</g>
<!-- Node14 -->
<g id="Node000014" class="node">
<title>Node14</title>
<g id="a_Node000014"><a xlink:href="IManager_8hpp.html" target="_top" xlink:title="The abstract behavioral contract for all managers.">
<polygon fill="white" stroke="#666666" points="562,-19 479,-19 479,0 562,0 562,-19"/>
<text text-anchor="middle" x="520.5" y="-7" font-family="Helvetica,sans-Serif" font-size="10.00">IManager.hpp</text>
</a>
</g>
</g>
<!-- Node9&#45;&gt;Node14 -->
<g id="edge16_Node000009_Node000014" class="edge">
<title>Node9&#45;&gt;Node14</title>
<g id="a_edge16_Node000009_Node000014"><a xlink:title=" ">
<path fill="none" stroke="#63b8ff" d="M320.74,-54.98C361.91,-45.82 427.49,-31.21 472.2,-21.26"/>
<polygon fill="#63b8ff" stroke="#63b8ff" points="472.96,-24.67 481.96,-19.08 471.44,-17.84 472.96,-24.67"/>
</a>
</g>
</g>
<!-- Node15&#45;&gt;Node9 -->
<g id="edge23_Node000015_Node000009" class="edge">
<title>Node15&#45;&gt;Node9</title>
<g id="a_edge23_Node000015_Node000009"><a xlink:title=" ">
<path fill="none" stroke="#63b8ff" d="M359.72,-109.98C345.32,-101.69 323.19,-88.94 306.31,-79.22"/>
<polygon fill="#63b8ff" stroke="#63b8ff" points="307.96,-76.13 297.55,-74.17 304.47,-82.19 307.96,-76.13"/>
</a>
</g>
</g>
<!-- Node15&#45;&gt;Node10 -->
<g id="edge18_Node000015_Node000010" class="edge">
<title>Node15&#45;&gt;Node10</title>
<g id="a_edge18_Node000015_Node000010"><a xlink:title=" ">
<path fill="none" stroke="#63b8ff" d="M422.58,-110.7C487.97,-99.88 597.57,-80.85 603.5,-74 613.98,-61.88 613.54,-43.08 611.19,-29.08"/>
<polygon fill="#63b8ff" stroke="#63b8ff" points="614.57,-28.15 609.07,-19.1 607.73,-29.61 614.57,-28.15"/>
</a>
</g>
</g>
<!-- Node15&#45;&gt;Node12 -->
<g id="edge21_Node000015_Node000012" class="edge">
<title>Node15&#45;&gt;Node12</title>
<g id="a_edge21_Node000015_Node000012"><a xlink:title=" ">
<path fill="none" stroke="#63b8ff" d="M422.6,-111.09C489.49,-100.6 604.47,-81.83 622.5,-74 649.26,-62.38 675.45,-40.83 691.52,-26.09"/>
<polygon fill="#63b8ff" stroke="#63b8ff" points="694.08,-28.49 698.96,-19.09 689.28,-23.39 694.08,-28.49"/>
</a>
</g>
</g>
<!-- Node16 -->
<g id="Node000016" class="node">
<title>Node16</title>
<g id="a_Node000016"><a xlink:title=" ">
<polygon fill="#e0e0e0" stroke="#999999" points="408.5,-74 352.5,-74 352.5,-55 408.5,-55 408.5,-74"/>
<text text-anchor="middle" x="380.5" y="-62" font-family="Helvetica,sans-Serif" font-size="10.00">stddef.h</text>
</a>
</g>
</g>
<!-- Node15&#45;&gt;Node16 -->
<g id="edge19_Node000015_Node000016" class="edge">
<title>Node15&#45;&gt;Node16</title>
<g id="a_edge19_Node000015_Node000016"><a xlink:title=" ">
<path fill="none" stroke="#63b8ff" d="M375.49,-109.75C376.28,-102.8 377.4,-92.85 378.39,-84.13"/>
<polygon fill="#63b8ff" stroke="#63b8ff" points="381.88,-84.42 379.53,-74.09 374.92,-83.63 381.88,-84.42"/>
</a>
</g>
</g>
<!-- Node17 -->
<g id="Node000017" class="node">
<title>Node17</title>
<g id="a_Node000017"><a xlink:title=" ">
<polygon fill="#e0e0e0" stroke="#999999" points="488,-74 427,-74 427,-55 488,-55 488,-74"/>
<text text-anchor="middle" x="457.5" y="-62" font-family="Helvetica,sans-Serif" font-size="10.00">esp_err.h</text>
</a>
</g>
</g>
<!-- Node15&#45;&gt;Node17 -->
<g id="edge20_Node000015_Node000017" class="edge">
<title>Node15&#45;&gt;Node17</title>
<g id="a_edge20_Node000015_Node000017"><a xlink:title=" ">
<path fill="none" stroke="#63b8ff" d="M387.84,-109.98C400.59,-101.84 420.05,-89.41 435.17,-79.76"/>
<polygon fill="#63b8ff" stroke="#63b8ff" points="437.38,-82.5 443.92,-74.17 433.61,-76.6 437.38,-82.5"/>
</a>
</g>
</g>
<!-- Node18 -->
<g id="Node000018" class="node">
<title>Node18</title>
<g id="a_Node000018"><a xlink:title=" ">
<polygon fill="#e0e0e0" stroke="#999999" points="594.5,-74 506.5,-74 506.5,-55 594.5,-55 594.5,-74"/>
<text text-anchor="middle" x="550.5" y="-62" font-family="Helvetica,sans-Serif" font-size="10.00">freertos/task.h</text>
</a>
</g>
</g>
<!-- Node15&#45;&gt;Node18 -->
<g id="edge22_Node000015_Node000018" class="edge">
<title>Node15&#45;&gt;Node18</title>
<g id="a_edge22_Node000015_Node000018"><a xlink:title=" ">
<path fill="none" stroke="#63b8ff" d="M402.78,-109.98C432.45,-101.05 479.29,-86.94 512.25,-77.02"/>
<polygon fill="#63b8ff" stroke="#63b8ff" points="513.43,-80.32 522,-74.08 511.42,-73.61 513.43,-80.32"/>
</a>
</g>
</g>
</g>
</svg>
