<?xml version="1.0" encoding="UTF-8" standalone="no"?>
<!DOCTYPE svg PUBLIC "-//W3C//DTD SVG 1.1//EN"
 "http://www.w3.org/Graphics/SVG/1.1/DTD/svg11.dtd">
<!-- Generated by graphviz version 2.43.0 (0)
 -->
<!-- Title: main/ceo/managers/time/include/TimeManager.hpp Pages: 1 -->
<svg width="920pt" height="236pt"
 viewBox="0.00 0.00 919.52 236.00" xmlns="http://www.w3.org/2000/svg" xmlns:xlink="http://www.w3.org/1999/xlink">
<g id="graph0" class="graph" transform="scale(1 1) rotate(0) translate(4 232)">
<title>main/ceo/managers/time/include/TimeManager.hpp</title>
<!-- Node1 -->
<g id="Node000001" class="node">
<title>Node1</title>
<g id="a_Node000001"><a xlink:title="The biological clock and circadian rhythm (pacemaker) of the organism.">
<polygon fill="#999999" stroke="#666666" points="402.52,-228 256.52,-228 256.52,-198 402.52,-198 402.52,-228"/>
<text text-anchor="start" x="264.52" y="-216" font-family="Helvetica,sans-Serif" font-size="10.00">main/ceo/managers/time</text>
<text text-anchor="middle" x="329.52" y="-205" font-family="Helvetica,sans-Serif" font-size="10.00">/include/TimeManager.hpp</text>
</a>
</g>
</g>
<!-- Node2 -->
<g id="Node000002" class="node">
<title>Node2</title>
<g id="a_Node000002"><a xlink:href="CEO_8cpp.html" target="_top" xlink:title=" ">
<polygon fill="white" stroke="#666666" points="305.02,-24.5 200.02,-24.5 200.02,-5.5 305.02,-5.5 305.02,-24.5"/>
<text text-anchor="middle" x="252.52" y="-12.5" font-family="Helvetica,sans-Serif" font-size="10.00">main/ceo/CEO.cpp</text>
</a>
</g>
</g>
<!-- Node1&#45;&gt;Node2 -->
<g id="edge1_Node000001_Node000002" class="edge">
<title>Node1&#45;&gt;Node2</title>
<g id="a_edge1_Node000001_Node000002"><a xlink:title=" ">
<path fill="none" stroke="#63b8ff" d="M246.09,-210.91C161.12,-207.82 37.67,-197.19 7.52,-162 -7.07,-144.97 2.84,-82.41 18.52,-66 42.99,-40.4 138.66,-26.72 199.84,-20.44"/>
<polygon fill="#63b8ff" stroke="#63b8ff" points="246.15,-214.41 256.26,-211.25 246.38,-207.42 246.15,-214.41"/>
</a>
</g>
</g>
<!-- Node3 -->
<g id="Node000003" class="node">
<title>Node3</title>
<g id="a_Node000003"><a xlink:href="CommunicationManager_8hpp.html" target="_top" xlink:title="The external interface and vocal apparatus of the organism.">
<polygon fill="white" stroke="#666666" points="428.52,-162 230.52,-162 230.52,-132 428.52,-132 428.52,-162"/>
<text text-anchor="start" x="238.52" y="-150" font-family="Helvetica,sans-Serif" font-size="10.00">main/ceo/managers/communication</text>
<text text-anchor="middle" x="329.52" y="-139" font-family="Helvetica,sans-Serif" font-size="10.00">/include/CommunicationManager.hpp</text>
</a>
</g>
</g>
<!-- Node1&#45;&gt;Node3 -->
<g id="edge2_Node000001_Node000003" class="edge">
<title>Node1&#45;&gt;Node3</title>
<g id="a_edge2_Node000001_Node000003"><a xlink:title=" ">
<path fill="none" stroke="#63b8ff" d="M329.52,-187.54C329.52,-178.96 329.52,-169.61 329.52,-162.16"/>
<polygon fill="#63b8ff" stroke="#63b8ff" points="326.02,-187.8 329.52,-197.8 333.02,-187.8 326.02,-187.8"/>
</a>
</g>
</g>
<!-- Node7 -->
<g id="Node000007" class="node">
<title>Node7</title>
<g id="a_Node000007"><a xlink:href="StorageManager_8cpp.html" target="_top" xlink:title="Implementation of hybrid storage management according to AGX Rule.">
<polygon fill="white" stroke="#666666" points="190.02,-96 37.02,-96 37.02,-66 190.02,-66 190.02,-96"/>
<text text-anchor="start" x="45.02" y="-84" font-family="Helvetica,sans-Serif" font-size="10.00">main/ceo/managers/storage</text>
<text text-anchor="middle" x="113.52" y="-73" font-family="Helvetica,sans-Serif" font-size="10.00">/StorageManager.cpp</text>
</a>
</g>
</g>
<!-- Node1&#45;&gt;Node7 -->
<g id="edge9_Node000001_Node000007" class="edge">
<title>Node1&#45;&gt;Node7</title>
<g id="a_edge9_Node000001_Node000007"><a xlink:title=" ">
<path fill="none" stroke="#63b8ff" d="M284.01,-193.77C264.26,-185.14 241.19,-174.08 221.52,-162 203.18,-150.74 200.72,-144.92 183.52,-132 167.04,-119.62 147.99,-106.06 133.92,-96.19"/>
<polygon fill="#63b8ff" stroke="#63b8ff" points="282.85,-197.08 293.42,-197.8 285.61,-190.65 282.85,-197.08"/>
</a>
</g>
</g>
<!-- Node8 -->
<g id="Node000008" class="node">
<title>Node8</title>
<g id="a_Node000008"><a xlink:href="StorageManager_8hpp.html" target="_top" xlink:title="The long&#45;term memory and archivist (hippocampus) of the organism.">
<polygon fill="white" stroke="#666666" points="174.52,-162 16.52,-162 16.52,-132 174.52,-132 174.52,-162"/>
<text text-anchor="start" x="24.52" y="-150" font-family="Helvetica,sans-Serif" font-size="10.00">main/ceo/managers/storage</text>
<text text-anchor="middle" x="95.52" y="-139" font-family="Helvetica,sans-Serif" font-size="10.00">/include/StorageManager.hpp</text>
</a>
</g>
</g>
<!-- Node1&#45;&gt;Node8 -->
<g id="edge10_Node000001_Node000008" class="edge">
<title>Node1&#45;&gt;Node8</title>
<g id="a_edge10_Node000001_Node000008"><a xlink:title=" ">
<path fill="none" stroke="#63b8ff" d="M268.29,-195.25C230.48,-184.91 182.54,-171.8 146.75,-162.01"/>
<polygon fill="#63b8ff" stroke="#63b8ff" points="267.6,-198.69 278.17,-197.95 269.44,-191.94 267.6,-198.69"/>
</a>
</g>
</g>
<!-- Node9 -->
<g id="Node000009" class="node">
<title>Node9</title>
<g id="a_Node000009"><a xlink:href="TimeManager_8cpp.html" target="_top" xlink:title=" ">
<polygon fill="white" stroke="#666666" points="586.02,-162 447.02,-162 447.02,-132 586.02,-132 586.02,-162"/>
<text text-anchor="start" x="455.02" y="-150" font-family="Helvetica,sans-Serif" font-size="10.00">main/ceo/managers/time</text>
<text text-anchor="middle" x="516.52" y="-139" font-family="Helvetica,sans-Serif" font-size="10.00">/TimeManager.cpp</text>
</a>
</g>
</g>
<!-- Node1&#45;&gt;Node9 -->
<g id="edge13_Node000001_Node000009" class="edge">
<title>Node1&#45;&gt;Node9</title>
<g id="a_edge13_Node000001_Node000009"><a xlink:title=" ">
<path fill="none" stroke="#63b8ff" d="M380.39,-194.59C410.29,-184.36 447.59,-171.59 475.58,-162.01"/>
<polygon fill="#63b8ff" stroke="#63b8ff" points="378.88,-191.41 370.56,-197.95 381.15,-198.03 378.88,-191.41"/>
</a>
</g>
</g>
<!-- Node10 -->
<g id="Node000010" class="node">
<title>Node10</title>
<g id="a_Node000010"><a xlink:href="ToolBox_8cpp.html" target="_top" xlink:title=" ">
<polygon fill="white" stroke="#666666" points="729.02,-156.5 604.02,-156.5 604.02,-137.5 729.02,-137.5 729.02,-156.5"/>
<text text-anchor="middle" x="666.52" y="-144.5" font-family="Helvetica,sans-Serif" font-size="10.00">main/tool/ToolBox.cpp</text>
</a>
</g>
</g>
<!-- Node1&#45;&gt;Node10 -->
<g id="edge14_Node000001_Node000010" class="edge">
<title>Node1&#45;&gt;Node10</title>
<g id="a_edge14_Node000001_Node000010"><a xlink:title=" ">
<path fill="none" stroke="#63b8ff" d="M412.59,-196.58C465.07,-186.79 534.29,-173.79 595.52,-162 604.65,-160.24 614.43,-158.33 623.73,-156.5"/>
<polygon fill="#63b8ff" stroke="#63b8ff" points="411.84,-193.16 402.66,-198.43 413.13,-200.04 411.84,-193.16"/>
</a>
</g>
</g>
<!-- Node11 -->
<g id="Node000011" class="node">
<title>Node11</title>
<g id="a_Node000011"><a xlink:href="ToolBox_8hpp.html" target="_top" xlink:title="The metabolic support and universal toolkit of the organism.">
<polygon fill="white" stroke="#666666" points="911.52,-156.5 747.52,-156.5 747.52,-137.5 911.52,-137.5 911.52,-156.5"/>
<text text-anchor="middle" x="829.52" y="-144.5" font-family="Helvetica,sans-Serif" font-size="10.00">main/tool/include/ToolBox.hpp</text>
</a>
</g>
</g>
<!-- Node1&#45;&gt;Node11 -->
<g id="edge15_Node000001_Node000011" class="edge">
<title>Node1&#45;&gt;Node11</title>
<g id="a_edge15_Node000001_Node000011"><a xlink:title=" ">
<path fill="none" stroke="#63b8ff" d="M412.85,-202.58C495.57,-193.05 625.93,-177.54 738.52,-162 750.55,-160.34 763.46,-158.43 775.67,-156.57"/>
<polygon fill="#63b8ff" stroke="#63b8ff" points="412.29,-199.12 402.75,-203.74 413.09,-206.08 412.29,-199.12"/>
</a>
</g>
</g>
<!-- Node3&#45;&gt;Node2 -->
<g id="edge3_Node000003_Node000002" class="edge">
<title>Node3&#45;&gt;Node2</title>
<g id="a_edge3_Node000003_Node000002"><a xlink:title=" ">
<path fill="none" stroke="#63b8ff" d="M376.69,-127.11C389.66,-119.48 402.16,-109.27 409.52,-96 415.98,-84.34 417.39,-76.76 409.52,-66 385.8,-33.55 340.83,-21.66 305.07,-17.54"/>
<polygon fill="#63b8ff" stroke="#63b8ff" points="374.82,-124.15 367.7,-131.99 378.16,-130.3 374.82,-124.15"/>
</a>
</g>
</g>
<!-- Node4 -->
<g id="Node000004" class="node">
<title>Node4</title>
<g id="a_Node000004"><a xlink:href="ActuatorManager_8cpp.html" target="_top" xlink:title=" ">
<polygon fill="white" stroke="#666666" points="670.02,-30 513.02,-30 513.02,0 670.02,0 670.02,-30"/>
<text text-anchor="start" x="521.02" y="-18" font-family="Helvetica,sans-Serif" font-size="10.00">main/ceo/managers/actuator</text>
<text text-anchor="middle" x="591.52" y="-7" font-family="Helvetica,sans-Serif" font-size="10.00">/ActuatorManager.cpp</text>
</a>
</g>
</g>
<!-- Node3&#45;&gt;Node4 -->
<g id="edge4_Node000003_Node000004" class="edge">
<title>Node3&#45;&gt;Node4</title>
<g id="a_edge4_Node000003_Node000004"><a xlink:title=" ">
<path fill="none" stroke="#63b8ff" d="M438.56,-131.05C521.04,-119.21 621.2,-103.47 627.52,-96 644.34,-76.12 622.63,-47.1 606.35,-30.03"/>
<polygon fill="#63b8ff" stroke="#63b8ff" points="438,-127.59 428.6,-132.47 439,-134.52 438,-127.59"/>
</a>
</g>
</g>
<!-- Node5 -->
<g id="Node000005" class="node">
<title>Node5</title>
<g id="a_Node000005"><a xlink:href="ActuatorManager_8hpp.html" target="_top" xlink:title="Interface for all executive organs (limbs) of the organism.">
<polygon fill="white" stroke="#666666" points="618.52,-96 456.52,-96 456.52,-66 618.52,-66 618.52,-96"/>
<text text-anchor="start" x="464.52" y="-84" font-family="Helvetica,sans-Serif" font-size="10.00">main/ceo/managers/actuator</text>
<text text-anchor="middle" x="537.52" y="-73" font-family="Helvetica,sans-Serif" font-size="10.00">/include/ActuatorManager.hpp</text>
</a>
</g>
</g>
<!-- Node3&#45;&gt;Node5 -->
<g id="edge5_Node000003_Node000005" class="edge">
<title>Node3&#45;&gt;Node5</title>
<g id="a_edge5_Node000003_Node000005"><a xlink:title=" ">
<path fill="none" stroke="#63b8ff" d="M384.8,-128.99C418.27,-118.69 460.44,-105.72 491.98,-96.01"/>
<polygon fill="#63b8ff" stroke="#63b8ff" points="383.69,-125.67 375.16,-131.95 385.75,-132.36 383.69,-125.67"/>
</a>
</g>
</g>
<!-- Node6 -->
<g id="Node000006" class="node">
<title>Node6</title>
<g id="a_Node000006"><a xlink:href="CommunicationManager_8cpp.html" target="_top" xlink:title=" ">
<polygon fill="white" stroke="#666666" points="400.52,-96 208.52,-96 208.52,-66 400.52,-66 400.52,-96"/>
<text text-anchor="start" x="216.52" y="-84" font-family="Helvetica,sans-Serif" font-size="10.00">main/ceo/managers/communication</text>
<text text-anchor="middle" x="304.52" y="-73" font-family="Helvetica,sans-Serif" font-size="10.00">/CommunicationManager.cpp</text>
</a>
</g>
</g>
<!-- Node3&#45;&gt;Node6 -->
<g id="edge8_Node000003_Node000006" class="edge">
<title>Node3&#45;&gt;Node6</title>
<g id="a_edge8_Node000003_Node000006"><a xlink:title=" ">
<path fill="none" stroke="#63b8ff" d="M320.3,-122.39C316.86,-113.59 313.06,-103.86 310.05,-96.16"/>
<polygon fill="#63b8ff" stroke="#63b8ff" points="317.07,-123.76 323.97,-131.8 323.59,-121.21 317.07,-123.76"/>
</a>
</g>
</g>
<!-- Node5&#45;&gt;Node2 -->
<g id="edge6_Node000005_Node000002" class="edge">
<title>Node5&#45;&gt;Node2</title>
<g id="a_edge6_Node000005_Node000002"><a xlink:title=" ">
<path fill="none" stroke="#63b8ff" d="M465.17,-63.75C409.54,-51.26 334.89,-34.5 290.45,-24.52"/>
<polygon fill="#63b8ff" stroke="#63b8ff" points="464.45,-67.18 474.97,-65.95 465.98,-60.35 464.45,-67.18"/>
</a>
</g>
</g>
<!-- Node5&#45;&gt;Node4 -->
<g id="edge7_Node000005_Node000004" class="edge">
<title>Node5&#45;&gt;Node4</title>
<g id="a_edge7_Node000005_Node000004"><a xlink:title=" ">
<path fill="none" stroke="#63b8ff" d="M556.01,-58.09C563.8,-48.85 572.65,-38.36 579.57,-30.16"/>
<polygon fill="#63b8ff" stroke="#63b8ff" points="553.28,-55.9 549.5,-65.8 558.63,-60.41 553.28,-55.9"/>
</a>
</g>
</g>
<!-- Node8&#45;&gt;Node2 -->
<g id="edge11_Node000008_Node000002" class="edge">
<title>Node8&#45;&gt;Node2</title>
<g id="a_edge11_Node000008_Node000002"><a xlink:title=" ">
<path fill="none" stroke="#63b8ff" d="M60.21,-126.4C35.87,-110.37 10.68,-86.99 27.52,-66 48.71,-39.59 140.23,-26.24 199.82,-20.23"/>
<polygon fill="#63b8ff" stroke="#63b8ff" points="58.39,-129.39 68.72,-131.75 62.11,-123.47 58.39,-129.39"/>
</a>
</g>
</g>
<!-- Node8&#45;&gt;Node7 -->
<g id="edge12_Node000008_Node000007" class="edge">
<title>Node8&#45;&gt;Node7</title>
<g id="a_edge12_Node000008_Node000007"><a xlink:title=" ">
<path fill="none" stroke="#63b8ff" d="M102.24,-122.11C104.69,-113.38 107.39,-103.78 109.53,-96.16"/>
<polygon fill="#63b8ff" stroke="#63b8ff" points="98.85,-121.22 99.51,-131.8 105.59,-123.12 98.85,-121.22"/>
</a>
</g>
</g>
</g>
</svg>
