<?xml version="1.0" encoding="UTF-8" standalone="no"?>
<!DOCTYPE svg PUBLIC "-//W3C//DTD SVG 1.1//EN"
 "http://www.w3.org/Graphics/SVG/1.1/DTD/svg11.dtd">
<!-- Generated by graphviz version 2.43.0 (0)
 -->
<!-- Title: main/ceo/managers/time/include/TimeManager.hpp Pages: 1 -->
<svg width="1098pt" height="313pt"
 viewBox="0.00 0.00 1097.50 313.00" xmlns="http://www.w3.org/2000/svg" xmlns:xlink="http://www.w3.org/1999/xlink">
<g id="graph0" class="graph" transform="scale(1 1) rotate(0) translate(4 309)">
<title>main/ceo/managers/time/include/TimeManager.hpp</title>
<!-- Node1 -->
<g id="Node000001" class="node">
<title>Node1</title>
<g id="a_Node000001"><a xlink:title="The biological clock and circadian rhythm (pacemaker) of the organism.">
<polygon fill="#999999" stroke="#666666" points="466,-305 320,-305 320,-275 466,-275 466,-305"/>
<text text-anchor="start" x="328" y="-293" font-family="Helvetica,sans-Serif" font-size="10.00">main/ceo/managers/time</text>
<text text-anchor="middle" x="393" y="-282" font-family="Helvetica,sans-Serif" font-size="10.00">/include/TimeManager.hpp</text>
</a>
</g>
</g>
<!-- Node2 -->
<g id="Node000002" class="node">
<title>Node2</title>
<g id="a_Node000002"><a xlink:title=" ">
<polygon fill="#e0e0e0" stroke="#999999" points="429,-184 381,-184 381,-165 429,-165 429,-184"/>
<text text-anchor="middle" x="405" y="-172" font-family="Helvetica,sans-Serif" font-size="10.00">time.h</text>
</a>
</g>
</g>
<!-- Node1&#45;&gt;Node2 -->
<g id="edge1_Node000001_Node000002" class="edge">
<title>Node1&#45;&gt;Node2</title>
<g id="a_edge1_Node000001_Node000002"><a xlink:title=" ">
<path fill="none" stroke="#63b8ff" d="M394.52,-274.63C396.68,-254.21 400.63,-216.81 403.02,-194.24"/>
<polygon fill="#63b8ff" stroke="#63b8ff" points="406.51,-194.54 404.08,-184.23 399.54,-193.81 406.51,-194.54"/>
</a>
</g>
</g>
<!-- Node3 -->
<g id="Node000003" class="node">
<title>Node3</title>
<g id="a_Node000003"><a xlink:title=" ">
<polygon fill="#e0e0e0" stroke="#999999" points="612.5,-19 559.5,-19 559.5,0 612.5,0 612.5,-19"/>
<text text-anchor="middle" x="586" y="-7" font-family="Helvetica,sans-Serif" font-size="10.00">stdint.h</text>
</a>
</g>
</g>
<!-- Node1&#45;&gt;Node3 -->
<g id="edge2_Node000001_Node000003" class="edge">
<title>Node1&#45;&gt;Node3</title>
<g id="a_edge2_Node000001_Node000003"><a xlink:title=" ">
<path fill="none" stroke="#63b8ff" d="M377.08,-274.74C360.85,-260.41 334.75,-237.94 311,-220 214.61,-147.18 13.01,-143.72 95,-55 127.88,-19.42 466.74,-26.25 549.11,-18.67"/>
<polygon fill="#63b8ff" stroke="#63b8ff" points="549.83,-22.11 559.34,-17.44 548.99,-15.16 549.83,-22.11"/>
</a>
</g>
</g>
<!-- Node4 -->
<g id="Node000004" class="node">
<title>Node4</title>
<g id="a_Node000004"><a xlink:title=" ">
<polygon fill="#e0e0e0" stroke="#999999" points="159,-239 97,-239 97,-220 159,-220 159,-239"/>
<text text-anchor="middle" x="128" y="-227" font-family="Helvetica,sans-Serif" font-size="10.00">stdbool.h</text>
</a>
</g>
</g>
<!-- Node1&#45;&gt;Node4 -->
<g id="edge3_Node000001_Node000004" class="edge">
<title>Node1&#45;&gt;Node4</title>
<g id="a_edge3_Node000001_Node000004"><a xlink:title=" ">
<path fill="none" stroke="#63b8ff" d="M329.53,-274.99C279.77,-264 212,-249.04 169.12,-239.58"/>
<polygon fill="#63b8ff" stroke="#63b8ff" points="169.83,-236.15 159.31,-237.41 168.32,-242.98 169.83,-236.15"/>
</a>
</g>
</g>
<!-- Node5 -->
<g id="Node000005" class="node">
<title>Node5</title>
<g id="a_Node000005"><a xlink:title=" ">
<polygon fill="#e0e0e0" stroke="#999999" points="219,-239 177,-239 177,-220 219,-220 219,-239"/>
<text text-anchor="middle" x="198" y="-227" font-family="Helvetica,sans-Serif" font-size="10.00">array</text>
</a>
</g>
</g>
<!-- Node1&#45;&gt;Node5 -->
<g id="edge4_Node000001_Node000005" class="edge">
<title>Node1&#45;&gt;Node5</title>
<g id="a_edge4_Node000001_Node000005"><a xlink:title=" ">
<path fill="none" stroke="#63b8ff" d="M346.29,-274.99C309.89,-264.07 260.39,-249.22 228.81,-239.74"/>
<polygon fill="#63b8ff" stroke="#63b8ff" points="229.81,-236.39 219.23,-236.87 227.8,-243.09 229.81,-236.39"/>
</a>
</g>
</g>
<!-- Node6 -->
<g id="Node000006" class="node">
<title>Node6</title>
<g id="a_Node000006"><a xlink:title=" ">
<polygon fill="#e0e0e0" stroke="#999999" points="302.5,-239 237.5,-239 237.5,-220 302.5,-220 302.5,-239"/>
<text text-anchor="middle" x="270" y="-227" font-family="Helvetica,sans-Serif" font-size="10.00">functional</text>
</a>
</g>
</g>
<!-- Node1&#45;&gt;Node6 -->
<g id="edge5_Node000001_Node000006" class="edge">
<title>Node1&#45;&gt;Node6</title>
<g id="a_edge5_Node000001_Node000006"><a xlink:title=" ">
<path fill="none" stroke="#63b8ff" d="M363.54,-274.99C343.38,-265.4 316.86,-252.79 297.2,-243.44"/>
<polygon fill="#63b8ff" stroke="#63b8ff" points="298.7,-240.27 288.16,-239.14 295.69,-246.6 298.7,-240.27"/>
</a>
</g>
</g>
<!-- Node7 -->
<g id="Node000007" class="node">
<title>Node7</title>
<g id="a_Node000007"><a xlink:title=" ">
<polygon fill="#e0e0e0" stroke="#999999" points="617.5,-74 556.5,-74 556.5,-55 617.5,-55 617.5,-74"/>
<text text-anchor="middle" x="587" y="-62" font-family="Helvetica,sans-Serif" font-size="10.00">esp_err.h</text>
</a>
</g>
</g>
<!-- Node1&#45;&gt;Node7 -->
<g id="edge6_Node000001_Node000007" class="edge">
<title>Node1&#45;&gt;Node7</title>
<g id="a_edge6_Node000001_Node000007"><a xlink:title=" ">
<path fill="none" stroke="#63b8ff" d="M466.26,-281.03C500.55,-274.3 540.27,-261.89 570,-239 614.99,-204.35 620.03,-183.78 635,-129 637.23,-120.85 638.38,-117.74 635,-110 629.73,-97.92 619.37,-87.65 609.63,-80.03"/>
<polygon fill="#63b8ff" stroke="#63b8ff" points="611.52,-77.07 601.37,-74.04 607.41,-82.74 611.52,-77.07"/>
</a>
</g>
</g>
<!-- Node8 -->
<g id="Node000008" class="node">
<title>Node8</title>
<g id="a_Node000008"><a xlink:title=" ">
<polygon fill="#e0e0e0" stroke="#999999" points="420.5,-19 307.5,-19 307.5,0 420.5,0 420.5,-19"/>
<text text-anchor="middle" x="364" y="-7" font-family="Helvetica,sans-Serif" font-size="10.00">freertos/FreeRTOS.h</text>
</a>
</g>
</g>
<!-- Node1&#45;&gt;Node8 -->
<g id="edge7_Node000001_Node000008" class="edge">
<title>Node1&#45;&gt;Node8</title>
<g id="a_edge7_Node000001_Node000008"><a xlink:title=" ">
<path fill="none" stroke="#63b8ff" d="M319.65,-287.75C225.34,-284.71 68.39,-274.32 24,-239 0.39,-220.22 0,-205.67 0,-175.5 0,-175.5 0,-175.5 0,-118.5 0,-88.33 0.35,-73.73 24,-55 65.08,-22.47 210.42,-13.64 297.22,-11.29"/>
<polygon fill="#63b8ff" stroke="#63b8ff" points="297.33,-14.79 307.24,-11.04 297.16,-7.79 297.33,-14.79"/>
</a>
</g>
</g>
<!-- Node9 -->
<g id="Node000009" class="node">
<title>Node9</title>
<g id="a_Node000009"><a xlink:title=" ">
<polygon fill="#e0e0e0" stroke="#999999" points="541.5,-19 438.5,-19 438.5,0 541.5,0 541.5,-19"/>
<text text-anchor="middle" x="490" y="-7" font-family="Helvetica,sans-Serif" font-size="10.00">freertos/semphr.h</text>
</a>
</g>
</g>
<!-- Node1&#45;&gt;Node9 -->
<g id="edge8_Node000001_Node000009" class="edge">
<title>Node1&#45;&gt;Node9</title>
<g id="a_edge8_Node000001_Node000009"><a xlink:title=" ">
<path fill="none" stroke="#63b8ff" d="M319.94,-283.13C242.51,-275.85 126.24,-261.57 88,-239 57.06,-220.74 38,-211.42 38,-175.5 38,-175.5 38,-175.5 38,-118.5 38,-88.33 38.05,-73.35 62,-55 124.77,-6.92 332.31,-27.1 428.39,-18.85"/>
<polygon fill="#63b8ff" stroke="#63b8ff" points="428.84,-22.33 438.43,-17.84 428.13,-15.36 428.84,-22.33"/>
</a>
</g>
</g>
<!-- Node10 -->
<g id="Node000010" class="node">
<title>Node10</title>
<g id="a_Node000010"><a xlink:href="IManager_8hpp.html" target="_top" xlink:title="The abstract behavioral contract for all managers.">
<polygon fill="white" stroke="#666666" points="1089.5,-19 1006.5,-19 1006.5,0 1089.5,0 1089.5,-19"/>
<text text-anchor="middle" x="1048" y="-7" font-family="Helvetica,sans-Serif" font-size="10.00">IManager.hpp</text>
</a>
</g>
</g>
<!-- Node1&#45;&gt;Node10 -->
<g id="edge9_Node000001_Node000010" class="edge">
<title>Node1&#45;&gt;Node10</title>
<g id="a_edge9_Node000001_Node000010"><a xlink:title=" ">
<path fill="none" stroke="#63b8ff" d="M466.23,-283.9C637.15,-271.03 1048,-234 1048,-175.5 1048,-175.5 1048,-175.5 1048,-118.5 1048,-87.19 1048,-50.77 1048,-29.23"/>
<polygon fill="#63b8ff" stroke="#63b8ff" points="1051.5,-29.18 1048,-19.18 1044.5,-29.18 1051.5,-29.18"/>
</a>
</g>
</g>
<!-- Node11 -->
<g id="Node000011" class="node">
<title>Node11</title>
<g id="a_Node000011"><a xlink:href="DataManager_8hpp.html" target="_top" xlink:title="The collective consciousness and unified system state mirror.">
<polygon fill="white" stroke="#666666" points="981.5,-74 878.5,-74 878.5,-55 981.5,-55 981.5,-74"/>
<text text-anchor="middle" x="930" y="-62" font-family="Helvetica,sans-Serif" font-size="10.00">DataManager.hpp</text>
</a>
</g>
</g>
<!-- Node1&#45;&gt;Node11 -->
<g id="edge10_Node000001_Node000011" class="edge">
<title>Node1&#45;&gt;Node11</title>
<g id="a_edge10_Node000001_Node000011"><a xlink:title=" ">
<path fill="none" stroke="#63b8ff" d="M466.26,-283.58C553.6,-276.24 693.71,-261.42 741,-239 820.77,-201.18 890.31,-117.92 917.65,-82.25"/>
<polygon fill="#63b8ff" stroke="#63b8ff" points="920.44,-84.36 923.67,-74.27 914.85,-80.15 920.44,-84.36"/>
</a>
</g>
</g>
<!-- Node16 -->
<g id="Node000016" class="node">
<title>Node16</title>
<g id="a_Node000016"><a xlink:href="ITimeSource_8hpp.html" target="_top" xlink:title="The abstract behavioral contract for all temporal reference organs.">
<polygon fill="white" stroke="#666666" points="561,-239 463,-239 463,-220 561,-220 561,-239"/>
<text text-anchor="middle" x="512" y="-227" font-family="Helvetica,sans-Serif" font-size="10.00">ITimeSource.hpp</text>
</a>
</g>
</g>
<!-- Node1&#45;&gt;Node16 -->
<g id="edge19_Node000001_Node000016" class="edge">
<title>Node1&#45;&gt;Node16</title>
<g id="a_edge19_Node000001_Node000016"><a xlink:title=" ">
<path fill="none" stroke="#63b8ff" d="M421.5,-274.99C440.91,-265.45 466.43,-252.9 485.42,-243.57"/>
<polygon fill="#63b8ff" stroke="#63b8ff" points="487,-246.69 494.43,-239.14 483.91,-240.41 487,-246.69"/>
</a>
</g>
</g>
<!-- Node21 -->
<g id="Node000021" class="node">
<title>Node21</title>
<g id="a_Node000021"><a xlink:href="I2CBus_8hpp.html" target="_top" xlink:title="Industrial I2C Master bus driver with health monitoring.">
<polygon fill="white" stroke="#666666" points="780.5,-129 709.5,-129 709.5,-110 780.5,-110 780.5,-129"/>
<text text-anchor="middle" x="745" y="-117" font-family="Helvetica,sans-Serif" font-size="10.00">I2CBus.hpp</text>
</a>
</g>
</g>
<!-- Node1&#45;&gt;Node21 -->
<g id="edge51_Node000001_Node000021" class="edge">
<title>Node1&#45;&gt;Node21</title>
<g id="a_edge51_Node000001_Node000021"><a xlink:title=" ">
<path fill="none" stroke="#63b8ff" d="M466.05,-287.34C551.36,-283.83 685.39,-272.92 721,-239 748.14,-213.15 749.1,-165.7 747.19,-139.37"/>
<polygon fill="#63b8ff" stroke="#63b8ff" points="750.65,-138.83 746.23,-129.2 743.69,-139.49 750.65,-138.83"/>
</a>
</g>
</g>
<!-- Node11&#45;&gt;Node3 -->
<g id="edge11_Node000011_Node000003" class="edge">
<title>Node11&#45;&gt;Node3</title>
<g id="a_edge11_Node000011_Node000003"><a xlink:title=" ">
<path fill="none" stroke="#63b8ff" d="M878.39,-55.64C820.39,-46.8 723.43,-31.97 640,-19 634.43,-18.13 628.54,-17.21 622.78,-16.31"/>
<polygon fill="#63b8ff" stroke="#63b8ff" points="623.06,-12.81 612.64,-14.71 621.97,-19.73 623.06,-12.81"/>
</a>
</g>
</g>
<!-- Node11&#45;&gt;Node8 -->
<g id="edge14_Node000011_Node000008" class="edge">
<title>Node11&#45;&gt;Node8</title>
<g id="a_edge14_Node000011_Node000008"><a xlink:title=" ">
<path fill="none" stroke="#63b8ff" d="M878.44,-56.11C875.25,-55.71 872.08,-55.34 869,-55 677.22,-33.81 625.81,-39.53 430.71,-19.13"/>
<polygon fill="#63b8ff" stroke="#63b8ff" points="431.01,-15.65 420.7,-18.08 430.28,-22.61 431.01,-15.65"/>
</a>
</g>
</g>
<!-- Node11&#45;&gt;Node9 -->
<g id="edge15_Node000011_Node000009" class="edge">
<title>Node11&#45;&gt;Node9</title>
<g id="a_edge15_Node000011_Node000009"><a xlink:title=" ">
<path fill="none" stroke="#63b8ff" d="M878.43,-56.22C875.24,-55.8 872.08,-55.39 869,-55 731.05,-37.58 693.78,-36.84 551.55,-19.04"/>
<polygon fill="#63b8ff" stroke="#63b8ff" points="551.93,-15.56 541.57,-17.78 551.06,-22.5 551.93,-15.56"/>
</a>
</g>
</g>
<!-- Node11&#45;&gt;Node10 -->
<g id="edge18_Node000011_Node000010" class="edge">
<title>Node11&#45;&gt;Node10</title>
<g id="a_edge18_Node000011_Node000010"><a xlink:title=" ">
<path fill="none" stroke="#63b8ff" d="M948.96,-54.98C968.03,-46.42 997.66,-33.11 1019.55,-23.28"/>
<polygon fill="#63b8ff" stroke="#63b8ff" points="1021.01,-26.46 1028.7,-19.17 1018.14,-20.07 1021.01,-26.46"/>
</a>
</g>
</g>
<!-- Node12 -->
<g id="Node000012" class="node">
<title>Node12</title>
<g id="a_Node000012"><a xlink:title=" ">
<polygon fill="#e0e0e0" stroke="#999999" points="901.5,-19 848.5,-19 848.5,0 901.5,0 901.5,-19"/>
<text text-anchor="middle" x="875" y="-7" font-family="Helvetica,sans-Serif" font-size="10.00">string.h</text>
</a>
</g>
</g>
<!-- Node11&#45;&gt;Node12 -->
<g id="edge12_Node000011_Node000012" class="edge">
<title>Node11&#45;&gt;Node12</title>
<g id="a_edge12_Node000011_Node000012"><a xlink:title=" ">
<path fill="none" stroke="#63b8ff" d="M920.92,-54.75C912.91,-47.03 901.04,-35.6 891.38,-26.28"/>
<polygon fill="#63b8ff" stroke="#63b8ff" points="893.54,-23.51 883.91,-19.09 888.69,-28.55 893.54,-23.51"/>
</a>
</g>
</g>
<!-- Node13 -->
<g id="Node000013" class="node">
<title>Node13</title>
<g id="a_Node000013"><a xlink:title=" ">
<polygon fill="#e0e0e0" stroke="#999999" points="988.5,-19 919.5,-19 919.5,0 988.5,0 988.5,-19"/>
<text text-anchor="middle" x="954" y="-7" font-family="Helvetica,sans-Serif" font-size="10.00">type_traits</text>
</a>
</g>
</g>
<!-- Node11&#45;&gt;Node13 -->
<g id="edge13_Node000011_Node000013" class="edge">
<title>Node11&#45;&gt;Node13</title>
<g id="a_edge13_Node000011_Node000013"><a xlink:title=" ">
<path fill="none" stroke="#63b8ff" d="M933.96,-54.75C937.21,-47.57 941.92,-37.18 945.95,-28.27"/>
<polygon fill="#63b8ff" stroke="#63b8ff" points="949.17,-29.64 950.11,-19.09 942.8,-26.75 949.17,-29.64"/>
</a>
</g>
</g>
<!-- Node14 -->
<g id="Node000014" class="node">
<title>Node14</title>
<g id="a_Node000014"><a xlink:title=" ">
<polygon fill="#e0e0e0" stroke="#999999" points="749,-19 649,-19 649,0 749,0 749,-19"/>
<text text-anchor="middle" x="699" y="-7" font-family="Helvetica,sans-Serif" font-size="10.00">esp_heap_caps.h</text>
</a>
</g>
</g>
<!-- Node11&#45;&gt;Node14 -->
<g id="edge16_Node000011_Node000014" class="edge">
<title>Node11&#45;&gt;Node14</title>
<g id="a_edge16_Node000011_Node000014"><a xlink:title=" ">
<path fill="none" stroke="#63b8ff" d="M892.89,-54.98C853.01,-45.84 789.54,-31.27 746.16,-21.32"/>
<polygon fill="#63b8ff" stroke="#63b8ff" points="746.93,-17.91 736.41,-19.08 745.37,-24.73 746.93,-17.91"/>
</a>
</g>
</g>
<!-- Node15 -->
<g id="Node000015" class="node">
<title>Node15</title>
<g id="a_Node000015"><a xlink:title=" ">
<polygon fill="#e0e0e0" stroke="#999999" points="830.5,-19 767.5,-19 767.5,0 830.5,0 830.5,-19"/>
<text text-anchor="middle" x="799" y="-7" font-family="Helvetica,sans-Serif" font-size="10.00">esp_log.h</text>
</a>
</g>
</g>
<!-- Node11&#45;&gt;Node15 -->
<g id="edge17_Node000011_Node000015" class="edge">
<title>Node11&#45;&gt;Node15</title>
<g id="a_edge17_Node000011_Node000015"><a xlink:title=" ">
<path fill="none" stroke="#63b8ff" d="M908.95,-54.98C887.59,-46.34 854.3,-32.87 829.94,-23.02"/>
<polygon fill="#63b8ff" stroke="#63b8ff" points="831.01,-19.68 820.43,-19.17 828.39,-26.17 831.01,-19.68"/>
</a>
</g>
</g>
<!-- Node16&#45;&gt;Node2 -->
<g id="edge20_Node000016_Node000002" class="edge">
<title>Node16&#45;&gt;Node2</title>
<g id="a_edge20_Node000016_Node000002"><a xlink:title=" ">
<path fill="none" stroke="#63b8ff" d="M494.81,-219.98C477.75,-211.54 451.37,-198.47 431.6,-188.68"/>
<polygon fill="#63b8ff" stroke="#63b8ff" points="433.02,-185.47 422.5,-184.17 429.91,-191.75 433.02,-185.47"/>
</a>
</g>
</g>
<!-- Node16&#45;&gt;Node7 -->
<g id="edge21_Node000016_Node000007" class="edge">
<title>Node16&#45;&gt;Node7</title>
<g id="a_edge21_Node000016_Node000007"><a xlink:title=" ">
<path fill="none" stroke="#63b8ff" d="M528.51,-219.97C554.47,-205.44 603.69,-173.13 621,-129 627.59,-112.19 615.94,-94.15 604.52,-81.6"/>
<polygon fill="#63b8ff" stroke="#63b8ff" points="606.75,-78.89 597.24,-74.23 601.77,-83.8 606.75,-78.89"/>
</a>
</g>
</g>
<!-- Node16&#45;&gt;Node11 -->
<g id="edge22_Node000016_Node000011" class="edge">
<title>Node16&#45;&gt;Node11</title>
<g id="a_edge22_Node000016_Node000011"><a xlink:title=" ">
<path fill="none" stroke="#63b8ff" d="M548.09,-219.89C607.24,-205.15 727.88,-172.41 824,-129 855.17,-114.92 888.62,-93.76 909.43,-79.79"/>
<polygon fill="#63b8ff" stroke="#63b8ff" points="911.48,-82.62 917.79,-74.1 907.55,-76.83 911.48,-82.62"/>
</a>
</g>
</g>
<!-- Node17 -->
<g id="Node000017" class="node">
<title>Node17</title>
<g id="a_Node000017"><a xlink:href="BusManager_8hpp.html" target="_top" xlink:title="The peripheral nervous system managing all communication pathways.">
<polygon fill="white" stroke="#666666" points="561,-184 463,-184 463,-165 561,-165 561,-184"/>
<text text-anchor="middle" x="512" y="-172" font-family="Helvetica,sans-Serif" font-size="10.00">BusManager.hpp</text>
</a>
</g>
</g>
<!-- Node16&#45;&gt;Node17 -->
<g id="edge23_Node000016_Node000017" class="edge">
<title>Node16&#45;&gt;Node17</title>
<g id="a_edge23_Node000016_Node000017"><a xlink:title=" ">
<path fill="none" stroke="#63b8ff" d="M512,-219.75C512,-212.8 512,-202.85 512,-194.13"/>
<polygon fill="#63b8ff" stroke="#63b8ff" points="515.5,-194.09 512,-184.09 508.5,-194.09 515.5,-194.09"/>
</a>
</g>
</g>
<!-- Node17&#45;&gt;Node7 -->
<g id="edge24_Node000017_Node000007" class="edge">
<title>Node17&#45;&gt;Node7</title>
<g id="a_edge24_Node000017_Node000007"><a xlink:title=" ">
<path fill="none" stroke="#63b8ff" d="M513.15,-164.58C515.16,-151.6 520.29,-127.2 532,-110 540.18,-97.98 552.56,-87.57 563.5,-79.84"/>
<polygon fill="#63b8ff" stroke="#63b8ff" points="565.49,-82.71 571.85,-74.24 561.6,-76.9 565.49,-82.71"/>
</a>
</g>
</g>
<!-- Node17&#45;&gt;Node10 -->
<g id="edge28_Node000017_Node000010" class="edge">
<title>Node17&#45;&gt;Node10</title>
<g id="a_edge28_Node000017_Node000010"><a xlink:title=" ">
<path fill="none" stroke="#63b8ff" d="M561.13,-169.2C623.02,-163.16 732.37,-150.45 824,-129 900.09,-111.19 925.58,-116.74 991,-74 1009.72,-61.77 1026.18,-41.89 1036.54,-27.63"/>
<polygon fill="#63b8ff" stroke="#63b8ff" points="1039.56,-29.41 1042.43,-19.21 1033.83,-25.4 1039.56,-29.41"/>
</a>
</g>
</g>
<!-- Node17&#45;&gt;Node11 -->
<g id="edge29_Node000017_Node000011" class="edge">
<title>Node17&#45;&gt;Node11</title>
<g id="a_edge29_Node000017_Node000011"><a xlink:title=" ">
<path fill="none" stroke="#63b8ff" d="M561.1,-169.63C617.35,-164.29 711.83,-152.52 790,-129 801.41,-125.57 865,-96.04 902.44,-78.48"/>
<polygon fill="#63b8ff" stroke="#63b8ff" points="904.23,-81.5 911.79,-74.09 901.26,-75.17 904.23,-81.5"/>
</a>
</g>
</g>
<!-- Node18 -->
<g id="Node000018" class="node">
<title>Node18</title>
<g id="a_Node000018"><a xlink:title=" ">
<polygon fill="#e0e0e0" stroke="#999999" points="611.5,-129 540.5,-129 540.5,-110 611.5,-110 611.5,-129"/>
<text text-anchor="middle" x="576" y="-117" font-family="Helvetica,sans-Serif" font-size="10.00">driver/i2c.h</text>
</a>
</g>
</g>
<!-- Node17&#45;&gt;Node18 -->
<g id="edge25_Node000017_Node000018" class="edge">
<title>Node17&#45;&gt;Node18</title>
<g id="a_edge25_Node000017_Node000018"><a xlink:title=" ">
<path fill="none" stroke="#63b8ff" d="M522.28,-164.98C531.84,-157.07 546.28,-145.11 557.78,-135.58"/>
<polygon fill="#63b8ff" stroke="#63b8ff" points="560.06,-138.24 565.53,-129.17 555.6,-132.85 560.06,-138.24"/>
</a>
</g>
</g>
<!-- Node19 -->
<g id="Node000019" class="node">
<title>Node19</title>
<g id="a_Node000019"><a xlink:title=" ">
<polygon fill="#e0e0e0" stroke="#999999" points="424,-74 314,-74 314,-55 424,-55 424,-74"/>
<text text-anchor="middle" x="369" y="-62" font-family="Helvetica,sans-Serif" font-size="10.00">driver/spi_master.h</text>
</a>
</g>
</g>
<!-- Node17&#45;&gt;Node19 -->
<g id="edge26_Node000017_Node000019" class="edge">
<title>Node17&#45;&gt;Node19</title>
<g id="a_edge26_Node000017_Node000019"><a xlink:title=" ">
<path fill="none" stroke="#63b8ff" d="M473.9,-164.93C451.18,-158.24 422.97,-146.99 403,-129 389.38,-116.73 380.21,-97.68 374.86,-83.65"/>
<polygon fill="#63b8ff" stroke="#63b8ff" points="378.12,-82.36 371.5,-74.09 371.51,-84.68 378.12,-82.36"/>
</a>
</g>
</g>
<!-- Node20 -->
<g id="Node000020" class="node">
<title>Node20</title>
<g id="a_Node000020"><a xlink:title=" ">
<polygon fill="#e0e0e0" stroke="#999999" points="181.5,-74 104.5,-74 104.5,-55 181.5,-55 181.5,-74"/>
<text text-anchor="middle" x="143" y="-62" font-family="Helvetica,sans-Serif" font-size="10.00">driver/uart.h</text>
</a>
</g>
</g>
<!-- Node17&#45;&gt;Node20 -->
<g id="edge27_Node000017_Node000020" class="edge">
<title>Node17&#45;&gt;Node20</title>
<g id="a_edge27_Node000017_Node000020"><a xlink:title=" ">
<path fill="none" stroke="#63b8ff" d="M462.8,-166.76C389.16,-156.48 256.65,-137.24 236,-129 206.97,-117.42 177.94,-95.55 160.22,-80.75"/>
<polygon fill="#63b8ff" stroke="#63b8ff" points="162.36,-77.97 152.48,-74.13 157.8,-83.29 162.36,-77.97"/>
</a>
</g>
</g>
<!-- Node17&#45;&gt;Node21 -->
<g id="edge30_Node000017_Node000021" class="edge">
<title>Node17&#45;&gt;Node21</title>
<g id="a_edge30_Node000017_Node000021"><a xlink:title=" ">
<path fill="none" stroke="#63b8ff" d="M549.44,-164.98C590.25,-155.7 655.58,-140.84 699.37,-130.88"/>
<polygon fill="#63b8ff" stroke="#63b8ff" points="700.21,-134.28 709.19,-128.65 698.66,-127.45 700.21,-134.28"/>
</a>
</g>
</g>
<!-- Node23 -->
<g id="Node000023" class="node">
<title>Node23</title>
<g id="a_Node000023"><a xlink:href="SPIBus_8hpp.html" target="_top" xlink:title="Industrial SPI Master bus driver with health monitoring.">
<polygon fill="white" stroke="#666666" points="483.5,-129 412.5,-129 412.5,-110 483.5,-110 483.5,-129"/>
<text text-anchor="middle" x="448" y="-117" font-family="Helvetica,sans-Serif" font-size="10.00">SPIBus.hpp</text>
</a>
</g>
</g>
<!-- Node17&#45;&gt;Node23 -->
<g id="edge37_Node000017_Node000023" class="edge">
<title>Node17&#45;&gt;Node23</title>
<g id="a_edge37_Node000017_Node000023"><a xlink:title=" ">
<path fill="none" stroke="#63b8ff" d="M501.72,-164.98C492.16,-157.07 477.72,-145.11 466.22,-135.58"/>
<polygon fill="#63b8ff" stroke="#63b8ff" points="468.4,-132.85 458.47,-129.17 463.94,-138.24 468.4,-132.85"/>
</a>
</g>
</g>
<!-- Node24 -->
<g id="Node000024" class="node">
<title>Node24</title>
<g id="a_Node000024"><a xlink:href="UARTBus_8hpp.html" target="_top" xlink:title="Industrial UART bus driver with health monitoring.">
<polygon fill="white" stroke="#666666" points="327,-129 245,-129 245,-110 327,-110 327,-129"/>
<text text-anchor="middle" x="286" y="-117" font-family="Helvetica,sans-Serif" font-size="10.00">UARTBus.hpp</text>
</a>
</g>
</g>
<!-- Node17&#45;&gt;Node24 -->
<g id="edge44_Node000017_Node000024" class="edge">
<title>Node17&#45;&gt;Node24</title>
<g id="a_edge44_Node000017_Node000024"><a xlink:title=" ">
<path fill="none" stroke="#63b8ff" d="M475.69,-164.98C436.76,-155.86 374.84,-141.33 332.4,-131.38"/>
<polygon fill="#63b8ff" stroke="#63b8ff" points="333.13,-127.96 322.6,-129.08 331.53,-134.77 333.13,-127.96"/>
</a>
</g>
</g>
<!-- Node21&#45;&gt;Node3 -->
<g id="edge31_Node000021_Node000003" class="edge">
<title>Node21&#45;&gt;Node3</title>
<g id="a_edge31_Node000021_Node000003"><a xlink:title=" ">
<path fill="none" stroke="#63b8ff" d="M740.68,-109.91C733.53,-96.46 718,-70.39 698,-55 675.61,-37.77 645.68,-26.34 622.4,-19.38"/>
<polygon fill="#63b8ff" stroke="#63b8ff" points="623.12,-15.94 612.54,-16.58 621.21,-22.68 623.12,-15.94"/>
</a>
</g>
</g>
<!-- Node21&#45;&gt;Node7 -->
<g id="edge35_Node000021_Node000007" class="edge">
<title>Node21&#45;&gt;Node7</title>
<g id="a_edge35_Node000021_Node000007"><a xlink:title=" ">
<path fill="none" stroke="#63b8ff" d="M719.61,-109.98C693.2,-101.13 651.65,-87.19 622.11,-77.28"/>
<polygon fill="#63b8ff" stroke="#63b8ff" points="623.18,-73.94 612.58,-74.08 620.95,-80.58 623.18,-73.94"/>
</a>
</g>
</g>
<!-- Node21&#45;&gt;Node8 -->
<g id="edge33_Node000021_Node000008" class="edge">
<title>Node21&#45;&gt;Node8</title>
<g id="a_edge33_Node000021_Node000008"><a xlink:title=" ">
<path fill="none" stroke="#63b8ff" d="M728.28,-110C711.06,-101.18 683.5,-86.91 660,-74 645.17,-65.85 642.93,-60.72 627,-55 608.83,-48.47 502.69,-31.56 430.92,-20.56"/>
<polygon fill="#63b8ff" stroke="#63b8ff" points="431.01,-17.04 420.6,-18.99 429.96,-23.96 431.01,-17.04"/>
</a>
</g>
</g>
<!-- Node21&#45;&gt;Node9 -->
<g id="edge34_Node000021_Node000009" class="edge">
<title>Node21&#45;&gt;Node9</title>
<g id="a_edge34_Node000021_Node000009"><a xlink:title=" ">
<path fill="none" stroke="#63b8ff" d="M735.86,-109.75C721.09,-96.08 690.54,-69.71 660,-55 625.87,-38.56 584.86,-27.6 551.67,-20.67"/>
<polygon fill="#63b8ff" stroke="#63b8ff" points="552.13,-17.2 541.64,-18.65 550.75,-24.06 552.13,-17.2"/>
</a>
</g>
</g>
<!-- Node21&#45;&gt;Node11 -->
<g id="edge36_Node000021_Node000011" class="edge">
<title>Node21&#45;&gt;Node11</title>
<g id="a_edge36_Node000021_Node000011"><a xlink:title=" ">
<path fill="none" stroke="#63b8ff" d="M774.72,-109.98C806.05,-101.01 855.57,-86.82 890.24,-76.89"/>
<polygon fill="#63b8ff" stroke="#63b8ff" points="891.39,-80.2 900.04,-74.08 889.47,-73.47 891.39,-80.2"/>
</a>
</g>
</g>
<!-- Node22 -->
<g id="Node000022" class="node">
<title>Node22</title>
<g id="a_Node000022"><a xlink:title=" ">
<polygon fill="#e0e0e0" stroke="#999999" points="860,-74 750,-74 750,-55 860,-55 860,-74"/>
<text text-anchor="middle" x="805" y="-62" font-family="Helvetica,sans-Serif" font-size="10.00">driver/i2c_master.h</text>
</a>
</g>
</g>
<!-- Node21&#45;&gt;Node22 -->
<g id="edge32_Node000021_Node000022" class="edge">
<title>Node21&#45;&gt;Node22</title>
<g id="a_edge32_Node000021_Node000022"><a xlink:title=" ">
<path fill="none" stroke="#63b8ff" d="M754.64,-109.98C763.51,-102.15 776.87,-90.34 787.61,-80.86"/>
<polygon fill="#63b8ff" stroke="#63b8ff" points="790.01,-83.41 795.18,-74.17 785.37,-78.17 790.01,-83.41"/>
</a>
</g>
</g>
<!-- Node23&#45;&gt;Node3 -->
<g id="edge38_Node000023_Node000003" class="edge">
<title>Node23&#45;&gt;Node3</title>
<g id="a_edge38_Node000023_Node000003"><a xlink:title=" ">
<path fill="none" stroke="#63b8ff" d="M459.29,-109.66C482.86,-91.22 537.51,-48.45 566.74,-25.57"/>
<polygon fill="#63b8ff" stroke="#63b8ff" points="569.22,-28.08 574.94,-19.16 564.9,-22.57 569.22,-28.08"/>
</a>
</g>
</g>
<!-- Node23&#45;&gt;Node7 -->
<g id="edge42_Node000023_Node000007" class="edge">
<title>Node23&#45;&gt;Node7</title>
<g id="a_edge42_Node000023_Node000007"><a xlink:title=" ">
<path fill="none" stroke="#63b8ff" d="M470.33,-109.98C493.2,-101.27 528.96,-87.63 554.86,-77.75"/>
<polygon fill="#63b8ff" stroke="#63b8ff" points="556.16,-81 564.26,-74.17 553.67,-74.46 556.16,-81"/>
</a>
</g>
</g>
<!-- Node23&#45;&gt;Node8 -->
<g id="edge40_Node000023_Node000008" class="edge">
<title>Node23&#45;&gt;Node8</title>
<g id="a_edge40_Node000023_Node000008"><a xlink:title=" ">
<path fill="none" stroke="#63b8ff" d="M447.95,-109.87C447.46,-96.83 444.89,-71.84 433,-55 423.44,-41.47 408.35,-31.06 394.71,-23.72"/>
<polygon fill="#63b8ff" stroke="#63b8ff" points="396.1,-20.49 385.59,-19.13 392.95,-26.75 396.1,-20.49"/>
</a>
</g>
</g>
<!-- Node23&#45;&gt;Node9 -->
<g id="edge41_Node000023_Node000009" class="edge">
<title>Node23&#45;&gt;Node9</title>
<g id="a_edge41_Node000023_Node000009"><a xlink:title=" ">
<path fill="none" stroke="#63b8ff" d="M451.51,-109.99C455.18,-101.05 461.08,-86.57 466,-74 471.97,-58.74 478.54,-41.32 483.29,-28.59"/>
<polygon fill="#63b8ff" stroke="#63b8ff" points="486.59,-29.74 486.8,-19.15 480.03,-27.3 486.59,-29.74"/>
</a>
</g>
</g>
<!-- Node23&#45;&gt;Node11 -->
<g id="edge43_Node000023_Node000011" class="edge">
<title>Node23&#45;&gt;Node11</title>
<g id="a_edge43_Node000023_Node000011"><a xlink:title=" ">
<path fill="none" stroke="#63b8ff" d="M483.52,-114.9C567.56,-106.35 777.66,-84.85 868.25,-74.04"/>
<polygon fill="#63b8ff" stroke="#63b8ff" points="868.92,-77.48 878.43,-72.81 868.08,-70.53 868.92,-77.48"/>
</a>
</g>
</g>
<!-- Node23&#45;&gt;Node19 -->
<g id="edge39_Node000023_Node000019" class="edge">
<title>Node23&#45;&gt;Node19</title>
<g id="a_edge39_Node000023_Node000019"><a xlink:title=" ">
<path fill="none" stroke="#63b8ff" d="M435.31,-109.98C423.17,-101.84 404.64,-89.41 390.25,-79.76"/>
<polygon fill="#63b8ff" stroke="#63b8ff" points="392.18,-76.84 381.92,-74.17 388.28,-82.65 392.18,-76.84"/>
</a>
</g>
</g>
<!-- Node24&#45;&gt;Node3 -->
<g id="edge45_Node000024_Node000003" class="edge">
<title>Node24&#45;&gt;Node3</title>
<g id="a_edge45_Node000024_Node000003"><a xlink:title=" ">
<path fill="none" stroke="#63b8ff" d="M285.85,-109.99C286.11,-96.17 288.81,-69 305,-55 344.68,-20.71 481.81,-28.57 549.12,-18.96"/>
<polygon fill="#63b8ff" stroke="#63b8ff" points="550.02,-22.36 559.3,-17.25 548.86,-15.45 550.02,-22.36"/>
</a>
</g>
</g>
<!-- Node24&#45;&gt;Node7 -->
<g id="edge49_Node000024_Node000007" class="edge">
<title>Node24&#45;&gt;Node7</title>
<g id="a_edge49_Node000024_Node000007"><a xlink:title=" ">
<path fill="none" stroke="#63b8ff" d="M327.22,-111.24C384.82,-101.1 488.75,-82.8 546.15,-72.69"/>
<polygon fill="#63b8ff" stroke="#63b8ff" points="547.06,-76.09 556.3,-70.91 545.85,-69.19 547.06,-76.09"/>
</a>
</g>
</g>
<!-- Node24&#45;&gt;Node8 -->
<g id="edge47_Node000024_Node000008" class="edge">
<title>Node24&#45;&gt;Node8</title>
<g id="a_edge47_Node000024_Node000008"><a xlink:title=" ">
<path fill="none" stroke="#63b8ff" d="M270.01,-109.95C249.81,-98.02 219.34,-75.52 234,-55 248.69,-34.45 273.47,-23.28 297.49,-17.26"/>
<polygon fill="#63b8ff" stroke="#63b8ff" points="298.35,-20.65 307.34,-15.05 296.82,-13.82 298.35,-20.65"/>
</a>
</g>
</g>
<!-- Node24&#45;&gt;Node9 -->
<g id="edge48_Node000024_Node000009" class="edge">
<title>Node24&#45;&gt;Node9</title>
<g id="a_edge48_Node000024_Node000009"><a xlink:title=" ">
<path fill="none" stroke="#63b8ff" d="M279.91,-109.64C271.56,-96.3 259.01,-70.91 272,-55 277.07,-48.79 367.24,-31.92 430,-20.83"/>
<polygon fill="#63b8ff" stroke="#63b8ff" points="430.97,-24.21 440.21,-19.03 429.76,-17.32 430.97,-24.21"/>
</a>
</g>
</g>
<!-- Node24&#45;&gt;Node11 -->
<g id="edge50_Node000024_Node000011" class="edge">
<title>Node24&#45;&gt;Node11</title>
<g id="a_edge50_Node000024_Node000011"><a xlink:title=" ">
<path fill="none" stroke="#63b8ff" d="M327.01,-115.52C445.36,-106.89 783.92,-82.08 868.44,-73.93"/>
<polygon fill="#63b8ff" stroke="#63b8ff" points="868.85,-77.41 878.44,-72.91 868.14,-70.44 868.85,-77.41"/>
</a>
</g>
</g>
<!-- Node24&#45;&gt;Node20 -->
<g id="edge46_Node000024_Node000020" class="edge">
<title>Node24&#45;&gt;Node20</title>
<g id="a_edge46_Node000024_Node000020"><a xlink:title=" ">
<path fill="none" stroke="#63b8ff" d="M263.02,-109.98C239.5,-101.27 202.71,-87.63 176.06,-77.75"/>
<polygon fill="#63b8ff" stroke="#63b8ff" points="176.99,-74.36 166.39,-74.17 174.55,-80.93 176.99,-74.36"/>
</a>
</g>
</g>
</g>
</svg>
