<?xml version="1.0" encoding="UTF-8" standalone="no"?>
<!DOCTYPE svg PUBLIC "-//W3C//DTD SVG 1.1//EN"
 "http://www.w3.org/Graphics/SVG/1.1/DTD/svg11.dtd">
<!-- Generated by graphviz version 2.43.0 (0)
 -->
<!-- Title: main/ceo/managers/time/TimeManager.cpp Pages: 1 -->
<!--zoomable 368 -->

<svg id="main" version="1.1" xmlns="http://www.w3.org/2000/svg" xmlns:xlink="http://www.w3.org/1999/xlink" xml:space="preserve" onload="init(evt)">
<style type="text/css"><![CDATA[
.node, .edge {opacity: 0.7;}
.node.selected, .edge.selected {opacity: 1;}
.edge:hover path { stroke: red; }
.edge:hover polygon { stroke: red; fill: red; }
]]></style>

<defs>
  <circle id="rim" cx="0" cy="0" r="7"/>
  <circle id="rim2" cx="0" cy="0" r="3.5"/>
  <g id="zoomPlus">
    <use xlink:href="#rim" fill="#404040"><set attributeName="fill" to="#808080" begin="zoomplus.mouseover" end="zoomplus.mouseout"/></use>
    <path d="M-4,0h8M0,-4v8" fill="none" stroke="white" stroke-width="1.5" pointer-events="none"/>
  </g>
  <g id="zoomMin">
    <use xlink:href="#rim" fill="#404040"><set attributeName="fill" to="#808080" begin="zoomminus.mouseover" end="zoomminus.mouseout"/></use>
    <path d="M-4,0h8" fill="none" stroke="white" stroke-width="1.5" pointer-events="none"/>
  </g>
  <g id="arrowUp" transform="translate(30 24)">
    <use xlink:href="#rim"/>
    <path pointer-events="none" fill="none" stroke="white" stroke-width="1.5" d="M0,-3.0v7 M-2.5,-0.5L0,-3.0L2.5,-0.5"/>
  </g>
  <g id="arrowRight" transform="rotate(90) translate(36 -43)">
    <use xlink:href="#rim"/>
    <path pointer-events="none" fill="none" stroke="white" stroke-width="1.5" d="M0,-3.0v7 M-2.5,-0.5L0,-3.0L2.5,-0.5"/>
  </g>
  <g id="arrowDown" transform="rotate(180) translate(-30 -48)">
    <use xlink:href="#rim"/>
    <path pointer-events="none" fill="none" stroke="white" stroke-width="1.5" d="M0,-3.0v7 M-2.5,-0.5L0,-3.0L2.5,-0.5"/>
  </g>
  <g id="arrowLeft" transform="rotate(270) translate(-36 17)">
    <use xlink:href="#rim"/>
    <path pointer-events="none" fill="none" stroke="white" stroke-width="1.5" d="M0,-3.0v7 M-2.5,-0.5L0,-3.0L2.5,-0.5"/>
  </g>
  <g id="resetDef">
    <use xlink:href="#rim2" fill="#404040"><set attributeName="fill" to="#808080" begin="reset.mouseover" end="reset.mouseout"/></use>
  </g>
</defs>
<script type="application/ecmascript">
var viewWidth = 1888;
var viewHeight = 368;
var sectionId = 'dynsection-0';
</script>
<script type="application/ecmascript" xlink:href="svg.min.js"/>
<svg id="graph" class="graph">
<g id="viewport">
<title>main/ceo/managers/time/TimeManager.cpp</title>
<!-- Node1 -->
<g id="Node000001" class="node">
<title>Node1</title>
<g id="a_Node000001"><a xlink:title=" ">
<polygon fill="#999999" stroke="#666666" points="1272.5,-360 1133.5,-360 1133.5,-330 1272.5,-330 1272.5,-360"/>
<text text-anchor="start" x="1141.5" y="-348" font-family="Helvetica,sans-Serif" font-size="10.00">main/ceo/managers/time</text>
<text text-anchor="middle" x="1203" y="-337" font-family="Helvetica,sans-Serif" font-size="10.00">/TimeManager.cpp</text>
</a>
</g>
</g>
<!-- Node2 -->
<g id="Node000002" class="node">
<title>Node2</title>
<g id="a_Node000002"><a xlink:title=" ">
<polygon fill="#e0e0e0" stroke="#999999" points="682,-184 634,-184 634,-165 682,-165 682,-184"/>
<text text-anchor="middle" x="658" y="-172" font-family="Helvetica,sans-Serif" font-size="10.00">time.h</text>
</a>
</g>
</g>
<!-- Node1&#45;&gt;Node2 -->
<g id="edge1_Node000001_Node000002" class="edge">
<title>Node1&#45;&gt;Node2</title>
<g id="a_edge1_Node000001_Node000002"><a xlink:title=" ">
<path fill="none" stroke="#63b8ff" d="M1133.31,-339.69C1051.84,-333.68 913.36,-320.39 797,-294 722.03,-276.99 677.89,-301.41 633,-239 622.78,-224.8 632.67,-205.85 642.87,-192.36"/>
<polygon fill="#63b8ff" stroke="#63b8ff" points="645.77,-194.34 649.41,-184.39 640.36,-189.9 645.77,-194.34"/>
</a>
</g>
</g>
<!-- Node3 -->
<g id="Node000003" class="node">
<title>Node3</title>
<g id="a_Node000003"><a xlink:title=" ">
<polygon fill="#e0e0e0" stroke="#999999" points="1318,-294 1250,-294 1250,-275 1318,-275 1318,-294"/>
<text text-anchor="middle" x="1284" y="-282" font-family="Helvetica,sans-Serif" font-size="10.00">sys/time.h</text>
</a>
</g>
</g>
<!-- Node1&#45;&gt;Node3 -->
<g id="edge2_Node000001_Node000003" class="edge">
<title>Node1&#45;&gt;Node3</title>
<g id="a_edge2_Node000001_Node000003"><a xlink:title=" ">
<path fill="none" stroke="#63b8ff" d="M1222.61,-329.84C1234.97,-320.91 1250.9,-309.41 1263.43,-300.35"/>
<polygon fill="#63b8ff" stroke="#63b8ff" points="1265.8,-302.96 1271.86,-294.27 1261.71,-297.28 1265.8,-302.96"/>
</a>
</g>
</g>
<!-- Node4 -->
<g id="Node000004" class="node">
<title>Node4</title>
<g id="a_Node000004"><a xlink:title=" ">
<polygon fill="#e0e0e0" stroke="#999999" points="1163.5,-19 1110.5,-19 1110.5,0 1163.5,0 1163.5,-19"/>
<text text-anchor="middle" x="1137" y="-7" font-family="Helvetica,sans-Serif" font-size="10.00">string.h</text>
</a>
</g>
</g>
<!-- Node1&#45;&gt;Node4 -->
<g id="edge3_Node000001_Node000004" class="edge">
<title>Node1&#45;&gt;Node4</title>
<g id="a_edge3_Node000001_Node000004"><a xlink:title=" ">
<path fill="none" stroke="#63b8ff" d="M1199.06,-329.79C1193.5,-308.43 1184,-266.66 1184,-230.5 1184,-230.5 1184,-230.5 1184,-118.5 1184,-83.92 1163.49,-47.9 1149.57,-27.43"/>
<polygon fill="#63b8ff" stroke="#63b8ff" points="1152.37,-25.32 1143.73,-19.18 1146.65,-29.37 1152.37,-25.32"/>
</a>
</g>
</g>
<!-- Node5 -->
<g id="Node000005" class="node">
<title>Node5</title>
<g id="a_Node000005"><a xlink:title=" ">
<polygon fill="#e0e0e0" stroke="#999999" points="1386,-294 1336,-294 1336,-275 1386,-275 1386,-294"/>
<text text-anchor="middle" x="1361" y="-282" font-family="Helvetica,sans-Serif" font-size="10.00">stdio.h</text>
</a>
</g>
</g>
<!-- Node1&#45;&gt;Node5 -->
<g id="edge4_Node000001_Node000005" class="edge">
<title>Node1&#45;&gt;Node5</title>
<g id="a_edge4_Node000001_Node000005"><a xlink:title=" ">
<path fill="none" stroke="#63b8ff" d="M1240.84,-329.99C1267.44,-320.14 1302.67,-307.1 1328.1,-297.68"/>
<polygon fill="#63b8ff" stroke="#63b8ff" points="1329.5,-300.89 1337.67,-294.14 1327.07,-294.33 1329.5,-300.89"/>
</a>
</g>
</g>
<!-- Node6 -->
<g id="Node000006" class="node">
<title>Node6</title>
<g id="a_Node000006"><a xlink:title=" ">
<polygon fill="#e0e0e0" stroke="#999999" points="1455.5,-294 1404.5,-294 1404.5,-275 1455.5,-275 1455.5,-294"/>
<text text-anchor="middle" x="1430" y="-282" font-family="Helvetica,sans-Serif" font-size="10.00">math.h</text>
</a>
</g>
</g>
<!-- Node1&#45;&gt;Node6 -->
<g id="edge5_Node000001_Node000006" class="edge">
<title>Node1&#45;&gt;Node6</title>
<g id="a_edge5_Node000001_Node000006"><a xlink:title=" ">
<path fill="none" stroke="#63b8ff" d="M1257.37,-329.99C1299.93,-319.02 1357.89,-304.08 1394.62,-294.62"/>
<polygon fill="#63b8ff" stroke="#63b8ff" points="1395.58,-297.98 1404.39,-292.1 1393.84,-291.21 1395.58,-297.98"/>
</a>
</g>
</g>
<!-- Node7 -->
<g id="Node000007" class="node">
<title>Node7</title>
<g id="a_Node000007"><a xlink:title=" ">
<polygon fill="#e0e0e0" stroke="#999999" points="1538,-294 1474,-294 1474,-275 1538,-275 1538,-294"/>
<text text-anchor="middle" x="1506" y="-282" font-family="Helvetica,sans-Serif" font-size="10.00">algorithm</text>
</a>
</g>
</g>
<!-- Node1&#45;&gt;Node7 -->
<g id="edge6_Node000001_Node000007" class="edge">
<title>Node1&#45;&gt;Node7</title>
<g id="a_edge6_Node000001_Node000007"><a xlink:title=" ">
<path fill="none" stroke="#63b8ff" d="M1272.56,-331.04C1323.02,-321.56 1393.18,-308.24 1463.81,-294.21"/>
<polygon fill="#63b8ff" stroke="#63b8ff" points="1464.66,-297.61 1473.78,-292.23 1463.29,-290.75 1464.66,-297.61"/>
</a>
</g>
</g>
<!-- Node8 -->
<g id="Node000008" class="node">
<title>Node8</title>
<g id="a_Node000008"><a xlink:title=" ">
<polygon fill="#e0e0e0" stroke="#999999" points="1080,-239 1038,-239 1038,-220 1080,-220 1080,-239"/>
<text text-anchor="middle" x="1059" y="-227" font-family="Helvetica,sans-Serif" font-size="10.00">array</text>
</a>
</g>
</g>
<!-- Node1&#45;&gt;Node8 -->
<g id="edge7_Node000001_Node000008" class="edge">
<title>Node1&#45;&gt;Node8</title>
<g id="a_edge7_Node000001_Node000008"><a xlink:title=" ">
<path fill="none" stroke="#63b8ff" d="M1155.92,-329.93C1135.11,-321.94 1111.47,-310.22 1094,-294 1080.48,-281.44 1070.96,-262.44 1065.3,-248.49"/>
<polygon fill="#63b8ff" stroke="#63b8ff" points="1068.53,-247.12 1061.72,-239 1061.98,-249.59 1068.53,-247.12"/>
</a>
</g>
</g>
<!-- Node9 -->
<g id="Node000009" class="node">
<title>Node9</title>
<g id="a_Node000009"><a xlink:title=" ">
<polygon fill="#e0e0e0" stroke="#999999" points="1612,-294 1556,-294 1556,-275 1612,-275 1612,-294"/>
<text text-anchor="middle" x="1584" y="-282" font-family="Helvetica,sans-Serif" font-size="10.00">iomanip</text>
</a>
</g>
</g>
<!-- Node1&#45;&gt;Node9 -->
<g id="edge8_Node000001_Node000009" class="edge">
<title>Node1&#45;&gt;Node9</title>
<g id="a_edge8_Node000001_Node000009"><a xlink:title=" ">
<path fill="none" stroke="#63b8ff" d="M1272.79,-335.55C1340.23,-327 1445.48,-312.65 1545.77,-294.1"/>
<polygon fill="#63b8ff" stroke="#63b8ff" points="1546.58,-297.51 1555.77,-292.24 1545.3,-290.63 1546.58,-297.51"/>
</a>
</g>
</g>
<!-- Node10 -->
<g id="Node000010" class="node">
<title>Node10</title>
<g id="a_Node000010"><a xlink:title=" ">
<polygon fill="#e0e0e0" stroke="#999999" points="1686,-294 1630,-294 1630,-275 1686,-275 1686,-294"/>
<text text-anchor="middle" x="1658" y="-282" font-family="Helvetica,sans-Serif" font-size="10.00">sstream</text>
</a>
</g>
</g>
<!-- Node1&#45;&gt;Node10 -->
<g id="edge9_Node000001_Node000010" class="edge">
<title>Node1&#45;&gt;Node10</title>
<g id="a_edge9_Node000001_Node000010"><a xlink:title=" ">
<path fill="none" stroke="#63b8ff" d="M1272.85,-337.94C1354.01,-330.39 1492.08,-315.95 1619.82,-294.04"/>
<polygon fill="#63b8ff" stroke="#63b8ff" points="1620.53,-297.47 1629.78,-292.31 1619.33,-290.57 1620.53,-297.47"/>
</a>
</g>
</g>
<!-- Node11 -->
<g id="Node000011" class="node">
<title>Node11</title>
<g id="a_Node000011"><a xlink:title=" ">
<polygon fill="#e0e0e0" stroke="#999999" points="1250.5,-19 1187.5,-19 1187.5,0 1250.5,0 1250.5,-19"/>
<text text-anchor="middle" x="1219" y="-7" font-family="Helvetica,sans-Serif" font-size="10.00">esp_log.h</text>
</a>
</g>
</g>
<!-- Node1&#45;&gt;Node11 -->
<g id="edge10_Node000001_Node000011" class="edge">
<title>Node1&#45;&gt;Node11</title>
<g id="a_edge10_Node000001_Node000011"><a xlink:title=" ">
<path fill="none" stroke="#63b8ff" d="M1206.94,-329.79C1212.5,-308.43 1222,-266.66 1222,-230.5 1222,-230.5 1222,-230.5 1222,-118.5 1222,-87.18 1220.72,-50.77 1219.84,-29.23"/>
<polygon fill="#63b8ff" stroke="#63b8ff" points="1223.33,-29.02 1219.4,-19.18 1216.34,-29.32 1223.33,-29.02"/>
</a>
</g>
</g>
<!-- Node12 -->
<g id="Node000012" class="node">
<title>Node12</title>
<g id="a_Node000012"><a xlink:title=" ">
<polygon fill="#e0e0e0" stroke="#999999" points="1773.5,-294 1704.5,-294 1704.5,-275 1773.5,-275 1773.5,-294"/>
<text text-anchor="middle" x="1739" y="-282" font-family="Helvetica,sans-Serif" font-size="10.00">esp_sntp.h</text>
</a>
</g>
</g>
<!-- Node1&#45;&gt;Node12 -->
<g id="edge11_Node000001_Node000012" class="edge">
<title>Node1&#45;&gt;Node12</title>
<g id="a_edge11_Node000001_Node000012"><a xlink:title=" ">
<path fill="none" stroke="#63b8ff" d="M1272.91,-338.88C1366.46,-331.58 1537.73,-316.68 1694.18,-293.98"/>
<polygon fill="#63b8ff" stroke="#63b8ff" points="1695.08,-297.39 1704.46,-292.47 1694.06,-290.46 1695.08,-297.39"/>
</a>
</g>
</g>
<!-- Node13 -->
<g id="Node000013" class="node">
<title>Node13</title>
<g id="a_Node000013"><a xlink:title=" ">
<polygon fill="#e0e0e0" stroke="#999999" points="579.5,-74 518.5,-74 518.5,-55 579.5,-55 579.5,-74"/>
<text text-anchor="middle" x="549" y="-62" font-family="Helvetica,sans-Serif" font-size="10.00">esp_err.h</text>
</a>
</g>
</g>
<!-- Node1&#45;&gt;Node13 -->
<g id="edge12_Node000001_Node000013" class="edge">
<title>Node1&#45;&gt;Node13</title>
<g id="a_edge12_Node000001_Node000013"><a xlink:title=" ">
<path fill="none" stroke="#63b8ff" d="M1133.34,-342.82C985.84,-339.65 646.57,-328.72 537,-294 491.59,-279.61 472.81,-277.68 445,-239 425.55,-211.95 430.89,-198.25 433,-165 434.56,-140.41 424.99,-129.54 440,-110 448.9,-98.41 481.84,-85.89 509.21,-77.09"/>
<polygon fill="#63b8ff" stroke="#63b8ff" points="510.49,-80.36 518.98,-74.03 508.39,-73.68 510.49,-80.36"/>
</a>
</g>
</g>
<!-- Node14 -->
<g id="Node000014" class="node">
<title>Node14</title>
<g id="a_Node000014"><a xlink:title=" ">
<polygon fill="#e0e0e0" stroke="#999999" points="349.5,-19 236.5,-19 236.5,0 349.5,0 349.5,-19"/>
<text text-anchor="middle" x="293" y="-7" font-family="Helvetica,sans-Serif" font-size="10.00">freertos/FreeRTOS.h</text>
</a>
</g>
</g>
<!-- Node1&#45;&gt;Node14 -->
<g id="edge13_Node000001_Node000014" class="edge">
<title>Node1&#45;&gt;Node14</title>
<g id="a_edge13_Node000001_Node000014"><a xlink:title=" ">
<path fill="none" stroke="#63b8ff" d="M1133.12,-341.1C876.37,-329.97 0,-287.8 0,-230.5 0,-230.5 0,-230.5 0,-118.5 0,-85.38 11.6,-73.61 39,-55 68.79,-34.76 161.46,-22.39 226.21,-15.98"/>
<polygon fill="#63b8ff" stroke="#63b8ff" points="226.73,-19.45 236.35,-15.01 226.06,-12.48 226.73,-19.45"/>
</a>
</g>
</g>
<!-- Node15 -->
<g id="Node000015" class="node">
<title>Node15</title>
<g id="a_Node000015"><a xlink:title=" ">
<polygon fill="#e0e0e0" stroke="#999999" points="1880,-294 1792,-294 1792,-275 1880,-275 1880,-294"/>
<text text-anchor="middle" x="1836" y="-282" font-family="Helvetica,sans-Serif" font-size="10.00">freertos/task.h</text>
</a>
</g>
</g>
<!-- Node1&#45;&gt;Node15 -->
<g id="edge14_Node000001_Node000015" class="edge">
<title>Node1&#45;&gt;Node15</title>
<g id="a_edge14_Node000001_Node000015"><a xlink:title=" ">
<path fill="none" stroke="#63b8ff" d="M1272.81,-339.64C1380.01,-332.57 1591.82,-317.16 1781.62,-294.08"/>
<polygon fill="#63b8ff" stroke="#63b8ff" points="1782.29,-297.53 1791.79,-292.84 1781.44,-290.58 1782.29,-297.53"/>
</a>
</g>
</g>
<!-- Node16 -->
<g id="Node000016" class="node">
<title>Node16</title>
<g id="a_Node000016"><a xlink:href="I2CBus_8hpp.html" target="_top" xlink:title="Industrial I2C Master bus driver with health monitoring.">
<polygon fill="white" stroke="#666666" points="791.5,-129 720.5,-129 720.5,-110 791.5,-110 791.5,-129"/>
<text text-anchor="middle" x="756" y="-117" font-family="Helvetica,sans-Serif" font-size="10.00">I2CBus.hpp</text>
</a>
</g>
</g>
<!-- Node1&#45;&gt;Node16 -->
<g id="edge15_Node000001_Node000016" class="edge">
<title>Node1&#45;&gt;Node16</title>
<g id="a_edge15_Node000001_Node000016"><a xlink:title=" ">
<path fill="none" stroke="#63b8ff" d="M1177.62,-329.88C1163.07,-320.92 1145.14,-308.34 1132,-294 1106.3,-265.96 1118.88,-243.54 1089,-220 1002.79,-152.07 870.95,-130.44 801.87,-123.61"/>
<polygon fill="#63b8ff" stroke="#63b8ff" points="802.02,-120.11 791.74,-122.67 801.37,-127.08 802.02,-120.11"/>
</a>
</g>
</g>
<!-- Node20 -->
<g id="Node000020" class="node">
<title>Node20</title>
<g id="a_Node000020"><a xlink:href="DataManager_8hpp.html" target="_top" xlink:title="The collective consciousness and unified system state mirror.">
<polygon fill="white" stroke="#666666" points="981.5,-74 878.5,-74 878.5,-55 981.5,-55 981.5,-74"/>
<text text-anchor="middle" x="930" y="-62" font-family="Helvetica,sans-Serif" font-size="10.00">DataManager.hpp</text>
</a>
</g>
</g>
<!-- Node1&#45;&gt;Node20 -->
<g id="edge30_Node000001_Node000020" class="edge">
<title>Node1&#45;&gt;Node20</title>
<g id="a_edge30_Node000001_Node000020"><a xlink:title=" ">
<path fill="none" stroke="#63b8ff" d="M1194.01,-329.82C1178.53,-305.91 1145.22,-256.63 1111,-220 1057.93,-163.18 985.08,-106.41 950.2,-80.32"/>
<polygon fill="#63b8ff" stroke="#63b8ff" points="951.92,-77.24 941.81,-74.08 947.75,-82.85 951.92,-77.24"/>
</a>
</g>
</g>
<!-- Node24 -->
<g id="Node000024" class="node">
<title>Node24</title>
<g id="a_Node000024"><a xlink:href="ITimeSource_8hpp.html" target="_top" xlink:title="The abstract behavioral contract for all temporal reference organs.">
<polygon fill="white" stroke="#666666" points="552,-239 454,-239 454,-220 552,-220 552,-239"/>
<text text-anchor="middle" x="503" y="-227" font-family="Helvetica,sans-Serif" font-size="10.00">ITimeSource.hpp</text>
</a>
</g>
</g>
<!-- Node1&#45;&gt;Node24 -->
<g id="edge31_Node000001_Node000024" class="edge">
<title>Node1&#45;&gt;Node24</title>
<g id="a_edge31_Node000001_Node000024"><a xlink:title=" ">
<path fill="none" stroke="#63b8ff" d="M1133.44,-344.57C989.74,-344.79 665.27,-339.99 566,-294 544.3,-283.94 525.9,-263 514.69,-247.91"/>
<polygon fill="#63b8ff" stroke="#63b8ff" points="517.31,-245.56 508.68,-239.42 511.6,-249.61 517.31,-245.56"/>
</a>
</g>
</g>
<!-- Node31 -->
<g id="Node000031" class="node">
<title>Node31</title>
<g id="a_Node000031"><a xlink:href="TimeManager_8hpp.html" target="_top" xlink:title="The biological clock and circadian rhythm (pacemaker) of the organism.">
<polygon fill="white" stroke="#666666" points="910,-294 806,-294 806,-275 910,-275 910,-294"/>
<text text-anchor="middle" x="858" y="-282" font-family="Helvetica,sans-Serif" font-size="10.00">TimeManager.hpp</text>
</a>
</g>
</g>
<!-- Node1&#45;&gt;Node31 -->
<g id="edge57_Node000001_Node000031" class="edge">
<title>Node1&#45;&gt;Node31</title>
<g id="a_edge57_Node000001_Node000031"><a xlink:title=" ">
<path fill="none" stroke="#63b8ff" d="M1133.18,-332.16C1070.09,-321.46 978.17,-305.88 918.23,-295.71"/>
<polygon fill="#63b8ff" stroke="#63b8ff" points="918.6,-292.23 908.16,-294.01 917.43,-299.13 918.6,-292.23"/>
</a>
</g>
</g>
<!-- Node16&#45;&gt;Node13 -->
<g id="edge20_Node000016_Node000013" class="edge">
<title>Node16&#45;&gt;Node13</title>
<g id="a_edge20_Node000016_Node000013"><a xlink:title=" ">
<path fill="none" stroke="#63b8ff" d="M722.74,-109.98C686.55,-100.72 628.65,-85.89 589.75,-75.93"/>
<polygon fill="#63b8ff" stroke="#63b8ff" points="590.37,-72.48 579.81,-73.39 588.63,-79.26 590.37,-72.48"/>
</a>
</g>
</g>
<!-- Node16&#45;&gt;Node14 -->
<g id="edge18_Node000016_Node000014" class="edge">
<title>Node16&#45;&gt;Node14</title>
<g id="a_edge18_Node000016_Node000014"><a xlink:title=" ">
<path fill="none" stroke="#63b8ff" d="M737.28,-109.92C706.69,-96.25 643.81,-69.58 588,-55 511.02,-34.89 420.21,-22.89 359.88,-16.51"/>
<polygon fill="#63b8ff" stroke="#63b8ff" points="360.03,-13.01 349.72,-15.46 359.31,-19.97 360.03,-13.01"/>
</a>
</g>
</g>
<!-- Node17 -->
<g id="Node000017" class="node">
<title>Node17</title>
<g id="a_Node000017"><a xlink:title=" ">
<polygon fill="#e0e0e0" stroke="#999999" points="634.5,-19 581.5,-19 581.5,0 634.5,0 634.5,-19"/>
<text text-anchor="middle" x="608" y="-7" font-family="Helvetica,sans-Serif" font-size="10.00">stdint.h</text>
</a>
</g>
</g>
<!-- Node16&#45;&gt;Node17 -->
<g id="edge16_Node000016_Node000017" class="edge">
<title>Node16&#45;&gt;Node17</title>
<g id="a_edge16_Node000016_Node000017"><a xlink:title=" ">
<path fill="none" stroke="#63b8ff" d="M744.14,-109.84C718.92,-91.44 659.71,-48.23 628.33,-25.34"/>
<polygon fill="#63b8ff" stroke="#63b8ff" points="630.06,-22.26 619.92,-19.2 625.93,-27.92 630.06,-22.26"/>
</a>
</g>
</g>
<!-- Node18 -->
<g id="Node000018" class="node">
<title>Node18</title>
<g id="a_Node000018"><a xlink:title=" ">
<polygon fill="#e0e0e0" stroke="#999999" points="822,-74 712,-74 712,-55 822,-55 822,-74"/>
<text text-anchor="middle" x="767" y="-62" font-family="Helvetica,sans-Serif" font-size="10.00">driver/i2c_master.h</text>
</a>
</g>
</g>
<!-- Node16&#45;&gt;Node18 -->
<g id="edge17_Node000016_Node000018" class="edge">
<title>Node16&#45;&gt;Node18</title>
<g id="a_edge17_Node000016_Node000018"><a xlink:title=" ">
<path fill="none" stroke="#63b8ff" d="M757.82,-109.75C759.26,-102.8 761.32,-92.85 763.13,-84.13"/>
<polygon fill="#63b8ff" stroke="#63b8ff" points="766.61,-84.59 765.22,-74.09 759.76,-83.17 766.61,-84.59"/>
</a>
</g>
</g>
<!-- Node19 -->
<g id="Node000019" class="node">
<title>Node19</title>
<g id="a_Node000019"><a xlink:title=" ">
<polygon fill="#e0e0e0" stroke="#999999" points="783.5,-19 680.5,-19 680.5,0 783.5,0 783.5,-19"/>
<text text-anchor="middle" x="732" y="-7" font-family="Helvetica,sans-Serif" font-size="10.00">freertos/semphr.h</text>
</a>
</g>
</g>
<!-- Node16&#45;&gt;Node19 -->
<g id="edge19_Node000016_Node000019" class="edge">
<title>Node16&#45;&gt;Node19</title>
<g id="a_edge19_Node000016_Node000019"><a xlink:title=" ">
<path fill="none" stroke="#63b8ff" d="M781.52,-109.87C808.96,-99.13 846.66,-79.21 831,-55 820.81,-39.25 803.57,-29.02 786.31,-22.4"/>
<polygon fill="#63b8ff" stroke="#63b8ff" points="787.36,-19.05 776.76,-19.08 785.06,-25.67 787.36,-19.05"/>
</a>
</g>
</g>
<!-- Node16&#45;&gt;Node20 -->
<g id="edge21_Node000016_Node000020" class="edge">
<title>Node16&#45;&gt;Node20</title>
<g id="a_edge21_Node000016_Node000020"><a xlink:title=" ">
<path fill="none" stroke="#63b8ff" d="M783.96,-109.98C813.3,-101.05 859.6,-86.94 892.19,-77.02"/>
<polygon fill="#63b8ff" stroke="#63b8ff" points="893.28,-80.34 901.82,-74.08 891.24,-73.65 893.28,-80.34"/>
</a>
</g>
</g>
<!-- Node20&#45;&gt;Node4 -->
<g id="edge23_Node000020_Node000004" class="edge">
<title>Node20&#45;&gt;Node4</title>
<g id="a_edge23_Node000020_Node000004"><a xlink:title=" ">
<path fill="none" stroke="#63b8ff" d="M963.26,-54.98C1000.82,-45.37 1061.74,-29.77 1100.56,-19.83"/>
<polygon fill="#63b8ff" stroke="#63b8ff" points="1101.59,-23.18 1110.41,-17.31 1099.85,-16.4 1101.59,-23.18"/>
</a>
</g>
</g>
<!-- Node20&#45;&gt;Node11 -->
<g id="edge28_Node000020_Node000011" class="edge">
<title>Node20&#45;&gt;Node11</title>
<g id="a_edge28_Node000020_Node000011"><a xlink:title=" ">
<path fill="none" stroke="#63b8ff" d="M976.59,-54.99C1025.51,-46.05 1104.67,-31.57 1173,-19 1174.45,-18.73 1175.92,-18.46 1177.41,-18.19"/>
<polygon fill="#63b8ff" stroke="#63b8ff" points="1178.13,-21.61 1187.33,-16.36 1176.86,-14.73 1178.13,-21.61"/>
</a>
</g>
</g>
<!-- Node20&#45;&gt;Node14 -->
<g id="edge25_Node000020_Node000014" class="edge">
<title>Node20&#45;&gt;Node14</title>
<g id="a_edge25_Node000020_Node000014"><a xlink:title=" ">
<path fill="none" stroke="#63b8ff" d="M878.36,-59.04C863.11,-57.73 846.38,-56.3 831,-55 661.26,-40.69 461.35,-24.27 359.67,-15.95"/>
<polygon fill="#63b8ff" stroke="#63b8ff" points="359.8,-12.45 349.55,-15.12 359.23,-19.42 359.8,-12.45"/>
</a>
</g>
</g>
<!-- Node20&#45;&gt;Node17 -->
<g id="edge22_Node000020_Node000017" class="edge">
<title>Node20&#45;&gt;Node17</title>
<g id="a_edge22_Node000020_Node000017"><a xlink:title=" ">
<path fill="none" stroke="#63b8ff" d="M878.27,-54.98C812.83,-44.21 701.79,-25.94 644.54,-16.51"/>
<polygon fill="#63b8ff" stroke="#63b8ff" points="644.94,-13.03 634.5,-14.86 643.8,-19.94 644.94,-13.03"/>
</a>
</g>
</g>
<!-- Node20&#45;&gt;Node19 -->
<g id="edge26_Node000020_Node000019" class="edge">
<title>Node20&#45;&gt;Node19</title>
<g id="a_edge26_Node000020_Node000019"><a xlink:title=" ">
<path fill="none" stroke="#63b8ff" d="M898.19,-54.98C864.51,-45.97 811.2,-31.7 774.08,-21.76"/>
<polygon fill="#63b8ff" stroke="#63b8ff" points="774.63,-18.29 764.06,-19.08 772.82,-25.05 774.63,-18.29"/>
</a>
</g>
</g>
<!-- Node21 -->
<g id="Node000021" class="node">
<title>Node21</title>
<g id="a_Node000021"><a xlink:title=" ">
<polygon fill="#e0e0e0" stroke="#999999" points="989.5,-19 920.5,-19 920.5,0 989.5,0 989.5,-19"/>
<text text-anchor="middle" x="955" y="-7" font-family="Helvetica,sans-Serif" font-size="10.00">type_traits</text>
</a>
</g>
</g>
<!-- Node20&#45;&gt;Node21 -->
<g id="edge24_Node000020_Node000021" class="edge">
<title>Node20&#45;&gt;Node21</title>
<g id="a_edge24_Node000020_Node000021"><a xlink:title=" ">
<path fill="none" stroke="#63b8ff" d="M934.13,-54.75C937.51,-47.57 942.42,-37.18 946.62,-28.27"/>
<polygon fill="#63b8ff" stroke="#63b8ff" points="949.85,-29.63 950.95,-19.09 943.52,-26.64 949.85,-29.63"/>
</a>
</g>
</g>
<!-- Node22 -->
<g id="Node000022" class="node">
<title>Node22</title>
<g id="a_Node000022"><a xlink:title=" ">
<polygon fill="#e0e0e0" stroke="#999999" points="902,-19 802,-19 802,0 902,0 902,-19"/>
<text text-anchor="middle" x="852" y="-7" font-family="Helvetica,sans-Serif" font-size="10.00">esp_heap_caps.h</text>
</a>
</g>
</g>
<!-- Node20&#45;&gt;Node22 -->
<g id="edge27_Node000020_Node000022" class="edge">
<title>Node20&#45;&gt;Node22</title>
<g id="a_edge27_Node000020_Node000022"><a xlink:title=" ">
<path fill="none" stroke="#63b8ff" d="M917.47,-54.98C905.6,-46.92 887.54,-34.65 873.39,-25.03"/>
<polygon fill="#63b8ff" stroke="#63b8ff" points="875,-21.9 864.76,-19.17 871.06,-27.69 875,-21.9"/>
</a>
</g>
</g>
<!-- Node23 -->
<g id="Node000023" class="node">
<title>Node23</title>
<g id="a_Node000023"><a xlink:href="IManager_8hpp.html" target="_top" xlink:title="The abstract behavioral contract for all managers.">
<polygon fill="white" stroke="#666666" points="1090.5,-19 1007.5,-19 1007.5,0 1090.5,0 1090.5,-19"/>
<text text-anchor="middle" x="1049" y="-7" font-family="Helvetica,sans-Serif" font-size="10.00">IManager.hpp</text>
</a>
</g>
</g>
<!-- Node20&#45;&gt;Node23 -->
<g id="edge29_Node000020_Node000023" class="edge">
<title>Node20&#45;&gt;Node23</title>
<g id="a_edge29_Node000020_Node000023"><a xlink:title=" ">
<path fill="none" stroke="#63b8ff" d="M949.12,-54.98C968.35,-46.42 998.23,-33.11 1020.31,-23.28"/>
<polygon fill="#63b8ff" stroke="#63b8ff" points="1021.82,-26.44 1029.53,-19.17 1018.97,-20.04 1021.82,-26.44"/>
</a>
</g>
</g>
<!-- Node24&#45;&gt;Node2 -->
<g id="edge32_Node000024_Node000002" class="edge">
<title>Node24&#45;&gt;Node2</title>
<g id="a_edge32_Node000024_Node000002"><a xlink:title=" ">
<path fill="none" stroke="#63b8ff" d="M527.9,-219.98C554.01,-211.06 595.18,-196.98 624.21,-187.05"/>
<polygon fill="#63b8ff" stroke="#63b8ff" points="625.59,-190.28 633.92,-183.73 623.33,-183.66 625.59,-190.28"/>
</a>
</g>
</g>
<!-- Node24&#45;&gt;Node13 -->
<g id="edge33_Node000024_Node000013" class="edge">
<title>Node24&#45;&gt;Node13</title>
<g id="a_edge33_Node000024_Node000013"><a xlink:title=" ">
<path fill="none" stroke="#63b8ff" d="M516.78,-219.82C527.82,-211.99 542.49,-199.35 549,-184 562.93,-151.13 557.98,-108.38 553.34,-84.24"/>
<polygon fill="#63b8ff" stroke="#63b8ff" points="556.73,-83.35 551.24,-74.29 549.88,-84.79 556.73,-83.35"/>
</a>
</g>
</g>
<!-- Node24&#45;&gt;Node20 -->
<g id="edge34_Node000024_Node000020" class="edge">
<title>Node24&#45;&gt;Node20</title>
<g id="a_edge34_Node000024_Node000020"><a xlink:title=" ">
<path fill="none" stroke="#63b8ff" d="M516.29,-219.82C538.07,-206 583.15,-179.13 625,-165 713.89,-134.99 745.72,-163.41 833,-129 863.07,-117.15 893.58,-95.18 912.15,-80.45"/>
<polygon fill="#63b8ff" stroke="#63b8ff" points="914.46,-83.08 920.02,-74.07 910.05,-77.65 914.46,-83.08"/>
</a>
</g>
</g>
<!-- Node25 -->
<g id="Node000025" class="node">
<title>Node25</title>
<g id="a_Node000025"><a xlink:href="BusManager_8hpp.html" target="_top" xlink:title="The peripheral nervous system managing all communication pathways.">
<polygon fill="white" stroke="#666666" points="540,-184 442,-184 442,-165 540,-165 540,-184"/>
<text text-anchor="middle" x="491" y="-172" font-family="Helvetica,sans-Serif" font-size="10.00">BusManager.hpp</text>
</a>
</g>
</g>
<!-- Node24&#45;&gt;Node25 -->
<g id="edge35_Node000024_Node000025" class="edge">
<title>Node24&#45;&gt;Node25</title>
<g id="a_edge35_Node000024_Node000025"><a xlink:title=" ">
<path fill="none" stroke="#63b8ff" d="M501.02,-219.75C499.43,-212.72 497.14,-202.62 495.15,-193.84"/>
<polygon fill="#63b8ff" stroke="#63b8ff" points="498.57,-193.07 492.94,-184.09 491.74,-194.62 498.57,-193.07"/>
</a>
</g>
</g>
<!-- Node25&#45;&gt;Node13 -->
<g id="edge36_Node000025_Node000013" class="edge">
<title>Node25&#45;&gt;Node13</title>
<g id="a_edge36_Node000025_Node000013"><a xlink:title=" ">
<path fill="none" stroke="#63b8ff" d="M500.35,-164.78C508.89,-156.35 521.32,-142.86 529,-129 536.8,-114.92 542.03,-97.38 545.18,-84.3"/>
<polygon fill="#63b8ff" stroke="#63b8ff" points="548.68,-84.68 547.42,-74.16 541.85,-83.16 548.68,-84.68"/>
</a>
</g>
</g>
<!-- Node25&#45;&gt;Node16 -->
<g id="edge42_Node000025_Node000016" class="edge">
<title>Node25&#45;&gt;Node16</title>
<g id="a_edge42_Node000025_Node000016"><a xlink:title=" ">
<path fill="none" stroke="#63b8ff" d="M533.58,-164.98C582.03,-155.29 660.86,-139.53 710.5,-129.6"/>
<polygon fill="#63b8ff" stroke="#63b8ff" points="711.21,-133.03 720.33,-127.63 709.83,-126.16 711.21,-133.03"/>
</a>
</g>
</g>
<!-- Node25&#45;&gt;Node20 -->
<g id="edge41_Node000025_Node000020" class="edge">
<title>Node25&#45;&gt;Node20</title>
<g id="a_edge41_Node000025_Node000020"><a xlink:title=" ">
<path fill="none" stroke="#63b8ff" d="M540.04,-168.36C614.73,-160.21 753.34,-143.74 801,-129 811.57,-125.73 869.39,-96.52 903.93,-78.88"/>
<polygon fill="#63b8ff" stroke="#63b8ff" points="905.69,-81.91 913,-74.24 902.5,-75.68 905.69,-81.91"/>
</a>
</g>
</g>
<!-- Node25&#45;&gt;Node23 -->
<g id="edge40_Node000025_Node000023" class="edge">
<title>Node25&#45;&gt;Node23</title>
<g id="a_edge40_Node000025_Node000023"><a xlink:title=" ">
<path fill="none" stroke="#63b8ff" d="M540.28,-170.28C607.26,-165.19 730.45,-153.25 833,-129 905.36,-111.89 928.92,-114.92 991,-74 1009.82,-61.6 1026.61,-41.75 1037.22,-27.54"/>
<polygon fill="#63b8ff" stroke="#63b8ff" points="1040.25,-29.31 1043.26,-19.16 1034.57,-25.22 1040.25,-29.31"/>
</a>
</g>
</g>
<!-- Node26 -->
<g id="Node000026" class="node">
<title>Node26</title>
<g id="a_Node000026"><a xlink:title=" ">
<polygon fill="#e0e0e0" stroke="#999999" points="520.5,-129 449.5,-129 449.5,-110 520.5,-110 520.5,-129"/>
<text text-anchor="middle" x="485" y="-117" font-family="Helvetica,sans-Serif" font-size="10.00">driver/i2c.h</text>
</a>
</g>
</g>
<!-- Node25&#45;&gt;Node26 -->
<g id="edge37_Node000025_Node000026" class="edge">
<title>Node25&#45;&gt;Node26</title>
<g id="a_edge37_Node000025_Node000026"><a xlink:title=" ">
<path fill="none" stroke="#63b8ff" d="M490.01,-164.75C489.22,-157.8 488.1,-147.85 487.11,-139.13"/>
<polygon fill="#63b8ff" stroke="#63b8ff" points="490.58,-138.63 485.97,-129.09 483.62,-139.42 490.58,-138.63"/>
</a>
</g>
</g>
<!-- Node27 -->
<g id="Node000027" class="node">
<title>Node27</title>
<g id="a_Node000027"><a xlink:title=" ">
<polygon fill="#e0e0e0" stroke="#999999" points="386,-74 276,-74 276,-55 386,-55 386,-74"/>
<text text-anchor="middle" x="331" y="-62" font-family="Helvetica,sans-Serif" font-size="10.00">driver/spi_master.h</text>
</a>
</g>
</g>
<!-- Node25&#45;&gt;Node27 -->
<g id="edge38_Node000025_Node000027" class="edge">
<title>Node25&#45;&gt;Node27</title>
<g id="a_edge38_Node000025_Node000027"><a xlink:title=" ">
<path fill="none" stroke="#63b8ff" d="M441.9,-168.05C394.58,-161.67 327.88,-149.31 312,-129 301.52,-115.59 309.49,-96.49 318.09,-82.74"/>
<polygon fill="#63b8ff" stroke="#63b8ff" points="321.16,-84.44 323.92,-74.21 315.38,-80.49 321.16,-84.44"/>
</a>
</g>
</g>
<!-- Node28 -->
<g id="Node000028" class="node">
<title>Node28</title>
<g id="a_Node000028"><a xlink:title=" ">
<polygon fill="#e0e0e0" stroke="#999999" points="143.5,-74 66.5,-74 66.5,-55 143.5,-55 143.5,-74"/>
<text text-anchor="middle" x="105" y="-62" font-family="Helvetica,sans-Serif" font-size="10.00">driver/uart.h</text>
</a>
</g>
</g>
<!-- Node25&#45;&gt;Node28 -->
<g id="edge39_Node000025_Node000028" class="edge">
<title>Node25&#45;&gt;Node28</title>
<g id="a_edge39_Node000025_Node000028"><a xlink:title=" ">
<path fill="none" stroke="#63b8ff" d="M441.79,-170.18C364.93,-164.39 220.41,-150.94 174,-129 151.12,-118.18 130.58,-97.08 117.98,-82.18"/>
<polygon fill="#63b8ff" stroke="#63b8ff" points="120.54,-79.79 111.52,-74.24 115.12,-84.21 120.54,-79.79"/>
</a>
</g>
</g>
<!-- Node29 -->
<g id="Node000029" class="node">
<title>Node29</title>
<g id="a_Node000029"><a xlink:href="SPIBus_8hpp.html" target="_top" xlink:title="Industrial SPI Master bus driver with health monitoring.">
<polygon fill="white" stroke="#666666" points="392.5,-129 321.5,-129 321.5,-110 392.5,-110 392.5,-129"/>
<text text-anchor="middle" x="357" y="-117" font-family="Helvetica,sans-Serif" font-size="10.00">SPIBus.hpp</text>
</a>
</g>
</g>
<!-- Node25&#45;&gt;Node29 -->
<g id="edge43_Node000025_Node000029" class="edge">
<title>Node25&#45;&gt;Node29</title>
<g id="a_edge43_Node000025_Node000029"><a xlink:title=" ">
<path fill="none" stroke="#63b8ff" d="M469.47,-164.98C447.53,-156.3 413.26,-142.75 388.31,-132.88"/>
<polygon fill="#63b8ff" stroke="#63b8ff" points="389.51,-129.59 378.92,-129.17 386.93,-136.1 389.51,-129.59"/>
</a>
</g>
</g>
<!-- Node30 -->
<g id="Node000030" class="node">
<title>Node30</title>
<g id="a_Node000030"><a xlink:href="UARTBus_8hpp.html" target="_top" xlink:title="Industrial UART bus driver with health monitoring.">
<polygon fill="white" stroke="#666666" points="265,-129 183,-129 183,-110 265,-110 265,-129"/>
<text text-anchor="middle" x="224" y="-117" font-family="Helvetica,sans-Serif" font-size="10.00">UARTBus.hpp</text>
</a>
</g>
</g>
<!-- Node25&#45;&gt;Node30 -->
<g id="edge50_Node000025_Node000030" class="edge">
<title>Node25&#45;&gt;Node30</title>
<g id="a_edge50_Node000025_Node000030"><a xlink:title=" ">
<path fill="none" stroke="#63b8ff" d="M448.1,-164.98C400.94,-155.62 325.2,-140.59 275.03,-130.63"/>
<polygon fill="#63b8ff" stroke="#63b8ff" points="275.53,-127.16 265.04,-128.65 274.17,-134.03 275.53,-127.16"/>
</a>
</g>
</g>
<!-- Node29&#45;&gt;Node13 -->
<g id="edge48_Node000029_Node000013" class="edge">
<title>Node29&#45;&gt;Node13</title>
<g id="a_edge48_Node000029_Node000013"><a xlink:title=" ">
<path fill="none" stroke="#63b8ff" d="M387.85,-109.98C420.6,-100.94 472.5,-86.62 508.52,-76.67"/>
<polygon fill="#63b8ff" stroke="#63b8ff" points="509.52,-80.03 518.23,-73.99 507.66,-73.28 509.52,-80.03"/>
</a>
</g>
</g>
<!-- Node29&#45;&gt;Node14 -->
<g id="edge46_Node000029_Node000014" class="edge">
<title>Node29&#45;&gt;Node14</title>
<g id="a_edge46_Node000029_Node000014"><a xlink:title=" ">
<path fill="none" stroke="#63b8ff" d="M368.66,-109.94C384,-97.62 407.6,-74.24 395,-55 384.64,-39.18 367.29,-28.95 349.82,-22.35"/>
<polygon fill="#63b8ff" stroke="#63b8ff" points="350.73,-18.97 340.14,-19.05 348.47,-25.59 350.73,-18.97"/>
</a>
</g>
</g>
<!-- Node29&#45;&gt;Node17 -->
<g id="edge44_Node000029_Node000017" class="edge">
<title>Node29&#45;&gt;Node17</title>
<g id="a_edge44_Node000029_Node000017"><a xlink:title=" ">
<path fill="none" stroke="#63b8ff" d="M371.27,-109.89C393.23,-96.86 436.87,-71.9 476,-55 507.6,-41.35 544.86,-29.13 571.72,-20.96"/>
<polygon fill="#63b8ff" stroke="#63b8ff" points="572.9,-24.26 581.47,-18.03 570.89,-17.55 572.9,-24.26"/>
</a>
</g>
</g>
<!-- Node29&#45;&gt;Node19 -->
<g id="edge47_Node000029_Node000019" class="edge">
<title>Node29&#45;&gt;Node19</title>
<g id="a_edge47_Node000029_Node000019"><a xlink:title=" ">
<path fill="none" stroke="#63b8ff" d="M381.54,-109.86C405.03,-101.38 441.34,-87.76 472,-74 488.87,-66.43 491.55,-61.09 509,-55 562.02,-36.5 624.97,-24.82 670.44,-18.09"/>
<polygon fill="#63b8ff" stroke="#63b8ff" points="671.05,-21.54 680.45,-16.65 670.05,-14.61 671.05,-21.54"/>
</a>
</g>
</g>
<!-- Node29&#45;&gt;Node20 -->
<g id="edge49_Node000029_Node000020" class="edge">
<title>Node29&#45;&gt;Node20</title>
<g id="a_edge49_Node000029_Node000020"><a xlink:title=" ">
<path fill="none" stroke="#63b8ff" d="M392.53,-114.77C407.22,-113.25 424.43,-111.5 440,-110 594.07,-95.12 775.53,-79.01 868.42,-70.86"/>
<polygon fill="#63b8ff" stroke="#63b8ff" points="868.83,-74.34 878.48,-69.98 868.22,-67.37 868.83,-74.34"/>
</a>
</g>
</g>
<!-- Node29&#45;&gt;Node27 -->
<g id="edge45_Node000029_Node000027" class="edge">
<title>Node29&#45;&gt;Node27</title>
<g id="a_edge45_Node000029_Node000027"><a xlink:title=" ">
<path fill="none" stroke="#63b8ff" d="M352.71,-109.75C349.19,-102.57 344.09,-92.18 339.72,-83.27"/>
<polygon fill="#63b8ff" stroke="#63b8ff" points="342.76,-81.53 335.21,-74.09 336.48,-84.61 342.76,-81.53"/>
</a>
</g>
</g>
<!-- Node30&#45;&gt;Node13 -->
<g id="edge55_Node000030_Node000013" class="edge">
<title>Node30&#45;&gt;Node13</title>
<g id="a_edge55_Node000030_Node000013"><a xlink:title=" ">
<path fill="none" stroke="#63b8ff" d="M265.16,-111.79C327.65,-101.6 445.75,-82.34 508.09,-72.17"/>
<polygon fill="#63b8ff" stroke="#63b8ff" points="509.02,-75.57 518.33,-70.5 507.89,-68.66 509.02,-75.57"/>
</a>
</g>
</g>
<!-- Node30&#45;&gt;Node14 -->
<g id="edge53_Node000030_Node000014" class="edge">
<title>Node30&#45;&gt;Node14</title>
<g id="a_edge53_Node000030_Node000014"><a xlink:title=" ">
<path fill="none" stroke="#63b8ff" d="M214.97,-109.86C202.89,-97.23 184.29,-73.25 196,-55 206.09,-39.28 223.27,-29.03 240.41,-22.4"/>
<polygon fill="#63b8ff" stroke="#63b8ff" points="241.6,-25.69 249.87,-19.07 239.28,-19.08 241.6,-25.69"/>
</a>
</g>
</g>
<!-- Node30&#45;&gt;Node17 -->
<g id="edge51_Node000030_Node000017" class="edge">
<title>Node30&#45;&gt;Node17</title>
<g id="a_edge51_Node000030_Node000017"><a xlink:title=" ">
<path fill="none" stroke="#63b8ff" d="M222.42,-109.64C220.51,-95.82 219.21,-69.24 234,-55 258.05,-31.85 481.69,-17.32 571.21,-12.38"/>
<polygon fill="#63b8ff" stroke="#63b8ff" points="571.65,-15.87 581.44,-11.83 571.27,-8.88 571.65,-15.87"/>
</a>
</g>
</g>
<!-- Node30&#45;&gt;Node19 -->
<g id="edge54_Node000030_Node000019" class="edge">
<title>Node30&#45;&gt;Node19</title>
<g id="a_edge54_Node000030_Node000019"><a xlink:title=" ">
<path fill="none" stroke="#63b8ff" d="M227.11,-109.69C232.65,-95.43 245.7,-67.64 267,-55 267,-55 543.62,-28.53 670.15,-16.42"/>
<polygon fill="#63b8ff" stroke="#63b8ff" points="670.84,-19.87 680.46,-15.43 670.17,-12.9 670.84,-19.87"/>
</a>
</g>
</g>
<!-- Node30&#45;&gt;Node20 -->
<g id="edge56_Node000030_Node000020" class="edge">
<title>Node30&#45;&gt;Node20</title>
<g id="a_edge56_Node000030_Node000020"><a xlink:title=" ">
<path fill="none" stroke="#63b8ff" d="M265.17,-114.29C279.93,-112.84 296.7,-111.27 312,-110 542.43,-90.88 600.47,-91.89 831,-74 843.03,-73.07 855.87,-72.01 868.18,-70.96"/>
<polygon fill="#63b8ff" stroke="#63b8ff" points="868.71,-74.43 878.37,-70.09 868.11,-67.46 868.71,-74.43"/>
</a>
</g>
</g>
<!-- Node30&#45;&gt;Node28 -->
<g id="edge52_Node000030_Node000028" class="edge">
<title>Node30&#45;&gt;Node28</title>
<g id="a_edge52_Node000030_Node000028"><a xlink:title=" ">
<path fill="none" stroke="#63b8ff" d="M204.88,-109.98C185.65,-101.42 155.77,-88.11 133.69,-78.28"/>
<polygon fill="#63b8ff" stroke="#63b8ff" points="135.03,-75.04 124.47,-74.17 132.18,-81.44 135.03,-75.04"/>
</a>
</g>
</g>
<!-- Node31&#45;&gt;Node2 -->
<g id="edge58_Node000031_Node000002" class="edge">
<title>Node31&#45;&gt;Node2</title>
<g id="a_edge58_Node000031_Node000002"><a xlink:title=" ">
<path fill="none" stroke="#63b8ff" d="M805.92,-280.16C748.73,-275.27 662.29,-263.89 642,-239 631.38,-225.97 638.37,-206.8 646.16,-192.94"/>
<polygon fill="#63b8ff" stroke="#63b8ff" points="649.21,-194.68 651.49,-184.33 643.25,-191 649.21,-194.68"/>
</a>
</g>
</g>
<!-- Node31&#45;&gt;Node8 -->
<g id="edge61_Node000031_Node000008" class="edge">
<title>Node31&#45;&gt;Node8</title>
<g id="a_edge61_Node000031_Node000008"><a xlink:title=" ">
<path fill="none" stroke="#63b8ff" d="M890.29,-274.98C928.23,-264.98 990.72,-248.5 1028.06,-238.66"/>
<polygon fill="#63b8ff" stroke="#63b8ff" points="1029.11,-242 1037.88,-236.07 1027.32,-235.23 1029.11,-242"/>
</a>
</g>
</g>
<!-- Node31&#45;&gt;Node13 -->
<g id="edge63_Node000031_Node000013" class="edge">
<title>Node31&#45;&gt;Node13</title>
<g id="a_edge63_Node000031_Node000013"><a xlink:title=" ">
<path fill="none" stroke="#63b8ff" d="M805.55,-277.92C757.35,-271.58 691.01,-259.37 675,-239 654.21,-212.54 706.53,-194.85 691,-165 668.3,-121.37 616.74,-92.91 582.4,-78.02"/>
<polygon fill="#63b8ff" stroke="#63b8ff" points="583.36,-74.62 572.78,-74 580.66,-81.08 583.36,-74.62"/>
</a>
</g>
</g>
<!-- Node31&#45;&gt;Node14 -->
<g id="edge64_Node000031_Node000014" class="edge">
<title>Node31&#45;&gt;Node14</title>
<g id="a_edge64_Node000031_Node000014"><a xlink:title=" ">
<path fill="none" stroke="#63b8ff" d="M805.77,-282.14C625.15,-276.75 38,-253.26 38,-175.5 38,-175.5 38,-175.5 38,-118.5 38,-89.04 35.11,-74.72 57,-55 81.42,-33.01 165.24,-21.23 226.06,-15.42"/>
<polygon fill="#63b8ff" stroke="#63b8ff" points="226.73,-18.87 236.37,-14.47 226.09,-11.9 226.73,-18.87"/>
</a>
</g>
</g>
<!-- Node31&#45;&gt;Node16 -->
<g id="edge69_Node000031_Node000016" class="edge">
<title>Node31&#45;&gt;Node16</title>
<g id="a_edge69_Node000031_Node000016"><a xlink:title=" ">
<path fill="none" stroke="#63b8ff" d="M863.03,-275C869.7,-262.54 879.78,-238.77 872,-220 855.31,-179.7 812.21,-150.12 783.51,-134.12"/>
<polygon fill="#63b8ff" stroke="#63b8ff" points="784.85,-130.87 774.39,-129.22 781.54,-137.03 784.85,-130.87"/>
</a>
</g>
</g>
<!-- Node31&#45;&gt;Node17 -->
<g id="edge59_Node000031_Node000017" class="edge">
<title>Node31&#45;&gt;Node17</title>
<g id="a_edge59_Node000031_Node000017"><a xlink:title=" ">
<path fill="none" stroke="#63b8ff" d="M857.21,-274.92C855.66,-261.94 851.2,-237.02 839,-220 798.34,-163.26 762.7,-175.89 711,-129 674.83,-96.2 638.85,-51.29 620.5,-27.27"/>
<polygon fill="#63b8ff" stroke="#63b8ff" points="623.19,-25.02 614.37,-19.16 617.61,-29.24 623.19,-25.02"/>
</a>
</g>
</g>
<!-- Node31&#45;&gt;Node19 -->
<g id="edge65_Node000031_Node000019" class="edge">
<title>Node31&#45;&gt;Node19</title>
<g id="a_edge65_Node000031_Node000019"><a xlink:title=" ">
<path fill="none" stroke="#63b8ff" d="M870.18,-274.95C913.7,-243.41 1055.49,-131.51 991,-55 987.8,-51.2 869.06,-31.97 793.48,-20.07"/>
<polygon fill="#63b8ff" stroke="#63b8ff" points="794,-16.61 783.57,-18.51 792.91,-23.52 794,-16.61"/>
</a>
</g>
</g>
<!-- Node31&#45;&gt;Node20 -->
<g id="edge67_Node000031_Node000020" class="edge">
<title>Node31&#45;&gt;Node20</title>
<g id="a_edge67_Node000031_Node000020"><a xlink:title=" ">
<path fill="none" stroke="#63b8ff" d="M864.94,-274.8C871.5,-266.18 881.19,-252.36 887,-239 910.26,-185.52 922.54,-117.07 927.43,-84.44"/>
<polygon fill="#63b8ff" stroke="#63b8ff" points="930.95,-84.53 928.9,-74.13 924.02,-83.54 930.95,-84.53"/>
</a>
</g>
</g>
<!-- Node31&#45;&gt;Node23 -->
<g id="edge66_Node000031_Node000023" class="edge">
<title>Node31&#45;&gt;Node23</title>
<g id="a_edge66_Node000031_Node000023"><a xlink:title=" ">
<path fill="none" stroke="#63b8ff" d="M877.72,-274.86C894.82,-266.88 919.77,-254.01 939,-239 965.28,-218.49 970.92,-211.34 990,-184 1024.53,-134.52 1040.28,-63.14 1046.12,-29.46"/>
<polygon fill="#63b8ff" stroke="#63b8ff" points="1049.64,-29.65 1047.79,-19.21 1042.73,-28.52 1049.64,-29.65"/>
</a>
</g>
</g>
<!-- Node31&#45;&gt;Node24 -->
<g id="edge68_Node000031_Node000024" class="edge">
<title>Node31&#45;&gt;Node24</title>
<g id="a_edge68_Node000031_Node000024"><a xlink:title=" ">
<path fill="none" stroke="#63b8ff" d="M806,-275.74C741.15,-266.06 630.55,-249.54 562.42,-239.37"/>
<polygon fill="#63b8ff" stroke="#63b8ff" points="562.69,-235.87 552.28,-237.86 561.65,-242.8 562.69,-235.87"/>
</a>
</g>
</g>
<!-- Node32 -->
<g id="Node000032" class="node">
<title>Node32</title>
<g id="a_Node000032"><a xlink:title=" ">
<polygon fill="#e0e0e0" stroke="#999999" points="746,-239 684,-239 684,-220 746,-220 746,-239"/>
<text text-anchor="middle" x="715" y="-227" font-family="Helvetica,sans-Serif" font-size="10.00">stdbool.h</text>
</a>
</g>
</g>
<!-- Node31&#45;&gt;Node32 -->
<g id="edge60_Node000031_Node000032" class="edge">
<title>Node31&#45;&gt;Node32</title>
<g id="a_edge60_Node000031_Node000032"><a xlink:title=" ">
<path fill="none" stroke="#63b8ff" d="M835.02,-274.98C811.5,-266.27 774.71,-252.63 748.06,-242.75"/>
<polygon fill="#63b8ff" stroke="#63b8ff" points="748.99,-239.36 738.39,-239.17 746.55,-245.93 748.99,-239.36"/>
</a>
</g>
</g>
<!-- Node33 -->
<g id="Node000033" class="node">
<title>Node33</title>
<g id="a_Node000033"><a xlink:title=" ">
<polygon fill="#e0e0e0" stroke="#999999" points="829.5,-239 764.5,-239 764.5,-220 829.5,-220 829.5,-239"/>
<text text-anchor="middle" x="797" y="-227" font-family="Helvetica,sans-Serif" font-size="10.00">functional</text>
</a>
</g>
</g>
<!-- Node31&#45;&gt;Node33 -->
<g id="edge62_Node000031_Node000033" class="edge">
<title>Node31&#45;&gt;Node33</title>
<g id="a_edge62_Node000031_Node000033"><a xlink:title=" ">
<path fill="none" stroke="#63b8ff" d="M848.2,-274.98C839.18,-267.15 825.59,-255.34 814.68,-245.86"/>
<polygon fill="#63b8ff" stroke="#63b8ff" points="816.82,-243.09 806.98,-239.17 812.23,-248.37 816.82,-243.09"/>
</a>
</g>
</g>
</g>
</svg>

<g id="navigator" transform="translate(0 0)" fill="#404254">
  <rect fill="#f2f5e9" fill-opacity="0.5" stroke="#606060" stroke-width=".5" x="0" y="0" width="60" height="60"/>
  <use id="zoomplus" xlink:href="#zoomPlus" x="17" y="9" onmousedown="handleZoom(evt,'in')"/>
  <use id="zoomminus" xlink:href="#zoomMin" x="42" y="9" onmousedown="handleZoom(evt,'out')"/>
  <use id="reset" xlink:href="#resetDef" x="30" y="36" onmousedown="handleReset()"/>
   <use id="arrowup" xlink:href="#arrowUp" x="0" y="0" onmousedown="handlePan(0,-1)"/>
  <use id="arrowright" xlink:href="#arrowRight" x="0" y="0" onmousedown="handlePan(1,0)"/>
  <use id="arrowdown" xlink:href="#arrowDown" x="0" y="0" onmousedown="handlePan(0,1)"/>
  <use id="arrowleft" xlink:href="#arrowLeft" x="0" y="0" onmousedown="handlePan(-1,0)"/>
</g>
<svg viewBox="0 0 15 15" width="100%" height="30px" preserveAspectRatio="xMaxYMin meet">
 <g id="arrow_out" transform="scale(0.3 0.3)">
  <a xlink:href="TimeManager_8cpp__incl_org.svg" target="_base">
   <rect id="button" ry="5" rx="5" y="6" x="6" height="38" width="38"
        fill="#f2f5e9" fill-opacity="0.5" stroke="#606060" stroke-width="1.0"/>
   <path id="arrow"
     d="M 11.500037,31.436501 C 11.940474,20.09759 22.043105,11.32322 32.158766,21.979434 L 37.068811,17.246167 C 37.068811,17.246167 37.088388,32 37.088388,32 L 22.160133,31.978069 C 22.160133,31.978069 26.997745,27.140456 26.997745,27.140456 C 18.528582,18.264221 13.291696,25.230495 11.500037,31.436501 z"
     style="fill:#404040;"/>
  </a>
 </g>
</svg>

<style type='text/css'>
<![CDATA[
[data-mouse-over-selected='false'] { opacity: 0.7; }
[data-mouse-over-selected='true']  { opacity: 1.0; }
]]>
</style>
<script type="application/ecmascript"><![CDATA[
document.addEventListener('DOMContentLoaded', (event) => {
  highlightEdges();
  highlightAdjacentNodes();
});
]]></script>
</svg>
