<?xml version="1.0" encoding="UTF-8" standalone="no"?>
<!DOCTYPE svg PUBLIC "-//W3C//DTD SVG 1.1//EN"
 "http://www.w3.org/Graphics/SVG/1.1/DTD/svg11.dtd">
<!-- Generated by graphviz version 2.43.0 (0)
 -->
<!-- Title: main/tool/include/ToolBox.hpp Pages: 1 -->
<svg width="1176pt" height="357pt"
 viewBox="0.00 0.00 1175.50 357.00" xmlns="http://www.w3.org/2000/svg" xmlns:xlink="http://www.w3.org/1999/xlink">
<g id="graph0" class="graph" transform="scale(1 1) rotate(0) translate(4 353)">
<title>main/tool/include/ToolBox.hpp</title>
<!-- Node1 -->
<g id="Node000001" class="node">
<title>Node1</title>
<g id="a_Node000001"><a xlink:title="The metabolic support and universal toolkit of the organism.">
<polygon fill="#999999" stroke="#666666" points="751,-349 587,-349 587,-330 751,-330 751,-349"/>
<text text-anchor="middle" x="669" y="-337" font-family="Helvetica,sans-Serif" font-size="10.00">main/tool/include/ToolBox.hpp</text>
</a>
</g>
</g>
<!-- Node2 -->
<g id="Node000002" class="node">
<title>Node2</title>
<g id="a_Node000002"><a xlink:title=" ">
<polygon fill="#e0e0e0" stroke="#999999" points="289.5,-19 236.5,-19 236.5,0 289.5,0 289.5,-19"/>
<text text-anchor="middle" x="263" y="-7" font-family="Helvetica,sans-Serif" font-size="10.00">stdint.h</text>
</a>
</g>
</g>
<!-- Node1&#45;&gt;Node2 -->
<g id="edge1_Node000001_Node000002" class="edge">
<title>Node1&#45;&gt;Node2</title>
<g id="a_edge1_Node000001_Node000002"><a xlink:title=" ">
<path fill="none" stroke="#63b8ff" d="M586.97,-333.7C408.33,-322.15 0,-289.32 0,-230.5 0,-230.5 0,-230.5 0,-118.5 0,-21.82 153.96,-9.86 226.28,-9.57"/>
<polygon fill="#63b8ff" stroke="#63b8ff" points="226.32,-13.07 236.33,-9.61 226.35,-6.07 226.32,-13.07"/>
</a>
</g>
</g>
<!-- Node3 -->
<g id="Node000003" class="node">
<title>Node3</title>
<g id="a_Node000003"><a xlink:title=" ">
<polygon fill="#e0e0e0" stroke="#999999" points="969,-184 921,-184 921,-165 969,-165 969,-184"/>
<text text-anchor="middle" x="945" y="-172" font-family="Helvetica,sans-Serif" font-size="10.00">time.h</text>
</a>
</g>
</g>
<!-- Node1&#45;&gt;Node3 -->
<g id="edge2_Node000001_Node000003" class="edge">
<title>Node1&#45;&gt;Node3</title>
<g id="a_edge2_Node000001_Node000003"><a xlink:title=" ">
<path fill="none" stroke="#63b8ff" d="M708.16,-329.97C736.27,-322.84 774.42,-311.08 805,-294 856.18,-265.42 906.14,-216.67 930.18,-191.54"/>
<polygon fill="#63b8ff" stroke="#63b8ff" points="932.72,-193.94 937.04,-184.26 927.63,-189.13 932.72,-193.94"/>
</a>
</g>
</g>
<!-- Node4 -->
<g id="Node000004" class="node">
<title>Node4</title>
<g id="a_Node000004"><a xlink:title=" ">
<polygon fill="#e0e0e0" stroke="#999999" points="541,-294 497,-294 497,-275 541,-275 541,-294"/>
<text text-anchor="middle" x="519" y="-282" font-family="Helvetica,sans-Serif" font-size="10.00">string</text>
</a>
</g>
</g>
<!-- Node1&#45;&gt;Node4 -->
<g id="edge3_Node000001_Node000004" class="edge">
<title>Node1&#45;&gt;Node4</title>
<g id="a_edge3_Node000001_Node000004"><a xlink:title=" ">
<path fill="none" stroke="#63b8ff" d="M644.9,-329.98C619.38,-320.97 578.97,-306.69 550.84,-296.75"/>
<polygon fill="#63b8ff" stroke="#63b8ff" points="551.68,-293.33 541.09,-293.3 549.35,-299.94 551.68,-293.33"/>
</a>
</g>
</g>
<!-- Node5 -->
<g id="Node000005" class="node">
<title>Node5</title>
<g id="a_Node000005"><a xlink:title=" ">
<polygon fill="#e0e0e0" stroke="#999999" points="407.5,-74 346.5,-74 346.5,-55 407.5,-55 407.5,-74"/>
<text text-anchor="middle" x="377" y="-62" font-family="Helvetica,sans-Serif" font-size="10.00">esp_err.h</text>
</a>
</g>
</g>
<!-- Node1&#45;&gt;Node5 -->
<g id="edge4_Node000001_Node000005" class="edge">
<title>Node1&#45;&gt;Node5</title>
<g id="a_edge4_Node000001_Node000005"><a xlink:title=" ">
<path fill="none" stroke="#63b8ff" d="M595.67,-329.96C536.54,-319.08 455.93,-294.46 410,-239 372.58,-193.81 372.66,-119.23 375.09,-84.45"/>
<polygon fill="#63b8ff" stroke="#63b8ff" points="378.6,-84.54 375.95,-74.28 371.62,-83.95 378.6,-84.54"/>
</a>
</g>
</g>
<!-- Node6 -->
<g id="Node000006" class="node">
<title>Node6</title>
<g id="a_Node000006"><a xlink:title=" ">
<polygon fill="#e0e0e0" stroke="#999999" points="773,-294 681,-294 681,-275 773,-275 773,-294"/>
<text text-anchor="middle" x="727" y="-282" font-family="Helvetica,sans-Serif" font-size="10.00">esp_task_wdt.h</text>
</a>
</g>
</g>
<!-- Node1&#45;&gt;Node6 -->
<g id="edge5_Node000001_Node000006" class="edge">
<title>Node1&#45;&gt;Node6</title>
<g id="a_edge5_Node000001_Node000006"><a xlink:title=" ">
<path fill="none" stroke="#63b8ff" d="M678.32,-329.98C686.81,-322.23 699.56,-310.58 709.88,-301.14"/>
<polygon fill="#63b8ff" stroke="#63b8ff" points="712.49,-303.5 717.51,-294.17 707.77,-298.33 712.49,-303.5"/>
</a>
</g>
</g>
<!-- Node7 -->
<g id="Node000007" class="node">
<title>Node7</title>
<g id="a_Node000007"><a xlink:href="DataManager_8hpp.html" target="_top" xlink:title="The collective consciousness and unified system state mirror.">
<polygon fill="white" stroke="#666666" points="1018.5,-74 915.5,-74 915.5,-55 1018.5,-55 1018.5,-74"/>
<text text-anchor="middle" x="967" y="-62" font-family="Helvetica,sans-Serif" font-size="10.00">DataManager.hpp</text>
</a>
</g>
</g>
<!-- Node1&#45;&gt;Node7 -->
<g id="edge6_Node000001_Node000007" class="edge">
<title>Node1&#45;&gt;Node7</title>
<g id="a_edge6_Node000001_Node000007"><a xlink:title=" ">
<path fill="none" stroke="#63b8ff" d="M751.28,-333.97C873.3,-324.96 1088,-299.33 1088,-230.5 1088,-230.5 1088,-230.5 1088,-173.5 1088,-126.14 1035.77,-94.4 999.94,-78.19"/>
<polygon fill="#63b8ff" stroke="#63b8ff" points="1000.9,-74.79 990.33,-74.03 998.12,-81.21 1000.9,-74.79"/>
</a>
</g>
</g>
<!-- Node15 -->
<g id="Node000015" class="node">
<title>Node15</title>
<g id="a_Node000015"><a xlink:href="BusManager_8hpp.html" target="_top" xlink:title="The peripheral nervous system managing all communication pathways.">
<polygon fill="white" stroke="#666666" points="798,-184 700,-184 700,-165 798,-165 798,-184"/>
<text text-anchor="middle" x="749" y="-172" font-family="Helvetica,sans-Serif" font-size="10.00">BusManager.hpp</text>
</a>
</g>
</g>
<!-- Node1&#45;&gt;Node15 -->
<g id="edge15_Node000001_Node000015" class="edge">
<title>Node1&#45;&gt;Node15</title>
<g id="a_edge15_Node000001_Node000015"><a xlink:title=" ">
<path fill="none" stroke="#63b8ff" d="M711.65,-329.96C734.84,-323.45 762.66,-312.37 782,-294 807.17,-270.09 822.35,-251.13 807,-220 800.51,-206.85 788.07,-196.5 776.36,-189.11"/>
<polygon fill="#63b8ff" stroke="#63b8ff" points="778.07,-186.05 767.67,-184.03 774.54,-192.1 778.07,-186.05"/>
</a>
</g>
</g>
<!-- Node23 -->
<g id="Node000023" class="node">
<title>Node23</title>
<g id="a_Node000023"><a xlink:href="TimeManager_8hpp.html" target="_top" xlink:title="The biological clock and circadian rhythm (pacemaker) of the organism.">
<polygon fill="white" stroke="#666666" points="663,-294 559,-294 559,-275 663,-275 663,-294"/>
<text text-anchor="middle" x="611" y="-282" font-family="Helvetica,sans-Serif" font-size="10.00">TimeManager.hpp</text>
</a>
</g>
</g>
<!-- Node1&#45;&gt;Node23 -->
<g id="edge43_Node000001_Node000023" class="edge">
<title>Node1&#45;&gt;Node23</title>
<g id="a_edge43_Node000001_Node000023"><a xlink:title=" ">
<path fill="none" stroke="#63b8ff" d="M659.68,-329.98C651.19,-322.23 638.44,-310.58 628.12,-301.14"/>
<polygon fill="#63b8ff" stroke="#63b8ff" points="630.23,-298.33 620.49,-294.17 625.51,-303.5 630.23,-298.33"/>
</a>
</g>
</g>
<!-- Node7&#45;&gt;Node2 -->
<g id="edge7_Node000007_Node000002" class="edge">
<title>Node7&#45;&gt;Node2</title>
<g id="a_edge7_Node000007_Node000002"><a xlink:title=" ">
<path fill="none" stroke="#63b8ff" d="M915.45,-56.06C912.25,-55.68 909.08,-55.32 906,-55 845.72,-48.72 426.91,-21.2 299.62,-12.88"/>
<polygon fill="#63b8ff" stroke="#63b8ff" points="299.79,-9.39 289.59,-12.23 299.34,-16.37 299.79,-9.39"/>
</a>
</g>
</g>
<!-- Node8 -->
<g id="Node000008" class="node">
<title>Node8</title>
<g id="a_Node000008"><a xlink:title=" ">
<polygon fill="#e0e0e0" stroke="#999999" points="979.5,-19 926.5,-19 926.5,0 979.5,0 979.5,-19"/>
<text text-anchor="middle" x="953" y="-7" font-family="Helvetica,sans-Serif" font-size="10.00">string.h</text>
</a>
</g>
</g>
<!-- Node7&#45;&gt;Node8 -->
<g id="edge8_Node000007_Node000008" class="edge">
<title>Node7&#45;&gt;Node8</title>
<g id="a_edge8_Node000007_Node000008"><a xlink:title=" ">
<path fill="none" stroke="#63b8ff" d="M964.69,-54.75C962.83,-47.72 960.16,-37.62 957.85,-28.84"/>
<polygon fill="#63b8ff" stroke="#63b8ff" points="961.21,-27.86 955.27,-19.09 954.44,-29.65 961.21,-27.86"/>
</a>
</g>
</g>
<!-- Node9 -->
<g id="Node000009" class="node">
<title>Node9</title>
<g id="a_Node000009"><a xlink:title=" ">
<polygon fill="#e0e0e0" stroke="#999999" points="1066.5,-19 997.5,-19 997.5,0 1066.5,0 1066.5,-19"/>
<text text-anchor="middle" x="1032" y="-7" font-family="Helvetica,sans-Serif" font-size="10.00">type_traits</text>
</a>
</g>
</g>
<!-- Node7&#45;&gt;Node9 -->
<g id="edge9_Node000007_Node000009" class="edge">
<title>Node7&#45;&gt;Node9</title>
<g id="a_edge9_Node000007_Node000009"><a xlink:title=" ">
<path fill="none" stroke="#63b8ff" d="M977.44,-54.98C987.15,-47.07 1001.82,-35.11 1013.5,-25.58"/>
<polygon fill="#63b8ff" stroke="#63b8ff" points="1015.83,-28.2 1021.37,-19.17 1011.4,-22.78 1015.83,-28.2"/>
</a>
</g>
</g>
<!-- Node10 -->
<g id="Node000010" class="node">
<title>Node10</title>
<g id="a_Node000010"><a xlink:title=" ">
<polygon fill="#e0e0e0" stroke="#999999" points="524.5,-19 411.5,-19 411.5,0 524.5,0 524.5,-19"/>
<text text-anchor="middle" x="468" y="-7" font-family="Helvetica,sans-Serif" font-size="10.00">freertos/FreeRTOS.h</text>
</a>
</g>
</g>
<!-- Node7&#45;&gt;Node10 -->
<g id="edge10_Node000007_Node000010" class="edge">
<title>Node7&#45;&gt;Node10</title>
<g id="a_edge10_Node000007_Node000010"><a xlink:title=" ">
<path fill="none" stroke="#63b8ff" d="M915.44,-56.16C912.24,-55.75 909.08,-55.36 906,-55 743.83,-35.88 700.18,-37.72 534.74,-19.16"/>
<polygon fill="#63b8ff" stroke="#63b8ff" points="535.04,-15.67 524.71,-18.03 534.25,-22.63 535.04,-15.67"/>
</a>
</g>
</g>
<!-- Node11 -->
<g id="Node000011" class="node">
<title>Node11</title>
<g id="a_Node000011"><a xlink:title=" ">
<polygon fill="#e0e0e0" stroke="#999999" points="645.5,-19 542.5,-19 542.5,0 645.5,0 645.5,-19"/>
<text text-anchor="middle" x="594" y="-7" font-family="Helvetica,sans-Serif" font-size="10.00">freertos/semphr.h</text>
</a>
</g>
</g>
<!-- Node7&#45;&gt;Node11 -->
<g id="edge11_Node000007_Node000011" class="edge">
<title>Node7&#45;&gt;Node11</title>
<g id="a_edge11_Node000007_Node000011"><a xlink:title=" ">
<path fill="none" stroke="#63b8ff" d="M915.14,-56.13C847.17,-46.47 728.12,-29.56 655.63,-19.26"/>
<polygon fill="#63b8ff" stroke="#63b8ff" points="656.12,-15.79 645.72,-17.85 655.13,-22.72 656.12,-15.79"/>
</a>
</g>
</g>
<!-- Node12 -->
<g id="Node000012" class="node">
<title>Node12</title>
<g id="a_Node000012"><a xlink:title=" ">
<polygon fill="#e0e0e0" stroke="#999999" points="827,-19 727,-19 727,0 827,0 827,-19"/>
<text text-anchor="middle" x="777" y="-7" font-family="Helvetica,sans-Serif" font-size="10.00">esp_heap_caps.h</text>
</a>
</g>
</g>
<!-- Node7&#45;&gt;Node12 -->
<g id="edge12_Node000007_Node000012" class="edge">
<title>Node7&#45;&gt;Node12</title>
<g id="a_edge12_Node000007_Node000012"><a xlink:title=" ">
<path fill="none" stroke="#63b8ff" d="M936.47,-54.98C904.3,-46.01 853.44,-31.82 817.83,-21.89"/>
<polygon fill="#63b8ff" stroke="#63b8ff" points="818.34,-18.4 807.77,-19.08 816.46,-25.14 818.34,-18.4"/>
</a>
</g>
</g>
<!-- Node13 -->
<g id="Node000013" class="node">
<title>Node13</title>
<g id="a_Node000013"><a xlink:title=" ">
<polygon fill="#e0e0e0" stroke="#999999" points="908.5,-19 845.5,-19 845.5,0 908.5,0 908.5,-19"/>
<text text-anchor="middle" x="877" y="-7" font-family="Helvetica,sans-Serif" font-size="10.00">esp_log.h</text>
</a>
</g>
</g>
<!-- Node7&#45;&gt;Node13 -->
<g id="edge13_Node000007_Node000013" class="edge">
<title>Node7&#45;&gt;Node13</title>
<g id="a_edge13_Node000007_Node000013"><a xlink:title=" ">
<path fill="none" stroke="#63b8ff" d="M952.54,-54.98C938.58,-46.77 917.21,-34.18 900.75,-24.49"/>
<polygon fill="#63b8ff" stroke="#63b8ff" points="902.12,-21.23 891.72,-19.17 898.56,-27.26 902.12,-21.23"/>
</a>
</g>
</g>
<!-- Node14 -->
<g id="Node000014" class="node">
<title>Node14</title>
<g id="a_Node000014"><a xlink:href="IManager_8hpp.html" target="_top" xlink:title="The abstract behavioral contract for all managers.">
<polygon fill="white" stroke="#666666" points="1167.5,-19 1084.5,-19 1084.5,0 1167.5,0 1167.5,-19"/>
<text text-anchor="middle" x="1126" y="-7" font-family="Helvetica,sans-Serif" font-size="10.00">IManager.hpp</text>
</a>
</g>
</g>
<!-- Node7&#45;&gt;Node14 -->
<g id="edge14_Node000007_Node000014" class="edge">
<title>Node7&#45;&gt;Node14</title>
<g id="a_edge14_Node000007_Node000014"><a xlink:title=" ">
<path fill="none" stroke="#63b8ff" d="M992.55,-54.98C1019.12,-46.13 1060.94,-32.19 1090.67,-22.28"/>
<polygon fill="#63b8ff" stroke="#63b8ff" points="1091.87,-25.56 1100.25,-19.08 1089.66,-18.92 1091.87,-25.56"/>
</a>
</g>
</g>
<!-- Node15&#45;&gt;Node5 -->
<g id="edge16_Node000015_Node000005" class="edge">
<title>Node15&#45;&gt;Node5</title>
<g id="a_edge16_Node000015_Node000005"><a xlink:title=" ">
<path fill="none" stroke="#63b8ff" d="M702.36,-164.94C663.91,-157.3 608.21,-144.87 561,-129 541.2,-122.34 537.55,-117.38 518,-110 484.53,-97.37 445.7,-85.3 417.28,-76.92"/>
<polygon fill="#63b8ff" stroke="#63b8ff" points="417.89,-73.46 407.31,-74.01 415.93,-80.18 417.89,-73.46"/>
</a>
</g>
</g>
<!-- Node15&#45;&gt;Node7 -->
<g id="edge21_Node000015_Node000007" class="edge">
<title>Node15&#45;&gt;Node7</title>
<g id="a_edge21_Node000015_Node000007"><a xlink:title=" ">
<path fill="none" stroke="#63b8ff" d="M794.1,-164.99C824.01,-158.12 863.42,-146.64 895,-129 917.38,-116.5 938.86,-96.1 952.44,-81.8"/>
<polygon fill="#63b8ff" stroke="#63b8ff" points="955.25,-83.91 959.47,-74.2 950.11,-79.16 955.25,-83.91"/>
</a>
</g>
</g>
<!-- Node15&#45;&gt;Node14 -->
<g id="edge20_Node000015_Node000014" class="edge">
<title>Node15&#45;&gt;Node14</title>
<g id="a_edge20_Node000015_Node000014"><a xlink:title=" ">
<path fill="none" stroke="#63b8ff" d="M793.6,-164.99C829.07,-157.52 879.59,-145.31 922,-129 971.17,-110.09 981.45,-100.47 1027,-74 1054.43,-58.06 1085.04,-38.07 1104.86,-24.83"/>
<polygon fill="#63b8ff" stroke="#63b8ff" points="1107.06,-27.57 1113.41,-19.08 1103.15,-21.76 1107.06,-27.57"/>
</a>
</g>
</g>
<!-- Node16 -->
<g id="Node000016" class="node">
<title>Node16</title>
<g id="a_Node000016"><a xlink:title=" ">
<polygon fill="#e0e0e0" stroke="#999999" points="869.5,-129 798.5,-129 798.5,-110 869.5,-110 869.5,-129"/>
<text text-anchor="middle" x="834" y="-117" font-family="Helvetica,sans-Serif" font-size="10.00">driver/i2c.h</text>
</a>
</g>
</g>
<!-- Node15&#45;&gt;Node16 -->
<g id="edge17_Node000015_Node000016" class="edge">
<title>Node15&#45;&gt;Node16</title>
<g id="a_edge17_Node000015_Node000016"><a xlink:title=" ">
<path fill="none" stroke="#63b8ff" d="M762.66,-164.98C775.84,-156.77 796.03,-144.18 811.57,-134.49"/>
<polygon fill="#63b8ff" stroke="#63b8ff" points="813.46,-137.43 820.09,-129.17 809.76,-131.49 813.46,-137.43"/>
</a>
</g>
</g>
<!-- Node17 -->
<g id="Node000017" class="node">
<title>Node17</title>
<g id="a_Node000017"><a xlink:title=" ">
<polygon fill="#e0e0e0" stroke="#999999" points="688,-74 578,-74 578,-55 688,-55 688,-74"/>
<text text-anchor="middle" x="633" y="-62" font-family="Helvetica,sans-Serif" font-size="10.00">driver/spi_master.h</text>
</a>
</g>
</g>
<!-- Node15&#45;&gt;Node17 -->
<g id="edge18_Node000015_Node000017" class="edge">
<title>Node15&#45;&gt;Node17</title>
<g id="a_edge18_Node000015_Node000017"><a xlink:title=" ">
<path fill="none" stroke="#63b8ff" d="M735.51,-164.7C722.92,-156.22 703.9,-142.69 689,-129 673.02,-114.32 656.84,-95.45 646.01,-82.1"/>
<polygon fill="#63b8ff" stroke="#63b8ff" points="648.7,-79.86 639.72,-74.23 643.23,-84.23 648.7,-79.86"/>
</a>
</g>
</g>
<!-- Node18 -->
<g id="Node000018" class="node">
<title>Node18</title>
<g id="a_Node000018"><a xlink:title=" ">
<polygon fill="#e0e0e0" stroke="#999999" points="897.5,-74 820.5,-74 820.5,-55 897.5,-55 897.5,-74"/>
<text text-anchor="middle" x="859" y="-62" font-family="Helvetica,sans-Serif" font-size="10.00">driver/uart.h</text>
</a>
</g>
</g>
<!-- Node15&#45;&gt;Node18 -->
<g id="edge19_Node000015_Node000018" class="edge">
<title>Node15&#45;&gt;Node18</title>
<g id="a_edge19_Node000015_Node000018"><a xlink:title=" ">
<path fill="none" stroke="#63b8ff" d="M798.02,-170.16C826.37,-165.42 859.92,-154.37 878,-129 887.88,-115.14 880,-96.11 871.59,-82.5"/>
<polygon fill="#63b8ff" stroke="#63b8ff" points="874.39,-80.4 865.89,-74.08 868.6,-84.32 874.39,-80.4"/>
</a>
</g>
</g>
<!-- Node19 -->
<g id="Node000019" class="node">
<title>Node19</title>
<g id="a_Node000019"><a xlink:href="I2CBus_8hpp.html" target="_top" xlink:title="Industrial I2C Master bus driver with health monitoring.">
<polygon fill="white" stroke="#666666" points="315.5,-129 244.5,-129 244.5,-110 315.5,-110 315.5,-129"/>
<text text-anchor="middle" x="280" y="-117" font-family="Helvetica,sans-Serif" font-size="10.00">I2CBus.hpp</text>
</a>
</g>
</g>
<!-- Node15&#45;&gt;Node19 -->
<g id="edge22_Node000015_Node000019" class="edge">
<title>Node15&#45;&gt;Node19</title>
<g id="a_edge22_Node000015_Node000019"><a xlink:title=" ">
<path fill="none" stroke="#63b8ff" d="M699.7,-167.93C608.41,-157.61 414.34,-135.68 325.78,-125.67"/>
<polygon fill="#63b8ff" stroke="#63b8ff" points="326.1,-122.19 315.77,-124.54 325.31,-129.14 326.1,-122.19"/>
</a>
</g>
</g>
<!-- Node21 -->
<g id="Node000021" class="node">
<title>Node21</title>
<g id="a_Node000021"><a xlink:href="SPIBus_8hpp.html" target="_top" xlink:title="Industrial SPI Master bus driver with health monitoring.">
<polygon fill="white" stroke="#666666" points="641.5,-129 570.5,-129 570.5,-110 641.5,-110 641.5,-129"/>
<text text-anchor="middle" x="606" y="-117" font-family="Helvetica,sans-Serif" font-size="10.00">SPIBus.hpp</text>
</a>
</g>
</g>
<!-- Node15&#45;&gt;Node21 -->
<g id="edge29_Node000015_Node000021" class="edge">
<title>Node15&#45;&gt;Node21</title>
<g id="a_edge29_Node000015_Node000021"><a xlink:title=" ">
<path fill="none" stroke="#63b8ff" d="M726.02,-164.98C702.5,-156.27 665.71,-142.63 639.06,-132.75"/>
<polygon fill="#63b8ff" stroke="#63b8ff" points="639.99,-129.36 629.39,-129.17 637.55,-135.93 639.99,-129.36"/>
</a>
</g>
</g>
<!-- Node22 -->
<g id="Node000022" class="node">
<title>Node22</title>
<g id="a_Node000022"><a xlink:href="UARTBus_8hpp.html" target="_top" xlink:title="Industrial UART bus driver with health monitoring.">
<polygon fill="white" stroke="#666666" points="780,-129 698,-129 698,-110 780,-110 780,-129"/>
<text text-anchor="middle" x="739" y="-117" font-family="Helvetica,sans-Serif" font-size="10.00">UARTBus.hpp</text>
</a>
</g>
</g>
<!-- Node15&#45;&gt;Node22 -->
<g id="edge36_Node000015_Node000022" class="edge">
<title>Node15&#45;&gt;Node22</title>
<g id="a_edge36_Node000015_Node000022"><a xlink:title=" ">
<path fill="none" stroke="#63b8ff" d="M747.35,-164.75C746.04,-157.8 744.16,-147.85 742.52,-139.13"/>
<polygon fill="#63b8ff" stroke="#63b8ff" points="745.91,-138.27 740.62,-129.09 739.04,-139.56 745.91,-138.27"/>
</a>
</g>
</g>
<!-- Node19&#45;&gt;Node2 -->
<g id="edge23_Node000019_Node000002" class="edge">
<title>Node19&#45;&gt;Node2</title>
<g id="a_edge23_Node000019_Node000002"><a xlink:title=" ">
<path fill="none" stroke="#63b8ff" d="M244.21,-118.87C209.49,-117.08 158.42,-108.26 133,-74 106.43,-38.2 179.18,-21.52 226.31,-14.65"/>
<polygon fill="#63b8ff" stroke="#63b8ff" points="226.79,-18.12 236.22,-13.3 225.84,-11.19 226.79,-18.12"/>
</a>
</g>
</g>
<!-- Node19&#45;&gt;Node5 -->
<g id="edge27_Node000019_Node000005" class="edge">
<title>Node19&#45;&gt;Node5</title>
<g id="a_edge27_Node000019_Node000005"><a xlink:title=" ">
<path fill="none" stroke="#63b8ff" d="M295.58,-109.98C310.77,-101.69 334.1,-88.94 351.9,-79.22"/>
<polygon fill="#63b8ff" stroke="#63b8ff" points="354.03,-82.04 361.13,-74.17 350.68,-75.89 354.03,-82.04"/>
</a>
</g>
</g>
<!-- Node19&#45;&gt;Node7 -->
<g id="edge28_Node000019_Node000007" class="edge">
<title>Node19&#45;&gt;Node7</title>
<g id="a_edge28_Node000019_Node000007"><a xlink:title=" ">
<path fill="none" stroke="#63b8ff" d="M315.72,-116.81C410.09,-112.15 674.08,-97.97 905.16,-74.01"/>
<polygon fill="#63b8ff" stroke="#63b8ff" points="905.86,-77.45 915.45,-72.93 905.14,-70.49 905.86,-77.45"/>
</a>
</g>
</g>
<!-- Node19&#45;&gt;Node10 -->
<g id="edge25_Node000019_Node000010" class="edge">
<title>Node19&#45;&gt;Node10</title>
<g id="a_edge25_Node000019_Node000010"><a xlink:title=" ">
<path fill="none" stroke="#63b8ff" d="M280.82,-109.72C282.57,-96 287.95,-69.58 304,-55 330.43,-31.01 368.5,-19.75 401.32,-14.56"/>
<polygon fill="#63b8ff" stroke="#63b8ff" points="401.91,-18.01 411.31,-13.13 400.92,-11.08 401.91,-18.01"/>
</a>
</g>
</g>
<!-- Node19&#45;&gt;Node11 -->
<g id="edge26_Node000019_Node000011" class="edge">
<title>Node19&#45;&gt;Node11</title>
<g id="a_edge26_Node000019_Node000011"><a xlink:title=" ">
<path fill="none" stroke="#63b8ff" d="M285.05,-109.85C293.72,-95.82 312.89,-68.34 337,-55 345.54,-50.28 459.12,-31.73 532.4,-20.13"/>
<polygon fill="#63b8ff" stroke="#63b8ff" points="533.13,-23.56 542.46,-18.54 532.03,-16.64 533.13,-23.56"/>
</a>
</g>
</g>
<!-- Node20 -->
<g id="Node000020" class="node">
<title>Node20</title>
<g id="a_Node000020"><a xlink:title=" ">
<polygon fill="#e0e0e0" stroke="#999999" points="252,-74 142,-74 142,-55 252,-55 252,-74"/>
<text text-anchor="middle" x="197" y="-62" font-family="Helvetica,sans-Serif" font-size="10.00">driver/i2c_master.h</text>
</a>
</g>
</g>
<!-- Node19&#45;&gt;Node20 -->
<g id="edge24_Node000019_Node000020" class="edge">
<title>Node19&#45;&gt;Node20</title>
<g id="a_edge24_Node000019_Node000020"><a xlink:title=" ">
<path fill="none" stroke="#63b8ff" d="M266.66,-109.98C253.91,-101.84 234.45,-89.41 219.33,-79.76"/>
<polygon fill="#63b8ff" stroke="#63b8ff" points="220.89,-76.6 210.58,-74.17 217.12,-82.5 220.89,-76.6"/>
</a>
</g>
</g>
<!-- Node21&#45;&gt;Node2 -->
<g id="edge30_Node000021_Node000002" class="edge">
<title>Node21&#45;&gt;Node2</title>
<g id="a_edge30_Node000021_Node000002"><a xlink:title=" ">
<path fill="none" stroke="#63b8ff" d="M581.51,-109.97C545.41,-97.48 475.76,-73.67 416,-55 376.38,-42.62 330.65,-29.47 299.58,-20.7"/>
<polygon fill="#63b8ff" stroke="#63b8ff" points="300.2,-17.24 289.63,-17.9 298.31,-23.98 300.2,-17.24"/>
</a>
</g>
</g>
<!-- Node21&#45;&gt;Node5 -->
<g id="edge34_Node000021_Node000005" class="edge">
<title>Node21&#45;&gt;Node5</title>
<g id="a_edge34_Node000021_Node000005"><a xlink:title=" ">
<path fill="none" stroke="#63b8ff" d="M570.22,-110.22C528.88,-100.65 461,-84.94 417.68,-74.92"/>
<polygon fill="#63b8ff" stroke="#63b8ff" points="418.3,-71.47 407.77,-72.62 416.72,-78.29 418.3,-71.47"/>
</a>
</g>
</g>
<!-- Node21&#45;&gt;Node7 -->
<g id="edge35_Node000021_Node000007" class="edge">
<title>Node21&#45;&gt;Node7</title>
<g id="a_edge35_Node000021_Node000007"><a xlink:title=" ">
<path fill="none" stroke="#63b8ff" d="M641.6,-113.27C702.97,-104.26 829.39,-85.7 905.32,-74.56"/>
<polygon fill="#63b8ff" stroke="#63b8ff" points="905.85,-78.02 915.23,-73.1 904.83,-71.09 905.85,-78.02"/>
</a>
</g>
</g>
<!-- Node21&#45;&gt;Node10 -->
<g id="edge32_Node000021_Node000010" class="edge">
<title>Node21&#45;&gt;Node10</title>
<g id="a_edge32_Node000021_Node000010"><a xlink:title=" ">
<path fill="none" stroke="#63b8ff" d="M594.71,-109.66C571.14,-91.22 516.49,-48.45 487.26,-25.57"/>
<polygon fill="#63b8ff" stroke="#63b8ff" points="489.1,-22.57 479.06,-19.16 484.78,-28.08 489.1,-22.57"/>
</a>
</g>
</g>
<!-- Node21&#45;&gt;Node11 -->
<g id="edge33_Node000021_Node000011" class="edge">
<title>Node21&#45;&gt;Node11</title>
<g id="a_edge33_Node000021_Node000011"><a xlink:title=" ">
<path fill="none" stroke="#63b8ff" d="M595.56,-109.87C586.58,-101.7 574.26,-88.55 569,-74 563.23,-58.04 571.74,-40.06 580.36,-27.32"/>
<polygon fill="#63b8ff" stroke="#63b8ff" points="583.33,-29.19 586.46,-19.07 577.7,-25.03 583.33,-29.19"/>
</a>
</g>
</g>
<!-- Node21&#45;&gt;Node17 -->
<g id="edge31_Node000021_Node000017" class="edge">
<title>Node21&#45;&gt;Node17</title>
<g id="a_edge31_Node000021_Node000017"><a xlink:title=" ">
<path fill="none" stroke="#63b8ff" d="M610.46,-109.75C614.12,-102.57 619.41,-92.18 623.95,-83.27"/>
<polygon fill="#63b8ff" stroke="#63b8ff" points="627.2,-84.59 628.62,-74.09 620.97,-81.41 627.2,-84.59"/>
</a>
</g>
</g>
<!-- Node22&#45;&gt;Node2 -->
<g id="edge37_Node000022_Node000002" class="edge">
<title>Node22&#45;&gt;Node2</title>
<g id="a_edge37_Node000022_Node000002"><a xlink:title=" ">
<path fill="none" stroke="#63b8ff" d="M736.01,-109.71C730.67,-95.48 718.03,-67.73 697,-55 680.06,-44.75 401.25,-21.56 299.66,-13.4"/>
<polygon fill="#63b8ff" stroke="#63b8ff" points="299.8,-9.9 289.56,-12.59 299.25,-16.88 299.8,-9.9"/>
</a>
</g>
</g>
<!-- Node22&#45;&gt;Node5 -->
<g id="edge41_Node000022_Node000005" class="edge">
<title>Node22&#45;&gt;Node5</title>
<g id="a_edge41_Node000022_Node000005"><a xlink:title=" ">
<path fill="none" stroke="#63b8ff" d="M697.83,-112.47C628.03,-102.25 487.29,-81.65 417.77,-71.47"/>
<polygon fill="#63b8ff" stroke="#63b8ff" points="418.04,-67.97 407.64,-69.99 417.03,-74.9 418.04,-67.97"/>
</a>
</g>
</g>
<!-- Node22&#45;&gt;Node7 -->
<g id="edge42_Node000022_Node000007" class="edge">
<title>Node22&#45;&gt;Node7</title>
<g id="a_edge42_Node000022_Node000007"><a xlink:title=" ">
<path fill="none" stroke="#63b8ff" d="M775.63,-109.98C814.91,-100.86 877.37,-86.33 920.19,-76.38"/>
<polygon fill="#63b8ff" stroke="#63b8ff" points="921.13,-79.76 930.08,-74.08 919.55,-72.94 921.13,-79.76"/>
</a>
</g>
</g>
<!-- Node22&#45;&gt;Node10 -->
<g id="edge39_Node000022_Node000010" class="edge">
<title>Node22&#45;&gt;Node10</title>
<g id="a_edge39_Node000022_Node000010"><a xlink:title=" ">
<path fill="none" stroke="#63b8ff" d="M740.65,-109.74C742.69,-96.06 744.29,-69.68 730,-55 723.17,-47.98 610.04,-30.68 534.69,-19.84"/>
<polygon fill="#63b8ff" stroke="#63b8ff" points="535.18,-16.37 524.78,-18.42 534.19,-23.3 535.18,-16.37"/>
</a>
</g>
</g>
<!-- Node22&#45;&gt;Node11 -->
<g id="edge40_Node000022_Node000011" class="edge">
<title>Node22&#45;&gt;Node11</title>
<g id="a_edge40_Node000022_Node000011"><a xlink:title=" ">
<path fill="none" stroke="#63b8ff" d="M748.69,-109.59C761.61,-96.62 781.38,-72.23 768,-55 754.12,-37.12 700.01,-25.21 655.78,-18.25"/>
<polygon fill="#63b8ff" stroke="#63b8ff" points="656.05,-14.75 645.64,-16.71 655,-21.67 656.05,-14.75"/>
</a>
</g>
</g>
<!-- Node22&#45;&gt;Node18 -->
<g id="edge38_Node000022_Node000018" class="edge">
<title>Node22&#45;&gt;Node18</title>
<g id="a_edge38_Node000022_Node000018"><a xlink:title=" ">
<path fill="none" stroke="#63b8ff" d="M758.28,-109.98C777.67,-101.42 807.81,-88.11 830.07,-78.28"/>
<polygon fill="#63b8ff" stroke="#63b8ff" points="831.64,-81.41 839.37,-74.17 828.81,-75.01 831.64,-81.41"/>
</a>
</g>
</g>
<!-- Node23&#45;&gt;Node2 -->
<g id="edge45_Node000023_Node000002" class="edge">
<title>Node23&#45;&gt;Node2</title>
<g id="a_edge45_Node000023_Node000002"><a xlink:title=" ">
<path fill="none" stroke="#63b8ff" d="M558.77,-276.13C555.8,-275.74 552.86,-275.36 550,-275 435,-260.5 38,-291.41 38,-175.5 38,-175.5 38,-175.5 38,-118.5 38,-36 162.46,-16.48 226.25,-11.89"/>
<polygon fill="#63b8ff" stroke="#63b8ff" points="226.55,-15.38 236.31,-11.25 226.11,-8.39 226.55,-15.38"/>
</a>
</g>
</g>
<!-- Node23&#45;&gt;Node3 -->
<g id="edge44_Node000023_Node000003" class="edge">
<title>Node23&#45;&gt;Node3</title>
<g id="a_edge44_Node000023_Node000003"><a xlink:title=" ">
<path fill="none" stroke="#63b8ff" d="M661.74,-274.98C701.79,-267.55 758.76,-255.38 807,-239 847.93,-225.11 893,-202.98 920.15,-188.85"/>
<polygon fill="#63b8ff" stroke="#63b8ff" points="922.08,-191.79 929.3,-184.04 918.82,-185.6 922.08,-191.79"/>
</a>
</g>
</g>
<!-- Node23&#45;&gt;Node5 -->
<g id="edge49_Node000023_Node000005" class="edge">
<title>Node23&#45;&gt;Node5</title>
<g id="a_edge49_Node000023_Node000005"><a xlink:title=" ">
<path fill="none" stroke="#63b8ff" d="M566.13,-274.94C515.54,-264.92 438.99,-248.49 429,-239 385.17,-197.36 377.84,-120.4 376.91,-84.66"/>
<polygon fill="#63b8ff" stroke="#63b8ff" points="380.41,-84.2 376.8,-74.24 373.41,-84.27 380.41,-84.2"/>
</a>
</g>
</g>
<!-- Node23&#45;&gt;Node7 -->
<g id="edge53_Node000023_Node000007" class="edge">
<title>Node23&#45;&gt;Node7</title>
<g id="a_edge53_Node000023_Node000007"><a xlink:title=" ">
<path fill="none" stroke="#63b8ff" d="M662.36,-274.99C720.53,-265.14 811.57,-248.98 845,-239 906.29,-220.71 942.45,-237.18 978,-184 998.4,-153.49 985.19,-108.27 975.2,-83.44"/>
<polygon fill="#63b8ff" stroke="#63b8ff" points="978.37,-81.96 971.22,-74.15 971.94,-84.72 978.37,-81.96"/>
</a>
</g>
</g>
<!-- Node23&#45;&gt;Node10 -->
<g id="edge50_Node000023_Node000010" class="edge">
<title>Node23&#45;&gt;Node10</title>
<g id="a_edge50_Node000023_Node000010"><a xlink:title=" ">
<path fill="none" stroke="#63b8ff" d="M558.73,-275.69C424.11,-255.23 76,-199.96 76,-175.5 76,-175.5 76,-175.5 76,-118.5 76,-80.58 99.46,-72.7 133,-55 178.2,-31.14 317.05,-19.15 401.14,-13.92"/>
<polygon fill="#63b8ff" stroke="#63b8ff" points="401.59,-17.4 411.36,-13.3 401.17,-10.41 401.59,-17.4"/>
</a>
</g>
</g>
<!-- Node23&#45;&gt;Node11 -->
<g id="edge51_Node000023_Node000011" class="edge">
<title>Node23&#45;&gt;Node11</title>
<g id="a_edge51_Node000023_Node000011"><a xlink:title=" ">
<path fill="none" stroke="#63b8ff" d="M623.36,-274.82C638.4,-263.1 660.79,-241.22 652,-220 630.11,-167.16 582.89,-181.84 561,-129 556.14,-117.28 554.38,-83.66 564,-55 567.36,-44.99 573.63,-35.12 579.57,-27.23"/>
<polygon fill="#63b8ff" stroke="#63b8ff" points="582.43,-29.25 585.96,-19.26 576.97,-24.87 582.43,-29.25"/>
</a>
</g>
</g>
<!-- Node23&#45;&gt;Node14 -->
<g id="edge52_Node000023_Node000014" class="edge">
<title>Node23&#45;&gt;Node14</title>
<g id="a_edge52_Node000023_Node000014"><a xlink:title=" ">
<path fill="none" stroke="#63b8ff" d="M663.14,-275.98C741.22,-264.67 881.89,-244.05 905,-239 1004.84,-217.2 1126,-277.7 1126,-175.5 1126,-175.5 1126,-175.5 1126,-118.5 1126,-87.19 1126,-50.77 1126,-29.23"/>
<polygon fill="#63b8ff" stroke="#63b8ff" points="1129.5,-29.18 1126,-19.18 1122.5,-29.18 1129.5,-29.18"/>
</a>
</g>
</g>
<!-- Node23&#45;&gt;Node19 -->
<g id="edge59_Node000023_Node000019" class="edge">
<title>Node23&#45;&gt;Node19</title>
<g id="a_edge59_Node000023_Node000019"><a xlink:title=" ">
<path fill="none" stroke="#63b8ff" d="M558.78,-276.27C504.44,-268.12 423.51,-254.03 396,-239 349.65,-213.67 310.15,-163.78 291.5,-137.55"/>
<polygon fill="#63b8ff" stroke="#63b8ff" points="294.17,-135.26 285.59,-129.04 288.42,-139.25 294.17,-135.26"/>
</a>
</g>
</g>
<!-- Node24 -->
<g id="Node000024" class="node">
<title>Node24</title>
<g id="a_Node000024"><a xlink:title=" ">
<polygon fill="#e0e0e0" stroke="#999999" points="500,-239 438,-239 438,-220 500,-220 500,-239"/>
<text text-anchor="middle" x="469" y="-227" font-family="Helvetica,sans-Serif" font-size="10.00">stdbool.h</text>
</a>
</g>
</g>
<!-- Node23&#45;&gt;Node24 -->
<g id="edge46_Node000023_Node000024" class="edge">
<title>Node23&#45;&gt;Node24</title>
<g id="a_edge46_Node000023_Node000024"><a xlink:title=" ">
<path fill="none" stroke="#63b8ff" d="M588.19,-274.98C564.83,-266.27 528.3,-252.63 501.83,-242.75"/>
<polygon fill="#63b8ff" stroke="#63b8ff" points="502.82,-239.39 492.23,-239.17 500.37,-245.95 502.82,-239.39"/>
</a>
</g>
</g>
<!-- Node25 -->
<g id="Node000025" class="node">
<title>Node25</title>
<g id="a_Node000025"><a xlink:title=" ">
<polygon fill="#e0e0e0" stroke="#999999" points="560,-239 518,-239 518,-220 560,-220 560,-239"/>
<text text-anchor="middle" x="539" y="-227" font-family="Helvetica,sans-Serif" font-size="10.00">array</text>
</a>
</g>
</g>
<!-- Node23&#45;&gt;Node25 -->
<g id="edge47_Node000023_Node000025" class="edge">
<title>Node23&#45;&gt;Node25</title>
<g id="a_edge47_Node000023_Node000025"><a xlink:title=" ">
<path fill="none" stroke="#63b8ff" d="M599.43,-274.98C588.58,-267 572.12,-254.88 559.12,-245.31"/>
<polygon fill="#63b8ff" stroke="#63b8ff" points="560.91,-242.28 550.78,-239.17 556.76,-247.92 560.91,-242.28"/>
</a>
</g>
</g>
<!-- Node26 -->
<g id="Node000026" class="node">
<title>Node26</title>
<g id="a_Node000026"><a xlink:title=" ">
<polygon fill="#e0e0e0" stroke="#999999" points="643.5,-239 578.5,-239 578.5,-220 643.5,-220 643.5,-239"/>
<text text-anchor="middle" x="611" y="-227" font-family="Helvetica,sans-Serif" font-size="10.00">functional</text>
</a>
</g>
</g>
<!-- Node23&#45;&gt;Node26 -->
<g id="edge48_Node000023_Node000026" class="edge">
<title>Node23&#45;&gt;Node26</title>
<g id="a_edge48_Node000023_Node000026"><a xlink:title=" ">
<path fill="none" stroke="#63b8ff" d="M611,-274.75C611,-267.8 611,-257.85 611,-249.13"/>
<polygon fill="#63b8ff" stroke="#63b8ff" points="614.5,-249.09 611,-239.09 607.5,-249.09 614.5,-249.09"/>
</a>
</g>
</g>
<!-- Node27 -->
<g id="Node000027" class="node">
<title>Node27</title>
<g id="a_Node000027"><a xlink:href="ITimeSource_8hpp.html" target="_top" xlink:title="The abstract behavioral contract for all temporal reference organs.">
<polygon fill="white" stroke="#666666" points="798,-239 700,-239 700,-220 798,-220 798,-239"/>
<text text-anchor="middle" x="749" y="-227" font-family="Helvetica,sans-Serif" font-size="10.00">ITimeSource.hpp</text>
</a>
</g>
</g>
<!-- Node23&#45;&gt;Node27 -->
<g id="edge54_Node000023_Node000027" class="edge">
<title>Node23&#45;&gt;Node27</title>
<g id="a_edge54_Node000023_Node000027"><a xlink:title=" ">
<path fill="none" stroke="#63b8ff" d="M633.17,-274.98C655.77,-266.3 691.06,-252.75 716.75,-242.88"/>
<polygon fill="#63b8ff" stroke="#63b8ff" points="718.34,-246.02 726.42,-239.17 715.83,-239.49 718.34,-246.02"/>
</a>
</g>
</g>
<!-- Node27&#45;&gt;Node3 -->
<g id="edge55_Node000027_Node000003" class="edge">
<title>Node27&#45;&gt;Node3</title>
<g id="a_edge55_Node000027_Node000003"><a xlink:title=" ">
<path fill="none" stroke="#63b8ff" d="M780.49,-219.98C816.2,-210.33 874.21,-194.64 910.95,-184.71"/>
<polygon fill="#63b8ff" stroke="#63b8ff" points="911.97,-188.06 920.71,-182.07 910.14,-181.3 911.97,-188.06"/>
</a>
</g>
</g>
<!-- Node27&#45;&gt;Node5 -->
<g id="edge56_Node000027_Node000005" class="edge">
<title>Node27&#45;&gt;Node5</title>
<g id="a_edge56_Node000027_Node000005"><a xlink:title=" ">
<path fill="none" stroke="#63b8ff" d="M728.87,-219.96C688.69,-202.89 595.72,-163.24 518,-129 478.66,-111.67 433.37,-91.18 404.96,-78.26"/>
<polygon fill="#63b8ff" stroke="#63b8ff" points="406.21,-74.98 395.66,-74.02 403.31,-81.35 406.21,-74.98"/>
</a>
</g>
</g>
<!-- Node27&#45;&gt;Node7 -->
<g id="edge57_Node000027_Node000007" class="edge">
<title>Node27&#45;&gt;Node7</title>
<g id="a_edge57_Node000027_Node000007"><a xlink:title=" ">
<path fill="none" stroke="#63b8ff" d="M770.04,-219.98C804.6,-205.24 874.33,-172.36 922,-129 936.64,-115.68 949.26,-96.82 957.37,-83.12"/>
<polygon fill="#63b8ff" stroke="#63b8ff" points="960.54,-84.62 962.45,-74.2 954.46,-81.16 960.54,-84.62"/>
</a>
</g>
</g>
<!-- Node27&#45;&gt;Node15 -->
<g id="edge58_Node000027_Node000015" class="edge">
<title>Node27&#45;&gt;Node15</title>
<g id="a_edge58_Node000027_Node000015"><a xlink:title=" ">
<path fill="none" stroke="#63b8ff" d="M749,-219.75C749,-212.8 749,-202.85 749,-194.13"/>
<polygon fill="#63b8ff" stroke="#63b8ff" points="752.5,-194.09 749,-184.09 745.5,-194.09 752.5,-194.09"/>
</a>
</g>
</g>
</g>
</svg>
