<?xml version="1.0" encoding="UTF-8" standalone="no"?>
<!DOCTYPE svg PUBLIC "-//W3C//DTD SVG 1.1//EN"
 "http://www.w3.org/Graphics/SVG/1.1/DTD/svg11.dtd">
<!-- Generated by graphviz version 2.43.0 (0)
 -->
<!-- Title: main/tool/ToolBox.cpp Pages: 1 -->
<svg width="2137pt" height="357pt"
 viewBox="0.00 0.00 2137.00 357.00" xmlns="http://www.w3.org/2000/svg" xmlns:xlink="http://www.w3.org/1999/xlink">
<g id="graph0" class="graph" transform="scale(1 1) rotate(0) translate(4 353)">
<title>main/tool/ToolBox.cpp</title>
<!-- Node1 -->
<g id="Node000001" class="node">
<title>Node1</title>
<g id="a_Node000001"><a xlink:title=" ">
<polygon fill="#999999" stroke="#666666" points="1481.5,-349 1356.5,-349 1356.5,-330 1481.5,-330 1481.5,-349"/>
<text text-anchor="middle" x="1419" y="-337" font-family="Helvetica,sans-Serif" font-size="10.00">main/tool/ToolBox.cpp</text>
</a>
</g>
</g>
<!-- Node2 -->
<g id="Node000002" class="node">
<title>Node2</title>
<g id="a_Node000002"><a xlink:title=" ">
<polygon fill="#e0e0e0" stroke="#999999" points="185.5,-19 132.5,-19 132.5,0 185.5,0 185.5,-19"/>
<text text-anchor="middle" x="159" y="-7" font-family="Helvetica,sans-Serif" font-size="10.00">string.h</text>
</a>
</g>
</g>
<!-- Node1&#45;&gt;Node2 -->
<g id="edge1_Node000001_Node000002" class="edge">
<title>Node1&#45;&gt;Node2</title>
<g id="a_edge1_Node000001_Node000002"><a xlink:title=" ">
<path fill="none" stroke="#63b8ff" d="M1356.31,-338.7C1116.32,-339.14 263.81,-337.6 151,-294 110.26,-278.25 76,-274.18 76,-230.5 76,-230.5 76,-230.5 76,-118.5 76,-78.1 112.97,-43.52 137.56,-24.99"/>
<polygon fill="#63b8ff" stroke="#63b8ff" points="139.62,-27.82 145.66,-19.12 135.51,-22.15 139.62,-27.82"/>
</a>
</g>
</g>
<!-- Node3 -->
<g id="Node000003" class="node">
<title>Node3</title>
<g id="a_Node000003"><a xlink:title=" ">
<polygon fill="#e0e0e0" stroke="#999999" points="1471,-294 1421,-294 1421,-275 1471,-275 1471,-294"/>
<text text-anchor="middle" x="1446" y="-282" font-family="Helvetica,sans-Serif" font-size="10.00">stdio.h</text>
</a>
</g>
</g>
<!-- Node1&#45;&gt;Node3 -->
<g id="edge2_Node000001_Node000003" class="edge">
<title>Node1&#45;&gt;Node3</title>
<g id="a_edge2_Node000001_Node000003"><a xlink:title=" ">
<path fill="none" stroke="#63b8ff" d="M1423.46,-329.75C1427.12,-322.57 1432.41,-312.18 1436.95,-303.27"/>
<polygon fill="#63b8ff" stroke="#63b8ff" points="1440.2,-304.59 1441.62,-294.09 1433.97,-301.41 1440.2,-304.59"/>
</a>
</g>
</g>
<!-- Node4 -->
<g id="Node000004" class="node">
<title>Node4</title>
<g id="a_Node000004"><a xlink:title=" ">
<polygon fill="#e0e0e0" stroke="#999999" points="1275,-184 1227,-184 1227,-165 1275,-165 1275,-184"/>
<text text-anchor="middle" x="1251" y="-172" font-family="Helvetica,sans-Serif" font-size="10.00">time.h</text>
</a>
</g>
</g>
<!-- Node1&#45;&gt;Node4 -->
<g id="edge3_Node000001_Node000004" class="edge">
<title>Node1&#45;&gt;Node4</title>
<g id="a_edge3_Node000001_Node000004"><a xlink:title=" ">
<path fill="none" stroke="#63b8ff" d="M1410.15,-329.76C1401.63,-321.11 1388.66,-307.27 1379,-294 1356.61,-263.25 1363.48,-246.3 1336,-220 1321.41,-206.04 1301.58,-195.33 1284.75,-187.91"/>
<polygon fill="#63b8ff" stroke="#63b8ff" points="1285.82,-184.56 1275.24,-183.93 1283.11,-191.02 1285.82,-184.56"/>
</a>
</g>
</g>
<!-- Node5 -->
<g id="Node000005" class="node">
<title>Node5</title>
<g id="a_Node000005"><a xlink:title=" ">
<polygon fill="#e0e0e0" stroke="#999999" points="1533,-294 1489,-294 1489,-275 1533,-275 1533,-294"/>
<text text-anchor="middle" x="1511" y="-282" font-family="Helvetica,sans-Serif" font-size="10.00">string</text>
</a>
</g>
</g>
<!-- Node1&#45;&gt;Node5 -->
<g id="edge4_Node000001_Node000005" class="edge">
<title>Node1&#45;&gt;Node5</title>
<g id="a_edge4_Node000001_Node000005"><a xlink:title=" ">
<path fill="none" stroke="#63b8ff" d="M1433.78,-329.98C1448.18,-321.69 1470.31,-308.94 1487.19,-299.22"/>
<polygon fill="#63b8ff" stroke="#63b8ff" points="1489.03,-302.19 1495.95,-294.17 1485.54,-296.13 1489.03,-302.19"/>
</a>
</g>
</g>
<!-- Node6 -->
<g id="Node000006" class="node">
<title>Node6</title>
<g id="a_Node000006"><a xlink:title=" ">
<polygon fill="#e0e0e0" stroke="#999999" points="69.5,-19 6.5,-19 6.5,0 69.5,0 69.5,-19"/>
<text text-anchor="middle" x="38" y="-7" font-family="Helvetica,sans-Serif" font-size="10.00">esp_log.h</text>
</a>
</g>
</g>
<!-- Node1&#45;&gt;Node6 -->
<g id="edge5_Node000001_Node000006" class="edge">
<title>Node1&#45;&gt;Node6</title>
<g id="a_edge5_Node000001_Node000006"><a xlink:title=" ">
<path fill="none" stroke="#63b8ff" d="M1356.49,-338.32C1111.01,-337.35 220.6,-331.27 100,-294 49.7,-278.45 0,-283.15 0,-230.5 0,-230.5 0,-230.5 0,-118.5 0,-85.02 16.45,-48.84 27.7,-28.01"/>
<polygon fill="#63b8ff" stroke="#63b8ff" points="30.87,-29.53 32.72,-19.1 24.76,-26.1 30.87,-29.53"/>
</a>
</g>
</g>
<!-- Node7 -->
<g id="Node000007" class="node">
<title>Node7</title>
<g id="a_Node000007"><a xlink:title=" ">
<polygon fill="#e0e0e0" stroke="#999999" points="1625,-294 1551,-294 1551,-275 1625,-275 1625,-294"/>
<text text-anchor="middle" x="1588" y="-282" font-family="Helvetica,sans-Serif" font-size="10.00">esp_sleep.h</text>
</a>
</g>
</g>
<!-- Node1&#45;&gt;Node7 -->
<g id="edge6_Node000001_Node000007" class="edge">
<title>Node1&#45;&gt;Node7</title>
<g id="a_edge6_Node000001_Node000007"><a xlink:title=" ">
<path fill="none" stroke="#63b8ff" d="M1446.15,-329.98C1474.53,-321.09 1519.23,-307.07 1550.86,-297.15"/>
<polygon fill="#63b8ff" stroke="#63b8ff" points="1552.14,-300.41 1560.63,-294.08 1550.05,-293.73 1552.14,-300.41"/>
</a>
</g>
</g>
<!-- Node8 -->
<g id="Node000008" class="node">
<title>Node8</title>
<g id="a_Node000008"><a xlink:title=" ">
<polygon fill="#e0e0e0" stroke="#999999" points="1735,-294 1643,-294 1643,-275 1735,-275 1735,-294"/>
<text text-anchor="middle" x="1689" y="-282" font-family="Helvetica,sans-Serif" font-size="10.00">esp_task_wdt.h</text>
</a>
</g>
</g>
<!-- Node1&#45;&gt;Node8 -->
<g id="edge7_Node000001_Node000008" class="edge">
<title>Node1&#45;&gt;Node8</title>
<g id="a_edge7_Node000001_Node000008"><a xlink:title=" ">
<path fill="none" stroke="#63b8ff" d="M1462.38,-329.98C1509.38,-320.76 1584.43,-306.03 1635.16,-296.07"/>
<polygon fill="#63b8ff" stroke="#63b8ff" points="1636.14,-299.44 1645.28,-294.08 1634.79,-292.57 1636.14,-299.44"/>
</a>
</g>
</g>
<!-- Node9 -->
<g id="Node000009" class="node">
<title>Node9</title>
<g id="a_Node000009"><a xlink:title=" ">
<polygon fill="#e0e0e0" stroke="#999999" points="1837,-294 1753,-294 1753,-275 1837,-275 1837,-294"/>
<text text-anchor="middle" x="1795" y="-282" font-family="Helvetica,sans-Serif" font-size="10.00">esp_system.h</text>
</a>
</g>
</g>
<!-- Node1&#45;&gt;Node9 -->
<g id="edge8_Node000001_Node000009" class="edge">
<title>Node1&#45;&gt;Node9</title>
<g id="a_edge8_Node000001_Node000009"><a xlink:title=" ">
<path fill="none" stroke="#63b8ff" d="M1481.69,-330.47C1545.02,-322.23 1645.95,-308.75 1743.01,-294.11"/>
<polygon fill="#63b8ff" stroke="#63b8ff" points="1743.63,-297.56 1752.99,-292.6 1742.58,-290.64 1743.63,-297.56"/>
</a>
</g>
</g>
<!-- Node10 -->
<g id="Node000010" class="node">
<title>Node10</title>
<g id="a_Node000010"><a xlink:title=" ">
<polygon fill="#e0e0e0" stroke="#999999" points="1929,-294 1855,-294 1855,-275 1929,-275 1929,-294"/>
<text text-anchor="middle" x="1892" y="-282" font-family="Helvetica,sans-Serif" font-size="10.00">esp_timer.h</text>
</a>
</g>
</g>
<!-- Node1&#45;&gt;Node10 -->
<g id="edge9_Node000001_Node000010" class="edge">
<title>Node1&#45;&gt;Node10</title>
<g id="a_edge9_Node000001_Node000010"><a xlink:title=" ">
<path fill="none" stroke="#63b8ff" d="M1481.78,-333.52C1563.17,-326.71 1709.71,-313.27 1844.77,-294.07"/>
<polygon fill="#63b8ff" stroke="#63b8ff" points="1845.48,-297.5 1854.88,-292.62 1844.49,-290.57 1845.48,-297.5"/>
</a>
</g>
</g>
<!-- Node11 -->
<g id="Node000011" class="node">
<title>Node11</title>
<g id="a_Node000011"><a xlink:title=" ">
<polygon fill="#e0e0e0" stroke="#999999" points="1297.5,-19 1184.5,-19 1184.5,0 1297.5,0 1297.5,-19"/>
<text text-anchor="middle" x="1241" y="-7" font-family="Helvetica,sans-Serif" font-size="10.00">freertos/FreeRTOS.h</text>
</a>
</g>
</g>
<!-- Node1&#45;&gt;Node11 -->
<g id="edge10_Node000001_Node000011" class="edge">
<title>Node1&#45;&gt;Node11</title>
<g id="a_edge10_Node000001_Node000011"><a xlink:title=" ">
<path fill="none" stroke="#63b8ff" d="M1415.49,-329.99C1408.4,-311.97 1393,-268.49 1393,-230.5 1393,-230.5 1393,-230.5 1393,-118.5 1393,-65.83 1331.61,-36.49 1286.86,-22.09"/>
<polygon fill="#63b8ff" stroke="#63b8ff" points="1287.61,-18.66 1277.02,-19.08 1285.56,-25.36 1287.61,-18.66"/>
</a>
</g>
</g>
<!-- Node12 -->
<g id="Node000012" class="node">
<title>Node12</title>
<g id="a_Node000012"><a xlink:title=" ">
<polygon fill="#e0e0e0" stroke="#999999" points="2035,-294 1947,-294 1947,-275 2035,-275 2035,-294"/>
<text text-anchor="middle" x="1991" y="-282" font-family="Helvetica,sans-Serif" font-size="10.00">freertos/task.h</text>
</a>
</g>
</g>
<!-- Node1&#45;&gt;Node12 -->
<g id="edge11_Node000001_Node000012" class="edge">
<title>Node1&#45;&gt;Node12</title>
<g id="a_edge11_Node000001_Node000012"><a xlink:title=" ">
<path fill="none" stroke="#63b8ff" d="M1481.87,-334.61C1577.73,-328.34 1766.41,-314.7 1936.64,-294.08"/>
<polygon fill="#63b8ff" stroke="#63b8ff" points="1937.29,-297.53 1946.79,-292.84 1936.44,-290.58 1937.29,-297.53"/>
</a>
</g>
</g>
<!-- Node13 -->
<g id="Node000013" class="node">
<title>Node13</title>
<g id="a_Node000013"><a xlink:href="DataManager_8hpp.html" target="_top" xlink:title="The collective consciousness and unified system state mirror.">
<polygon fill="white" stroke="#666666" points="439.5,-74 336.5,-74 336.5,-55 439.5,-55 439.5,-74"/>
<text text-anchor="middle" x="388" y="-62" font-family="Helvetica,sans-Serif" font-size="10.00">DataManager.hpp</text>
</a>
</g>
</g>
<!-- Node1&#45;&gt;Node13 -->
<g id="edge12_Node000001_Node000013" class="edge">
<title>Node1&#45;&gt;Node13</title>
<g id="a_edge12_Node000001_Node000013"><a xlink:title=" ">
<path fill="none" stroke="#63b8ff" d="M1356.23,-338.61C1131.16,-338.2 378,-329.41 378,-230.5 378,-230.5 378,-230.5 378,-173.5 378,-142.06 382.25,-105.68 385.21,-84.19"/>
<polygon fill="#63b8ff" stroke="#63b8ff" points="388.7,-84.55 386.65,-74.15 381.77,-83.56 388.7,-84.55"/>
</a>
</g>
</g>
<!-- Node19 -->
<g id="Node000019" class="node">
<title>Node19</title>
<g id="a_Node000019"><a xlink:href="PinMap_8hpp.html" target="_top" xlink:title="The anatomical map and spatial registry of the organism.">
<polygon fill="white" stroke="#666666" points="234,-294 160,-294 160,-275 234,-275 234,-294"/>
<text text-anchor="middle" x="197" y="-282" font-family="Helvetica,sans-Serif" font-size="10.00">PinMap.hpp</text>
</a>
</g>
</g>
<!-- Node1&#45;&gt;Node19 -->
<g id="edge21_Node000001_Node000019" class="edge">
<title>Node1&#45;&gt;Node19</title>
<g id="a_edge21_Node000001_Node000019"><a xlink:title=" ">
<path fill="none" stroke="#63b8ff" d="M1356.27,-336.04C1192.84,-329.61 740.55,-311.52 364,-294 323.7,-292.12 277.95,-289.78 244.53,-288.03"/>
<polygon fill="#63b8ff" stroke="#63b8ff" points="244.31,-284.51 234.14,-287.48 243.94,-291.5 244.31,-284.51"/>
</a>
</g>
</g>
<!-- Node24 -->
<g id="Node000024" class="node">
<title>Node24</title>
<g id="a_Node000024"><a xlink:title=" ">
<polygon fill="#e0e0e0" stroke="#999999" points="2129,-294 2053,-294 2053,-275 2129,-275 2129,-294"/>
<text text-anchor="middle" x="2091" y="-282" font-family="Helvetica,sans-Serif" font-size="10.00">Utilities.hpp</text>
</a>
</g>
</g>
<!-- Node1&#45;&gt;Node24 -->
<g id="edge28_Node000001_Node000024" class="edge">
<title>Node1&#45;&gt;Node24</title>
<g id="a_edge28_Node000001_Node000024"><a xlink:title=" ">
<path fill="none" stroke="#63b8ff" d="M1481.76,-336.27C1592.86,-331.84 1831.59,-320.11 2042.8,-294.01"/>
<polygon fill="#63b8ff" stroke="#63b8ff" points="2043.34,-297.47 2052.83,-292.76 2042.48,-290.52 2043.34,-297.47"/>
</a>
</g>
</g>
<!-- Node25 -->
<g id="Node000025" class="node">
<title>Node25</title>
<g id="a_Node000025"><a xlink:href="BusManager_8hpp.html" target="_top" xlink:title="The peripheral nervous system managing all communication pathways.">
<polygon fill="white" stroke="#666666" points="827,-184 729,-184 729,-165 827,-165 827,-184"/>
<text text-anchor="middle" x="778" y="-172" font-family="Helvetica,sans-Serif" font-size="10.00">BusManager.hpp</text>
</a>
</g>
</g>
<!-- Node1&#45;&gt;Node25 -->
<g id="edge29_Node000001_Node000025" class="edge">
<title>Node1&#45;&gt;Node25</title>
<g id="a_edge29_Node000001_Node000025"><a xlink:title=" ">
<path fill="none" stroke="#63b8ff" d="M1356.27,-339.45C1203.34,-340.25 818.17,-332.74 741,-239 728.62,-223.96 744.17,-204.26 758.74,-190.82"/>
<polygon fill="#63b8ff" stroke="#63b8ff" points="761.28,-193.26 766.55,-184.07 756.7,-187.96 761.28,-193.26"/>
</a>
</g>
</g>
<!-- Node34 -->
<g id="Node000034" class="node">
<title>Node34</title>
<g id="a_Node000034"><a xlink:href="TimeManager_8hpp.html" target="_top" xlink:title="The biological clock and circadian rhythm (pacemaker) of the organism.">
<polygon fill="white" stroke="#666666" points="1135,-294 1031,-294 1031,-275 1135,-275 1135,-294"/>
<text text-anchor="middle" x="1083" y="-282" font-family="Helvetica,sans-Serif" font-size="10.00">TimeManager.hpp</text>
</a>
</g>
</g>
<!-- Node1&#45;&gt;Node34 -->
<g id="edge57_Node000001_Node000034" class="edge">
<title>Node1&#45;&gt;Node34</title>
<g id="a_edge57_Node000001_Node000034"><a xlink:title=" ">
<path fill="none" stroke="#63b8ff" d="M1365.02,-329.98C1305.09,-320.53 1208.53,-305.3 1145.41,-295.34"/>
<polygon fill="#63b8ff" stroke="#63b8ff" points="1145.61,-291.83 1135.19,-293.73 1144.52,-298.75 1145.61,-291.83"/>
</a>
</g>
</g>
<!-- Node13&#45;&gt;Node2 -->
<g id="edge14_Node000013_Node000002" class="edge">
<title>Node13&#45;&gt;Node2</title>
<g id="a_edge14_Node000013_Node000002"><a xlink:title=" ">
<path fill="none" stroke="#63b8ff" d="M351.21,-54.98C308.46,-45.09 238.35,-28.86 195.66,-18.98"/>
<polygon fill="#63b8ff" stroke="#63b8ff" points="196.22,-15.52 185.69,-16.68 194.64,-22.34 196.22,-15.52"/>
</a>
</g>
</g>
<!-- Node13&#45;&gt;Node6 -->
<g id="edge19_Node000013_Node000006" class="edge">
<title>Node13&#45;&gt;Node6</title>
<g id="a_edge19_Node000013_Node000006"><a xlink:title=" ">
<path fill="none" stroke="#63b8ff" d="M336.36,-55.68C266.65,-45.12 143.81,-26.52 79.66,-16.81"/>
<polygon fill="#63b8ff" stroke="#63b8ff" points="79.92,-13.31 69.51,-15.27 78.87,-20.23 79.92,-13.31"/>
</a>
</g>
</g>
<!-- Node13&#45;&gt;Node11 -->
<g id="edge16_Node000013_Node000011" class="edge">
<title>Node13&#45;&gt;Node11</title>
<g id="a_edge16_Node000013_Node000011"><a xlink:title=" ">
<path fill="none" stroke="#63b8ff" d="M439.68,-55.87C442.49,-55.55 445.28,-55.26 448,-55 767.18,-24.56 851.63,-47.54 1174.21,-19.09"/>
<polygon fill="#63b8ff" stroke="#63b8ff" points="1174.66,-22.56 1184.31,-18.19 1174.04,-15.59 1174.66,-22.56"/>
</a>
</g>
</g>
<!-- Node14 -->
<g id="Node000014" class="node">
<title>Node14</title>
<g id="a_Node000014"><a xlink:title=" ">
<polygon fill="#e0e0e0" stroke="#999999" points="869.5,-19 816.5,-19 816.5,0 869.5,0 869.5,-19"/>
<text text-anchor="middle" x="843" y="-7" font-family="Helvetica,sans-Serif" font-size="10.00">stdint.h</text>
</a>
</g>
</g>
<!-- Node13&#45;&gt;Node14 -->
<g id="edge13_Node000013_Node000014" class="edge">
<title>Node13&#45;&gt;Node14</title>
<g id="a_edge13_Node000013_Node000014"><a xlink:title=" ">
<path fill="none" stroke="#63b8ff" d="M439.7,-56.08C442.51,-55.71 445.29,-55.34 448,-55 579.54,-38.28 736.13,-21.59 806.08,-14.3"/>
<polygon fill="#63b8ff" stroke="#63b8ff" points="806.56,-17.77 816.15,-13.26 805.84,-10.81 806.56,-17.77"/>
</a>
</g>
</g>
<!-- Node15 -->
<g id="Node000015" class="node">
<title>Node15</title>
<g id="a_Node000015"><a xlink:title=" ">
<polygon fill="#e0e0e0" stroke="#999999" points="459.5,-19 390.5,-19 390.5,0 459.5,0 459.5,-19"/>
<text text-anchor="middle" x="425" y="-7" font-family="Helvetica,sans-Serif" font-size="10.00">type_traits</text>
</a>
</g>
</g>
<!-- Node13&#45;&gt;Node15 -->
<g id="edge15_Node000013_Node000015" class="edge">
<title>Node13&#45;&gt;Node15</title>
<g id="a_edge15_Node000013_Node000015"><a xlink:title=" ">
<path fill="none" stroke="#63b8ff" d="M394.11,-54.75C399.28,-47.34 406.85,-36.5 413.19,-27.41"/>
<polygon fill="#63b8ff" stroke="#63b8ff" points="416.15,-29.29 419,-19.09 410.41,-25.29 416.15,-29.29"/>
</a>
</g>
</g>
<!-- Node16 -->
<g id="Node000016" class="node">
<title>Node16</title>
<g id="a_Node000016"><a xlink:title=" ">
<polygon fill="#e0e0e0" stroke="#999999" points="614.5,-19 511.5,-19 511.5,0 614.5,0 614.5,-19"/>
<text text-anchor="middle" x="563" y="-7" font-family="Helvetica,sans-Serif" font-size="10.00">freertos/semphr.h</text>
</a>
</g>
</g>
<!-- Node13&#45;&gt;Node16 -->
<g id="edge17_Node000013_Node000016" class="edge">
<title>Node13&#45;&gt;Node16</title>
<g id="a_edge17_Node000013_Node000016"><a xlink:title=" ">
<path fill="none" stroke="#63b8ff" d="M416.12,-54.98C445.62,-46.05 492.19,-31.94 524.97,-22.02"/>
<polygon fill="#63b8ff" stroke="#63b8ff" points="526.11,-25.33 534.66,-19.08 524.08,-18.63 526.11,-25.33"/>
</a>
</g>
</g>
<!-- Node17 -->
<g id="Node000017" class="node">
<title>Node17</title>
<g id="a_Node000017"><a xlink:title=" ">
<polygon fill="#e0e0e0" stroke="#999999" points="372,-19 272,-19 272,0 372,0 372,-19"/>
<text text-anchor="middle" x="322" y="-7" font-family="Helvetica,sans-Serif" font-size="10.00">esp_heap_caps.h</text>
</a>
</g>
</g>
<!-- Node13&#45;&gt;Node17 -->
<g id="edge18_Node000013_Node000017" class="edge">
<title>Node13&#45;&gt;Node17</title>
<g id="a_edge18_Node000013_Node000017"><a xlink:title=" ">
<path fill="none" stroke="#63b8ff" d="M377.4,-54.98C367.54,-47.07 352.65,-35.11 340.78,-25.58"/>
<polygon fill="#63b8ff" stroke="#63b8ff" points="342.79,-22.7 332.8,-19.17 338.4,-28.16 342.79,-22.7"/>
</a>
</g>
</g>
<!-- Node18 -->
<g id="Node000018" class="node">
<title>Node18</title>
<g id="a_Node000018"><a xlink:href="IManager_8hpp.html" target="_top" xlink:title="The abstract behavioral contract for all managers.">
<polygon fill="white" stroke="#666666" points="1166.5,-19 1083.5,-19 1083.5,0 1166.5,0 1166.5,-19"/>
<text text-anchor="middle" x="1125" y="-7" font-family="Helvetica,sans-Serif" font-size="10.00">IManager.hpp</text>
</a>
</g>
</g>
<!-- Node13&#45;&gt;Node18 -->
<g id="edge20_Node000013_Node000018" class="edge">
<title>Node13&#45;&gt;Node18</title>
<g id="a_edge20_Node000013_Node000018"><a xlink:title=" ">
<path fill="none" stroke="#63b8ff" d="M439.68,-55.93C442.49,-55.59 445.28,-55.28 448,-55 680.63,-30.91 959.65,-17.42 1073.17,-12.58"/>
<polygon fill="#63b8ff" stroke="#63b8ff" points="1073.46,-16.07 1083.31,-12.15 1073.17,-9.07 1073.46,-16.07"/>
</a>
</g>
</g>
<!-- Node19&#45;&gt;Node6 -->
<g id="edge23_Node000019_Node000006" class="edge">
<title>Node19&#45;&gt;Node6</title>
<g id="a_edge23_Node000019_Node000006"><a xlink:title=" ">
<path fill="none" stroke="#63b8ff" d="M159.72,-275.55C112.73,-263.09 38,-234.06 38,-175.5 38,-175.5 38,-175.5 38,-118.5 38,-87.19 38,-50.77 38,-29.23"/>
<polygon fill="#63b8ff" stroke="#63b8ff" points="41.5,-29.18 38,-19.18 34.5,-29.18 41.5,-29.18"/>
</a>
</g>
</g>
<!-- Node20 -->
<g id="Node000020" class="node">
<title>Node20</title>
<g id="a_Node000020"><a xlink:title=" ">
<polygon fill="#e0e0e0" stroke="#999999" points="205,-184 133,-184 133,-165 205,-165 205,-184"/>
<text text-anchor="middle" x="169" y="-172" font-family="Helvetica,sans-Serif" font-size="10.00">sdkconfig.h</text>
</a>
</g>
</g>
<!-- Node19&#45;&gt;Node20 -->
<g id="edge22_Node000019_Node000020" class="edge">
<title>Node19&#45;&gt;Node20</title>
<g id="a_edge22_Node000019_Node000020"><a xlink:title=" ">
<path fill="none" stroke="#63b8ff" d="M175.21,-274.87C160.36,-267.69 141.84,-255.91 133,-239 124.35,-222.44 137.59,-203.9 150.39,-191.15"/>
<polygon fill="#63b8ff" stroke="#63b8ff" points="153.13,-193.38 158.1,-184.03 148.38,-188.24 153.13,-193.38"/>
</a>
</g>
</g>
<!-- Node21 -->
<g id="Node000021" class="node">
<title>Node21</title>
<g id="a_Node000021"><a xlink:href="PinCapabilities_8hpp.html" target="_top" xlink:title="The genetic blueprint and hardware validation logic of the organism.">
<polygon fill="white" stroke="#666666" points="252,-239 142,-239 142,-220 252,-220 252,-239"/>
<text text-anchor="middle" x="197" y="-227" font-family="Helvetica,sans-Serif" font-size="10.00">PinCapabilities.hpp</text>
</a>
</g>
</g>
<!-- Node19&#45;&gt;Node21 -->
<g id="edge24_Node000019_Node000021" class="edge">
<title>Node19&#45;&gt;Node21</title>
<g id="a_edge24_Node000019_Node000021"><a xlink:title=" ">
<path fill="none" stroke="#63b8ff" d="M197,-274.75C197,-267.8 197,-257.85 197,-249.13"/>
<polygon fill="#63b8ff" stroke="#63b8ff" points="200.5,-249.09 197,-239.09 193.5,-249.09 200.5,-249.09"/>
</a>
</g>
</g>
<!-- Node22 -->
<g id="Node000022" class="node">
<title>Node22</title>
<g id="a_Node000022"><a xlink:href="PinRoles_8hpp.html" target="_top" xlink:title="The functional assignment matrix and behavioral constraints.">
<polygon fill="white" stroke="#666666" points="350,-239 270,-239 270,-220 350,-220 350,-239"/>
<text text-anchor="middle" x="310" y="-227" font-family="Helvetica,sans-Serif" font-size="10.00">PinRoles.hpp</text>
</a>
</g>
</g>
<!-- Node19&#45;&gt;Node22 -->
<g id="edge26_Node000019_Node000022" class="edge">
<title>Node19&#45;&gt;Node22</title>
<g id="a_edge26_Node000019_Node000022"><a xlink:title=" ">
<path fill="none" stroke="#63b8ff" d="M215.16,-274.98C233.25,-266.5 261.28,-253.35 282.19,-243.54"/>
<polygon fill="#63b8ff" stroke="#63b8ff" points="283.95,-246.59 291.51,-239.17 280.97,-240.25 283.95,-246.59"/>
</a>
</g>
</g>
<!-- Node21&#45;&gt;Node20 -->
<g id="edge25_Node000021_Node000020" class="edge">
<title>Node21&#45;&gt;Node20</title>
<g id="a_edge25_Node000021_Node000020"><a xlink:title=" ">
<path fill="none" stroke="#63b8ff" d="M192.38,-219.75C188.54,-212.49 182.98,-201.95 178.24,-192.98"/>
<polygon fill="#63b8ff" stroke="#63b8ff" points="181.3,-191.3 173.54,-184.09 175.11,-194.57 181.3,-191.3"/>
</a>
</g>
</g>
<!-- Node23 -->
<g id="Node000023" class="node">
<title>Node23</title>
<g id="a_Node000023"><a xlink:title=" ">
<polygon fill="#e0e0e0" stroke="#999999" points="335,-184 285,-184 285,-165 335,-165 335,-184"/>
<text text-anchor="middle" x="310" y="-172" font-family="Helvetica,sans-Serif" font-size="10.00">cstdint</text>
</a>
</g>
</g>
<!-- Node22&#45;&gt;Node23 -->
<g id="edge27_Node000022_Node000023" class="edge">
<title>Node22&#45;&gt;Node23</title>
<g id="a_edge27_Node000022_Node000023"><a xlink:title=" ">
<path fill="none" stroke="#63b8ff" d="M310,-219.75C310,-212.8 310,-202.85 310,-194.13"/>
<polygon fill="#63b8ff" stroke="#63b8ff" points="313.5,-194.09 310,-184.09 306.5,-194.09 313.5,-194.09"/>
</a>
</g>
</g>
<!-- Node25&#45;&gt;Node13 -->
<g id="edge35_Node000025_Node000013" class="edge">
<title>Node25&#45;&gt;Node13</title>
<g id="a_edge35_Node000025_Node000013"><a xlink:title=" ">
<path fill="none" stroke="#63b8ff" d="M728.65,-168.06C678.39,-161.71 598.61,-149.4 532,-129 529.03,-128.09 457.57,-96.41 416.45,-78.15"/>
<polygon fill="#63b8ff" stroke="#63b8ff" points="417.76,-74.9 407.2,-74.04 414.92,-81.3 417.76,-74.9"/>
</a>
</g>
</g>
<!-- Node25&#45;&gt;Node18 -->
<g id="edge34_Node000025_Node000018" class="edge">
<title>Node25&#45;&gt;Node18</title>
<g id="a_edge34_Node000025_Node000018"><a xlink:title=" ">
<path fill="none" stroke="#63b8ff" d="M827,-171.12C910.4,-166.44 1075.98,-154.22 1128,-129 1165.11,-111.01 1202.4,-91.92 1184,-55 1177.43,-41.82 1164.9,-31.52 1153.07,-24.16"/>
<polygon fill="#63b8ff" stroke="#63b8ff" points="1154.68,-21.05 1144.27,-19.1 1151.2,-27.12 1154.68,-21.05"/>
</a>
</g>
</g>
<!-- Node26 -->
<g id="Node000026" class="node">
<title>Node26</title>
<g id="a_Node000026"><a xlink:title=" ">
<polygon fill="#e0e0e0" stroke="#999999" points="970.5,-74 909.5,-74 909.5,-55 970.5,-55 970.5,-74"/>
<text text-anchor="middle" x="940" y="-62" font-family="Helvetica,sans-Serif" font-size="10.00">esp_err.h</text>
</a>
</g>
</g>
<!-- Node25&#45;&gt;Node26 -->
<g id="edge30_Node000025_Node000026" class="edge">
<title>Node25&#45;&gt;Node26</title>
<g id="a_edge30_Node000025_Node000026"><a xlink:title=" ">
<path fill="none" stroke="#63b8ff" d="M810.14,-164.93C833.03,-157.78 863.74,-146.01 887,-129 904.33,-116.33 919.49,-96.8 929.11,-82.75"/>
<polygon fill="#63b8ff" stroke="#63b8ff" points="932.27,-84.32 934.84,-74.04 926.42,-80.47 932.27,-84.32"/>
</a>
</g>
</g>
<!-- Node27 -->
<g id="Node000027" class="node">
<title>Node27</title>
<g id="a_Node000027"><a xlink:title=" ">
<polygon fill="#e0e0e0" stroke="#999999" points="611.5,-129 540.5,-129 540.5,-110 611.5,-110 611.5,-129"/>
<text text-anchor="middle" x="576" y="-117" font-family="Helvetica,sans-Serif" font-size="10.00">driver/i2c.h</text>
</a>
</g>
</g>
<!-- Node25&#45;&gt;Node27 -->
<g id="edge31_Node000025_Node000027" class="edge">
<title>Node25&#45;&gt;Node27</title>
<g id="a_edge31_Node000025_Node000027"><a xlink:title=" ">
<path fill="none" stroke="#63b8ff" d="M745.55,-164.98C711.04,-155.93 656.34,-141.58 618.44,-131.64"/>
<polygon fill="#63b8ff" stroke="#63b8ff" points="619.27,-128.23 608.71,-129.08 617.49,-135.01 619.27,-128.23"/>
</a>
</g>
</g>
<!-- Node28 -->
<g id="Node000028" class="node">
<title>Node28</title>
<g id="a_Node000028"><a xlink:title=" ">
<polygon fill="#e0e0e0" stroke="#999999" points="777,-74 667,-74 667,-55 777,-55 777,-74"/>
<text text-anchor="middle" x="722" y="-62" font-family="Helvetica,sans-Serif" font-size="10.00">driver/spi_master.h</text>
</a>
</g>
</g>
<!-- Node25&#45;&gt;Node28 -->
<g id="edge32_Node000025_Node000028" class="edge">
<title>Node25&#45;&gt;Node28</title>
<g id="a_edge32_Node000025_Node000028"><a xlink:title=" ">
<path fill="none" stroke="#63b8ff" d="M776.56,-164.86C774.2,-152.23 768.79,-128.25 759,-110 753.5,-99.75 745.41,-89.67 738.19,-81.7"/>
<polygon fill="#63b8ff" stroke="#63b8ff" points="740.55,-79.1 731.14,-74.24 735.47,-83.91 740.55,-79.1"/>
</a>
</g>
</g>
<!-- Node29 -->
<g id="Node000029" class="node">
<title>Node29</title>
<g id="a_Node000029"><a xlink:title=" ">
<polygon fill="#e0e0e0" stroke="#999999" points="534.5,-74 457.5,-74 457.5,-55 534.5,-55 534.5,-74"/>
<text text-anchor="middle" x="496" y="-62" font-family="Helvetica,sans-Serif" font-size="10.00">driver/uart.h</text>
</a>
</g>
</g>
<!-- Node25&#45;&gt;Node29 -->
<g id="edge33_Node000025_Node000029" class="edge">
<title>Node25&#45;&gt;Node29</title>
<g id="a_edge33_Node000025_Node000029"><a xlink:title=" ">
<path fill="none" stroke="#63b8ff" d="M752.62,-164.89C728.31,-156.43 690.75,-142.83 659,-129 641.69,-121.46 638.37,-117.4 621,-110 591.82,-97.56 557.86,-85.63 532.7,-77.26"/>
<polygon fill="#63b8ff" stroke="#63b8ff" points="533.78,-73.93 523.19,-74.12 531.59,-80.57 533.78,-73.93"/>
</a>
</g>
</g>
<!-- Node30 -->
<g id="Node000030" class="node">
<title>Node30</title>
<g id="a_Node000030"><a xlink:href="I2CBus_8hpp.html" target="_top" xlink:title="Industrial I2C Master bus driver with health monitoring.">
<polygon fill="white" stroke="#666666" points="1118.5,-129 1047.5,-129 1047.5,-110 1118.5,-110 1118.5,-129"/>
<text text-anchor="middle" x="1083" y="-117" font-family="Helvetica,sans-Serif" font-size="10.00">I2CBus.hpp</text>
</a>
</g>
</g>
<!-- Node25&#45;&gt;Node30 -->
<g id="edge36_Node000025_Node000030" class="edge">
<title>Node25&#45;&gt;Node30</title>
<g id="a_edge36_Node000025_Node000030"><a xlink:title=" ">
<path fill="none" stroke="#63b8ff" d="M827,-164.98C885.02,-154.9 980.89,-138.24 1037.38,-128.43"/>
<polygon fill="#63b8ff" stroke="#63b8ff" points="1038.2,-131.84 1047.46,-126.68 1037.01,-124.94 1038.2,-131.84"/>
</a>
</g>
</g>
<!-- Node32 -->
<g id="Node000032" class="node">
<title>Node32</title>
<g id="a_Node000032"><a xlink:href="SPIBus_8hpp.html" target="_top" xlink:title="Industrial SPI Master bus driver with health monitoring.">
<polygon fill="white" stroke="#666666" points="877.5,-129 806.5,-129 806.5,-110 877.5,-110 877.5,-129"/>
<text text-anchor="middle" x="842" y="-117" font-family="Helvetica,sans-Serif" font-size="10.00">SPIBus.hpp</text>
</a>
</g>
</g>
<!-- Node25&#45;&gt;Node32 -->
<g id="edge43_Node000025_Node000032" class="edge">
<title>Node25&#45;&gt;Node32</title>
<g id="a_edge43_Node000025_Node000032"><a xlink:title=" ">
<path fill="none" stroke="#63b8ff" d="M788.28,-164.98C797.84,-157.07 812.28,-145.11 823.78,-135.58"/>
<polygon fill="#63b8ff" stroke="#63b8ff" points="826.06,-138.24 831.53,-129.17 821.6,-132.85 826.06,-138.24"/>
</a>
</g>
</g>
<!-- Node33 -->
<g id="Node000033" class="node">
<title>Node33</title>
<g id="a_Node000033"><a xlink:href="UARTBus_8hpp.html" target="_top" xlink:title="Industrial UART bus driver with health monitoring.">
<polygon fill="white" stroke="#666666" points="750,-129 668,-129 668,-110 750,-110 750,-129"/>
<text text-anchor="middle" x="709" y="-117" font-family="Helvetica,sans-Serif" font-size="10.00">UARTBus.hpp</text>
</a>
</g>
</g>
<!-- Node25&#45;&gt;Node33 -->
<g id="edge50_Node000025_Node000033" class="edge">
<title>Node25&#45;&gt;Node33</title>
<g id="a_edge50_Node000025_Node000033"><a xlink:title=" ">
<path fill="none" stroke="#63b8ff" d="M766.91,-164.98C756.51,-157 740.74,-144.88 728.28,-135.31"/>
<polygon fill="#63b8ff" stroke="#63b8ff" points="730.35,-132.49 720.29,-129.17 726.09,-138.04 730.35,-132.49"/>
</a>
</g>
</g>
<!-- Node30&#45;&gt;Node11 -->
<g id="edge39_Node000030_Node000011" class="edge">
<title>Node30&#45;&gt;Node11</title>
<g id="a_edge39_Node000030_Node000011"><a xlink:title=" ">
<path fill="none" stroke="#63b8ff" d="M1110.81,-109.85C1132.09,-102.42 1161.5,-90.3 1184,-74 1201.91,-61.02 1218.32,-41.58 1228.88,-27.63"/>
<polygon fill="#63b8ff" stroke="#63b8ff" points="1231.84,-29.52 1234.94,-19.38 1226.2,-25.37 1231.84,-29.52"/>
</a>
</g>
</g>
<!-- Node30&#45;&gt;Node13 -->
<g id="edge42_Node000030_Node000013" class="edge">
<title>Node30&#45;&gt;Node13</title>
<g id="a_edge42_Node000030_Node000013"><a xlink:title=" ">
<path fill="none" stroke="#63b8ff" d="M1047.47,-116.89C952.3,-112.4 683.53,-98.49 449.73,-74.11"/>
<polygon fill="#63b8ff" stroke="#63b8ff" points="449.99,-70.62 439.68,-73.06 449.26,-77.58 449.99,-70.62"/>
</a>
</g>
</g>
<!-- Node30&#45;&gt;Node14 -->
<g id="edge37_Node000030_Node000014" class="edge">
<title>Node30&#45;&gt;Node14</title>
<g id="a_edge37_Node000030_Node000014"><a xlink:title=" ">
<path fill="none" stroke="#63b8ff" d="M1075.8,-109.67C1064.09,-95.89 1039.55,-69.38 1013,-55 970.52,-31.99 915.54,-20.42 879.78,-14.94"/>
<polygon fill="#63b8ff" stroke="#63b8ff" points="880.18,-11.46 869.78,-13.49 879.18,-18.39 880.18,-11.46"/>
</a>
</g>
</g>
<!-- Node30&#45;&gt;Node16 -->
<g id="edge40_Node000030_Node000016" class="edge">
<title>Node30&#45;&gt;Node16</title>
<g id="a_edge40_Node000030_Node000016"><a xlink:title=" ">
<path fill="none" stroke="#63b8ff" d="M1069.48,-109.94C1042.66,-93 984.87,-56.66 980,-55 915.87,-33.08 724.5,-19.51 624.85,-13.73"/>
<polygon fill="#63b8ff" stroke="#63b8ff" points="624.81,-10.23 614.63,-13.15 624.41,-17.21 624.81,-10.23"/>
</a>
</g>
</g>
<!-- Node30&#45;&gt;Node26 -->
<g id="edge41_Node000030_Node000026" class="edge">
<title>Node30&#45;&gt;Node26</title>
<g id="a_edge41_Node000030_Node000026"><a xlink:title=" ">
<path fill="none" stroke="#63b8ff" d="M1060.02,-109.98C1036.5,-101.27 999.71,-87.63 973.06,-77.75"/>
<polygon fill="#63b8ff" stroke="#63b8ff" points="973.99,-74.36 963.39,-74.17 971.55,-80.93 973.99,-74.36"/>
</a>
</g>
</g>
<!-- Node31 -->
<g id="Node000031" class="node">
<title>Node31</title>
<g id="a_Node000031"><a xlink:title=" ">
<polygon fill="#e0e0e0" stroke="#999999" points="1175,-74 1065,-74 1065,-55 1175,-55 1175,-74"/>
<text text-anchor="middle" x="1120" y="-62" font-family="Helvetica,sans-Serif" font-size="10.00">driver/i2c_master.h</text>
</a>
</g>
</g>
<!-- Node30&#45;&gt;Node31 -->
<g id="edge38_Node000030_Node000031" class="edge">
<title>Node30&#45;&gt;Node31</title>
<g id="a_edge38_Node000030_Node000031"><a xlink:title=" ">
<path fill="none" stroke="#63b8ff" d="M1089.11,-109.75C1094.28,-102.34 1101.85,-91.5 1108.19,-82.41"/>
<polygon fill="#63b8ff" stroke="#63b8ff" points="1111.15,-84.29 1114,-74.09 1105.41,-80.29 1111.15,-84.29"/>
</a>
</g>
</g>
<!-- Node32&#45;&gt;Node11 -->
<g id="edge46_Node000032_Node000011" class="edge">
<title>Node32&#45;&gt;Node11</title>
<g id="a_edge46_Node000032_Node000011"><a xlink:title=" ">
<path fill="none" stroke="#63b8ff" d="M847.24,-109.73C856.25,-95.54 876.12,-67.83 901,-55 901,-55 1075.6,-32.15 1174.56,-19.2"/>
<polygon fill="#63b8ff" stroke="#63b8ff" points="1175.01,-22.67 1184.47,-17.9 1174.1,-15.73 1175.01,-22.67"/>
</a>
</g>
</g>
<!-- Node32&#45;&gt;Node13 -->
<g id="edge49_Node000032_Node000013" class="edge">
<title>Node32&#45;&gt;Node13</title>
<g id="a_edge49_Node000032_Node000013"><a xlink:title=" ">
<path fill="none" stroke="#63b8ff" d="M806.37,-114.82C738.9,-107.77 587.59,-91.61 450,-74.23"/>
<polygon fill="#63b8ff" stroke="#63b8ff" points="450.06,-70.71 439.7,-72.92 449.18,-77.65 450.06,-70.71"/>
</a>
</g>
</g>
<!-- Node32&#45;&gt;Node14 -->
<g id="edge44_Node000032_Node000014" class="edge">
<title>Node32&#45;&gt;Node14</title>
<g id="a_edge44_Node000032_Node000014"><a xlink:title=" ">
<path fill="none" stroke="#63b8ff" d="M842.08,-109.66C842.24,-92.17 842.61,-52.8 842.83,-29.27"/>
<polygon fill="#63b8ff" stroke="#63b8ff" points="846.33,-29.19 842.92,-19.16 839.33,-29.13 846.33,-29.19"/>
</a>
</g>
</g>
<!-- Node32&#45;&gt;Node16 -->
<g id="edge47_Node000032_Node000016" class="edge">
<title>Node32&#45;&gt;Node16</title>
<g id="a_edge47_Node000032_Node000016"><a xlink:title=" ">
<path fill="none" stroke="#63b8ff" d="M837.04,-109.91C828.52,-95.98 809.69,-68.64 786,-55 736.44,-26.46 671.56,-15.97 624.57,-12.24"/>
<polygon fill="#63b8ff" stroke="#63b8ff" points="624.75,-8.74 614.52,-11.52 624.25,-15.73 624.75,-8.74"/>
</a>
</g>
</g>
<!-- Node32&#45;&gt;Node26 -->
<g id="edge48_Node000032_Node000026" class="edge">
<title>Node32&#45;&gt;Node26</title>
<g id="a_edge48_Node000032_Node000026"><a xlink:title=" ">
<path fill="none" stroke="#63b8ff" d="M857.75,-109.98C873.23,-101.61 897.09,-88.7 915.14,-78.95"/>
<polygon fill="#63b8ff" stroke="#63b8ff" points="916.84,-82.01 923.97,-74.17 913.51,-75.85 916.84,-82.01"/>
</a>
</g>
</g>
<!-- Node32&#45;&gt;Node28 -->
<g id="edge45_Node000032_Node000028" class="edge">
<title>Node32&#45;&gt;Node28</title>
<g id="a_edge45_Node000032_Node000028"><a xlink:title=" ">
<path fill="none" stroke="#63b8ff" d="M822.72,-109.98C803.33,-101.42 773.19,-88.11 750.93,-78.28"/>
<polygon fill="#63b8ff" stroke="#63b8ff" points="752.19,-75.01 741.63,-74.17 749.36,-81.41 752.19,-75.01"/>
</a>
</g>
</g>
<!-- Node33&#45;&gt;Node11 -->
<g id="edge53_Node000033_Node000011" class="edge">
<title>Node33&#45;&gt;Node11</title>
<g id="a_edge53_Node000033_Node000011"><a xlink:title=" ">
<path fill="none" stroke="#63b8ff" d="M693.59,-109.95C672.91,-97.44 640.64,-73.61 658,-55 695.7,-14.58 1083.89,-23.84 1174.2,-18.86"/>
<polygon fill="#63b8ff" stroke="#63b8ff" points="1174.59,-22.34 1184.3,-18.12 1174.07,-15.36 1174.59,-22.34"/>
</a>
</g>
</g>
<!-- Node33&#45;&gt;Node13 -->
<g id="edge56_Node000033_Node000013" class="edge">
<title>Node33&#45;&gt;Node13</title>
<g id="a_edge56_Node000033_Node000013"><a xlink:title=" ">
<path fill="none" stroke="#63b8ff" d="M667.69,-111.68C612.32,-102.54 513.59,-86.24 449.47,-75.65"/>
<polygon fill="#63b8ff" stroke="#63b8ff" points="449.92,-72.18 439.49,-74 448.78,-79.08 449.92,-72.18"/>
</a>
</g>
</g>
<!-- Node33&#45;&gt;Node14 -->
<g id="edge51_Node000033_Node000014" class="edge">
<title>Node33&#45;&gt;Node14</title>
<g id="a_edge51_Node000033_Node000014"><a xlink:title=" ">
<path fill="none" stroke="#63b8ff" d="M680.28,-109.97C648.84,-99.18 605.34,-79.07 625,-55 647.43,-27.52 749.89,-16.57 805.99,-12.57"/>
<polygon fill="#63b8ff" stroke="#63b8ff" points="806.49,-16.04 816.23,-11.88 806.02,-9.06 806.49,-16.04"/>
</a>
</g>
</g>
<!-- Node33&#45;&gt;Node16 -->
<g id="edge54_Node000033_Node000016" class="edge">
<title>Node33&#45;&gt;Node16</title>
<g id="a_edge54_Node000033_Node000016"><a xlink:title=" ">
<path fill="none" stroke="#63b8ff" d="M684.08,-109.95C664.35,-102.42 636.77,-90.15 616,-74 599.24,-60.97 584.15,-41.8 574.41,-27.94"/>
<polygon fill="#63b8ff" stroke="#63b8ff" points="577.07,-25.63 568.55,-19.33 571.28,-29.57 577.07,-25.63"/>
</a>
</g>
</g>
<!-- Node33&#45;&gt;Node26 -->
<g id="edge55_Node000033_Node000026" class="edge">
<title>Node33&#45;&gt;Node26</title>
<g id="a_edge55_Node000033_Node000026"><a xlink:title=" ">
<path fill="none" stroke="#63b8ff" d="M746.11,-109.98C788.03,-100.37 856.02,-84.77 899.34,-74.83"/>
<polygon fill="#63b8ff" stroke="#63b8ff" points="900.3,-78.2 909.26,-72.55 898.73,-71.38 900.3,-78.2"/>
</a>
</g>
</g>
<!-- Node33&#45;&gt;Node29 -->
<g id="edge52_Node000033_Node000029" class="edge">
<title>Node33&#45;&gt;Node29</title>
<g id="a_edge52_Node000033_Node000029"><a xlink:title=" ">
<path fill="none" stroke="#63b8ff" d="M674.78,-109.98C638.24,-100.89 580.22,-86.46 540.24,-76.51"/>
<polygon fill="#63b8ff" stroke="#63b8ff" points="541.04,-73.1 530.49,-74.08 539.35,-79.89 541.04,-73.1"/>
</a>
</g>
</g>
<!-- Node34&#45;&gt;Node4 -->
<g id="edge58_Node000034_Node000004" class="edge">
<title>Node34&#45;&gt;Node4</title>
<g id="a_edge58_Node000034_Node000004"><a xlink:title=" ">
<path fill="none" stroke="#63b8ff" d="M1133.03,-274.98C1159.04,-268.55 1190.1,-257.54 1213,-239 1227.64,-227.15 1237.98,-208.04 1244.13,-193.88"/>
<polygon fill="#63b8ff" stroke="#63b8ff" points="1247.54,-194.8 1248.03,-184.21 1241.05,-192.18 1247.54,-194.8"/>
</a>
</g>
</g>
<!-- Node34&#45;&gt;Node11 -->
<g id="edge64_Node000034_Node000011" class="edge">
<title>Node34&#45;&gt;Node11</title>
<g id="a_edge64_Node000034_Node000011"><a xlink:title=" ">
<path fill="none" stroke="#63b8ff" d="M1100.86,-274.96C1116.59,-266.95 1139.63,-253.98 1157,-239 1189.28,-211.17 1184.38,-191.2 1218,-165 1247.48,-142.03 1270.24,-157.85 1294,-129 1315.28,-103.16 1323.82,-84.5 1308,-55 1300.49,-41 1286.43,-30.66 1273.12,-23.48"/>
<polygon fill="#63b8ff" stroke="#63b8ff" points="1274.63,-20.33 1264.11,-19.02 1271.52,-26.6 1274.63,-20.33"/>
</a>
</g>
</g>
<!-- Node34&#45;&gt;Node13 -->
<g id="edge67_Node000034_Node000013" class="edge">
<title>Node34&#45;&gt;Node13</title>
<g id="a_edge67_Node000034_Node000013"><a xlink:title=" ">
<path fill="none" stroke="#63b8ff" d="M1030.85,-282.26C916.38,-277.24 638.38,-252.25 450,-129 430.35,-116.15 412.13,-96.1 400.59,-81.97"/>
<polygon fill="#63b8ff" stroke="#63b8ff" points="403.28,-79.72 394.32,-74.06 397.79,-84.07 403.28,-79.72"/>
</a>
</g>
</g>
<!-- Node34&#45;&gt;Node14 -->
<g id="edge59_Node000034_Node000014" class="edge">
<title>Node34&#45;&gt;Node14</title>
<g id="a_edge59_Node000034_Node000014"><a xlink:title=" ">
<path fill="none" stroke="#63b8ff" d="M1089.19,-274.9C1115.59,-237.76 1215.91,-91.34 1184,-55 1164.12,-32.36 963.56,-17.75 879.63,-12.59"/>
<polygon fill="#63b8ff" stroke="#63b8ff" points="879.72,-9.09 869.52,-11.98 879.29,-16.08 879.72,-9.09"/>
</a>
</g>
</g>
<!-- Node34&#45;&gt;Node16 -->
<g id="edge65_Node000034_Node000016" class="edge">
<title>Node34&#45;&gt;Node16</title>
<g id="a_edge65_Node000034_Node000016"><a xlink:title=" ">
<path fill="none" stroke="#63b8ff" d="M1030.67,-282.75C948.61,-280.54 785.17,-271.97 651,-239 586.88,-223.24 572.26,-213.11 513,-184 426.8,-141.65 374.58,-157.42 327,-74 322.82,-66.66 321.61,-61.5 327,-55 338.12,-41.59 435.35,-26.72 501.49,-18.01"/>
<polygon fill="#63b8ff" stroke="#63b8ff" points="501.95,-21.48 511.41,-16.72 501.05,-14.54 501.95,-21.48"/>
</a>
</g>
</g>
<!-- Node34&#45;&gt;Node18 -->
<g id="edge66_Node000034_Node000018" class="edge">
<title>Node34&#45;&gt;Node18</title>
<g id="a_edge66_Node000034_Node000018"><a xlink:title=" ">
<path fill="none" stroke="#63b8ff" d="M1095.51,-274.91C1107.09,-266.57 1124.38,-253.14 1137,-239 1163.1,-209.75 1154.76,-189.95 1185,-165 1217.91,-137.84 1244.62,-159.94 1274,-129 1291.81,-110.25 1288.72,-99.51 1293,-74 1294.4,-65.67 1298.15,-61.69 1293,-55 1285.74,-45.56 1223.51,-30.83 1176.89,-20.93"/>
<polygon fill="#63b8ff" stroke="#63b8ff" points="1177.41,-17.47 1166.91,-18.84 1175.98,-24.32 1177.41,-17.47"/>
</a>
</g>
</g>
<!-- Node34&#45;&gt;Node26 -->
<g id="edge63_Node000034_Node000026" class="edge">
<title>Node34&#45;&gt;Node26</title>
<g id="a_edge63_Node000034_Node000026"><a xlink:title=" ">
<path fill="none" stroke="#63b8ff" d="M1077.39,-274.95C1056.13,-242.54 980.2,-126.78 951.29,-82.71"/>
<polygon fill="#63b8ff" stroke="#63b8ff" points="954.13,-80.67 945.72,-74.22 948.28,-84.5 954.13,-80.67"/>
</a>
</g>
</g>
<!-- Node34&#45;&gt;Node30 -->
<g id="edge73_Node000034_Node000030" class="edge">
<title>Node34&#45;&gt;Node30</title>
<g id="a_edge73_Node000034_Node000030"><a xlink:title=" ">
<path fill="none" stroke="#63b8ff" d="M1083,-274.74C1083,-249.31 1083,-175.08 1083,-139.69"/>
<polygon fill="#63b8ff" stroke="#63b8ff" points="1086.5,-139.31 1083,-129.31 1079.5,-139.31 1086.5,-139.31"/>
</a>
</g>
</g>
<!-- Node35 -->
<g id="Node000035" class="node">
<title>Node35</title>
<g id="a_Node000035"><a xlink:title=" ">
<polygon fill="#e0e0e0" stroke="#999999" points="1327,-239 1265,-239 1265,-220 1327,-220 1327,-239"/>
<text text-anchor="middle" x="1296" y="-227" font-family="Helvetica,sans-Serif" font-size="10.00">stdbool.h</text>
</a>
</g>
</g>
<!-- Node34&#45;&gt;Node35 -->
<g id="edge60_Node000034_Node000035" class="edge">
<title>Node34&#45;&gt;Node35</title>
<g id="a_edge60_Node000034_Node000035"><a xlink:title=" ">
<path fill="none" stroke="#63b8ff" d="M1117.22,-274.98C1154.84,-265.62 1215.24,-250.6 1255.27,-240.64"/>
<polygon fill="#63b8ff" stroke="#63b8ff" points="1256.12,-244.03 1264.98,-238.22 1254.43,-237.24 1256.12,-244.03"/>
</a>
</g>
</g>
<!-- Node36 -->
<g id="Node000036" class="node">
<title>Node36</title>
<g id="a_Node000036"><a xlink:title=" ">
<polygon fill="#e0e0e0" stroke="#999999" points="792,-239 750,-239 750,-220 792,-220 792,-239"/>
<text text-anchor="middle" x="771" y="-227" font-family="Helvetica,sans-Serif" font-size="10.00">array</text>
</a>
</g>
</g>
<!-- Node34&#45;&gt;Node36 -->
<g id="edge61_Node000034_Node000036" class="edge">
<title>Node34&#45;&gt;Node36</title>
<g id="a_edge61_Node000034_Node000036"><a xlink:title=" ">
<path fill="none" stroke="#63b8ff" d="M1030.89,-277C974.24,-269.53 881.18,-256.07 802,-239 801.9,-238.98 801.8,-238.96 801.7,-238.94"/>
<polygon fill="#63b8ff" stroke="#63b8ff" points="802.81,-235.6 792.27,-236.66 801.17,-242.41 802.81,-235.6"/>
</a>
</g>
</g>
<!-- Node37 -->
<g id="Node000037" class="node">
<title>Node37</title>
<g id="a_Node000037"><a xlink:title=" ">
<polygon fill="#e0e0e0" stroke="#999999" points="875.5,-239 810.5,-239 810.5,-220 875.5,-220 875.5,-239"/>
<text text-anchor="middle" x="843" y="-227" font-family="Helvetica,sans-Serif" font-size="10.00">functional</text>
</a>
</g>
</g>
<!-- Node34&#45;&gt;Node37 -->
<g id="edge62_Node000034_Node000037" class="edge">
<title>Node34&#45;&gt;Node37</title>
<g id="a_edge62_Node000034_Node000037"><a xlink:title=" ">
<path fill="none" stroke="#63b8ff" d="M1044.44,-274.98C1001.05,-265.4 930.75,-249.88 885.72,-239.93"/>
<polygon fill="#63b8ff" stroke="#63b8ff" points="886.2,-236.46 875.68,-237.72 884.69,-243.29 886.2,-236.46"/>
</a>
</g>
</g>
<!-- Node38 -->
<g id="Node000038" class="node">
<title>Node38</title>
<g id="a_Node000038"><a xlink:href="ITimeSource_8hpp.html" target="_top" xlink:title="The abstract behavioral contract for all temporal reference organs.">
<polygon fill="white" stroke="#666666" points="992,-239 894,-239 894,-220 992,-220 992,-239"/>
<text text-anchor="middle" x="943" y="-227" font-family="Helvetica,sans-Serif" font-size="10.00">ITimeSource.hpp</text>
</a>
</g>
</g>
<!-- Node34&#45;&gt;Node38 -->
<g id="edge68_Node000034_Node000038" class="edge">
<title>Node34&#45;&gt;Node38</title>
<g id="a_edge68_Node000034_Node000038"><a xlink:title=" ">
<path fill="none" stroke="#63b8ff" d="M1060.51,-274.98C1037.48,-266.27 1001.46,-252.63 975.37,-242.75"/>
<polygon fill="#63b8ff" stroke="#63b8ff" points="976.49,-239.44 965.9,-239.17 974.02,-245.98 976.49,-239.44"/>
</a>
</g>
</g>
<!-- Node38&#45;&gt;Node4 -->
<g id="edge69_Node000038_Node000004" class="edge">
<title>Node38&#45;&gt;Node4</title>
<g id="a_edge69_Node000038_Node000004"><a xlink:title=" ">
<path fill="none" stroke="#63b8ff" d="M992.14,-220.04C1055.01,-209.23 1162.27,-190.77 1216.88,-181.37"/>
<polygon fill="#63b8ff" stroke="#63b8ff" points="1217.49,-184.82 1226.75,-179.67 1216.3,-177.92 1217.49,-184.82"/>
</a>
</g>
</g>
<!-- Node38&#45;&gt;Node13 -->
<g id="edge71_Node000038_Node000013" class="edge">
<title>Node38&#45;&gt;Node13</title>
<g id="a_edge71_Node000038_Node000013"><a xlink:title=" ">
<path fill="none" stroke="#63b8ff" d="M893.72,-220.08C791.85,-202.3 561.48,-160 488,-129 457.6,-116.17 426.03,-94.49 406.7,-80.08"/>
<polygon fill="#63b8ff" stroke="#63b8ff" points="408.8,-77.29 398.72,-74.03 404.57,-82.86 408.8,-77.29"/>
</a>
</g>
</g>
<!-- Node38&#45;&gt;Node25 -->
<g id="edge72_Node000038_Node000025" class="edge">
<title>Node38&#45;&gt;Node25</title>
<g id="a_edge72_Node000038_Node000025"><a xlink:title=" ">
<path fill="none" stroke="#63b8ff" d="M916.49,-219.98C888.79,-211.09 845.14,-197.07 814.26,-187.15"/>
<polygon fill="#63b8ff" stroke="#63b8ff" points="815.31,-183.81 804.72,-184.08 813.17,-190.47 815.31,-183.81"/>
</a>
</g>
</g>
<!-- Node38&#45;&gt;Node26 -->
<g id="edge70_Node000038_Node000026" class="edge">
<title>Node38&#45;&gt;Node26</title>
<g id="a_edge70_Node000038_Node000026"><a xlink:title=" ">
<path fill="none" stroke="#63b8ff" d="M942.84,-219.74C942.37,-194.31 941,-120.08 940.35,-84.69"/>
<polygon fill="#63b8ff" stroke="#63b8ff" points="943.85,-84.24 940.16,-74.31 936.85,-84.37 943.85,-84.24"/>
</a>
</g>
</g>
</g>
</svg>
